<?xml version="1.0" encoding="UTF-8"?>
<!DOCTYPE svg PUBLIC "-//W3C//DTD SVG 1.1//EN" "http://www.w3.org/Graphics/SVG/1.1/DTD/svg11.dtd">
<!-- Creator: CorelDRAW X7 -->
<svg xmlns="http://www.w3.org/2000/svg" xml:space="preserve" width="2300px" height="2300px" version="1.1" style="shape-rendering:geometricPrecision; text-rendering:geometricPrecision; image-rendering:optimizeQuality; fill-rule:evenodd; clip-rule:evenodd"
viewBox="0 0 99 99"
 xmlns:xlink="http://www.w3.org/1999/xlink">
 <defs>
  <style type="text/css">
   <![CDATA[
    .fil4 {fill:url(#id0)}
    .fil2 {fill:url(#id1)}
    .fil5 {fill:url(#id2)}
    .fil1 {fill:url(#id3)}
    .fil3 {fill:url(#id4)}
    .fil7 {fill:url(#id5)}
    .fil8 {fill:url(#id6)}
    .fil13 {fill:url(#id7)}
    .fil6 {fill:url(#id8)}
    .fil0 {fill:url(#id9)}
    .fil14 {fill:url(#id10)}
    .fil9 {fill:url(#id11)}
    .fil11 {fill:url(#id12)}
    .fil10 {fill:url(#id13)}
    .fil12 {fill:url(#id14)}
   ]]>
  </style>
  <linearGradient id="id0" gradientUnits="userSpaceOnUse" x1="55.9324" y1="25.8643" x2="89.8152" y2="25.8643">
   <stop offset="0" style="stop-opacity:1; stop-color:#525252"/>
   <stop offset="1" style="stop-opacity:1; stop-color:#939393"/>
  </linearGradient>
  <linearGradient id="id1" gradientUnits="userSpaceOnUse" xlink:href="#id0" x1="8.84886" y1="72.5746" x2="43.4052" y2="72.5746">
  </linearGradient>
  <linearGradient id="id2" gradientUnits="userSpaceOnUse" xlink:href="#id0" x1="9.00916" y1="25.7844" x2="43.4052" y2="25.7844">
  </linearGradient>
  <linearGradient id="id3" gradientUnits="userSpaceOnUse" xlink:href="#id0" x1="44.9942" y1="49.406" x2="53.8167" y2="49.406">
  </linearGradient>
  <linearGradient id="id4" gradientUnits="userSpaceOnUse" xlink:href="#id0" x1="55.8576" y1="72.5348" x2="89.9653" y2="72.5348">
  </linearGradient>
  <linearGradient id="id5" gradientUnits="userSpaceOnUse" xlink:href="#id0" x1="7.84341" y1="49.3574" x2="15.7128" y2="49.3574">
  </linearGradient>
  <linearGradient id="id6" gradientUnits="userSpaceOnUse" xlink:href="#id0" x1="45.0201" y1="86.9879" x2="53.624" y2="86.9879">
  </linearGradient>
  <linearGradient id="id7" gradientUnits="userSpaceOnUse" xlink:href="#id0" x1="57.3363" y1="36.1724" x2="60.4869" y2="36.1724">
  </linearGradient>
  <linearGradient id="id8" gradientUnits="userSpaceOnUse" xlink:href="#id0" x1="45.3329" y1="12.086" x2="54.0038" y2="12.086">
  </linearGradient>
  <linearGradient id="id9" gradientUnits="userSpaceOnUse" xlink:href="#id0" x1="46.4411" y1="49.406" x2="52.3698" y2="49.406">
  </linearGradient>
  <linearGradient id="id10" gradientUnits="userSpaceOnUse" xlink:href="#id0" x1="56.0995" y1="31.7612" x2="57.2024" y2="31.7612">
  </linearGradient>
  <linearGradient id="id11" gradientUnits="userSpaceOnUse" xlink:href="#id0" x1="85.4144" y1="48.9537" x2="87.8492" y2="48.9537">
  </linearGradient>
  <linearGradient id="id12" gradientUnits="userSpaceOnUse" xlink:href="#id0" x1="61.5063" y1="44.9947" x2="68.1172" y2="44.9947">
  </linearGradient>
  <linearGradient id="id13" gradientUnits="userSpaceOnUse" xlink:href="#id0" x1="63.8609" y1="49.406" x2="71.608" y2="49.406">
  </linearGradient>
  <linearGradient id="id14" gradientUnits="userSpaceOnUse" xlink:href="#id0" x1="59.2285" y1="40.5835" x2="64.4402" y2="40.5835">
  </linearGradient>
 </defs>
 <g id="Vrstva_x0020_1">
  <metadata id="CorelCorpID_0Corel-Layer"/>
  <g id="_2610578945600">
   <path class="fil0" d="M49 2c-26,0 -47,21 -47,47 0,27 21,48 47,48 27,0 48,-21 48,-48 0,-26 -21,-47 -48,-47zm0 97c-27,0 -49,-22 -49,-50 0,-27 22,-49 49,-49 28,0 50,22 50,49 0,28 -22,50 -50,50z"/>
   <path class="fil1" d="M49 54c-2,0 -4,-2 -4,-5 0,-2 2,-4 4,-4 3,0 5,2 5,4 0,3 -2,5 -5,5z"/>
   <path class="fil2" d="M43 90c-1,0 -1,0 -1,0 -17,-3 -30,-17 -33,-34 0,0 0,-1 1,-1 0,0 1,0 1,1 2,16 15,29 32,32 0,0 0,1 0,1 0,1 0,1 0,1z"/>
   <path class="fil3" d="M57 90c-1,0 -1,0 -1,-1 0,0 0,-1 1,-1 16,-3 28,-16 31,-32 0,-1 1,-1 1,-1 1,0 1,1 1,1 -3,17 -16,31 -33,34 0,0 0,0 0,0z"/>
   <path class="fil4" d="M89 43c0,0 -1,-1 -1,-1 -3,-16 -16,-28 -31,-31 -1,0 -1,-1 -1,-1 0,-1 0,-1 1,-1 16,3 30,16 33,33 0,0 0,1 -1,1 0,0 0,0 0,0z"/>
   <path class="fil5" d="M10 43c0,0 0,0 0,0 -1,0 -1,-1 -1,-1 3,-17 17,-30 33,-33 1,0 1,0 1,1 0,0 0,1 0,1 -16,2 -29,15 -32,31 0,0 -1,1 -1,1z"/>
   <path class="fil6" d="M57 17c0,0 -1,0 -1,-1l-7 -6 -6 6c0,0 -1,0 -1,0 0,0 0,-1 0,-1l7 -7c0,-1 1,-1 1,0l7 7c1,1 1,1 0,1 0,1 0,1 0,1z"/>
   <path class="fil7" d="M15 57c0,0 0,0 -1,0l-6 -7c-1,0 -1,-1 0,-1l7 -7c0,0 0,0 1,0 0,0 0,1 0,1l-6 6 6 6c0,1 0,1 0,2 0,0 -1,0 -1,0z"/>
   <path class="fil8" d="M49 91c0,0 0,0 0,0l-7 -7c0,0 0,-1 0,-1 0,0 1,0 1,0l6 6 6 -6c1,0 1,0 2,0 0,0 0,1 0,1l-7 7c0,0 0,0 -1,0z"/>
   <path class="fil9" d="M84 57c0,0 -1,0 -1,0 0,-1 0,-1 0,-2l6 -6 -7 -7c0,0 0,0 0,-1 1,0 1,0 1,0l8 8c0,0 0,1 0,1l-7 7c0,0 0,0 0,0z"/>
   <path class="fil10" d="M79 50l-23 0c0,0 0,0 0,-1 0,0 0,0 0,0l23 0c1,0 1,0 1,0 0,1 0,1 -1,1z"/>
   <path class="fil11" d="M73 46l-17 0c0,0 0,-1 0,-1 0,0 0,-1 0,-1l17 0c1,0 1,1 1,1 0,0 0,1 -1,1z"/>
   <path class="fil12" d="M67 41l-11 0c0,0 0,0 0,0 0,-1 0,-1 0,-1l11 0c1,0 1,0 1,1 0,0 0,0 -1,0z"/>
   <path class="fil13" d="M62 37l-6 0c0,0 0,0 0,-1 0,0 0,0 0,0l6 0c0,0 0,0 0,0 0,1 0,1 0,1z"/>
   <path class="fil14" d="M57 32l-1 0c0,0 0,0 0,0 0,-1 0,-1 0,-1l1 0c0,0 1,0 1,1 0,0 -1,0 -1,0z"/>
  </g>
 </g>
</svg>
