<?xml version="1.0" encoding="UTF-8"?>
<!DOCTYPE svg PUBLIC "-//W3C//DTD SVG 1.1//EN" "http://www.w3.org/Graphics/SVG/1.1/DTD/svg11.dtd">
<!-- Creator: CorelDRAW X7 -->
<svg xmlns="http://www.w3.org/2000/svg" xml:space="preserve" width="2302px" height="2333px" version="1.1" style="shape-rendering:geometricPrecision; text-rendering:geometricPrecision; image-rendering:optimizeQuality; fill-rule:evenodd; clip-rule:evenodd"
viewBox="0 0 2235 2265"
 xmlns:xlink="http://www.w3.org/1999/xlink">
 <defs>
  <style type="text/css">
   <![CDATA[
    .fil5 {fill:#1A1A1A;fill-rule:nonzero}
    .fil3 {fill:#333333;fill-rule:nonzero}
    .fil1 {fill:#4D4D4D;fill-rule:nonzero}
    .fil0 {fill:#666666;fill-rule:nonzero}
    .fil4 {fill:gray;fill-rule:nonzero}
    .fil2 {fill:#999999;fill-rule:nonzero}
   ]]>
  </style>
    <clipPath id="id0" style="clip-rule:nonzero">
     <path d="M71 2144l-13 0 0 -16 13 0 0 16 0 0z"/>
    </clipPath>
 </defs>
 <g id="Vrstva_x0020_1">
  <metadata id="CorelCorpID_0Corel-Layer"/>
  <g id="_2610739849072">
   <path class="fil0" d="M1980 1205c-1,13 -3,25 -4,37l9 1c2,-12 3,-24 4,-37l-9 -1zm-10 73c-2,12 -4,24 -7,36l10 2c3,-12 5,-24 7,-37l-10 -1zm-15 71c-3,12 -6,23 -10,35l9 3c4,-12 7,-24 10,-36l-9 -2zm-22 70c-4,11 -8,23 -13,34l9 3c5,-11 9,-22 14,-34l-10 -3zm-27 67c-5,11 -10,22 -16,33l9 5c5,-11 11,-22 16,-34l-9 -4zm-33 65c-6,11 -13,21 -19,32l8 5c7,-11 13,-21 19,-32l-8 -5zm-39 62c-7,10 -14,20 -21,30l8 6c7,-10 14,-20 21,-30l-8 -6zm-44 58c-7,10 -15,19 -23,28l7 7c8,-10 16,-19 24,-28l-8 -7zm-48 55c-9,8 -17,17 -26,25l6 7c9,-8 18,-17 27,-25l-7 -7zm-53 50c-10,8 -19,15 -28,23l6 8c9,-8 19,-16 28,-24l-6 -7zm-57 45c-10,7 -20,14 -30,21l5 8c10,-7 20,-14 30,-21l-5 -8zm-61 40c-10,6 -21,12 -32,18l5 9c11,-6 21,-12 32,-18l-5 -9zm-64 35c-11,5 -22,11 -33,15l4 9c11,-5 22,-10 33,-15l-4 -9zm-66 29c-12,5 -23,9 -35,13l3 9c12,-4 24,-8 35,-13l-3 -9zm-69 24c-12,3 -24,6 -36,9l3 10c12,-3 24,-7 35,-10l-2 -9zm-71 17c-12,2 -24,5 -36,7l1 9c13,-2 25,-4 37,-6l-2 -10zm-72 11c-12,2 -24,3 -36,4l0 9c12,0 25,-2 37,-3l-1 -10zm-73 5c-8,1 -15,1 -23,1 -5,0 -9,0 -13,0l0 9c4,0 8,0 13,0 8,0 16,0 23,0l0 -10zm-73 -1c-12,0 -24,-1 -36,-3l-1 10c12,1 24,2 37,3l0 -10zm-72 -7c-12,-2 -24,-4 -36,-6l-2 10c12,2 24,4 36,6l2 -10zm-72 -13c-12,-3 -23,-6 -35,-9l-3 9c12,3 24,6 36,9l2 -9zm-70 -20c-12,-4 -23,-8 -35,-12l-3 9c12,4 23,8 35,12l3 -9zm-68 -26c-12,-4 -23,-9 -34,-15l-4 9c11,5 22,11 34,15l4 -9zm-66 -31c-11,-6 -22,-12 -32,-18l-5 9c10,6 21,12 32,18l5 -9zm-63 -37c-10,-7 -21,-13 -30,-20l-6 8c10,7 20,14 30,20l6 -8zm-60 -42c-9,-8 -19,-15 -28,-23l-6 7c9,8 19,16 28,24l6 -8zm-55 -47c-9,-8 -18,-17 -27,-25l-7 6c9,9 18,18 27,26l7 -7zm-52 -52c-8,-9 -16,-18 -24,-27l-7 6c8,9 16,19 24,28l7 -7zm-47 -56c-7,-9 -14,-19 -21,-29l-8 6c7,10 14,20 22,29l7 -6zm-42 -59c-6,-10 -12,-21 -18,-31l-9 5c6,10 13,21 19,31l8 -5zm-36 -63c-6,-11 -11,-22 -16,-33l-9 5c5,11 11,22 16,33l9 -5zm-31 -66c-5,-11 -9,-22 -14,-34l-9 4c5,11 9,23 14,34l9 -4zm-25 -68c-4,-12 -8,-23 -11,-35l-9 3c3,12 7,23 10,35l10 -3zm-20 -70c-3,-12 -5,-24 -7,-36l-10 2c2,12 5,24 8,36l9 -2zm-13 -72c-2,-12 -3,-24 -4,-36l-10 1c1,12 3,24 4,37l10 -2zm-7 -72c-1,-12 -1,-25 -1,-37l-10 0c0,13 0,25 1,37l10 0zm-1 -73c0,-12 1,-25 2,-37l-10 0c-1,12 -1,24 -2,36l10 1zm5 -73c2,-12 3,-24 5,-36l-9 -2c-2,13 -4,25 -5,37l9 1zm12 -72c2,-12 5,-24 8,-35l-10 -3c-3,12 -5,24 -8,36l10 2zm17 -71c4,-11 7,-23 11,-34l-9 -3c-4,11 -8,23 -11,35l9 2zm24 -69c4,-11 9,-22 14,-33l-9 -4c-5,11 -10,22 -14,34l9 3zm30 -66c5,-11 11,-22 16,-33l-8 -4c-6,10 -12,21 -17,32l9 5zm35 -64c6,-11 13,-21 19,-31l-8 -5c-7,10 -13,20 -20,31l9 5zm40 -61c7,-10 15,-19 22,-29l-7 -6c-8,10 -15,19 -23,29l8 6zm46 -57c8,-9 16,-18 24,-27l-7 -6c-8,8 -16,18 -25,27l8 6zm50 -53c9,-8 18,-16 27,-24l-7 -8c-9,8 -18,17 -27,25l7 7zm54 -48c10,-8 19,-15 29,-22l-6 -8c-9,7 -19,15 -29,22l6 8zm59 -44c10,-6 20,-13 30,-19l-5 -9c-10,7 -20,14 -31,20l6 8zm62 -38c10,-6 21,-12 32,-17l-5 -9c-11,6 -21,12 -32,18l5 8zm65 -33c11,-5 22,-10 33,-14l-4 -9c-11,5 -22,9 -33,14l4 9zm67 -27c11,-4 23,-8 35,-11l-3 -10c-12,4 -24,8 -35,12l3 9zm70 -21c11,-3 23,-6 35,-9l-2 -9c-12,2 -24,5 -36,8l3 10zm71 -15c12,-3 24,-4 36,-6l-1 -9c-12,1 -25,3 -37,5l2 10zm72 -10c12,-1 24,-1 37,-2l-1 -9c-12,0 -24,1 -37,2l1 9zm73 -2c12,0 24,0 36,0l1 -9c-12,-1 -25,-1 -37,-1l0 10zm73 3c12,1 24,2 36,4l1 -10c-12,-1 -24,-3 -36,-4l-1 10zm72 9c12,2 24,5 36,7l2 -9c-12,-3 -24,-5 -36,-7l-2 9 0 0zm71 16c12,3 24,6 35,10l3 -9c-12,-4 -23,-7 -35,-10l-3 9zm70 22c11,4 23,8 34,13l4 -9c-12,-5 -23,-9 -35,-13l-3 9zm67 27c12,5 22,11 33,16l5 -8c-11,-6 -22,-11 -33,-16l-5 8zm65 34c11,6 21,12 32,19l5 -9c-11,-6 -21,-13 -32,-19l-5 9zm62 39c10,7 20,14 30,21l6 -8c-10,-7 -20,-14 -30,-21l-6 8zm58 44c10,7 19,15 28,23l6 -7c-9,-8 -18,-16 -28,-24l-6 8zm54 48c9,9 18,18 26,26l7 -6c-8,-9 -17,-18 -26,-27l-7 7zm50 53c8,10 16,19 23,29l8 -6c-8,-10 -15,-20 -23,-29l-8 6zm45 58c8,10 14,19 21,30l8 -6c-7,-10 -14,-20 -21,-30l-8 6zm40 60c7,11 13,21 18,32l9 -5c-6,-10 -12,-21 -18,-32l-9 5zm35 64c5,11 10,22 15,33l9 -3c-5,-12 -10,-23 -15,-34l-9 4zm29 67c5,11 9,23 13,34l9 -3c-4,-11 -8,-23 -13,-34l-9 3zm23 69c4,12 7,23 10,35l9 -2c-3,-12 -6,-24 -9,-36l-10 3zm18 71c2,12 4,24 6,36l9 -2c-1,-12 -3,-24 -6,-36l-9 2zm11 72c1,12 2,24 3,36l10 0c-1,-13 -2,-25 -4,-37l-9 1zm4 73c1,7 1,14 1,21 0,12 -1,24 -1,36l10 1c0,-13 0,-25 0,-37 0,-7 0,-15 0,-22l-10 1z"/>
   <path class="fil0" d="M1932 1133l-4 0c0,219 -89,418 -233,562 -144,144 -343,233 -562,233 -220,0 -419,-89 -563,-233 -143,-144 -232,-343 -232,-562 0,-220 89,-419 232,-563 144,-143 343,-232 563,-232 219,0 418,89 562,232 144,144 233,343 233,563l9 0c0,-444 -360,-804 -804,-804 -444,0 -804,360 -804,804 0,444 360,804 804,804 444,0 804,-360 804,-804l-5 0z"/>
   <path class="fil1" d="M1914 1133c0,215 -88,411 -229,552 -141,141 -337,229 -552,229l0 37c451,0 818,-367 818,-818l-37 0z"/>
   <path class="fil0" d="M352 1133c0,-216 87,-411 228,-553 142,-141 337,-228 553,-228l0 -37c-452,0 -818,366 -818,818l37 0 0 0z"/>
   <path class="fil0" d="M2223 1133l-12 0c0,297 -121,567 -316,762 -195,195 -465,316 -762,316 -298,0 -568,-121 -763,-316 -195,-195 -316,-465 -316,-762 0,-298 121,-568 316,-763 195,-195 465,-316 763,-316 297,0 567,121 762,316 195,195 316,465 316,763l24 0c0,-609 -493,-1103 -1102,-1103 -609,0 -1103,494 -1103,1103 0,609 494,1102 1103,1102 609,0 1102,-493 1102,-1102l-12 0z"/>
   <path class="fil2" d="M1853 1675c-165,219 -426,360 -720,360 -250,0 -475,-101 -638,-265 -163,-163 -264,-388 -264,-637 0,-141 32,-275 90,-394l-73 -35c-63,130 -98,275 -98,429 0,271 110,517 288,695 177,177 423,288 695,288 320,0 605,-154 785,-392l-65 -49z"/>
   <path class="fil3" d="M439 556c166,-199 415,-325 694,-325 249,0 474,101 637,264 164,163 265,388 265,638 0,62 -7,123 -19,181l80 17c13,-64 20,-131 20,-198 0,-272 -111,-518 -288,-695 -178,-178 -424,-288 -695,-288 -304,0 -576,138 -756,354l62 52z"/>
   <path class="fil4" d="M1133 386l0 184 1 0 0 -184 -1 0zm21 0l-5 184c3,1 7,1 10,1l8 -184c-1,0 -2,0 -3,0l0 0 -1 0 0 0 0 0 -1 0 0 0 0 0 -1 0 0 0 0 0 -1 0 0 0c-2,0 -4,0 -6,-1zm34 2l-14 184c4,0 7,0 10,1l17 -184c-4,0 -9,-1 -13,-1zm33 3l-21 183c3,1 6,1 9,1l25 -182c-2,0 -4,-1 -6,-1l0 0 0 0 0 0 -1 0 0 0 0 0 -1 0 0 0c-1,0 -3,0 -4,-1l-1 0 0 0 0 0zm33 5l-29 182c3,0 6,1 9,1l33 -181c-2,0 -3,0 -5,-1l-1 0 0 0c-2,0 -4,-1 -7,-1l0 0zm33 6l-38 180c4,1 7,2 10,2l41 -179c-1,0 -2,0 -3,-1l0 0 -1 0 0 0 0 0 -1 0 0 0 0 0 0 0 -1 0 0 0 -1 -1 -1 0 0 0 0 0 -1 0 0 0 0 0c-1,0 -3,-1 -4,-1zm33 8l-46 178c3,1 6,2 9,3l50 -178c-5,-1 -9,-2 -13,-3zm32 9l-54 176c3,1 6,2 9,3l58 -175 -3 -1 0 0 0 0 -1 0 0 0 -1 -1 0 0 -1 0 -1 0 0 0 -1 0 0 0 0 -1 0 0 -1 0 0 0 0 0c-1,0 -3,-1 -4,-1zm32 10l-62 174c3,1 6,2 9,3l65 -172c-4,-2 -8,-3 -12,-5zm31 12l-70 171c3,1 7,2 10,4l72 -169c-4,-2 -8,-4 -12,-6zm31 14l-77 167c3,1 6,3 8,4l81 -166c-2,0 -4,-1 -6,-2l0 0 0 0 -1 -1 0 0c-2,-1 -3,-1 -5,-2zm30 15l-85 163c3,2 6,3 9,5l88 -162c-2,-1 -3,-2 -5,-2l0 -1 0 0c-2,-1 -5,-2 -7,-3zm29 16l-92 159c3,2 6,3 9,5l95 -158c-2,-1 -3,-1 -5,-2l0 0 0 -1 0 0 -1 0 0 0 0 0c-1,-1 -3,-1 -4,-2l0 0 0 -1 0 0 -1 0 0 0 0 0 -1 0zm29 17l-99 155c3,2 5,4 8,6l102 -154 0 0 0 0 0 0 -1 0 0 0 0 0 0 -1 -1 0 0 0 0 0 0 0 -1 0 0 -1 0 0 0 0 0 0 -1 0 0 0 0 -1 0 0 -1 0 0 0 0 0 0 0 -1 0 0 -1 0 0 0 0 -1 0 0 0c-1,-1 -3,-2 -4,-3zm28 19l-106 150c3,2 5,4 8,6l108 -149 -1 -1 -1 0 0 0 0 0 0 -1 -1 0 0 0 0 0 0 0 -1 0 0 -1 0 0 0 0 0 0 -1 0 0 0 0 -1 0 0c-2,-1 -4,-2 -5,-3zm27 20l-113 145c3,2 5,4 8,6l115 -143 -1 -1 0 0 0 0 0 0 -1 -1 0 0 0 0 0 0 0 0c-3,-2 -6,-4 -8,-6zm26 21l-119 140c2,2 5,4 7,7l122 -139 -1 -1 -1 0 0 0c-2,-2 -4,-4 -6,-5l0 0 0 -1 -2 -1zm25 22l-125 135c2,2 5,4 7,7l127 -133c-1,-2 -3,-3 -5,-5l0 0 0 -1 0 0 -1 0 0 0 0 0 0 0 -1 -1 0 0 0 0 -1 -1 0 0 0 0 0 0 -1 -1 0 0 0 0 0 0zm24 23l-131 130c2,2 5,4 7,7l133 -127 -2 -3 -1 0 0 0 0 0 0 -1 0 0 -1 0 0 0 0 0 -1 -1 0 0 0 -1 0 0 0 0 0 0 -1 0 0 0 0 -1 0 0 -1 0 0 0 0 -1 0 0 0 0 -2 -2zm23 25l-137 123c2,2 5,5 7,7l139 -121 -3 -2 0 -1 0 0 0 0 0 0c-2,-2 -4,-4 -6,-6zm22 25l-142 117c2,3 4,5 6,8l144 -115 -2 -2 0 0 0 0 0 0 -1 -1 0 0 0 -1 0 0 0 0 0 0 -1 -1 0 0 0 0 0 0 0 0 0 0 -1 -1 0 0 0 0 0 0 0 -1 -1 0 0 0 0 0 0 0 0 -1 0 0 -1 0 0 0 -1 -2zm20 26l-147 111c2,3 4,5 6,8l149 -108 0 0 0 0 -1 -2 0 0 -1 -2 0 0 -1 0 0 -1 0 0 0 0 0 0 -1 0 0 -1 0 0 0 0 0 0 0 -1 -1 0 0 0 0 0 0 -1 0 0 0 0 -1 0 0 0 0 -1 0 0 0 0 0 0 0 0 -2 -2zm20 27l-152 104c2,3 4,6 6,9l153 -102 -1 -1 0 -1 0 0c-1,-2 -3,-4 -4,-5l0 -1 0 0 0 0 0 0 -2 -3zm18 28l-156 98c2,2 3,5 5,8l158 -94c-1,-3 -3,-6 -5,-8l0 0 0 -1 0 0 -2 -3zm17 29l-160 90c1,3 3,6 5,9l162 -87c-1,-1 -1,-2 -2,-3l0 0 0 -1 0 0 -1 0 0 -1 0 0 0 0 0 0 0 -1 0 0 -1 0 0 0 0 -1 0 0 0 0 0 0 0 -1 0 0 -1 0 0 0 0 -1 0 0 0 0 0 0 0 -1 -1 0 0 0 0 0 0 -1 0 0 0 0 0 0 -1 -1zm16 30l-164 83c1,2 3,5 4,8l166 -79 0 0 0 -1 0 0c-2,-4 -4,-7 -6,-11zm14 30l-168 75c2,3 3,6 4,9l170 -72c-2,-4 -4,-8 -6,-12zm13 31l-171 68c1,3 3,6 4,9l172 -65c-1,-4 -3,-8 -5,-12zm12 31l-174 60c1,3 2,6 3,10l175 -57c-1,-4 -3,-8 -4,-13zm10 32l-177 52c1,3 2,6 3,10l178 -49 -1 -2 0 0 0 0c-1,-2 -1,-5 -2,-7l0 0 0 0c0,-1 -1,-3 -1,-4zm9 33l-179 43c1,4 2,7 2,10l180 -40 0 -1 0 0 0 -1 -1 0 0 0c0,-2 0,-4 -1,-6l0 0 0 0 0 0 0 -1 0 0 0 0 0 -1 0 0 0 0 -1 0 0 -1 0 0 0 -1 0 0 0 0 0 -1 0 0 0 0zm7 32l-181 36c1,3 2,7 2,10l181 -33 0 -1 0 0 0 -1 0 0 0 0 0 0 0 -1 0 0 0 0 0 -1 0 0 0 0 0 -1 0 0 -1 0 0 0c0,-3 0,-5 -1,-8zm6 33l-182 28c0,3 1,6 1,10l183 -25c-1,-1 -1,-3 -1,-4l0 0 0 -1 0 0 0 0 0 -1 0 0 0 0 0 0 0 -1 0 0 0 0 0 0 -1 -1 0 0 0 0 0 -1 0 0 0 0 0 -1 0 0 0 0 0 -3zm4 34l-183 19c0,3 1,6 1,10l183 -16 0 -3 0 0 0 -1 0 0 0 0c0,-3 -1,-6 -1,-9zm3 33l-184 11c0,3 0,7 1,10l183 -8 0 0 0 0 0 -1 0 0 0 0c0,-2 0,-4 0,-6l0 0 0 -1 0 -1 0 0 0 0 0 0 0 -1 0 0 0 0 0 -1 0 0 0 0 0 0 0 -2zm1 33l-184 3c0,4 0,7 0,10l0 0 184 1 0 -2 0 -1 0 -3 0 0 0 -1 0 0 0 -1c0,-2 0,-4 0,-6zm-184 29c0,3 0,6 0,10l183 8c1,-4 1,-9 1,-13l-184 -5zm-1 25c-1,3 -1,7 -1,10l183 17 0 -3 0 0 0 -1 0 0 0 0 0 -1 1 0 0 0 0 -1 0 0 0 0 0 -1 0 0 0 0 0 -1 0 0 0 0 0 0 0 -1 0 0 0 0 0 -1 0 0 0 0 0 0 0 -1 0 0 0 -3 -183 -13zm-3 25c0,4 -1,7 -1,10l182 25c1,-2 1,-4 1,-5l0 -1 0 0 0 0 0 0 0 -1 0 0c1,-2 1,-4 1,-6l-183 -22zm-3 25c-1,4 -1,7 -2,10l181 33 0 -2 0 0 1 0c0,-4 1,-7 1,-11l-181 -30zm-5 25c-1,3 -1,7 -2,10l179 41c1,-2 1,-3 1,-4l0 0 0 -1 0 0 0 0 1 -1c0,-2 1,-5 1,-7l-180 -38zm-6 25c0,3 -1,6 -2,9l177 49 1 -2 0 -1 0 0c1,-3 2,-6 3,-9l-179 -46zm-6 24c-1,3 -2,6 -3,9l175 57c0,-1 0,-2 1,-4l0 0 0 -1 0 0 0 0 0 -1 1 0 0 0 0 -1 0 0 0 0 0 0 0 -1 0 0 0 0 0 0 0 -1 0 0 1 0 0 0 0 -3 -175 -54zm-8 24c-2,3 -3,6 -4,9l172 65c2,-3 3,-7 4,-10l0 0 0 0 1 -2 -173 -62zm-9 23c-2,3 -3,6 -4,9l169 73c1,-2 2,-4 2,-6l1 0 0 0 0 -1 0 0 0 0 0 0c1,-2 1,-4 2,-5l-170 -70zm-10 23c-2,3 -3,6 -5,9l166 80c2,-4 4,-7 6,-11l-167 -78zm-12 23c-1,3 -3,6 -4,9l162 87 1 -1 0 0 0 -1 0 0 0 0 0 0 0 -1c1,-2 3,-4 4,-6l0 0 0 -1 0 0 0 0 1 -1 0 0 0 0 -164 -85zm-12 22c-1,3 -3,6 -5,9l158 94c1,-2 2,-4 4,-5l0 0 0 -1 0 0 0 0 0 0 0 -1 0 0 1 0 0 0 0 -1 0 0 0 0 0 0 1 -1 0 0 0 0 0 0 0 -1 0 0 0 0 0 0 1 -1 0 0 0 0 -160 -92zm-13 22c-2,2 -3,5 -5,8l153 102c1,-2 2,-3 3,-5l0 0 1 0 0 -1 0 0c1,-2 2,-3 3,-5l-155 -99zm-14 21c-2,2 -4,5 -6,8l149 108c2,-3 4,-6 7,-9l0 0 0 0 0 0 0 -1 0 0 0 0 1 0 0 0 0 -1 -151 -105zm-15 20c-2,3 -4,5 -6,8l144 115 0 -1 0 0 0 0c2,-2 4,-4 6,-7l0 0 0 0 2 -3 -146 -112zm-16 20c-2,2 -4,5 -6,7l138 121 2 -1 0 0 0 -1 0 0 1 -1 0 0 0 0 0 0 1 0 0 -1 0 0 0 0 0 0 0 0 1 -1 0 0c1,-2 3,-3 4,-5l-141 -118zm-16 19c-3,2 -5,4 -7,7l133 127 1 -2 0 0 1 0 0 0 0 0 0 -1 1 0 0 0 0 0 0 0 0 -1 0 0 1 0 0 0c1,-2 3,-4 5,-5l-135 -125zm-18 18c-2,2 -5,4 -7,7l127 133c2,-2 5,-5 7,-7l0 0 0 0 2 -2 -129 -131zm-18 17c-3,2 -5,4 -8,7l121 138c2,-1 4,-3 6,-5l0 0 1 -1 0 0 1 0 0 0 0 0 0 -1 0 0 2 -1 -123 -137zm-20 17c-2,2 -5,4 -7,6l114 144 1 -1 0 0 1 0 0 0 0 -1 0 0 1 0 0 0 0 0 0 -1 2 -1 0 0c1,0 2,-1 3,-2l0 0 0 -1 0 0 1 0 0 0 0 0 1 -1 0 0 1 0 -118 -142zm-19 15c-3,2 -6,4 -8,6l108 149 0 0 0 0 1 0 0 -1 0 0c3,-2 6,-4 9,-7l-110 -147zm-21 15c-3,2 -5,4 -8,6l101 153 1 0 0 -1 1 0 0 0 0 0c3,-2 6,-4 9,-6l-104 -152zm-21 14c-3,2 -6,3 -8,5l94 158 2 -1 0 0 0 0 1 -1 0 0c2,-1 3,-2 5,-3l0 0 0 0 0 0 1 0 2 -2 -97 -156zm-22 13c-3,1 -5,3 -8,4l87 163 2 -2 1 0 0 0 0 0 0 0 1 -1 0 0 0 0 0 0 1 0 0 0 0 0 0 0 1 -1 0 0 0 0 0 0 1 0 0 0 1 -1 0 0 0 0 0 0 1 0 0 0 0 -1 0 0 0 0 1 0 0 0 0 0 0 0 1 -1 0 0 0 0 -90 -160zm-22 11c-3,2 -6,3 -9,5l80 166 2 -1 0 0 0 -1 1 0 0 0 0 0 0 0 1 0 0 0 0 0 1 0 0 -1 0 0 0 0 0 0 1 0 0 0 0 0 1 -1 0 0c1,0 3,-1 5,-2l-83 -165zm-23 11c-3,2 -6,3 -9,4l72 170 1 -1 0 0 0 0 1 0c3,-2 7,-3 10,-5l0 0 -75 -168zm-23 10c-3,1 -6,2 -9,4l64 172 0 0c5,-2 9,-3 13,-5l-68 -171zm-24 9c-3,1 -6,2 -9,3l57 175c4,-1 8,-3 12,-4l-60 -174zm-24 7c-3,1 -6,2 -9,3l49 178 0 0c4,-2 8,-3 12,-4l-52 -177zm-24 7c-3,1 -6,1 -9,2l40 180 3 -1 0 0 0 0c3,-1 6,-1 9,-2l1 0 0 0 -44 -179zm-24 5c-4,1 -7,2 -10,2l32 181c2,0 5,0 7,-1l0 0 0 0 0 0 1 0 0 0 0 0 1 0 0 0 0 0 0 0 1 0 0 0 0 0 0 0 2 -1 0 0 0 0 0 0 1 0 0 0 0 0 0 0 -35 -181zm-25 5c-4,0 -7,1 -10,1l24 183c2,-1 4,-1 6,-1l0 0 0 0 1 0 0 0 0 0 0 0 2 -1 0 0c1,0 3,0 4,0l-27 -182zm-25 3c-4,0 -7,1 -10,1l16 183 0 0 0 0 1 0 0 0 0 0 1 0 0 0 0 0 0 0 1 0 0 0 0 0 1 0c2,0 5,-1 8,-1l0 0 1 0 0 0 0 0 -19 -183zm-26 2c-3,0 -6,0 -9,1l7 183 1 0 0 0c2,0 5,0 7,0l0 0 1 0 0 0 1 0 0 0 0 0c1,0 2,0 4,0l-12 -184zm-25 1c-3,0 -6,0 -9,0l-1 0 0 184 4 0 0 0 2 0c2,0 5,0 7,0l-3 -184zm-35 0l-9 183c3,0 5,1 7,1l0 0 0 0 1 0 0 0 0 0 0 0 1 0 0 0 0 0 0 0 1 0 0 0 1 0 0 0 0 0 1 0 2 0 5 -184c-4,0 -7,0 -10,0zm-25 -2l-17 183 1 0 0 0 0 0 0 0 1 0 0 0 0 0 1 0 0 0 0 0 0 0c4,1 7,1 10,1l13 -183c-3,-1 -6,-1 -9,-1zm-26 -3l-24 182c1,1 2,1 3,1l0 0 1 0c1,0 3,0 5,1l0 0 0 0 1 0 0 0 0 0 0 0 3 0 21 -183c-3,0 -6,-1 -10,-1zm-24 -4l-33 181 2 1 0 0 0 0 1 0 0 0c3,0 6,1 10,1l29 -181c-3,-1 -6,-1 -9,-2zm-25 -5l-41 179c2,1 3,1 5,2l0 0 0 0 0 0 1 0 0 0 0 0c2,0 5,1 7,1l38 -180c-4,-1 -7,-1 -10,-2zm-25 -6l-49 177 2 1 0 0 0 0 0 0 1 0c3,1 7,2 10,3l46 -179c-3,0 -6,-1 -10,-2zm-24 -7l-57 175c3,0 5,1 7,2l1 0 0 0 0 0 0 0 1 0 0 0 0 0 0 0 3 1 0 0 0 0 0 0 0 0 1 1 54 -176c-3,-1 -7,-2 -10,-3zm-23 -9l-65 173c4,1 8,3 12,4l62 -173c-3,-1 -6,-3 -9,-4zm-24 -9l-72 169 1 1 0 0 0 0c4,1 7,3 11,4l69 -170c-3,-2 -6,-3 -9,-4zm-23 -11l-80 166 1 0 0 1 0 0 0 0 1 0 1 0 0 0c3,2 6,3 9,5l77 -167c-3,-2 -6,-3 -9,-5zm-22 -11l-88 162c1,1 3,1 4,2l0 0 0 0c3,1 5,3 8,4l85 -163c-3,-2 -6,-3 -9,-5zm-22 -13l-95 158c4,3 8,5 12,7l91 -160c-2,-1 -5,-3 -8,-5zm-21 -13l-102 153c1,1 3,2 5,3l0 1 0 0 0 0 1 0 0 0 0 0 0 1 1 0 0 0 0 0 0 0 1 1 0 0 3 2 99 -156c-3,-1 -6,-3 -8,-5zm-21 -14l-109 148c3,2 5,4 8,6l0 0 1 0 0 0 0 1 0 0 0 0 2 1 106 -151c-3,-2 -5,-3 -8,-5zm-20 -16l-115 144c3,3 7,5 10,8l113 -146c-3,-2 -6,-4 -8,-6zm-20 -16l-121 139c3,2 7,5 10,8l0 0 119 -141c-3,-2 -5,-4 -8,-6zm-18 -17l-128 133c4,3 7,6 10,9l125 -135c-2,-3 -5,-5 -7,-7zm-18 -18l-133 127c3,3 6,6 9,10l131 -130c-3,-2 -5,-5 -7,-7zm-17 -19l-139 121c3,4 6,7 9,10l136 -123c-2,-3 -4,-5 -6,-8zm-16 -19l-144 115 1 1 0 0 0 1 1 0 0 0 0 1 0 0c2,2 3,4 5,6l0 0 0 0 1 1 142 -117c-2,-3 -4,-5 -6,-8zm-16 -20l-149 108c3,4 6,7 8,11l147 -111c-2,-3 -4,-5 -6,-8zm-14 -21l-154 102 1 0 0 0 1 2 0 1 0 0 1 0 0 0 0 1 0 0 0 0 1 1 0 0 0 0 0 0 0 0 0 1 0 0 1 0 0 0 0 1 0 0c1,1 2,2 3,3l151 -104c-1,-2 -3,-5 -5,-8zm-14 -21l-158 94c3,4 5,8 7,11l157 -97c-2,-3 -4,-5 -6,-8zm-12 -22l-162 87 0 0 0 1 0 0 1 0 0 0 0 1 0 0 1 1 0 0 0 1 0 0 0 0c1,3 3,5 4,8l161 -91c-2,-2 -3,-5 -5,-8zm-11 -23l-166 80 0 0 0 0 0 1 0 0 0 0c2,4 4,7 6,11l164 -83c-2,-3 -3,-6 -4,-9zm-11 -23l-169 73c2,4 3,8 5,12l168 -76c-1,-3 -3,-6 -4,-9zm-9 -23l-173 65c2,4 4,8 5,12l171 -68c-1,-3 -2,-6 -3,-9zm-9 -24l-175 57c1,3 3,7 4,10l0 0 0 0 0 1 0 0 1 2 174 -60c-1,-3 -3,-7 -4,-10zm-7 -24l-177 49c0,1 0,2 1,3l0 0 0 0 0 1 0 0 0 0 0 0 0 1 0 0 0 1c1,2 2,4 2,7l177 -52c-1,-3 -2,-7 -3,-10zm-6 -24l-179 40 0 1 0 0 0 0 0 0 0 1 0 0 0 0 0 1 0 0 0 1 0 0c1,2 1,4 2,5l0 0 0 2 0 0 0 0 0 0 0 1 0 0 0 0 1 1 0 0 0 0 178 -44c0,-3 -1,-6 -2,-9zm-5 -25l-181 33c0,1 1,3 1,5l0 0 0 0 0 0 0 0c0,3 1,5 1,8l181 -36c-1,-3 -1,-7 -2,-10zm-4 -25l-182 25 0 0 0 1 0 0c0,3 1,6 1,9l0 0 0 0 1 3 182 -28c-1,-3 -1,-7 -2,-10zm-3 -25l-183 16c0,5 1,9 1,13l183 -19c0,-3 0,-7 -1,-10zm-1 -25l-184 8c0,3 0,6 0,9l0 0 0 0c0,1 0,3 1,4l183 -11c0,-4 0,-7 0,-10zm-185 -26l184 1 -184 0 0 2 0 0 0 2c0,1 0,3 0,4l0 1 0 0 0 1 0 0 0 2 184 -3c0,-3 0,-6 0,-9l-184 -1zm0 0l184 0 -184 0zm1 -33l0 0c0,4 0,9 -1,13l184 5c1,-3 1,-7 1,-10l-184 -8zm2 -34l0 3 0 0 0 0 0 1 0 0 0 0 0 0 0 1 0 0 0 0 0 1 0 0 0 0 0 1 0 0 0 0 0 0 0 1 0 0 -1 0 0 1 0 0 0 0 0 0 0 1 0 0 0 0 0 1 0 0 0 0 0 0 0 3 184 13c0,-4 0,-7 0,-10l-183 -17zm4 -33c-1,3 -1,6 -1,10l0 0 0 0 0 0 0 1 -1 0 0 0 0 1 0 0 0 0 0 0 0 1 0 0 0 0 183 22c0,-4 1,-7 1,-10l-182 -25zm5 -33l0 0c0,2 -1,4 -1,5l0 0 0 1 0 0 0 0 0 1 0 0 0 0 0 0 0 1 0 0 0 0 0 0 0 1 -1 0 0 0 0 1 0 0c0,1 0,2 0,3l182 30c0,-4 1,-7 1,-10l-181 -33zm7 -33l-1 3 0 0 0 0 0 1 0 0c-1,3 -1,6 -2,9l180 38c1,-3 2,-7 2,-10l-179 -41zm8 -32l0 0 0 0 0 0 0 1 0 0 0 0 0 0 -1 1 0 0 0 1 0 0 0 1 0 0 0 0 0 1 0 0 -1 0 0 1 0 0 0 0 0 1 0 0c-1,2 -1,4 -1,5l178 46c1,-3 2,-6 2,-9l-177 -49zm10 -32c-2,4 -3,8 -4,12l176 54c1,-3 2,-6 3,-9l-175 -57zm11 -32l-1 1 0 0 0 0 0 1 0 0 0 0 0 0 0 1 0 0 -1 0 0 0 0 1 0 0 0 0 0 0 0 1 0 0 0 0 0 1 -1 0 0 0 0 0 0 1 0 0 0 0 0 1 0 0 -1 1 0 0c0,1 0,2 -1,3l174 62c1,-3 2,-6 3,-9l-172 -65zm12 -31c-1,2 -1,3 -2,5l0 0 0 0 0 0 0 0 0 1 0 0c-1,2 -2,4 -3,6l171 70c1,-3 2,-7 3,-10l-169 -72 0 0zm14 -31l-1 3 0 1 -1 0 0 0 0 0c-1,3 -2,6 -4,8l0 0 0 0 168 77c1,-3 2,-6 4,-8l-166 -81zm15 -29c-1,2 -2,4 -4,7l0 0 0 0 0 0 0 1 0 0 0 0c-1,1 -1,2 -2,3l164 85c1,-3 3,-6 4,-9l-162 -87zm17 -29l-1 1 0 0 0 1 -1 0 0 0c-1,2 -3,5 -4,7l0 1 0 0 -1 1 160 92c1,-3 3,-6 5,-9l-158 -94zm18 -29l0 0 0 0c-2,2 -3,4 -4,5l0 1 0 0 0 0 0 0 -1 1 0 0 0 0 0 0c-1,2 -2,3 -2,4l155 99c2,-3 3,-5 5,-8l-153 -102zm19 -27c-3,3 -5,7 -8,10l151 106c2,-3 4,-5 6,-8l-149 -108zm20 -27l-2 2 0 1 0 0 0 0 0 0 0 0 -1 1 0 0c-1,2 -3,4 -5,6l146 113c2,-3 4,-5 6,-8l-144 -115zm22 -26l-1 2 -1 0 0 0 0 0 0 0c-2,3 -5,6 -7,8l141 119c2,-2 4,-5 6,-7l-138 -122zm22 -24c-2,2 -4,4 -6,6l0 0 0 1 -3 2 135 125c3,-2 5,-5 7,-7l-133 -127zm24 -24l-1 0 0 0 0 1c-2,2 -4,4 -6,6l0 0 -1 0 0 0 0 1 0 0 0 0 -1 0 0 0 0 1 0 0 -1 0 130 131c2,-2 5,-5 7,-7l-127 -133zm25 -23c-4,3 -7,6 -10,9l123 137c3,-3 5,-5 8,-7l-121 -139zm25 -21c-2,2 -4,3 -6,5l0 0 -1 1c-1,0 -2,1 -3,2l117 142c3,-2 6,-4 8,-6l-115 -144zm27 -20c-1,0 -2,1 -4,2 -1,1 -3,3 -4,4l0 0 -1 0 0 0 0 0 -2 1 111 147c3,-2 6,-4 8,-6l-108 -148zm27 -19c-3,2 -6,4 -10,6l0 0 0 1 0 0 104 152c2,-2 5,-4 8,-6l-102 -153zm29 -18c-2,1 -4,2 -6,3l0 0 0 0 -1 1 0 0 0 0 0 0 -1 0 0 0 0 1 0 0 -1 0 0 0 -2 2 97 156c3,-2 6,-4 8,-5l-94 -158zm29 -17l-1 1 -1 0 0 0 0 0 0 0 -1 1 0 0 0 0 0 0c-3,1 -5,3 -8,4l0 0 0 0 -1 0 91 161c2,-2 5,-3 8,-5l-87 -162zm30 -15c-4,2 -8,4 -12,5l0 1 83 164c3,-1 6,-3 9,-4l-80 -166zm30 -14c-2,1 -3,2 -5,2l0 0 -1 1 0 0 -1 0c-1,1 -3,2 -5,2l76 168c3,-1 6,-2 9,-4l-73 -169zm31 -12l0 0 0 0 0 0c-2,0 -3,1 -5,2l0 0 0 0c-2,0 -4,1 -6,2l0 0 -1 0 0 0 68 171c3,-1 6,-2 9,-3l-65 -172zm32 -12c-4,2 -7,3 -11,4l0 0 0 0 0 0 -1 0 0 1 59 174c4,-1 7,-2 10,-3l-57 -176zm32 -9c-4,1 -8,2 -13,3l52 177c4,-1 7,-2 10,-3l-49 -177zm33 -8c-4,0 -7,1 -10,2l0 0 0 0 -3 1 44 178c3,0 6,-1 9,-2l-40 -179zm32 -7c-2,0 -5,1 -7,1l0 0 0 0c-2,1 -4,1 -6,1l36 181c4,-1 7,-1 10,-2l-33 -181zm33 -5c-2,0 -4,0 -6,1l0 0 -1 0 0 0 0 0 -1 0 0 0 0 0 0 0 -1 0 0 0 0 0 -1 0c-1,0 -2,1 -3,1l28 182c3,-1 7,-1 10,-2l-25 -182zm34 -4c-3,0 -6,1 -9,1l0 0 0 0c-2,0 -3,0 -4,0l19 183c3,0 7,0 10,-1l-16 -183zm33 -2c-2,0 -3,0 -5,0l0 0 -2 0 0 0 0 0 -1 0 0 0 -1 0 -1 0 0 0 0 0 -1 0 0 0 0 0 -2 1 11 183c4,0 7,0 10,0l-8 -184zm34 -1l-2 0c-4,0 -8,0 -12,0l4 184c3,0 6,0 10,0l0 -184z"/>
   <path class="fil5" d="M1401 1464c-73,59 -167,95 -268,95 -3,0 -5,0 -7,0l-1 61c3,0 5,0 8,0 116,0 223,-41 306,-109l-38 -47zm-356 86c-100,-21 -187,-77 -247,-154l-48 38c69,88 168,151 282,175l13 -59zm-292 -223c-30,-58 -46,-124 -46,-194 0,-33 3,-64 10,-95l-59 -13c-8,35 -12,71 -12,108 0,80 19,155 53,222l54 -28zm-10 -366c40,-92 112,-166 201,-211l-27 -54c-102,50 -184,135 -230,240l56 25zm278 -240c35,-9 73,-14 112,-14 63,0 124,14 178,38l25 -55c-62,-28 -131,-44 -203,-44 -45,0 -87,6 -128,17l16 58zm360 66c80,57 140,142 165,240l59 -15c-29,-112 -97,-209 -188,-275l-36 50zm177 321c0,8 1,16 1,25 0,104 -38,199 -100,273l47 39c71,-84 114,-194 114,-312 0,-10 -1,-19 -1,-28l-61 3z"/>
   <path class="fil0" d="M1912 1834c-192,213 -470,347 -779,347 -290,0 -552,-118 -741,-307 -190,-190 -307,-452 -307,-741 0,-290 117,-552 307,-741 189,-190 451,-307 741,-307l0 -85c-313,0 -596,127 -801,332 -205,205 -332,488 -332,801 0,312 127,596 332,801 205,204 488,331 801,331 334,0 634,-144 841,-375l-62 -56z"/>
   <path class="fil1" d="M1499 1168l0 0c0,6 4,12 10,12 6,1 12,-4 12,-10 1,-6 -4,-11 -10,-12 -6,0 -11,4 -12,10zm-5 35l0 0c-1,6 3,12 9,13 6,1 12,-2 13,-8l0 0c1,-6 -3,-12 -9,-13 -6,-2 -12,2 -13,8zm-8 35l0 0c-2,6 1,12 7,14 6,1 12,-2 14,-8l0 0c2,-6 -2,-12 -8,-14 -5,-1 -12,2 -13,8zm-12 33l0 0c-2,6 0,13 6,15 6,2 12,-1 14,-6 3,-6 0,-12 -6,-15 -5,-2 -12,1 -14,6zm-15 33l0 0c-3,5 -1,12 5,15 5,2 12,0 15,-5l0 0c2,-5 0,-12 -5,-15 -6,-3 -12,-1 -15,5zm-18 30l0 0c-3,5 -2,12 3,16 5,3 12,2 15,-4l0 0c4,-5 2,-11 -3,-15 -5,-3 -12,-2 -15,3zm-21 29l0 0c-4,5 -3,12 2,16 4,3 11,3 15,-2l0 0c4,-5 3,-12 -1,-16 -5,-3 -12,-3 -16,2zm-24 27l0 0c-4,4 -4,11 1,15 4,5 11,5 15,0 4,-4 4,-11 0,-15 -4,-5 -11,-5 -16,0zm-26 24l0 0c-4,4 -5,11 -1,16 4,4 11,5 16,1l0 0c4,-4 5,-11 1,-16 -4,-4 -11,-5 -16,-1zm-28 22l0 0c-5,3 -6,10 -3,15 4,5 11,6 16,3l0 0c5,-4 6,-11 3,-16 -4,-5 -11,-6 -16,-2zm-30 18l0 0c-5,3 -7,10 -4,16 3,5 9,7 15,4l0 0c5,-3 7,-10 4,-15 -3,-6 -10,-7 -15,-5zm-32 16l0 0c-5,3 -8,9 -6,15 3,5 9,8 15,6 6,-3 8,-9 6,-15 -3,-6 -9,-8 -15,-6zm-33 13l0 0c-6,2 -9,8 -7,14 2,6 8,9 14,7 6,-2 9,-8 7,-14 -2,-6 -8,-9 -14,-7zm-34 9l0 0c-6,2 -10,8 -9,13 1,6 7,10 13,9l0 0c6,-1 10,-7 9,-13 -2,-6 -7,-10 -13,-9zm-35 6l0 0c-7,1 -11,7 -10,13 1,6 6,10 12,9l0 0c6,-1 11,-6 10,-12 -1,-6 -6,-10 -12,-10zm-36 3l0 0c-6,0 -11,5 -11,11 0,6 6,11 12,11l0 0c6,0 11,-5 10,-11 0,-6 -5,-11 -11,-11zm-36 -1l0 0c-6,0 -11,4 -11,10 -1,6 4,12 10,12l0 0c6,1 11,-4 12,-10 0,-6 -4,-11 -11,-12zm-35 -4l0 0c-6,-1 -12,3 -13,9 -1,6 3,12 9,13l0 0c7,1 12,-3 13,-9 1,-6 -3,-12 -9,-13zm-35 -8l0 0c-5,-1 -12,2 -13,8 -2,6 2,12 8,14l0 0c6,1 12,-2 13,-8 2,-6 -2,-12 -8,-14zm-33 -11l0 0c-6,-2 -12,1 -15,7 -2,6 1,12 7,14l0 0c5,2 12,-1 14,-6 2,-6 -1,-12 -6,-15zm-33 -14l0 0c-6,-2 -12,0 -15,5 -3,6 0,12 5,15l0 0c6,3 12,0 15,-5 3,-5 0,-12 -5,-15zm-31 -17l0 0c-5,-3 -12,-2 -15,4 -4,5 -2,12 3,15l0 0c5,3 12,1 15,-4 4,-5 2,-12 -3,-15zm-29 -20l0 0c-5,-4 -12,-3 -16,2 -4,5 -3,12 2,15l0 0c5,4 12,3 16,-2 3,-5 2,-12 -2,-15l0 0zm-28 -23l0 0c-4,-4 -11,-4 -15,0 -4,5 -4,12 0,16l0 0c5,4 12,4 16,-1 4,-4 4,-11 -1,-15zm-25 -26l0 0c-4,-4 -11,-4 -15,0 -5,4 -5,11 -1,15 4,5 11,5 16,1 4,-4 4,-11 0,-16zm-22 -27l0 0c-4,-5 -10,-6 -15,-3 -5,4 -6,11 -3,16l0 0c4,5 11,6 16,2 5,-3 6,-10 2,-15zm-19 -30l0 0c-4,-5 -10,-7 -16,-4 -5,3 -7,10 -3,15 3,6 9,7 15,4 5,-3 7,-10 4,-15zm-17 -31l0 0c-3,-6 -9,-8 -15,-6 -5,3 -8,9 -5,15l0 0c2,6 9,8 15,5 5,-2 7,-9 5,-14l0 0zm-14 -33l0 0c-2,-6 -8,-9 -14,-7 -5,2 -8,8 -6,14l0 0c2,6 8,9 14,7 5,-2 8,-9 6,-14zm-10 -34l0 0c-1,-6 -7,-10 -13,-8 -6,1 -10,7 -8,13l0 0c1,6 7,10 13,8 6,-1 10,-7 8,-13zm-7 -35l0 0c-1,-6 -6,-10 -12,-9 -6,0 -10,6 -10,12l0 0c1,6 7,10 13,9 6,-1 10,-6 9,-12zm-3 -36l0 0c-1,-6 -6,-10 -12,-10 -6,0 -11,5 -10,12 0,6 5,10 11,10 6,0 11,-5 11,-12zm0 -35l0 0c0,-6 -5,-11 -11,-12 -6,0 -11,5 -11,11 -1,6 4,11 10,11 6,1 11,-4 12,-10zm3 -36l0 0c1,-6 -3,-11 -9,-12 -6,-1 -12,3 -13,9l0 0c-1,6 3,12 10,13 6,1 11,-4 12,-10zm7 -35l0 0c1,-5 -3,-11 -8,-13 -6,-1 -12,2 -14,8l0 0c-1,6 2,12 8,14 6,1 12,-3 14,-9zm10 -34l0 0c2,-5 -1,-12 -7,-14 -6,-2 -12,1 -14,7l0 0c-2,6 1,12 7,14 5,2 12,-1 14,-7zm13 -33l0 0c3,-5 0,-12 -5,-14 -6,-3 -12,0 -15,5l0 0c-3,6 0,12 5,15 6,2 13,0 15,-6zm17 -31l0 0c3,-5 1,-12 -4,-15 -6,-3 -12,-2 -16,4l0 0c-3,5 -1,12 4,15 6,3 12,1 16,-4zm19 -30l0 0c4,-5 2,-12 -3,-15 -4,-4 -11,-3 -15,2 -4,5 -2,12 3,16 4,3 11,2 15,-3zm22 -28l0 0c4,-4 4,-11 -1,-15 -4,-4 -11,-4 -15,1l0 0c-4,4 -4,11 1,15 4,4 11,4 15,-1zm25 -25l0 0c4,-4 5,-11 0,-16 -4,-4 -11,-5 -15,0 -5,4 -5,11 -1,15 4,5 11,5 16,1zm27 -23l0 0c5,-4 6,-11 2,-16 -4,-5 -11,-5 -15,-2l0 0c-5,4 -6,11 -2,16 3,5 10,5 15,2zm29 -21l0 0c5,-3 7,-10 4,-15 -4,-5 -10,-7 -16,-3l0 0c-5,3 -6,10 -3,15 3,5 10,7 15,3zm31 -17l0 0c6,-3 8,-9 5,-15 -3,-5 -9,-8 -15,-5l0 0c-5,3 -7,10 -5,15 3,5 10,8 15,5zm33 -14l0 0c5,-3 8,-9 6,-15 -2,-5 -8,-8 -14,-6l0 0c-6,2 -9,9 -6,14 2,6 8,9 14,7zm34 -11l0 0c5,-2 9,-8 7,-14 -1,-6 -7,-9 -13,-8l0 0c-6,2 -10,8 -8,14 2,6 8,9 14,8zm34 -8l0 0c6,-1 10,-7 9,-13 -1,-6 -7,-10 -13,-9 -6,1 -10,7 -9,13 2,6 7,10 13,9zm36 -5l0 0c6,0 10,-5 10,-11 -1,-7 -6,-11 -12,-11l0 0c-6,1 -11,6 -10,12 0,6 5,11 12,10zm35 -1l0 0c6,1 11,-4 11,-10 0,-7 -4,-12 -10,-12l0 0c-7,0 -12,5 -12,11 0,6 5,11 11,11zm36 3l0 0c6,0 11,-4 12,-10 1,-6 -4,-11 -10,-12l0 0c-6,-1 -11,3 -12,10 -1,6 4,11 10,12zm35 6l0 0c6,1 12,-3 13,-9 1,-6 -3,-12 -9,-13l0 0c-6,-1 -11,3 -13,8 -1,6 3,12 9,14zm34 9l0 0c6,2 12,-2 14,-7 2,-6 -1,-12 -7,-14l0 0c-6,-2 -12,1 -14,7 -2,6 1,12 7,14zm33 12l0 0c6,3 12,0 15,-6 2,-5 0,-12 -6,-14l0 0c-6,-2 -12,0 -14,6 -3,5 0,12 5,14zm32 16l0 0c6,3 12,1 15,-4 3,-6 1,-12 -4,-15l0 0c-5,-3 -12,-1 -15,4 -3,5 -1,12 4,15zm31 19l0 0c5,3 11,2 15,-3 3,-5 2,-12 -3,-16l0 0c-5,-3 -12,-2 -15,3 -4,5 -2,12 3,16zm28 21l0 0c5,4 12,3 15,-1 4,-5 4,-12 -1,-16l0 0c-5,-4 -12,-3 -15,1 -4,5 -4,12 1,16zm26 24l0 0c4,5 11,5 16,0 4,-4 4,-11 0,-15l0 0c-4,-5 -11,-5 -16,0 -4,4 -4,11 0,15zm24 27l0 0c4,4 11,5 15,1 5,-4 6,-11 2,-15l0 0c-4,-5 -11,-6 -16,-2 -4,4 -5,11 -1,16zm21 28l0 0c3,5 10,7 15,3 5,-3 7,-10 3,-15l0 0c-3,-5 -10,-6 -15,-3 -5,3 -7,10 -3,15zm18 31l0 0c3,5 10,7 15,4 5,-2 7,-9 5,-14l0 0c-3,-6 -10,-8 -15,-5 -6,3 -8,10 -5,15zm15 32l0 0c3,6 9,8 15,6 5,-2 8,-9 6,-14 -3,-6 -9,-9 -15,-6 -5,2 -8,8 -6,14zm12 34l0 0c2,5 8,9 14,7 6,-2 9,-8 7,-14l0 0c-1,-6 -8,-9 -13,-7 -6,2 -10,8 -8,14zm9 34l0 0c1,6 7,10 13,9 6,-1 10,-7 8,-13l0 0c-1,-6 -7,-10 -12,-9 -6,1 -10,7 -9,13zm5 35l0 0c1,6 6,11 12,10 6,-1 11,-6 10,-12l0 0c-1,-6 -6,-11 -12,-10 -6,1 -10,6 -10,12zm2 36l0 0c0,6 5,11 11,11 6,0 11,-5 11,-11l0 0c0,-6 -5,-11 -11,-11 -6,0 -11,5 -11,11zm0 2l0 0c0,6 5,11 11,11 6,0 11,-5 11,-11l0 0c0,-6 -5,-11 -11,-11 -6,0 -11,5 -11,11z"/>
   <path class="fil2" d="M1133 812c-177,0 -321,144 -321,321 0,177 144,320 321,320 177,0 320,-143 320,-320 0,-177 -143,-321 -320,-321zm0 78c134,0 243,109 243,243 0,134 -109,243 -243,243 -134,0 -243,-109 -243,-243 0,-134 109,-243 243,-243z"/>
   <g style="clip-path:url(#id0)">
    <image x="55" y="2124" width="18.991" height="22.3031" xlink:href="11_Images\11_ImgID1.png"/>
   </g>
  </g>
 </g>
</svg>
