<?xml version="1.0" encoding="UTF-8"?>
<!DOCTYPE svg PUBLIC "-//W3C//DTD SVG 1.1//EN" "http://www.w3.org/Graphics/SVG/1.1/DTD/svg11.dtd">
<!-- Creator: CorelDRAW X7 -->
<svg xmlns="http://www.w3.org/2000/svg" xml:space="preserve" width="2169px" height="2170px" version="1.1" style="shape-rendering:geometricPrecision; text-rendering:geometricPrecision; image-rendering:optimizeQuality; fill-rule:evenodd; clip-rule:evenodd"
viewBox="0 0 475 475"
 xmlns:xlink="http://www.w3.org/1999/xlink">
 <defs>
  <style type="text/css">
   <![CDATA[
    .fil4 {fill:#1A1A1A;fill-rule:nonzero}
    .fil3 {fill:#333333;fill-rule:nonzero}
    .fil1 {fill:#4D4D4D;fill-rule:nonzero}
    .fil0 {fill:#666666;fill-rule:nonzero}
    .fil2 {fill:#999999;fill-rule:nonzero}
   ]]>
  </style>
 </defs>
 <g id="Vrstva_x0020_1">
  <metadata id="CorelCorpID_0Corel-Layer"/>
  <g id="_2648798165552">
   <path class="fil0" d="M471 257c0,4 0,7 -1,10l3 1c0,-4 1,-7 1,-10l-3 -1zm-2 20c-1,4 -2,7 -2,10l2 1c1,-3 2,-7 2,-10l-2 -1zm-5 20c0,3 -1,7 -2,10l2 1c1,-4 2,-7 3,-10l-3 -1zm-6 19c-1,4 -2,7 -3,10l2 1c2,-3 3,-7 4,-10l-3 -1zm-7 19c-2,3 -3,6 -5,9l3 1c1,-3 3,-6 4,-9l-2 -1zm-9 18c-2,3 -4,6 -5,9l2 1c2,-3 3,-6 5,-9l-2 -1zm-11 17c-2,3 -4,6 -6,8l2 2c2,-3 4,-6 6,-8l-2 -2zm-12 16c-2,3 -4,5 -7,8l2 2c3,-3 5,-6 7,-8l-2 -2zm-13 15c-3,3 -5,5 -8,7l2 2c3,-2 5,-5 7,-7l-1 -2zm-15 14c-3,2 -5,4 -8,6l2 2c2,-2 5,-4 8,-6l-2 -2zm-16 12c-3,2 -5,4 -8,6l1 2c3,-1 6,-3 9,-5l-2 -3zm-17 12c-2,1 -5,3 -8,5l1 2c3,-2 6,-3 9,-5l-2 -2zm-17 9c-3,2 -6,3 -9,4l1 3c3,-2 6,-3 9,-4l-1 -3zm-19 8c-3,1 -6,3 -9,4l1 2c3,-1 6,-2 9,-3l-1 -3zm-19 7c-3,1 -6,2 -9,2l0 3c4,-1 7,-2 10,-3l-1 -2zm-19 4c-3,1 -7,2 -10,2l0 3c4,-1 7,-1 10,-2l0 -3zm-20 4c-3,0 -7,0 -10,1l0 2c3,0 7,0 10,-1l0 -2zm-20 1c-2,0 -4,0 -7,0 -1,0 -2,0 -3,0l0 3c1,0 2,0 3,0 3,0 5,0 7,0l0 -3zm-20 0c-4,-1 -7,-1 -10,-1l-1 3c4,0 7,0 11,0l0 -2zm-20 -2c-4,-1 -7,-1 -10,-2l-1 3c4,0 7,1 10,1l1 -2zm-20 -4c-3,-1 -7,-2 -10,-3l-1 3c4,1 7,2 10,3l1 -3zm-19 -5c-4,-1 -7,-3 -10,-4l-1 3c3,1 6,2 10,3l1 -2zm-19 -8c-3,-1 -6,-2 -10,-4l-1 3c3,1 6,3 10,4l1 -3zm-19 -8c-2,-2 -5,-3 -8,-5l-2 2c3,2 6,4 9,5l1 -2zm-17 -10c-3,-2 -5,-4 -8,-6l-2 2c3,2 6,4 9,6l1 -2zm-16 -12c-3,-2 -6,-4 -8,-6l-2 2c3,2 5,4 8,6l2 -2zm-16 -13c-2,-2 -5,-5 -7,-7l-2 2c3,2 5,5 8,7l1 -2zm-14 -14c-2,-3 -4,-5 -6,-8l-3 2c3,2 5,5 7,8l2 -2zm-13 -16c-2,-2 -4,-5 -6,-8l-2 2c2,3 4,5 6,8l2 -2zm-11 -16c-2,-3 -4,-6 -6,-9l-2 2c2,3 4,5 5,8l3 -1zm-10 -17c-2,-3 -4,-6 -5,-9l-2 1c1,3 3,6 4,9l3 -1zm-9 -19c-1,-3 -3,-6 -4,-9l-2 1c1,3 2,6 3,9l3 -1zm-7 -18c-1,-4 -2,-7 -3,-10l-3 1c1,3 2,6 3,9l3 0zm-5 -20c-1,-3 -2,-6 -2,-10l-3 1c1,3 1,6 2,10l3 -1zm-4 -20c-1,-3 -1,-6 -1,-10l-3 1c0,3 1,6 1,10l3 -1zm-2 -20c0,-3 0,-6 0,-10l-3 0c0,4 0,7 0,10l3 0zm0 -20c0,-3 0,-6 0,-10l-2 0c-1,3 -1,7 -1,10l3 0zm1 -20c1,-3 1,-6 2,-10l-3 0c-1,3 -1,6 -1,10l2 0zm3 -20c1,-3 2,-6 3,-10l-3 0c-1,3 -2,6 -2,10l2 0zm5 -19c1,-3 2,-7 3,-10l-2 -1c-1,4 -2,7 -3,10l2 1zm7 -19c1,-3 2,-7 4,-10l-3 -1c-1,3 -2,7 -4,10l3 1zm8 -19c1,-3 3,-6 5,-9l-3 -1c-1,3 -3,6 -4,9l2 1zm10 -17c1,-3 3,-6 5,-9l-2 -1c-2,2 -4,5 -6,8l3 2zm11 -17c2,-3 4,-5 6,-8l-2 -2c-2,3 -4,6 -6,8l2 2zm12 -16c3,-2 5,-5 7,-7l-2 -2c-2,2 -4,5 -7,7l2 2zm14 -14c3,-3 5,-5 8,-7l-2 -2c-3,2 -5,4 -8,7l2 2zm15 -14c3,-2 6,-4 8,-6l-1 -2c-3,2 -6,4 -8,6l1 2zm16 -12c3,-2 6,-3 9,-5l-2 -3c-2,2 -5,4 -8,6l1 2zm18 -10c2,-2 5,-4 8,-5l-1 -2c-3,1 -6,3 -9,4l2 3zm17 -9c3,-2 7,-3 10,-4l-1 -3c-3,1 -7,3 -10,4l1 3zm19 -8c3,-1 6,-2 10,-3l-1 -3c-3,1 -7,2 -10,4l1 2zm19 -6c4,-1 7,-1 10,-2l0 -3c-4,1 -7,2 -10,3l0 2zm20 -4c3,-1 7,-1 10,-1l0 -3c-4,0 -7,1 -10,1l0 3zm20 -3c3,0 7,0 10,0l0 -3c-4,0 -7,1 -10,1l0 2zm20 0c3,0 7,0 10,0l0 -3c-3,0 -7,0 -10,0l0 3zm20 1c3,0 7,0 10,1l0 -3c-3,0 -6,-1 -10,-1l0 3zm20 2c3,1 7,1 10,2l1 -2c-4,-1 -7,-2 -10,-2l-1 2 0 0zm20 5c3,0 6,1 9,2l1 -2c-3,-1 -6,-2 -10,-3l0 3zm19 6c3,1 6,2 9,3l1 -2c-3,-2 -6,-3 -9,-4l-1 3zm19 7c3,2 6,3 9,5l1 -3c-3,-1 -6,-3 -9,-4l-1 2zm18 9c2,2 5,4 8,6l2 -3c-3,-2 -6,-3 -9,-5l-1 2zm17 11c2,2 5,4 8,6l1 -2c-2,-2 -5,-4 -8,-6l-1 2zm16 12c2,2 5,5 7,7l2 -2c-2,-2 -5,-5 -8,-7l-1 2zm15 14c2,2 4,4 7,7l2 -2c-3,-2 -5,-5 -8,-7l-1 2zm13 14c3,3 5,6 7,8l2 -2c-2,-2 -4,-5 -7,-7l-2 1zm13 16c2,3 4,6 6,8l2 -1c-2,-3 -4,-6 -6,-8l-2 1zm11 17c2,3 3,6 5,9l2 -2c-1,-3 -3,-6 -5,-8l-2 1zm9 18c2,3 3,6 5,9l2 -1c-1,-3 -3,-7 -4,-10l-3 2zm8 18c2,3 3,6 4,9l2 0c-1,-4 -2,-7 -3,-10l-3 1zm7 19c1,3 2,7 2,10l3 -1c-1,-3 -2,-6 -3,-10l-2 1zm5 20c0,3 1,6 1,10l3 -1c-1,-3 -1,-7 -2,-10l-2 1zm3 19c0,4 0,7 1,11l2 -1c0,-3 0,-6 -1,-10l-2 0zm1 21c0,1 0,3 0,5 0,4 0,7 0,10l3 1c0,-4 0,-7 0,-11 0,-2 0,-4 0,-6l-3 1z"/>
   <path class="fil0" d="M458 237l-1 0c0,61 -25,116 -64,156 -40,39 -95,64 -156,64 -60,0 -115,-25 -155,-64 -40,-40 -64,-95 -64,-156 0,-60 24,-115 64,-155 40,-40 95,-64 155,-64 61,0 116,24 156,64 39,40 64,95 64,155l2 0c0,-122 -99,-222 -222,-222 -122,0 -222,100 -222,222 0,123 100,222 222,222 123,0 222,-99 222,-222l-1 0z"/>
   <path class="fil1" d="M453 237c0,60 -24,114 -63,153 -39,39 -93,63 -153,63l0 10c125,0 226,-101 226,-226l-10 0z"/>
   <path class="fil0" d="M22 237c0,-59 24,-113 63,-152 39,-39 93,-63 152,-63l0 -10c-124,0 -225,101 -225,225l10 0 0 0z"/>
   <path class="fil2" d="M386 350c-34,45 -88,74 -149,74 -51,0 -98,-21 -131,-55 -34,-34 -55,-80 -55,-132 0,-29 7,-56 18,-81l-15 -7c-13,27 -20,57 -20,88 0,56 23,107 60,144 36,37 87,60 143,60 67,0 126,-32 163,-81l-14 -10z"/>
   <path class="fil3" d="M94 118c34,-41 86,-67 143,-67 52,0 98,21 132,55 34,33 55,80 55,131 0,13 -1,26 -4,38l16 3c3,-13 5,-27 5,-41 0,-56 -23,-107 -60,-143 -37,-37 -88,-60 -144,-60 -62,0 -119,29 -156,73l13 11z"/>
   <path class="fil4" d="M333 355c-26,21 -59,34 -96,34 0,0 -1,0 -2,0l0 21c1,0 1,0 2,0 42,0 80,-14 109,-38l-13 -17zm-127 30c-35,-7 -66,-27 -88,-54l-17 13c25,32 60,54 101,63l4 -22zm-103 -79c-11,-20 -17,-44 -17,-69 0,-11 1,-22 4,-33l-21 -5c-3,12 -5,25 -5,38 0,29 7,56 19,79l20 -10zm-4 -130c14,-32 40,-59 71,-74l-9 -20c-36,18 -65,48 -82,86l20 8zm99 -85c12,-3 26,-5 39,-5 23,0 44,5 64,14l9 -20c-22,-10 -47,-16 -73,-16 -15,0 -31,3 -45,7l6 20zm128 24c28,20 49,50 58,85l21 -5c-10,-40 -34,-75 -67,-98l-12 18zm62 114c1,3 1,5 1,8 0,37 -14,71 -36,97l17 14c25,-30 40,-68 40,-111 0,-3 0,-6 0,-10l-22 2z"/>
   <path class="fil1" d="M368 250l0 0c0,2 1,4 4,4 2,1 4,-1 4,-3 0,-2 -2,-4 -4,-4 -2,-1 -4,1 -4,3zm-2 13l0 0c0,2 1,4 3,4 2,1 5,-1 5,-3l0 0c0,-2 -1,-4 -3,-5 -2,0 -4,1 -5,4zm-3 12l0 0c0,2 1,4 3,5 2,0 4,-1 5,-3l0 0c0,-2 -1,-4 -3,-5 -2,0 -4,1 -5,3zm-4 12l0 0c-1,2 0,4 2,5 2,1 4,0 5,-2 1,-2 0,-4 -2,-5 -2,-1 -4,0 -5,2zm-5 11l0 0c-1,2 -1,5 1,6 2,1 5,0 6,-2l0 0c1,-2 0,-4 -2,-5 -2,-1 -4,-1 -5,1zm-7 11l0 0c-1,2 0,5 1,6 2,1 5,0 6,-1l0 0c1,-2 0,-5 -1,-6 -2,-1 -5,-1 -6,1zm-7 11l0 0c-2,1 -1,4 0,5 2,1 5,1 6,-1l0 0c1,-1 1,-4 -1,-5 -1,-1 -4,-1 -5,1zm-9 9l0 0c-1,2 -1,4 0,6 2,1 4,1 6,0 2,-2 1,-5 0,-6 -2,-2 -4,-2 -6,0zm-9 9l0 0c-2,1 -2,4 0,5 1,2 4,2 5,1l0 0c2,-2 2,-4 1,-6 -2,-2 -4,-2 -6,0zm-10 7l0 0c-2,2 -2,4 -1,6 1,2 4,2 6,1l0 0c1,-1 2,-4 0,-6 -1,-1 -3,-2 -5,-1zm-11 7l0 0c-2,1 -2,4 -1,5 1,2 3,3 5,2l0 0c2,-1 3,-3 2,-5 -1,-2 -4,-3 -6,-2zm-11 6l0 0c-2,1 -3,3 -2,5 1,2 3,3 5,2 2,-1 3,-3 2,-5 -1,-2 -3,-3 -5,-2zm-12 4l0 0c-2,1 -3,3 -2,5 0,2 2,3 4,3 3,-1 4,-3 3,-5 -1,-2 -3,-3 -5,-3zm-12 4l0 0c-2,0 -4,2 -3,4 0,2 2,4 5,3l0 0c2,0 3,-2 3,-4 -1,-3 -3,-4 -5,-3zm-13 2l0 0c-2,0 -3,2 -3,4 0,2 2,4 4,4l0 0c2,-1 4,-3 4,-5 -1,-2 -3,-4 -5,-3zm-12 1l0 0c-2,0 -4,1 -4,4 0,2 2,4 4,3l0 0c2,0 4,-1 4,-4 0,-2 -2,-3 -4,-3zm-13 -1l0 0c-2,0 -4,2 -4,4 0,2 1,4 3,4l0 0c3,0 5,-1 5,-3 0,-3 -2,-5 -4,-5zm-13 -1l0 0c-2,-1 -4,1 -4,3 0,2 1,4 3,5l0 0c2,0 4,-1 5,-4 0,-2 -1,-4 -4,-4zm-12 -3l0 0c-2,0 -4,1 -5,3 0,2 1,4 3,5l0 0c2,0 4,-1 5,-3 0,-2 -1,-4 -3,-5zm-12 -4l0 0c-2,-1 -4,1 -5,3 -1,2 0,4 2,5l0 0c2,0 5,-1 5,-3 1,-2 0,-4 -2,-5zm-12 -5l0 0c-2,-1 -4,0 -5,2 -1,2 0,4 2,5l0 0c2,1 4,0 5,-2 1,-1 0,-4 -2,-5zm-11 -6l0 0c-2,-1 -4,-1 -5,1 -1,2 -1,5 1,6l0 0c2,1 4,0 6,-2 1,-1 0,-4 -2,-5zm-10 -7l0 0c-2,-1 -4,-1 -6,1 -1,1 -1,4 1,5l0 0c2,1 4,1 6,-1 1,-1 1,-4 -1,-5l0 0zm-10 -8l0 0c-1,-2 -4,-2 -5,0 -2,2 -2,4 0,5l0 0c1,2 4,2 5,0 2,-1 2,-4 0,-5zm-9 -9l0 0c-1,-2 -4,-2 -5,-1 -2,2 -2,4 -1,6 2,1 4,2 6,0 2,-1 2,-4 0,-5zm-8 -10l0 0c-1,-2 -3,-2 -5,-1 -2,1 -2,4 -1,5l0 0c1,2 4,3 5,1 2,-1 3,-3 1,-5zm-7 -11l0 0c-1,-2 -3,-2 -5,-1 -2,1 -3,3 -1,5 1,2 3,3 5,2 2,-2 2,-4 1,-6zm-6 -11l0 0c-1,-2 -3,-3 -5,-2 -2,1 -3,3 -2,5l0 0c1,2 4,3 5,2 2,-1 3,-3 2,-5l0 0zm-4 -12l0 0c-1,-2 -3,-3 -5,-2 -2,1 -4,3 -3,5l0 0c1,2 3,3 5,2 2,0 3,-3 3,-5zm-4 -12l0 0c-1,-2 -3,-3 -5,-3 -2,1 -3,3 -3,5l0 0c1,2 3,3 5,3 2,-1 3,-3 3,-5zm-3 -12l0 0c0,-2 -2,-4 -4,-4 -2,1 -4,3 -3,5l0 0c0,2 2,3 4,3 2,0 4,-2 3,-4zm-1 -13l0 0c0,-2 -2,-4 -4,-4 -2,0 -4,2 -4,4 0,3 2,4 5,4 2,0 3,-2 3,-4zm0 -13l0 0c0,-2 -1,-4 -4,-4 -2,0 -4,2 -4,4 0,2 2,4 4,4 2,0 4,-1 4,-4zm1 -12l0 0c1,-2 -1,-4 -3,-5 -2,0 -4,2 -4,4l0 0c-1,2 1,4 3,4 2,0 4,-1 4,-3zm3 -13l0 0c0,-2 -1,-4 -3,-4 -2,-1 -4,0 -5,2l0 0c0,3 1,5 3,5 2,1 4,-1 5,-3zm3 -12l0 0c1,-2 0,-4 -2,-5 -2,-1 -4,1 -5,3l0 0c-1,2 0,4 2,5 2,0 5,-1 5,-3zm5 -12l0 0c1,-2 0,-4 -2,-5 -2,-1 -4,0 -5,2l0 0c-1,2 0,4 2,5 2,1 4,0 5,-2zm6 -11l0 0c1,-2 0,-4 -1,-5 -2,-1 -5,-1 -6,1l0 0c-1,2 0,4 2,6 1,1 4,0 5,-2zm7 -10l0 0c1,-2 1,-5 -1,-6 -2,-1 -4,-1 -5,1 -2,2 -1,4 0,5 2,2 5,1 6,0zm8 -10l0 0c1,-2 1,-4 -1,-6 -1,-1 -4,-1 -5,0l0 0c-2,2 -1,5 0,6 2,1 4,1 6,0zm9 -9l0 0c1,-2 1,-4 0,-6 -2,-2 -4,-2 -6,0 -1,1 -1,4 0,5 2,2 4,2 6,1zm9 -9l0 0c2,-1 2,-3 1,-5 -1,-2 -4,-2 -6,-1l0 0c-1,1 -2,4 0,6 1,1 4,2 5,0zm11 -7l0 0c2,-1 2,-4 1,-5 -1,-2 -4,-3 -5,-2l0 0c-2,2 -3,4 -2,6 1,2 4,2 6,1zm11 -6l0 0c2,-1 2,-3 2,-5 -1,-2 -4,-3 -6,-2l0 0c-2,1 -3,3 -2,5 1,2 4,3 6,2zm11 -5l0 0c2,-1 3,-3 3,-5 -1,-2 -3,-3 -5,-3l0 0c-3,1 -4,3 -3,5 1,3 3,4 5,3zm12 -4l0 0c2,-1 4,-3 3,-5 0,-2 -3,-3 -5,-3l0 0c-2,1 -3,3 -2,5 0,2 2,3 4,3zm13 -3l0 0c2,0 3,-2 3,-5 0,-2 -2,-3 -5,-3 -2,1 -3,3 -3,5 1,2 3,3 5,3zm12 -2l0 0c2,0 4,-2 4,-4 0,-2 -2,-4 -4,-3l0 0c-2,0 -4,2 -4,4 0,2 2,4 4,3zm13 0l0 0c2,0 4,-2 4,-4 0,-2 -2,-4 -4,-4l0 0c-2,0 -4,2 -4,4 0,2 2,4 4,4zm13 1l0 0c2,0 4,-1 4,-3 0,-3 -1,-5 -3,-5l0 0c-3,0 -5,1 -5,4 0,2 1,4 4,4zm12 2l0 0c2,1 4,-1 5,-3 0,-2 -1,-4 -3,-5l0 0c-2,0 -4,1 -5,3 0,2 1,5 3,5zm12 3l0 0c2,1 5,0 5,-2 1,-2 0,-5 -2,-5l0 0c-2,-1 -4,0 -5,2 -1,2 0,5 2,5zm12 5l0 0c2,1 5,0 5,-2 1,-2 0,-5 -2,-5l0 0c-2,-1 -4,0 -5,2 -1,2 0,4 2,5zm12 5l0 0c2,1 4,1 5,-1 1,-2 0,-5 -2,-6l0 0c-1,-1 -4,0 -5,2 -1,2 0,4 2,5zm10 7l0 0c2,1 5,1 6,-1 1,-2 1,-4 -1,-6l0 0c-2,-1 -4,0 -6,2 -1,1 0,4 1,5zm11 8l0 0c1,1 4,1 5,-1 1,-2 1,-4 0,-5l0 0c-2,-2 -5,-2 -6,0 -1,2 -1,4 1,6zm9 8l0 0c1,2 4,2 5,0 2,-1 2,-4 0,-5l0 0c-1,-2 -4,-2 -5,0 -2,1 -2,4 0,5zm8 10l0 0c2,1 4,2 6,0 2,-1 2,-4 0,-5l0 0c-1,-2 -3,-2 -5,-1 -2,2 -2,4 -1,6zm8 10l0 0c1,2 3,2 5,1 2,-1 3,-4 1,-5l0 0c-1,-2 -3,-3 -5,-2 -2,2 -2,4 -1,6zm6 11l0 0c1,2 4,2 6,1 2,-1 2,-3 1,-5l0 0c-1,-2 -3,-3 -5,-2 -2,2 -3,4 -2,6zm6 11l0 0c1,2 3,3 5,2 2,0 3,-3 2,-5 -1,-2 -3,-3 -5,-2 -2,1 -3,3 -2,5zm4 12l0 0c1,2 3,3 5,3 2,-1 3,-3 3,-5l0 0c-1,-2 -3,-3 -5,-3 -2,1 -4,3 -3,5zm3 12l0 0c1,3 3,4 5,4 2,-1 3,-3 3,-5l0 0c-1,-2 -3,-4 -5,-3 -2,0 -3,2 -3,4zm2 13l0 0c0,2 2,4 4,4 2,-1 4,-3 4,-5l0 0c0,-2 -2,-3 -5,-3 -2,0 -3,2 -3,4zm1 13l0 0c0,2 1,4 4,4 2,0 4,-2 4,-4l0 0c-1,-3 -2,-4 -4,-4 -3,0 -4,2 -4,4zm0 0l0 0c0,3 1,4 4,4 2,0 4,-1 4,-4l0 0c0,-2 -2,-4 -4,-4 -3,0 -4,2 -4,4z"/>
  </g>
 </g>
</svg>
