<?xml version="1.0" encoding="UTF-8"?>
<!DOCTYPE svg PUBLIC "-//W3C//DTD SVG 1.1//EN" "http://www.w3.org/Graphics/SVG/1.1/DTD/svg11.dtd">
<!-- Creator: CorelDRAW X7 -->
<svg xmlns="http://www.w3.org/2000/svg" xml:space="preserve" width="2328px" height="2328px" version="1.1" style="shape-rendering:geometricPrecision; text-rendering:geometricPrecision; image-rendering:optimizeQuality; fill-rule:evenodd; clip-rule:evenodd"
viewBox="0 0 335 335"
 xmlns:xlink="http://www.w3.org/1999/xlink">
 <defs>
  <style type="text/css">
   <![CDATA[
    .str5 {stroke:black;stroke-width:0.226021}
    .str0 {stroke:black;stroke-width:7.46057}
    .str8 {stroke:black;stroke-width:5.19985}
    .str7 {stroke:black;stroke-width:0.113011}
    .str14 {stroke:black;stroke-width:3.39117}
    .str13 {stroke:black;stroke-width:1.58249;stroke-linecap:round;stroke-linejoin:round}
    .str18 {stroke:black;stroke-width:4.0694;stroke-linecap:round;stroke-linejoin:round}
    .str4 {stroke:black;stroke-width:2.26072;stroke-linecap:round;stroke-linejoin:round}
    .str12 {stroke:black;stroke-width:9.49527;stroke-linecap:round;stroke-linejoin:round}
    .str10 {stroke:black;stroke-width:0.226021;stroke-dasharray:0.600284 0.600284}
    .str1 {stroke:black;stroke-width:7.46057;stroke-dasharray:0.518759 161.593562}
    .str3 {stroke:black;stroke-width:6.55632;stroke-dasharray:88.976773 88.976773}
    .str6 {stroke:black;stroke-width:6.55632;stroke-dasharray:0.648449 1.167209}
    .str9 {stroke:black;stroke-width:1.80868;stroke-dasharray:0.648449 6.614183}
    .str2 {stroke:black;stroke-width:0.678234;stroke-dasharray:0.648449 1.815658}
    .str15 {stroke:black;stroke-width:11.53;stroke-dasharray:0.648449 96.359564}
    .str17 {stroke:black;stroke-width:7.00836;stroke-dasharray:0.648449 161.852942}
    .str16 {stroke:black;stroke-width:1.13045;stroke-dasharray:300.750780 17.637821}
    .str11 {stroke:black;stroke-width:2.0347;stroke-linecap:round;stroke-linejoin:round;stroke-dasharray:0.648449 8.948600}
    .fil0 {fill:none;fill-rule:nonzero}
    .fil1 {fill:black;fill-rule:nonzero}
   ]]>
  </style>
 </defs>
 <g id="Vrstva_x0020_1">
  <metadata id="CorelCorpID_0Corel-Layer"/>
  <g id="_2646644402528">
   <g>
    <g>
     <line class="fil0 str0" x1="168" y1="15" x2="168" y2= "15" />
     <line class="fil0 str1" x1="168" y1="76" x2="168" y2= "290" />
     <line class="fil0 str0" x1="168" y1="320" x2="168" y2= "320" />
    </g>
   </g>
   <g>
    <path class="fil0 str2" d="M193 168c0,-14 -11,-25 -25,-25 -14,0 -25,11 -25,25 0,14 11,25 25,25 14,0 25,-11 25,-25z"/>
   </g>
   <g>
    <path class="fil0 str3" d="M200 168c0,17 -15,32 -32,32 -18,0 -32,-15 -32,-32 0,-18 14,-32 32,-32 17,0 32,14 32,32z"/>
   </g>
   <path class="fil0 str4" d="M206 168c0,-21 -17,-39 -38,-39 -21,0 -39,18 -39,39 0,21 18,38 39,38 21,0 38,-17 38,-38z"/>
   <g>
    <path class="fil1" d="M218 168l-7 0c0,-24 -20,-43 -43,-43l0 -7c27,0 50,22 50,50z"/>
   </g>
   <g>
    <path class="fil1" d="M118 168l7 0c0,23 19,43 43,43l0 7c-28,0 -50,-23 -50,-50z"/>
   </g>
   <g>
    <line class="fil0 str5" x1="218" y1="168" x2="211" y2= "168" />
    <path class="fil0 str5" d="M211 168c0,-24 -20,-43 -43,-43"/>
    <line class="fil0 str5" x1="168" y1="125" x2="168" y2= "118" />
    <path class="fil0 str5" d="M168 118c27,0 50,22 50,50"/>
   </g>
   <g>
    <line class="fil0 str5" x1="118" y1="168" x2="125" y2= "168" />
    <path class="fil0 str5" d="M125 168c0,23 19,43 43,43"/>
    <line class="fil0 str5" x1="168" y1="211" x2="168" y2= "218" />
    <path class="fil0 str5" d="M168 218c-28,0 -50,-23 -50,-50"/>
   </g>
   <path class="fil0 str5" d="M221 168c0,29 -24,53 -53,53 -30,0 -54,-24 -54,-53 0,-30 24,-54 54,-54 29,0 53,24 53,54z"/>
   <path class="fil1" d="M168 105c-3,0 -6,1 -9,1l-1 6c3,-1 7,-1 10,-1 2,0 5,0 7,1l3 -6c-4,0 -7,-1 -10,-1z"/>
   <path class="fil1" d="M146 109c-2,1 -5,2 -7,4l1 5c3,-1 5,-2 8,-4 3,0 5,-1 7,-2l1 -5c-3,0 -6,1 -10,2z"/>
   <path class="fil1" d="M128 120c-2,2 -4,4 -6,6l3 5c2,-2 4,-5 6,-7 2,-1 4,-3 6,-4l-1 -6c-3,2 -6,4 -8,6z"/>
   <path class="fil1" d="M114 137c-2,2 -3,5 -4,7l5 4c1,-3 2,-6 4,-9 1,-2 2,-4 4,-6l-4 -5c-2,3 -3,6 -5,9z"/>
   <path class="fil1" d="M106 157c0,3 0,6 0,8l5 2c0,-3 0,-6 1,-9 0,-3 1,-5 2,-7l-5 -4c-1,3 -2,7 -3,10z"/>
   <path class="fil1" d="M106 179c1,2 2,5 2,8l6 0c-1,-3 -2,-6 -2,-9 0,-3 -1,-5 -1,-8l-6 -1c1,3 1,6 1,10z"/>
   <path class="fil1" d="M114 199c1,2 3,5 5,7l5 -2c-2,-3 -4,-5 -5,-8 -2,-2 -3,-4 -4,-6l-5 0c1,3 2,6 4,9z"/>
   <path class="fil1" d="M128 215c2,2 4,4 7,5l4 -3c-3,-2 -5,-4 -8,-6 -2,-1 -3,-3 -5,-5l-5 2c2,3 4,5 7,7z"/>
   <path class="fil1" d="M146 226c3,1 6,2 9,3l2 -6c-3,0 -6,-1 -9,-2 -2,-1 -4,-2 -6,-3l-5 4c3,2 6,3 9,4z"/>
   <path class="fil1" d="M168 230c3,0 5,0 8,-1l1 -5c-3,0 -6,0 -9,0 -3,0 -5,0 -8,0l-2 5c3,1 6,1 10,1z"/>
   <path class="fil1" d="M189 226c3,-1 5,-2 8,-3l-1 -6c-3,2 -6,3 -9,4 -2,1 -5,2 -7,2l-1 6c4,-1 7,-2 10,-3z"/>
   <path class="fil1" d="M208 215c2,-1 4,-3 6,-5l-3 -5c-2,2 -4,4 -7,6 -2,2 -4,3 -6,5l2 5c2,-1 5,-3 8,-6z"/>
   <path class="fil1" d="M222 199c1,-3 2,-5 3,-8l-4 -3c-1,3 -3,5 -4,8 -1,2 -3,4 -4,6l3 5c2,-2 4,-5 6,-8z"/>
   <path class="fil1" d="M229 179c1,-3 1,-6 1,-9l-6 -2c0,3 0,6 0,10 -1,2 -1,4 -2,7l5 3c1,-3 1,-6 2,-9z"/>
   <path class="fil1" d="M229 157c0,-3 -1,-6 -2,-8l-6 0c1,3 2,6 3,9 0,2 0,5 0,7l6 2c0,-3 0,-7 -1,-10z"/>
   <path class="fil1" d="M222 137c-2,-3 -3,-5 -5,-7l-5 2c1,2 3,5 5,7 1,3 2,5 3,7l6 0c-1,-3 -3,-6 -4,-9z"/>
   <path class="fil1" d="M208 120c-2,-2 -5,-3 -7,-5l-4 4c2,1 5,3 7,5 2,2 4,4 5,5l6 -2c-2,-2 -5,-5 -7,-7z"/>
   <path class="fil1" d="M189 109c-3,-1 -5,-1 -8,-2l-3 5c3,1 6,1 9,2 2,1 5,2 7,3l4 -4c-3,-1 -6,-3 -9,-4z"/>
   <path class="fil0 str5" d="M168 105c-3,0 -6,1 -9,1"/>
   <line class="fil0 str5" x1="159" y1="106" x2="158" y2= "112" />
   <path class="fil0 str5" d="M158 112c3,-1 7,-1 10,-1 2,0 5,0 7,1"/>
   <line class="fil0 str5" x1="175" y1="112" x2="178" y2= "106" />
   <path class="fil0 str5" d="M178 106c-4,0 -7,-1 -10,-1"/>
   <path class="fil0 str5" d="M146 109c-2,1 -5,2 -7,4"/>
   <line class="fil0 str5" x1="139" y1="113" x2="140" y2= "118" />
   <path class="fil0 str5" d="M140 118c3,-1 5,-2 8,-4 3,0 5,-1 7,-2"/>
   <line class="fil0 str5" x1="155" y1="112" x2="156" y2= "107" />
   <path class="fil0 str5" d="M156 107c-3,0 -6,1 -10,2"/>
   <path class="fil0 str5" d="M128 120c-2,2 -4,4 -6,6"/>
   <line class="fil0 str5" x1="122" y1="126" x2="125" y2= "131" />
   <path class="fil0 str5" d="M125 131c2,-2 4,-5 6,-7 2,-1 4,-3 6,-4"/>
   <line class="fil0 str5" x1="137" y1="120" x2="136" y2= "114" />
   <path class="fil0 str5" d="M136 114c-3,2 -6,4 -8,6"/>
   <path class="fil0 str5" d="M114 137c-2,2 -3,5 -4,7"/>
   <line class="fil0 str5" x1="110" y1="144" x2="115" y2= "148" />
   <path class="fil0 str5" d="M115 148c1,-3 2,-6 4,-9 1,-2 2,-4 4,-6"/>
   <line class="fil0 str5" x1="123" y1="133" x2="119" y2= "128" />
   <path class="fil0 str5" d="M119 128c-2,3 -3,6 -5,9"/>
   <path class="fil0 str5" d="M106 157c0,3 0,6 0,8"/>
   <line class="fil0 str5" x1="106" y1="165" x2="111" y2= "167" />
   <path class="fil0 str5" d="M111 167c0,-3 0,-6 1,-9 0,-3 1,-5 2,-7"/>
   <line class="fil0 str5" x1="114" y1="151" x2="109" y2= "147" />
   <path class="fil0 str5" d="M109 147c-1,3 -2,7 -3,10"/>
   <path class="fil0 str5" d="M106 179c1,2 2,5 2,8"/>
   <line class="fil0 str5" x1="108" y1="187" x2="114" y2= "187" />
   <path class="fil0 str5" d="M114 187c-1,-3 -2,-6 -2,-9 0,-3 -1,-5 -1,-8"/>
   <line class="fil0 str5" x1="111" y1="170" x2="105" y2= "169" />
   <path class="fil0 str5" d="M105 169c1,3 1,6 1,10"/>
   <path class="fil0 str5" d="M114 199c1,2 3,5 5,7"/>
   <line class="fil0 str5" x1="119" y1="206" x2="124" y2= "204" />
   <path class="fil0 str5" d="M124 204c-2,-3 -4,-5 -5,-8 -2,-2 -3,-4 -4,-6"/>
   <line class="fil0 str5" x1="115" y1="190" x2="110" y2= "190" />
   <path class="fil0 str5" d="M110 190c1,3 2,6 4,9"/>
   <path class="fil0 str5" d="M128 215c2,2 4,4 7,5"/>
   <line class="fil0 str5" x1="135" y1="220" x2="139" y2= "217" />
   <path class="fil0 str5" d="M139 217c-3,-2 -5,-4 -8,-6 -2,-1 -3,-3 -5,-5"/>
   <line class="fil0 str5" x1="126" y1="206" x2="121" y2= "208" />
   <path class="fil0 str5" d="M121 208c2,3 4,5 7,7"/>
   <path class="fil0 str5" d="M146 226c3,1 6,2 9,3"/>
   <line class="fil0 str5" x1="155" y1="229" x2="157" y2= "223" />
   <path class="fil0 str5" d="M157 223c-3,0 -6,-1 -9,-2 -2,-1 -4,-2 -6,-3"/>
   <line class="fil0 str5" x1="142" y1="218" x2="137" y2= "222" />
   <path class="fil0 str5" d="M137 222c3,2 6,3 9,4"/>
   <path class="fil0 str5" d="M168 230c3,0 5,0 8,-1"/>
   <line class="fil0 str5" x1="176" y1="229" x2="177" y2= "224" />
   <path class="fil0 str5" d="M177 224c-3,0 -6,0 -9,0 -3,0 -5,0 -8,0"/>
   <line class="fil0 str5" x1="160" y1="224" x2="158" y2= "229" />
   <path class="fil0 str5" d="M158 229c3,1 6,1 10,1"/>
   <path class="fil0 str5" d="M189 226c3,-1 5,-2 8,-3"/>
   <line class="fil0 str5" x1="197" y1="223" x2="196" y2= "217" />
   <path class="fil0 str5" d="M196 217c-3,2 -6,3 -9,4 -2,1 -5,2 -7,2"/>
   <line class="fil0 str5" x1="180" y1="223" x2="179" y2= "229" />
   <path class="fil0 str5" d="M179 229c4,-1 7,-2 10,-3"/>
   <path class="fil0 str5" d="M208 215c2,-1 4,-3 6,-5"/>
   <line class="fil0 str5" x1="214" y1="210" x2="211" y2= "205" />
   <path class="fil0 str5" d="M211 205c-2,2 -4,4 -7,6 -2,2 -4,3 -6,5"/>
   <line class="fil0 str5" x1="198" y1="216" x2="200" y2= "221" />
   <path class="fil0 str5" d="M200 221c2,-1 5,-3 8,-6"/>
   <path class="fil0 str5" d="M222 199c1,-3 2,-5 3,-8"/>
   <line class="fil0 str5" x1="225" y1="191" x2="221" y2= "188" />
   <path class="fil0 str5" d="M221 188c-1,3 -3,5 -4,8 -1,2 -3,4 -4,6"/>
   <line class="fil0 str5" x1="213" y1="202" x2="216" y2= "207" />
   <path class="fil0 str5" d="M216 207c2,-2 4,-5 6,-8"/>
   <path class="fil0 str5" d="M229 179c1,-3 1,-6 1,-9"/>
   <line class="fil0 str5" x1="230" y1="170" x2="224" y2= "168" />
   <path class="fil0 str5" d="M224 168c0,3 0,6 0,10 -1,2 -1,4 -2,7"/>
   <line class="fil0 str5" x1="222" y1="185" x2="227" y2= "188" />
   <path class="fil0 str5" d="M227 188c1,-3 1,-6 2,-9"/>
   <path class="fil0 str5" d="M229 157c0,-3 -1,-6 -2,-8"/>
   <line class="fil0 str5" x1="227" y1="149" x2="221" y2= "149" />
   <path class="fil0 str5" d="M221 149c1,3 2,6 3,9 0,2 0,5 0,7"/>
   <line class="fil0 str5" x1="224" y1="165" x2="230" y2= "167" />
   <path class="fil0 str5" d="M230 167c0,-3 0,-7 -1,-10"/>
   <path class="fil0 str5" d="M222 137c-2,-3 -3,-5 -5,-7"/>
   <line class="fil0 str5" x1="217" y1="130" x2="212" y2= "132" />
   <path class="fil0 str5" d="M212 132c1,2 3,5 5,7 1,3 2,5 3,7"/>
   <line class="fil0 str5" x1="220" y1="146" x2="226" y2= "146" />
   <path class="fil0 str5" d="M226 146c-1,-3 -3,-6 -4,-9"/>
   <path class="fil0 str5" d="M208 120c-2,-2 -5,-3 -7,-5"/>
   <line class="fil0 str5" x1="201" y1="115" x2="197" y2= "119" />
   <path class="fil0 str5" d="M197 119c2,1 5,3 7,5 2,2 4,4 5,5"/>
   <line class="fil0 str5" x1="209" y1="129" x2="215" y2= "127" />
   <path class="fil0 str5" d="M215 127c-2,-2 -5,-5 -7,-7"/>
   <path class="fil0 str5" d="M189 109c-3,-1 -5,-1 -8,-2"/>
   <line class="fil0 str5" x1="181" y1="107" x2="178" y2= "112" />
   <path class="fil0 str5" d="M178 112c3,1 6,1 9,2 2,1 5,2 7,3"/>
   <line class="fil0 str5" x1="194" y1="117" x2="198" y2= "113" />
   <path class="fil0 str5" d="M198 113c-3,-1 -6,-3 -9,-4"/>
   <g>
    <path class="fil0 str6" d="M237 168c0,38 -31,69 -69,69 -39,0 -70,-31 -70,-69 0,-39 31,-70 70,-70 38,0 69,31 69,70z"/>
   </g>
   <path class="fil0 str7" d="M249 168c0,-45 -36,-82 -81,-82 -45,0 -82,37 -82,82 0,45 37,81 82,81 45,0 81,-36 81,-81z"/>
   <path class="fil0 str8" d="M168 79c49,0 89,40 89,89"/>
   <path class="fil0 str8" d="M168 257c-49,0 -89,-40 -89,-89"/>
   <g>
    <line class="fil0 str5" x1="259" y1="168" x2="254" y2= "168" />
    <path class="fil0 str5" d="M254 168c0,-48 -39,-87 -86,-87"/>
    <line class="fil0 str5" x1="168" y1="81" x2="168" y2= "76" />
    <path class="fil0 str5" d="M168 76c12,0 24,2 35,7 11,5 21,11 30,20 8,8 15,18 19,29 5,11 7,23 7,36"/>
   </g>
   <g>
    <path class="fil0 str5" d="M168 259c-13,0 -25,-2 -36,-7 -11,-4 -21,-11 -29,-19 -9,-9 -15,-19 -20,-30 -5,-11 -7,-23 -7,-35"/>
    <line class="fil0 str5" x1="76" y1="168" x2="81" y2= "168" />
    <path class="fil0 str5" d="M81 168c0,47 39,86 87,86"/>
    <line class="fil0 str5" x1="168" y1="254" x2="168" y2= "259" />
   </g>
   <g>
    <path class="fil0 str9" d="M263 168c0,53 -42,95 -95,95 -53,0 -96,-42 -96,-95 0,-53 43,-96 96,-96 53,0 95,43 95,96z"/>
   </g>
   <g>
    <path class="fil0 str10" d="M267 168c0,54 -45,99 -99,99 -55,0 -99,-45 -99,-99 0,-55 44,-99 99,-99 54,0 99,44 99,99z"/>
   </g>
   <g>
    <path class="fil0 str11" d="M271 168c0,57 -46,103 -103,103 -57,0 -103,-46 -103,-103 0,-57 46,-103 103,-103 57,0 103,46 103,103z"/>
   </g>
   <path class="fil0 str12" d="M281 168c0,-63 -50,-114 -113,-114 -63,0 -114,51 -114,114 0,63 51,113 114,113 63,0 113,-50 113,-113z"/>
   <g>
    <path class="fil0 str5" d="M168 286c-16,0 -32,-3 -46,-9 -14,-6 -27,-15 -38,-25 -11,-11 -19,-24 -25,-38 -7,-15 -10,-30 -10,-46 0,-16 3,-32 10,-46 6,-14 14,-27 25,-38 11,-11 24,-19 38,-25 14,-7 30,-10 46,-10 16,0 31,3 46,10 14,6 27,14 38,25 10,11 19,24 25,38 6,14 9,30 9,46 0,16 -3,31 -9,46 -6,14 -15,27 -25,38 -11,10 -24,19 -38,25 -15,6 -30,9 -46,9z"/>
    <path class="fil0 str5" d="M168 59c-60,0 -109,49 -109,109 0,60 49,109 109,109 60,0 109,-49 109,-109 0,-60 -49,-109 -109,-109z"/>
   </g>
   <path class="fil0 str5" d="M288 168c0,-67 -54,-121 -120,-121 -67,0 -121,54 -121,121 0,66 54,120 121,120 66,0 120,-54 120,-120z"/>
   <g>
    <g>
     <path class="fil0 str5" d="M189 49c-7,-2 -14,-2 -21,-2 -8,0 -15,0 -22,2"/>
    </g>
    <g>
     <path class="fil0 str5" d="M127 54c-7,2 -13,5 -20,9 -6,4 -12,8 -18,13"/>
    </g>
    <g>
     <path class="fil0 str5" d="M75 89c-4,6 -8,12 -12,18 -4,7 -7,14 -9,20"/>
    </g>
    <g>
     <path class="fil0 str5" d="M49 146c-2,7 -2,14 -2,22 0,7 0,15 2,22"/>
    </g>
    <g>
     <path class="fil0 str5" d="M54 209c2,6 5,13 9,19 4,7 8,13 13,18"/>
    </g>
    <g>
     <path class="fil0 str5" d="M89 260c6,5 12,9 18,13 7,3 14,6 20,9"/>
    </g>
    <g>
     <path class="fil0 str5" d="M146 287c7,1 14,2 22,2 7,0 15,-1 22,-2"/>
    </g>
    <g>
     <path class="fil0 str5" d="M209 282c6,-3 13,-6 19,-9 7,-4 13,-9 18,-13"/>
    </g>
    <g>
     <path class="fil0 str5" d="M260 246c5,-5 9,-11 13,-18 3,-6 6,-13 9,-20"/>
    </g>
    <g>
     <path class="fil0 str5" d="M287 189c1,-7 2,-14 2,-21 0,-8 -1,-15 -2,-22"/>
    </g>
    <g>
     <path class="fil0 str5" d="M282 127c-3,-7 -6,-13 -9,-20 -4,-6 -9,-12 -13,-18"/>
    </g>
    <g>
     <path class="fil0 str5" d="M246 75c-5,-4 -11,-8 -18,-12 -6,-4 -13,-7 -20,-9"/>
    </g>
   </g>
   <g>
    <g>
     <path class="fil0 str5" d="M190 48c-8,-1 -15,-2 -22,-2 -8,0 -15,1 -23,2"/>
    </g>
    <g>
     <path class="fil0 str5" d="M127 53c-7,3 -14,6 -20,9 -7,4 -13,9 -18,13"/>
    </g>
    <g>
     <path class="fil0 str5" d="M75 89c-5,6 -9,12 -13,18 -3,7 -6,13 -9,20"/>
    </g>
    <g>
     <path class="fil0 str5" d="M48 146c-1,7 -2,14 -2,22 0,7 1,15 2,22"/>
    </g>
    <g>
     <path class="fil0 str5" d="M53 209c3,6 6,13 9,20 4,6 9,12 13,18"/>
    </g>
    <g>
     <path class="fil0 str5" d="M89 260c6,5 12,9 18,13 7,4 13,7 20,9"/>
    </g>
    <g>
     <path class="fil0 str5" d="M146 287c7,2 14,2 22,2 7,0 15,0 22,-2"/>
    </g>
    <g>
     <path class="fil0 str5" d="M209 282c6,-2 13,-5 20,-9 6,-4 12,-8 18,-13"/>
    </g>
    <g>
     <path class="fil0 str5" d="M260 246c5,-5 9,-11 13,-17 4,-7 7,-14 9,-21"/>
    </g>
    <g>
     <path class="fil0 str5" d="M287 190c2,-8 2,-15 2,-22 0,-8 0,-15 -2,-23"/>
    </g>
    <g>
     <path class="fil0 str5" d="M282 127c-2,-7 -5,-14 -9,-20 -4,-7 -8,-13 -13,-18"/>
    </g>
    <g>
     <path class="fil0 str5" d="M246 75c-5,-5 -11,-9 -17,-13 -7,-3 -14,-6 -21,-9"/>
    </g>
   </g>
   <g>
    <path class="fil0 str13" d="M296 168c0,-71 -57,-128 -128,-128 -71,0 -128,57 -128,128 0,71 57,128 128,128 71,0 128,-57 128,-128z"/>
   </g>
   <path class="fil0 str14" d="M302 168c0,74 -60,134 -134,134 -75,0 -135,-60 -135,-134 0,-75 60,-135 135,-135 74,0 134,60 134,135z"/>
   <g>
    <path class="fil0 str5" d="M168 304c-19,0 -36,-4 -53,-11 -16,-7 -31,-16 -44,-29 -12,-12 -22,-27 -29,-43 -7,-17 -10,-35 -10,-53 0,-19 3,-36 10,-53 7,-16 17,-31 29,-44 13,-12 28,-22 44,-29 17,-7 34,-10 53,-10 18,0 36,3 53,10 16,7 31,17 43,29 13,13 22,28 29,44 7,17 11,34 11,53 0,18 -4,36 -11,53 -7,16 -16,31 -29,43 -12,13 -27,22 -43,29 -17,7 -35,11 -53,11z"/>
    <path class="fil0 str5" d="M168 35c-73,0 -133,60 -133,133 0,73 60,133 133,133 73,0 133,-60 133,-133 0,-73 -60,-133 -133,-133z"/>
   </g>
   <g>
    <path class="fil0 str15" d="M307 168c0,-77 -62,-140 -139,-140 -77,0 -140,63 -140,140 0,77 63,139 140,139 77,0 139,-62 139,-139z"/>
   </g>
   <g>
    <path class="fil0 str16" d="M320 168c0,84 -68,152 -152,152 -85,0 -153,-68 -153,-152 0,-85 68,-153 153,-153 84,0 152,68 152,153z"/>
   </g>
   <g>
    <path class="fil0 str17" d="M324 168c0,-86 -70,-156 -156,-156 -86,0 -156,70 -156,156 0,86 70,156 156,156 86,0 156,-70 156,-156z"/>
   </g>
   <g>
    <path class="fil0 str18" d="M333 168c0,-92 -74,-166 -165,-166 -92,0 -166,74 -166,166 0,91 74,165 166,165 91,0 165,-74 165,-165z"/>
   </g>
  </g>
 </g>
</svg>
