<?xml version="1.0" encoding="UTF-8"?>
<!DOCTYPE svg PUBLIC "-//W3C//DTD SVG 1.1//EN" "http://www.w3.org/Graphics/SVG/1.1/DTD/svg11.dtd">
<!-- Creator: CorelDRAW X7 -->
<svg xmlns="http://www.w3.org/2000/svg" xml:space="preserve" width="2316px" height="2316px" version="1.1" style="shape-rendering:geometricPrecision; text-rendering:geometricPrecision; image-rendering:optimizeQuality; fill-rule:evenodd; clip-rule:evenodd"
viewBox="0 0 235 235"
 xmlns:xlink="http://www.w3.org/1999/xlink">
 <defs>
  <style type="text/css">
   <![CDATA[
    .str3 {stroke:black;stroke-width:0.16304}
    .str1 {stroke:black;stroke-width:0.352574}
    .str2 {stroke:black;stroke-width:10.2246;stroke-dasharray:0.456752 0.822153}
    .str0 {stroke:black;stroke-width:1.62273;stroke-dasharray:0.456752 1.278905}
    .fil0 {fill:none;fill-rule:nonzero}
    .fil1 {fill:black;fill-rule:nonzero}
   ]]>
  </style>
 </defs>
 <g id="Vrstva_x0020_1">
  <metadata id="CorelCorpID_0Corel-Layer"/>
  <g id="_2609917453104">
   <g>
    <path class="fil0 str0" d="M177 118c0,-33 -26,-60 -59,-60 -33,0 -60,27 -60,60 0,33 27,60 60,60 33,0 59,-27 59,-60z"/>
   </g>
   <g>
    <path class="fil1" d="M195 118l-11 0c0,-37 -30,-67 -66,-67l0 -11c42,0 77,35 77,78z"/>
   </g>
   <g>
    <path class="fil1" d="M40 118l11 0c0,36 30,66 67,66l0 11c-43,0 -78,-35 -78,-77z"/>
   </g>
   <g>
    <line class="fil0 str1" x1="195" y1="118" x2="184" y2= "118" />
    <path class="fil0 str1" d="M184 118c0,-37 -30,-67 -66,-67"/>
    <line class="fil0 str1" x1="118" y1="51" x2="118" y2= "40" />
    <path class="fil0 str1" d="M118 40c42,0 77,35 77,78"/>
   </g>
   <g>
    <line class="fil0 str1" x1="40" y1="118" x2="51" y2= "118" />
    <path class="fil0 str1" d="M51 118c0,36 30,66 67,66"/>
    <line class="fil0 str1" x1="118" y1="184" x2="118" y2= "195" />
    <path class="fil0 str1" d="M118 195c-43,0 -78,-35 -78,-77"/>
   </g>
   <path class="fil0 str1" d="M201 118c0,45 -38,83 -83,83 -46,0 -84,-38 -84,-83 0,-46 38,-84 84,-84 45,0 83,38 83,84z"/>
   <path class="fil1" d="M118 20c-5,0 -9,1 -14,1l-1 9c5,0 10,-1 15,-1 3,0 7,0 11,1l4 -8c-5,-1 -10,-2 -15,-2z"/>
   <path class="fil1" d="M84 26c-4,2 -8,4 -12,6l2 9c4,-3 9,-5 13,-7 4,-1 8,-2 11,-3l1 -9c-5,1 -10,2 -15,4z"/>
   <path class="fil1" d="M55 43c-3,3 -6,6 -9,9l4 8c3,-4 7,-7 11,-10 3,-3 6,-5 9,-7l-2 -9c-5,3 -9,6 -13,9z"/>
   <path class="fil1" d="M33 69c-2,4 -4,8 -5,12l7 6c1,-5 3,-9 6,-14 2,-3 4,-6 6,-9l-5 -8c-3,4 -6,8 -9,13z"/>
   <path class="fil1" d="M22 101c-1,4 -1,8 -2,13l9 3c0,-5 1,-10 1,-15 1,-4 2,-7 3,-11l-7 -5c-2,5 -3,9 -4,15z"/>
   <path class="fil1" d="M22 134c1,5 2,9 3,13l9 0c-1,-5 -3,-9 -4,-14 0,-4 -1,-8 -1,-12l-9 -2c1,5 1,10 2,15z"/>
   <path class="fil1" d="M33 166c3,4 5,8 8,11l8 -3c-3,-4 -6,-8 -8,-12 -2,-4 -4,-7 -5,-11l-9 1c2,5 4,10 6,14z"/>
   <path class="fil1" d="M55 192c4,3 7,5 11,8l7 -6c-5,-3 -8,-6 -12,-9 -3,-2 -6,-5 -9,-8l-8 4c3,4 7,8 11,11z"/>
   <path class="fil1" d="M84 209c4,1 9,2 13,3l4 -8c-4,0 -9,-2 -14,-3 -3,-2 -7,-3 -10,-5l-7 6c5,3 9,5 14,7z"/>
   <path class="fil1" d="M118 215c4,0 8,-1 13,-1l1 -9c-5,0 -10,1 -14,1 -4,0 -8,0 -12,-1l-4 8c5,1 10,2 16,2z"/>
   <path class="fil1" d="M151 209c4,-2 8,-4 12,-6l-2 -9c-4,3 -9,5 -13,7 -4,1 -8,2 -11,3l-1 9c5,-1 10,-2 15,-4z"/>
   <path class="fil1" d="M180 192c3,-3 6,-6 9,-9l-4 -8c-3,4 -7,7 -11,10 -3,3 -6,5 -9,7l2 9c5,-3 9,-6 13,-9z"/>
   <path class="fil1" d="M202 166c2,-4 4,-8 5,-12l-7 -5c-1,4 -3,8 -6,13 -2,3 -4,6 -6,9l5 8c3,-4 6,-8 9,-13z"/>
   <path class="fil1" d="M213 134c1,-4 1,-8 2,-13l-9 -3c0,5 -1,10 -1,15 -1,4 -2,7 -3,11l7 5c2,-4 3,-9 4,-15z"/>
   <path class="fil1" d="M213 101c-1,-5 -2,-9 -3,-13l-9 0c1,5 3,9 4,14 0,4 1,8 1,12l9 2c0,-5 -1,-10 -2,-15z"/>
   <path class="fil1" d="M202 69c-3,-4 -5,-7 -8,-11l-8 3c3,4 6,8 8,12 2,4 4,7 5,11l9 -1c-2,-5 -4,-9 -6,-14z"/>
   <path class="fil1" d="M180 43c-3,-3 -7,-5 -11,-8l-7 6c5,3 9,6 12,9 3,2 6,5 9,8l8 -4c-3,-4 -7,-7 -11,-11z"/>
   <path class="fil1" d="M151 26c-4,-1 -9,-2 -13,-3l-4 8c4,0 9,2 14,3 3,2 7,3 10,5l7 -6c-5,-3 -9,-5 -14,-7z"/>
   <path class="fil0 str1" d="M118 20c-5,0 -9,1 -14,1"/>
   <line class="fil0 str1" x1="104" y1="21" x2="103" y2= "30" />
   <path class="fil0 str1" d="M103 30c5,0 10,-1 15,-1 3,0 7,0 11,1"/>
   <line class="fil0 str1" x1="129" y1="30" x2="133" y2= "22" />
   <path class="fil0 str1" d="M133 22c-5,-1 -10,-2 -15,-2"/>
   <path class="fil0 str1" d="M84 26c-4,2 -8,4 -12,6"/>
   <line class="fil0 str1" x1="72" y1="32" x2="74" y2= "41" />
   <path class="fil0 str1" d="M74 41c4,-3 9,-5 13,-7 4,-1 8,-2 11,-3"/>
   <line class="fil0 str1" x1="98" y1="31" x2="99" y2= "22" />
   <path class="fil0 str1" d="M99 22c-5,1 -10,2 -15,4"/>
   <path class="fil0 str1" d="M55 43c-3,3 -6,6 -9,9"/>
   <line class="fil0 str1" x1="46" y1="52" x2="50" y2= "60" />
   <path class="fil0 str1" d="M50 60c3,-4 7,-7 11,-10 3,-3 6,-5 9,-7"/>
   <line class="fil0 str1" x1="70" y1="43" x2="68" y2= "34" />
   <path class="fil0 str1" d="M68 34c-5,3 -9,6 -13,9"/>
   <path class="fil0 str1" d="M33 69c-2,4 -4,8 -5,12"/>
   <line class="fil0 str1" x1="28" y1="81" x2="35" y2= "87" />
   <path class="fil0 str1" d="M35 87c1,-5 3,-9 6,-14 2,-3 4,-6 6,-9"/>
   <line class="fil0 str1" x1="47" y1="64" x2="42" y2= "56" />
   <path class="fil0 str1" d="M42 56c-3,4 -6,8 -9,13"/>
   <path class="fil0 str1" d="M22 101c-1,4 -1,8 -2,13"/>
   <line class="fil0 str1" x1="20" y1="114" x2="29" y2= "117" />
   <path class="fil0 str1" d="M29 117c0,-5 1,-10 1,-15 1,-4 2,-7 3,-11"/>
   <line class="fil0 str1" x1="33" y1="91" x2="26" y2= "86" />
   <path class="fil0 str1" d="M26 86c-2,5 -3,9 -4,15"/>
   <path class="fil0 str1" d="M22 134c1,5 2,9 3,13"/>
   <line class="fil0 str1" x1="25" y1="147" x2="34" y2= "147" />
   <path class="fil0 str1" d="M34 147c-1,-5 -3,-9 -4,-14 0,-4 -1,-8 -1,-12"/>
   <line class="fil0 str1" x1="29" y1="121" x2="20" y2= "119" />
   <path class="fil0 str1" d="M20 119c1,5 1,10 2,15"/>
   <path class="fil0 str1" d="M33 166c3,4 5,8 8,11"/>
   <line class="fil0 str1" x1="41" y1="177" x2="49" y2= "174" />
   <path class="fil0 str1" d="M49 174c-3,-4 -6,-8 -8,-12 -2,-4 -4,-7 -5,-11"/>
   <line class="fil0 str1" x1="36" y1="151" x2="27" y2= "152" />
   <path class="fil0 str1" d="M27 152c2,5 4,10 6,14"/>
   <path class="fil0 str1" d="M55 192c4,3 7,5 11,8"/>
   <line class="fil0 str1" x1="66" y1="200" x2="73" y2= "194" />
   <path class="fil0 str1" d="M73 194c-5,-3 -8,-6 -12,-9 -3,-2 -6,-5 -9,-8"/>
   <line class="fil0 str1" x1="52" y1="177" x2="44" y2= "181" />
   <path class="fil0 str1" d="M44 181c3,4 7,8 11,11"/>
   <path class="fil0 str1" d="M84 209c4,1 9,2 13,3"/>
   <line class="fil0 str1" x1="97" y1="212" x2="101" y2= "204" />
   <path class="fil0 str1" d="M101 204c-4,0 -9,-2 -14,-3 -3,-2 -7,-3 -10,-5"/>
   <line class="fil0 str1" x1="77" y1="196" x2="70" y2= "202" />
   <path class="fil0 str1" d="M70 202c5,3 9,5 14,7"/>
   <path class="fil0 str1" d="M118 215c4,0 8,-1 13,-1"/>
   <line class="fil0 str1" x1="131" y1="214" x2="132" y2= "205" />
   <path class="fil0 str1" d="M132 205c-5,0 -10,1 -14,1 -4,0 -8,0 -12,-1"/>
   <line class="fil0 str1" x1="106" y1="205" x2="102" y2= "213" />
   <path class="fil0 str1" d="M102 213c5,1 10,2 16,2"/>
   <path class="fil0 str1" d="M151 209c4,-2 8,-4 12,-6"/>
   <line class="fil0 str1" x1="163" y1="203" x2="161" y2= "194" />
   <path class="fil0 str1" d="M161 194c-4,3 -9,5 -13,7 -4,1 -8,2 -11,3"/>
   <line class="fil0 str1" x1="137" y1="204" x2="136" y2= "213" />
   <path class="fil0 str1" d="M136 213c5,-1 10,-2 15,-4"/>
   <path class="fil0 str1" d="M180 192c3,-3 6,-6 9,-9"/>
   <line class="fil0 str1" x1="189" y1="183" x2="185" y2= "175" />
   <path class="fil0 str1" d="M185 175c-3,4 -7,7 -11,10 -3,3 -6,5 -9,7"/>
   <line class="fil0 str1" x1="165" y1="192" x2="167" y2= "201" />
   <path class="fil0 str1" d="M167 201c5,-3 9,-6 13,-9"/>
   <path class="fil0 str1" d="M202 166c2,-4 4,-8 5,-12"/>
   <line class="fil0 str1" x1="207" y1="154" x2="200" y2= "149" />
   <path class="fil0 str1" d="M200 149c-1,4 -3,8 -6,13 -2,3 -4,6 -6,9"/>
   <line class="fil0 str1" x1="188" y1="171" x2="193" y2= "179" />
   <path class="fil0 str1" d="M193 179c3,-4 6,-8 9,-13"/>
   <path class="fil0 str1" d="M213 134c1,-4 1,-8 2,-13"/>
   <line class="fil0 str1" x1="215" y1="121" x2="206" y2= "118" />
   <path class="fil0 str1" d="M206 118c0,5 -1,10 -1,15 -1,4 -2,7 -3,11"/>
   <line class="fil0 str1" x1="202" y1="144" x2="209" y2= "149" />
   <path class="fil0 str1" d="M209 149c2,-4 3,-9 4,-15"/>
   <path class="fil0 str1" d="M213 101c-1,-5 -2,-9 -3,-13"/>
   <line class="fil0 str1" x1="210" y1="88" x2="201" y2= "88" />
   <path class="fil0 str1" d="M201 88c1,5 3,9 4,14 0,4 1,8 1,12"/>
   <line class="fil0 str1" x1="206" y1="114" x2="215" y2= "116" />
   <path class="fil0 str1" d="M215 116c0,-5 -1,-10 -2,-15"/>
   <path class="fil0 str1" d="M202 69c-3,-4 -5,-7 -8,-11"/>
   <line class="fil0 str1" x1="194" y1="58" x2="186" y2= "61" />
   <path class="fil0 str1" d="M186 61c3,4 6,8 8,12 2,4 4,7 5,11"/>
   <line class="fil0 str1" x1="199" y1="84" x2="208" y2= "83" />
   <path class="fil0 str1" d="M208 83c-2,-5 -4,-9 -6,-14"/>
   <path class="fil0 str1" d="M180 43c-3,-3 -7,-5 -11,-8"/>
   <line class="fil0 str1" x1="169" y1="35" x2="162" y2= "41" />
   <path class="fil0 str1" d="M162 41c5,3 9,6 12,9 3,2 6,5 9,8"/>
   <line class="fil0 str1" x1="183" y1="58" x2="191" y2= "54" />
   <path class="fil0 str1" d="M191 54c-3,-4 -7,-7 -11,-11"/>
   <path class="fil0 str1" d="M151 26c-4,-1 -9,-2 -13,-3"/>
   <line class="fil0 str1" x1="138" y1="23" x2="134" y2= "31" />
   <path class="fil0 str1" d="M134 31c4,0 9,2 14,3 3,2 7,3 10,5"/>
   <line class="fil0 str1" x1="158" y1="39" x2="165" y2= "33" />
   <path class="fil0 str1" d="M165 33c-5,-3 -9,-5 -14,-7"/>
   <g>
    <path class="fil0 str2" d="M226 118c0,59 -49,108 -108,108 -60,0 -109,-49 -109,-108 0,-60 49,-109 109,-109 59,0 108,49 108,109z"/>
   </g>
   <path class="fil0 str3" d="M235 118c0,-65 -53,-118 -117,-118 -65,0 -118,53 -118,118 0,64 53,117 118,117 64,0 117,-53 117,-117z"/>
  </g>
 </g>
</svg>
