<?xml version="1.0" encoding="UTF-8"?>
<!DOCTYPE svg PUBLIC "-//W3C//DTD SVG 1.1//EN" "http://www.w3.org/Graphics/SVG/1.1/DTD/svg11.dtd">
<!-- Creator: CorelDRAW X7 -->
<svg xmlns="http://www.w3.org/2000/svg" xml:space="preserve" width="2230px" height="2174px" version="1.1" style="shape-rendering:geometricPrecision; text-rendering:geometricPrecision; image-rendering:optimizeQuality; fill-rule:evenodd; clip-rule:evenodd"
viewBox="0 0 171 166"
 xmlns:xlink="http://www.w3.org/1999/xlink">
 <defs>
  <style type="text/css">
   <![CDATA[
    .fil1 {fill:#333333;fill-rule:nonzero}
    .fil3 {fill:#4D4D4D;fill-rule:nonzero}
    .fil0 {fill:#666666;fill-rule:nonzero}
    .fil4 {fill:gray;fill-rule:nonzero}
    .fil2 {fill:#999999;fill-rule:nonzero}
   ]]>
  </style>
 </defs>
 <g id="Vrstva_x0020_1">
  <metadata id="CorelCorpID_0Corel-Layer"/>
  <g id="_2645941590768">
   <path class="fil0" d="M110 166c17,-5 33,-17 43,-31 11,-15 18,-33 18,-53l-13 0c0,17 -5,33 -15,45 -9,13 -22,23 -37,27l4 12z"/>
   <path class="fil1" d="M165 82c0,-45 -37,-82 -83,-82 -45,0 -82,37 -82,82 0,46 37,83 82,83 9,0 18,-2 26,-4l0 -1c-8,3 -17,4 -26,4 -22,0 -42,-9 -57,-24 -15,-15 -24,-35 -24,-58 0,-22 9,-42 24,-57 15,-15 35,-24 57,-24 23,0 43,9 58,24 15,15 24,35 24,57l1 0z"/>
   <path class="fil2" d="M26 64c0,0 0,-1 0,-1l-15 -6c0,1 0,1 -1,2l16 5zm1 -4c0,0 1,-1 1,-1l-15 -6c-1,0 -1,1 -1,1l15 6zm2 -3c0,-1 0,-1 1,-1l-15 -8c0,1 -1,1 -1,2l15 7zm2 -4c0,0 0,0 0,-1l-14 -8c0,0 0,1 -1,1l15 8zm2 -3c0,0 0,-1 1,-1l-14 -10c0,1 -1,2 -1,2l14 9zm2 -3c0,-1 1,-1 1,-1l-13 -11c0,1 -1,1 -1,2l13 10zm2 -3c1,-1 1,-1 1,-1l-12 -11c0,0 -1,1 -1,1l12 11zm3 -3c0,0 1,-1 1,-1l-11 -12c-1,1 -1,1 -2,1l12 12zm3 -3c0,0 1,0 1,-1l-11 -12c0,0 -1,1 -1,1l11 12zm3 -2c0,-1 1,-1 1,-1l-10 -13c0,0 -1,0 -1,1l10 13zm3 -3c0,0 1,0 1,0l-9 -14c0,0 -1,1 -1,1l9 13zm3 -2c1,0 1,0 1,0l-8 -15c0,1 -1,1 -1,1l8 14zm4 -1c0,-1 0,-1 1,-1l-7 -15c-1,0 -1,1 -2,1l8 15zm3 -2c1,0 1,-1 1,-1l-6 -15c0,0 -1,0 -1,1l6 15zm4 -2c0,0 1,0 1,0l-5 -16c-1,0 -1,1 -2,1l6 15zm3 -1c1,0 1,0 2,0l-4 -16c-1,0 -1,0 -2,0l4 16zm4 -1c1,0 1,0 2,0l-3 -16c-1,0 -2,0 -2,0l3 16zm4 0c0,0 1,0 1,0l-1 -17c-1,0 -2,0 -2,0l2 17zm4 -1c0,0 1,0 1,0l0 -16c-1,0 -2,0 -2,0l1 16zm4 0c0,0 0,0 0,0l0 -16c0,0 0,0 0,0l0 16z"/>
   <path class="fil1" d="M82 18c18,0 34,8 46,19 11,12 18,28 18,45 0,18 -7,34 -18,46 -12,11 -28,18 -46,18 -17,0 -33,-7 -45,-18 -11,-12 -19,-28 -19,-46 0,-6 2,-13 4,-19l-7 -3c-3,7 -4,15 -4,22 0,40 32,72 71,72 40,0 72,-32 72,-72 0,-39 -32,-71 -72,-71l0 7z"/>
   <path class="fil3" d="M82 29c-29,0 -53,24 -53,53 0,30 24,54 53,54 30,0 54,-24 54,-54 0,-29 -24,-53 -54,-53zm0 3c28,0 51,23 51,50 0,28 -23,51 -51,51 -27,0 -50,-23 -50,-51 0,-27 23,-50 50,-50z"/>
   <path class="fil4" d="M82 39c12,0 23,5 31,13 8,8 13,19 13,30l9 0c0,-14 -6,-27 -15,-37 -10,-9 -23,-15 -38,-15l0 9z"/>
   <path class="fil4" d="M82 126c-11,0 -22,-5 -30,-13 -8,-8 -13,-19 -13,-31l-9 0c0,15 6,28 15,38 10,9 23,15 37,15l0 -9z"/>
  </g>
 </g>
</svg>
