<?xml version="1.0" encoding="UTF-8"?>
<!DOCTYPE svg PUBLIC "-//W3C//DTD SVG 1.1//EN" "http://www.w3.org/Graphics/SVG/1.1/DTD/svg11.dtd">
<!-- Creator: CorelDRAW X7 -->
<svg xmlns="http://www.w3.org/2000/svg" xml:space="preserve" width="2300px" height="2202px" version="1.1" style="shape-rendering:geometricPrecision; text-rendering:geometricPrecision; image-rendering:optimizeQuality; fill-rule:evenodd; clip-rule:evenodd"
viewBox="0 0 151 144"
 xmlns:xlink="http://www.w3.org/1999/xlink">
 <defs>
  <style type="text/css">
   <![CDATA[
    .fil1 {fill:#1A1A1A;fill-rule:nonzero}
    .fil4 {fill:#4D4D4D;fill-rule:nonzero}
    .fil3 {fill:#666666;fill-rule:nonzero}
    .fil2 {fill:gray;fill-rule:nonzero}
    .fil0 {fill:#999999;fill-rule:nonzero}
   ]]>
  </style>
 </defs>
 <g id="Vrstva_x0020_1">
  <metadata id="CorelCorpID_0Corel-Layer"/>
  <g id="_2646644374240">
   <path class="fil0" d="M146 72l-1 0c0,19 -8,37 -21,49 -12,13 -30,20 -49,20 -19,0 -36,-7 -49,-20 -12,-12 -20,-30 -20,-49 0,-19 8,-36 20,-49 13,-12 30,-20 49,-20 19,0 37,8 49,20 13,13 21,30 21,49l2 0c0,-40 -32,-72 -72,-72 -39,0 -72,32 -72,72 0,40 33,72 72,72 40,0 72,-32 72,-72l-1 0z"/>
   <path class="fil1" d="M78 10l-1 15c0,0 1,0 1,0l1 -15c0,0 -1,0 -1,0l0 0 0 0 0 0 0 0 0 0 0 0 0 0zm4 0l-2 15c1,0 1,0 1,0l2 -15c0,0 0,0 -1,0l0 0 0 0 0 0 0 0 0 0 0 0 0 0 0 0 0 0 0 0 0 0 0 0 0 0 0 0 0 0 0 0 0 0 0 0 0 0 0 0 0 0 0 0zm4 1l-3 14c1,0 1,0 2,0l3 -14c-1,0 -1,0 -1,0l0 0 0 0 0 0 0 0 0 0 0 0 0 0 0 0 0 0 0 0 0 0 0 0 0 0 0 0 0 0 0 0 0 0 0 0 -1 0 0 0c0,0 0,0 0,0zm4 0l-3 15c0,0 0,0 1,0l4 -14 0 0 0 0 0 0 0 0 0 0 0 0 0 0 -1 0 0 0 0 0 0 0 0 0 0 0 0 0 0 0 0 0 0 0 0 0 0 0 0 0 0 0 0 0 0 0 0 0 0 0 0 0 0 0 0 0 0 0 0 0 0 0 0 0 0 0 0 0 0 0 0 -1 0 0 -1 0 0 0 0 0 0 0 0 0 0 0 0 0 0 0 0 0 0 0 0 0 0 0 0 0 0 0 0 0 0 0zm4 2l-4 14c0,0 0,0 1,0l5 -14c-1,0 -1,0 -1,0l0 0 0 0 0 0 0 0 0 0 0 0 0 0 0 0 0 0 0 0 -1 0zm4 1l-5 14c0,0 0,0 1,0l6 -13c-1,-1 -1,-1 -2,-1zm4 2l-6 13c0,0 0,0 1,1l6 -14 0 0 0 0 0 0 0 0 0 0 0 0 0 0 0 0 0 0 0 0 0 0 0 0 0 0 0 0 0 0 0 0 0 0 0 0 0 0 0 0 0 0 0 0 0 0 0 0 0 0 0 0 0 0 0 0c-1,0 -1,0 -1,0zm4 2l-8 13c1,0 1,0 2,0l7 -13c0,0 -1,0 -1,0l0 0 0 0zm3 2l-8 12c1,0 1,1 1,1l9 -12 0 0 0 0 0 0 0 0 0 0 0 0 0 -1 0 0 -1 0 0 0 0 0 0 0 0 0 0 0 0 0 0 0 0 0 0 0 0 0 0 0 0 0 0 0 0 0 0 0 0 0 0 0 0 0 0 0 0 0 0 0 0 0 0 0 0 0 0 0 0 0 0 0 0 0c0,0 0,0 -1,0zm4 2l-9 12c0,0 1,1 1,1l9 -12 0 0 0 0 0 0c0,0 0,0 0,0l-1 0 0 0 0 0 0 0 0 0 0 0 0 0 0 0 0 0 0 -1 0 0 0 0 0 0 0 0 0 0 0 0 0 0 0 0 0 0 0 0 0 0 0 0 0 0 0 0zm3 3l-10 11c1,0 1,1 1,1l10 -11c0,0 0,-1 -1,-1zm3 3l-10 10c0,1 0,1 1,1l10 -10 0 0 0 0 0 0 0 0 0 0 0 -1 0 0 0 0 0 0 0 0 0 0 0 0 0 0 0 0 0 0 0 0 0 0 0 0c0,0 -1,0 -1,0zm3 3l-11 10c0,0 1,0 1,1l11 -10 0 0 0 0 0 0 0 0 0 0 0 0 0 0 0 0 0 0 0 0 0 0 0 0 0 0 0 -1 0 0 0 0 0 0 0 0 0 0 0 0 0 0 0 0 0 0 0 0 0 0 0 0 0 0 0 0 0 0 0 0 0 0 0 0 -1 0 0 0 0 0 0 0 0 0 0 0 0 0 0 0 0 0 0 0 0 0zm3 3l-12 9c0,0 1,1 1,1l12 -9 0 0 0 0 0 0 0 0 0 0 0 0 0 0 0 0 -1 0 0 0 0 0 0 0 0 0 0 0 0 0 0 0 0 0 0 0 0 0 0 0 0 0 0 0 0 0 0 -1 0 0 0 0 0 0 0 0 0 0 0 0 0 0 0 0 0 0zm2 3l-12 9c0,0 0,0 1,1l12 -8 0 0 0 0 0 -1 0 0 0 0 0 0 0 0 0 0 0 0 0 0 0 0 0 0 0 0c0,0 -1,0 -1,-1l0 0zm3 4l-13 7c0,1 0,1 0,2l13 -8c0,0 0,-1 0,-1zm2 4l-14 6c0,1 0,1 1,1l13 -6c0,0 0,0 0,-1l0 0 0 0 0 0 0 0 0 0 0 0 0 0 0 0 0 0 0 0 0 0 0 0 0 0 0 0 0 0 0 0 0 0 0 0zm1 4l-14 5c1,1 1,1 1,1l14 -5 0 0 0 0 0 0 0 0 0 0 0 0 0 0 0 0 0 0c0,-1 -1,-1 -1,-1zm2 4l-14 4c0,1 0,1 0,1l14 -4 0 0 0 0 0 0 0 0 0 0 0 0 0 0 0 0 0 0 0 0 0 0 0 0 0 0 0 0 0 0 0 0 0 0 0 0 0 0 0 0 0 0 0 -1 0 0 0 0 0 0 0 0 0 0 0 0 0 0 0 0 0 0 0 0 0 0 0 0 0 0 0 0 0 0 0 0 0 0 0 0 0 0 0 0 0 0 0 0 0 0 0 0 0 0 0 0zm1 4l-15 3c1,1 1,1 1,2l14 -4 0 0 0 0 0 0 0 0c0,0 0,0 0,-1l0 0 0 0 0 0 0 0 0 0 0 0c0,0 0,0 0,0zm1 4l-15 2c0,1 0,1 0,2l15 -3 0 0 0 0 0 0 0 0 0 0 0 0 0 0 0 0 0 0 0 0 0 0 0 0 0 -1 0 0 0 0 0 0 0 0 0 0 0 0c0,0 0,0 0,0zm0 4l-14 2c0,0 0,0 0,1l15 -1 0 -1 0 0 0 0 0 0 0 0 0 0 0 0 0 0 0 0 0 0 0 0 0 0 0 0 0 0 0 0 0 0 0 0 0 0 0 0 0 0 0 0 0 0 0 0c-1,0 -1,-1 -1,-1l0 0 0 0 0 0 0 0 0 0 0 0 0 0 0 0 0 0 0 0 0 0 0 0zm1 4l-15 1c0,0 0,1 0,1l15 0c0,-1 0,-1 0,-2zm-15 4c0,0 0,1 0,1l15 1c0,0 0,-1 0,-1l0 0 0 0 0 0 0 0 0 0 0 0 0 0 0 0 0 0 0 -1 0 0 0 0 0 0 0 0 -15 0zm0 3c0,1 0,1 0,2l14 1c0,0 0,0 0,0l0 0 1 0 0 0 0 0 0 -1 0 0 0 0 0 0 0 0 0 0 0 0 0 0 0 0 0 0 0 0 0 0 0 0 0 0 0 0 0 0 0 0 0 0 0 0c0,0 0,0 0,0l-15 -2zm-1 3c0,1 0,1 0,2l15 2c0,0 0,-1 0,-1l0 0 -15 -3zm0 4c0,0 0,0 -1,1l15 4c0,-1 0,-1 0,-1l0 0 0 0 0 0 0 0 0 0 0 0 0 0 0 0 0 0 0 0 0 0 0 0 0 0 0 0 0 0 0 0 0 0 0 0 0 0 0 0 0 0 0 0 0 -1 0 0 0 0 0 0 0 0 0 0 0 0 0 0 0 0 0 0 0 0 0 0 0 0 0 0 0 0 0 0 0 0 0 0 0 0 0 0 0 0 0 0 0 0 0 0 -14 -3zm-1 3c0,0 0,1 0,1l14 5 0 -1 0 0 0 0 0 0 0 0 0 0 0 0 0 0 0 0 0 0 0 0 0 0 0 0 0 0 0 0 0 0 0 0 0 0 0 0 0 0 0 0 0 -1 0 0 0 0 0 0 0 0 0 0 0 0 0 0 0 0 0 0 0 0 0 0 0 0 0 0 -14 -4zm-1 3c0,0 0,1 -1,1l14 6c0,-1 0,-1 0,-1l0 0 0 0c1,0 1,-1 1,-1l-14 -5zm-1 3c0,0 -1,1 -1,1l14 6c0,0 0,-1 0,-1l-13 -6zm-2 3c0,0 0,0 0,1l13 7c0,0 0,0 0,0l0 0 0 0 0 0 0 0 0 -1 0 0 0 0 0 0c0,0 0,0 0,0l-13 -7zm-1 2c-1,1 -1,1 -1,1l12 9c1,-1 1,-1 1,-2l-12 -8zm-2 3c0,0 -1,1 -1,1l12 9 0 0 0 0 0 0 0 0 0 0 0 0 0 0 0 0 0 0c0,0 1,-1 1,-1l-12 -9zm-2 3c0,0 -1,0 -1,1l11 9 0 0 0 0 0 0 0 0 0 0 0 0 0 0 0 0 0 0 1 0 0 0 0 0 0 0 0 0 0 0 0 0 0 0 0 0 0 0 0 0 0 -1 0 0 0 0 0 0 0 0 -11 -9zm-2 2c-1,0 -1,1 -1,1l10 11c1,-1 1,-1 1,-2l-10 -10zm-3 2c0,1 0,1 -1,1l10 11 0 0 0 0 0 0 0 0 0 0 0 0 1 0 0 0 0 0 0 0 0 0 0 0 0 0 0 0 0 0 0 0 0 0 0 0 0 0 0 0 0 0 0 0 0 0 0 0 0 0 0 0 0 0 0 0 0 0 0 0 0 0 0 0 0 0 0 0 0 0 0 0 0 0 0 0 0 0 0 0 0 0 0 0 0 0 0 0 0 -1 0 0 0 0 0 0 -10 -11zm-2 2c0,1 -1,1 -1,1l9 12c0,0 1,-1 1,-1l-9 -12zm-3 2c0,1 0,1 -1,1l8 12c1,0 1,0 2,0l0 0 0 0 0 0 0 0 0 0 -9 -13zm-2 2c-1,0 -1,0 -1,1l7 13c0,-1 1,-1 1,-1l0 0 0 0 0 0 0 0 0 0 0 0 0 0 0 0 0 0 0 0 0 0 0 0 -7 -13zm-3 2c-1,0 -1,0 -1,0l6 14 0 0 0 -1 0 0 0 0 0 0 0 0 1 0 0 0 0 0 0 0 0 0 0 0 0 0 0 0 0 0 0 0 0 0 0 0 0 0 0 0 0 0 0 0 0 0 0 0 0 0 0 0 1 0 -7 -13zm-3 1c0,0 -1,0 -1,0l5 14 1 0 0 0 0 0 0 0 0 0 0 0 0 0 0 0 0 0 0 0 0 0 0 0 0 0 0 0 0 0 0 0 0 0 0 0 0 0 0 0 0 0 0 0 0 0 0 0 0 0 1 0 -6 -14zm-3 1c0,0 -1,0 -1,0l4 15c1,0 1,-1 2,-1l-5 -14zm-3 1c-1,0 -1,0 -1,0l3 15c0,0 1,0 1,0l0 0 0 0 0 0 0 0 0 0 0 0 0 0 0 0 0 0 0 0 0 0 0 0 0 0 0 0 0 0 0 0 0 0 0 0 0 0 0 0 0 0 0 0 0 0 1 0 0 -1 0 0 0 0 0 0 -4 -14zm-3 1c-1,0 -1,0 -1,0l2 15 0 0 0 0 0 0 0 0 0 0 0 0c1,0 1,0 1,-1l0 0 0 0 0 0 0 0 1 0 0 0 0 0 0 0 0 0 -3 -14zm-3 0c-1,0 -1,0 -2,0l2 15c0,0 1,0 2,0l-2 -15zm-4 1c0,0 0,0 -1,0l1 15c0,0 0,0 0,0l0 0 0 0 0 0 0 0 0 0 1 0 0 0 0 0 0 0 0 0 0 0 0 0 0 0 0 0 0 0 0 0c0,0 0,0 0,-1l-1 -14zm-4 0l-1 15c1,0 1,0 2,0l0 0 0 0 0 0 0 0 0 -15c0,0 -1,0 -1,0zm-3 -1l-2 15 0 0 0 0 1 0 0 0 0 0 0 0 0 0 0 0 0 0 0 0 0 0 0 0 0 0 0 0 0 0 0 0 0 0 0 0 0 0 0 0 0 0 0 0 0 0c0,0 1,0 1,0l1 -14c-1,0 -1,-1 -1,-1zm-4 0l-2 15 0 0 0 0 0 0 0 0 0 0 0 0 0 0 0 0 0 0 0 0 0 0 0 0 0 0 0 0 0 0 0 0 0 0c1,0 1,0 1,0l0 0 0 0 0 0 0 0 0 0 0 0 0 0 0 0 0 0 0 0 0 0 1 0 0 0 0 0 2 -15c-1,0 -1,0 -2,0zm-3 -1l-3 15c0,0 0,0 1,0l0 0 0 0 0 0 0 0 0 0c0,0 0,0 0,0l4 -14c-1,0 -1,0 -2,-1zm-3 0l-4 14c0,0 1,0 1,0l4 -14c0,0 0,0 -1,0zm-3 -1l-5 13c0,1 0,1 0,1l0 0 0 0 0 0 0 0 0 0c1,0 1,0 1,0l5 -14c0,0 0,0 -1,0zm-3 -2l-6 14 0 0 0 0 0 0 0 0 0 0 0 0 0 0 0 0 0 0 0 0 0 0 0 0 0 0 1 0 0 0 0 0 0 0 0 0 0 0 0 0 0 0 0 0 0 0 0 0c0,0 0,0 0,0l6 -13c0,0 0,-1 -1,-1zm-3 -1l-7 13 0 0 0 0 0 0 0 0 0 0 0 0 0 0 0 0 0 0 0 0 0 0 0 0 0 0 1 0 0 0 0 0 0 0 0 0 0 0 0 0 0 0 0 0 0 0 0 0 0 0 0 0 0 0 0 0 0 0 0 0 0 0 0 0 0 0 0 0 0 0 0 0 0 0 0 0 1 1 6 -14c0,0 0,0 -1,0zm-2 -2l-8 13 0 0 0 0 0 0 0 0 0 0 0 0 0 0 0 0 0 0 0 0 0 0 0 0 0 0 0 0 0 0 0 0 0 0 0 0 0 0 0 0 0 0 0 0 0 0 0 0 0 0 0 0 0 0 0 0 0 0 0 0 0 0 0 0 0 0 0 0 0 0 0 0 0 0 0 0 0 0 0 0 0 0 1 0 0 0 0 0 0 0 0 0 0 0 0 0 0 0 0 1 0 0 0 0 0 0 0 0 0 0 8 -13c-1,0 -1,-1 -1,-1zm-3 -2l-9 12c0,1 1,1 1,1l9 -12c0,0 -1,0 -1,-1zm-3 -2l-9 12 0 0 0 0 0 0 0 0 0 0 0 0 0 0 0 0 0 0 0 0 0 0 0 0 0 0 0 0 0 0 0 0 0 0 0 0 0 0 0 0 0 0 0 0 1 0 0 0 0 0 0 0 0 0 0 0c0,0 0,1 0,1l9 -12c0,0 0,0 -1,-1zm-2 -2l-10 11 0 0 0 0 0 0 0 0 0 0 0 0 0 0 0 0 0 0 0 0 0 0 0 0 0 0 0 0 0 0c0,0 1,1 1,1l0 0 0 0 0 0 0 0 0 0 10 -11c0,0 -1,-1 -1,-1zm-2 -2l-11 10c0,0 0,0 0,1l1 0 0 0 0 0 0 0 0 0 0 0 0 0 0 0 0 0 0 0 0 0 0 0 0 0 0 0 0 0 0 0 0 0 0 0 0 0 11 -10c-1,-1 -1,-1 -1,-1zm-2 -3l-12 9c0,1 1,1 1,2l12 -10c-1,0 -1,0 -1,-1zm-2 -2l-12 8c0,1 0,1 0,1l0 0 13 -8c-1,-1 -1,-1 -1,-1zm-2 -3l-13 7c0,1 0,1 1,1l0 0 0 0 0 0 0 0 0 0 0 0 0 0 0 0 0 0 0 0 0 0 0 0 0 0 0 0 0 1 0 0 0 0 0 0 0 0 0 0 0 0 0 0 0 0 0 0 13 -8c0,0 -1,-1 -1,-1zm-1 -3l-14 7c0,0 0,0 1,0l0 0 0 0 0 0 0 0 0 0 0 1 0 0 0 0 0 0 0 0 0 0 0 0 0 0 0 0 0 0 0 0 0 0 0 0 0 0 0 0 0 0 0 0 0 0 0 0 0 0 0 0 0 0 0 0 13 -7c0,0 0,0 0,-1zm-2 -3l-13 6c0,0 0,0 0,0l0 0 0 0 0 1 0 0 0 0 0 0 0 0 0 0 0 0 0 0 0 0 0 0 0 0 0 0 0 0 0 0 0 0 0 0 0 0 0 0 0 0 0 0 0 0 0 0 0 0 14 -6c0,0 0,0 -1,-1zm-1 -3l-14 5c0,0 0,1 1,2l14 -6c-1,0 -1,0 -1,-1zm-1 -3l-14 4c0,0 0,0 0,1l0 0 0 0 0 0 0 0 0 0 0 0 0 0 0 0 0 0 0 0 0 0 0 0c0,0 0,0 0,1l15 -5c0,0 -1,0 -1,-1zm0 -3l-15 3 0 0 0 0 0 0 0 0 0 0 0 0 0 0 0 0 0 0c0,1 0,1 0,1l15 -3c0,0 0,-1 0,-1zm-1 -3l-15 2 0 0 0 0 0 0 0 0 0 0 0 0 0 0 0 0 0 0 0 0 0 0 0 0 0 0 0 0 0 0 0 0 0 0 0 0 0 0 0 0 0 0 0 0 0 0 0 1 0 0 0 0 0 0 0 0 0 0 0 0 0 0 0 0 0 0 0 0 0 0 0 0 0 0 0 0 0 0 0 0 1 0 14 -2c0,0 0,-1 0,-1zm0 -3l-15 0 0 1 0 0 0 0 0 0 0 0 0 0 0 0 0 0 0 0 0 0 0 0c0,0 0,1 0,1l15 -1c0,-1 0,-1 0,-1zm-15 -4l0 0 0 0 0 0 0 0 0 0 0 1 0 0 0 0 0 0 0 1 0 0 15 0 0 -1c0,0 0,0 0,-1l-15 0zm0 -4c0,0 0,1 0,1l0 0 0 0 0 0 0 0 0 0 0 0 0 0 0 0 0 0 0 0 0 0 0 0 0 1 15 0c0,0 0,0 0,-1l-15 -1zm1 -4l0 0 0 0 0 0 0 0 0 0 0 0 0 0 -1 0 0 0 0 0 0 0 0 0 0 0 0 0 0 0 0 0 0 0 0 0 0 0 0 0 0 0 0 0 0 1 0 0 0 0 0 0 0 0 0 0c0,0 0,0 0,0l15 2c0,0 0,-1 0,-1l-14 -2zm0 -4c0,0 0,0 0,1l0 0 0 0 0 0 0 0 0 0 0 0 0 0 0 0 0 0 15 3c0,0 0,-1 0,-1l-15 -3zm1 -5l0 1 0 0 0 0 0 0 0 0 0 0 0 0 0 0 0 0 0 0 0 0 0 0 0 0c0,0 0,0 0,1l0 0 0 0 0 0 0 0 0 0 0 0 0 0 0 0 0 0 0 0 0 0 0 0 0 0 0 0 14 4c0,0 1,-1 1,-1l-15 -5zm2 -4l0 1 0 0 0 0 0 0 0 0 0 0 0 0 0 0 0 0 0 0 0 0 -1 0 0 0 0 0 0 0 0 0 0 0 0 0 0 0 0 0 0 0 0 0 0 0 0 0 0 0 0 0 0 0 0 0 0 0 0 0 0 1 0 0 0 0 0 0c0,0 0,0 0,0l14 5c0,-1 1,-1 1,-1l-14 -6zm1 -3c0,0 0,0 0,0l0 0 0 0 0 0 0 0 0 0 0 0 0 0 0 0 0 0 0 1 0 0 0 0 0 0 0 0 0 0 0 0 0 0 0 0 0 0 0 0 0 0 0 0 0 0 0 0 0 0 0 0 0 0 0 0 0 0 0 0 0 0 0 0 0 0 0 0 0 0 13 6c1,-1 1,-1 1,-1l-14 -6zm2 -4c0,0 0,1 -1,1l0 0 0 0 0 0 0 0 0 0 14 7c0,0 0,-1 0,-1l-13 -7zm2 -4l0 0 0 0 0 0 0 0 0 0 0 0 0 0 0 0 0 0 0 0 0 0 0 0 0 0 0 0 0 0 0 0 0 0 0 1 0 0 0 0 0 0 0 0 0 0 0 0 0 0 0 0 0 0 0 0 0 0 0 0 0 0 0 0c0,0 0,0 -1,1l13 7c1,0 1,-1 1,-1l-13 -8zm3 -3l0 0 0 0 0 0 0 0 0 0 -1 0 0 0c0,0 0,1 0,1l12 8c0,0 0,0 1,-1l-12 -8zm2 -4c0,1 0,1 0,1l0 0 0 0 -1 0 0 0 0 0 0 0 0 1 12 9c0,-1 0,-1 1,-1l-12 -10zm3 -3l0 0 0 0 0 0 0 0 0 0 0 0 0 0 0 0 0 0 0 0 0 0 0 1 0 0 -1 0 0 0 0 0 0 0 0 0 0 0 0 0 0 0 0 0 0 0 0 0 0 0 0 0 0 0 0 0 0 0 0 0 0 0 0 0 0 0 0 0 0 0 0 0 0 0 11 10c0,0 1,0 1,-1l-11 -10zm3 -3c0,0 0,0 -1,1l0 0 0 0 0 0 0 0 0 0 0 0 0 0 0 0 0 0 0 0 0 0 0 0 0 0 0 0 0 0 0 0 0 0 0 0 0 0 0 0 0 0 0 0 0 0 0 0 0 0 0 0 0 0 0 0 10 11c1,0 1,-1 1,-1l-10 -11zm3 -3c0,1 -1,1 -1,1l10 12c0,0 0,-1 1,-1l-10 -12zm4 -2c-1,0 -1,0 -1,1l0 0 -1 0 0 0 0 0 0 0 0 0 0 0 9 12c0,0 1,-1 1,-1l-8 -12zm3 -2c0,0 0,0 -1,0l0 0 0 0 0 0 0 0 0 0 0 0 0 0 0 0 0 0c0,0 0,0 0,0l8 13c0,0 0,0 1,-1l-8 -12zm4 -2l0 0 0 0 0 0 0 0 0 0 0 0 0 0 0 0 0 0 0 0 0 0 0 0 0 0 0 0 -1 0 0 0 0 0 0 0 0 0 0 0 0 0 0 0 0 0 0 0 0 0 0 0 0 0 0 0 0 0 0 0 0 0 0 0 0 0 0 0 0 0 0 0 0 0 0 0 0 0 0 0 0 0 0 0 0 0 0 0 -1 0 0 0 0 0 8 13c0,0 0,0 1,0l-7 -13zm4 -2l0 0 0 0 -1 0 0 0 0 0 0 0 0 0 0 0 0 0 0 0 0 0 0 0 0 0 0 0 0 0 0 0 0 0 0 0 0 0 0 0 0 0 0 0 0 0 0 0 0 0 0 0 0 0 0 0c0,0 -1,0 -1,0l6 14c1,0 1,0 2,-1l-6 -13zm4 -2c-1,0 -1,1 -2,1l5 14c1,0 1,-1 2,-1l-5 -14zm4 -1c-1,0 -1,0 -1,0l0 0 0 0 0 0 0 0 0 0 0 0 0 0 0 0 0 0 0 0 0 0 0 0 0 0 0 0 0 0 0 0 0 0 -1 0 0 0 0 0 0 0 0 0 0 0 0 0 0 0 0 0 0 0 0 0 0 0 0 0 0 0 0 0 0 0 0 0 4 15c1,0 1,-1 2,-1l-4 -14zm4 -1l-1 0 0 0 0 0 0 0 0 0 0 0 0 0 0 0 0 0 0 0 0 0c0,0 0,0 -1,0l0 0 0 0 0 0 0 0 0 0 0 0 0 0 4 15c0,0 0,0 1,0l-3 -15zm4 -1c0,0 -1,0 -1,0l0 0 0 0 0 0 0 0 0 0 0 0 0 0 0 0 0 0 0 0 0 0 0 0 0 0 0 0c0,0 -1,0 -1,0l3 15c0,0 0,0 1,0l-2 -15zm4 0c0,0 -1,0 -1,0l0 0 0 0 0 0 0 0 0 0 0 0 0 0 -1 0 2 15c0,0 1,0 1,0l-1 -15zm4 0l0 0 0 0 0 0 0 0 0 0 0 0 0 0 0 0 0 0 0 0 0 0 0 0 0 0 0 0 0 0 -1 0 0 0 0 0 0 0 0 0 0 0 0 0 0 0 0 0 0 0 0 0 0 0 0 0 0 0 0 0 0 0 0 0 0 15c0,0 1,0 1,0l0 -15z"/>
   <path class="fil2" d="M117 72l-1 0c0,11 -5,21 -12,29 -7,7 -17,12 -29,12 -11,0 -21,-5 -28,-12 -8,-8 -12,-18 -12,-29 0,-11 4,-21 12,-28 7,-8 17,-12 28,-12 12,0 22,4 29,12 7,7 12,17 12,28l3 0c0,-24 -20,-43 -44,-43 -24,0 -43,19 -43,43 0,24 19,44 43,44 24,0 44,-20 44,-44l-2 0z"/>
   <path class="fil3" d="M50 133c-12,-5 -22,-13 -29,-24 -8,-10 -12,-23 -12,-37 0,-14 4,-26 12,-37 7,-11 17,-19 29,-24l-4 -8c-13,5 -25,15 -33,27 -8,12 -13,26 -13,42 0,16 5,30 13,42 8,13 20,22 33,28l4 -9z"/>
   <path class="fil3" d="M141 72c0,14 -4,27 -11,37 -7,11 -17,19 -29,24l3 9c14,-6 25,-15 34,-28 8,-12 13,-26 13,-42l-10 0z"/>
   <path class="fil4" d="M75 35c-20,0 -36,17 -36,37 0,20 16,37 36,37 21,0 37,-17 37,-37 0,-20 -16,-37 -37,-37zm0 10c15,0 28,12 28,27 0,15 -13,28 -28,28 -15,0 -27,-13 -27,-28 0,-15 12,-27 27,-27z"/>
  </g>
 </g>
</svg>
