<?xml version="1.0" encoding="UTF-8"?>
<!DOCTYPE svg PUBLIC "-//W3C//DTD SVG 1.1//EN" "http://www.w3.org/Graphics/SVG/1.1/DTD/svg11.dtd">
<!-- Creator: CorelDRAW X7 -->
<svg xmlns="http://www.w3.org/2000/svg" xml:space="preserve" width="2300px" height="2300px" version="1.1" style="shape-rendering:geometricPrecision; text-rendering:geometricPrecision; image-rendering:optimizeQuality; fill-rule:evenodd; clip-rule:evenodd"
viewBox="0 0 129 129"
 xmlns:xlink="http://www.w3.org/1999/xlink">
 <defs>
  <style type="text/css">
   <![CDATA[
    .fil4 {fill:#333333;fill-rule:nonzero}
    .fil0 {fill:#4D4D4D;fill-rule:nonzero}
    .fil1 {fill:#666666;fill-rule:nonzero}
    .fil2 {fill:gray;fill-rule:nonzero}
    .fil3 {fill:#999999;fill-rule:nonzero}
   ]]>
  </style>
 </defs>
 <g id="Vrstva_x0020_1">
  <metadata id="CorelCorpID_0Corel-Layer"/>
  <g id="_2647125507872">
   <path class="fil0" d="M126 64l-1 0c0,17 -7,32 -18,43 -11,11 -26,18 -43,18 -16,0 -31,-7 -42,-18 -11,-11 -18,-26 -18,-43 0,-16 7,-31 18,-42 11,-11 26,-18 42,-18 17,0 32,7 43,18 11,11 18,26 18,42l1 0c0,-34 -27,-61 -62,-61 -34,0 -61,27 -61,61 0,35 27,62 61,62 35,0 62,-27 62,-62l0 0z"/>
   <path class="fil1" d="M105 78l0 0c-2,5 -5,10 -9,15l0 0 0 0c-4,4 -9,8 -14,10 -6,3 -11,4 -18,4 -6,0 -11,-1 -17,-4 -5,-2 -10,-6 -14,-10l0 0c-4,-5 -7,-10 -9,-15 -1,-5 -2,-9 -2,-14 0,-1 0,-2 0,-4l0 0c1,-6 3,-12 6,-17 3,-5 7,-9 12,-13l0 0c4,-3 10,-6 16,-7 3,-1 5,-1 8,-1 3,0 6,0 9,1l0 0c6,1 12,4 16,7l0 0c5,4 9,8 12,13 3,5 5,11 6,17l0 0c0,2 0,3 0,4 0,5 -1,9 -2,14l0 0 1 0c1,-4 2,-9 2,-14 0,-1 0,-3 0,-4l0 0 0 0c-1,-6 -3,-12 -6,-17 -3,-5 -7,-10 -12,-14l0 0c-5,-3 -10,-6 -17,-7l0 0c-2,-1 -5,-1 -9,-1 -3,0 -6,0 -9,1 -6,1 -11,4 -16,7l0 0c-5,4 -9,9 -12,14 -3,5 -5,11 -6,17l0 0 0 0c0,1 0,3 0,4 0,5 1,10 2,14 2,6 5,11 9,15l0 0c4,5 9,9 15,11 5,2 11,4 17,4 7,0 13,-2 18,-4 6,-2 11,-6 15,-11l0 0c4,-4 7,-9 9,-15l-1 0zm13 -19l1 0c-3,-28 -26,-49 -55,-49 -28,0 -51,21 -54,49l0 0c0,2 0,4 0,5 0,15 5,27 14,37 10,11 24,18 40,18 17,0 31,-7 41,-18 9,-10 14,-22 14,-37 0,-1 0,-3 0,-5l0 0 -1 0 0 0c0,2 0,4 0,5 0,14 -5,27 -14,36 -9,11 -24,18 -40,18 -15,0 -30,-7 -39,-18 -9,-9 -14,-22 -14,-36 0,-1 0,-3 0,-5l0 0c3,-27 26,-48 53,-48 28,0 51,21 54,48l0 0 0 0z"/>
   <path class="fil2" d="M24 77l-11 4 0 1 11 -4 0 -1zm-2 -17l-11 -2 0 1 11 1 0 0zm6 -17l-10 -6 -1 1 10 5 1 0zm12 -13l-7 -10 -1 1 7 9 1 0zm16 -8l-2 -11 -1 1 2 11 1 -1zm19 -11l-2 11 1 1 2 -11 -1 -1zm21 9l-7 10 1 0 7 -9 -1 -1zm15 17l-10 6 1 0 10 -5 -1 -1zm7 21l-11 2 0 0 11 -1 0 -1zm-2 23l-11 -4 0 1 11 4 0 -1zm-11 19l-8 -7 -1 1 8 7 1 -1zm-18 14l-5 -11 -1 1 5 10 1 0zm-23 5l1 0 0 -12 -1 0 0 12zm-17 -16l-5 11 1 0 4 -10 0 -1zm-15 -10l-8 7 1 1 8 -7 -1 -1z"/>
   <path class="fil3" d="M65 35l0 7c0,0 1,0 1,0l0 -7 0 0 0 0 0 0 0 0 0 0 0 0 0 0 0 0c0,0 0,0 0,0l0 0 -1 0 0 0 0 0 0 0 0 0 0 0 0 0 0 0 0 0 0 0zm2 0l0 7c0,0 0,0 0,0l1 -7 0 0 0 0 0 0 0 0 0 0 0 0 0 0 0 0 0 0 0 0 0 0 0 0 0 0 0 0 0 0 0 0 0 0 0 0 0 0 0 0 0 0 0 0c0,0 -1,0 -1,0zm2 0l-1 7c0,0 1,0 1,0l1 -7 0 0 0 0 0 0 0 0 0 0 0 0 0 0 0 0 0 0 0 0 0 0 0 0 0 0 0 0 0 0 0 0 0 0 0 0 0 0 0 0 0 0 0 0 0 0 0 0 0 0 0 0 0 0 0 0 0 0 0 0 0 0 0 0 -1 0zm2 1l-1 6c0,0 0,0 0,1l2 -7 0 0 0 0 0 0 0 0 0 0 0 0 0 0 0 0 0 0 0 0 0 0 0 0 0 0 0 0 0 0 0 0 0 0 -1 0 0 0 0 0 0 0 0 0 0 0 0 0 0 0 0 0zm2 0l-2 7c0,0 0,0 1,0l2 -7c0,0 -1,0 -1,0l0 0 0 0 0 0 0 0 0 0 0 0 0 0 0 0 0 0 0 0 0 0zm2 1l-3 6c1,0 1,0 1,0l3 -6c-1,0 -1,0 -1,0zm2 1l-3 6c0,0 0,0 0,0l3 -6 0 0 0 0 0 0 0 0 0 0 0 0 0 0 0 0 0 0 0 0 0 0 0 0 0 0 0 0 0 0 0 0 0 0 0 0 0 0 0 0 0 0 0 0 0 0 0 0 0 0 0 0 0 0 0 0 0 0 0 0 0 0 0 0 0 0 0 0 0 0 0 0 0 0 0 0 0 0 0 0 0 0 0 0 0 0 0 0zm1 0l-3 6c0,1 0,1 1,1l3 -6c0,0 0,0 -1,-1zm2 1l-4 6c1,0 1,0 1,1l4 -6 0 0 0 0 0 0 0 0 0 0 0 0 0 0 0 0 0 0 -1 0 0 0 0 0 0 0 0 0 0 0 0 0 0 0 0 0 0 0 0 0 0 -1 0 0 0 0 0 0 0 0 0 0zm2 1l-4 6c0,0 0,0 0,0l4 -5 0 0 0 0 0 0 0 0 0 0 0 0 0 0 0 0 0 0 0 0 0 0 0 0c0,0 0,0 0,-1zm1 2l-4 5c0,0 0,0 0,0l5 -5 0 0 0 0 0 0 0 0 0 0 -1 0 0 0 0 0 0 0 0 0 0 0 0 0zm2 1l-5 5c0,0 0,0 0,0l5 -5 0 0 0 0 0 0 0 0 0 0 0 0 0 0 0 0 0 0 0 0 0 0 0 0 0 0 0 0c0,0 0,0 0,0zm1 1l-5 5c0,0 0,0 0,0l6 -4 -1 0 0 0 0 0 0 0 0 0 0 0 0 0 0 0 0 0 0 0 0 0c0,0 0,-1 0,-1zm1 2l-5 4c0,0 0,0 0,1l6 -5 0 0 0 0 0 0 0 0 0 0 0 0 0 0 0 0 0 0 0 0 0 0 -1 0 0 0 0 0zm1 1l-5 4c0,0 0,1 0,1l6 -4c0,0 0,-1 -1,-1zm2 2l-6 3c0,1 0,1 0,1l6 -3c0,-1 0,-1 0,-1l0 0 0 0 0 0 0 0 0 0 0 0 0 0 0 0 0 0 0 0 0 0zm1 2l-7 3c1,0 1,0 1,0l6 -3c0,0 0,0 0,0zm0 1l-6 3c0,0 0,0 0,1l7 -3 0 0 -1 -1zm1 2l-6 2c0,1 0,1 0,1l6 -2 0 0 0 0 0 0 0 0 0 0 0 -1c0,0 0,0 0,0zm1 2l-7 2c0,0 0,0 0,0l7 -1c0,0 0,-1 0,-1l0 0 0 0 0 0 0 0 0 0 0 0 0 0 0 0 0 0 0 0 0 0 0 0 0 0 0 0 0 0zm0 2l-6 1c0,1 0,1 0,1l6 -1 0 -1 0 0 0 0 0 0 0 0 0 0 0 0 0 0 0 0c0,0 0,0 0,0l0 0 0 0 0 0 0 0 0 0 0 0 0 0 0 0 0 0zm1 2l-7 1c0,0 0,0 0,0l7 -1c0,0 0,0 0,0l0 0 0 0 0 0 0 0 0 0 0 0 0 0 0 0 0 0zm0 2l-7 0c0,0 0,1 0,1l7 -1 0 0 0 0 0 0c0,0 0,0 0,0zm0 2l-7 0c0,0 0,0 0,0l7 0c0,0 0,0 0,0zm-7 1c0,0 0,1 0,1l7 0c0,0 0,0 0,0l0 0 0 0 0 0 0 0 0 0 0 0 0 0 0 0 0 0 0 0 0 0 0 -1 0 0 0 0 0 0 -7 0zm0 2c0,0 0,0 0,0l7 1c0,0 0,0 0,-1l-7 0zm0 1c0,0 0,1 0,1l6 1 0 0 0 0 0 0 0 0 0 0 0 0 0 0 1 0 0 0 0 0 0 0 0 0 0 0 0 0 0 0 0 0 0 0 0 0 0 0 0 0 0 0 0 0 0 0 0 0 0 0 0 0 0 0 0 0 0 0 0 0 0 0 0 0 0 0 0 0 0 -1 -7 -1zm0 2c0,0 -1,0 -1,0l7 2 0 0 0 0 0 0 0 0 0 0 0 0 0 0 0 0 0 0 0 0 0 0 0 0 0 0 0 0 0 0 0 0 0 0 0 0 0 0 0 0 0 0 0 0 0 0 0 0 0 0c0,-1 0,-1 0,-1l-6 -1zm-1 1c0,0 0,0 0,1l6 2c1,0 1,-1 1,-1l-7 -2zm0 1c0,1 0,1 -1,1l7 3 0 -1 0 0 0 0 0 0 0 0 0 0 0 0 0 0 0 0 0 0c0,0 0,0 0,0l-6 -3zm-1 2c0,0 0,0 0,0l6 3 0 0 0 0c0,0 0,0 0,0l0 0 0 0 0 0 0 0 0 0 0 0 0 0 0 0 0 0 0 0 0 0 0 0 0 0 0 0 0 0 0 0 0 0 -6 -3zm-1 1c0,0 0,1 0,1l6 3 0 0 0 0 0 0 0 0 0 0 0 0 0 0 0 0 0 0 0 0 0 0c0,0 0,0 0,-1l-6 -3zm0 1c0,1 0,1 -1,1l6 4 0 0 0 0 0 0 0 0 0 0 0 0 0 0 0 0 0 0 0 0 0 0 0 0 0 0c0,-1 0,-1 1,-1l-6 -4zm-1 2c0,0 0,0 0,0l5 4c0,0 0,0 0,0l-5 -4zm-1 1c0,0 0,0 0,0l5 5 0 0 0 0 0 0c0,0 0,-1 0,-1l-5 -4zm-1 1c0,0 0,0 0,0l4 5c1,0 1,0 1,0l0 0 0 0 0 0 0 0 0 0 0 0 0 0 0 0 0 0 0 0 0 0 0 0 0 0 -5 -5zm-1 1c0,0 0,0 0,0l4 6 0 -1 0 0 0 0 0 0 0 0 0 0 0 0 0 0 0 0 0 0 0 0 0 0 0 0 0 0 0 0 0 0 0 0 1 0 -5 -5zm-1 1c0,0 0,0 -1,0l5 6 0 0 0 0 0 -1 -4 -5zm-1 1c-1,0 -1,0 -1,0l4 6 0 0 0 0 0 0 0 0 0 0 0 0 0 0 0 0 0 0 0 0 0 0 0 0 1 0 0 0 0 0 0 0 0 0 0 0 0 0 0 0 0 0 0 0 0 0 0 0 0 0 -4 -6zm-2 1c0,0 0,0 0,0l3 6 0 0 0 0 0 0 0 0 0 0 0 0 0 0c1,0 1,0 1,0l-4 -6zm-1 1c0,0 0,0 0,0l3 6c0,0 0,0 0,0l0 0 0 0 0 0 -3 -6zm-1 0c0,0 -1,0 -1,0l3 7 0 0 0 0 0 0 0 0 0 0 0 0 0 0 0 0 0 0 0 -1 0 0 0 0 0 0 1 0 0 0 0 0 0 0 -3 -6zm-2 1c0,0 0,0 0,0l2 6 0 0 0 0 0 0 0 0 0 0 0 0 0 0 0 0 1 0 0 0 0 0 0 0 0 0 0 0 0 0 0 0 0 0 0 0 0 0 0 0 0 0 0 0 0 0 0 0 0 0 0 0 0 0 0 0 -3 -6zm-1 0c0,0 0,0 -1,0l2 7c0,0 1,0 1,0l-2 -7zm-1 1c-1,0 -1,0 -1,0l1 6 1 0 0 0 0 0 0 0 0 0 0 0 0 0 0 0 0 0 0 0 0 0 0 0 0 0 0 0 0 0 0 0 0 0 0 0 0 0 0 0 0 0 0 0 0 0 0 0 0 0 0 0 0 0 0 0 0 0 0 0 0 0 -1 -6zm-2 0c0,0 0,0 0,0l0 7 0 0 1 0 0 0c0,0 0,0 0,0l0 0 0 0 0 0 0 0 0 0 0 0 0 0 0 0 0 0 0 0 0 0 -1 -7zm-1 0c-1,0 -1,0 -1,0l1 7 0 0 0 0 0 0 0 0 0 0 0 0 0 0 0 0 0 0 0 0 0 0 0 0 0 0 0 0 0 0 0 0 0 0 0 0 0 0 0 0 0 0 0 0 0 0 0 0 0 0 0 0 0 0 0 0 0 0 0 0 0 0 0 0 0 0 0 0 0 0 0 0 0 0 0 -7zm-2 0c0,0 0,0 0,0l0 7 0 0 0 0 0 0 0 0c0,0 0,0 0,0l0 -7zm-2 0l0 7c0,0 0,0 0,0l0 0 0 0 0 0 0 0 1 -7c-1,0 -1,0 -1,0zm-1 0l-1 7 0 0 0 0 0 0 0 0 0 0 0 0 0 0 0 0 0 0 0 0 0 0 0 0 0 0 0 0 0 0 0 0 0 0 0 0 0 0 0 0 0 0 0 0 0 0 0 0 0 0 0 0 0 0 0 0 0 0 0 0 0 0 0 0 0 0 0 0 0 0 0 0 0 0 0 0 0 0 1 -7c0,0 0,0 0,0zm-2 0l-1 6c0,0 0,1 0,1l0 0 0 0 0 0 0 0 0 0 0 0 0 0 0 0 0 0 0 0 1 0 1 -7c0,0 -1,0 -1,0zm-1 -1l-2 7c0,0 0,0 1,0l1 -6c0,0 0,-1 0,-1zm-2 0l-2 6c0,1 0,1 0,1l0 0 0 0 0 0 0 0 1 0 0 0 0 0 0 0 0 0 0 0 0 0 0 0 0 0 0 0 2 -7c0,0 -1,0 -1,0zm-1 -1l-3 7 0 0 0 0 0 0 0 0 0 0 0 0 0 0 0 0 0 0 1 0 0 0 0 0 0 0 0 0 0 0 0 0 0 0 0 0 0 0 0 0 0 0 0 0 0 0 0 0 0 0 0 0 0 0 0 0 2 -6c0,0 0,0 0,-1zm-1 0l-3 6 0 0 0 0 0 0 0 0 0 0 0 0 0 0 0 0 0 0 0 0 0 0 0 0 0 0 0 0 0 0 0 0 0 0 0 0 0 0 0 0 0 0 0 0 0 0 0 0 0 0 0 0 0 0 0 0 0 0 0 0 0 0 3 -6c0,0 0,0 0,0zm-2 -1l-3 6 0 0 0 0 0 0 0 0 0 0 0 0 0 0 0 0 0 0 0 0 0 0 0 0 4 -6c0,0 -1,0 -1,0zm-1 -1l-4 6c0,0 0,0 1,0l0 0 0 0 0 0 0 0 0 0 0 0 0 0 0 0 0 0 3 -5c0,0 0,-1 0,-1zm-1 0l-4 5 0 0 0 0 0 0 0 0 0 0 0 0 0 0 0 0 0 0 0 0 0 0 0 0 0 0 0 0 0 0 0 0 0 0 0 0 0 0 0 0 0 0 0 0 0 0 0 0 0 0 0 0 0 0 0 0 0 0 0 0 4 -5c0,0 0,0 0,0zm-1 -1l-5 5c0,0 0,0 0,0l0 0 0 0 0 0 0 0 0 0 0 0 1 0 0 0 0 0 0 0 0 0 0 0 0 0 0 0 0 0 4 -5c0,0 0,0 0,0zm-2 -1l-4 4 0 0 0 0 0 0 0 0 0 0 0 0 0 0 0 0 0 0 0 0 0 1 0 0 0 0 0 0 0 0 0 0 0 0 0 0 0 0 0 0 0 0 0 0 0 0 0 0 0 0 0 0 0 0 0 0 0 0 0 0 0 0 0 0 0 0 0 0 0 0 0 0 0 0 0 0 0 0 0 0 0 0 0 0 0 0 0 0 0 0 5 -5c0,0 0,0 -1,0zm-1 -2l-5 5 0 0 0 0 0 0 0 0 0 0 0 0 0 0 0 0 0 0 1 0 0 0 0 0 0 0 0 0 0 0 0 0 0 0 0 0 0 0 0 1 5 -5c0,0 0,0 -1,-1zm0 -1l-6 5c0,0 0,0 1,0l5 -4c0,0 0,-1 0,-1zm-1 -1l-6 4 0 0 0 0 0 0 0 0 0 0 0 0 0 0 0 0 0 0c0,0 0,0 0,1l6 -4c0,-1 0,-1 0,-1zm-1 -1l-6 3 0 0 0 0 0 0 0 0 0 0 0 0 0 0 0 0 0 0 0 0 0 0 0 1 0 0 0 0 0 0 0 0 0 0 0 0 0 0 0 0 0 0 0 0 0 0 0 0 0 0 0 0 0 0 0 0 0 0 0 0 0 0 0 0 0 0 0 0 0 0 0 0 6 -4c0,0 0,0 0,0zm-1 -1l-6 3 0 0 0 0 0 0 0 0 0 0 0 0 0 0 0 0 0 0 0 0 0 0 0 0 0 0 0 0 0 0 0 0 0 0 0 0 0 0 0 0 0 0 0 0 0 0 0 0 0 0 0 0 0 0 0 0 0 0 0 0 0 0 0 0 0 0 0 0 0 0 0 0 0 0 0 0 0 0 6 -3c0,0 0,0 0,0zm0 -2l-7 3c0,0 0,0 1,1l6 -3c0,0 0,-1 0,-1zm-1 -1l-6 2 0 0 0 0 0 0 0 0 0 0 0 0 0 0 0 0 0 0 0 0 0 0 0 0 0 0 0 0 0 0 0 0 0 0 0 0 0 1 0 0 0 0 6 -3c0,0 0,0 0,0zm0 -2l-7 2c0,0 0,0 0,1l0 0 0 0 0 0 0 0 0 0 0 0 0 0 7 -2c0,0 0,0 0,-1zm-1 -1l-6 1 0 0 0 0 0 0 0 0 0 0 0 1 0 0 0 0 0 0 0 0 0 0 0 0 0 0 0 0 0 0 0 0 0 0 0 0 0 0 0 0 0 0 0 0 0 0 0 0 0 0 0 0 6 -1c0,-1 0,-1 0,-1zm0 -2l-7 1 0 1 0 0 0 0 0 0 0 0 0 0 0 0 0 0 0 0 0 0 0 0 0 0 0 0 0 0 0 0 0 0 0 0 0 0 0 0 0 0 0 0 0 0 0 0 0 0 0 0 0 0 0 0 0 0 0 0 0 0 0 0 0 0 0 0 7 -1c0,0 0,0 0,-1zm0 -1l-7 0c0,1 0,1 0,1l0 0 0 0 0 0 0 0 0 0 0 0 0 0 0 0 0 0 0 0 0 0 0 0 0 0 0 0 0 0 0 0 0 0 0 0 0 0 0 0 0 0 0 0 0 0 0 0 0 0 0 0 0 0 0 0 0 0 0 0 0 0 0 0 7 0c0,-1 0,-1 0,-1zm0 -1l-7 0 0 0 0 0 0 0 0 0 0 0 0 0 0 0 0 0 0 0 0 0 0 0 0 0 0 0 0 0 0 0 0 0 7 0c0,0 0,0 0,0zm-7 -2l0 0 0 0 0 0 0 0 0 0 0 0 0 0 0 0 0 0 0 0 0 0 0 0 0 0 0 0 0 0 0 0 0 0 0 0 0 0 0 0 0 0 0 0 0 0 0 0 7 1c0,-1 0,-1 0,-1l-7 0zm0 -2c0,0 0,0 0,0l0 0 0 0 0 0 7 1c0,0 0,0 0,0l-7 -1zm1 -2c-1,0 -1,0 -1,0l0 0 0 0 0 0 0 0 0 0 0 0 0 0 0 0 0 0 0 0 0 0 0 0 0 0 0 0 0 0 0 0 0 0 0 0 0 0 0 0 0 0 0 0 0 0 0 0 0 0 0 1 0 0 0 0 7 1c0,-1 0,-1 0,-1l-6 -1zm0 -2l0 0 0 0 0 0 0 0 0 0 0 0 0 0 0 0 0 0 0 0 0 0 0 0 0 0 0 0 0 0 0 0 0 0 0 0 0 0 0 0 0 0 0 0 0 0 0 0 0 0 0 0 0 0 0 0 0 0 0 0 0 0 0 0 0 0 0 0 0 0 0 1 0 0 0 0 0 0 0 0 0 0 0 0 0 0 0 0 0 0 6 1c0,0 1,0 1,0l-7 -2zm1 -2c-1,0 -1,0 -1,1l0 0 0 0 0 0 0 0 7 2c0,0 0,-1 0,-1l-6 -2zm0 -2c0,0 0,1 0,1l6 2c0,0 0,0 0,0l-6 -3zm1 -2c0,1 0,1 0,1l6 3c0,0 0,0 0,-1l-6 -3zm1 -1l0 0 0 0 0 0 0 0 0 0 0 0 0 0 0 0 0 0 0 0 0 0 0 0 0 0 0 0 0 0 0 0 0 0 0 0 0 0 0 0 0 0 6 4c0,0 0,-1 0,-1l-6 -3zm1 -2c0,0 0,1 -1,1l6 3c0,0 0,0 1,0l-6 -4zm1 -1l0 0 0 0 0 0 0 0 0 0 0 0 0 0 0 0 0 0 0 0 0 0 0 0 5 4c0,0 0,0 0,0l-5 -4zm1 -2c0,0 0,0 0,1l5 4c0,0 0,0 0,0l-5 -5zm2 -1l-1 0 0 0 0 0 0 0 0 0 0 0 0 0 0 0 0 0 0 0 0 0 0 0 0 0 0 0 0 0 0 0 0 0 0 0 0 0 0 0 0 0 0 0 0 0 0 0 0 0 0 0 0 0 0 0 0 0 0 0 0 0 0 0 0 0 0 0 0 0 5 5c0,0 0,0 0,-1l-4 -4zm1 -2c0,0 0,1 -1,1l0 0 0 0 0 0 0 0 5 5c0,0 0,0 1,-1l-5 -5zm1 -1l0 0c0,0 0,0 0,1l4 5c0,0 1,0 1,-1l-5 -5zm2 -1c0,0 0,0 0,0l0 0 0 0 0 0 0 0 -1 0 0 0 0 0 0 0 0 0 0 0 0 0 0 0 4 6c1,0 1,0 1,0l-4 -6zm2 -1c0,0 -1,0 -1,0l0 0 0 0 0 0 0 0 0 0 0 0 0 0 0 0 0 0 0 0 0 0 0 0 0 0 4 6c0,0 0,0 0,0l-3 -6zm1 -1l0 0 0 0 0 0 0 0 0 0 0 0 0 0 0 0 0 0 0 0 0 0 0 0 0 0 0 0 0 0 0 0 0 0 0 0 0 0 0 0 0 0 3 6c0,0 0,0 0,0l-3 -6zm2 -1l0 0 0 0 0 0 0 0 0 0 0 0 0 0 0 0 0 0 0 0 0 0 0 0 0 0 0 0 0 0 0 0 0 0 0 0 0 0 0 0 0 0 0 0 0 0 0 0 0 0 -1 1 3 6c0,0 1,0 1,0l-3 -7zm2 0c0,0 -1,0 -1,0l3 6c0,0 0,0 0,0l-2 -6zm2 -1c0,0 0,0 -1,0l0 0 0 0 0 0 0 0 2 7c0,0 0,0 1,0l-2 -7zm2 0l-1 0 0 0 0 0 0 0 0 0 0 0 0 0 0 0 0 0c0,0 0,0 0,0l1 6c1,0 1,0 1,0l-1 -6zm2 -1c-1,0 -1,0 -1,0l0 0 0 0 0 0 0 0 0 0 0 0 0 0 0 0 0 0 1 7c0,0 0,0 1,0l-1 -7zm2 0l-1 0 0 0 0 0 0 0 0 0 0 0 0 0 0 0 0 0 0 0 0 0 0 0 0 0 0 0 0 7c1,0 1,0 1,0l0 -7zm1 0l0 0c0,0 0,0 0,0l0 0 0 0 0 0 0 0 0 7c0,0 0,0 0,0l0 -7z"/>
   <path class="fil4" d="M64 26c-16,0 -30,11 -35,25l4 0c5,-12 17,-21 31,-21 19,0 35,16 35,34 0,6 -2,12 -5,17l5 0c2,-5 4,-11 4,-17 0,-21 -18,-38 -39,-38zm27 59c-6,8 -16,14 -27,14 -18,0 -34,-16 -34,-35 0,-3 1,-6 2,-8l-5 0c0,2 -1,5 -1,8 0,21 17,39 38,39 14,0 25,-7 32,-18l-5 0z"/>
   <path class="fil1" d="M83 64c0,11 -8,19 -19,19 -10,0 -18,-8 -18,-19 0,-10 8,-18 18,-18 11,0 19,8 19,18z"/>
   <path class="fil0" d="M64 7c16,0 31,6 41,16 11,11 17,25 17,41l7 0c0,-35 -29,-64 -65,-64l0 7z"/>
   <path class="fil0" d="M64 122c-16,0 -30,-6 -41,-17 -10,-10 -16,-25 -16,-41l-7 0c0,36 29,65 64,65l0 -7z"/>
  </g>
 </g>
</svg>
