<?xml version="1.0" encoding="UTF-8"?>
<!DOCTYPE svg PUBLIC "-//W3C//DTD SVG 1.1//EN" "http://www.w3.org/Graphics/SVG/1.1/DTD/svg11.dtd">
<!-- Creator: CorelDRAW X7 -->
<svg xmlns="http://www.w3.org/2000/svg" xml:space="preserve" width="2300px" height="2300px" version="1.1" style="shape-rendering:geometricPrecision; text-rendering:geometricPrecision; image-rendering:optimizeQuality; fill-rule:evenodd; clip-rule:evenodd"
viewBox="0 0 1522 1522"
 xmlns:xlink="http://www.w3.org/1999/xlink">
 <defs>
  <style type="text/css">
   <![CDATA[
    .fil1 {fill:#252626;fill-rule:nonzero}
    .fil0 {fill:#767676;fill-rule:nonzero}
   ]]>
  </style>
 </defs>
 <g id="Vrstva_x0020_1">
  <metadata id="CorelCorpID_0Corel-Layer"/>
  <g id="_2610739844016">
   <path class="fil0" d="M775 1376c-8,0 -13,6 -13,13 0,7 6,13 13,13 0,0 0,0 0,0 7,0 13,-6 13,-13 0,-8 -6,-13 -13,-13 0,0 0,0 0,0z"/>
   <path class="fil0" d="M722 1375c-7,0 -13,5 -13,12 0,7 5,14 12,14 8,0 14,-5 14,-12 1,-8 -5,-14 -12,-14 0,0 0,0 -1,0z"/>
   <path class="fil0" d="M670 1369c-6,0 -12,5 -13,12 -1,7 4,13 11,15 7,1 14,-4 15,-12 1,-7 -4,-14 -11,-15 -1,0 -2,0 -2,0z"/>
   <path class="fil0" d="M827 1372c0,0 -1,0 -1,0 -7,1 -13,8 -12,15 1,7 8,12 15,12 7,-1 12,-8 12,-15 -1,-7 -7,-12 -14,-12z"/>
   <path class="fil0" d="M981 1336c-2,0 -4,0 -5,1 -7,3 -10,10 -8,17 3,7 10,10 17,8 7,-3 11,-10 8,-17 -2,-6 -7,-9 -12,-9z"/>
   <path class="fil0" d="M931 1352c-2,0 -3,1 -4,1 -7,2 -11,9 -9,16 2,7 9,11 16,9 7,-2 11,-9 9,-16 -1,-6 -7,-10 -12,-10z"/>
   <path class="fil0" d="M1029 1316c-2,0 -4,0 -6,1 -6,3 -9,11 -6,18 3,6 11,9 18,6 6,-3 9,-11 6,-18 -2,-5 -7,-7 -12,-7z"/>
   <path class="fil0" d="M475 215c7,-3 9,-11 6,-17 -2,-5 -7,-7 -12,-7 -2,0 -4,0 -6,1 -6,3 -9,11 -5,18 3,6 11,9 17,5z"/>
   <path class="fil0" d="M618 1360c-6,0 -11,4 -13,10 -1,7 3,14 10,16 7,1 14,-3 16,-10 2,-7 -3,-14 -10,-16 -1,0 -2,0 -3,0z"/>
   <path class="fil0" d="M522 193c7,-2 10,-10 7,-17 -2,-5 -7,-8 -12,-8 -2,0 -4,0 -5,1 0,0 0,0 0,0 -7,3 -10,11 -7,17 3,7 10,10 17,7z"/>
   <path class="fil0" d="M389 271c5,-5 7,-13 2,-19 -2,-3 -6,-5 -10,-5 -3,0 -6,1 -8,3 -6,4 -7,12 -3,18 4,6 13,7 19,3z"/>
   <path class="fil0" d="M424 217c-3,0 -5,1 -7,2 -6,4 -8,12 -4,18 4,6 12,8 18,4 6,-4 8,-12 4,-18 -3,-4 -7,-6 -11,-6z"/>
   <path class="fil0" d="M312 340c5,-6 5,-14 0,-19 -3,-2 -6,-4 -9,-4 -4,0 -8,2 -10,5 -5,5 -5,13 0,18 6,5 14,5 19,0z"/>
   <path class="fil0" d="M349 304c5,-5 6,-14 1,-19 -3,-3 -6,-5 -10,-5 -3,0 -6,2 -9,4 -5,5 -6,13 -1,19 5,5 14,5 19,1z"/>
   <path class="fil0" d="M279 379c4,-6 3,-14 -3,-19 -2,-2 -5,-3 -8,-3 -4,0 -8,2 -10,5 -5,6 -4,14 2,19 6,4 14,3 19,-2z"/>
   <path class="fil0" d="M277 1162c6,-4 7,-13 2,-18 -2,-4 -6,-5 -10,-5 -3,0 -6,1 -8,2 -6,5 -7,13 -2,19 4,6 12,7 18,2z"/>
   <path class="fil0" d="M620 162c7,-2 11,-9 10,-16 -2,-6 -7,-10 -13,-10 -1,0 -2,0 -3,0 0,0 0,0 0,0 -7,2 -12,9 -10,16 2,7 9,11 16,10z"/>
   <path class="fil0" d="M734 133c0,-7 -6,-13 -13,-13 0,0 -1,0 -1,0 -7,1 -13,7 -12,14 0,8 6,13 14,13 7,-1 13,-7 12,-14z"/>
   <path class="fil0" d="M774 119c0,0 0,0 -1,0 -7,0 -13,6 -13,13 0,7 6,13 13,14 7,0 13,-6 14,-13 0,-8 -6,-14 -13,-14z"/>
   <path class="fil0" d="M1040 197c3,-6 0,-14 -7,-17 -1,-1 -3,-2 -5,-2 -5,0 -10,3 -12,8 -3,7 0,15 6,18 7,3 15,0 18,-7z"/>
   <path class="fil0" d="M670 152c8,-1 13,-8 12,-15 -1,-7 -7,-11 -14,-11 0,0 -1,0 -1,0 -8,1 -13,8 -12,15 2,7 8,12 15,11z"/>
   <path class="fil0" d="M942 159c2,-7 -2,-15 -9,-17 -1,0 -3,0 -4,0 -6,0 -11,4 -13,10 -2,7 3,14 10,16 7,2 14,-2 16,-9z"/>
   <path class="fil0" d="M566 150c-1,0 -3,0 -4,0 -7,3 -11,10 -8,17 2,7 9,11 16,9 7,-3 11,-10 9,-17 -2,-6 -7,-9 -13,-9z"/>
   <path class="fil0" d="M984 159c-2,-1 -3,-1 -5,-1 -5,0 -10,3 -12,9 -3,7 1,14 8,17 6,2 14,-1 17,-8 2,-7 -1,-15 -8,-17z"/>
   <path class="fil0" d="M839 137c1,-7 -4,-14 -12,-15 0,0 -1,0 -1,0 -7,0 -13,5 -13,12 -1,7 4,14 12,15 7,1 13,-5 14,-12z"/>
   <path class="fil0" d="M891 146c1,-7 -3,-14 -11,-16 0,0 -1,0 -2,0 -6,0 -12,4 -13,11 -1,7 3,14 11,15 7,2 14,-3 15,-10z"/>
   <path class="fil0" d="M879 1365c0,0 -1,0 -2,0 -7,1 -12,8 -11,15 2,7 9,12 16,11 7,-2 12,-9 10,-16 -1,-6 -6,-10 -13,-10z"/>
   <path class="fil0" d="M192 1029c7,-3 10,-10 7,-17 -2,-5 -7,-8 -12,-8 -2,0 -4,1 -5,1 -7,3 -10,11 -7,18 3,6 11,9 17,6z"/>
   <path class="fil0" d="M245 1120c6,-4 8,-12 4,-18l0 0c-3,-4 -7,-6 -11,-6 -3,0 -5,1 -7,2 -6,4 -8,13 -4,19 4,6 12,7 18,3z"/>
   <path class="fil0" d="M248 420c4,-6 3,-14 -4,-18 -2,-2 -4,-2 -7,-2 -4,0 -8,2 -11,6 -4,6 -2,14 4,18 6,4 14,2 18,-4z"/>
   <path class="fil0" d="M143 880c8,-1 12,-8 11,-15 -1,-7 -6,-11 -13,-11 -1,0 -1,0 -2,0 -7,1 -12,8 -11,15 0,0 0,0 0,0 1,7 8,12 15,11z"/>
   <path class="fil0" d="M119 761c0,1 0,1 0,1 0,7 6,13 13,13 8,0 13,-6 13,-13 0,0 0,0 0,-1 0,0 0,0 0,0 0,-8 -5,-14 -13,-14 -7,0 -13,6 -13,14 0,0 0,0 0,0z"/>
   <path class="fil0" d="M128 654c-1,7 4,14 11,15 7,1 14,-4 15,-11 1,-7 -4,-14 -11,-15 -1,0 -1,0 -2,0 -6,0 -12,4 -13,11z"/>
   <path class="fil0" d="M121 707c0,7 5,14 12,14 8,1 14,-5 15,-12 0,-7 -5,-14 -12,-14 -1,0 -1,0 -2,0 -6,0 -12,5 -13,12z"/>
   <path class="fil0" d="M156 931c7,-2 11,-9 9,-16 -1,-6 -7,-10 -13,-10 -1,0 -2,0 -3,0 -7,2 -11,10 -10,17 2,7 9,11 17,9z"/>
   <path class="fil0" d="M163 566c7,3 14,-1 17,-8 2,-7 -2,-14 -9,-16 -1,-1 -2,-1 -4,-1 -5,0 -11,3 -12,9 0,0 0,0 0,0 -3,7 1,14 8,16z"/>
   <path class="fil0" d="M172 981c7,-2 10,-10 8,-17 -2,-5 -7,-9 -12,-9 -2,0 -3,1 -5,1 -7,3 -10,10 -8,17 2,7 10,10 17,8z"/>
   <path class="fil0" d="M149 617c7,2 14,-2 16,-9 2,-7 -3,-15 -10,-16 -1,-1 -2,-1 -3,-1 -6,0 -11,4 -13,10 0,0 0,0 0,0 -2,7 3,14 10,16z"/>
   <path class="fil0" d="M192 493c-2,-1 -4,-1 -5,-1 -6,0 -10,3 -13,8 -3,6 0,14 7,17 7,3 15,0 17,-7 4,-6 0,-14 -6,-17z"/>
   <path class="fil0" d="M203 469c7,4 15,2 18,-5 4,-6 2,-14 -5,-18 -2,-1 -4,-1 -6,-1 -5,0 -9,2 -12,7 -3,6 -1,14 5,17z"/>
   <path class="fil0" d="M294 1201c5,5 13,5 18,0 6,-5 6,-13 1,-18 -3,-3 -6,-5 -10,-5 -3,0 -6,2 -9,4 -5,5 -5,13 0,19 0,0 0,0 0,0z"/>
   <path class="fil0" d="M331 1219c-5,6 -4,14 1,19 6,5 14,5 19,-1 5,-5 4,-14 -1,-18 -3,-3 -6,-4 -9,-4 -4,0 -7,2 -10,4z"/>
   <path class="fil0" d="M136 828c7,-1 12,-7 12,-14 -1,-7 -7,-13 -13,-13 -1,0 -1,0 -2,0 -7,1 -12,7 -12,15 1,7 7,12 15,12z"/>
   <path class="fil0" d="M432 1281c-2,-2 -5,-2 -7,-2 -4,0 -9,2 -11,6 -4,6 -2,14 4,18 6,4 14,2 18,-4 4,-6 2,-14 -4,-18l0 0z"/>
   <path class="fil0" d="M518 1327c-5,0 -10,3 -12,8 -3,7 0,15 7,18 7,2 15,-1 17,-7 3,-7 0,-15 -7,-18 -1,0 -3,-1 -5,-1z"/>
   <path class="fil0" d="M568 1346c-6,0 -11,3 -13,9 -2,7 2,14 8,16 7,3 15,-1 17,-8 2,-7 -1,-15 -8,-17 -2,0 -3,0 -4,0z"/>
   <path class="fil0" d="M471 1305c-5,0 -10,2 -12,7 -4,6 -1,14 5,18 7,3 15,1 18,-6 4,-6 1,-14 -5,-18 -2,-1 -4,-1 -6,-1z"/>
   <path class="fil0" d="M382 1249c-4,0 -8,1 -11,5 -4,6 -3,14 3,18 6,5 14,4 18,-2 5,-6 3,-14 -2,-19 -3,-1 -6,-2 -8,-2z"/>
   <path class="fil0" d="M217 1076c6,-3 9,-12 5,-18 -2,-4 -7,-7 -11,-7 -3,0 -5,1 -7,2 -6,3 -9,11 -5,18 4,6 12,9 18,5z"/>
   <path class="fil1" d="M235 1310l48 -51c-137,-132 -213,-309 -213,-498 0,-381 310,-691 691,-691 189,0 366,76 498,213l51 -48c-145,-152 -340,-235 -549,-235 -420,0 -761,341 -761,761 0,209 83,404 235,549z"/>
   <path class="fil0" d="M756 1495c-169,0 -334,-59 -465,-166l-17 21c136,111 307,172 482,172 422,0 766,-344 766,-766 0,-175 -61,-346 -172,-482l-21 17c107,131 166,296 166,465 0,408 -331,739 -739,739z"/>
   <path class="fil0" d="M299 778l250 0 0 125 35 0 0 -125 155 0 0 225 44 0 0 -225 154 0 0 131 35 0 0 -131 250 0c-1,20 -3,41 -6,61l34 6c5,-28 8,-57 8,-84 0,-28 -3,-56 -8,-85l-34 6c3,21 5,41 6,61l-250 0 0 -125 -35 0 0 125 -154 0 0 -225 -44 0 0 225 -155 0 0 -130 -35 0 0 130 -250 0c1,-20 3,-40 7,-61l-35 -6c-5,29 -7,57 -7,85 0,27 2,56 7,84l35 -6c-4,-20 -6,-41 -7,-61z"/>
   <path class="fil0" d="M450 1068l-18 19c27,28 58,52 92,72l14 -23c-32,-19 -62,-42 -88,-68z"/>
   <path class="fil0" d="M740 1197c-58,-3 -114,-17 -167,-42l-11 24c55,27 115,42 177,44l1 -26z"/>
   <path class="fil0" d="M948 1155c-53,25 -109,39 -167,42l1 26c62,-2 122,-17 177,-44l-11 -24z"/>
   <path class="fil0" d="M1071 1068c-26,26 -56,49 -87,68l13 23c34,-20 65,-44 93,-72l-19 -19z"/>
   <path class="fil0" d="M984 385c31,19 61,42 87,68l19 -18c-28,-28 -59,-53 -93,-73l-13 23z"/>
   <path class="fil0" d="M781 324c58,3 115,17 167,42l12 -24c-56,-27 -116,-41 -178,-44l-1 26z"/>
   <path class="fil0" d="M573 366c53,-25 109,-39 168,-42l-1 -26c-63,3 -122,17 -178,44l11 24z"/>
   <path class="fil0" d="M450 453c26,-26 56,-49 88,-68l-14 -23c-34,20 -65,45 -92,73l18 18z"/>
  </g>
 </g>
</svg>
