<?xml version="1.0" encoding="UTF-8"?>
<!DOCTYPE svg PUBLIC "-//W3C//DTD SVG 1.1//EN" "http://www.w3.org/Graphics/SVG/1.1/DTD/svg11.dtd">
<!-- Creator: CorelDRAW X7 -->
<svg xmlns="http://www.w3.org/2000/svg" xml:space="preserve" width="2300px" height="2300px" version="1.1" style="shape-rendering:geometricPrecision; text-rendering:geometricPrecision; image-rendering:optimizeQuality; fill-rule:evenodd; clip-rule:evenodd"
viewBox="0 0 1522 1522"
 xmlns:xlink="http://www.w3.org/1999/xlink">
 <defs>
  <style type="text/css">
   <![CDATA[
    .fil83 {fill:url(#id0)}
    .fil11 {fill:url(#id1)}
    .fil13 {fill:url(#id2)}
    .fil12 {fill:url(#id3)}
    .fil20 {fill:url(#id4)}
    .fil21 {fill:url(#id5)}
    .fil25 {fill:url(#id6)}
    .fil78 {fill:url(#id7)}
    .fil72 {fill:url(#id8)}
    .fil5 {fill:url(#id9)}
    .fil2 {fill:url(#id10)}
    .fil54 {fill:url(#id11)}
    .fil75 {fill:url(#id12)}
    .fil67 {fill:url(#id13)}
    .fil31 {fill:url(#id14)}
    .fil9 {fill:url(#id15)}
    .fil0 {fill:url(#id16)}
    .fil24 {fill:url(#id17)}
    .fil8 {fill:url(#id18)}
    .fil39 {fill:url(#id19)}
    .fil44 {fill:url(#id20)}
    .fil18 {fill:url(#id21)}
    .fil16 {fill:url(#id22)}
    .fil6 {fill:url(#id23)}
    .fil37 {fill:url(#id24)}
    .fil23 {fill:url(#id25)}
    .fil26 {fill:url(#id26)}
    .fil14 {fill:url(#id27)}
    .fil38 {fill:url(#id28)}
    .fil41 {fill:url(#id29)}
    .fil1 {fill:url(#id30)}
    .fil82 {fill:url(#id31)}
    .fil81 {fill:url(#id32)}
    .fil7 {fill:url(#id33)}
    .fil35 {fill:url(#id34)}
    .fil74 {fill:url(#id35)}
    .fil33 {fill:url(#id36)}
    .fil50 {fill:url(#id37)}
    .fil51 {fill:url(#id38)}
    .fil53 {fill:url(#id39)}
    .fil36 {fill:url(#id40)}
    .fil80 {fill:url(#id41)}
    .fil79 {fill:url(#id42)}
    .fil55 {fill:url(#id43)}
    .fil64 {fill:url(#id44)}
    .fil15 {fill:url(#id45)}
    .fil34 {fill:url(#id46)}
    .fil71 {fill:url(#id47)}
    .fil45 {fill:url(#id48)}
    .fil73 {fill:url(#id49)}
    .fil32 {fill:url(#id50)}
    .fil27 {fill:url(#id51)}
    .fil47 {fill:url(#id52)}
    .fil52 {fill:url(#id53)}
    .fil49 {fill:url(#id54)}
    .fil22 {fill:url(#id55)}
    .fil42 {fill:url(#id56)}
    .fil30 {fill:url(#id57)}
    .fil57 {fill:url(#id58)}
    .fil68 {fill:url(#id59)}
    .fil28 {fill:url(#id60)}
    .fil58 {fill:url(#id61)}
    .fil40 {fill:url(#id62)}
    .fil77 {fill:url(#id63)}
    .fil48 {fill:url(#id64)}
    .fil19 {fill:url(#id65)}
    .fil56 {fill:url(#id66)}
    .fil43 {fill:url(#id67)}
    .fil3 {fill:url(#id68)}
    .fil4 {fill:url(#id69)}
    .fil62 {fill:url(#id70)}
    .fil69 {fill:url(#id71)}
    .fil17 {fill:url(#id72)}
    .fil46 {fill:url(#id73)}
    .fil76 {fill:url(#id74)}
    .fil65 {fill:url(#id75)}
    .fil61 {fill:url(#id76)}
    .fil70 {fill:url(#id77)}
    .fil10 {fill:url(#id78)}
    .fil59 {fill:url(#id79)}
    .fil63 {fill:url(#id80)}
    .fil66 {fill:url(#id81)}
    .fil29 {fill:url(#id82)}
    .fil60 {fill:url(#id83)}
   ]]>
  </style>
  <linearGradient id="id0" gradientUnits="userSpaceOnUse" x1="-0" y1="345.404" x2="690.786" y2="345.404">
   <stop offset="0" style="stop-opacity:1; stop-color:#525252"/>
   <stop offset="1" style="stop-opacity:1; stop-color:#939393"/>
  </linearGradient>
  <linearGradient id="id1" gradientUnits="userSpaceOnUse" xlink:href="#id0" x1="715.649" y1="760.879" x2="806.084" y2="760.879">
  </linearGradient>
  <linearGradient id="id2" gradientUnits="userSpaceOnUse" xlink:href="#id0" x1="751.816" y1="515.226" x2="769.905" y2="515.226">
  </linearGradient>
  <linearGradient id="id3" gradientUnits="userSpaceOnUse" xlink:href="#id0" x1="751.816" y1="1006.53" x2="769.905" y2="1006.53">
  </linearGradient>
  <linearGradient id="id4" gradientUnits="userSpaceOnUse" xlink:href="#id0" x1="753.606" y1="322.004" x2="760.965" y2="322.004">
  </linearGradient>
  <linearGradient id="id5" gradientUnits="userSpaceOnUse" xlink:href="#id0" x1="728.862" y1="322.431" x2="737.334" y2="322.431">
  </linearGradient>
  <linearGradient id="id6" gradientUnits="userSpaceOnUse" xlink:href="#id0" x1="635.209" y1="337.483" x2="640.347" y2="337.483">
  </linearGradient>
  <linearGradient id="id7" gradientUnits="userSpaceOnUse" xlink:href="#id0" x1="768.408" y1="1199.46" x2="776.762" y2="1199.46">
  </linearGradient>
  <linearGradient id="id8" gradientUnits="userSpaceOnUse" xlink:href="#id0" x1="626.941" y1="1181.92" x2="631.943" y2="1181.92">
  </linearGradient>
  <linearGradient id="id9" gradientUnits="userSpaceOnUse" xlink:href="#id0" x1="1138.88" y1="401.352" x2="1138.88" y2="364.4">
  </linearGradient>
  <linearGradient id="id10" gradientUnits="userSpaceOnUse" xlink:href="#id0" x1="1138.88" y1="1163.5" x2="1138.88" y2="1114.24">
  </linearGradient>
  <linearGradient id="id11" gradientUnits="userSpaceOnUse" xlink:href="#id0" x1="331.733" y1="887.725" x2="334.955" y2="887.725">
  </linearGradient>
  <linearGradient id="id12" gradientUnits="userSpaceOnUse" xlink:href="#id0" x1="696.65" y1="1196.54" x2="703.974" y2="1196.54">
  </linearGradient>
  <linearGradient id="id13" gradientUnits="userSpaceOnUse" xlink:href="#id0" x1="517.637" y1="1132.38" x2="521.738" y2="1132.38">
  </linearGradient>
  <linearGradient id="id14" gradientUnits="userSpaceOnUse" xlink:href="#id0" x1="504.629" y1="398.039" x2="508.865" y2="398.039">
  </linearGradient>
  <linearGradient id="id15" gradientUnits="userSpaceOnUse" xlink:href="#id0" x1="760.865" y1="777.875" x2="760.865" y2="743.871">
  </linearGradient>
  <linearGradient id="id16" gradientUnits="userSpaceOnUse" xlink:href="#id0" x1="382.849" y1="1163.5" x2="382.849" y2="1114.24">
  </linearGradient>
  <linearGradient id="id17" gradientUnits="userSpaceOnUse" xlink:href="#id0" x1="658.428" y1="331.732" x2="664.105" y2="331.732">
  </linearGradient>
  <linearGradient id="id18" gradientUnits="userSpaceOnUse" xlink:href="#id0" x1="568.711" y1="969.104" x2="568.711" y2="936.91">
  </linearGradient>
  <linearGradient id="id19" gradientUnits="userSpaceOnUse" xlink:href="#id0" x1="373.65" y1="537.879" x2="377.335" y2="537.879">
  </linearGradient>
  <linearGradient id="id20" gradientUnits="userSpaceOnUse" xlink:href="#id0" x1="327.571" y1="649.075" x2="330.8" y2="649.075">
  </linearGradient>
  <linearGradient id="id21" gradientUnits="userSpaceOnUse" xlink:href="#id0" x1="578.604" y1="587.175" x2="595.712" y2="587.175">
  </linearGradient>
  <linearGradient id="id22" gradientUnits="userSpaceOnUse" xlink:href="#id0" x1="578.604" y1="934.566" x2="595.712" y2="934.566">
  </linearGradient>
  <linearGradient id="id23" gradientUnits="userSpaceOnUse" xlink:href="#id0" x1="382.846" y1="401.352" x2="382.846" y2="364.4">
  </linearGradient>
  <linearGradient id="id24" gradientUnits="userSpaceOnUse" xlink:href="#id0" x1="400.551" y1="497.681" x2="404.083" y2="497.681">
  </linearGradient>
  <linearGradient id="id25" gradientUnits="userSpaceOnUse" xlink:href="#id0" x1="681.679" y1="327.292" x2="688.328" y2="327.292">
  </linearGradient>
  <linearGradient id="id26" gradientUnits="userSpaceOnUse" xlink:href="#id0" x1="612.164" y1="344.516" x2="617.169" y2="344.516">
  </linearGradient>
  <linearGradient id="id27" gradientUnits="userSpaceOnUse" xlink:href="#id0" x1="507.01" y1="760.873" x2="523.406" y2="760.873">
  </linearGradient>
  <linearGradient id="id28" gradientUnits="userSpaceOnUse" xlink:href="#id0" x1="386.549" y1="517.42" x2="390.162" y2="517.42">
  </linearGradient>
  <linearGradient id="id29" gradientUnits="userSpaceOnUse" xlink:href="#id0" x1="351.69" y1="580.783" x2="354.853" y2="580.783">
  </linearGradient>
  <linearGradient id="id30" gradientUnits="userSpaceOnUse" xlink:href="#id0" x1="345.393" y1="1203.98" x2="345.393" y2="1148.71">
  </linearGradient>
  <linearGradient id="id31" gradientUnits="userSpaceOnUse" xlink:href="#id0" x1="145.142" y1="839.974" x2="152.077" y2="839.974">
  </linearGradient>
  <linearGradient id="id32" gradientUnits="userSpaceOnUse" xlink:href="#id0" x1="145.142" y1="681.742" x2="152.077" y2="681.742">
  </linearGradient>
  <linearGradient id="id33" gradientUnits="userSpaceOnUse" xlink:href="#id0" x1="760.863" y1="795.325" x2="760.863" y2="726.421">
  </linearGradient>
  <linearGradient id="id34" gradientUnits="userSpaceOnUse" xlink:href="#id0" x1="431.478" y1="460.718" x2="435.367" y2="460.718">
  </linearGradient>
  <linearGradient id="id35" gradientUnits="userSpaceOnUse" xlink:href="#id0" x1="673.417" y1="1193" x2="679.649" y2="1193">
  </linearGradient>
  <linearGradient id="id36" gradientUnits="userSpaceOnUse" xlink:href="#id0" x1="466.523" y1="427.389" x2="470.14" y2="427.389">
  </linearGradient>
  <linearGradient id="id37" gradientUnits="userSpaceOnUse" xlink:href="#id0" x1="314.208" y1="792.885" x2="317.399" y2="792.885">
  </linearGradient>
  <linearGradient id="id38" gradientUnits="userSpaceOnUse" xlink:href="#id0" x1="316.598" y1="816.918" x2="319.813" y2="816.918">
  </linearGradient>
  <linearGradient id="id39" gradientUnits="userSpaceOnUse" xlink:href="#id0" x1="325.368" y1="864.375" x2="328.595" y2="864.375">
  </linearGradient>
  <linearGradient id="id40" gradientUnits="userSpaceOnUse" xlink:href="#id0" x1="415.634" y1="478.802" x2="419.072" y2="478.802">
  </linearGradient>
  <linearGradient id="id41" gradientUnits="userSpaceOnUse" xlink:href="#id0" x1="1365.88" y1="839.974" x2="1372.82" y2="839.974">
  </linearGradient>
  <linearGradient id="id42" gradientUnits="userSpaceOnUse" xlink:href="#id0" x1="1365.88" y1="681.742" x2="1372.82" y2="681.742">
  </linearGradient>
  <linearGradient id="id43" gradientUnits="userSpaceOnUse" xlink:href="#id0" x1="339.354" y1="910.611" x2="342.556" y2="910.611">
  </linearGradient>
  <linearGradient id="id44" gradientUnits="userSpaceOnUse" xlink:href="#id0" x1="459.978" y1="1088.8" x2="463.651" y2="1088.8">
  </linearGradient>
  <linearGradient id="id45" gradientUnits="userSpaceOnUse" xlink:href="#id0" x1="998.321" y1="760.873" x2="1014.72" y2="760.873">
  </linearGradient>
  <linearGradient id="id46" gradientUnits="userSpaceOnUse" xlink:href="#id0" x1="448.553" y1="443.555" x2="452.312" y2="443.555">
  </linearGradient>
  <linearGradient id="id47" gradientUnits="userSpaceOnUse" xlink:href="#id0" x1="604.118" y1="1174.52" x2="608.925" y2="1174.52">
  </linearGradient>
  <linearGradient id="id48" gradientUnits="userSpaceOnUse" xlink:href="#id0" x1="322.072" y1="672.622" x2="325.3" y2="672.622">
  </linearGradient>
  <linearGradient id="id49" gradientUnits="userSpaceOnUse" xlink:href="#id0" x1="650.067" y1="1188.13" x2="655.691" y2="1188.13">
  </linearGradient>
  <linearGradient id="id50" gradientUnits="userSpaceOnUse" xlink:href="#id0" x1="485.158" y1="412.173" x2="489.115" y2="412.173">
  </linearGradient>
  <linearGradient id="id51" gradientUnits="userSpaceOnUse" xlink:href="#id0" x1="589.625" y1="352.818" x2="594.352" y2="352.818">
  </linearGradient>
  <linearGradient id="id52" gradientUnits="userSpaceOnUse" xlink:href="#id0" x1="314.996" y1="720.394" x2="318.198" y2="720.394">
  </linearGradient>
  <linearGradient id="id53" gradientUnits="userSpaceOnUse" xlink:href="#id0" x1="320.32" y1="840.746" x2="323.545" y2="840.746">
  </linearGradient>
  <linearGradient id="id54" gradientUnits="userSpaceOnUse" xlink:href="#id0" x1="313.16" y1="768.713" x2="316.322" y2="768.713">
  </linearGradient>
  <linearGradient id="id55" gradientUnits="userSpaceOnUse" xlink:href="#id0" x1="704.861" y1="324.203" x2="713.007" y2="324.203">
  </linearGradient>
  <linearGradient id="id56" gradientUnits="userSpaceOnUse" xlink:href="#id0" x1="342.382" y1="603.103" x2="345.576" y2="603.103">
  </linearGradient>
  <linearGradient id="id57" gradientUnits="userSpaceOnUse" xlink:href="#id0" x1="525.111" y1="384.969" x2="529.126" y2="384.969">
  </linearGradient>
  <linearGradient id="id58" gradientUnits="userSpaceOnUse" xlink:href="#id0" x1="358.374" y1="955.039" x2="361.511" y2="955.039">
  </linearGradient>
  <linearGradient id="id59" gradientUnits="userSpaceOnUse" xlink:href="#id0" x1="538.3" y1="1144.68" x2="542.595" y2="1144.68">
  </linearGradient>
  <linearGradient id="id60" gradientUnits="userSpaceOnUse" xlink:href="#id0" x1="567.637" y1="362.306" x2="571.952" y2="362.306">
  </linearGradient>
  <linearGradient id="id61" gradientUnits="userSpaceOnUse" xlink:href="#id0" x1="369.425" y1="976.437" x2="373.133" y2="976.437">
  </linearGradient>
  <linearGradient id="id62" gradientUnits="userSpaceOnUse" xlink:href="#id0" x1="362.218" y1="559.045" x2="365.338" y2="559.045">
  </linearGradient>
  <linearGradient id="id63" gradientUnits="userSpaceOnUse" xlink:href="#id0" x1="744.748" y1="1199.81" x2="752.213" y2="1199.81">
  </linearGradient>
  <linearGradient id="id64" gradientUnits="userSpaceOnUse" xlink:href="#id0" x1="313.422" y1="744.51" x2="316.598" y2="744.51">
  </linearGradient>
  <linearGradient id="id65" gradientUnits="userSpaceOnUse" xlink:href="#id0" x1="1072.03" y1="955.621" x2="1102.69" y2="955.621">
  </linearGradient>
  <linearGradient id="id66" gradientUnits="userSpaceOnUse" xlink:href="#id0" x1="348.262" y1="933.093" x2="351.437" y2="933.093">
  </linearGradient>
  <linearGradient id="id67" gradientUnits="userSpaceOnUse" xlink:href="#id0" x1="334.336" y1="625.877" x2="337.551" y2="625.877">
  </linearGradient>
  <linearGradient id="id68" gradientUnits="userSpaceOnUse" xlink:href="#id0" x1="1176.34" y1="1203.98" x2="1176.34" y2="1148.71">
  </linearGradient>
  <linearGradient id="id69" gradientUnits="userSpaceOnUse" xlink:href="#id0" x1="1176.34" y1="366.129" x2="1176.34" y2="324.68">
  </linearGradient>
  <linearGradient id="id70" gradientUnits="userSpaceOnUse" xlink:href="#id0" x1="425.623" y1="1054.76" x2="429.561" y2="1054.76">
  </linearGradient>
  <linearGradient id="id71" gradientUnits="userSpaceOnUse" xlink:href="#id0" x1="559.681" y1="1155.84" x2="564.102" y2="1155.84">
  </linearGradient>
  <linearGradient id="id72" gradientUnits="userSpaceOnUse" xlink:href="#id0" x1="1067.53" y1="560.935" x2="1096.95" y2="560.935">
  </linearGradient>
  <linearGradient id="id73" gradientUnits="userSpaceOnUse" xlink:href="#id0" x1="317.889" y1="696.42" x2="321.11" y2="696.42">
  </linearGradient>
  <linearGradient id="id74" gradientUnits="userSpaceOnUse" xlink:href="#id0" x1="719.729" y1="1198.83" x2="728.908" y2="1198.83">
  </linearGradient>
  <linearGradient id="id75" gradientUnits="userSpaceOnUse" xlink:href="#id0" x1="478.247" y1="1104.34" x2="482.273" y2="1104.34">
  </linearGradient>
  <linearGradient id="id76" gradientUnits="userSpaceOnUse" xlink:href="#id0" x1="410.167" y1="1036.31" x2="413.64" y2="1036.31">
  </linearGradient>
  <linearGradient id="id77" gradientUnits="userSpaceOnUse" xlink:href="#id0" x1="581.665" y1="1165.79" x2="586.145" y2="1165.79">
  </linearGradient>
  <linearGradient id="id78" gradientUnits="userSpaceOnUse" xlink:href="#id0" x1="760.866" y1="768.83" x2="760.866" y2="752.916">
  </linearGradient>
  <linearGradient id="id79" gradientUnits="userSpaceOnUse" xlink:href="#id0" x1="381.893" y1="997.142" x2="385.535" y2="997.142">
  </linearGradient>
  <linearGradient id="id80" gradientUnits="userSpaceOnUse" xlink:href="#id0" x1="442.318" y1="1072.24" x2="446.129" y2="1072.24">
  </linearGradient>
  <linearGradient id="id81" gradientUnits="userSpaceOnUse" xlink:href="#id0" x1="497.664" y1="1118.9" x2="501.505" y2="1118.9">
  </linearGradient>
  <linearGradient id="id82" gradientUnits="userSpaceOnUse" xlink:href="#id0" x1="545.96" y1="373.094" x2="550.157" y2="373.094">
  </linearGradient>
  <linearGradient id="id83" gradientUnits="userSpaceOnUse" xlink:href="#id0" x1="395.464" y1="1017.09" x2="399.029" y2="1017.09">
  </linearGradient>
 </defs>
 <g id="Vrstva_x0020_1">
  <metadata id="CorelCorpID_0Corel-Layer"/>
  <g id="_2646838370608">
   <path class="fil0" d="M691 1447l0 -57c-294,-32 -527,-265 -559,-559l-57 0c33,324 291,583 616,616z"/>
   <path class="fil1" d="M57 831l-57 0c33,366 325,657 691,691l0 -57c-335,-33 -601,-300 -634,-634z"/>
   <path class="fil2" d="M1447 831l-57 0c-32,294 -265,527 -559,559l0 57c324,-33 583,-292 616,-616z"/>
   <path class="fil3" d="M1465 831c-33,334 -300,601 -634,634l0 57c366,-34 657,-325 691,-691l-57 0z"/>
   <path class="fil4" d="M1465 691l57 0c-34,-366 -325,-658 -691,-691l0 57c334,33 601,299 634,634z"/>
   <path class="fil5" d="M831 75l0 57c294,32 527,265 559,559l57 0c-33,-325 -292,-583 -616,-616z"/>
   <path class="fil6" d="M691 132l0 -57c-325,33 -583,291 -616,616l57 0c32,-294 265,-527 559,-559z"/>
   <path class="fil7" d="M761 205c-307,0 -556,249 -556,556 0,307 249,556 556,556 307,0 556,-249 556,-556 0,-307 -249,-556 -556,-556zm0 1130c-317,0 -574,-258 -574,-574 0,-317 257,-574 574,-574 316,0 574,257 574,574 0,316 -258,574 -574,574z"/>
   <path class="fil8" d="M761 1154c-217,0 -393,-176 -393,-393 0,-5 4,-9 9,-9 5,0 9,4 9,9 0,207 168,375 375,375 5,0 9,4 9,9 0,5 -4,9 -9,9z"/>
   <path class="fil9" d="M761 566c-107,0 -195,88 -195,195 0,107 88,194 195,194 107,0 194,-87 194,-194 0,-107 -87,-195 -194,-195zm0 407c-117,0 -213,-95 -213,-212 0,-117 96,-213 213,-213 117,0 212,96 212,213 0,117 -95,212 -212,212z"/>
   <path class="fil10" d="M761 679c-45,0 -82,37 -82,82 0,45 37,81 82,81 45,0 81,-36 81,-81 0,-45 -36,-82 -81,-82zm0 181c-55,0 -100,-44 -100,-99 0,-55 45,-100 100,-100 55,0 99,45 99,100 0,55 -44,99 -99,99z"/>
   <path class="fil11" d="M806 761c0,25 -20,45 -45,45 -25,0 -45,-20 -45,-45 0,-25 20,-45 45,-45 25,0 45,20 45,45z"/>
   <path class="fil12" d="M761 1058c-5,0 -9,-4 -9,-9l0 -85c0,-5 4,-9 9,-9 5,0 9,4 9,9l0 85c0,5 -4,9 -9,9z"/>
   <path class="fil13" d="M761 566c-5,0 -9,-4 -9,-9l0 -84c0,-5 4,-9 9,-9 5,0 9,4 9,9l0 84c0,5 -4,9 -9,9z"/>
   <path class="fil14" d="M557 770l-84 0c-5,0 -9,-4 -9,-9 0,-5 4,-9 9,-9l84 0c5,0 9,4 9,9 0,5 -4,9 -9,9z"/>
   <path class="fil15" d="M1049 770l-85 0c-5,0 -9,-4 -9,-9 0,-5 4,-9 9,-9l85 0c5,0 9,4 9,9 0,5 -4,9 -9,9z"/>
   <path class="fil16" d="M557 973c-2,0 -4,0 -6,-2 -4,-4 -4,-9 0,-13l60 -60c3,-3 9,-3 12,0 4,4 4,10 0,13l-59 60c-2,2 -4,2 -7,2z"/>
   <polygon class="fil17" points="911,623 898,611 1011,498 1266,498 1266,517 1018,517 "/>
   <path class="fil18" d="M617 626c-2,0 -5,-1 -6,-3l-60 -59c-4,-4 -4,-10 0,-13 3,-4 9,-4 13,0l59 60c4,3 4,9 0,12 -1,2 -4,3 -6,3z"/>
   <path class="fil19" d="M1270 1016l-267 0 -105 -105c-3,-3 -3,-9 0,-13 4,-3 10,-3 13,0l99 99 260 0c5,0 9,5 9,10 0,5 -4,9 -9,9z"/>
   <polygon class="fil20" points="761,306 761,338 754,338 754,306 "/>
   <polygon class="fil21" points="736,307 737,338 730,338 729,307 "/>
   <polygon class="fil22" points="711,308 714,340 707,340 704,309 "/>
   <polygon class="fil23" points="686,311 691,342 684,343 679,312 "/>
   <polygon class="fil24" points="661,316 668,346 661,348 655,317 "/>
   <polygon class="fil25" points="637,321 645,352 639,354 630,323 "/>
   <polygon class="fil26" points="613,328 623,358 616,361 606,331 "/>
   <polygon class="fil27" points="589,337 601,366 595,369 583,339 "/>
   <polygon class="fil28" points="566,347 580,375 573,378 560,350 "/>
   <polygon class="fil29" points="544,358 559,385 552,389 538,361 "/>
   <polygon class="fil30" points="522,370 538,397 532,400 516,373 "/>
   <polygon class="fil31" points="501,383 519,409 513,413 495,387 "/>
   <polygon class="fil32" points="480,398 499,423 494,427 475,402 "/>
   <polygon class="fil33" points="461,413 481,437 476,442 455,418 "/>
   <polygon class="fil34" points="442,430 464,453 459,457 437,435 "/>
   <polygon class="fil35" points="424,447 447,469 442,474 420,453 "/>
   <polygon class="fil36" points="408,466 432,486 427,492 403,471 "/>
   <polygon class="fil37" points="392,485 417,504 413,510 388,491 "/>
   <polygon class="fil38" points="377,506 403,523 400,529 373,512 "/>
   <polygon class="fil39" points="364,527 391,543 387,549 360,533 "/>
   <polygon class="fil40" points="351,549 379,563 376,569 348,555 "/>
   <polygon class="fil41" points="340,571 369,584 366,590 337,578 "/>
   <polygon class="fil42" points="331,594 360,605 357,612 328,601 "/>
   <polygon class="fil43" points="322,618 352,627 350,634 320,624 "/>
   <polygon class="fil44" points="315,642 345,650 344,656 313,648 "/>
   <polygon class="fil45" points="309,666 340,672 338,679 308,673 "/>
   <polygon class="fil46" points="304,691 336,695 335,702 303,698 "/>
   <polygon class="fil47" points="301,715 333,718 332,725 301,722 "/>
   <polygon class="fil48" points="299,740 331,742 331,749 299,747 "/>
   <polygon class="fil49" points="299,765 330,765 331,772 299,773 "/>
   <polygon class="fil50" points="300,790 331,788 332,795 300,798 "/>
   <polygon class="fil51" points="302,815 333,811 334,818 303,822 "/>
   <polygon class="fil52" points="306,840 337,834 338,841 307,847 "/>
   <polygon class="fil53" points="311,865 341,857 343,864 312,872 "/>
   <polygon class="fil54" points="317,889 347,880 349,887 319,896 "/>
   <polygon class="fil55" points="325,913 355,902 357,909 327,919 "/>
   <polygon class="fil56" points="334,936 363,924 366,930 337,943 "/>
   <polygon class="fil57" points="344,959 373,945 376,951 347,965 "/>
   <polygon class="fil58" points="356,981 383,966 387,972 359,987 "/>
   <polygon class="fil59" points="369,1003 395,986 399,992 372,1009 "/>
   <polygon class="fil60" points="382,1023 408,1005 412,1011 387,1029 "/>
   <polygon class="fil61" points="397,1043 422,1024 426,1029 402,1049 "/>
   <polygon class="fil62" points="414,1063 437,1042 442,1047 418,1068 "/>
   <polygon class="fil63" points="431,1081 453,1059 458,1064 436,1086 "/>
   <polygon class="fil64" points="449,1098 470,1075 475,1079 454,1103 "/>
   <polygon class="fil65" points="468,1114 487,1090 493,1094 473,1119 "/>
   <polygon class="fil66" points="488,1130 506,1104 512,1108 493,1134 "/>
   <polygon class="fil67" points="508,1144 525,1117 531,1121 514,1148 "/>
   <polygon class="fil68" points="530,1157 545,1129 551,1133 536,1160 "/>
   <polygon class="fil69" points="552,1168 566,1140 572,1143 558,1172 "/>
   <polygon class="fil70" points="575,1179 587,1150 593,1153 581,1182 "/>
   <polygon class="fil71" points="598,1188 608,1158 615,1161 605,1191 "/>
   <polygon class="fil72" points="622,1196 630,1166 637,1168 628,1198 "/>
   <polygon class="fil73" points="646,1203 653,1172 660,1174 653,1204 "/>
   <polygon class="fil74" points="670,1208 676,1177 683,1178 677,1209 "/>
   <polygon class="fil75" points="695,1212 699,1180 706,1181 702,1213 "/>
   <polygon class="fil76" points="720,1214 722,1183 729,1183 727,1215 "/>
   <polygon class="fil77" points="745,1216 745,1184 752,1184 752,1216 "/>
   <polygon class="fil78" points="770,1215 768,1184 775,1184 777,1215 "/>
   <path class="fil79" d="M1418 691l-97 0c-5,0 -9,-4 -9,-9 0,-5 4,-9 9,-9l97 0c5,0 9,4 9,9 0,5 -4,9 -9,9z"/>
   <path class="fil80" d="M1418 849l-97 0c-5,0 -9,-4 -9,-9 0,-5 4,-9 9,-9l97 0c5,0 9,4 9,9 0,5 -4,9 -9,9z"/>
   <path class="fil81" d="M197 691l-97 0c-5,0 -9,-4 -9,-9 0,-5 4,-9 9,-9l97 0c5,0 9,4 9,9 0,5 -4,9 -9,9z"/>
   <path class="fil82" d="M197 849l-97 0c-5,0 -9,-4 -9,-9 0,-5 4,-9 9,-9l97 0c5,0 9,4 9,9 0,5 -4,9 -9,9z"/>
   <path class="fil83" d="M319 137l-101 0 -118 119 0 122c-55,93 -90,199 -100,313l57 0c33,-335 299,-601 634,-634l0 -57c-138,13 -265,62 -372,137z"/>
  </g>
 </g>
</svg>
