<?xml version="1.0" encoding="UTF-8"?>
<!DOCTYPE svg PUBLIC "-//W3C//DTD SVG 1.1//EN" "http://www.w3.org/Graphics/SVG/1.1/DTD/svg11.dtd">
<!-- Creator: CorelDRAW X7 -->
<svg xmlns="http://www.w3.org/2000/svg" xml:space="preserve" width="2279px" height="2300px" version="1.1" style="shape-rendering:geometricPrecision; text-rendering:geometricPrecision; image-rendering:optimizeQuality; fill-rule:evenodd; clip-rule:evenodd"
viewBox="0 0 530 535"
 xmlns:xlink="http://www.w3.org/1999/xlink">
 <defs>
  <style type="text/css">
   <![CDATA[
    .fil38 {fill:url(#id0)}
    .fil14 {fill:url(#id1)}
    .fil13 {fill:url(#id2)}
    .fil22 {fill:url(#id3)}
    .fil20 {fill:url(#id4)}
    .fil16 {fill:url(#id5)}
    .fil35 {fill:url(#id6)}
    .fil23 {fill:url(#id7)}
    .fil8 {fill:url(#id8)}
    .fil30 {fill:url(#id9)}
    .fil7 {fill:url(#id10)}
    .fil33 {fill:url(#id11)}
    .fil4 {fill:url(#id12)}
    .fil9 {fill:url(#id13)}
    .fil6 {fill:url(#id14)}
    .fil10 {fill:url(#id15)}
    .fil3 {fill:url(#id16)}
    .fil27 {fill:url(#id17)}
    .fil25 {fill:url(#id18)}
    .fil32 {fill:url(#id19)}
    .fil5 {fill:url(#id20)}
    .fil15 {fill:url(#id21)}
    .fil17 {fill:url(#id22)}
    .fil36 {fill:url(#id23)}
    .fil11 {fill:url(#id24)}
    .fil31 {fill:url(#id25)}
    .fil24 {fill:url(#id26)}
    .fil1 {fill:url(#id27)}
    .fil28 {fill:url(#id28)}
    .fil39 {fill:url(#id29)}
    .fil0 {fill:url(#id30)}
    .fil29 {fill:url(#id31)}
    .fil2 {fill:url(#id32)}
    .fil42 {fill:url(#id33)}
    .fil41 {fill:url(#id34)}
    .fil18 {fill:url(#id35)}
    .fil21 {fill:url(#id36)}
    .fil37 {fill:url(#id37)}
    .fil19 {fill:url(#id38)}
    .fil40 {fill:url(#id39)}
    .fil34 {fill:url(#id40)}
    .fil26 {fill:url(#id41)}
    .fil12 {fill:url(#id42)}
   ]]>
  </style>
  <linearGradient id="id0" gradientUnits="userSpaceOnUse" x1="103.158" y1="321.385" x2="529.932" y2="321.385">
   <stop offset="0" style="stop-opacity:1; stop-color:#525252"/>
   <stop offset="1" style="stop-opacity:1; stop-color:#939393"/>
  </linearGradient>
  <linearGradient id="id1" gradientUnits="userSpaceOnUse" xlink:href="#id0" x1="400.586" y1="428.6" x2="402.137" y2="428.6">
  </linearGradient>
  <linearGradient id="id2" gradientUnits="userSpaceOnUse" xlink:href="#id0" x1="410.82" y1="419.15" x2="412.434" y2="419.15">
  </linearGradient>
  <linearGradient id="id3" gradientUnits="userSpaceOnUse" xlink:href="#id0" x1="301.85" y1="477.265" x2="302.688" y2="477.265">
  </linearGradient>
  <linearGradient id="id4" gradientUnits="userSpaceOnUse" xlink:href="#id0" x1="328.666" y1="469.992" x2="329.713" y2="469.992">
  </linearGradient>
  <linearGradient id="id5" gradientUnits="userSpaceOnUse" xlink:href="#id0" x1="378.416" y1="445.464" x2="379.82" y2="445.464">
  </linearGradient>
  <linearGradient id="id6" gradientUnits="userSpaceOnUse" xlink:href="#id0" x1="41.241" y1="200.119" x2="42.8585" y2="200.119">
  </linearGradient>
  <linearGradient id="id7" gradientUnits="userSpaceOnUse" xlink:href="#id0" x1="58.0357" y1="368.979" x2="59.6145" y2="368.979">
  </linearGradient>
  <linearGradient id="id8" gradientUnits="userSpaceOnUse" xlink:href="#id0" x1="451.762" y1="363.22" x2="453.896" y2="363.22">
  </linearGradient>
  <linearGradient id="id9" gradientUnits="userSpaceOnUse" xlink:href="#id0" x1="32.2366" y1="271.728" x2="33.811" y2="271.728">
  </linearGradient>
  <linearGradient id="id10" gradientUnits="userSpaceOnUse" xlink:href="#id0" x1="457.719" y1="350.621" x2="459.877" y2="350.621">
  </linearGradient>
  <linearGradient id="id11" gradientUnits="userSpaceOnUse" xlink:href="#id0" x1="34.8944" y1="228.4" x2="36.5028" y2="228.4">
  </linearGradient>
  <linearGradient id="id12" gradientUnits="userSpaceOnUse" xlink:href="#id0" x1="470.583" y1="310.863" x2="472.761" y2="310.863">
  </linearGradient>
  <linearGradient id="id13" gradientUnits="userSpaceOnUse" xlink:href="#id0" x1="445.002" y1="375.44" x2="447.102" y2="375.44">
  </linearGradient>
  <linearGradient id="id14" gradientUnits="userSpaceOnUse" xlink:href="#id0" x1="462.861" y1="337.639" x2="465.035" y2="337.639">
  </linearGradient>
  <linearGradient id="id15" gradientUnits="userSpaceOnUse" xlink:href="#id0" x1="437.635" y1="387.167" x2="439.399" y2="387.167">
  </linearGradient>
  <linearGradient id="id16" gradientUnits="userSpaceOnUse" xlink:href="#id0" x1="356.262" y1="146.056" x2="382.793" y2="146.056">
  </linearGradient>
  <linearGradient id="id17" gradientUnits="userSpaceOnUse" xlink:href="#id0" x1="37.861" y1="314.786" x2="39.4774" y2="314.786">
  </linearGradient>
  <linearGradient id="id18" gradientUnits="userSpaceOnUse" xlink:href="#id0" x1="46.1858" y1="342.514" x2="47.7964" y2="342.514">
  </linearGradient>
  <linearGradient id="id19" gradientUnits="userSpaceOnUse" xlink:href="#id0" x1="33.0874" y1="242.775" x2="34.681" y2="242.775">
  </linearGradient>
  <linearGradient id="id20" gradientUnits="userSpaceOnUse" xlink:href="#id0" x1="467.149" y1="324.376" x2="469.331" y2="324.376">
  </linearGradient>
  <linearGradient id="id21" gradientUnits="userSpaceOnUse" xlink:href="#id0" x1="389.772" y1="437.379" x2="391.253" y2="437.379">
  </linearGradient>
  <linearGradient id="id22" gradientUnits="userSpaceOnUse" xlink:href="#id0" x1="366.584" y1="452.786" x2="367.908" y2="452.786">
  </linearGradient>
  <linearGradient id="id23" gradientUnits="userSpaceOnUse" xlink:href="#id0" x1="45.7563" y1="186.363" x2="47.3683" y2="186.363">
  </linearGradient>
  <linearGradient id="id24" gradientUnits="userSpaceOnUse" xlink:href="#id0" x1="429.388" y1="398.373" x2="431.109" y2="398.373">
  </linearGradient>
  <linearGradient id="id25" gradientUnits="userSpaceOnUse" xlink:href="#id0" x1="32.2048" y1="257.25" x2="33.7778" y2="257.25">
  </linearGradient>
  <linearGradient id="id26" gradientUnits="userSpaceOnUse" xlink:href="#id0" x1="51.6902" y1="355.967" x2="53.2882" y2="355.967">
  </linearGradient>
  <linearGradient id="id27" gradientUnits="userSpaceOnUse" xlink:href="#id0" x1="80.4477" y1="78.3999" x2="82.7421" y2="78.3999">
  </linearGradient>
  <linearGradient id="id28" gradientUnits="userSpaceOnUse" xlink:href="#id0" x1="35.0594" y1="300.56" x2="36.6684" y2="300.56">
  </linearGradient>
  <linearGradient id="id29" gradientUnits="userSpaceOnUse" xlink:href="#id0" x1="85.2559" y1="43.5275" x2="163.61" y2="43.5275">
  </linearGradient>
  <linearGradient id="id30" gradientUnits="userSpaceOnUse" xlink:href="#id0" x1="233.084" y1="263.822" x2="284.88" y2="263.822">
  </linearGradient>
  <linearGradient id="id31" gradientUnits="userSpaceOnUse" xlink:href="#id0" x1="33.1857" y1="286.204" x2="34.7807" y2="286.204">
  </linearGradient>
  <linearGradient id="id32" gradientUnits="userSpaceOnUse" xlink:href="#id0" x1="239.258" y1="263.824" x2="278.701" y2="263.824">
  </linearGradient>
  <linearGradient id="id33" gradientUnits="userSpaceOnUse" xlink:href="#id0" x1="33.9376" y1="110.612" x2="67.4586" y2="110.612">
  </linearGradient>
  <linearGradient id="id34" gradientUnits="userSpaceOnUse" xlink:href="#id0" x1="26.9978" y1="110.621" x2="74.3998" y2="110.621">
  </linearGradient>
  <linearGradient id="id35" gradientUnits="userSpaceOnUse" xlink:href="#id0" x1="354.318" y1="459.328" x2="355.555" y2="459.328">
  </linearGradient>
  <linearGradient id="id36" gradientUnits="userSpaceOnUse" xlink:href="#id0" x1="315.357" y1="474.065" x2="316.301" y2="474.065">
  </linearGradient>
  <linearGradient id="id37" gradientUnits="userSpaceOnUse" xlink:href="#id0" x1="476.04" y1="249.667" x2="480.018" y2="249.667">
  </linearGradient>
  <linearGradient id="id38" gradientUnits="userSpaceOnUse" xlink:href="#id0" x1="341.65" y1="465.087" x2="342.795" y2="465.087">
  </linearGradient>
  <linearGradient id="id39" gradientUnits="userSpaceOnUse" xlink:href="#id0" x1="93.4903" y1="43.5275" x2="155.376" y2="43.5275">
  </linearGradient>
  <linearGradient id="id40" gradientUnits="userSpaceOnUse" xlink:href="#id0" x1="37.612" y1="214.174" x2="39.2284" y2="214.174">
  </linearGradient>
  <linearGradient id="id41" gradientUnits="userSpaceOnUse" xlink:href="#id0" x1="41.5835" y1="328.821" x2="43.201" y2="328.821">
  </linearGradient>
  <linearGradient id="id42" gradientUnits="userSpaceOnUse" xlink:href="#id0" x1="420.413" y1="409.087" x2="422.084" y2="409.087">
  </linearGradient>
 </defs>
 <g id="Vrstva_x0020_1">
  <metadata id="CorelCorpID_0Corel-Layer"/>
  <g id="_2646644366368">
   <path class="fil0" d="M259 523c-143,0 -259,-116 -259,-259 0,-45 12,-89 34,-128l3 2c-21,38 -33,82 -33,126 0,140 115,255 255,255 140,0 255,-115 255,-255 0,-141 -115,-255 -255,-255 -33,0 -66,6 -96,19l-2 -4c31,-13 64,-19 98,-19 143,0 259,116 259,259 0,143 -116,259 -259,259z"/>
   <path class="fil1" d="M73 90l-3 -3c6,-7 13,-14 20,-20l3 3c-7,6 -14,13 -20,20z"/>
   <path class="fil2" d="M259 71c-106,0 -193,86 -193,193 0,106 87,193 193,193 106,0 193,-87 193,-193 0,-107 -87,-193 -193,-193zm0 390c-109,0 -197,-88 -197,-197 0,-109 88,-197 197,-197 109,0 197,88 197,197 0,109 -88,197 -197,197z"/>
   <path class="fil3" d="M476 250c-7,-114 -103,-203 -217,-203l0 -5c117,0 214,91 221,208l-4 0z"/>
   <polygon class="fil4" points="465,307 479,310 479,314 464,311 "/>
   <polygon class="fil5" points="462,320 476,324 475,328 460,324 "/>
   <polygon class="fil6" points="458,333 472,338 470,342 456,337 "/>
   <polygon class="fil7" points="453,346 467,352 465,355 451,349 "/>
   <polygon class="fil8" points="447,358 460,365 459,368 445,362 "/>
   <polygon class="fil9" points="441,370 454,378 451,381 439,373 "/>
   <polygon class="fil10" points="433,381 446,390 444,393 431,385 "/>
   <polygon class="fil11" points="426,392 437,401 435,405 423,395 "/>
   <polygon class="fil12" points="417,403 428,413 425,416 414,406 "/>
   <polygon class="fil13" points="408,412 418,423 415,426 405,415 "/>
   <polygon class="fil14" points="398,422 408,433 405,436 395,424 "/>
   <polygon class="fil15" points="388,430 397,442 393,445 384,433 "/>
   <polygon class="fil16" points="377,438 385,451 382,453 373,440 "/>
   <polygon class="fil17" points="365,445 373,458 369,460 362,447 "/>
   <polygon class="fil18" points="353,452 360,465 356,467 350,453 "/>
   <polygon class="fil19" points="341,457 347,471 343,473 337,459 "/>
   <polygon class="fil20" points="329,462 334,476 330,478 325,464 "/>
   <polygon class="fil21" points="316,466 320,481 316,482 312,467 "/>
   <polygon class="fil22" points="303,470 306,484 302,485 299,470 "/>
   <polygon class="fil23" points="67,367 53,374 51,371 65,363 "/>
   <polygon class="fil24" points="60,355 46,361 44,357 59,351 "/>
   <polygon class="fil25" points="55,342 40,347 39,343 54,338 "/>
   <polygon class="fil26" points="50,329 36,333 34,329 49,325 "/>
   <polygon class="fil27" points="47,315 32,319 31,314 46,311 "/>
   <polygon class="fil28" points="44,301 29,304 28,300 43,297 "/>
   <polygon class="fil29" points="42,288 26,289 26,285 42,283 "/>
   <polygon class="fil30" points="41,274 25,274 25,270 41,269 "/>
   <polygon class="fil31" points="41,260 25,259 25,255 41,255 "/>
   <polygon class="fil32" points="41,246 26,244 26,240 42,241 "/>
   <polygon class="fil33" points="43,232 28,229 28,225 44,228 "/>
   <polygon class="fil34" points="46,218 30,215 31,210 46,214 "/>
   <polygon class="fil35" points="49,204 34,200 35,196 50,200 "/>
   <polygon class="fil36" points="53,191 39,186 40,182 55,187 "/>
   <polygon class="fil37" points="464,252 492,252 492,248 464,248 "/>
   <path class="fil38" d="M259 286c-12,0 -23,-10 -23,-22 0,-13 11,-23 23,-23 12,0 23,10 23,23 0,12 -11,22 -23,22zm271 -22l-25 0c-1,0 -2,-1 -3,-2l0 0c-1,-1 -1,-1 -2,-1l-75 0c-1,0 -1,0 -2,0l-9 -5c0,0 -1,0 -1,0l-77 0c0,0 0,0 -1,0l-9 5c-1,0 -1,0 -1,0l-14 0c0,0 -1,0 -1,1l-24 0c-1,-14 -13,-25 -27,-25 -14,0 -26,11 -27,25l-49 0 0 4 49 0c1,13 12,23 25,24l0 48 4 0 0 -48c13,-1 24,-11 25,-24l24 0 0 0c1,1 1,1 2,1l25 0c1,0 2,0 2,1l13 12c0,1 1,1 1,1l43 0c1,0 1,0 2,0l4 -3c1,0 1,0 1,0l70 0c1,0 2,-1 2,-1l7 -8c0,-1 1,-1 2,-1l18 0c-3,131 -109,237 -241,239l0 -95 -2 0c-82,0 -148,-67 -148,-148l20 0c0,-71 58,-128 128,-128l0 -28c-86,0 -156,70 -156,156l4 0c0,83 67,151 150,152l0 119 2 0c0,0 0,0 1,0l1 0 0 0c149,-1 269,-122 269,-271zm-271 271l0 0z"/>
   <path class="fil39" d="M124 4c-21,0 -39,18 -39,40 0,21 18,39 39,39 22,0 40,-18 40,-39 0,-22 -18,-40 -40,-40zm0 83c-24,0 -43,-19 -43,-43 0,-24 19,-44 43,-44 24,0 44,20 44,44 0,24 -20,43 -44,43z"/>
   <path class="fil40" d="M124 76c-18,0 -32,-14 -32,-32 0,-19 14,-33 32,-33 19,0 33,14 33,33 0,18 -14,32 -33,32z"/>
   <path class="fil41" d="M51 82c-16,0 -29,13 -29,29 0,15 13,28 29,28 16,0 28,-13 28,-28 0,-16 -12,-29 -28,-29zm0 62c-18,0 -33,-15 -33,-33 0,-19 15,-33 33,-33 18,0 33,14 33,33 0,18 -15,33 -33,33z"/>
   <path class="fil42" d="M51 133c-13,0 -23,-10 -23,-22 0,-13 10,-23 23,-23 12,0 22,10 22,23 0,12 -10,22 -22,22z"/>
  </g>
 </g>
</svg>
