<?xml version="1.0" encoding="UTF-8"?>
<!DOCTYPE svg PUBLIC "-//W3C//DTD SVG 1.1//EN" "http://www.w3.org/Graphics/SVG/1.1/DTD/svg11.dtd">
<!-- Creator: CorelDRAW X7 -->
<svg xmlns="http://www.w3.org/2000/svg" xml:space="preserve" width="2300px" height="2300px" version="1.1" style="shape-rendering:geometricPrecision; text-rendering:geometricPrecision; image-rendering:optimizeQuality; fill-rule:evenodd; clip-rule:evenodd"
viewBox="0 0 327 327"
 xmlns:xlink="http://www.w3.org/1999/xlink">
 <defs>
  <style type="text/css">
   <![CDATA[
    .fil2 {fill:url(#id0)}
    .fil3 {fill:url(#id1)}
    .fil0 {fill:url(#id2)}
    .fil1 {fill:url(#id3)}
   ]]>
  </style>
  <linearGradient id="id0" gradientUnits="userSpaceOnUse" x1="44.3622" y1="43.7762" x2="109.736" y2="43.7762">
   <stop offset="0" style="stop-opacity:1; stop-color:#525252"/>
   <stop offset="1" style="stop-opacity:1; stop-color:#939393"/>
  </linearGradient>
  <linearGradient id="id1" gradientUnits="userSpaceOnUse" xlink:href="#id0" x1="163.436" y1="237.275" x2="311.112" y2="237.275">
  </linearGradient>
  <linearGradient id="id2" gradientUnits="userSpaceOnUse" xlink:href="#id0" x1="124.211" y1="163.436" x2="202.661" y2="163.436">
  </linearGradient>
  <linearGradient id="id3" gradientUnits="userSpaceOnUse" xlink:href="#id0" x1="127.849" y1="163.435" x2="199.026" y2="163.435">
  </linearGradient>
 </defs>
 <g id="Vrstva_x0020_1">
  <metadata id="CorelCorpID_0Corel-Layer"/>
  <g id="_2610739853040">
   <path class="fil0" d="M163 327c-90,0 -163,-73 -163,-164 0,-42 16,-83 46,-113l4 4c-28,29 -44,68 -44,109 0,87 71,158 157,158 87,0 158,-71 158,-158 0,-86 -71,-157 -158,-157 -24,0 -47,5 -68,16l-3 -6c22,-11 46,-16 71,-16 91,0 164,73 164,163 0,91 -73,164 -164,164z"/>
   <path class="fil1" d="M32 163c0,-8 1,-16 3,-24l25 25 -25 25c-2,-8 -3,-17 -3,-26zm44 1l-38 38c-1,-3 -1,-5 -2,-8l29 -28c0,-1 0,-3 0,-4l-29 -28c0,-3 1,-5 2,-8l38 38zm87 -137c-20,0 -39,4 -57,12l2 6c17,-8 36,-13 55,-13 73,0 131,59 131,131 0,73 -58,131 -131,131 -57,0 -106,-36 -123,-88l0 0 40 -40c1,-1 1,-2 0,-3l-41 -41c6,-18 16,-35 29,-49l-4 -4c-24,26 -37,59 -37,94 0,76 61,137 136,137 76,0 137,-61 137,-137 0,-75 -61,-136 -137,-136z"/>
   <path class="fil2" d="M77 17c-15,0 -27,12 -27,27 0,15 12,27 27,27 15,0 27,-12 27,-27 0,-15 -12,-27 -27,-27zm0 59c-18,0 -33,-14 -33,-32 0,-18 15,-33 33,-33 18,0 33,15 33,33 0,18 -15,32 -33,32z"/>
   <path class="fil3" d="M163 311l0 -29c66,0 119,-53 119,-119l29 0c0,82 -66,148 -148,148z"/>
  </g>
 </g>
</svg>
