<?xml version="1.0" encoding="UTF-8"?>
<!DOCTYPE svg PUBLIC "-//W3C//DTD SVG 1.1//EN" "http://www.w3.org/Graphics/SVG/1.1/DTD/svg11.dtd">
<!-- Creator: CorelDRAW X7 -->
<svg xmlns="http://www.w3.org/2000/svg" xml:space="preserve" width="2300px" height="2192px" version="1.1" style="shape-rendering:geometricPrecision; text-rendering:geometricPrecision; image-rendering:optimizeQuality; fill-rule:evenodd; clip-rule:evenodd"
viewBox="0 0 232 221"
 xmlns:xlink="http://www.w3.org/1999/xlink">
 <defs>
  <style type="text/css">
   <![CDATA[
    .fil35 {fill:url(#id0)}
    .fil26 {fill:url(#id1)}
    .fil32 {fill:url(#id2)}
    .fil36 {fill:url(#id3)}
    .fil27 {fill:url(#id4)}
    .fil7 {fill:url(#id5)}
    .fil6 {fill:url(#id6)}
    .fil11 {fill:url(#id7)}
    .fil12 {fill:url(#id8)}
    .fil10 {fill:url(#id9)}
    .fil2 {fill:url(#id10)}
    .fil34 {fill:url(#id11)}
    .fil5 {fill:url(#id12)}
    .fil28 {fill:url(#id13)}
    .fil18 {fill:url(#id14)}
    .fil22 {fill:url(#id15)}
    .fil20 {fill:url(#id16)}
    .fil14 {fill:url(#id17)}
    .fil9 {fill:url(#id18)}
    .fil17 {fill:url(#id19)}
    .fil24 {fill:url(#id20)}
    .fil25 {fill:url(#id21)}
    .fil3 {fill:url(#id22)}
    .fil33 {fill:url(#id23)}
    .fil0 {fill:url(#id24)}
    .fil19 {fill:url(#id25)}
    .fil13 {fill:url(#id26)}
    .fil31 {fill:url(#id27)}
    .fil1 {fill:url(#id28)}
    .fil29 {fill:url(#id29)}
    .fil15 {fill:url(#id30)}
    .fil30 {fill:url(#id31)}
    .fil21 {fill:url(#id32)}
    .fil23 {fill:url(#id33)}
    .fil16 {fill:url(#id34)}
    .fil8 {fill:url(#id35)}
    .fil4 {fill:url(#id36)}
   ]]>
  </style>
  <linearGradient id="id0" gradientUnits="userSpaceOnUse" x1="72.0226" y1="27.2822" x2="160.462" y2="27.2822">
   <stop offset="0" style="stop-opacity:1; stop-color:#939393"/>
   <stop offset="1" style="stop-opacity:1; stop-color:#525252"/>
  </linearGradient>
  <linearGradient id="id1" gradientUnits="userSpaceOnUse" x1="37.5754" y1="118.291" x2="194.103" y2="118.291">
   <stop offset="0" style="stop-opacity:1; stop-color:#525252"/>
   <stop offset="1" style="stop-opacity:1; stop-color:#939393"/>
  </linearGradient>
  <linearGradient id="id2" gradientUnits="userSpaceOnUse" xlink:href="#id0" x1="45.577" y1="61.1972" x2="186.908" y2="61.1972">
  </linearGradient>
  <linearGradient id="id3" gradientUnits="userSpaceOnUse" xlink:href="#id0" x1="114.653" y1="161.141" x2="117.832" y2="161.141">
  </linearGradient>
  <linearGradient id="id4" gradientUnits="userSpaceOnUse" xlink:href="#id1" x1="19.9192" y1="118.291" x2="212.566" y2="118.291">
  </linearGradient>
  <linearGradient id="id5" gradientUnits="userSpaceOnUse" xlink:href="#id1" x1="93.1636" y1="203.551" x2="96.0442" y2="203.551">
  </linearGradient>
  <linearGradient id="id6" gradientUnits="userSpaceOnUse" xlink:href="#id1" x1="88.3585" y1="202.265" x2="91.5529" y2="202.265">
  </linearGradient>
  <linearGradient id="id7" gradientUnits="userSpaceOnUse" xlink:href="#id1" x1="112.943" y1="206.095" x2="114.495" y2="206.095">
  </linearGradient>
  <linearGradient id="id8" gradientUnits="userSpaceOnUse" xlink:href="#id1" x1="117.732" y1="206.075" x2="119.334" y2="206.075">
  </linearGradient>
  <linearGradient id="id9" gradientUnits="userSpaceOnUse" xlink:href="#id1" x1="107.938" y1="205.851" x2="109.83" y2="205.851">
  </linearGradient>
  <linearGradient id="id10" gradientUnits="userSpaceOnUse" xlink:href="#id1" x1="70.0809" y1="194.608" x2="74.4294" y2="194.608">
  </linearGradient>
  <linearGradient id="id11" gradientUnits="userSpaceOnUse" xlink:href="#id0" x1="202.144" y1="118.12" x2="214.217" y2="118.12">
  </linearGradient>
  <linearGradient id="id12" gradientUnits="userSpaceOnUse" xlink:href="#id1" x1="83.6344" y1="200.725" x2="87.1295" y2="200.725">
  </linearGradient>
  <linearGradient id="id13" gradientUnits="userSpaceOnUse" xlink:href="#id1" x1="172.889" y1="172.046" x2="195.284" y2="172.046">
  </linearGradient>
  <linearGradient id="id14" gradientUnits="userSpaceOnUse" xlink:href="#id1" x1="145.04" y1="200.448" x2="148.584" y2="200.448">
  </linearGradient>
  <linearGradient id="id15" gradientUnits="userSpaceOnUse" xlink:href="#id1" x1="161.657" y1="191.669" x2="166.305" y2="191.669">
  </linearGradient>
  <linearGradient id="id16" gradientUnits="userSpaceOnUse" xlink:href="#id1" x1="153.59" y1="196.533" x2="157.706" y2="196.533">
  </linearGradient>
  <linearGradient id="id17" gradientUnits="userSpaceOnUse" xlink:href="#id1" x1="127.003" y1="205.236" x2="129.286" y2="205.236">
  </linearGradient>
  <linearGradient id="id18" gradientUnits="userSpaceOnUse" xlink:href="#id1" x1="102.975" y1="205.349" x2="105.207" y2="205.349">
  </linearGradient>
  <linearGradient id="id19" gradientUnits="userSpaceOnUse" xlink:href="#id1" x1="140.633" y1="202.028" x2="143.879" y2="202.028">
  </linearGradient>
  <linearGradient id="id20" gradientUnits="userSpaceOnUse" xlink:href="#id1" x1="6.77321" y1="118.287" x2="77.8902" y2="118.287">
  </linearGradient>
  <linearGradient id="id21" gradientUnits="userSpaceOnUse" xlink:href="#id1" x1="153.796" y1="118.287" x2="224.906" y2="118.287">
  </linearGradient>
  <linearGradient id="id22" gradientUnits="userSpaceOnUse" xlink:href="#id1" x1="74.4872" y1="196.891" x2="78.5626" y2="196.891">
  </linearGradient>
  <linearGradient id="id23" gradientUnits="userSpaceOnUse" xlink:href="#id0" x1="18.2663" y1="118.12" x2="30.3335" y2="118.12">
  </linearGradient>
  <linearGradient id="id24" gradientUnits="userSpaceOnUse" xlink:href="#id1" x1="61.7295" y1="189.358" x2="66.5772" y2="189.358">
  </linearGradient>
  <linearGradient id="id25" gradientUnits="userSpaceOnUse" xlink:href="#id1" x1="149.365" y1="198.609" x2="153.199" y2="198.609">
  </linearGradient>
  <linearGradient id="id26" gradientUnits="userSpaceOnUse" xlink:href="#id1" x1="122.381" y1="205.789" x2="124.332" y2="205.789">
  </linearGradient>
  <linearGradient id="id27" gradientUnits="userSpaceOnUse" xlink:href="#id1" x1="37.1754" y1="171.884" x2="59.2769" y2="171.884">
  </linearGradient>
  <linearGradient id="id28" gradientUnits="userSpaceOnUse" xlink:href="#id1" x1="65.8389" y1="192.097" x2="70.4373" y2="192.097">
  </linearGradient>
  <linearGradient id="id29" gradientUnits="userSpaceOnUse" xlink:href="#id1" x1="158.104" y1="59.1797" x2="195.284" y2="59.1797">
  </linearGradient>
  <linearGradient id="id30" gradientUnits="userSpaceOnUse" xlink:href="#id1" x1="131.593" y1="204.428" x2="134.209" y2="204.428">
  </linearGradient>
  <linearGradient id="id31" gradientUnits="userSpaceOnUse" xlink:href="#id1" x1="36.8032" y1="59.5446" x2="74.3806" y2="59.5446">
  </linearGradient>
  <linearGradient id="id32" gradientUnits="userSpaceOnUse" xlink:href="#id1" x1="157.691" y1="194.218" x2="162.073" y2="194.218">
  </linearGradient>
  <linearGradient id="id33" gradientUnits="userSpaceOnUse" xlink:href="#id1" x1="165.492" y1="188.897" x2="170.38" y2="188.897">
  </linearGradient>
  <linearGradient id="id34" gradientUnits="userSpaceOnUse" xlink:href="#id1" x1="136.15" y1="203.352" x2="139.08" y2="203.352">
  </linearGradient>
  <linearGradient id="id35" gradientUnits="userSpaceOnUse" xlink:href="#id1" x1="98.0436" y1="204.581" x2="100.6" y2="204.581">
  </linearGradient>
  <linearGradient id="id36" gradientUnits="userSpaceOnUse" xlink:href="#id1" x1="79.0024" y1="198.928" x2="82.796" y2="198.928">
  </linearGradient>
 </defs>
 <g id="Vrstva_x0020_1">
  <metadata id="CorelCorpID_0Corel-Layer"/>
  <g id="_2610493291328">
   <polygon class="fil0" points="62,191 65,186 67,187 63,192 "/>
   <polygon class="fil1" points="66,194 69,189 70,190 67,195 "/>
   <polygon class="fil2" points="70,197 73,192 74,192 71,198 "/>
   <polygon class="fil3" points="74,199 77,194 79,194 76,200 "/>
   <polygon class="fil4" points="79,202 82,196 83,196 80,202 "/>
   <polygon class="fil5" points="84,203 86,198 87,198 85,204 "/>
   <polygon class="fil6" points="88,205 90,199 92,199 90,205 "/>
   <polygon class="fil7" points="93,206 95,200 96,201 95,207 "/>
   <polygon class="fil8" points="98,208 99,201 101,202 99,208 "/>
   <polygon class="fil9" points="103,208 104,202 105,202 104,209 "/>
   <polygon class="fil10" points="108,209 108,203 110,203 109,209 "/>
   <polygon class="fil11" points="113,209 113,203 114,203 114,209 "/>
   <polygon class="fil12" points="118,209 118,203 119,203 119,209 "/>
   <polygon class="fil13" points="123,209 122,203 124,203 124,209 "/>
   <polygon class="fil14" points="128,208 127,202 128,202 129,208 "/>
   <polygon class="fil15" points="133,208 132,201 133,201 134,207 "/>
   <polygon class="fil16" points="138,207 136,200 138,200 139,206 "/>
   <polygon class="fil17" points="143,205 141,199 142,199 144,205 "/>
   <polygon class="fil18" points="147,204 145,198 146,197 149,203 "/>
   <polygon class="fil19" points="152,202 149,196 151,195 153,201 "/>
   <polygon class="fil20" points="156,200 154,194 155,193 158,199 "/>
   <polygon class="fil21" points="161,197 158,192 159,191 162,197 "/>
   <polygon class="fil22" points="165,195 162,189 163,189 166,194 "/>
   <polygon class="fil23" points="169,192 165,187 167,186 170,191 "/>
   <polygon class="fil24" points="40,163 0,163 0,158 38,158 77,118 38,79 0,79 0,74 40,74 85,118 "/>
   <polygon class="fil25" points="232,163 192,163 147,118 192,74 232,74 232,79 194,79 154,118 194,158 232,158 "/>
   <path class="fil26" d="M116 191c-40,0 -73,-33 -73,-73 0,-40 33,-72 73,-72 40,0 73,32 73,72 0,40 -33,73 -73,73zm72 -103c-3,-7 -7,-14 -12,-19l-4 0c-13,-16 -34,-26 -56,-26 -23,0 -43,10 -57,26l-4 0c-4,5 -8,12 -11,19 -4,9 -6,20 -6,30 0,11 2,21 6,31 3,7 7,13 11,19l4 0c14,16 34,26 57,26 22,0 43,-10 56,-26l4 0c5,-6 9,-12 12,-19 4,-10 6,-20 6,-31 0,-10 -2,-21 -6,-30z"/>
   <path class="fil27" d="M116 20c-54,0 -98,44 -98,98 0,55 44,99 98,99 55,0 99,-44 99,-99 0,-54 -44,-98 -99,-98zm0 201c-56,0 -102,-46 -102,-103 0,-56 46,-102 102,-102 57,0 103,46 103,102 0,57 -46,103 -103,103z"/>
   <path class="fil28" d="M175 186c-1,0 -1,-1 -2,-1 0,-1 0,-2 1,-3 7,-6 13,-14 18,-23 0,0 1,-1 2,0 1,0 2,1 1,2 -5,9 -11,17 -19,24 0,1 -1,1 -1,1z"/>
   <path class="fil29" d="M193 78c0,0 -1,0 -1,-1 -8,-14 -19,-25 -33,-33 -1,-1 -1,-2 -1,-3 1,-1 2,-1 3,-1 14,9 26,21 34,35 1,1 0,2 -1,3 0,0 0,0 -1,0z"/>
   <path class="fil30" d="M39 79c-1,0 -1,0 -1,0 -1,-1 -1,-2 -1,-3 8,-15 20,-27 35,-36 0,0 2,0 2,1 1,1 0,2 -1,3 -14,8 -25,20 -33,34 0,1 -1,1 -1,1z"/>
   <path class="fil31" d="M57 185c0,0 -1,0 -1,0 -7,-7 -14,-15 -19,-24 0,-1 0,-2 1,-2 1,-1 2,-1 3,0 4,9 10,17 18,23 0,1 0,2 0,3 -1,0 -1,0 -2,0z"/>
   <path class="fil32" d="M53 4l63 109 63 -109 -126 0zm63 118l-70 -122 141 0 -71 122z"/>
   <path class="fil33" d="M33 83l-11 0c-4,11 -6,23 -6,35 0,12 2,24 6,35l11 0c-5,-11 -7,-22 -7,-35 0,-12 2,-24 7,-35z"/>
   <path class="fil34" d="M200 83c4,11 7,23 7,35 0,13 -3,24 -7,35l11 0c4,-11 6,-23 6,-35 0,-12 -2,-24 -6,-35l-11 0z"/>
   <path class="fil35" d="M116 18c-16,0 -31,3 -44,10l5 9c12,-6 25,-9 39,-9 14,0 28,3 39,9l5 -9c-13,-7 -28,-10 -44,-10z"/>
   <path class="fil36" d="M116 193c-1,0 -1,-1 -1,-2l0 -60c0,-1 0,-2 1,-2 1,0 2,1 2,2l0 60c0,1 -1,2 -2,2z"/>
  </g>
 </g>
</svg>
