<?xml version="1.0" encoding="UTF-8"?>
<!DOCTYPE svg PUBLIC "-//W3C//DTD SVG 1.1//EN" "http://www.w3.org/Graphics/SVG/1.1/DTD/svg11.dtd">
<!-- Creator: CorelDRAW X7 -->
<svg xmlns="http://www.w3.org/2000/svg" xml:space="preserve" width="2300px" height="2300px" version="1.1" style="shape-rendering:geometricPrecision; text-rendering:geometricPrecision; image-rendering:optimizeQuality; fill-rule:evenodd; clip-rule:evenodd"
viewBox="0 0 182 182"
 xmlns:xlink="http://www.w3.org/1999/xlink">
 <defs>
  <style type="text/css">
   <![CDATA[
    .fil49 {fill:url(#id0)}
    .fil29 {fill:url(#id1)}
    .fil30 {fill:url(#id2)}
    .fil17 {fill:url(#id3)}
    .fil39 {fill:url(#id4)}
    .fil33 {fill:url(#id5)}
    .fil12 {fill:url(#id6)}
    .fil35 {fill:url(#id7)}
    .fil3 {fill:url(#id8)}
    .fil19 {fill:url(#id9)}
    .fil10 {fill:url(#id10)}
    .fil45 {fill:url(#id11)}
    .fil46 {fill:url(#id12)}
    .fil6 {fill:url(#id13)}
    .fil7 {fill:url(#id14)}
    .fil21 {fill:url(#id15)}
    .fil31 {fill:url(#id16)}
    .fil25 {fill:url(#id17)}
    .fil9 {fill:url(#id18)}
    .fil38 {fill:url(#id19)}
    .fil13 {fill:url(#id20)}
    .fil23 {fill:url(#id21)}
    .fil18 {fill:url(#id22)}
    .fil11 {fill:url(#id23)}
    .fil34 {fill:url(#id24)}
    .fil24 {fill:url(#id25)}
    .fil40 {fill:url(#id26)}
    .fil42 {fill:url(#id27)}
    .fil41 {fill:url(#id28)}
    .fil43 {fill:url(#id29)}
    .fil44 {fill:url(#id30)}
    .fil0 {fill:url(#id31)}
    .fil16 {fill:url(#id32)}
    .fil22 {fill:url(#id33)}
    .fil28 {fill:url(#id34)}
    .fil14 {fill:url(#id35)}
    .fil47 {fill:url(#id36)}
    .fil48 {fill:url(#id37)}
    .fil15 {fill:url(#id38)}
    .fil20 {fill:url(#id39)}
    .fil37 {fill:url(#id40)}
    .fil36 {fill:url(#id41)}
    .fil2 {fill:url(#id42)}
    .fil8 {fill:url(#id43)}
    .fil32 {fill:url(#id44)}
    .fil27 {fill:url(#id45)}
    .fil1 {fill:url(#id46)}
    .fil4 {fill:url(#id47)}
    .fil5 {fill:url(#id48)}
    .fil26 {fill:url(#id49)}
   ]]>
  </style>
  <linearGradient id="id0" gradientUnits="userSpaceOnUse" x1="28.8503" y1="92.3433" x2="153.665" y2="92.3433">
   <stop offset="0" style="stop-opacity:1; stop-color:#525252"/>
   <stop offset="1" style="stop-opacity:1; stop-color:#939393"/>
  </linearGradient>
  <linearGradient id="id1" gradientUnits="userSpaceOnUse" xlink:href="#id0" x1="82.6747" y1="174.904" x2="82.6747" y2="173.957">
  </linearGradient>
  <linearGradient id="id2" gradientUnits="userSpaceOnUse" xlink:href="#id0" x1="77.3489" y1="174.193" x2="77.3489" y2="173.238">
  </linearGradient>
  <linearGradient id="id3" gradientUnits="userSpaceOnUse" xlink:href="#id0" x1="51.5598" y1="17.9246" x2="51.5598" y2="16.1709">
  </linearGradient>
  <linearGradient id="id4" gradientUnits="userSpaceOnUse" xlink:href="#id0" x1="91.0066" y1="92.8137" x2="91.0066" y2="88.8346">
  </linearGradient>
  <linearGradient id="id5" gradientUnits="userSpaceOnUse" xlink:href="#id0" x1="134.398" y1="124.39" x2="134.398" y2="123.832">
  </linearGradient>
  <linearGradient id="id6" gradientUnits="userSpaceOnUse" xlink:href="#id0" x1="30.2576" y1="33.9649" x2="30.2576" y2="32.5275">
  </linearGradient>
  <linearGradient id="id7" gradientUnits="userSpaceOnUse" xlink:href="#id0" x1="129.814" y1="129.694" x2="129.814" y2="129.086">
  </linearGradient>
  <linearGradient id="id8" gradientUnits="userSpaceOnUse" xlink:href="#id0" x1="129.865" y1="57.6527" x2="129.865" y2="41.599">
  </linearGradient>
  <linearGradient id="id9" gradientUnits="userSpaceOnUse" xlink:href="#id0" x1="61.3332" y1="13.5016" x2="61.3332" y2="11.7115">
  </linearGradient>
  <linearGradient id="id10" gradientUnits="userSpaceOnUse" xlink:href="#id0" x1="23.3587" y1="42.0934" x2="23.3587" y2="40.8709">
  </linearGradient>
  <linearGradient id="id11" gradientUnits="userSpaceOnUse" xlink:href="#id0" x1="167.846" y1="86.241" x2="167.846" y2="85.8464">
  </linearGradient>
  <linearGradient id="id12" gradientUnits="userSpaceOnUse" xlink:href="#id0" x1="167.846" y1="95.7829" x2="167.846" y2="95.4244">
  </linearGradient>
  <linearGradient id="id13" gradientUnits="userSpaceOnUse" xlink:href="#id0" x1="12.9957" y1="60.6808" x2="12.9957" y2="59.8203">
  </linearGradient>
  <linearGradient id="id14" gradientUnits="userSpaceOnUse" xlink:href="#id0" x1="15.1263" y1="55.7874" x2="15.1263" y2="54.8532">
  </linearGradient>
  <linearGradient id="id15" gradientUnits="userSpaceOnUse" xlink:href="#id0" x1="71.6109" y1="10.4105" x2="71.6109" y2="8.49224">
  </linearGradient>
  <linearGradient id="id16" gradientUnits="userSpaceOnUse" xlink:href="#id0" x1="72.0749" y1="173.148" x2="72.0749" y2="172.189">
  </linearGradient>
  <linearGradient id="id17" gradientUnits="userSpaceOnUse" xlink:href="#id0" x1="104.105" y1="174.302" x2="104.105" y2="173.348">
  </linearGradient>
  <linearGradient id="id18" gradientUnits="userSpaceOnUse" xlink:href="#id0" x1="20.3227" y1="46.4877" x2="20.3227" y2="45.3327">
  </linearGradient>
  <linearGradient id="id19" gradientUnits="userSpaceOnUse" xlink:href="#id0" x1="121.762" y1="136.419" x2="121.762" y2="135.755">
  </linearGradient>
  <linearGradient id="id20" gradientUnits="userSpaceOnUse" xlink:href="#id0" x1="34.0887" y1="30.2162" x2="34.0887" y2="28.7272">
  </linearGradient>
  <linearGradient id="id21" gradientUnits="userSpaceOnUse" xlink:href="#id0" x1="114.583" y1="171.944" x2="114.583" y2="170.985">
  </linearGradient>
  <linearGradient id="id22" gradientUnits="userSpaceOnUse" xlink:href="#id0" x1="56.3748" y1="15.5573" x2="56.3748" y2="13.7815">
  </linearGradient>
  <linearGradient id="id23" gradientUnits="userSpaceOnUse" xlink:href="#id0" x1="26.6804" y1="37.9392" x2="26.6804" y2="36.5595">
  </linearGradient>
  <linearGradient id="id24" gradientUnits="userSpaceOnUse" xlink:href="#id0" x1="132.191" y1="127.12" x2="132.191" y2="126.535">
  </linearGradient>
  <linearGradient id="id25" gradientUnits="userSpaceOnUse" xlink:href="#id0" x1="109.385" y1="173.292" x2="109.385" y2="172.333">
  </linearGradient>
  <linearGradient id="id26" gradientUnits="userSpaceOnUse" xlink:href="#id0" x1="91.0042" y1="91.0244" x2="91.0042" y2="90.6298">
  </linearGradient>
  <linearGradient id="id27" gradientUnits="userSpaceOnUse" xlink:href="#id0" x1="91.2773" y1="117.238" x2="91.2773" y2="116.879">
  </linearGradient>
  <linearGradient id="id28" gradientUnits="userSpaceOnUse" xlink:href="#id0" x1="91.2773" y1="107.671" x2="91.2773" y2="107.312">
  </linearGradient>
  <linearGradient id="id29" gradientUnits="userSpaceOnUse" xlink:href="#id0" x1="91.2773" y1="126.78" x2="91.2773" y2="126.458">
  </linearGradient>
  <linearGradient id="id30" gradientUnits="userSpaceOnUse" xlink:href="#id0" x1="91.2773" y1="136.341" x2="91.2773" y2="136.018">
  </linearGradient>
  <linearGradient id="id31" gradientUnits="userSpaceOnUse" xlink:href="#id0" x1="91.0059" y1="105.57" x2="91.0059" y2="76.4471">
  </linearGradient>
  <linearGradient id="id32" gradientUnits="userSpaceOnUse" xlink:href="#id0" x1="46.8995" y1="20.5927" x2="46.8995" y2="18.8685">
  </linearGradient>
  <linearGradient id="id33" gradientUnits="userSpaceOnUse" xlink:href="#id0" x1="76.8688" y1="9.33671" x2="76.8688" y2="7.42475">
  </linearGradient>
  <linearGradient id="id34" gradientUnits="userSpaceOnUse" xlink:href="#id0" x1="88.0284" y1="175.265" x2="88.0284" y2="174.329">
  </linearGradient>
  <linearGradient id="id35" gradientUnits="userSpaceOnUse" xlink:href="#id0" x1="38.15" y1="26.7216" x2="38.15" y2="25.1867">
  </linearGradient>
  <linearGradient id="id36" gradientUnits="userSpaceOnUse" xlink:href="#id0" x1="14.3041" y1="86.241" x2="14.3041" y2="85.8464">
  </linearGradient>
  <linearGradient id="id37" gradientUnits="userSpaceOnUse" xlink:href="#id0" x1="14.3041" y1="95.7829" x2="14.3041" y2="95.4244">
  </linearGradient>
  <linearGradient id="id38" gradientUnits="userSpaceOnUse" xlink:href="#id0" x1="42.426" y1="23.5487" x2="42.426" y2="21.8593">
  </linearGradient>
  <linearGradient id="id39" gradientUnits="userSpaceOnUse" xlink:href="#id0" x1="66.4225" y1="11.8207" x2="66.4225" y2="9.90219">
  </linearGradient>
  <linearGradient id="id40" gradientUnits="userSpaceOnUse" xlink:href="#id0" x1="124.591" y1="134.348" x2="124.591" y2="133.7">
  </linearGradient>
  <linearGradient id="id41" gradientUnits="userSpaceOnUse" xlink:href="#id0" x1="127.277" y1="132.104" x2="127.277" y2="131.475">
  </linearGradient>
  <linearGradient id="id42" gradientUnits="userSpaceOnUse" xlink:href="#id0" x1="129.874" y1="138.087" x2="129.874" y2="126.354">
  </linearGradient>
  <linearGradient id="id43" gradientUnits="userSpaceOnUse" xlink:href="#id0" x1="17.574" y1="51.069" x2="17.574" y2="49.9835">
  </linearGradient>
  <linearGradient id="id44" gradientUnits="userSpaceOnUse" xlink:href="#id0" x1="136.434" y1="121.551" x2="136.434" y2="120.963">
  </linearGradient>
  <linearGradient id="id45" gradientUnits="userSpaceOnUse" xlink:href="#id0" x1="93.4016" y1="175.284" x2="93.4016" y2="174.351">
  </linearGradient>
  <linearGradient id="id46" gradientUnits="userSpaceOnUse" xlink:href="#id0" x1="65.696" y1="71.2701" x2="65.696" y2="60.1332">
  </linearGradient>
  <linearGradient id="id47" gradientUnits="userSpaceOnUse" xlink:href="#id0" x1="9.7103" y1="70.8278" x2="9.7103" y2="70.1213">
  </linearGradient>
  <linearGradient id="id48" gradientUnits="userSpaceOnUse" xlink:href="#id0" x1="11.1875" y1="65.7079" x2="11.1875" y2="64.9226">
  </linearGradient>
  <linearGradient id="id49" gradientUnits="userSpaceOnUse" xlink:href="#id0" x1="98.7744" y1="174.969" x2="98.7744" y2="174.023">
  </linearGradient>
 </defs>
 <g id="Vrstva_x0020_1">
  <metadata id="CorelCorpID_0Corel-Layer"/>
  <g id="_2610739872176">
   <path class="fil0" d="M91 2c-49,0 -89,40 -89,89 0,49 40,89 89,89 49,0 89,-40 89,-89 0,-49 -40,-89 -89,-89zm0 180c-50,0 -91,-41 -91,-91 0,-50 41,-91 91,-91 50,0 91,41 91,91 0,50 -41,91 -91,91z"/>
   <path class="fil1" d="M42 91l-2 0c0,-28 23,-51 51,-51l0 2c-27,0 -49,22 -49,49z"/>
   <path class="fil2" d="M91 169l0 -2c40,0 74,-31 76,-71l2 0c-3,41 -37,73 -78,73z"/>
   <path class="fil3" d="M167 86c-3,-40 -36,-71 -76,-71l0 -2c41,0 75,32 78,73l-2 0z"/>
   <polygon class="fil4" points="12,72 7,71 7,69 13,70 "/>
   <polygon class="fil5" points="14,67 8,65 9,64 14,65 "/>
   <polygon class="fil6" points="15,62 10,60 11,58 16,61 "/>
   <polygon class="fil7" points="17,57 12,55 13,53 18,56 "/>
   <polygon class="fil8" points="20,53 15,50 15,48 20,51 "/>
   <polygon class="fil9" points="22,48 17,45 18,44 23,47 "/>
   <polygon class="fil10" points="25,44 21,40 21,39 26,43 "/>
   <polygon class="fil11" points="28,40 24,36 25,35 29,39 "/>
   <polygon class="fil12" points="32,36 28,32 29,31 33,35 "/>
   <polygon class="fil13" points="35,32 32,28 33,27 37,31 "/>
   <polygon class="fil14" points="39,29 36,24 37,23 41,28 "/>
   <polygon class="fil15" points="43,26 40,21 41,20 45,25 "/>
   <polygon class="fil16" points="48,23 45,18 46,17 49,22 "/>
   <polygon class="fil17" points="52,20 50,15 51,14 54,19 "/>
   <polygon class="fil18" points="57,18 54,12 56,12 58,17 "/>
   <polygon class="fil19" points="62,16 60,10 61,10 63,15 "/>
   <polygon class="fil20" points="67,14 65,8 66,8 68,13 "/>
   <polygon class="fil21" points="72,12 70,7 72,6 73,12 "/>
   <polygon class="fil22" points="77,11 76,6 77,5 78,11 "/>
   <polygon class="fil23" points="115,168 116,174 115,174 113,169 "/>
   <polygon class="fil24" points="110,170 111,175 109,176 108,170 "/>
   <polygon class="fil25" points="104,171 105,177 104,177 103,171 "/>
   <polygon class="fil26" points="99,172 100,177 98,177 98,172 "/>
   <polygon class="fil27" points="94,172 94,178 93,178 93,172 "/>
   <polygon class="fil28" points="89,172 89,178 87,178 87,172 "/>
   <polygon class="fil29" points="84,172 83,177 82,177 82,171 "/>
   <polygon class="fil30" points="79,171 78,177 76,176 77,171 "/>
   <polygon class="fil31" points="73,170 72,176 71,175 72,170 "/>
   <polygon class="fil32" points="135,120 138,122 138,123 135,121 "/>
   <polygon class="fil33" points="133,123 136,125 136,126 133,123 "/>
   <polygon class="fil34" points="131,125 134,128 133,128 130,126 "/>
   <polygon class="fil35" points="129,128 132,130 131,131 128,128 "/>
   <polygon class="fil36" points="126,130 129,133 128,134 126,131 "/>
   <polygon class="fil37" points="124,132 126,135 125,136 123,133 "/>
   <polygon class="fil38" points="121,134 123,137 122,138 120,135 "/>
   <polygon class="fil39" points="90,101 92,101 92,81 90,81 "/>
   <polygon class="fil40" points="81,92 101,92 101,90 81,90 "/>
   <polygon class="fil41" points="87,108 95,108 95,107 87,107 "/>
   <polygon class="fil42" points="87,118 95,118 95,116 87,116 "/>
   <polygon class="fil43" points="87,128 95,128 95,126 87,126 "/>
   <polygon class="fil44" points="87,137 95,137 95,135 87,135 "/>
   <polygon class="fil45" points="163,87 173,87 173,85 163,85 "/>
   <polygon class="fil46" points="163,97 173,97 173,95 163,95 "/>
   <polygon class="fil47" points="9,87 19,87 19,85 9,85 "/>
   <polygon class="fil48" points="9,97 19,97 19,95 9,95 "/>
   <path class="fil49" d="M122 145l-6 -8c-8,4 -16,7 -25,7 -29,0 -53,-24 -53,-53 0,-29 24,-53 53,-53 29,0 53,24 53,53 0,9 -3,18 -7,25l7 7c-5,9 -12,17 -22,22zm25 -28c4,-8 6,-17 6,-26 0,-8 -1,-15 -4,-22l2 -4c-1,-2 -2,-5 -4,-7l4 -5c-5,-8 -12,-14 -19,-20l-8 6 0 -1c-4,-2 -8,-4 -13,-6l-1 0c-4,-1 -9,-2 -13,-3 -2,0 -4,0 -6,0 -9,0 -18,2 -26,6l-7 -7c-8,5 -16,11 -22,18l4 4c-3,4 -6,8 -8,13l2 3c-3,8 -5,16 -5,25 0,12 4,24 10,34l-5 7c4,6 9,12 15,16l7 -2c9,6 19,10 30,10l3 -3c0,0 1,0 2,0 9,0 18,-2 25,-5l7 6c13,-6 24,-17 31,-30l-7 -7z"/>
  </g>
 </g>
</svg>
