<?xml version="1.0" encoding="UTF-8"?>
<!DOCTYPE svg PUBLIC "-//W3C//DTD SVG 1.1//EN" "http://www.w3.org/Graphics/SVG/1.1/DTD/svg11.dtd">
<!-- Creator: CorelDRAW X7 -->
<svg xmlns="http://www.w3.org/2000/svg" xml:space="preserve" width="2300px" height="2300px" version="1.1" style="shape-rendering:geometricPrecision; text-rendering:geometricPrecision; image-rendering:optimizeQuality; fill-rule:evenodd; clip-rule:evenodd"
viewBox="0 0 151 151"
 xmlns:xlink="http://www.w3.org/1999/xlink">
 <defs>
  <style type="text/css">
   <![CDATA[
    .fil4 {fill:#666666}
    .fil8 {fill:url(#id0)}
    .fil7 {fill:url(#id1)}
    .fil6 {fill:url(#id2)}
    .fil1 {fill:url(#id3)}
    .fil5 {fill:url(#id4)}
    .fil2 {fill:url(#id5)}
    .fil3 {fill:url(#id6)}
    .fil0 {fill:url(#id7)}
   ]]>
  </style>
  <linearGradient id="id0" gradientUnits="userSpaceOnUse" x1="10.4062" y1="75.1914" x2="117.155" y2="75.1914">
   <stop offset="0" style="stop-opacity:1; stop-color:#525252"/>
   <stop offset="1" style="stop-opacity:1; stop-color:#939393"/>
  </linearGradient>
  <linearGradient id="id1" gradientUnits="userSpaceOnUse" x1="76.5863" y1="75.2417" x2="77.2071" y2="75.2417">
   <stop offset="0" style="stop-opacity:1; stop-color:#939393"/>
   <stop offset="1" style="stop-opacity:1; stop-color:#525252"/>
  </linearGradient>
  <linearGradient id="id2" gradientUnits="userSpaceOnUse" xlink:href="#id1" x1="70.6646" y1="138.983" x2="79.8214" y2="138.983">
  </linearGradient>
  <linearGradient id="id3" gradientUnits="userSpaceOnUse" xlink:href="#id1" x1="57.0305" y1="75.2445" x2="57.8431" y2="75.2445">
  </linearGradient>
  <linearGradient id="id4" gradientUnits="userSpaceOnUse" xlink:href="#id1" x1="70.8585" y1="11.6981" x2="80.0152" y2="11.6981">
  </linearGradient>
  <linearGradient id="id5" gradientUnits="userSpaceOnUse" xlink:href="#id1" x1="95.9012" y1="75.2927" x2="96.7208" y2="75.2927">
  </linearGradient>
  <linearGradient id="id6" gradientUnits="userSpaceOnUse" xlink:href="#id1" x1="95.8321" y1="75.2927" x2="96.7979" y2="75.2927">
  </linearGradient>
  <linearGradient id="id7" gradientUnits="userSpaceOnUse" xlink:href="#id1" x1="57.0964" y1="75.2445" x2="57.7875" y2="75.2445">
  </linearGradient>
 </defs>
 <g id="Vrstva_x0020_1">
  <metadata id="CorelCorpID_0Corel-Layer"/>
  <g id="_2646644367488">
   <path class="fil0" d="M61 60l0 0c-4,4 -6,10 -6,15l0 0c0,6 2,11 6,15l0 1 -7 6 0 0 6 -6c-4,-5 -6,-10 -6,-16l0 0c0,-5 2,-11 6,-15l-6 -6 0 -1 7 7z"/>
   <path class="fil1" d="M54 98l-1 -1 7 -6c-4,-5 -6,-10 -6,-16 0,-5 2,-11 6,-15l-7 -6 1 -1 8 7 -1 0c-4,4 -6,10 -6,15 0,6 2,11 6,15l0 1 -7 7z"/>
   <path class="fil2" d="M100 54l-6 6c3,4 5,10 5,15l0 0c0,6 -2,11 -5,16l6 6 -1 0 -6 -6 0 -1c4,-4 6,-9 6,-15l0 0c0,-5 -2,-11 -6,-15l0 0 6 -6 1 0z"/>
   <path class="fil3" d="M99 98l-7 -7 1 -1c4,-4 6,-9 6,-15 0,-5 -2,-10 -6,-14l-1 -1 7 -7 1 1 -6 6c4,4 6,10 6,15 0,6 -2,11 -6,16l6 6 -1 1z"/>
   <path class="fil4" d="M89 128l-5 -3c0,0 -1,0 -1,0l-7 0 -8 0c0,0 0,0 -1,0l-5 3c-11,-2 -22,-8 -30,-16l-1 0 -18 18c0,0 0,1 0,1 0,0 0,0 1,0l12 -13c2,-1 4,-1 5,0 6,5 13,9 20,12l0 0 7 7c5,1 11,2 18,2 6,0 11,-1 17,-2l7 -7 0 0c7,-2 14,-6 20,-12 2,-1 4,-1 5,1l12 12c0,0 1,0 1,0 0,0 0,-1 0,-1l-18 -18 0 0c-9,8 -20,14 -31,16z"/>
   <path class="fil4" d="M89 23l-5 3c0,1 -1,1 -1,1l-7 0 -8 0c0,0 0,0 -1,-1l-5 -3c-11,2 -22,8 -30,16l-1 0 -18 -18c0,0 0,-1 0,-1 0,0 0,0 1,0l12 13c2,1 4,1 5,0 6,-5 13,-9 20,-12l0 0 7 -7c5,-1 11,-2 18,-2 6,0 11,1 17,2l7 7 0 0c7,2 14,7 20,12 2,1 4,1 5,0l12 -13c0,0 1,0 1,0 0,0 0,1 0,1l-18 18 0 0c-9,-8 -20,-14 -31,-16z"/>
   <path class="fil4" d="M22 30c-6,7 -10,15 -13,24 -1,0 -2,0 -2,1l-7 8c0,1 0,1 0,2l0 10 0 10c0,1 0,1 0,2l7 8c0,1 1,1 2,1 2,9 7,18 13,25 0,0 1,0 1,0 0,0 0,-1 0,-1 -7,-8 -12,-17 -14,-28 -1,-5 -2,-11 -2,-17 0,-5 1,-11 2,-16 2,-10 7,-20 14,-28 0,-1 0,-1 0,-1 0,-1 -1,-1 -1,0z"/>
   <path class="fil4" d="M129 30c6,7 10,15 13,24 1,0 2,0 2,1l6 9c1,0 1,1 1,1l0 10 0 10c0,1 0,1 -1,2l-6 9c0,0 -1,1 -2,1 -3,9 -7,17 -14,24 0,0 0,0 0,0 -1,0 -1,-1 -1,-1 7,-8 12,-17 15,-27 1,-6 2,-12 2,-18 0,-5 -1,-10 -2,-16 -2,-10 -7,-20 -14,-28 -1,-1 -1,-1 0,-1 0,0 0,0 1,0z"/>
   <path class="fil5" d="M121 22c-7,-6 -15,-10 -24,-13 0,-1 0,-2 -1,-2l-9 -7c0,0 -1,0 -1,0l-10 0 -10 0c-1,0 -1,0 -2,0l-9 7c0,0 -1,1 -1,2 -9,2 -17,7 -24,13 0,0 0,1 0,1 0,0 0,0 1,0 8,-7 17,-12 27,-14 6,-1 12,-2 18,-2 5,0 10,1 15,2 11,2 21,7 29,14 0,0 1,0 1,0 0,0 0,-1 0,-1z"/>
   <path class="fil6" d="M121 129c-7,6 -15,10 -24,13 0,1 -1,2 -1,2l-9 6c0,1 -1,1 -1,1l-11 0 -10 0c0,0 -1,0 -1,-1l-9 -6c0,0 -1,-1 -1,-2 -9,-3 -17,-7 -24,-14 -1,0 -1,0 0,0 0,-1 0,-1 1,-1 8,7 17,12 27,15 5,1 11,2 17,2 6,0 11,-1 16,-2 11,-2 21,-7 29,-14 0,-1 1,-1 1,0 0,0 0,0 0,1z"/>
   <path class="fil7" d="M77 72c2,0 3,2 3,3 0,2 -1,3 -3,3 -2,0 -3,-1 -3,-3 0,-1 1,-3 3,-3z"/>
   <path class="fil8" d="M77 113c-21,0 -38,-17 -38,-38 0,-21 17,-38 38,-38 21,0 38,17 38,38 0,21 -17,38 -38,38zm0 -78c-22,0 -40,17 -40,39l-25 0c-1,0 -2,1 -2,1 0,1 1,2 2,2l25 0c0,21 18,39 40,39 22,0 40,-19 40,-41 0,-22 -18,-40 -40,-40z"/>
  </g>
 </g>
</svg>
