<?xml version="1.0" encoding="UTF-8"?>
<!DOCTYPE svg PUBLIC "-//W3C//DTD SVG 1.1//EN" "http://www.w3.org/Graphics/SVG/1.1/DTD/svg11.dtd">
<!-- Creator: CorelDRAW X7 -->
<svg xmlns="http://www.w3.org/2000/svg" xml:space="preserve" width="2300px" height="2349px" version="1.1" style="shape-rendering:geometricPrecision; text-rendering:geometricPrecision; image-rendering:optimizeQuality; fill-rule:evenodd; clip-rule:evenodd"
viewBox="0 0 129 132"
 xmlns:xlink="http://www.w3.org/1999/xlink">
 <defs>
  <style type="text/css">
   <![CDATA[
    .fil5 {fill:url(#id0)}
    .fil6 {fill:url(#id1)}
    .fil2 {fill:url(#id2)}
    .fil4 {fill:url(#id3)}
    .fil3 {fill:url(#id4)}
    .fil0 {fill:url(#id5)}
    .fil1 {fill:url(#id6)}
   ]]>
  </style>
  <linearGradient id="id0" gradientUnits="userSpaceOnUse" x1="12.9995" y1="17.8889" x2="115.954" y2="17.8889">
   <stop offset="0" style="stop-opacity:1; stop-color:#939393"/>
   <stop offset="1" style="stop-opacity:1; stop-color:#525252"/>
  </linearGradient>
  <linearGradient id="id1" gradientUnits="userSpaceOnUse" x1="12.9995" y1="113.68" x2="115.954" y2="113.68">
   <stop offset="0" style="stop-opacity:1; stop-color:#525252"/>
   <stop offset="1" style="stop-opacity:1; stop-color:#939393"/>
  </linearGradient>
  <linearGradient id="id2" gradientUnits="userSpaceOnUse" xlink:href="#id0" x1="20.0533" y1="67.0848" x2="108.9" y2="67.0848">
  </linearGradient>
  <linearGradient id="id3" gradientUnits="objectBoundingBox" xlink:href="#id0" x1="0%" y1="49.9995%" x2="100%" y2="49.9995%">
  </linearGradient>
  <linearGradient id="id4" gradientUnits="userSpaceOnUse" xlink:href="#id0" x1="38.1381" y1="67.0848" x2="90.8156" y2="67.0848">
  </linearGradient>
  <linearGradient id="id5" gradientUnits="userSpaceOnUse" xlink:href="#id0" x1="7.96656" y1="67.0849" x2="41.8243" y2="67.0849">
  </linearGradient>
  <linearGradient id="id6" gradientUnits="userSpaceOnUse" xlink:href="#id0" x1="87.1286" y1="67.0849" x2="120.986" y2="67.0849">
  </linearGradient>
 </defs>
 <g id="Vrstva_x0020_1">
  <metadata id="CorelCorpID_0Corel-Layer"/>
  <g id="_2645941571152">
   <polygon class="fil0" points="28,89 0,89 0,86 27,86 46,67 27,48 0,48 0,46 28,46 50,67 "/>
   <polygon class="fil1" points="129,89 101,89 79,67 101,46 129,46 129,48 102,48 83,67 102,86 129,86 "/>
   <path class="fil2" d="M64 114c-25,0 -46,-21 -46,-47 0,-26 21,-47 46,-47 26,0 47,21 47,47 0,26 -21,47 -47,47zm49 -47c0,-14 -7,-27 -17,-36l0 -3c-3,-3 -8,-5 -12,-7 -6,-3 -13,-4 -20,-4 -6,0 -13,1 -19,4 -5,2 -9,4 -12,7l0 3c-10,9 -17,22 -17,36 0,15 7,27 17,36l0 3c3,3 7,5 12,7 6,3 13,4 19,4 7,0 14,-1 20,-4 4,-2 9,-4 12,-7l0 -3c10,-9 17,-21 17,-36z"/>
   <path class="fil3" d="M89 67c0,14 -11,25 -25,25 -13,0 -24,-11 -24,-25 0,-13 11,-25 24,-25 14,0 25,12 25,25zm-7 -20l0 -1c-2,-2 -4,-3 -7,-4 -3,-2 -7,-2 -11,-2 -3,0 -7,0 -10,2 -3,1 -5,2 -7,4l0 1c-5,5 -9,12 -9,20 0,8 4,15 9,20l0 1c2,2 4,3 7,4 3,2 7,2 10,2 4,0 8,0 11,-2 3,-1 5,-2 7,-4l0 -1c5,-5 9,-12 9,-20 0,-8 -4,-15 -9,-20z"/>
   <path class="fil4" d="M59 73c0,0 0,0 0,0 -1,0 -1,-1 0,-1l10 -11c1,0 1,0 1,0 1,0 1,1 0,1l-10 11c-1,0 -1,0 -1,0z"/>
   <path class="fil4" d="M70 73c0,0 -1,0 -1,0l-10 -11c-1,0 -1,-1 0,-1 0,0 0,0 1,0l10 11c1,0 1,1 0,1 0,0 0,0 0,0z"/>
   <path class="fil5" d="M64 6c21,0 39,12 48,30l4 0c-2,-5 -5,-9 -8,-13l-3 0c-8,-10 -20,-16 -33,-18l-8 -5 -7 5c-13,2 -25,8 -33,18l-3 0c-3,4 -6,8 -8,13l4 0c9,-18 27,-30 47,-30z"/>
   <path class="fil6" d="M112 96c-9,17 -27,29 -48,29 -20,0 -38,-12 -47,-29l-4 0c2,4 5,9 8,13l3 0c8,9 20,16 33,17l7 6 8 -6c13,-1 25,-8 33,-17l3 0c3,-4 6,-9 8,-13l-4 0z"/>
  </g>
 </g>
</svg>
