<?xml version="1.0" encoding="UTF-8"?>
<!DOCTYPE svg PUBLIC "-//W3C//DTD SVG 1.1//EN" "http://www.w3.org/Graphics/SVG/1.1/DTD/svg11.dtd">
<!-- Creator: CorelDRAW X7 -->
<svg xmlns="http://www.w3.org/2000/svg" xml:space="preserve" width="2188px" height="2300px" version="1.1" style="shape-rendering:geometricPrecision; text-rendering:geometricPrecision; image-rendering:optimizeQuality; fill-rule:evenodd; clip-rule:evenodd"
viewBox="0 0 101 106"
 xmlns:xlink="http://www.w3.org/1999/xlink">
 <defs>
  <style type="text/css">
   <![CDATA[
    .fil0 {fill:#979798;fill-rule:nonzero}
    .fil1 {fill:url(#id0)}
    .fil3 {fill:url(#id1)}
    .fil2 {fill:url(#id2)}
   ]]>
  </style>
  <linearGradient id="id0" gradientUnits="userSpaceOnUse" x1="33.7877" y1="55.6151" x2="67.125" y2="55.6151">
   <stop offset="0" style="stop-opacity:1; stop-color:#525252"/>
   <stop offset="1" style="stop-opacity:1; stop-color:#939393"/>
  </linearGradient>
  <linearGradient id="id1" gradientUnits="userSpaceOnUse" xlink:href="#id0" x1="37.7611" y1="11.1125" x2="63.147" y2="11.1125">
  </linearGradient>
  <linearGradient id="id2" gradientUnits="userSpaceOnUse" xlink:href="#id0" x1="33.8291" y1="55.6135" x2="67.078" y2="55.6135">
  </linearGradient>
 </defs>
 <g id="Vrstva_x0020_1">
  <metadata id="CorelCorpID_0Corel-Layer"/>
  <g id="_2610493270080">
   <path class="fil0" d="M50 7c-26,0 -48,22 -48,49 0,26 22,48 48,48 27,0 49,-22 49,-48 0,-27 -22,-49 -49,-49zm0 99c-27,0 -50,-23 -50,-50 0,-28 23,-51 50,-51 28,0 51,23 51,51 0,27 -23,50 -51,50z"/>
   <path class="fil0" d="M43 97c0,0 0,0 0,0 -17,-3 -31,-17 -34,-34 0,-1 0,-1 1,-1 0,-1 1,0 1,0 3,17 16,30 33,33 0,0 0,1 0,1 0,1 0,1 -1,1z"/>
   <path class="fil0" d="M58 97c0,0 -1,0 -1,-1 0,0 0,-1 1,-1 16,-3 29,-16 32,-32l-40 0c0,0 0,0 0,-1 0,0 0,0 0,0l41 0c0,0 0,0 1,0 0,0 0,0 0,1 -3,17 -17,31 -34,34 0,0 0,0 0,0z"/>
   <path class="fil0" d="M91 49c-1,0 -1,0 -1,-1 -3,-16 -16,-29 -32,-32 -1,0 -1,0 -1,-1 0,0 1,-1 1,-1 17,3 31,17 34,34 0,0 -1,1 -1,1 0,0 0,0 0,0z"/>
   <path class="fil0" d="M50 49l-40 0c0,0 0,0 -1,-1 0,0 0,0 0,0 3,-17 17,-31 34,-34 1,0 1,0 1,1 0,0 0,1 0,1 -16,3 -29,15 -33,31l39 0c1,0 1,0 1,1 0,0 0,1 -1,1z"/>
   <path class="fil1" d="M50 41c-8,0 -14,6 -14,15 0,8 6,14 14,14 9,0 15,-6 15,-14 0,-9 -6,-15 -15,-15zm0 31c-9,0 -16,-7 -16,-16 0,-10 7,-17 16,-17 10,0 17,7 17,17 0,9 -7,16 -17,16z"/>
   <path class="fil2" d="M58 12c0,0 0,0 0,0 -1,0 -3,-1 -5,-1 0,0 -1,0 -1,-1 0,0 1,-1 1,0 2,0 4,0 6,0 0,0 0,1 0,1 0,1 0,1 -1,1zm-16 0c0,0 -1,0 -1,-1 0,0 1,-1 1,-1 2,0 4,0 6,0 0,-1 0,0 0,0 1,1 0,1 0,1 -2,0 -4,1 -6,1 0,0 0,0 0,0zm27 3c0,0 0,0 0,0 -2,-1 -4,-1 -5,-2 -1,0 -1,0 -1,-1 0,0 1,-1 1,-1 2,1 4,2 5,2 1,1 1,1 1,2 0,0 -1,0 -1,0zm-37 0c-1,0 -1,0 -1,0 0,-1 0,-1 0,-1 2,-1 4,-2 6,-2 0,-1 1,0 1,0 0,1 0,1 -1,1 -2,1 -3,1 -5,2 0,0 0,0 0,0zm46 6c0,0 0,0 0,0 -2,-1 -3,-3 -5,-3 0,-1 0,-1 0,-2 0,0 1,0 1,0 2,1 3,2 5,3 0,0 0,1 0,1 0,1 0,1 -1,1zm-56 0c0,0 0,0 0,0 -1,-1 -1,-1 0,-2 1,-1 3,-2 4,-3 1,0 1,0 2,0 0,1 0,1 -1,2 -1,1 -3,2 -4,3 0,0 0,0 -1,0zm64 7c0,0 -1,0 -1,0 -1,-1 -2,-3 -3,-4 -1,0 -1,-1 0,-1 0,0 1,0 1,0 1,1 3,3 4,4 0,0 0,1 0,1 -1,0 -1,0 -1,0zm-71 1c0,0 -1,0 -1,-1 0,0 0,0 0,-1 1,-1 2,-3 4,-4 0,0 1,0 1,0 0,0 0,1 0,1 -1,2 -2,3 -4,4 0,1 0,1 0,1zm77 9c-1,0 -1,0 -1,-1 -1,-1 -2,-3 -3,-4 0,-1 0,-1 1,-2 0,0 1,0 1,1 1,1 2,3 3,5 0,0 0,1 -1,1 0,0 0,0 0,0zm-83 0c0,0 0,0 0,0 -1,0 -1,-1 -1,-1 1,-2 2,-4 3,-5 0,-1 1,-1 1,0 1,0 1,0 0,1 0,1 -1,3 -2,4 0,1 -1,1 -1,1zm86 10c0,0 -1,0 -1,-1 0,-1 -1,-3 -1,-5 0,0 0,-1 0,-1 1,0 1,0 2,1 0,1 1,3 1,5 0,1 0,1 -1,1 0,0 0,0 0,0zm-89 0c0,0 0,0 0,0 -1,0 -1,0 -1,-1 0,-1 1,-3 1,-5 0,-1 1,-1 1,-1 1,1 1,1 1,2 0,1 -1,3 -1,5 0,0 -1,0 -1,0zm90 11l0 0c-1,0 -1,0 -1,-1 0,-1 0,-1 0,-2 0,-1 0,-2 0,-3l0 0c0,-1 0,-1 1,-1 0,0 1,0 1,1l0 0c0,1 0,2 0,3 0,1 0,1 0,2 0,1 -1,1 -1,1zm-91 0c0,0 -1,0 -1,0l0 -1c0,-1 0,-1 0,-2 0,-1 0,-2 0,-3 0,-1 1,-1 1,-1 1,0 1,1 1,1 0,1 0,2 0,3 0,0 0,1 0,2l0 0c0,1 0,1 -1,1l0 0zm89 11c0,0 0,0 -1,0 0,0 0,-1 0,-1 0,-2 1,-4 1,-5 0,-1 1,-1 1,-1 1,0 1,0 1,1 0,2 -1,4 -1,5 -1,1 -1,1 -1,1zm-87 0c0,0 0,0 -1,-1 0,-1 -1,-3 -1,-5 0,0 0,-1 1,-1 0,0 1,0 1,1 0,1 1,3 1,5 0,0 0,1 0,1 -1,0 -1,0 -1,0zm82 10c0,0 0,0 0,0 -1,0 -1,-1 -1,-1 1,-2 2,-4 3,-5 0,-1 1,-1 1,-1 1,1 1,1 1,2 -1,1 -2,3 -3,4 0,1 0,1 -1,1zm-77 0c-1,0 -1,0 -1,0 -1,-2 -2,-4 -3,-5 0,-1 0,-1 1,-2 0,0 1,0 1,1 1,2 2,3 3,5 0,0 0,1 -1,1 0,0 0,0 0,0zm71 8c-1,0 -1,0 -1,0 0,0 0,-1 0,-1 1,-1 2,-3 3,-4 1,0 1,-1 2,0 0,0 0,1 0,1 -1,2 -3,3 -4,4 0,0 0,0 0,0zm-65 1c0,0 0,0 0,-1 -1,-1 -3,-2 -4,-4 0,0 0,-1 0,-1 1,0 1,0 2,0 1,1 2,3 3,4 0,0 0,1 0,1 0,1 0,1 -1,1zm56 6c0,0 -1,0 -1,0 0,-1 0,-1 0,-1 2,-1 3,-2 5,-3 0,-1 1,-1 1,0 0,0 0,1 0,1 -1,1 -3,2 -5,3 0,0 0,0 0,0zm-47 0c0,0 0,0 0,0 -2,-1 -3,-2 -5,-3 0,0 0,-1 0,-1 0,-1 1,-1 1,0 2,1 3,2 5,3 0,0 0,0 0,1 0,0 -1,0 -1,0zm37 5c0,0 -1,-1 -1,-1 0,0 0,-1 1,-1 1,-1 3,-1 5,-2 0,0 1,0 1,1 0,0 0,0 -1,1 -1,0 -3,1 -5,2 0,0 0,0 0,0zm-27 0c0,0 0,0 0,0 -2,-1 -4,-1 -5,-2 -1,0 -1,-1 -1,-1 0,-1 1,-1 1,-1 2,1 4,1 5,2 1,0 1,1 1,1 0,1 -1,1 -1,1zm16 2c0,0 -1,-1 -1,-1 0,-1 1,-1 1,-1 2,0 4,0 6,-1 0,0 0,0 1,1 0,0 -1,1 -1,1 -2,0 -4,1 -6,1l0 0zm-5 0l0 0c-2,0 -4,-1 -6,-1 0,0 -1,0 -1,-1 1,0 1,-1 2,-1 1,1 3,1 5,1 0,0 1,0 1,1 0,0 -1,1 -1,1z"/>
   <path class="fil3" d="M63 0c0,0 0,0 -1,0l-23 0c-1,0 -1,0 -1,0 0,1 0,1 0,1l12 21c0,0 0,0 0,0 1,0 1,0 1,0l12 -21c0,0 0,0 0,-1z"/>
  </g>
 </g>
</svg>
