<?xml version="1.0" encoding="UTF-8"?>
<!DOCTYPE svg PUBLIC "-//W3C//DTD SVG 1.1//EN" "http://www.w3.org/Graphics/SVG/1.1/DTD/svg11.dtd">
<!-- Creator: CorelDRAW X7 -->
<svg xmlns="http://www.w3.org/2000/svg" xml:space="preserve" width="2300px" height="1846px" version="1.1" style="shape-rendering:geometricPrecision; text-rendering:geometricPrecision; image-rendering:optimizeQuality; fill-rule:evenodd; clip-rule:evenodd"
viewBox="0 0 541 434"
 xmlns:xlink="http://www.w3.org/1999/xlink">
 <defs>
  <style type="text/css">
   <![CDATA[
    .fil0 {fill:#252626;fill-rule:nonzero}
    .fil1 {fill:#767676;fill-rule:nonzero}
   ]]>
  </style>
 </defs>
 <g id="Vrstva_x0020_1">
  <metadata id="CorelCorpID_0Corel-Layer"/>
  <g id="_2610493236160">
   <path class="fil0" d="M527 355c9,-27 14,-55 14,-85 0,-149 -121,-270 -271,-270 -149,0 -270,121 -270,270 0,31 5,61 15,88l57 -20c-6,-17 -10,-36 -11,-54l-43 2c-1,-4 -1,-9 -1,-13l0 0 44 -1c0,-2 0,-5 0,-8 0,-16 2,-32 6,-47l-42 -11 0 0c2,-4 3,-9 4,-13 0,0 0,0 0,0l0 0 42 13c5,-17 13,-34 24,-50l-37 -24c3,-4 5,-7 8,-11l0 0 35 26c11,-15 24,-29 39,-41l-27 -34 0 0 0 0c3,-2 7,-5 10,-8l26 36c15,-11 31,-20 49,-27l-15 -40c4,-2 8,-3 13,-5 0,0 0,0 0,0l12 42c18,-6 37,-9 56,-9l-2 -44 0 0 0 0c5,0 9,0 14,0l-1 44 1 0c19,0 37,3 54,8l12 -41c0,0 0,0 0,0 5,1 9,2 13,4l-14 41c17,6 34,14 49,25l25 -35c0,0 0,0 0,0 4,2 7,5 11,8l0 0 -27 34c15,11 28,25 39,40l35 -26 0 0c3,3 5,7 8,11l-36 24c10,15 19,32 25,50l41 -14 0 0c1,4 2,9 4,13l-42 12c5,17 7,36 7,55l44 0c0,2 0,5 0,8 0,1 -1,3 -1,5 0,0 0,0 0,0l0 0 -43 -2c-1,19 -4,37 -10,55l57 19z"/>
   <path class="fil0" d="M173 190c24,17 51,40 72,61 6,-8 15,-13 25,-13 11,0 20,5 26,13 22,-22 46,-43 72,-61 -24,-28 -58,-46 -98,-46 -39,0 -74,18 -97,46z"/>
   <path class="fil0" d="M296 290c-6,8 -15,12 -26,12 -10,0 -19,-4 -25,-12 -21,21 -47,44 -72,61 23,28 58,45 97,45 40,0 75,-17 98,-45 -24,-17 -47,-36 -72,-61z"/>
   <path class="fil0" d="M332 270c19,19 40,45 50,60 9,-18 15,-38 15,-60 0,-21 -6,-41 -15,-59 -18,26 -49,58 -50,59z"/>
   <path class="fil0" d="M209 270c-17,-17 -36,-39 -50,-59 -9,18 -15,38 -15,59 0,22 6,42 15,60 16,-24 48,-58 50,-60z"/>
   <path class="fil1" d="M340 220c-21,18 -39,35 -54,50 16,16 32,32 54,51 15,12 33,26 50,35 -9,-16 -24,-35 -36,-50 -11,-13 -21,-25 -32,-36 11,-10 24,-25 32,-35 19,-23 30,-40 36,-51 -11,7 -27,18 -50,36z"/>
   <path class="fil1" d="M151 356c10,-6 27,-17 50,-35 21,-18 36,-33 54,-51 -14,-14 -31,-31 -54,-50 -22,-18 -39,-29 -50,-36 9,17 23,36 35,50 12,14 22,25 33,36 -9,9 -23,24 -33,36 -18,22 -29,39 -35,50z"/>
   <path class="fil1" d="M466 347c-7,17 -16,33 -27,48l49 37c14,-20 26,-41 34,-63l-56 -22z"/>
   <path class="fil1" d="M103 397c-11,-14 -20,-31 -27,-48l-56 23c9,22 21,43 35,62l48 -37z"/>
  </g>
 </g>
</svg>
