<?xml version="1.0" encoding="UTF-8"?>
<!DOCTYPE svg PUBLIC "-//W3C//DTD SVG 1.1//EN" "http://www.w3.org/Graphics/SVG/1.1/DTD/svg11.dtd">
<!-- Creator: CorelDRAW X7 -->
<svg xmlns="http://www.w3.org/2000/svg" xml:space="preserve" width="2300px" height="2300px" version="1.1" style="shape-rendering:geometricPrecision; text-rendering:geometricPrecision; image-rendering:optimizeQuality; fill-rule:evenodd; clip-rule:evenodd"
viewBox="0 0 99 99"
 xmlns:xlink="http://www.w3.org/1999/xlink">
 <defs>
  <style type="text/css">
   <![CDATA[
    .fil4 {fill:#1A1A1A;fill-rule:nonzero}
    .fil3 {fill:#333333;fill-rule:nonzero}
    .fil1 {fill:#4D4D4D;fill-rule:nonzero}
    .fil0 {fill:#666666;fill-rule:nonzero}
    .fil2 {fill:#999999;fill-rule:nonzero}
   ]]>
  </style>
 </defs>
 <g id="Vrstva_x0020_1">
  <metadata id="CorelCorpID_0Corel-Layer"/>
  <g id="_2646644383616">
   <path class="fil0" d="M98 54c0,0 0,1 0,2l0 0c0,-1 1,-2 1,-2l-1 0zm0 4c-1,0 -1,1 -1,2l1 0c0,-1 0,-1 0,-2l0 0zm-1 4c-1,1 -1,1 -1,2l1 0c0,-1 0,-1 0,-2l0 0zm-2 4c0,0 0,1 0,2l0 0c0,-1 1,-1 1,-2l-1 0zm-1 4c0,0 -1,1 -1,2l0 0c1,-1 1,-1 1,-2l0 0zm-2 3c0,1 -1,2 -1,2l0 1c1,-1 1,-2 1,-2l0 -1zm-2 4c-1,1 -1,1 -2,2l1 0c0,-1 1,-1 1,-2l0 0zm-3 3c0,1 -1,1 -1,2l0 0c1,0 1,-1 2,-1l-1 -1zm-3 3c0,1 -1,1 -1,2l0 0c1,0 1,-1 2,-1l-1 -1zm-3 3c0,1 -1,1 -1,2l0 0c1,0 1,-1 2,-1l-1 -1zm-3 3c0,0 -1,1 -2,1l1 1c0,-1 1,-1 1,-2l0 0zm-3 2c-1,1 -2,1 -2,1l0 1c1,-1 1,-1 2,-1l0 -1zm-4 2c-1,1 -1,1 -2,1l0 1c1,-1 2,-1 2,-1l0 -1zm-4 2c-1,0 -1,0 -2,1l0 0c1,0 2,0 2,-1l0 0zm-4 1c-1,0 -1,1 -2,1l0 0c1,0 2,0 2,0l0 -1zm-4 1c-1,0 -1,1 -2,1l0 0c1,0 1,0 2,0l0 -1zm-4 1c-1,0 -1,0 -2,0l0 1c1,0 1,0 2,-1l0 0zm-4 0c-1,0 -1,0 -2,0 0,0 0,0 0,0l0 1c0,0 0,0 0,0 1,0 1,0 2,0l0 -1zm-4 0c-1,0 -2,0 -3,0l0 1c1,0 2,0 3,0l0 -1zm-5 0c0,0 -1,0 -2,-1l0 1c1,0 2,0 2,0l0 0zm-4 -1c0,0 -1,0 -2,-1l0 1c1,0 1,0 2,1l0 -1zm-4 -1c0,0 -1,-1 -2,-1l0 1c1,0 1,0 2,0l0 0zm-4 -2c0,0 -1,0 -2,0l0 0c1,0 1,1 2,1l0 -1zm-3 -1c-1,-1 -2,-1 -2,-1l-1 0c1,0 2,1 2,1l1 0zm-4 -3c-1,0 -1,0 -2,-1l0 1c0,0 1,1 2,1l0 -1zm-4 -2c0,0 -1,-1 -1,-1l0 0c0,1 1,1 1,1l0 0zm-3 -3c0,0 -1,-1 -1,-1l-1 0c1,1 1,1 2,2l0 -1zm-3 -3c0,0 -1,-1 -1,-1l0 0c0,1 0,1 1,2l0 -1zm-2 -3c-1,0 -1,-1 -2,-2l0 1c0,0 1,1 1,1l1 0zm-3 -3c0,-1 0,-1 -1,-2l0 0c0,1 0,1 1,2l0 0zm-2 -4c0,0 0,-1 -1,-2l0 0c0,1 0,2 1,2l0 0zm-2 -4c0,0 0,-1 0,-2l-1 1c0,0 1,1 1,2l0 -1zm-1 -4c0,0 -1,-1 -1,-2l0 1c0,0 0,1 0,2l1 -1zm-1 -4c0,0 -1,-1 -1,-2l0 0c0,1 0,2 0,3l1 -1zm-1 -4c0,0 0,-1 0,-2l-1 0c0,1 0,2 0,2l1 0zm0 -4c0,-1 0,-1 0,-2l-1 0c0,1 0,1 0,2l1 0zm0 -4c0,-1 0,-1 0,-2l-1 0c0,0 0,1 0,2l1 0zm0 -4c0,-1 0,-2 0,-2l0 0c0,0 -1,1 -1,2l1 0zm1 -4c0,-1 0,-2 0,-2l-1 -1c0,1 0,2 0,2l1 1zm1 -4c0,-1 0,-2 0,-2l0 -1c-1,1 -1,2 -1,2l1 1zm1 -4c0,-1 0,-2 1,-2l-1 -1c0,1 0,2 -1,2l1 1zm2 -4c0,-1 0,-2 1,-2l-1 0c0,0 -1,1 -1,1l1 1zm2 -4c0,-1 0,-1 1,-2l-1 0c0,1 0,1 -1,2l1 0zm2 -3c0,-1 1,-2 1,-2l0 0c-1,0 -1,1 -1,1l0 1zm3 -4c0,0 1,-1 1,-1l0 -1c-1,1 -1,1 -2,2l1 0zm2 -3c1,0 1,-1 2,-1l0 -1c-1,1 -1,1 -2,2l0 0zm4 -3c0,0 1,0 1,-1l0 0c-1,0 -1,1 -2,1l1 0zm3 -2c1,0 1,-1 2,-1l-1 -1c0,1 -1,1 -1,2l0 0zm3 -2c1,-1 2,-1 2,-1l0 -1c-1,1 -1,1 -2,1l0 1zm4 -2c1,0 1,-1 2,-1l0 0c-1,0 -1,0 -2,0l0 1zm4 -2c1,0 1,0 2,0l0 -1c-1,0 -1,1 -2,1l0 0zm4 -1c1,0 1,0 2,0l0 -1c-1,0 -1,0 -2,1l0 0zm4 -1c1,0 2,0 2,0l0 -1c0,0 -1,1 -2,1l0 0zm4 0c1,0 2,0 2,0l0 -1c0,0 -1,0 -2,0l0 1zm5 0c0,0 1,0 2,0l0 -1c-1,0 -2,0 -2,0l0 1zm4 0c0,0 1,0 2,0l0 -1c-1,0 -2,0 -2,0l0 1zm4 0c1,0 1,1 2,1l0 -1c-1,0 -1,0 -2,0l0 0 0 0zm4 1c1,0 1,1 2,1l0 -1c-1,0 -1,0 -2,0l0 0zm4 1c1,1 1,1 2,1l0 0c-1,-1 -1,-1 -2,-1l0 0zm4 2c0,0 1,1 2,1l0 -1c-1,0 -1,0 -2,0l0 0zm4 2c0,0 1,1 1,1l1 0c-1,-1 -2,-1 -2,-2l0 1zm3 2c1,1 1,1 2,1l0 0c0,0 -1,-1 -2,-1l0 0zm3 3c1,0 2,1 2,1l0 0c0,-1 -1,-1 -1,-2l-1 1zm4 3c0,0 1,0 1,1l0 0c0,-1 -1,-1 -1,-2l0 1zm2 3c1,0 1,1 2,1l0 0c0,-1 -1,-1 -1,-2l-1 1zm3 3c0,0 1,1 1,2l1 -1c-1,0 -1,-1 -2,-1l0 0zm2 3c1,1 1,2 1,2l1 0c0,-1 -1,-1 -1,-2l-1 0zm2 4c1,1 1,1 1,2l1 0c-1,-1 -1,-2 -1,-2l-1 0zm2 4c0,0 0,1 1,2l0 0c0,-1 0,-2 0,-2l-1 0zm1 4c1,0 1,1 1,2l0 0c0,-1 0,-2 0,-2l-1 0zm1 4c0,1 1,1 1,2l0 0c0,-1 0,-2 0,-2l-1 0zm1 4c0,1 0,1 0,2l1 0c0,-1 0,-1 0,-2l-1 0zm0 4c0,1 0,1 0,1 0,1 0,2 0,2l1 1c0,-1 0,-2 0,-3 0,0 0,0 0,-1l-1 0z"/>
   <path class="fil0" d="M95 49l0 0c0,13 -5,24 -13,33 -9,8 -20,13 -33,13 -12,0 -24,-5 -32,-13 -8,-9 -13,-20 -13,-33 0,-12 5,-24 13,-32 8,-8 20,-13 32,-13 13,0 24,5 33,13 8,8 13,20 13,32l1 0c0,-25 -21,-46 -47,-46 -25,0 -46,21 -46,46 0,26 21,47 46,47 26,0 47,-21 47,-47l-1 0z"/>
   <path class="fil1" d="M94 49c0,13 -5,24 -13,32 -8,8 -19,13 -32,13l0 2c26,0 47,-21 47,-47l-2 0z"/>
   <path class="fil0" d="M5 49c0,-12 5,-23 13,-31 8,-8 19,-13 31,-13l0 -3c-26,0 -47,21 -47,47l3 0 0 0z"/>
   <path class="fil2" d="M80 73c-7,9 -18,15 -31,15 -10,0 -20,-4 -27,-11 -7,-7 -11,-17 -11,-28 0,-6 1,-11 3,-17l-3 -1c-2,6 -4,12 -4,18 0,12 5,23 12,30 8,8 19,13 30,13 14,0 26,-7 34,-17l-3 -2z"/>
   <path class="fil3" d="M20 25c7,-9 17,-14 29,-14 11,0 21,4 28,11 7,7 11,17 11,27 0,3 0,6 -1,8l4 1c0,-3 1,-6 1,-9 0,-11 -5,-22 -13,-30 -7,-7 -18,-12 -30,-12 -13,0 -24,6 -32,15l3 3z"/>
   <path class="fil4" d="M69 74c-5,4 -12,7 -20,7 0,0 0,0 0,0l0 4c0,0 0,0 0,0 9,0 17,-3 23,-8l-3 -3zm-26 6c-7,-1 -14,-5 -18,-11l-4 3c5,6 13,11 21,13l1 -5zm-22 -16c-2,-5 -3,-9 -3,-15 0,-2 0,-4 1,-7l-5 -1c0,3 -1,6 -1,8 0,6 2,12 4,17l4 -2zm0 -27c3,-7 8,-13 14,-16l-2 -4c-7,4 -13,10 -17,18l5 2zm20 -18c3,-1 6,-1 8,-1 5,0 10,1 14,3l1 -4c-4,-2 -9,-4 -15,-4 -3,0 -6,1 -9,2l1 4zm27 5c6,4 10,10 12,18l4 -2c-2,-8 -7,-15 -14,-20l-2 4zm13 24c0,0 0,1 0,1 0,8 -3,15 -7,21l3 2c5,-6 8,-14 8,-23 0,0 0,-1 0,-2l-4 1z"/>
   <path class="fil1" d="M77 52l0 0c0,0 0,1 0,1 1,0 1,0 1,-1 0,0 0,-1 -1,-1 0,0 0,1 0,1zm-1 3l0 0c0,0 0,1 1,1 0,0 1,-1 1,-1l0 0c0,0 0,-1 -1,-1 0,0 -1,0 -1,1zm0 2l0 0c-1,1 0,1 0,1 1,0 1,0 1,0l0 0c0,-1 0,-1 0,-1 -1,0 -1,0 -1,0zm-1 3l0 0c0,0 0,1 0,1 1,0 1,0 1,-1 0,0 0,-1 0,-1 -1,0 -1,0 -1,1zm-1 2l0 0c-1,0 0,1 0,1 0,0 1,0 1,0l0 0c0,-1 0,-1 0,-1 -1,0 -1,0 -1,0zm-2 2l0 0c0,1 0,1 1,2 0,0 0,0 1,-1l0 0c0,0 0,-1 -1,-1 0,0 0,0 -1,0zm-1 3l0 0c-1,0 -1,0 0,1 0,0 1,0 1,0l0 0c0,-1 0,-1 0,-2 0,0 -1,0 -1,1zm-2 1l0 0c0,1 0,1 0,2 0,0 1,0 1,0 0,-1 0,-1 0,-2 0,0 -1,0 -1,0zm-2 2l0 0c0,1 0,1 0,1 0,1 1,1 1,1l0 0c0,-1 0,-1 0,-2 0,0 -1,0 -1,0zm-2 2l0 0c0,0 -1,1 0,1 0,0 1,0 1,0l0 0c0,0 0,-1 0,-1 0,0 -1,0 -1,0zm-2 1l0 0c-1,1 -1,1 -1,1 1,1 1,1 1,1l0 0c1,-1 1,-1 1,-1 0,-1 -1,-1 -1,-1zm-3 1l0 0c0,1 0,1 0,2 0,0 1,0 1,0 0,0 1,-1 0,-1 0,-1 0,-1 -1,-1zm-2 1l0 0c-1,1 -1,1 -1,1 0,1 1,1 1,1 1,0 1,-1 1,-1 0,-1 -1,-1 -1,-1zm-3 1l0 0c0,0 0,1 0,1 0,1 0,1 1,1l0 0c0,0 0,-1 0,-1 0,-1 0,-1 -1,-1zm-2 1l0 0c-1,0 -1,0 -1,0 0,1 0,1 1,1l0 0c0,0 1,0 1,-1 0,0 -1,-1 -1,0zm-3 0l0 0c0,0 -1,0 -1,1 0,0 1,0 1,0l0 0c1,0 1,0 1,0 0,-1 0,-1 -1,-1zm-3 0l0 0c0,0 0,0 0,0 0,1 0,1 0,1l0 0c1,0 1,0 1,0 0,-1 0,-1 -1,-1zm-2 -1l0 0c-1,0 -1,1 -1,1 0,0 0,1 1,1l0 0c0,0 0,0 1,-1 0,0 -1,-1 -1,-1zm-3 0l0 0c0,0 -1,0 -1,0 0,1 0,1 1,1l0 0c0,0 1,0 1,0 0,-1 0,-1 -1,-1zm-2 -1l0 0c-1,0 -1,0 -1,0 0,1 0,1 0,2l0 0c1,0 1,-1 1,-1 0,0 0,-1 0,-1zm-3 -1l0 0c0,0 -1,0 -1,0 0,1 0,1 1,1l0 0c0,1 1,0 1,0 0,0 0,-1 -1,-1zm-2 -1l0 0c0,-1 -1,0 -1,0 0,0 0,1 0,1l0 0c1,0 1,0 1,0 1,-1 0,-1 0,-1zm-2 -2l0 0c-1,0 -1,0 -1,0 -1,1 -1,1 0,1l0 0c0,1 1,1 1,0 0,0 0,-1 0,-1l0 0zm-2 -2l0 0c-1,0 -1,0 -1,0 -1,1 -1,1 0,2l0 0c0,0 1,0 1,0 0,-1 0,-1 0,-2zm-2 -1l0 0c0,-1 -1,-1 -1,-1 -1,1 -1,1 0,2 0,0 1,0 1,0 0,-1 0,-1 0,-1zm-2 -2l0 0c0,-1 0,-1 -1,-1 0,1 0,1 0,1l0 0c0,1 1,1 1,1 1,-1 1,-1 0,-1zm-1 -3l0 0c0,0 -1,0 -1,0 -1,0 -1,1 -1,1 1,1 1,1 2,0 0,0 0,0 0,-1zm-1 -2l0 0c-1,0 -1,-1 -1,0 -1,0 -1,0 -1,1l0 0c0,0 1,0 1,0 1,0 1,-1 1,-1l0 0zm-1 -2l0 0c-1,-1 -1,-1 -1,-1 -1,0 -1,1 -1,1l0 0c0,1 1,1 1,1 1,-1 1,-1 1,-1zm-1 -3l0 0c0,0 -1,-1 -1,-1 -1,1 -1,1 -1,1l0 0c0,1 1,1 1,1 1,0 1,-1 1,-1zm-1 -3l0 0c0,0 0,0 -1,0 0,0 0,0 0,1l0 0c0,0 0,0 1,0 0,0 0,0 0,-1zm0 -2l0 0c0,-1 0,-1 -1,-1 0,0 -1,0 -1,1 0,0 1,1 1,1 1,0 1,-1 1,-1zm0 -3l0 0c0,0 0,-1 -1,-1 0,0 -1,1 -1,1 0,1 1,1 1,1 1,0 1,0 1,-1zm0 -2l0 0c0,-1 0,-1 0,-1 -1,0 -1,0 -1,0l0 0c0,1 0,1 0,1 1,0 1,0 1,0zm1 -3l0 0c0,0 0,-1 -1,-1 0,0 -1,0 -1,1l0 0c0,0 0,0 1,1 0,0 1,-1 1,-1zm1 -3l0 0c0,0 0,0 -1,-1 0,0 -1,0 -1,1l0 0c0,0 0,1 1,1 0,0 0,0 1,-1zm1 -2l0 0c0,0 0,-1 -1,-1 0,0 -1,0 -1,0l0 0c0,1 0,1 0,1 1,1 1,0 2,0zm1 -2l0 0c0,-1 0,-1 0,-1 -1,-1 -1,-1 -2,0l0 0c0,0 0,1 1,1 0,0 1,0 1,0zm1 -3l0 0c1,0 0,0 0,-1 0,0 -1,0 -1,0 0,1 0,1 0,2 0,0 1,0 1,-1zm2 -2l0 0c0,0 0,-1 0,-1 -1,0 -1,0 -1,0l0 0c-1,1 -1,1 0,1 0,1 1,1 1,0zm2 -2l0 0c0,0 0,0 0,-1 -1,0 -1,0 -1,0 -1,1 -1,1 0,1 0,1 0,1 1,0zm2 -1l0 0c0,-1 0,-1 0,-1 0,-1 -1,-1 -1,-1l0 0c-1,1 -1,1 0,2 0,0 0,0 1,0zm2 -2l0 0c0,0 0,-1 0,-1 0,0 -1,0 -1,0l0 0c0,0 0,1 0,1 0,0 1,0 1,0zm2 -1l0 0c1,0 1,-1 1,-1 -1,-1 -1,-1 -2,-1l0 0c0,1 0,1 0,2 0,0 1,0 1,0zm3 -1l0 0c0,0 0,-1 0,-1 0,-1 -1,-1 -1,-1l0 0c0,1 -1,1 0,1 0,1 0,1 1,1zm2 -1l0 0c1,0 1,-1 1,-1 0,0 -1,-1 -1,-1l0 0c-1,1 -1,1 -1,1 0,1 1,1 1,1zm3 -1l0 0c0,0 0,0 0,0 0,-1 0,-1 -1,-1 0,0 0,0 0,1 0,0 0,1 1,0zm2 0l0 0c1,0 1,0 1,-1 0,0 0,-1 -1,0l0 0c0,0 -1,0 -1,0 0,1 1,1 1,1zm3 0l0 0c0,0 1,0 1,-1 0,0 -1,-1 -1,-1l0 0c0,0 -1,1 -1,1 0,1 1,1 1,1zm3 0l0 0c0,0 0,0 0,0 1,-1 0,-1 0,-1l0 0c-1,0 -1,0 -1,0 0,1 0,1 1,1zm2 1l0 0c1,0 1,0 1,-1 0,0 0,-1 0,-1l0 0c-1,0 -1,0 -1,1 -1,0 0,1 0,1zm3 0l0 0c0,1 1,0 1,0 0,-1 0,-1 -1,-1l0 0c0,0 -1,0 -1,0 0,1 0,1 1,1zm2 1l0 0c1,0 1,0 1,0 0,-1 0,-1 0,-1l0 0c-1,0 -1,0 -1,0 0,1 0,1 0,1zm3 1l0 0c0,1 0,1 1,0 0,0 0,-1 -1,-1l0 0c0,0 -1,0 -1,0 0,1 0,1 1,1zm2 2l0 0c0,0 1,0 1,0 0,-1 0,-1 0,-2l0 0c-1,0 -1,0 -1,1 -1,0 -1,1 0,1zm2 1l0 0c0,1 1,1 1,0 0,0 0,-1 0,-1l0 0c0,0 -1,0 -1,0 0,1 0,1 0,1zm2 2l0 0c0,1 1,1 1,0 0,0 0,-1 0,-1l0 0c0,0 -1,0 -1,0 0,0 0,1 0,1zm2 2l0 0c0,1 0,1 1,0 0,0 0,0 0,-1l0 0c0,0 -1,0 -1,0 -1,0 -1,1 0,1zm1 2l0 0c0,1 1,1 1,1 1,-1 1,-1 1,-2l0 0c-1,0 -1,0 -2,0 0,0 0,1 0,1zm2 3l0 0c0,0 0,0 1,0 0,0 0,-1 0,-1l0 0c0,-1 -1,-1 -1,-1 -1,1 -1,1 0,2zm1 2l0 0c0,0 0,1 1,0 0,0 0,0 0,-1 0,0 0,0 -1,0 0,0 -1,1 0,1zm1 2l0 0c0,1 0,1 1,1 0,0 0,-1 0,-1l0 0c0,0 0,-1 -1,-1 0,1 -1,1 0,1zm0 3l0 0c0,0 1,1 1,1 1,0 1,-1 1,-1l0 0c0,-1 -1,-1 -1,-1 -1,0 -1,1 -1,1zm1 3l0 0c0,0 0,0 0,0 1,0 1,0 1,-1l0 0c0,0 0,0 -1,0 0,0 0,0 0,1zm0 2l0 0c0,1 0,1 1,1 0,0 0,0 0,-1l0 0c0,0 0,-1 0,-1 -1,0 -1,1 -1,1zm0 0l0 0c0,1 0,1 1,1 0,0 0,0 0,-1l0 0c0,0 0,0 0,0 -1,0 -1,0 -1,0z"/>
  </g>
 </g>
</svg>
