<?xml version="1.0" encoding="UTF-8"?>
<!DOCTYPE svg PUBLIC "-//W3C//DTD SVG 1.1//EN" "http://www.w3.org/Graphics/SVG/1.1/DTD/svg11.dtd">
<!-- Creator: CorelDRAW X7 -->
<svg xmlns="http://www.w3.org/2000/svg" xml:space="preserve" width="2316px" height="2316px" version="1.1" style="shape-rendering:geometricPrecision; text-rendering:geometricPrecision; image-rendering:optimizeQuality; fill-rule:evenodd; clip-rule:evenodd"
viewBox="0 0 2249 2249"
 xmlns:xlink="http://www.w3.org/1999/xlink">
 <defs>
  <style type="text/css">
   <![CDATA[
    .str3 {stroke:black;stroke-width:0.98513}
    .str4 {stroke:#666666;stroke-width:45.3366}
    .str1 {stroke:black;stroke-width:1.97141}
    .str0 {stroke:black;stroke-width:2.58382}
    .str8 {stroke:#4D4D4D;stroke-width:82.7887;stroke-linecap:round;stroke-linejoin:round}
    .str9 {stroke:black;stroke-width:13.7976;stroke-linecap:round;stroke-linejoin:round}
    .str2 {stroke:black;stroke-width:63.3006;stroke-dasharray:4.369435 7.864983}
    .str5 {stroke:black;stroke-width:15.769;stroke-dasharray:4.369435 44.568235}
    .str6 {stroke:black;stroke-width:1.97141;stroke-dasharray:4.044881 4.044881}
    .str7 {stroke:black;stroke-width:17.7404;stroke-linecap:round;stroke-linejoin:round;stroke-dasharray:4.369435 60.298200}
    .fil0 {fill:none;fill-rule:nonzero}
    .fil1 {fill:black;fill-rule:nonzero}
   ]]>
  </style>
 </defs>
 <g id="Vrstva_x0020_1">
  <metadata id="CorelCorpID_0Corel-Layer"/>
  <g id="_2610573931328">
   <path class="fil0 str0" d="M515 1125c0,336 273,610 610,610 336,0 610,-274 610,-610 0,-337 -274,-610 -610,-610 -337,0 -610,273 -610,610z"/>
   <path class="fil1" d="M1125 582c24,0 49,1 73,5l8 50c-27,-4 -54,-7 -81,-7 -22,0 -43,2 -64,4l-23 -45c28,-5 57,-7 87,-7z"/>
   <path class="fil1" d="M1310 614c23,9 46,19 67,30l-9 50c-24,-13 -48,-24 -74,-34 -21,-7 -41,-13 -62,-18l-5 -51c28,6 56,13 83,23z"/>
   <path class="fil1" d="M1473 709c19,16 37,33 53,50l-26 44c-17,-20 -37,-39 -58,-57 -16,-14 -34,-27 -51,-38l12 -49c24,14 48,31 70,50z"/>
   <path class="fil1" d="M1595 853c12,22 23,44 32,66l-40 32c-9,-25 -21,-50 -34,-74 -11,-18 -23,-36 -36,-53l29 -42c18,22 34,46 49,71z"/>
   <path class="fil1" d="M1659 1030c4,25 7,49 8,73l-48 17c-1,-27 -3,-54 -8,-81 -4,-22 -9,-42 -15,-62l41 -30c10,27 17,54 22,83z"/>
   <path class="fil1" d="M1659 1219c-4,24 -10,48 -17,71l-52 -1c9,-25 16,-51 21,-79 4,-21 6,-42 7,-63l49 -14c0,28 -3,57 -8,86z"/>
   <path class="fil1" d="M1595 1396c-13,21 -26,42 -41,61l-48 -18c17,-21 33,-43 47,-67 10,-19 20,-38 28,-58l51 4c-10,26 -23,53 -37,78z"/>
   <path class="fil1" d="M1473 1540c-19,16 -38,31 -59,44l-38 -34c23,-13 45,-29 66,-47 17,-14 32,-29 47,-44l46 21c-19,21 -39,42 -62,60z"/>
   <path class="fil1" d="M1310 1635c-23,8 -47,15 -70,20l-25 -45c26,-4 53,-12 79,-21 20,-7 39,-16 58,-26l37 36c-25,14 -51,26 -79,36z"/>
   <path class="fil1" d="M1125 1667c-25,0 -50,-1 -73,-5l-9 -50c27,4 54,7 82,7 21,0 43,-2 63,-4l23 46c-28,4 -57,6 -86,6z"/>
   <path class="fil1" d="M939 1635c-23,-9 -46,-19 -67,-30l9 -50c24,13 48,24 75,34 20,7 40,13 61,18l5 51c-28,-6 -56,-13 -83,-23z"/>
   <path class="fil1" d="M776 1540c-19,-16 -37,-33 -53,-50l26 -44c17,20 37,39 58,57 16,14 34,27 51,38l-12 50c-24,-15 -48,-32 -70,-51z"/>
   <path class="fil1" d="M654 1396c-12,-21 -23,-43 -32,-66l40 -32c9,25 21,50 35,74 10,18 22,36 35,53l-29 42c-17,-22 -34,-46 -49,-71z"/>
   <path class="fil1" d="M590 1219c-4,-25 -7,-49 -8,-73l48 -17c1,27 3,54 8,81 4,22 9,42 15,63l-41 29c-10,-26 -17,-54 -22,-83z"/>
   <path class="fil1" d="M590 1030c4,-24 10,-48 17,-71l52 1c-9,25 -16,51 -21,79 -4,21 -6,42 -7,63l-49 14c0,-28 3,-57 8,-86z"/>
   <path class="fil1" d="M654 853c13,-21 26,-42 41,-61l48 18c-17,21 -33,43 -46,67 -11,19 -21,38 -29,58l-51 -4c10,-26 23,-52 37,-78z"/>
   <path class="fil1" d="M776 709c19,-16 38,-31 59,-43l39 33c-24,13 -46,29 -67,47 -17,14 -32,29 -46,44l-47 -21c19,-21 39,-41 62,-60z"/>
   <path class="fil1" d="M939 614c23,-8 47,-15 70,-20l25 45c-26,5 -52,12 -78,21 -21,8 -40,16 -59,26l-37 -36c25,-13 51,-26 79,-36z"/>
   <path class="fil0 str1" d="M1125 582c24,0 49,1 73,5"/>
   <line class="fil0 str1" x1="1198" y1="587" x2="1206" y2= "637" />
   <path class="fil0 str1" d="M1206 637c-27,-4 -54,-7 -81,-7 -22,0 -43,2 -64,4"/>
   <line class="fil0 str1" x1="1061" y1="634" x2="1038" y2= "589" />
   <path class="fil0 str1" d="M1038 589c28,-5 57,-7 87,-7"/>
   <path class="fil0 str1" d="M1310 614c23,9 46,19 67,30"/>
   <line class="fil0 str1" x1="1377" y1="644" x2="1368" y2= "694" />
   <path class="fil0 str1" d="M1368 694c-24,-13 -48,-24 -74,-34 -21,-7 -41,-13 -62,-18"/>
   <line class="fil0 str1" x1="1232" y1="642" x2="1227" y2= "591" />
   <path class="fil0 str1" d="M1227 591c28,6 56,13 83,23"/>
   <path class="fil0 str1" d="M1473 709c19,16 37,33 53,50"/>
   <line class="fil0 str1" x1="1526" y1="759" x2="1500" y2= "803" />
   <path class="fil0 str1" d="M1500 803c-17,-20 -37,-39 -58,-57 -16,-14 -34,-27 -51,-38"/>
   <line class="fil0 str1" x1="1391" y1="708" x2="1403" y2= "659" />
   <path class="fil0 str1" d="M1403 659c24,14 48,31 70,50"/>
   <path class="fil0 str1" d="M1595 853c12,22 23,44 32,66"/>
   <line class="fil0 str1" x1="1627" y1="919" x2="1587" y2= "951" />
   <path class="fil0 str1" d="M1587 951c-9,-25 -21,-50 -34,-74 -11,-18 -23,-36 -36,-53"/>
   <line class="fil0 str1" x1="1517" y1="824" x2="1546" y2= "782" />
   <path class="fil0 str1" d="M1546 782c18,22 34,46 49,71"/>
   <path class="fil0 str1" d="M1659 1030c4,25 7,49 8,73"/>
   <line class="fil0 str1" x1="1667" y1="1103" x2="1619" y2= "1120" />
   <path class="fil0 str1" d="M1619 1120c-1,-27 -3,-54 -8,-81 -4,-22 -9,-42 -15,-62"/>
   <line class="fil0 str1" x1="1596" y1="977" x2="1637" y2= "947" />
   <path class="fil0 str1" d="M1637 947c10,27 17,54 22,83"/>
   <path class="fil0 str1" d="M1659 1219c-4,24 -10,48 -17,71"/>
   <line class="fil0 str1" x1="1642" y1="1290" x2="1590" y2= "1289" />
   <path class="fil0 str1" d="M1590 1289c9,-25 16,-51 21,-79 4,-21 6,-42 7,-63"/>
   <line class="fil0 str1" x1="1618" y1="1147" x2="1667" y2= "1133" />
   <path class="fil0 str1" d="M1667 1133c0,28 -3,57 -8,86"/>
   <path class="fil0 str1" d="M1595 1396c-13,21 -26,42 -41,61"/>
   <line class="fil0 str1" x1="1554" y1="1457" x2="1506" y2= "1439" />
   <path class="fil0 str1" d="M1506 1439c17,-21 33,-43 47,-67 10,-19 20,-38 28,-58"/>
   <line class="fil0 str1" x1="1581" y1="1314" x2="1632" y2= "1318" />
   <path class="fil0 str1" d="M1632 1318c-10,26 -23,53 -37,78"/>
   <path class="fil0 str1" d="M1473 1540c-19,16 -38,31 -59,44"/>
   <line class="fil0 str1" x1="1414" y1="1584" x2="1376" y2= "1550" />
   <path class="fil0 str1" d="M1376 1550c23,-13 45,-29 66,-47 17,-14 32,-29 47,-44"/>
   <line class="fil0 str1" x1="1489" y1="1459" x2="1535" y2= "1480" />
   <path class="fil0 str1" d="M1535 1480c-19,21 -39,42 -62,60"/>
   <path class="fil0 str1" d="M1310 1635c-23,8 -47,15 -70,20"/>
   <line class="fil0 str1" x1="1240" y1="1655" x2="1215" y2= "1610" />
   <path class="fil0 str1" d="M1215 1610c26,-4 53,-12 79,-21 20,-7 39,-16 58,-26"/>
   <line class="fil0 str1" x1="1352" y1="1563" x2="1389" y2= "1599" />
   <path class="fil0 str1" d="M1389 1599c-25,14 -51,26 -79,36"/>
   <path class="fil0 str1" d="M1125 1667c-25,0 -50,-1 -73,-5"/>
   <line class="fil0 str1" x1="1052" y1="1662" x2="1043" y2= "1612" />
   <path class="fil0 str1" d="M1043 1612c27,4 54,7 82,7 21,0 43,-2 63,-4"/>
   <line class="fil0 str1" x1="1188" y1="1615" x2="1211" y2= "1661" />
   <path class="fil0 str1" d="M1211 1661c-28,4 -57,6 -86,6"/>
   <path class="fil0 str1" d="M939 1635c-23,-9 -46,-19 -67,-30"/>
   <line class="fil0 str1" x1="872" y1="1605" x2="881" y2= "1555" />
   <path class="fil0 str1" d="M881 1555c24,13 48,24 75,34 20,7 40,13 61,18"/>
   <line class="fil0 str1" x1="1017" y1="1607" x2="1022" y2= "1658" />
   <path class="fil0 str1" d="M1022 1658c-28,-6 -56,-13 -83,-23"/>
   <path class="fil0 str1" d="M776 1540c-19,-16 -37,-33 -53,-50"/>
   <line class="fil0 str1" x1="723" y1="1490" x2="749" y2= "1446" />
   <path class="fil0 str1" d="M749 1446c17,20 37,39 58,57 16,14 34,27 51,38"/>
   <line class="fil0 str1" x1="858" y1="1541" x2="846" y2= "1591" />
   <path class="fil0 str1" d="M846 1591c-24,-15 -48,-32 -70,-51"/>
   <path class="fil0 str1" d="M654 1396c-12,-21 -23,-43 -32,-66"/>
   <line class="fil0 str1" x1="622" y1="1330" x2="662" y2= "1298" />
   <path class="fil0 str1" d="M662 1298c9,25 21,50 35,74 10,18 22,36 35,53"/>
   <line class="fil0 str1" x1="732" y1="1425" x2="703" y2= "1467" />
   <path class="fil0 str1" d="M703 1467c-17,-22 -34,-46 -49,-71"/>
   <path class="fil0 str1" d="M590 1219c-4,-25 -7,-49 -8,-73"/>
   <line class="fil0 str1" x1="582" y1="1146" x2="630" y2= "1129" />
   <path class="fil0 str1" d="M630 1129c1,27 3,54 8,81 4,22 9,42 15,63"/>
   <line class="fil0 str1" x1="653" y1="1273" x2="612" y2= "1302" />
   <path class="fil0 str1" d="M612 1302c-10,-26 -17,-54 -22,-83"/>
   <path class="fil0 str1" d="M590 1030c4,-24 10,-48 17,-71"/>
   <line class="fil0 str1" x1="607" y1="959" x2="659" y2= "960" />
   <path class="fil0 str1" d="M659 960c-9,25 -16,51 -21,79 -4,21 -6,42 -7,63"/>
   <line class="fil0 str1" x1="631" y1="1102" x2="582" y2= "1116" />
   <path class="fil0 str1" d="M582 1116c0,-28 3,-57 8,-86"/>
   <path class="fil0 str1" d="M654 853c13,-21 26,-42 41,-61"/>
   <line class="fil0 str1" x1="695" y1="792" x2="743" y2= "810" />
   <path class="fil0 str1" d="M743 810c-17,21 -33,43 -46,67 -11,19 -21,38 -29,58"/>
   <line class="fil0 str1" x1="668" y1="935" x2="617" y2= "931" />
   <path class="fil0 str1" d="M617 931c10,-26 23,-52 37,-78"/>
   <path class="fil0 str1" d="M776 709c19,-16 38,-31 59,-43"/>
   <line class="fil0 str1" x1="835" y1="666" x2="874" y2= "699" />
   <path class="fil0 str1" d="M874 699c-24,13 -46,29 -67,47 -17,14 -32,29 -46,44"/>
   <line class="fil0 str1" x1="761" y1="790" x2="714" y2= "769" />
   <path class="fil0 str1" d="M714 769c19,-21 39,-41 62,-60"/>
   <path class="fil0 str1" d="M939 614c23,-8 47,-15 70,-20"/>
   <line class="fil0 str1" x1="1009" y1="594" x2="1034" y2= "639" />
   <path class="fil0 str1" d="M1034 639c-26,5 -52,12 -78,21 -21,8 -40,16 -59,26"/>
   <line class="fil0 str1" x1="897" y1="686" x2="860" y2= "650" />
   <path class="fil0 str1" d="M860 650c25,-13 51,-26 79,-36"/>
   <g>
    <path class="fil0 str2" d="M453 1125c0,370 301,671 672,671 370,0 671,-301 671,-671 0,-371 -301,-672 -671,-672 -371,0 -672,301 -672,672z"/>
   </g>
   <path class="fil0 str3" d="M415 1125c0,-393 317,-710 710,-710 392,0 709,317 709,710 0,392 -317,709 -709,709 -393,0 -710,-317 -710,-709z"/>
   <path class="fil0 str4" d="M1125 347c-430,0 -778,348 -778,778"/>
   <path class="fil0 str4" d="M1125 1902c429,0 777,-348 777,-777"/>
   <g>
    <path class="fil0 str5" d="M291 1125c0,460 373,833 834,833 460,0 833,-373 833,-833 0,-461 -373,-834 -833,-834 -461,0 -834,373 -834,834z"/>
   </g>
   <g>
    <path class="fil0 str6" d="M262 1125c0,476 386,862 863,862 476,0 862,-386 862,-862 0,-477 -386,-863 -862,-863 -477,0 -863,386 -863,863z"/>
   </g>
   <g>
    <path class="fil0 str7" d="M226 1125c0,496 403,898 899,898 496,0 898,-402 898,-898 0,-496 -402,-899 -898,-899 -496,0 -899,403 -899,899z"/>
   </g>
   <path class="fil0 str8" d="M133 1125c0,-548 444,-992 992,-992 547,0 991,444 991,992 0,547 -444,991 -991,991 -548,0 -992,-444 -992,-991z"/>
   <g>
    <path class="fil0 str1" d="M1125 2157c139,0 274,-27 402,-81 123,-52 233,-126 328,-221 95,-95 169,-205 221,-328 54,-128 81,-263 81,-402 0,-140 -27,-275 -81,-403 -52,-123 -126,-233 -221,-328 -95,-95 -205,-169 -328,-221 -128,-54 -263,-81 -402,-81 -140,0 -275,27 -403,81 -123,52 -233,126 -328,221 -95,95 -169,205 -221,328 -54,128 -81,263 -81,403 0,139 27,274 81,402 52,123 126,233 221,328 95,95 205,169 328,221 128,54 263,81 403,81z"/>
    <path class="fil0 str1" d="M1125 174c523,0 950,427 950,951 0,523 -427,950 -950,950 -524,0 -951,-427 -951,-950 0,-524 427,-951 951,-951z"/>
   </g>
   <path class="fil0 str1" d="M75 1125c0,-580 470,-1050 1050,-1050 579,0 1049,470 1049,1050 0,579 -470,1049 -1049,1049 -580,0 -1050,-470 -1050,-1049z"/>
   <g>
    <g>
     <path class="fil0 str1" d="M936 86c61,-11 124,-17 188,-17 67,0 131,7 194,18"/>
    </g>
    <g>
     <path class="fil0 str1" d="M1480 131c59,21 116,48 172,80 57,33 110,70 159,112"/>
    </g>
    <g>
     <path class="fil0 str1" d="M1929 442c40,47 77,99 109,155 33,57 60,116 82,176"/>
    </g>
    <g>
     <path class="fil0 str1" d="M2163 936c11,61 17,124 17,188 0,67 -6,131 -18,194"/>
    </g>
    <g>
     <path class="fil0 str1" d="M2118 1480c-21,59 -47,116 -80,172 -33,57 -70,110 -112,159"/>
    </g>
    <g>
     <path class="fil0 str1" d="M1807 1929c-47,40 -99,77 -155,109 -57,33 -116,60 -176,82"/>
    </g>
    <g>
     <path class="fil0 str1" d="M1313 2163c-61,11 -124,17 -188,17 -66,0 -131,-6 -194,-18"/>
    </g>
    <g>
     <path class="fil0 str1" d="M769 2118c-59,-21 -116,-47 -172,-80 -57,-33 -110,-70 -159,-112"/>
    </g>
    <g>
     <path class="fil0 str1" d="M320 1807c-40,-47 -77,-99 -109,-155 -33,-57 -60,-116 -82,-176"/>
    </g>
    <g>
     <path class="fil0 str1" d="M86 1313c-11,-61 -17,-124 -17,-188 0,-66 7,-131 18,-194"/>
    </g>
    <g>
     <path class="fil0 str1" d="M131 769c21,-59 48,-116 80,-172 33,-57 70,-110 112,-159"/>
    </g>
    <g>
     <path class="fil0 str1" d="M442 320c47,-40 99,-77 155,-109 57,-33 116,-60 176,-82"/>
    </g>
   </g>
   <g>
    <g>
     <path class="fil0 str1" d="M935 82c61,-12 125,-17 189,-17 67,0 132,6 195,17"/>
    </g>
    <g>
     <path class="fil0 str1" d="M1482 126c59,21 116,48 172,80 58,34 111,72 160,113"/>
    </g>
    <g>
     <path class="fil0 str1" d="M1933 439c40,47 77,99 110,155 33,58 60,117 81,178"/>
    </g>
    <g>
     <path class="fil0 str1" d="M2168 935c11,61 17,125 17,189 0,67 -7,132 -18,195"/>
    </g>
    <g>
     <path class="fil0 str1" d="M2123 1482c-21,59 -48,116 -80,172 -34,58 -71,111 -113,160"/>
    </g>
    <g>
     <path class="fil0 str1" d="M1810 1933c-47,40 -99,77 -155,110 -58,33 -117,60 -178,81"/>
    </g>
    <g>
     <path class="fil0 str1" d="M1314 2168c-61,11 -125,17 -189,17 -67,0 -132,-7 -195,-18"/>
    </g>
    <g>
     <path class="fil0 str1" d="M767 2123c-59,-21 -116,-48 -172,-80 -58,-34 -111,-71 -160,-113"/>
    </g>
    <g>
     <path class="fil0 str1" d="M316 1810c-40,-47 -77,-99 -109,-155 -34,-58 -61,-117 -82,-178"/>
    </g>
    <g>
     <path class="fil0 str1" d="M82 1314c-12,-61 -17,-125 -18,-189 1,-67 7,-132 18,-195"/>
    </g>
    <g>
     <path class="fil0 str1" d="M126 767c21,-59 48,-116 80,-172 34,-58 72,-111 113,-160"/>
    </g>
    <g>
     <path class="fil0 str1" d="M439 316c47,-40 99,-77 155,-109 58,-34 117,-61 178,-82"/>
    </g>
   </g>
   <path class="fil0 str9" d="M7 1125c0,-618 500,-1118 1118,-1118 617,0 1117,500 1117,1118 0,617 -500,1117 -1117,1117 -618,0 -1118,-500 -1118,-1117z"/>
  </g>
 </g>
</svg>
