<?xml version="1.0" encoding="UTF-8"?>
<!DOCTYPE svg PUBLIC "-//W3C//DTD SVG 1.1//EN" "http://www.w3.org/Graphics/SVG/1.1/DTD/svg11.dtd">
<!-- Creator: CorelDRAW X7 -->
<svg xmlns="http://www.w3.org/2000/svg" xml:space="preserve" width="2290px" height="2300px" version="1.1" style="shape-rendering:geometricPrecision; text-rendering:geometricPrecision; image-rendering:optimizeQuality; fill-rule:evenodd; clip-rule:evenodd"
viewBox="0 0 1504 1511"
 xmlns:xlink="http://www.w3.org/1999/xlink">
 <defs>
  <style type="text/css">
   <![CDATA[
    .fil7 {fill:url(#id0)}
    .fil0 {fill:url(#id1)}
    .fil6 {fill:url(#id2)}
    .fil2 {fill:url(#id3)}
    .fil3 {fill:url(#id4)}
    .fil5 {fill:url(#id5)}
    .fil4 {fill:url(#id6)}
    .fil1 {fill:url(#id7)}
   ]]>
  </style>
  <linearGradient id="id0" gradientUnits="userSpaceOnUse" x1="-0" y1="755.435" x2="1504.39" y2="755.435">
   <stop offset="0" style="stop-opacity:1; stop-color:#525252"/>
   <stop offset="1" style="stop-opacity:1; stop-color:#939393"/>
  </linearGradient>
  <linearGradient id="id1" gradientUnits="userSpaceOnUse" xlink:href="#id0" x1="442.416" y1="1294.77" x2="466.779" y2="1294.77">
  </linearGradient>
  <linearGradient id="id2" gradientUnits="userSpaceOnUse" xlink:href="#id0" x1="1361.1" y1="780.743" x2="1374.25" y2="780.743">
  </linearGradient>
  <linearGradient id="id3" gradientUnits="userSpaceOnUse" xlink:href="#id0" x1="700.594" y1="1294.8" x2="797.946" y2="1294.8">
  </linearGradient>
  <linearGradient id="id4" gradientUnits="userSpaceOnUse" xlink:href="#id0" x1="1043" y1="1276.67" x2="1066.03" y2="1276.67">
  </linearGradient>
  <linearGradient id="id5" gradientUnits="userSpaceOnUse" xlink:href="#id0" x1="1199.5" y1="1028.68" x2="1243.64" y2="1028.68">
  </linearGradient>
  <linearGradient id="id6" gradientUnits="userSpaceOnUse" xlink:href="#id0" x1="1081.07" y1="1258.59" x2="1091.4" y2="1258.59">
  </linearGradient>
  <linearGradient id="id7" gradientUnits="userSpaceOnUse" xlink:href="#id0" x1="468.895" y1="1294.8" x2="482.331" y2="1294.8">
  </linearGradient>
 </defs>
 <g id="Vrstva_x0020_1">
  <metadata id="CorelCorpID_0Corel-Layer"/>
  <g id="_2647148369296">
   <path class="fil0" d="M476 1321l-42 0c-15,0 -26,-12 -26,-26 0,-15 11,-26 26,-26l42 0c14,0 25,11 25,26 0,14 -11,26 -25,26z"/>
   <path class="fil1" d="M450 1295c0,-14 11,-26 26,-26 14,0 25,12 25,26 0,14 -11,26 -25,26 -15,0 -26,-12 -26,-26z"/>
   <path class="fil2" d="M632 1321l-78 0c-14,0 -26,-12 -26,-26 0,-14 12,-26 26,-26l78 0c14,0 26,12 26,26 0,14 -12,26 -26,26zm156 0l-78 0c-14,0 -26,-12 -26,-26 0,-14 12,-26 26,-26l78 0c15,0 26,12 26,26 0,14 -11,26 -26,26zm157 0l-78 0c-15,0 -26,-12 -26,-26 0,-14 11,-26 26,-26l78 0c14,0 26,12 26,26 0,14 -12,26 -26,26z"/>
   <path class="fil3" d="M1065 1321l-42 0c-14,0 -26,-12 -26,-26 0,-15 12,-26 26,-26l27 0 14 -24c7,-12 23,-16 35,-9 13,8 17,23 10,36l-22 36c-5,8 -13,13 -22,13z"/>
   <path class="fil4" d="M1073 1281c-8,-5 -13,-14 -13,-22 0,-5 1,-9 4,-14 7,-12 23,-16 35,-9 8,5 13,14 13,23 0,4 -1,9 -4,13 -4,8 -13,12 -22,12 -4,0 -9,-1 -13,-3z"/>
   <path class="fil5" d="M1280 956c-5,0 -10,-1 -13,-4 -6,-3 -11,-9 -12,-15 -2,-7 -1,-14 2,-20l39 -66c5,-7 13,-12 22,-12 5,0 10,1 13,3 8,5 13,13 13,22 0,5 -1,10 -3,14l-39 65c-5,8 -13,13 -22,13zm-78 131l0 0c-4,0 -9,-1 -13,-3 -12,-7 -16,-23 -9,-36l39 -65c4,-8 13,-13 22,-13 5,0 9,1 13,4 8,4 13,13 13,22 0,4 -1,9 -4,13l-38 66c-5,8 -14,12 -23,12zm-77 132c-5,0 -9,-2 -13,-4 -6,-3 -10,-9 -12,-16 -2,-6 -1,-13 3,-19l38 -66c5,-8 14,-13 23,-13 4,0 9,2 13,4 8,5 12,13 12,22 0,5 -1,9 -3,13l-39 66c-4,8 -13,13 -22,13z"/>
   <path class="fil6" d="M1357 825c-5,0 -9,-1 -13,-4 -12,-7 -16,-23 -9,-35l21 -36c7,-13 23,-17 35,-10 13,8 17,23 10,36l-22 36c-5,8 -13,13 -22,13z"/>
   <path class="fil7" d="M752 649c59,0 107,48 107,106 0,59 -48,107 -107,107 -59,0 -106,-48 -106,-107 0,-58 47,-106 106,-106zm348 710l-696 0 -333 -578 525 0c11,67 64,120 130,131l0 70c0,14 12,26 26,26 14,0 26,-12 26,-26l0 -70c67,-11 119,-64 130,-131l71 0c14,0 26,-11 26,-26 0,-14 -12,-25 -26,-25l-71 0c-11,-67 -63,-120 -130,-131l0 -70c0,-14 -12,-26 -26,-26 -14,0 -26,12 -26,26l0 70c-66,11 -119,64 -130,131l-525 0 88 -154 65 0c25,0 49,-14 61,-36l145 -257c11,-19 31,-31 54,-31l195 0c13,0 26,-6 36,-15l84 -85 301 0 349 603 -349 604zm401 -616l-363 -630c-5,-8 -13,-12 -23,-12l-239 0c-12,-58 -63,-101 -124,-101 -61,0 -112,43 -124,101l-239 0c-9,0 -18,4 -22,12l-364 630c0,0 0,1 -1,2l0 1c-1,1 -1,2 -1,4l-1 1c0,3 0,6 0,9l1 1c0,2 0,3 1,4l0 1c1,1 1,2 1,2l364 629c4,8 13,13 22,13l239 0c12,58 63,101 124,101 61,0 112,-43 124,-101l239 0c10,0 18,-5 23,-13l363 -629c5,-8 5,-17 0,-25z"/>
  </g>
 </g>
</svg>
