<?xml version="1.0" encoding="UTF-8"?>
<!DOCTYPE svg PUBLIC "-//W3C//DTD SVG 1.1//EN" "http://www.w3.org/Graphics/SVG/1.1/DTD/svg11.dtd">
<!-- Creator: CorelDRAW X7 -->
<svg xmlns="http://www.w3.org/2000/svg" xml:space="preserve" width="2300px" height="2002px" version="1.1" style="shape-rendering:geometricPrecision; text-rendering:geometricPrecision; image-rendering:optimizeQuality; fill-rule:evenodd; clip-rule:evenodd"
viewBox="0 0 541 471"
 xmlns:xlink="http://www.w3.org/1999/xlink">
 <defs>
  <style type="text/css">
   <![CDATA[
    .fil0 {fill:#4D4D4D}
    .fil3 {fill:url(#id0)}
    .fil4 {fill:url(#id1)}
    .fil9 {fill:url(#id2)}
    .fil2 {fill:url(#id3)}
    .fil1 {fill:url(#id4)}
    .fil6 {fill:url(#id5)}
    .fil8 {fill:url(#id6)}
    .fil5 {fill:url(#id7)}
    .fil7 {fill:url(#id8)}
   ]]>
  </style>
  <linearGradient id="id0" gradientUnits="userSpaceOnUse" x1="300.927" y1="309.084" x2="385.505" y2="309.084">
   <stop offset="0" style="stop-opacity:1; stop-color:#525252"/>
   <stop offset="1" style="stop-opacity:1; stop-color:#939393"/>
  </linearGradient>
  <linearGradient id="id1" gradientUnits="userSpaceOnUse" xlink:href="#id0" x1="300.927" y1="163.48" x2="385.505" y2="163.48">
  </linearGradient>
  <linearGradient id="id2" gradientUnits="userSpaceOnUse" xlink:href="#id0" x1="224.237" y1="235.437" x2="316.607" y2="235.437">
  </linearGradient>
  <linearGradient id="id3" gradientUnits="userSpaceOnUse" xlink:href="#id0" x1="155.292" y1="309.084" x2="239.917" y2="309.084">
  </linearGradient>
  <linearGradient id="id4" gradientUnits="userSpaceOnUse" xlink:href="#id0" x1="155.292" y1="163.48" x2="239.917" y2="163.48">
  </linearGradient>
  <linearGradient id="id5" gradientUnits="userSpaceOnUse" xlink:href="#id0" x1="394.629" y1="238.029" x2="427.364" y2="238.029">
  </linearGradient>
  <linearGradient id="id6" gradientUnits="userSpaceOnUse" xlink:href="#id0" x1="264.76" y1="376.822" x2="274.421" y2="376.822">
  </linearGradient>
  <linearGradient id="id7" gradientUnits="userSpaceOnUse" xlink:href="#id0" x1="123.906" y1="235.437" x2="137.689" y2="235.437">
  </linearGradient>
  <linearGradient id="id8" gradientUnits="userSpaceOnUse" xlink:href="#id0" x1="267.373" y1="94.0525" x2="277.034" y2="94.0525">
  </linearGradient>
 </defs>
 <g id="Vrstva_x0020_1">
  <metadata id="CorelCorpID_0Corel-Layer"/>
  <g id="_2646644401728">
   <path class="fil0" d="M420 381c-6,0 -11,3 -14,8l-18 28c-3,5 -9,8 -14,8l-26 0c-4,0 -8,2 -11,5l-23 22 -90 0 -22 -22c-3,-3 -8,-5 -12,-5l-26 0c-5,0 -10,-3 -13,-8l-19 -28c-3,-5 -8,-8 -13,-8l-15 0 -46 -80 7 -23c1,-4 1,-8 -1,-12l-12 -23c-3,-5 -3,-10 0,-15l17 -30c3,-5 3,-11 0,-16l-9 -16 46 -79 13 0c5,0 10,-3 13,-7l19 -29c3,-5 8,-8 13,-8l26 0c4,0 9,-2 12,-5l19 -19 96 0 20 19c3,3 7,5 11,5l26 0c5,0 11,3 14,8l18 29c3,4 8,7 14,7l15 0 45 77 -8 16c-3,5 -3,11 0,15l17 30c3,5 3,11 0,16l-12 22c-2,4 -2,9 -1,13l7 24 -46 81 -17 0zm120 -150l-131 -226c-2,-3 -5,-5 -8,-5l-261 0c-3,0 -7,2 -8,5l-131 226c-1,3 -1,6 0,9l131 226c1,3 5,5 8,5l261 0c3,0 6,-2 8,-5l131 -226c1,-3 1,-6 0,-9z"/>
   <path class="fil1" d="M165 207c-6,0 -10,-5 -10,-10l0 -67c0,-6 4,-10 10,-10l66 0c5,0 9,4 9,10 0,5 -4,9 -9,9l-57 0 0 58c0,5 -4,10 -9,10z"/>
   <path class="fil2" d="M231 351l-66 0c-6,0 -10,-5 -10,-10l0 -64c0,-5 4,-9 10,-9 5,0 9,4 9,9l0 55 57 0c5,0 9,4 9,9 0,5 -4,10 -9,10z"/>
   <path class="fil3" d="M376 351l-66 0c-5,0 -9,-5 -9,-10 0,-5 4,-9 9,-9l57 0 0 -55c0,-5 4,-9 9,-9 5,0 10,4 10,9l0 64c0,5 -5,10 -10,10z"/>
   <path class="fil4" d="M376 207c-5,0 -9,-5 -9,-10l0 -58 -57 0c-5,0 -9,-4 -9,-9 0,-6 4,-10 9,-10l66 0c5,0 10,4 10,10l0 67c0,5 -5,10 -10,10z"/>
   <path class="fil5" d="M165 245l-68 0c-5,0 -9,-4 -9,-10 0,-5 4,-9 9,-9l68 0c5,0 9,4 9,9 0,6 -4,10 -9,10z"/>
   <path class="fil6" d="M445 247l-68 0c-5,0 -9,-4 -9,-9 0,-5 4,-9 9,-9l68 0c5,0 9,4 9,9 0,5 -4,9 -9,9z"/>
   <path class="fil7" d="M272 137c-5,0 -9,-4 -9,-9l0 -68c0,-5 4,-9 9,-9 5,0 9,4 9,9l0 68c0,5 -4,9 -9,9z"/>
   <path class="fil8" d="M270 420c-6,0 -10,-4 -10,-9l0 -68c0,-5 4,-9 10,-9 5,0 9,4 9,9l0 68c0,5 -4,9 -9,9z"/>
   <path class="fil9" d="M270 208c-15,0 -27,12 -27,27 0,16 12,28 27,28 16,0 28,-12 28,-28 0,-15 -12,-27 -28,-27zm0 74c-25,0 -46,-21 -46,-47 0,-25 21,-46 46,-46 26,0 47,21 47,46 0,26 -21,47 -47,47z"/>
  </g>
 </g>
</svg>
