<?xml version="1.0" encoding="UTF-8"?>
<!DOCTYPE svg PUBLIC "-//W3C//DTD SVG 1.1//EN" "http://www.w3.org/Graphics/SVG/1.1/DTD/svg11.dtd">
<!-- Creator: CorelDRAW X7 -->
<svg xmlns="http://www.w3.org/2000/svg" xml:space="preserve" width="2300px" height="1903px" version="1.1" style="shape-rendering:geometricPrecision; text-rendering:geometricPrecision; image-rendering:optimizeQuality; fill-rule:evenodd; clip-rule:evenodd"
viewBox="0 0 327 270"
 xmlns:xlink="http://www.w3.org/1999/xlink">
 <defs>
  <style type="text/css">
   <![CDATA[
    .fil1 {fill:url(#id0)}
    .fil0 {fill:url(#id1)}
   ]]>
  </style>
  <linearGradient id="id0" gradientUnits="userSpaceOnUse" x1="90.7458" y1="194.797" x2="326.872" y2="194.797">
   <stop offset="0" style="stop-opacity:1; stop-color:#525252"/>
   <stop offset="1" style="stop-opacity:1; stop-color:#939393"/>
  </linearGradient>
  <linearGradient id="id1" gradientUnits="userSpaceOnUse" xlink:href="#id0" x1="-0" y1="135.22" x2="310.628" y2="135.22">
  </linearGradient>
 </defs>
 <g id="Vrstva_x0020_1">
  <metadata id="CorelCorpID_0Corel-Layer"/>
  <g id="_2609917465936">
   <path class="fil0" d="M227 260l-144 0 -72 -125 1 0 41 0c3,0 6,-2 6,-5 0,-3 -3,-6 -6,-6l-35 0 5 -8 0 0 42 0c3,0 5,-2 5,-5 0,-3 -2,-6 -5,-6l-36 0 4 -7 42 0c3,0 5,-2 5,-5 0,-3 -2,-6 -5,-6l-36 0 4 -7 41 0c3,0 5,-2 5,-5 0,-3 -2,-6 -5,-6l-35 0 5 -7 40 0c3,0 5,-2 5,-5 0,-3 -2,-6 -5,-6l-34 0 4 -7 41 0c3,0 5,-2 5,-5 0,-3 -2,-6 -5,-6l-35 0 4 -7 41 0c3,0 5,-2 5,-5 0,-3 -2,-5 -5,-5l-34 0 2 -5 144 0 72 124 -72 125zm83 -127l-75 -130c-1,-2 -3,-3 -5,-3l-150 0c-2,0 -3,1 -4,3l-75 130c-1,1 -1,3 0,5l75 130c1,1 2,2 4,2l150 0c2,0 4,-1 5,-2l75 -130c1,-2 1,-4 0,-5z"/>
   <path class="fil1" d="M258 254l-162 0c-3,0 -5,-2 -5,-5 0,-3 2,-5 5,-5l159 0 62 -106c1,-3 5,-4 7,-2 3,1 4,5 2,7l-64 109c0,1 -2,2 -4,2z"/>
  </g>
 </g>
</svg>
