<?xml version="1.0" encoding="UTF-8"?>
<!DOCTYPE svg PUBLIC "-//W3C//DTD SVG 1.1//EN" "http://www.w3.org/Graphics/SVG/1.1/DTD/svg11.dtd">
<!-- Creator: CorelDRAW X7 -->
<svg xmlns="http://www.w3.org/2000/svg" xml:space="preserve" width="2300px" height="2002px" version="1.1" style="shape-rendering:geometricPrecision; text-rendering:geometricPrecision; image-rendering:optimizeQuality; fill-rule:evenodd; clip-rule:evenodd"
viewBox="0 0 232 202"
 xmlns:xlink="http://www.w3.org/1999/xlink">
 <defs>
  <style type="text/css">
   <![CDATA[
    .fil2 {fill:#666666}
    .fil1 {fill:url(#id0)}
    .fil0 {fill:url(#id1)}
   ]]>
  </style>
  <linearGradient id="id0" gradientUnits="userSpaceOnUse" x1="113.283" y1="23.2511" x2="118.072" y2="23.2511">
   <stop offset="0" style="stop-opacity:1; stop-color:#525252"/>
   <stop offset="1" style="stop-opacity:1; stop-color:#939393"/>
  </linearGradient>
  <linearGradient id="id1" gradientUnits="userSpaceOnUse" xlink:href="#id0" x1="113.283" y1="177.475" x2="118.072" y2="177.475">
  </linearGradient>
 </defs>
 <g id="Vrstva_x0020_1">
  <metadata id="CorelCorpID_0Corel-Layer"/>
  <g id="_2646644426656">
   <path class="fil0" d="M174 167c-2,-1 -5,0 -6,2l-7 11 -91 0 -7 -11c-1,-2 -3,-3 -5,-2 -2,1 -3,4 -2,6l8 13c0,1 2,2 3,2l97 0c1,0 2,0 3,-2l8 -13c1,-2 0,-5 -1,-6z"/>
   <path class="fil1" d="M167 14c-1,-1 -2,-2 -3,-2l-97 0c-1,0 -3,1 -3,3l-8 13c-1,2 0,4 2,6 0,0 1,0 2,0 1,0 3,-1 3,-2l7 -12 91 0 7 12c1,2 4,3 6,1 1,-1 2,-3 1,-5l-8 -14z"/>
   <path class="fil2" d="M169 194l-107 0 -51 -89 10 0 10 15c1,2 2,2 4,2 0,0 1,0 2,0 2,-2 2,-4 1,-6l-10 -15 0 0 10 -15c1,-1 1,-4 -1,-5 -2,-1 -4,-1 -6,1l-10 15 -10 0 51 -89 107 0 52 89 -10 0 -10 -15c-1,-2 -4,-2 -5,-1 -2,1 -3,4 -2,5l10 15 0 0 0 0 -9 14c-2,2 -1,4 1,6 1,0 1,0 2,0 1,0 3,0 3,-2l10 -14 10 0 -52 89zm63 -93c0,-1 -1,-2 -1,-3l-56 -96c-1,-1 -2,-2 -3,-2l-112 0c-2,0 -3,1 -4,2l-55 97c-1,0 -1,0 -1,0l0 0c0,1 0,1 0,1l0 0c0,1 0,1 0,2l0 0c0,0 0,0 0,0l0 0c0,1 0,1 1,1l55 97c1,1 2,2 4,2l112 0c1,0 2,-1 3,-2l56 -97c0,0 1,-1 1,-2z"/>
  </g>
 </g>
</svg>
