<?xml version="1.0" encoding="UTF-8"?>
<!DOCTYPE svg PUBLIC "-//W3C//DTD SVG 1.1//EN" "http://www.w3.org/Graphics/SVG/1.1/DTD/svg11.dtd">
<!-- Creator: CorelDRAW X7 -->
<svg xmlns="http://www.w3.org/2000/svg" xml:space="preserve" width="2300px" height="1753px" version="1.1" style="shape-rendering:geometricPrecision; text-rendering:geometricPrecision; image-rendering:optimizeQuality; fill-rule:evenodd; clip-rule:evenodd"
viewBox="0 0 182 139"
 xmlns:xlink="http://www.w3.org/1999/xlink">
 <defs>
  <style type="text/css">
   <![CDATA[
    .fil0 {fill:url(#id0)}
    .fil1 {fill:url(#id1)}
    .fil2 {fill:url(#id2)}
   ]]>
  </style>
  <linearGradient id="id0" gradientUnits="userSpaceOnUse" x1="35.4294" y1="69.3684" x2="147.099" y2="69.3684">
   <stop offset="0" style="stop-opacity:1; stop-color:#525252"/>
   <stop offset="1" style="stop-opacity:1; stop-color:#939393"/>
  </linearGradient>
  <linearGradient id="id1" gradientUnits="userSpaceOnUse" xlink:href="#id0" x1="76.7231" y1="69.3684" x2="105.646" y2="69.3684">
  </linearGradient>
  <linearGradient id="id2" gradientUnits="userSpaceOnUse" xlink:href="#id0" x1="34.5821" y1="69.3678" x2="147.429" y2="69.3678">
  </linearGradient>
 </defs>
 <g id="Vrstva_x0020_1">
  <metadata id="CorelCorpID_0Corel-Layer"/>
  <g id="_2609917454992">
   <path class="fil0" d="M107 97l-32 0 -16 -28 16 -28 32 0 17 28 -17 28zm37 -30l-16 0 -17 -30c0,-1 -1,-1 -2,-1l-15 0 0 -15c0,-2 -1,-3 -3,-3 -1,0 -3,1 -3,3l0 15 -15 0c-1,0 -1,0 -2,1l-17 30 -16 0c-1,0 -3,1 -3,2 0,2 2,3 3,3l16 0 17 30c1,0 1,1 2,1l15 0 0 15c0,1 2,3 3,3 2,0 3,-2 3,-3l0 -15 15 0c1,0 2,-1 2,-1l17 -30 16 0c2,0 3,-1 3,-3 0,-1 -1,-2 -3,-2z"/>
   <path class="fil1" d="M91 60c-5,0 -9,4 -9,9 0,5 4,9 9,9 5,0 9,-4 9,-9 0,-5 -4,-9 -9,-9zm0 24c-8,0 -14,-7 -14,-15 0,-8 6,-14 14,-14 8,0 15,6 15,14 0,8 -7,15 -15,15z"/>
   <path class="fil2" d="M128 133l-74 0 -37 -64 37 -64 74 0 37 64 -37 64zm53 -66l-12 -21c-1,-1 -3,-2 -5,-2l-7 0 -25 -43c0,0 -1,-1 -2,-1l-77 0c-1,0 -2,1 -3,1l-24 43 -8 0c-2,0 -4,1 -5,2l-12 21c-1,1 -1,3 0,5l11 20c1,2 3,3 5,3l9 0 24 42c1,1 2,2 3,2l77 0c1,0 2,-1 2,-2l25 -42 8 0c2,0 4,-1 5,-3l11 -20c1,-2 1,-4 0,-5z"/>
  </g>
 </g>
</svg>
