<?xml version="1.0" encoding="UTF-8"?>
<!DOCTYPE svg PUBLIC "-//W3C//DTD SVG 1.1//EN" "http://www.w3.org/Graphics/SVG/1.1/DTD/svg11.dtd">
<!-- Creator: CorelDRAW X7 -->
<svg xmlns="http://www.w3.org/2000/svg" xml:space="preserve" width="2307px" height="2300px" version="1.1" style="shape-rendering:geometricPrecision; text-rendering:geometricPrecision; image-rendering:optimizeQuality; fill-rule:evenodd; clip-rule:evenodd"
viewBox="0 0 130 129"
 xmlns:xlink="http://www.w3.org/1999/xlink">
 <defs>
  <style type="text/css">
   <![CDATA[
    .str0 {stroke:#333333;stroke-width:1.8749}
    .str1 {stroke:#666666;stroke-width:2.81234}
    .fil0 {fill:none}
    .fil9 {fill:#666666}
    .fil8 {fill:gray}
    .fil7 {fill:#999999}
    .fil10 {fill:#999999;fill-rule:nonzero}
    .fil4 {fill:url(#id0)}
    .fil1 {fill:url(#id1)}
    .fil3 {fill:url(#id2)}
    .fil2 {fill:url(#id3)}
    .fil6 {fill:url(#id4)}
    .fil5 {fill:url(#id5)}
   ]]>
  </style>
  <linearGradient id="id0" gradientUnits="userSpaceOnUse" x1="27.0656" y1="64.6844" x2="86.973" y2="64.6844">
   <stop offset="0" style="stop-opacity:1; stop-color:#525252"/>
   <stop offset="1" style="stop-opacity:1; stop-color:#939393"/>
  </linearGradient>
  <linearGradient id="id1" gradientUnits="userSpaceOnUse" x1="53.2312" y1="64.7143" x2="53.6872" y2="64.7143">
   <stop offset="0" style="stop-opacity:1; stop-color:#939393"/>
   <stop offset="1" style="stop-opacity:1; stop-color:#525252"/>
  </linearGradient>
  <linearGradient id="id2" gradientUnits="userSpaceOnUse" xlink:href="#id1" x1="64.2059" y1="64.7127" x2="64.5543" y2="64.7127">
  </linearGradient>
  <linearGradient id="id3" gradientUnits="userSpaceOnUse" xlink:href="#id1" x1="75.0067" y1="64.7413" x2="75.5486" y2="64.7413">
  </linearGradient>
  <linearGradient id="id4" gradientUnits="userSpaceOnUse" xlink:href="#id1" x1="64.8942" y1="41.9592" x2="64.8942" y2="7.99219">
  </linearGradient>
  <linearGradient id="id5" gradientUnits="userSpaceOnUse" xlink:href="#id1" x1="64.8942" y1="121.377" x2="64.8942" y2="87.4096">
  </linearGradient>
 </defs>
 <g id="Vrstva_x0020_1">
  <metadata id="CorelCorpID_0Corel-Layer"/>
  <g id="_2646562076704">
   <polygon class="fil0 str0" points="5,65 20,39 35,13 65,13 95,13 110,39 124,65 110,90 95,116 65,116 35,116 20,90 "/>
   <polygon class="fil0 str1" points="15,65 27,43 40,21 65,21 90,21 103,43 115,65 103,86 90,108 65,108 40,108 27,86 "/>
   <g>
    <path class="fil1" d="M52 77l-1 0 4 -4c-2,-2 -4,-5 -4,-8 0,-3 2,-6 4,-9l-4 -3 1 -1 4 4 -1 0c-2,3 -3,6 -3,9 0,3 1,6 3,8l1 0 -4 4z"/>
    <path class="fil2" d="M77 77l-4 -4 0 0c2,-2 4,-5 4,-8 0,-3 -2,-6 -4,-9l0 0 4 -4 1 1 -4 3c2,3 3,6 3,9 0,3 -1,6 -3,8l3 4 0 0z"/>
    <path class="fil3" d="M64 63c1,0 2,1 2,2 0,1 -1,1 -2,1 -1,0 -1,0 -1,-1 0,-1 0,-2 1,-2z"/>
    <path class="fil4" d="M64 86c-11,0 -21,-10 -21,-21 0,-12 10,-22 21,-22 12,0 22,10 22,22 0,11 -10,21 -22,21zm0 -44c-12,0 -22,10 -22,22l-14 0c-1,0 -1,0 -1,1 0,0 0,0 1,0l14 0c0,13 10,22 22,22 13,0 23,-10 23,-22 0,-13 -10,-23 -23,-23z"/>
   </g>
   <g>
    <polygon class="fil5" points="86,101 86,129 84,129 84,102 65,83 46,102 46,129 43,129 43,101 65,79 "/>
    <polygon class="fil6" points="86,0 86,28 65,50 43,28 43,0 46,0 46,27 65,46 84,27 84,0 "/>
   </g>
   <g>
    <circle class="fil7" transform="matrix(-0.157573 0.987507 -0.987507 -0.157573 97.6172 47.7578)" r="2"/>
    <circle class="fil8" transform="matrix(-0.157573 0.987507 -0.987507 -0.157573 101.524 54.5043)" r="2"/>
    <circle class="fil9" transform="matrix(-0.157573 0.987507 -0.987507 -0.157573 105.432 61.2507)" r="2"/>
   </g>
   <path class="fil10" d="M0 64l9 -15 2 0 -9 16 7 11 -2 0 -7 -11 0 -1zm21 -36c4,-7 8,-13 11,-20l65 0 12 20 -3 0 -10 -18 -62 0 -11 18 -2 0zm99 21l10 16 -7 11 -2 0 7 -11 -10 -16 2 0zm-1 34l-6 11 -2 0 6 -11 2 0zm-18 32l-4 6 -65 0 -3 -6 2 0 3 4 62 0 3 -4 2 0zm-84 -21l-7 -11 2 0 7 11 -2 0z"/>
  </g>
 </g>
</svg>
