<?xml version="1.0" encoding="UTF-8"?>
<!DOCTYPE svg PUBLIC "-//W3C//DTD SVG 1.1//EN" "http://www.w3.org/Graphics/SVG/1.1/DTD/svg11.dtd">
<!-- Creator: CorelDRAW X7 -->
<svg xmlns="http://www.w3.org/2000/svg" xml:space="preserve" width="2300px" height="2239px" version="1.1" style="shape-rendering:geometricPrecision; text-rendering:geometricPrecision; image-rendering:optimizeQuality; fill-rule:evenodd; clip-rule:evenodd"
viewBox="0 0 112 109"
 xmlns:xlink="http://www.w3.org/1999/xlink">
 <defs>
  <style type="text/css">
   <![CDATA[
    .fil0 {fill:url(#id0)}
    .fil1 {fill:url(#id1)}
   ]]>
  </style>
  <linearGradient id="id0" gradientUnits="userSpaceOnUse" x1="-5.73939e-005" y1="48.6475" x2="111.765" y2="48.6475">
   <stop offset="0" style="stop-opacity:1; stop-color:#525252"/>
   <stop offset="1" style="stop-opacity:1; stop-color:#939393"/>
  </linearGradient>
  <linearGradient id="id1" gradientUnits="userSpaceOnUse" xlink:href="#id0" x1="3.52869" y1="64.3387" x2="107.002" y2="64.3387">
  </linearGradient>
 </defs>
 <g id="Vrstva_x0020_1">
  <metadata id="CorelCorpID_0Corel-Layer"/>
  <g id="_2646838393936">
   <path class="fil0" d="M86 94l11 -16 10 16 -21 0zm-68 -23l6 0c2,0 3,-1 4,-3l32 -55 37 63 -6 0c-1,0 -2,1 -2,1l-8 10c0,1 -1,1 -2,1l-14 0c-1,0 -2,1 -3,2l-3 4 -54 0 13 -23zm94 23l-55 -93c0,-1 0,-1 -1,-1 -1,0 -1,0 -2,1l-54 93c0,1 0,2 0,2 1,1 1,1 2,1l108 0c1,0 1,0 2,-1 0,0 0,-1 0,-2z"/>
   <path class="fil1" d="M32 105l44 0 27 -39 -25 -42 -45 0 -25 44 24 37zm45 4l-46 0c0,0 -1,-1 -1,-1l-26 -38c-1,-1 -1,-2 0,-2l27 -47c0,-1 1,-1 1,-1l47 0c1,0 2,0 2,1l26 44c0,1 0,2 0,2l-28 41c0,1 -1,1 -2,1z"/>
  </g>
 </g>
</svg>
