<?xml version="1.0" encoding="UTF-8"?>
<!DOCTYPE svg PUBLIC "-//W3C//DTD SVG 1.1//EN" "http://www.w3.org/Graphics/SVG/1.1/DTD/svg11.dtd">
<!-- Creator: CorelDRAW X7 -->
<svg xmlns="http://www.w3.org/2000/svg" xml:space="preserve" width="2300px" height="2300px" version="1.1" style="shape-rendering:geometricPrecision; text-rendering:geometricPrecision; image-rendering:optimizeQuality; fill-rule:evenodd; clip-rule:evenodd"
viewBox="0 0 327 327"
 xmlns:xlink="http://www.w3.org/1999/xlink">
 <defs>
  <style type="text/css">
   <![CDATA[
    .fil0 {fill:#252626;fill-rule:nonzero}
    .fil1 {fill:#767676;fill-rule:nonzero}
   ]]>
  </style>
 </defs>
 <g id="Vrstva_x0020_1">
  <metadata id="CorelCorpID_0Corel-Layer"/>
  <g id="_2610739857552">
   <path class="fil0" d="M273 124c22,22 22,57 0,79l0 0 7 7 47 -47 -47 -46 -7 7 0 0z"/>
   <path class="fil0" d="M210 280l-7 -7 0 0c-22,22 -57,22 -79,0l0 0 -7 7 46 47 47 -47z"/>
   <path class="fil0" d="M124 54c22,-22 57,-22 79,0l0 0 7 -7 -47 -47 -46 47 7 7 0 0z"/>
   <path class="fil0" d="M54 203c-22,-22 -22,-57 0,-79l0 0 -7 -7 -47 46 47 47 7 -7 0 0z"/>
   <path class="fil1" d="M187 210c7,8 13,15 18,21 6,8 12,15 16,21 -6,-4 -13,-10 -21,-16 -6,-5 -13,-11 -21,-18 -8,-8 -15,-15 -16,-15l-4 4c-4,4 -8,8 -12,11 -7,7 -14,12 -20,18 -8,6 -15,11 -21,16 4,-6 10,-13 16,-21 5,-6 11,-13 18,-21 9,-9 16,-16 23,-24 11,11 15,15 24,24zm-57 31c8,-6 15,-12 22,-19 4,-3 8,-7 11,-11 3,3 10,9 12,11 7,7 14,13 21,19 8,6 15,11 23,17 7,6 15,11 24,16 -5,-9 -11,-17 -16,-24 -6,-8 -11,-15 -17,-22 -6,-8 -13,-15 -19,-22 -6,-7 -14,-14 -28,-28 -7,8 -17,17 -27,28 -7,7 -13,14 -19,22 -6,7 -12,14 -17,22 -6,7 -11,15 -16,24 9,-5 16,-10 24,-16 8,-6 15,-11 22,-17z"/>
   <path class="fil0" d="M49 182l5 -2c-1,-4 -3,-9 -3,-17l0 0c0,-7 2,-12 3,-16l-5 -2c-2,4 -4,10 -4,18l0 0 0 0c0,9 2,15 4,19z"/>
   <path class="fil0" d="M282 163c0,-8 -2,-14 -4,-18l-5 2c1,4 3,9 3,16l0 0c0,8 -2,13 -3,17l5 2c2,-4 4,-10 4,-19l0 0 0 0z"/>
   <path class="fil0" d="M182 49c-4,-2 -10,-4 -19,-4l0 0 0 0c-8,0 -14,2 -18,4l2 5c4,-1 9,-3 16,-3l0 0c8,0 13,2 17,3l2 -5z"/>
   <path class="fil0" d="M145 278c4,2 10,4 18,4l0 0c9,0 15,-2 19,-4l-2 -5c-4,1 -9,3 -17,3l0 0c-7,0 -12,-2 -16,-3l-2 5z"/>
   <path class="fil1" d="M165 236c0,0 0,0 1,0 0,0 0,-1 0,-1 0,0 0,0 0,0 0,0 0,-1 0,-1 1,-1 0,-2 0,-3 -1,0 -1,0 -1,0 0,0 0,0 0,0 -1,0 -1,0 -1,0 0,0 0,0 -1,0 0,0 0,0 -1,0 0,0 0,0 -1,0 0,1 0,1 0,1 -1,1 -1,1 -1,2 0,0 1,1 1,2 1,0 2,1 2,1 1,0 1,0 1,0 0,0 0,-1 1,-1 0,0 0,0 0,0z"/>
   <path class="fil1" d="M163 242c-1,0 -3,2 -3,3 0,2 2,3 3,3 2,0 3,-1 3,-3 0,-1 -1,-3 -3,-3z"/>
   <path class="fil1" d="M165 260c0,0 0,0 1,-1 0,0 0,0 0,0 0,0 0,0 0,-1 0,0 0,0 0,0 1,-1 1,-1 0,-1 0,-1 0,-1 0,-1 0,0 0,0 0,0 0,-1 0,-1 0,-1 -1,0 -1,0 -1,0 0,0 0,0 0,-1 -1,0 -1,0 -1,0 0,0 0,0 -1,0 0,0 0,0 -1,0 0,1 0,1 -1,1 0,0 0,1 0,1 -1,0 -1,1 -1,1 0,1 0,1 1,1 0,1 0,1 0,1 1,1 2,1 2,1 1,0 1,0 1,0 0,0 0,0 1,0 0,0 0,0 0,0z"/>
   <path class="fil1" d="M161 68c-1,1 -1,1 -1,2 0,0 0,0 1,1 0,0 0,0 0,1 1,0 1,0 1,0 1,1 1,1 1,1 1,0 2,-1 3,-1 1,-1 1,-3 0,-5 -1,0 -2,0 -3,0 0,0 0,0 -1,0 0,0 0,0 -1,0 0,1 0,1 0,1z"/>
   <path class="fil1" d="M163 85c2,0 3,-2 3,-4 0,-1 -1,-3 -3,-3 -1,0 -3,2 -3,3 0,2 2,4 3,4z"/>
   <path class="fil1" d="M161 95c1,1 1,1 1,1 1,0 1,0 1,0 1,0 2,0 3,-1 1,-1 1,-3 0,-4 -1,0 -2,-1 -3,-1 0,0 -1,1 -2,1 0,1 -1,1 -1,2 0,1 1,2 1,2z"/>
   <path class="fil1" d="M163 141c-7,-8 -14,-15 -23,-25 -7,-7 -13,-14 -18,-21 -6,-7 -12,-14 -16,-20 6,4 13,10 21,16 6,5 13,11 20,18 4,3 8,7 12,11l4 4c1,-1 8,-7 16,-15 8,-7 15,-13 21,-18 8,-6 15,-12 21,-16 -4,6 -10,13 -16,21 -5,6 -11,12 -18,20 -9,10 -13,13 -24,25zm-55 -72c-8,-6 -15,-11 -24,-16 5,9 10,16 16,24 5,8 11,15 17,22 6,8 12,15 19,22 10,10 20,20 27,28 14,-14 22,-21 28,-28 6,-7 13,-14 19,-22 6,-7 11,-14 17,-22 5,-8 11,-15 16,-24 -9,5 -17,10 -24,16 -8,5 -15,11 -23,17 -7,6 -14,12 -21,19 -2,2 -9,8 -12,11 -3,-4 -7,-8 -11,-11 -7,-7 -14,-13 -22,-19 -7,-6 -14,-12 -22,-17z"/>
   <path class="fil1" d="M210 140c8,-7 15,-13 21,-18 8,-6 15,-12 21,-16 -4,6 -10,13 -16,21 -5,6 -11,12 -18,20 -8,9 -15,16 -15,16l4 5c4,4 8,8 11,11 7,8 12,15 18,21 6,8 11,15 16,21 -6,-5 -13,-10 -21,-16 -6,-6 -13,-12 -21,-18 -9,-9 -16,-16 -24,-24 11,-10 15,-14 24,-23zm31 56c-6,-7 -12,-14 -19,-21 -3,-4 -7,-8 -11,-12 3,-2 9,-9 11,-11 7,-7 13,-14 19,-22 6,-7 11,-14 17,-22 6,-8 11,-15 16,-24 -9,5 -17,10 -24,16 -8,5 -15,11 -22,17 -8,6 -15,12 -22,19 -7,6 -14,14 -28,27 8,8 17,18 28,28 7,6 14,13 22,19 7,6 14,11 22,17 7,5 15,11 24,16 -5,-9 -10,-17 -16,-24 -6,-8 -11,-15 -17,-23z"/>
   <path class="fil1" d="M141 163c-8,8 -15,15 -25,24 -7,6 -14,12 -21,18 -7,6 -14,11 -20,16 4,-6 10,-13 16,-21 5,-6 11,-13 18,-21 3,-3 7,-7 11,-11l4 -5c-1,0 -7,-7 -15,-16 -7,-8 -13,-14 -18,-20 -6,-8 -12,-15 -16,-21 6,4 13,10 21,16 6,5 12,11 20,18 10,9 14,13 25,23zm-72 56c-6,7 -11,15 -16,24 9,-5 16,-11 24,-16 8,-6 15,-11 22,-17 8,-6 15,-13 22,-19 10,-10 20,-20 28,-28 -14,-13 -21,-21 -28,-27 -7,-7 -14,-13 -22,-19 -7,-6 -14,-12 -22,-17 -8,-6 -15,-11 -24,-16 5,9 10,16 16,24 5,8 11,15 17,22 6,8 12,15 19,22 2,2 8,9 11,11 -4,4 -8,8 -11,12 -7,7 -13,14 -19,21 -6,8 -12,15 -17,23z"/>
  </g>
 </g>
</svg>
