<?xml version="1.0" encoding="UTF-8"?>
<!DOCTYPE svg PUBLIC "-//W3C//DTD SVG 1.1//EN" "http://www.w3.org/Graphics/SVG/1.1/DTD/svg11.dtd">
<!-- Creator: CorelDRAW X7 -->
<svg xmlns="http://www.w3.org/2000/svg" xml:space="preserve" width="2300px" height="2184px" version="1.1" style="shape-rendering:geometricPrecision; text-rendering:geometricPrecision; image-rendering:optimizeQuality; fill-rule:evenodd; clip-rule:evenodd"
viewBox="0 0 99 94"
 xmlns:xlink="http://www.w3.org/1999/xlink">
 <defs>
  <style type="text/css">
   <![CDATA[
    .fil4 {fill:url(#id0)}
    .fil3 {fill:url(#id1)}
    .fil0 {fill:url(#id2)}
    .fil2 {fill:url(#id3)}
    .fil1 {fill:url(#id4)}
   ]]>
  </style>
  <linearGradient id="id0" gradientUnits="userSpaceOnUse" x1="45.7951" y1="54.1916" x2="53.0121" y2="54.1916">
   <stop offset="0" style="stop-opacity:1; stop-color:#525252"/>
   <stop offset="1" style="stop-opacity:1; stop-color:#939393"/>
  </linearGradient>
  <linearGradient id="id1" gradientUnits="userSpaceOnUse" xlink:href="#id0" x1="32.4411" y1="66.3912" x2="33.7715" y2="66.3912">
  </linearGradient>
  <linearGradient id="id2" gradientUnits="userSpaceOnUse" xlink:href="#id0" x1="46.4415" y1="46.9202" x2="52.3701" y2="46.9202">
  </linearGradient>
  <linearGradient id="id3" gradientUnits="userSpaceOnUse" xlink:href="#id0" x1="65.5576" y1="66.3912" x2="66.6218" y2="66.3912">
  </linearGradient>
  <linearGradient id="id4" gradientUnits="userSpaceOnUse" xlink:href="#id0" x1="48.5201" y1="33.3052" x2="49.9161" y2="33.3052">
  </linearGradient>
 </defs>
 <g id="Vrstva_x0020_1">
  <metadata id="CorelCorpID_0Corel-Layer"/>
  <g id="_2610573944992">
   <path class="fil0" d="M51 83l0 -5c0,-1 -1,-2 -2,-2 -1,0 -1,1 -1,2l0 5 -43 0 20 -36 5 3c0,0 0,0 0,0 1,0 1,0 2,0 0,-1 0,-2 -1,-3l-4 -3 22 -39 23 39 -5 3c-1,1 -1,2 0,3 0,0 1,0 1,0 0,0 1,0 1,0l5 -3 20 36 -43 0zm48 1l-22 -39 4 -3c1,0 1,-1 1,-2 -1,-1 -2,-1 -3,0l-4 3 -24 -42c0,-1 -1,-1 -2,-1 0,0 -1,0 -1,1l-24 42 -5 -3c-1,-1 -2,-1 -2,0 -1,1 0,2 0,2l5 4 -22 38c0,0 0,1 0,1 1,1 1,1 2,1l46 0 0 6c0,1 0,2 1,2 1,0 2,-1 2,-2l0 -6 46 0c1,0 1,0 2,-1 0,0 0,-1 0,-1z"/>
   <path class="fil1" d="M56 32l-14 0c-1,0 -2,0 -2,1 0,1 1,2 2,2l14 0c1,0 2,-1 2,-2 0,-1 -1,-1 -2,-1z"/>
   <path class="fil2" d="M72 60c0,0 -1,0 -2,0l-10 10c-1,1 -1,2 0,3 0,0 1,0 1,0 1,0 1,0 1,0l10 -10c1,-1 1,-2 0,-3z"/>
   <path class="fil3" d="M29 60c0,0 -1,0 -2,0 -1,1 -1,2 0,3l10 10c0,0 1,0 1,0 1,0 1,0 1,0 1,-1 1,-2 0,-3l-10 -10z"/>
   <path class="fil4" d="M53 54c0,2 -2,4 -4,4 -2,0 -3,-2 -3,-4 0,-2 1,-3 3,-3 2,0 4,1 4,3z"/>
  </g>
 </g>
</svg>
