<?xml version="1.0" encoding="UTF-8"?>
<!DOCTYPE svg PUBLIC "-//W3C//DTD SVG 1.1//EN" "http://www.w3.org/Graphics/SVG/1.1/DTD/svg11.dtd">
<!-- Creator: CorelDRAW X7 -->
<svg xmlns="http://www.w3.org/2000/svg" xml:space="preserve" width="2300px" height="1931px" version="1.1" style="shape-rendering:geometricPrecision; text-rendering:geometricPrecision; image-rendering:optimizeQuality; fill-rule:evenodd; clip-rule:evenodd"
viewBox="0 0 2233 1875"
 xmlns:xlink="http://www.w3.org/1999/xlink">
 <defs>
  <style type="text/css">
   <![CDATA[
    .fil2 {fill:url(#id0)}
    .fil3 {fill:url(#id1)}
    .fil1 {fill:url(#id2)}
    .fil0 {fill:url(#id3)}
   ]]>
  </style>
  <linearGradient id="id0" gradientUnits="userSpaceOnUse" x1="5.00211" y1="1667.61" x2="495.405" y2="1667.61">
   <stop offset="0" style="stop-opacity:1; stop-color:#525252"/>
   <stop offset="1" style="stop-opacity:1; stop-color:#939393"/>
  </linearGradient>
  <linearGradient id="id1" gradientUnits="userSpaceOnUse" xlink:href="#id0" x1="872.533" y1="218.838" x2="1364.66" y2="218.838">
  </linearGradient>
  <linearGradient id="id2" gradientUnits="userSpaceOnUse" xlink:href="#id0" x1="1737.69" y1="1667.61" x2="2228.09" y2="1667.61">
  </linearGradient>
  <linearGradient id="id3" gradientUnits="userSpaceOnUse" xlink:href="#id0" x1="1082.02" y1="943.317" x2="1154.25" y2="943.317">
  </linearGradient>
 </defs>
 <g id="Vrstva_x0020_1">
  <metadata id="CorelCorpID_0Corel-Layer"/>
  <g id="_2645941600496">
   <path class="fil0" d="M298 1669l1641 0 -821 -1421 -820 1421zm1693 60l-1746 0c-10,0 -20,-6 -26,-15 -5,-9 -5,-21 0,-30l873 -1511c5,-10 15,-16 26,-16 11,0 21,6 26,16l873 1511c5,9 5,21 0,30 -5,9 -15,15 -26,15z"/>
   <path class="fil1" d="M1931 1460l200 316 -398 0 76 76c15,15 34,23 55,23l231 0c11,0 21,-4 29,-12l97 -97c14,-14 16,-35 6,-50l-140 -220c-14,-22 -39,-36 -66,-36l-90 0z"/>
   <path class="fil2" d="M302 1460l-200 316 398 0 -76 76c-14,15 -34,23 -55,23l-231 0c-11,0 -21,-4 -28,-12l-98 -97c-14,-14 -16,-35 -6,-50l140 -220c14,-22 39,-36 66,-36l90 0z"/>
   <path class="fil3" d="M907 431l212 -398 222 395c7,11 24,7 24,-6l0 -183c0,-9 -3,-18 -8,-27l-116 -189c-9,-14 -24,-23 -41,-23l-160 0c-17,0 -32,9 -41,23l-119 198c-5,9 -8,19 -7,30l11 175c0,13 17,16 23,5z"/>
  </g>
 </g>
</svg>
