<?xml version="1.0" encoding="UTF-8"?>
<!DOCTYPE svg PUBLIC "-//W3C//DTD SVG 1.1//EN" "http://www.w3.org/Graphics/SVG/1.1/DTD/svg11.dtd">
<!-- Creator: CorelDRAW X7 -->
<svg xmlns="http://www.w3.org/2000/svg" xml:space="preserve" width="2300px" height="2002px" version="1.1" style="shape-rendering:geometricPrecision; text-rendering:geometricPrecision; image-rendering:optimizeQuality; fill-rule:evenodd; clip-rule:evenodd"
viewBox="0 0 1522 1325"
 xmlns:xlink="http://www.w3.org/1999/xlink">
 <defs>
  <style type="text/css">
   <![CDATA[
    .fil1 {fill:url(#id0)}
    .fil3 {fill:url(#id1)}
    .fil5 {fill:url(#id2)}
    .fil4 {fill:url(#id3)}
    .fil2 {fill:url(#id4)}
    .fil0 {fill:url(#id5)}
    .fil6 {fill:url(#id6)}
   ]]>
  </style>
  <linearGradient id="id0" gradientUnits="userSpaceOnUse" x1="1191.82" y1="942.87" x2="1389.2" y2="942.87">
   <stop offset="0" style="stop-opacity:1; stop-color:#525252"/>
   <stop offset="1" style="stop-opacity:1; stop-color:#939393"/>
  </linearGradient>
  <linearGradient id="id1" gradientUnits="userSpaceOnUse" xlink:href="#id0" x1="1058.46" y1="697.9" x2="1255.85" y2="697.9">
  </linearGradient>
  <linearGradient id="id2" gradientUnits="userSpaceOnUse" xlink:href="#id0" x1="918.555" y1="446.738" x2="1115.89" y2="446.738">
  </linearGradient>
  <linearGradient id="id3" gradientUnits="userSpaceOnUse" xlink:href="#id0" x1="990.75" y1="577.766" x2="1188.09" y2="577.766">
  </linearGradient>
  <linearGradient id="id4" gradientUnits="userSpaceOnUse" xlink:href="#id0" x1="1124.1" y1="822.8" x2="1321.44" y2="822.8">
  </linearGradient>
  <linearGradient id="id5" gradientUnits="userSpaceOnUse" xlink:href="#id0" x1="745.667" y1="662.362" x2="776.103" y2="662.362">
  </linearGradient>
  <linearGradient id="id6" gradientUnits="userSpaceOnUse" xlink:href="#id0" x1="691.81" y1="1127.81" x2="826.422" y2="1127.81">
  </linearGradient>
 </defs>
 <g id="Vrstva_x0020_1">
  <metadata id="CorelCorpID_0Corel-Layer"/>
  <g id="_2610739882704">
   <path class="fil0" d="M69 1274l375 -649c6,-11 18,-18 31,-18l42 0c23,0 45,-13 56,-33l215 -388c8,-14 28,-15 36,-1l628 1089 -1383 0zm1449 13l-735 -1274c-5,-8 -13,-13 -22,-13 -9,0 -18,5 -22,13l-736 1274c-4,8 -4,17 0,25 5,8 13,13 22,13l1471 0c9,0 18,-5 22,-13 5,-8 5,-17 0,-25z"/>
   <path class="fil1" d="M1207 903l145 0c7,0 14,4 17,10l22 41c7,13 -3,29 -17,29l-145 0c-7,0 -14,-4 -17,-11l-22 -40c-7,-13 2,-29 17,-29z"/>
   <path class="fil2" d="M1139 783l145 0c7,0 14,4 17,10l22 41c7,13 -2,28 -17,28l-145 0c-7,0 -13,-3 -17,-10l-22 -40c-7,-13 3,-29 17,-29z"/>
   <path class="fil3" d="M1074 658l145 0c7,0 13,4 17,10l22 41c7,13 -3,29 -18,29l-144 0c-7,0 -14,-4 -17,-11l-22 -40c-7,-13 2,-29 17,-29z"/>
   <path class="fil4" d="M1006 538l145 0c7,0 14,4 17,10l22 41c7,13 -3,28 -17,28l-145 0c-7,0 -14,-3 -17,-10l-22 -40c-7,-13 2,-29 17,-29z"/>
   <path class="fil5" d="M934 407l145 0c7,0 13,4 17,10l22 41c7,13 -3,28 -17,28l-145 0c-7,0 -14,-3 -17,-10l-22 -40c-7,-13 2,-29 17,-29z"/>
   <path class="fil6" d="M1303 1220l-139 0c-5,0 -10,-2 -14,-6l-23 -22c-3,-4 -8,-6 -13,-6l-244 0 -95 -173c-2,-4 -5,-7 -9,-8 -7,-3 -15,1 -19,7l-95 174 -244 0c-5,0 -10,2 -13,6l-23 22c-3,4 -8,6 -14,6l-143 0c-8,0 -16,6 -17,14 -1,10 7,18 16,18l429 0c5,0 11,-3 14,-9l104 -190 104 190c3,6 8,9 14,9l425 0c9,0 17,-8 16,-18 -1,-8 -9,-14 -17,-14z"/>
  </g>
 </g>
</svg>
