<?xml version="1.0" encoding="UTF-8"?>
<!DOCTYPE svg PUBLIC "-//W3C//DTD SVG 1.1//EN" "http://www.w3.org/Graphics/SVG/1.1/DTD/svg11.dtd">
<!-- Creator: CorelDRAW X7 -->
<svg xmlns="http://www.w3.org/2000/svg" xml:space="preserve" width="2300px" height="2003px" version="1.1" style="shape-rendering:geometricPrecision; text-rendering:geometricPrecision; image-rendering:optimizeQuality; fill-rule:evenodd; clip-rule:evenodd"
viewBox="0 0 541 471"
 xmlns:xlink="http://www.w3.org/1999/xlink">
 <defs>
  <style type="text/css">
   <![CDATA[
    .fil0 {fill:#979798;fill-rule:nonzero}
    .fil1 {fill:url(#id0)}
    .fil18 {fill:url(#id1)}
    .fil19 {fill:url(#id2)}
    .fil9 {fill:url(#id3)}
    .fil2 {fill:url(#id4)}
    .fil11 {fill:url(#id5)}
    .fil12 {fill:url(#id6)}
    .fil6 {fill:url(#id7)}
    .fil14 {fill:url(#id8)}
    .fil13 {fill:url(#id9)}
    .fil8 {fill:url(#id10)}
    .fil10 {fill:url(#id11)}
    .fil16 {fill:url(#id12)}
    .fil7 {fill:url(#id13)}
    .fil17 {fill:url(#id14)}
    .fil3 {fill:url(#id15)}
    .fil4 {fill:url(#id16)}
    .fil15 {fill:url(#id17)}
    .fil5 {fill:url(#id18)}
   ]]>
  </style>
  <linearGradient id="id0" gradientUnits="userSpaceOnUse" x1="270.424" y1="382.617" x2="270.424" y2="128.939">
   <stop offset="0" style="stop-opacity:1; stop-color:#525252"/>
   <stop offset="1" style="stop-opacity:1; stop-color:#939393"/>
  </linearGradient>
  <linearGradient id="id1" gradientUnits="userSpaceOnUse" xlink:href="#id0" x1="271.863" y1="81.5228" x2="271.863" y2="57.0067">
  </linearGradient>
  <linearGradient id="id2" gradientUnits="userSpaceOnUse" xlink:href="#id0" x1="271.863" y1="454.309" x2="271.863" y2="431.235">
  </linearGradient>
  <linearGradient id="id3" gradientUnits="userSpaceOnUse" xlink:href="#id0" x1="317.135" y1="307.509" x2="317.135" y2="305.948">
  </linearGradient>
  <linearGradient id="id4" gradientUnits="userSpaceOnUse" xlink:href="#id0" x1="324.059" y1="263.935" x2="324.059" y2="262.378">
  </linearGradient>
  <linearGradient id="id5" gradientUnits="userSpaceOnUse" xlink:href="#id0" x1="312.887" y1="319.946" x2="312.887" y2="318.406">
  </linearGradient>
  <linearGradient id="id6" gradientUnits="userSpaceOnUse" xlink:href="#id0" x1="310.21" y1="326.178" x2="310.21" y2="324.634">
  </linearGradient>
  <linearGradient id="id7" gradientUnits="userSpaceOnUse" xlink:href="#id0" x1="321.424" y1="288.837" x2="321.424" y2="287.275">
  </linearGradient>
  <linearGradient id="id8" gradientUnits="userSpaceOnUse" xlink:href="#id0" x1="302.909" y1="338.636" x2="302.909" y2="337.075">
  </linearGradient>
  <linearGradient id="id9" gradientUnits="userSpaceOnUse" xlink:href="#id0" x1="306.899" y1="332.407" x2="306.899" y2="330.846">
  </linearGradient>
  <linearGradient id="id10" gradientUnits="userSpaceOnUse" xlink:href="#id0" x1="318.85" y1="301.277" x2="318.85" y2="299.715">
  </linearGradient>
  <linearGradient id="id11" gradientUnits="userSpaceOnUse" xlink:href="#id0" x1="315.239" y1="313.738" x2="315.239" y2="312.176">
  </linearGradient>
  <linearGradient id="id12" gradientUnits="userSpaceOnUse" xlink:href="#id0" x1="291.524" y1="351.076" x2="291.524" y2="349.532">
  </linearGradient>
  <linearGradient id="id13" gradientUnits="userSpaceOnUse" xlink:href="#id0" x1="320.266" y1="295.048" x2="320.266" y2="293.504">
  </linearGradient>
  <linearGradient id="id14" gradientUnits="userSpaceOnUse" xlink:href="#id0" x1="279.906" y1="357.305" x2="279.906" y2="355.744">
  </linearGradient>
  <linearGradient id="id15" gradientUnits="userSpaceOnUse" xlink:href="#id0" x1="323.603" y1="270.15" x2="323.603" y2="268.606">
  </linearGradient>
  <linearGradient id="id16" gradientUnits="userSpaceOnUse" xlink:href="#id0" x1="323.08" y1="276.379" x2="323.08" y2="274.817">
  </linearGradient>
  <linearGradient id="id17" gradientUnits="userSpaceOnUse" xlink:href="#id0" x1="298.172" y1="344.865" x2="298.172" y2="343.303">
  </linearGradient>
  <linearGradient id="id18" gradientUnits="userSpaceOnUse" xlink:href="#id0" x1="322.359" y1="282.608" x2="322.359" y2="281.047">
  </linearGradient>
 </defs>
 <g id="Vrstva_x0020_1">
  <metadata id="CorelCorpID_0Corel-Layer"/>
  <g id="_2610573965664">
   <polygon class="fil0" points="401,84 392,84 387,78 374,78 358,53 348,50 332,25 332,15 322,0 278,0 272,6 266,0 222,0 213,15 213,25 196,50 186,53 170,78 157,78 152,84 143,84 141,88 176,88 227,10 267,10 272,15 277,10 317,10 368,88 403,88 "/>
   <polygon class="fil0" points="372,471 377,463 386,463 393,452 423,452 430,445 460,445 468,451 486,451 511,414 509,406 517,405 541,368 533,351 525,346 513,319 517,308 505,281 512,271 509,263 514,255 512,251 492,281 530,366 508,400 501,401 503,408 480,441 387,441 368,471 "/>
   <polygon class="fil0" points="169,471 163,463 155,463 148,452 118,452 111,445 81,445 73,451 54,451 30,414 32,406 24,405 0,368 7,351 16,346 28,319 24,308 36,281 29,271 32,263 27,255 29,251 48,281 11,366 33,400 40,401 38,408 60,441 154,441 173,471 "/>
   <path class="fil0" d="M270 111c-79,0 -144,65 -144,145 0,79 65,144 144,144 80,0 145,-65 145,-144 0,-80 -65,-145 -145,-145zm0 294c-82,0 -149,-67 -149,-149 0,-82 67,-149 149,-149 83,0 149,67 149,149 0,82 -66,149 -149,149z"/>
   <polygon class="fil0" points="142,225 133,222 134,220 143,222 "/>
   <polygon class="fil0" points="145,217 136,214 136,211 145,214 "/>
   <polygon class="fil0" points="147,209 139,205 140,203 148,206 "/>
   <polygon class="fil0" points="151,201 142,197 143,194 152,198 "/>
   <polygon class="fil0" points="154,193 146,189 147,186 156,191 "/>
   <polygon class="fil0" points="159,186 151,181 152,179 160,184 "/>
   <polygon class="fil0" points="163,179 156,173 157,171 165,177 "/>
   <polygon class="fil0" points="169,172 161,166 163,164 170,170 "/>
   <polygon class="fil0" points="174,166 167,159 169,158 176,164 "/>
   <polygon class="fil0" points="180,160 174,153 176,151 182,158 "/>
   <polygon class="fil0" points="186,154 180,147 182,145 188,153 "/>
   <polygon class="fil0" points="193,149 188,141 190,140 195,148 "/>
   <polygon class="fil0" points="200,144 195,136 197,135 202,143 "/>
   <polygon class="fil0" points="207,140 203,132 205,131 210,139 "/>
   <polygon class="fil0" points="215,136 211,128 213,127 217,135 "/>
   <polygon class="fil0" points="223,133 219,124 222,123 225,132 "/>
   <polygon class="fil0" points="231,130 228,121 230,120 233,129 "/>
   <polygon class="fil0" points="239,128 237,119 239,118 241,127 "/>
   <polygon class="fil0" points="247,126 245,117 248,116 249,126 "/>
   <polygon class="fil0" points="389,314 397,318 396,320 387,316 "/>
   <polygon class="fil0" points="385,321 393,326 392,328 383,323 "/>
   <polygon class="fil0" points="380,328 388,334 387,336 379,331 "/>
   <polygon class="fil0" points="375,335 383,341 381,343 374,337 "/>
   <polygon class="fil0" points="370,342 377,348 375,350 368,344 "/>
   <polygon class="fil0" points="364,348 371,355 369,357 363,350 "/>
   <polygon class="fil0" points="358,354 364,361 362,363 356,356 "/>
   <polygon class="fil0" points="352,359 358,367 355,368 350,361 "/>
   <polygon class="fil0" points="345,364 350,372 348,374 343,366 "/>
   <path class="fil1" d="M270 366c-61,0 -110,-49 -110,-110 0,-60 48,-109 108,-111l0 108 -14 0 0 5 14 0 0 14 5 0 0 -14 14 0 0 -5 -14 0 0 -108c60,2 108,51 108,111 0,61 -50,110 -111,110zm98 -191l-5 5c-5,-6 -11,-12 -17,-18l5 -4c-22,-18 -50,-29 -81,-29 -24,0 -47,7 -66,19l6 5c-23,13 -40,33 -50,57l-6 -5c-7,15 -10,33 -10,51 0,30 10,58 28,80l5 -5c5,7 11,12 18,18l-5 5c3,2 5,4 8,6l4 -6c2,2 4,3 7,5l-4 6c3,1 5,2 8,4l3 -7c2,2 5,3 7,4l-3 6c16,7 33,11 50,11 23,0 44,-6 62,-16l-4 -6c3,-2 5,-3 8,-5l3 6c35,-22 58,-62 58,-106 0,-31 -11,-59 -29,-81z"/>
   <path class="fil2" d="M372 264l-95 0c-1,0 -1,0 -1,-1 0,0 0,-1 1,-1l95 0c0,0 0,1 0,1 0,1 0,1 0,1z"/>
   <path class="fil3" d="M371 270l-94 0c-1,0 -1,0 -1,-1 0,0 0,0 1,0l94 0c0,0 0,0 0,0 0,1 0,1 0,1z"/>
   <path class="fil4" d="M370 276l-93 0c-1,0 -1,0 -1,0 0,-1 0,-1 1,-1l93 0c0,0 0,0 0,1 0,0 0,0 0,0z"/>
   <path class="fil5" d="M368 283l-91 0c-1,0 -1,-1 -1,-1 0,-1 0,-1 1,-1l91 0c1,0 1,0 1,1 0,0 0,1 -1,1z"/>
   <path class="fil6" d="M366 289l-89 0c-1,0 -1,-1 -1,-1 0,0 0,-1 1,-1l89 0c1,0 1,1 1,1 0,0 0,1 -1,1z"/>
   <path class="fil7" d="M364 295l-87 0c-1,0 -1,0 -1,-1 0,0 0,0 1,0l87 0c0,0 1,0 1,0 0,1 -1,1 -1,1z"/>
   <path class="fil8" d="M361 301l-84 0c-1,0 -1,0 -1,0 0,-1 0,-1 1,-1l84 0c1,0 1,0 1,1 0,0 0,0 -1,0z"/>
   <path class="fil9" d="M358 308l-81 0c-1,0 -1,-1 -1,-1 0,-1 0,-1 1,-1l81 0c0,0 1,0 1,1 0,0 -1,1 -1,1z"/>
   <path class="fil10" d="M354 314l-77 0c-1,0 -1,-1 -1,-1 0,0 0,-1 1,-1l77 0c0,0 1,1 1,1 0,0 -1,1 -1,1z"/>
   <path class="fil11" d="M349 320l-72 0c-1,0 -1,0 -1,-1 0,0 0,-1 1,-1l72 0c1,0 1,1 1,1 0,1 0,1 -1,1z"/>
   <path class="fil12" d="M344 326l-67 0c-1,0 -1,0 -1,-1 0,0 0,0 1,0l67 0c0,0 1,0 1,0 0,1 -1,1 -1,1z"/>
   <path class="fil13" d="M337 332l-60 0c-1,0 -1,0 -1,0 0,-1 0,-1 1,-1l60 0c1,0 1,0 1,1 0,0 0,0 -1,0z"/>
   <path class="fil14" d="M329 339l-52 0c-1,0 -1,-1 -1,-1 0,-1 0,-1 1,-1l52 0c1,0 1,0 1,1 0,0 0,1 -1,1z"/>
   <path class="fil15" d="M320 345l-43 0c-1,0 -1,0 -1,-1 0,0 0,-1 1,-1l43 0c0,0 1,1 1,1 0,1 -1,1 -1,1z"/>
   <path class="fil16" d="M307 351l-30 0c-1,0 -1,0 -1,-1 0,0 0,0 1,0l30 0c0,0 0,0 0,0 0,1 0,1 0,1z"/>
   <path class="fil17" d="M283 357l-6 0c-1,0 -1,0 -1,0 0,-1 0,-1 1,-1l6 0c1,0 1,0 1,1 0,0 0,0 -1,0z"/>
   <path class="fil18" d="M347 83c-19,-8 -38,-14 -58,-15 -1,-9 -8,-17 -17,-17 -9,0 -17,7 -17,16 -20,2 -40,7 -58,15 -1,0 -2,1 -1,3 0,1 1,1 3,1 22,-10 47,-15 71,-15 26,0 52,6 75,16 0,0 1,0 1,0 1,0 2,0 2,-1 1,-1 0,-3 -1,-3z"/>
   <path class="fil19" d="M348 426c0,-1 -2,-2 -3,-1 -23,10 -49,16 -75,16 -24,0 -49,-5 -71,-15 -2,0 -3,0 -3,1 -1,2 0,3 1,3 18,8 38,13 58,15 0,9 8,16 17,16 9,0 16,-7 17,-17 20,-1 39,-7 58,-15 1,0 2,-2 1,-3z"/>
  </g>
 </g>
</svg>
