<?xml version="1.0" encoding="UTF-8"?>
<!DOCTYPE svg PUBLIC "-//W3C//DTD SVG 1.1//EN" "http://www.w3.org/Graphics/SVG/1.1/DTD/svg11.dtd">
<!-- Creator: CorelDRAW X7 -->
<svg xmlns="http://www.w3.org/2000/svg" xml:space="preserve" width="2300px" height="2286px" version="1.1" style="shape-rendering:geometricPrecision; text-rendering:geometricPrecision; image-rendering:optimizeQuality; fill-rule:evenodd; clip-rule:evenodd"
viewBox="0 0 327 325"
 xmlns:xlink="http://www.w3.org/1999/xlink">
 <defs>
  <style type="text/css">
   <![CDATA[
    .fil16 {fill:url(#id0)}
    .fil15 {fill:url(#id1)}
    .fil8 {fill:url(#id2)}
    .fil2 {fill:url(#id3)}
    .fil3 {fill:url(#id4)}
    .fil13 {fill:url(#id5)}
    .fil0 {fill:url(#id6)}
    .fil1 {fill:url(#id7)}
    .fil4 {fill:url(#id8)}
    .fil6 {fill:url(#id9)}
    .fil5 {fill:url(#id10)}
    .fil18 {fill:url(#id11)}
    .fil7 {fill:url(#id12)}
    .fil9 {fill:url(#id13)}
    .fil11 {fill:url(#id14)}
    .fil12 {fill:url(#id15)}
    .fil14 {fill:url(#id16)}
    .fil17 {fill:url(#id17)}
    .fil10 {fill:url(#id18)}
   ]]>
  </style>
  <linearGradient id="id0" gradientUnits="userSpaceOnUse" x1="40.4023" y1="243.326" x2="284.969" y2="243.326">
   <stop offset="0" style="stop-opacity:1; stop-color:#939393"/>
   <stop offset="1" style="stop-opacity:1; stop-color:#525252"/>
  </linearGradient>
  <linearGradient id="id1" gradientUnits="userSpaceOnUse" xlink:href="#id0" x1="41.1365" y1="83.0111" x2="284.234" y2="83.0111">
  </linearGradient>
  <linearGradient id="id2" gradientUnits="userSpaceOnUse" x1="162.579" y1="162.692" x2="162.78" y2="162.692">
   <stop offset="0" style="stop-opacity:1; stop-color:#525252"/>
   <stop offset="1" style="stop-opacity:1; stop-color:#939393"/>
  </linearGradient>
  <linearGradient id="id3" gradientUnits="userSpaceOnUse" xlink:href="#id2" x1="299.887" y1="141.336" x2="301.963" y2="141.336">
  </linearGradient>
  <linearGradient id="id4" gradientUnits="userSpaceOnUse" xlink:href="#id2" x1="299.887" y1="184.054" x2="301.963" y2="184.054">
  </linearGradient>
  <linearGradient id="id5" gradientUnits="userSpaceOnUse" xlink:href="#id2" x1="158.593" y1="162.693" x2="166.778" y2="162.693">
  </linearGradient>
  <linearGradient id="id6" gradientUnits="userSpaceOnUse" xlink:href="#id2" x1="24.3855" y1="140.799" x2="27.4987" y2="140.799">
  </linearGradient>
  <linearGradient id="id7" gradientUnits="userSpaceOnUse" xlink:href="#id2" x1="24.3855" y1="183.51" x2="27.4987" y2="183.51">
  </linearGradient>
  <linearGradient id="id8" gradientUnits="userSpaceOnUse" xlink:href="#id2" x1="183.247" y1="25.9482" x2="184.837" y2="25.9482">
  </linearGradient>
  <linearGradient id="id9" gradientUnits="userSpaceOnUse" xlink:href="#id2" x1="182.703" y1="298.898" x2="184.292" y2="298.898">
  </linearGradient>
  <linearGradient id="id10" gradientUnits="userSpaceOnUse" xlink:href="#id2" x1="140.535" y1="25.9482" x2="142.124" y2="25.9482">
  </linearGradient>
  <linearGradient id="id11" gradientUnits="userSpaceOnUse" xlink:href="#id0" x1="208.853" y1="163.651" x2="276.077" y2="163.651">
  </linearGradient>
  <linearGradient id="id12" gradientUnits="userSpaceOnUse" xlink:href="#id2" x1="139.992" y1="298.898" x2="141.581" y2="298.898">
  </linearGradient>
  <linearGradient id="id13" gradientUnits="userSpaceOnUse" xlink:href="#id2" x1="196.534" y1="162.698" x2="196.735" y2="162.698">
  </linearGradient>
  <linearGradient id="id14" gradientUnits="userSpaceOnUse" xlink:href="#id2" x1="128.637" y1="162.698" x2="128.838" y2="162.698">
  </linearGradient>
  <linearGradient id="id15" gradientUnits="userSpaceOnUse" xlink:href="#id2" x1="94.6336" y1="162.698" x2="94.9348" y2="162.698">
  </linearGradient>
  <linearGradient id="id16" gradientUnits="userSpaceOnUse" xlink:href="#id2" x1="161.723" y1="162.728" x2="163.652" y2="162.728">
  </linearGradient>
  <linearGradient id="id17" gradientUnits="userSpaceOnUse" xlink:href="#id0" x1="49.294" y1="163.651" x2="116.519" y2="163.651">
  </linearGradient>
  <linearGradient id="id18" gradientUnits="userSpaceOnUse" xlink:href="#id2" x1="230.487" y1="162.698" x2="230.687" y2="162.698">
  </linearGradient>
 </defs>
 <g id="Vrstva_x0020_1">
  <metadata id="CorelCorpID_0Corel-Layer"/>
  <g id="_2648798125584">
   <polygon class="fil0" points="52,121 30,121 0,161 22,161 "/>
   <polygon class="fil1" points="0,164 30,203 52,203 22,164 "/>
   <polygon class="fil2" points="275,121 297,121 327,161 305,161 "/>
   <polygon class="fil3" points="327,164 297,204 275,204 305,164 "/>
   <polygon class="fil4" points="204,52 204,30 164,0 164,22 "/>
   <polygon class="fil5" points="161,0 121,30 121,52 161,22 "/>
   <polygon class="fil6" points="203,273 203,295 164,325 164,303 "/>
   <polygon class="fil7" points="161,325 121,295 121,273 161,303 "/>
   <path class="fil8" d="M163 231l0 0c-2,0 -3,-1 -3,-2l0 -132c0,-2 1,-3 3,-3 1,0 2,1 2,3l0 132c0,1 -1,2 -2,2z"/>
   <path class="fil9" d="M197 197l0 0c-2,0 -3,-1 -3,-2l0 -64c0,-2 1,-3 3,-3 1,0 2,1 2,3l0 64c0,1 -1,2 -2,2z"/>
   <path class="fil10" d="M231 197l0 0c-2,0 -3,-1 -3,-2l0 -64c0,-2 1,-3 3,-3 1,0 2,1 2,3l0 64c0,1 -1,2 -2,2z"/>
   <path class="fil11" d="M129 197l0 0c-2,0 -3,-1 -3,-2l0 -64c0,-2 1,-3 3,-3 1,0 2,1 2,3l0 64c0,1 -1,2 -2,2z"/>
   <path class="fil12" d="M95 197l0 0c-2,0 -3,-1 -3,-2l0 -64c0,-2 1,-3 3,-3 1,0 2,1 2,3l0 64c0,1 -1,2 -2,2z"/>
   <path class="fil13" d="M60 163l0 0c0,-2 2,-3 3,-3l199 0c2,0 3,1 3,3 0,1 -1,2 -3,2l-199 0c-1,0 -3,-1 -3,-2z"/>
   <path class="fil14" d="M171 142l0 0c0,1 1,2 1,2 7,4 11,10 10,18 0,10 -8,18 -18,19 -11,1 -21,-8 -21,-20 0,-7 4,-13 9,-16 1,-1 1,-2 1,-2l0 0c0,-2 -2,-3 -3,-2 -7,4 -12,12 -11,22 0,12 10,22 22,22 14,1 26,-10 26,-24 0,-9 -5,-17 -13,-21 -1,-1 -3,1 -3,2z"/>
   <path class="fil15" d="M44 117c10,-26 29,-48 53,-63l0 23 0 4 0 14c17,-16 40,-26 66,-26 25,0 48,10 65,26l0 -14 0 -4 0 -23c24,14 43,36 53,63l3 0c-11,-29 -32,-53 -58,-67l0 2 0 1 0 22c-18,-13 -40,-20 -63,-20 -24,0 -46,8 -64,21l0 -23 0 -1 0 -2c-26,15 -47,38 -58,67l3 0z"/>
   <path class="fil16" d="M282 209c-10,27 -29,50 -54,64l0 -23 0 -4 0 -13c-17,16 -40,26 -65,26 -26,0 -49,-10 -66,-27l0 14 0 4 0 23c-25,-15 -43,-37 -54,-64l-3 0c11,29 32,53 59,68l0 -25c18,13 40,20 64,20 23,0 45,-7 63,-20l0 26c27,-15 48,-40 59,-69l-3 0z"/>
   <path class="fil17" d="M117 264c-39,-17 -65,-56 -65,-100 0,-45 26,-83 65,-101l0 -3c-40,18 -68,58 -68,104 0,46 28,85 68,103l0 -3z"/>
   <path class="fil18" d="M209 60l0 3c38,18 64,56 64,101 0,44 -26,83 -64,100l0 3c39,-18 67,-57 67,-103 0,-46 -28,-86 -67,-104z"/>
  </g>
 </g>
</svg>
