<?xml version="1.0" encoding="UTF-8"?>
<!DOCTYPE svg PUBLIC "-//W3C//DTD SVG 1.1//EN" "http://www.w3.org/Graphics/SVG/1.1/DTD/svg11.dtd">
<!-- Creator: CorelDRAW X7 -->
<svg xmlns="http://www.w3.org/2000/svg" xml:space="preserve" width="2154px" height="2325px" version="1.1" style="shape-rendering:geometricPrecision; text-rendering:geometricPrecision; image-rendering:optimizeQuality; fill-rule:evenodd; clip-rule:evenodd"
viewBox="0 0 159 171"
 xmlns:xlink="http://www.w3.org/1999/xlink">
 <defs>
  <style type="text/css">
   <![CDATA[
    .str0 {stroke:black;stroke-width:1.8436}
    .fil0 {fill:none}
   ]]>
  </style>
 </defs>
 <g id="Vrstva_x0020_1">
  <metadata id="CorelCorpID_0Corel-Layer"/>
  <g id="_2645941603728">
   <polygon class="fil0 str0" points="1,120 6,111 11,103 21,103 30,103 35,111 40,120 35,128 30,137 21,137 11,137 6,128 "/>
   <polygon class="fil0 str0" points="1,86 6,77 11,69 21,69 30,69 35,77 40,86 35,94 30,103 21,103 11,103 6,94 "/>
   <polygon class="fil0 str0" points="1,52 6,43 11,35 21,35 30,35 35,43 40,52 35,60 30,69 21,69 11,69 6,60 "/>
   <polygon class="fil0 str0" points="30,137 35,128 40,120 50,120 60,120 65,128 70,137 65,145 60,154 50,154 40,154 35,145 "/>
   <polygon class="fil0 str0" points="30,103 35,94 40,86 50,86 60,86 65,94 70,103 65,111 60,120 50,120 40,120 35,111 "/>
   <polygon class="fil0 str0" points="30,69 35,60 40,52 50,52 60,52 65,60 70,69 65,77 60,86 50,86 40,86 35,77 "/>
   <polygon class="fil0 str0" points="30,35 35,27 40,18 50,18 60,18 65,27 70,35 65,44 60,52 50,52 40,52 35,44 "/>
   <polygon class="fil0 str0" points="60,154 65,145 70,137 79,137 89,137 94,145 99,154 94,162 89,171 79,171 70,171 65,162 "/>
   <polygon class="fil0 str0" points="60,120 65,111 70,103 79,103 89,103 94,111 99,120 94,128 89,137 79,137 70,137 65,128 "/>
   <polygon class="fil0 str0" points="60,86 65,77 70,69 79,69 89,69 94,77 99,86 94,94 89,103 79,103 70,103 65,94 "/>
   <polygon class="fil0 str0" points="60,52 65,43 70,35 79,35 89,35 94,43 99,52 94,60 89,69 79,69 70,69 65,60 "/>
   <polygon class="fil0 str0" points="60,18 65,9 70,1 79,1 89,1 94,9 99,18 94,26 89,35 79,35 70,35 65,26 "/>
   <polygon class="fil0 str0" points="89,137 94,128 99,120 109,120 119,120 123,128 128,137 123,145 119,154 109,154 99,154 94,145 "/>
   <polygon class="fil0 str0" points="89,103 94,94 99,86 109,86 119,86 123,94 128,103 123,111 119,120 109,120 99,120 94,111 "/>
   <polygon class="fil0 str0" points="89,69 94,60 99,52 109,52 119,52 123,60 128,69 123,77 119,86 109,86 99,86 94,77 "/>
   <polygon class="fil0 str0" points="89,35 94,27 99,18 109,18 119,18 123,27 128,35 123,44 119,52 109,52 99,52 94,44 "/>
   <polygon class="fil0 str0" points="119,120 124,111 128,103 138,103 148,103 153,111 158,120 153,128 148,137 138,137 128,137 124,128 "/>
   <polygon class="fil0 str0" points="119,86 124,77 128,69 138,69 148,69 153,77 158,86 153,94 148,103 138,103 128,103 124,94 "/>
   <polygon class="fil0 str0" points="119,52 124,43 128,35 138,35 148,35 153,43 158,52 153,60 148,69 138,69 128,69 124,60 "/>
  </g>
 </g>
</svg>
