<?xml version="1.0" encoding="UTF-8"?>
<!DOCTYPE svg PUBLIC "-//W3C//DTD SVG 1.1//EN" "http://www.w3.org/Graphics/SVG/1.1/DTD/svg11.dtd">
<!-- Creator: CorelDRAW X7 -->
<svg xmlns="http://www.w3.org/2000/svg" xml:space="preserve" width="2300px" height="2027px" version="1.1" style="shape-rendering:geometricPrecision; text-rendering:geometricPrecision; image-rendering:optimizeQuality; fill-rule:evenodd; clip-rule:evenodd"
viewBox="0 0 151 133"
 xmlns:xlink="http://www.w3.org/1999/xlink">
 <defs>
  <style type="text/css">
   <![CDATA[
    .fil1 {fill:black}
    .fil0 {fill:#666666}
    .fil2 {fill:gray}
   ]]>
  </style>
 </defs>
 <g id="Vrstva_x0020_1">
  <metadata id="CorelCorpID_0Corel-Layer"/>
  <g id="_2645941540080">
   <g>
    <polygon class="fil0" points="146,133 1,133 1,132 146,132 "/>
    <path class="fil0" d="M6 132l121 0 -12 -3 -5 1 0 0 -4 -1 -13 -3c-6,1 -16,4 -16,4l-1 0 0 0c-1,-1 -7,-2 -10,-3l-6 1 -13 -3 -20 5 -8 -2c-4,1 -10,3 -13,4zm124 0l11 0 -5 -2 -6 2zm21 1l-151 0 1 -1c0,0 0,0 18,-5l0 0 8 2 20 -5 13 3 6 -1 0 0c7,2 10,2 11,3 0,0 10,-3 16,-4l0 0 13 3 4 0 5 -1 13 4 8 -2 15 4z"/>
    <path class="fil0" d="M4 132l140 0 -8 -4 -8 3 -13 -7 -5 2 -5 -1 -12 -6c-16,8 -16,8 -16,8l-1 0 0 0c-1,-1 -7,-4 -10,-5l-7 2 -13 -6 -19 10 -8 -4c-5,2 -12,6 -15,8zm144 1l-148 0 1 -1c0,0 0,0 17,-9l0 0 9 3 19 -10 1 0 12 7 7 -3 0 0c7,4 10,5 11,6 1,-1 10,-5 16,-8l0 -1 0 1 12 6 5 1 5 -2 13 7 8 -4 12 7z"/>
    <path class="fil0" d="M3 132l141 0 -8 -7 -8 5 -13 -10 -5 3 -6 -2 -11 -9c-16,12 -16,12 -17,12l0 0 0 0c-1,-1 -7,-5 -10,-8l-8 4 -12 -10 -19 15 -9 -6c-5,5 -12,10 -15,13zm145 1l-148 0 1 -1c0,0 11,-9 17,-14l0 0 9 6 19 -16 13 10 7 -3 0 0c7,5 10,7 10,8 2,-1 11,-8 16,-13l1 0 12 10 5 2 5 -3 13 10 8 -5 12 9z"/>
    <path class="fil0" d="M3 132l142 0 -9 -9 -8 7 -13 -14 -5 4 -7 -3 -11 -12c-15,16 -15,16 -16,16l0 0 0 0c-1,-1 -7,-7 -10,-11l-8 5 -12 -13 -18 21 -10 -8c-5,5 -13,14 -15,17zm144 1l-147 0 1 -1c0,-1 16,-17 16,-18l1 -1 9 8 19 -20 12 13 8 -5 0 0c7,7 9,10 10,11 2,-2 11,-11 16,-17l0 0 12 13 6 3 5 -4 13 13 8 -7 11 12z"/>
    <path class="fil0" d="M2 132l143 0 -9 -12 -8 9 -13 -17 -5 5 -7 -4 -1 0 -10 -15c-15,20 -16,20 -16,20l0 0 -1 0c0,-1 -6,-8 -9,-13l-9 6 -12 -16 -17 25 -10 -9c-3,3 -13,17 -16,21zm145 1l-147 0 1 -1c0,-1 12,-17 16,-23l0 0 11 9 17 -25 13 16 8 -6 0 1c3,4 9,11 10,13 2,-2 10,-13 15,-21l1 0 11 17 6 2 6 -5 13 17 8 -9 11 15z"/>
    <path class="fil0" d="M2 132l143 0 -9 -14 -8 10 -13 -20 -6 5 -7 -3 0 -1 -11 -18c-14,25 -15,25 -15,25l-1 0 0 -1c0,-1 -6,-10 -9,-16l-9 8 -1 -1 -11 -19 -17 30 -11 -11c-3,5 -12,21 -15,26zm145 1l-147 0 1 -1c0,-1 10,-17 16,-27l0 -1 11 11 17 -30 0 1 12 19 9 -8 0 1c2,3 8,13 10,16 2,-3 10,-16 15,-25l1 -1 11 21 6 3 6 -6 14 20 8 -11 10 18z"/>
    <path class="fil0" d="M2 132l143 0 -8 -17 -9 12 -13 -23 -6 6 -8 -4 0 0 -10 -22c-14,29 -15,29 -15,29l-1 0 0 -1c0,-1 -6,-11 -10,-18l-9 8 -12 -22 -16 35 -11 -13c-3,7 -12,25 -15,30zm145 1l-147 0 1 -1c0,-1 9,-19 15,-31l1 -1 11 13 16 -36 13 23 9 -8 0 0c2,3 8,15 10,19 2,-4 10,-19 15,-29l0 -1 11 24 7 4 6 -7 14 23 8 -12 10 20z"/>
    <path class="fil0" d="M2 132l143 0 -8 -19 -9 13 -13 -27 -6 8 -9 -5 -9 -25c-14,33 -15,33 -15,33l-1 0 0 -1c0,0 -6,-13 -10,-21l-9 10 -12 -26 -16 40 -11 -15c-4,9 -12,30 -15,35zm145 1l-147 0 1 -1c0,-1 9,-22 15,-36l0 -1 12 15 16 -41 12 27 10 -10 0 1c1,2 8,17 10,21 2,-4 9,-21 14,-33l1 -1 10 27 8 4 6 -8 14 27 8 -14 10 23z"/>
    <path class="fil0" d="M2 132l143 0 -8 -22 -8 16 -14 -31 -6 9 -9 -6 0 0 -10 -28c-14,37 -14,37 -15,37l0 0 0 -1c0,0 -6,-15 -10,-24l-10 12 -11 -29 -16 45 -12 -17c-3,9 -12,33 -14,39zm145 1l-147 0 1 -1c1,-1 9,-25 15,-40l0 -1 12 16 16 -46 12 30 10 -11 0 1c0,1 8,19 9,24 3,-5 10,-24 15,-37l0 -1 11 30 8 5 7 -9 13 30 8 -16 10 26z"/>
    <path class="fil0" d="M2 132l143 0 -8 -24 -8 17 -14 -34 -6 10 -10 -7 0 0 -9 -31c-14,41 -14,41 -15,41l0 0 0 0c-1,-2 -8,-22 -10,-27l-10 12 -12 -32 -15 50 -12 -18c-3,10 -12,37 -14,43zm145 1l-147 0 1 -1c1,-1 9,-28 14,-45l1 -1 12 19 15 -52 12 34 11 -12 0 1c0,0 7,20 9,26 2,-5 10,-26 15,-41l0 -2 10 34 9 6 7 -10 13 33 8 -18 10 29z"/>
    <path class="fil0" d="M2 132l143 0 -8 -27 -8 19 -14 -37 -6 10 -11 -7 0 0 -8 -34c-14,45 -14,45 -15,45l0 0 -1 0c0,-2 -7,-25 -9,-30l-11 14 -11 -35 -14 55 -13 -21c-3,12 -12,42 -14,48zm145 1l-147 0 1 -1c1,-1 9,-30 14,-49l0 -2 13 21 15 -56 11 37 12 -14 0 1c0,1 7,23 9,29 2,-6 9,-29 14,-45l1 -2 9 38 9 6 8 -12 0 1 13 36 8 -19 10 31z"/>
    <path class="fil0" d="M2 132l143 0 -8 -29 -8 20 -14 -40 -6 11 -12 -8 0 0 -8 -37c-13,49 -14,49 -14,49l-1 0 0 0c0,-2 -7,-27 -9,-32l-12 15 -10 -39 -14 60 -13 -22c-4,13 -12,45 -14,52zm145 1l-147 0 1 -1c1,-2 9,-33 14,-54l0 -1 13 22 14 -61 12 40 12 -15 0 1c0,1 7,25 9,32 2,-6 9,-32 14,-49l0 -2 9 41 10 6 8 -12 13 40 9 -21 9 34z"/>
    <path class="fil0" d="M2 132l143 0 -7 -32 -9 23 -13 -44 -8 12 -11 -8 0 -1 -8 -39c-13,52 -14,52 -14,52l-1 0 0 0c0,-2 -7,-29 -9,-35l-12 16 -11 -41 -13 65 -14 -25c-3,14 -11,50 -13,57zm145 1l-147 0 1 -1c1,-2 8,-36 13,-58l1 -2 13 24 14 -66 11 44 13 -17 0 2c0,0 7,27 9,34 2,-7 9,-34 13,-53l1 -3 9 45 10 7 8 -13 13 43 9 -23 9 37z"/>
    <path class="fil0" d="M2 132l143 0 -7 -34 -9 24 -1 -2 -12 -46 -8 14 -12 -9 0 0 -7 -43c-13,56 -14,56 -14,56l-1 0 0 0c-1,-2 -7,-31 -9,-38l-13 18 -10 -45 -13 70 -14 -26c-3,15 -11,54 -13,61zm145 1l-147 0 1 -1c1,-2 8,-39 13,-63l0 -1 14 26 14 -72 11 47 13 -17 0 1c0,0 7,29 9,37 2,-7 8,-37 13,-57l1 -3 8 48 11 8 8 -15 0 2 13 45 9 -25 9 40z"/>
    <path class="fil0" d="M2 132l143 0 -7 -37 -9 26 -13 -51 -8 14 -13 -9 0 0 -7 -46c-1,5 -3,17 -6,28 -7,33 -7,33 -8,33l0 0 0 -1c-1,-2 -8,-33 -9,-40l-13 19 -11 -48 -12 75 -14 -28c-3,13 -11,57 -13,65zm145 1l-147 0 1 -1c1,-2 8,-41 13,-67l0 -2 14 28 13 -77 11 51 13 -19 1 1c0,1 7,32 8,40 2,-8 9,-40 14,-61l0 -4 8 52 12 9 8 -16 0 2 13 48 9 -26 9 42z"/>
    <path class="fil0" d="M2 132l143 0 -7 -39 -9 27 -13 -54 -8 15 -14 -10 -6 -49c-1,6 -4,18 -6,30 -7,35 -7,35 -8,35l0 0 0 -1c-1,-2 -8,-35 -9,-43l-14 20 -10 -50 -12 79 -15 -30c-2,14 -10,62 -12,70zm145 1l-147 0 1 -1c1,-2 8,-44 13,-72l0 -2 15 30 12 -82 11 54 13 -20 1 2c0,0 6,33 8,42 2,-8 9,-42 13,-66l1 -3 8 55 11 9 9 -16 13 53 9 -28 9 45z"/>
   </g>
   <g>
    <g>
     <path class="fil1" d="M14 51c-4,0 -8,4 -8,8 0,4 4,7 8,7 4,0 8,-3 8,-7 0,-4 -4,-8 -8,-8zm0 16c-5,0 -9,-3 -9,-8 0,-5 4,-9 9,-9 5,0 9,4 9,9 0,5 -4,8 -9,8z"/>
     <path class="fil1" d="M41 1c-2,0 -5,2 -5,5 0,3 3,5 5,5 3,0 6,-2 6,-5 0,-3 -3,-5 -6,-5zm0 11c-3,0 -6,-3 -6,-6 0,-3 3,-6 6,-6 4,0 6,3 6,6 0,3 -2,6 -6,6z"/>
     <path class="fil1" d="M88 8c-3,0 -6,3 -6,5 0,3 3,6 6,6 2,0 5,-3 5,-6 0,-2 -3,-5 -5,-5zm0 11c-4,0 -6,-2 -6,-6 0,-3 2,-6 6,-6 3,0 6,3 6,6 0,4 -3,6 -6,6z"/>
     <path class="fil1" d="M115 58c-3,0 -5,2 -5,5 0,3 2,5 5,5 3,0 5,-2 5,-5 0,-3 -2,-5 -5,-5zm0 11c-3,0 -6,-3 -6,-6 0,-4 3,-6 6,-6 3,0 6,2 6,6 0,3 -3,6 -6,6z"/>
     <path class="fil1" d="M138 82c-3,0 -5,2 -5,5 0,3 2,5 5,5 3,0 5,-2 5,-5 0,-3 -2,-5 -5,-5zm0 11c-4,0 -6,-3 -6,-6 0,-4 2,-6 6,-6 3,0 6,2 6,6 0,3 -3,6 -6,6z"/>
     <path class="fil1" d="M65 35c-3,0 -5,2 -5,5 0,3 2,5 5,5 3,0 5,-2 5,-5 0,-3 -2,-5 -5,-5zm0 11c-3,0 -6,-2 -6,-6 0,-3 3,-6 6,-6 3,0 6,3 6,6 0,4 -3,6 -6,6z"/>
    </g>
    <g>
     <path class="fil2" d="M20 59c0,3 -2,6 -6,6 -3,0 -6,-3 -6,-6 0,-4 3,-7 6,-7 4,0 6,3 6,7z"/>
     <path class="fil2" d="M46 6c0,2 -2,4 -5,4 -2,0 -4,-2 -4,-4 0,-2 2,-4 4,-4 3,0 5,2 5,4z"/>
     <path class="fil2" d="M92 13c0,3 -2,5 -4,5 -3,0 -5,-2 -5,-5 0,-2 2,-4 5,-4 2,0 4,2 4,4z"/>
     <path class="fil2" d="M119 63c0,2 -2,4 -4,4 -3,0 -5,-2 -5,-4 0,-3 2,-5 5,-5 2,0 4,2 4,5z"/>
     <path class="fil2" d="M142 87c0,2 -2,4 -4,4 -3,0 -5,-2 -5,-4 0,-3 2,-5 5,-5 2,0 4,2 4,5z"/>
     <path class="fil2" d="M69 40c0,3 -2,5 -4,5 -3,0 -4,-2 -4,-5 0,-2 1,-4 4,-4 2,0 4,2 4,4z"/>
    </g>
   </g>
  </g>
 </g>
</svg>
