<?xml version="1.0" encoding="UTF-8"?>
<!DOCTYPE svg PUBLIC "-//W3C//DTD SVG 1.1//EN" "http://www.w3.org/Graphics/SVG/1.1/DTD/svg11.dtd">
<!-- Creator: CorelDRAW X7 -->
<svg xmlns="http://www.w3.org/2000/svg" xml:space="preserve" width="2300px" height="601px" version="1.1" style="shape-rendering:geometricPrecision; text-rendering:geometricPrecision; image-rendering:optimizeQuality; fill-rule:evenodd; clip-rule:evenodd"
viewBox="0 0 129 34"
 xmlns:xlink="http://www.w3.org/1999/xlink">
 <defs>
  <style type="text/css">
   <![CDATA[
    .fil1 {fill:#333333;fill-rule:nonzero}
    .fil0 {fill:#767676;fill-rule:nonzero}
   ]]>
  </style>
 </defs>
 <g id="Vrstva_x0020_1">
  <metadata id="CorelCorpID_0Corel-Layer"/>
  <g id="_2646644359968">
   <polygon class="fil0" points="127,20 129,18 129,7 127,5 "/>
   <g>
    <path class="fil0" d="M21 6c0,1 -1,1 -2,1 0,0 -1,0 -1,-1 0,-1 1,-2 1,-2 1,0 2,1 2,2z"/>
    <path class="fil0" d="M25 6c0,1 0,1 -1,1 -1,0 -1,0 -1,-1 0,-1 0,-2 1,-2 1,0 1,1 1,2z"/>
    <path class="fil0" d="M30 6c0,1 -1,1 -1,1 -1,0 -2,0 -2,-1 0,-1 1,-2 2,-2 0,0 1,1 1,2z"/>
    <path class="fil0" d="M35 6c0,1 -1,1 -2,1 -1,0 -1,0 -1,-1 0,-1 0,-2 1,-2 1,0 2,1 2,2z"/>
    <path class="fil0" d="M39 6c0,1 0,1 -1,1 -1,0 -2,0 -2,-1 0,-1 1,-2 2,-2 1,0 1,1 1,2z"/>
    <path class="fil0" d="M44 6c0,1 -1,1 -2,1 0,0 -1,0 -1,-1 0,-1 1,-2 1,-2 1,0 2,1 2,2z"/>
    <path class="fil0" d="M48 6c0,1 0,1 -1,1 -1,0 -1,0 -1,-1 0,-1 0,-2 1,-2 1,0 1,1 1,2z"/>
    <path class="fil0" d="M53 6c0,1 0,1 -1,1 -1,0 -2,0 -2,-1 0,-1 1,-2 2,-2 1,0 1,1 1,2z"/>
    <path class="fil0" d="M58 6c0,1 -1,1 -2,1 0,0 -1,0 -1,-1 0,-1 1,-2 1,-2 1,0 2,1 2,2z"/>
   </g>
   <g>
    <path class="fil0" d="M21 13c0,0 -1,1 -2,1 0,0 -1,-1 -1,-1 0,-1 1,-2 1,-2 1,0 2,1 2,2z"/>
    <path class="fil0" d="M25 13c0,0 0,1 -1,1 -1,0 -1,-1 -1,-1 0,-1 0,-2 1,-2 1,0 1,1 1,2z"/>
    <path class="fil0" d="M30 13c0,0 -1,1 -1,1 -1,0 -2,-1 -2,-1 0,-1 1,-2 2,-2 0,0 1,1 1,2z"/>
    <path class="fil0" d="M35 13c0,0 -1,1 -2,1 -1,0 -1,-1 -1,-1 0,-1 0,-2 1,-2 1,0 2,1 2,2z"/>
    <path class="fil0" d="M39 13c0,0 0,1 -1,1 -1,0 -2,-1 -2,-1 0,-1 1,-2 2,-2 1,0 1,1 1,2z"/>
    <path class="fil0" d="M44 13c0,0 -1,1 -2,1 0,0 -1,-1 -1,-1 0,-1 1,-2 1,-2 1,0 2,1 2,2z"/>
    <path class="fil0" d="M48 13c0,0 0,1 -1,1 -1,0 -1,-1 -1,-1 0,-1 0,-2 1,-2 1,0 1,1 1,2z"/>
    <path class="fil0" d="M53 13c0,0 0,1 -1,1 -1,0 -2,-1 -2,-1 0,-1 1,-2 2,-2 1,0 1,1 1,2z"/>
    <path class="fil0" d="M58 13c0,0 -1,1 -2,1 0,0 -1,-1 -1,-1 0,-1 1,-2 1,-2 1,0 2,1 2,2z"/>
    <path class="fil0" d="M62 13c0,0 0,1 -1,1 -1,0 -1,-1 -1,-1 0,-1 0,-2 1,-2 1,0 1,1 1,2z"/>
    <path class="fil0" d="M67 13c0,0 -1,1 -1,1 -1,0 -2,-1 -2,-1 0,-1 1,-2 2,-2 0,0 1,1 1,2z"/>
    <path class="fil0" d="M72 13c0,0 -1,1 -2,1 0,0 -1,-1 -1,-1 0,-1 1,-2 1,-2 1,0 2,1 2,2z"/>
    <path class="fil0" d="M76 13c0,0 0,1 -1,1 -1,0 -1,-1 -1,-1 0,-1 0,-2 1,-2 1,0 1,1 1,2z"/>
   </g>
   <g>
    <path class="fil0" d="M21 19c0,1 -1,2 -2,2 0,0 -1,-1 -1,-2 0,0 1,-1 1,-1 1,0 2,1 2,1z"/>
    <path class="fil0" d="M25 19c0,1 0,2 -1,2 -1,0 -1,-1 -1,-2 0,0 0,-1 1,-1 1,0 1,1 1,1z"/>
    <path class="fil0" d="M30 19c0,1 -1,2 -1,2 -1,0 -2,-1 -2,-2 0,0 1,-1 2,-1 0,0 1,1 1,1z"/>
    <path class="fil0" d="M35 19c0,1 -1,2 -2,2 -1,0 -1,-1 -1,-2 0,0 0,-1 1,-1 1,0 2,1 2,1z"/>
   </g>
   <g>
    <polygon class="fil1" points="13,0 13,8 14,7 14,1 126,1 126,24 53,24 52,25 127,25 127,0 "/>
    <g>
     <path class="fil1" d="M62 6c0,1 0,1 -1,1 -1,0 -1,0 -1,-1 0,-1 0,-2 1,-2 1,0 1,1 1,2z"/>
     <path class="fil1" d="M67 6c0,1 -1,1 -1,1 -1,0 -2,0 -2,-1 0,-1 1,-2 2,-2 0,0 1,1 1,2z"/>
     <path class="fil1" d="M72 6c0,1 -1,1 -2,1 0,0 -1,0 -1,-1 0,-1 1,-2 1,-2 1,0 2,1 2,2z"/>
     <path class="fil1" d="M76 6c0,1 0,1 -1,1 -1,0 -1,0 -1,-1 0,-1 0,-2 1,-2 1,0 1,1 1,2z"/>
     <path class="fil1" d="M81 6c0,1 -1,1 -1,1 -1,0 -2,0 -2,-1 0,-1 1,-2 2,-2 0,0 1,1 1,2z"/>
     <path class="fil1" d="M86 6c0,1 -1,1 -2,1 -1,0 -1,0 -1,-1 0,-1 0,-2 1,-2 1,0 2,1 2,2z"/>
     <path class="fil1" d="M90 6c0,1 0,1 -1,1 -1,0 -2,0 -2,-1 0,-1 1,-2 2,-2 1,0 1,1 1,2z"/>
     <path class="fil1" d="M95 6c0,1 -1,1 -2,1 0,0 -1,0 -1,-1 0,-1 1,-2 1,-2 1,0 2,1 2,2z"/>
     <path class="fil1" d="M99 6c0,1 0,1 -1,1 -1,0 -1,0 -1,-1 0,-1 0,-2 1,-2 1,0 1,1 1,2z"/>
     <path class="fil1" d="M104 6c0,1 -1,1 -1,1 -1,0 -2,0 -2,-1 0,-1 1,-2 2,-2 0,0 1,1 1,2z"/>
     <path class="fil1" d="M109 6c0,1 -1,1 -2,1 0,0 -1,0 -1,-1 0,-1 1,-2 1,-2 1,0 2,1 2,2z"/>
     <path class="fil1" d="M109 6c0,1 -1,1 -2,1 0,0 -1,0 -1,-1 0,-1 1,-2 1,-2 1,0 2,1 2,2z"/>
     <path class="fil1" d="M113 6c0,1 0,1 -1,1 -1,0 -1,0 -1,-1 0,-1 0,-2 1,-2 1,0 1,1 1,2z"/>
     <path class="fil1" d="M118 6c0,1 -1,1 -1,1 -1,0 -2,0 -2,-1 0,-1 1,-2 2,-2 0,0 1,1 1,2z"/>
     <path class="fil1" d="M123 6c0,1 -1,1 -2,1 -1,0 -1,0 -1,-1 0,-1 0,-2 1,-2 1,0 2,1 2,2z"/>
    </g>
    <g>
     <path class="fil1" d="M81 13c0,0 -1,1 -1,1 -1,0 -2,-1 -2,-1 0,-1 1,-2 2,-2 0,0 1,1 1,2z"/>
     <path class="fil1" d="M86 13c0,0 -1,1 -2,1 -1,0 -1,-1 -1,-1 0,-1 0,-2 1,-2 1,0 2,1 2,2z"/>
     <path class="fil1" d="M90 13c0,0 0,1 -1,1 -1,0 -2,-1 -2,-1 0,-1 1,-2 2,-2 1,0 1,1 1,2z"/>
     <path class="fil1" d="M95 13c0,0 -1,1 -2,1 0,0 -1,-1 -1,-1 0,-1 1,-2 1,-2 1,0 2,1 2,2z"/>
     <path class="fil1" d="M99 13c0,0 0,1 -1,1 -1,0 -1,-1 -1,-1 0,-1 0,-2 1,-2 1,0 1,1 1,2z"/>
     <path class="fil1" d="M104 13c0,0 -1,1 -1,1 -1,0 -2,-1 -2,-1 0,-1 1,-2 2,-2 0,0 1,1 1,2z"/>
     <path class="fil1" d="M109 13c0,0 -1,1 -2,1 0,0 -1,-1 -1,-1 0,-1 1,-2 1,-2 1,0 2,1 2,2z"/>
     <path class="fil1" d="M109 13c0,0 -1,1 -2,1 0,0 -1,-1 -1,-1 0,-1 1,-2 1,-2 1,0 2,1 2,2z"/>
     <path class="fil1" d="M113 13c0,0 0,1 -1,1 -1,0 -1,-1 -1,-1 0,-1 0,-2 1,-2 1,0 1,1 1,2z"/>
     <path class="fil1" d="M118 13c0,0 -1,1 -1,1 -1,0 -2,-1 -2,-1 0,-1 1,-2 2,-2 0,0 1,1 1,2z"/>
     <path class="fil1" d="M123 13c0,0 -1,1 -2,1 -1,0 -1,-1 -1,-1 0,-1 0,-2 1,-2 1,0 2,1 2,2z"/>
    </g>
    <g>
     <path class="fil1" d="M39 19c0,1 0,2 -1,2 -1,0 -2,-1 -2,-2 0,0 1,-1 2,-1 1,0 1,1 1,1z"/>
     <path class="fil1" d="M44 19c0,1 -1,2 -2,2 0,0 -1,-1 -1,-2 0,0 1,-1 1,-1 1,0 2,1 2,1z"/>
     <path class="fil1" d="M48 19c0,1 0,2 -1,2 -1,0 -1,-1 -1,-2 0,0 0,-1 1,-1 1,0 1,1 1,1z"/>
     <path class="fil1" d="M53 19c0,1 0,2 -1,2 -1,0 -2,-1 -2,-2 0,0 1,-1 2,-1 1,0 1,1 1,1z"/>
     <path class="fil1" d="M58 19c0,1 -1,2 -2,2 0,0 -1,-1 -1,-2 0,0 1,-1 1,-1 1,0 2,1 2,1z"/>
     <path class="fil1" d="M62 19c0,1 0,2 -1,2 -1,0 -1,-1 -1,-2 0,0 0,-1 1,-1 1,0 1,1 1,1z"/>
     <path class="fil1" d="M67 19c0,1 -1,2 -1,2 -1,0 -2,-1 -2,-2 0,0 1,-1 2,-1 0,0 1,1 1,1z"/>
     <path class="fil1" d="M72 19c0,1 -1,2 -2,2 0,0 -1,-1 -1,-2 0,0 1,-1 1,-1 1,0 2,1 2,1z"/>
     <path class="fil1" d="M76 19c0,1 0,2 -1,2 -1,0 -1,-1 -1,-2 0,0 0,-1 1,-1 1,0 1,1 1,1z"/>
     <path class="fil1" d="M81 19c0,1 -1,2 -1,2 -1,0 -2,-1 -2,-2 0,0 1,-1 2,-1 0,0 1,1 1,1z"/>
     <path class="fil1" d="M86 19c0,1 -1,2 -2,2 -1,0 -1,-1 -1,-2 0,0 0,-1 1,-1 1,0 2,1 2,1z"/>
     <path class="fil1" d="M90 19c0,1 0,2 -1,2 -1,0 -2,-1 -2,-2 0,0 1,-1 2,-1 1,0 1,1 1,1z"/>
     <path class="fil1" d="M95 19c0,1 -1,2 -2,2 0,0 -1,-1 -1,-2 0,0 1,-1 1,-1 1,0 2,1 2,1z"/>
     <path class="fil1" d="M99 19c0,1 0,2 -1,2 -1,0 -1,-1 -1,-2 0,0 0,-1 1,-1 1,0 1,1 1,1z"/>
     <path class="fil1" d="M104 19c0,1 -1,2 -1,2 -1,0 -2,-1 -2,-2 0,0 1,-1 2,-1 0,0 1,1 1,1z"/>
     <path class="fil1" d="M109 19c0,1 -1,2 -2,2 0,0 -1,-1 -1,-2 0,0 1,-1 1,-1 1,0 2,1 2,1z"/>
     <path class="fil1" d="M109 19c0,1 -1,2 -2,2 0,0 -1,-1 -1,-2 0,0 1,-1 1,-1 1,0 2,1 2,1z"/>
     <path class="fil1" d="M113 19c0,1 0,2 -1,2 -1,0 -1,-1 -1,-2 0,0 0,-1 1,-1 1,0 1,1 1,1z"/>
     <path class="fil1" d="M118 19c0,1 -1,2 -1,2 -1,0 -2,-1 -2,-2 0,0 1,-1 2,-1 0,0 1,1 1,1z"/>
     <path class="fil1" d="M123 19c0,1 -1,2 -2,2 -1,0 -1,-1 -1,-2 0,0 0,-1 1,-1 1,0 2,1 2,1z"/>
    </g>
    <polygon class="fil1" points="16,7 16,22 53,22 48,27 11,27 11,11 "/>
   </g>
   <path class="fil0" d="M68 31l-37 0 -2 2 -21 0 0 -13 1 -1 0 10 60 0 -1 2zm-58 -3l0 -11 -3 3 0 14 22 0 2 -2 37 0 3 -4 -61 0z"/>
   <path class="fil0" d="M9 16l-5 4 0 13 -3 0 0 -4 2 -2 0 -7 6 -5 0 1zm-7 4l0 6 -2 3 0 5 5 0 0 -14 5 -4 0 -4 -8 8z"/>
  </g>
 </g>
</svg>
