<?xml version="1.0" encoding="UTF-8"?>
<!DOCTYPE svg PUBLIC "-//W3C//DTD SVG 1.1//EN" "http://www.w3.org/Graphics/SVG/1.1/DTD/svg11.dtd">
<!-- Creator: CorelDRAW X7 -->
<svg xmlns="http://www.w3.org/2000/svg" xml:space="preserve" width="2300px" height="691px" version="1.1" style="shape-rendering:geometricPrecision; text-rendering:geometricPrecision; image-rendering:optimizeQuality; fill-rule:evenodd; clip-rule:evenodd"
viewBox="0 0 112 34"
 xmlns:xlink="http://www.w3.org/1999/xlink">
 <defs>
  <style type="text/css">
   <![CDATA[
    .fil0 {fill:#999999;fill-rule:nonzero}
    .fil1 {fill:#767676;fill-rule:nonzero}
   ]]>
  </style>
 </defs>
 <g id="Vrstva_x0020_1">
  <metadata id="CorelCorpID_0Corel-Layer"/>
  <g id="_2649180555456">
   <g>
    <polygon class="fil0" points="24,20 21,20 21,26 "/>
    <polygon class="fil0" points="90,26 96,26 100,20 93,20 "/>
    <polygon class="fil0" points="82,26 89,26 92,20 86,20 "/>
    <polygon class="fil0" points="75,26 81,26 84,20 78,20 "/>
    <polygon class="fil0" points="67,26 73,26 77,20 71,20 "/>
    <polygon class="fil0" points="60,26 66,26 69,20 63,20 "/>
    <polygon class="fil0" points="52,26 58,26 62,20 56,20 "/>
    <polygon class="fil0" points="45,26 51,26 54,20 48,20 "/>
    <polygon class="fil0" points="37,26 43,26 47,20 40,20 "/>
    <polygon class="fil0" points="29,26 36,26 39,20 33,20 "/>
    <polygon class="fil0" points="22,26 28,26 32,20 25,20 "/>
   </g>
   <path class="fil1" d="M20 27l77 0 4 -8 -81 0 0 8zm77 1l-79 0 0 -11 85 0 -6 11z"/>
   <g>
    <polygon class="fil0" points="33,4 29,4 29,10 "/>
    <polygon class="fil0" points="99,10 105,10 108,4 102,4 "/>
    <polygon class="fil0" points="91,10 97,10 101,4 95,4 "/>
    <polygon class="fil0" points="84,10 90,10 93,4 87,4 "/>
    <polygon class="fil0" points="76,10 82,10 86,4 79,4 "/>
    <polygon class="fil0" points="68,10 75,10 78,4 72,4 "/>
    <polygon class="fil0" points="61,10 67,10 71,4 64,4 "/>
    <polygon class="fil0" points="53,10 59,10 63,4 57,4 "/>
    <polygon class="fil0" points="46,10 52,10 55,4 49,4 "/>
    <polygon class="fil0" points="38,10 44,10 48,4 42,4 "/>
    <polygon class="fil0" points="31,10 37,10 40,4 34,4 "/>
   </g>
   <path class="fil1" d="M28 11l77 0 5 -8 -82 0 0 8zm78 2l-79 0 0 -11 85 0 -6 11z"/>
   <path class="fil0" d="M12 32l21 0 1 -1 -20 0 0 -17 5 0 3 -3 2 0 0 -7 -12 0 0 28zm21 2l-22 0 0 -31 14 0 0 9 -3 0 -2 3 -5 0 0 15 22 0 -4 4z"/>
   <polygon class="fil0" points="22,13 19,16 49,16 47,13 "/>
   <path class="fil0" d="M7 32l2 0 0 -27 -5 4 0 13 3 3 0 7zm3 2l-4 0 0 -9 -3 -3 0 -14 7 -6 0 32z"/>
   <polygon class="fil1" points="1,17 0,17 0,8 8,0 36,0 36,1 9,1 1,9 "/>
  </g>
 </g>
</svg>
