<?xml version="1.0" encoding="UTF-8"?>
<!DOCTYPE svg PUBLIC "-//W3C//DTD SVG 1.1//EN" "http://www.w3.org/Graphics/SVG/1.1/DTD/svg11.dtd">
<!-- Creator: CorelDRAW X7 -->
<svg xmlns="http://www.w3.org/2000/svg" xml:space="preserve" width="2300px" height="1924px" version="1.1" style="shape-rendering:geometricPrecision; text-rendering:geometricPrecision; image-rendering:optimizeQuality; fill-rule:evenodd; clip-rule:evenodd"
viewBox="0 0 232 194"
 xmlns:xlink="http://www.w3.org/1999/xlink">
 <defs>
  <style type="text/css">
   <![CDATA[
    .fil1 {fill:#252626;fill-rule:nonzero}
    .fil0 {fill:#767676;fill-rule:nonzero}
   ]]>
  </style>
 </defs>
 <g id="Vrstva_x0020_1">
  <metadata id="CorelCorpID_0Corel-Layer"/>
  <g id="_2649058591216">
   <path class="fil0" d="M221 62c2,3 3,7 4,11l3 -1c-1,-4 -2,-8 -3,-11l-4 1z"/>
   <path class="fil0" d="M41 11c-3,3 -6,6 -9,9l3 2c2,-3 5,-5 8,-8l-2 -3z"/>
   <path class="fil0" d="M231 91c0,-4 0,-8 -1,-11l-4 0c1,4 1,8 2,12l3 -1z"/>
   <path class="fil0" d="M206 26l-3 3c2,3 4,6 7,9l3 -2c-2,-3 -5,-6 -7,-10z"/>
   <path class="fil0" d="M201 21c-3,-3 -6,-6 -9,-9l-2 3c2,3 5,5 8,8l3 -2z"/>
   <path class="fil0" d="M232 100l0 -1 -4 0 0 1c0,3 0,7 -1,11l4 0c0,-4 1,-8 1,-11z"/>
   <path class="fil0" d="M213 45c2,3 4,6 6,10l3 -2c-2,-3 -3,-7 -5,-10l-4 2z"/>
   <path class="fil0" d="M186 7c-3,-2 -6,-4 -10,-6l-2 3c4,2 7,4 10,6l2 -3z"/>
   <path class="fil0" d="M225 138l-4 -1c-1,3 -2,7 -4,10l4 2c1,-4 3,-7 4,-11z"/>
   <path class="fil0" d="M230 119l-4 -1c0,4 -1,8 -2,12l3 1c2,-4 2,-8 3,-12z"/>
   <path class="fil0" d="M19 43l-3 -1c-2,3 -4,6 -6,10l4 2c1,-4 3,-7 5,-11z"/>
   <path class="fil0" d="M4 71l3 1c1,-4 2,-8 4,-11l-4 -2c-1,4 -2,8 -3,12z"/>
   <path class="fil0" d="M20 165l3 -3c-2,-3 -4,-6 -6,-9l-3 1c2,4 4,7 6,11z"/>
   <path class="fil0" d="M32 180l3 -3c-3,-3 -5,-5 -7,-8l-3 2c2,3 5,6 7,9z"/>
   <path class="fil0" d="M211 166c2,-3 4,-7 6,-10l-3 -2c-2,3 -4,7 -6,10l3 2z"/>
   <path class="fil0" d="M198 181c3,-3 6,-6 8,-9l-3 -2c-2,3 -5,6 -8,8l3 3z"/>
   <path class="fil0" d="M0 90l4 0c1,-4 1,-7 2,-11l-4 -1c-1,4 -1,8 -2,12z"/>
   <path class="fil0" d="M7 128c0,-4 -1,-7 -2,-11l-4 0c1,4 2,8 3,12l3 -1z"/>
   <path class="fil0" d="M14 146c-2,-4 -3,-7 -4,-11l-4 1c1,4 3,8 4,11l4 -1z"/>
   <path class="fil0" d="M27 25c-3,3 -5,7 -7,10l3 2c2,-3 4,-6 7,-9l-3 -3z"/>
   <path class="fil0" d="M0 100c0,3 0,6 0,10l4 -1c0,-3 0,-6 0,-9l0 -2 -4 0 0 2z"/>
   <path class="fil0" d="M38 185c3,3 6,5 9,8l2 -3c-3,-3 -6,-5 -8,-8l-3 3z"/>
   <path class="fil0" d="M190 184c-3,2 -6,4 -9,7l2 3c3,-3 6,-5 9,-8l-2 -2z"/>
   <path class="fil0" d="M49 10c3,-3 6,-5 9,-7l-1 -3c-4,2 -7,4 -10,7l2 3z"/>
   <path class="fil0" d="M134 103l0 14 -36 0 0 -35 36 0 0 21zm33 -6c-8,-1 -16,-1 -24,-1l0 -24 -24 0c0,-5 0,-9 0,-14 -1,-14 -2,-28 -3,-42 -2,14 -3,28 -3,42 0,5 -1,9 -1,14l-24 0 0 24c-7,0 -15,0 -23,1 -17,0 -34,1 -51,3 17,1 34,2 51,3 8,0 16,0 23,0l0 24 24 0c0,5 1,9 1,14 0,14 1,28 3,42 1,-14 2,-28 3,-42 0,-5 0,-9 0,-14l24 0 0 -24c8,0 16,0 24,-1 17,0 34,-1 51,-2 -17,-2 -34,-3 -51,-3z"/>
   <path class="fil1" d="M89 41l0 -5 -37 0 0 36 6 0 0 0c0,-17 13,-31 31,-31z"/>
   <path class="fil1" d="M180 72l0 -36 -37 0 0 5c17,0 31,14 31,31l0 0 6 0z"/>
   <path class="fil1" d="M58 127l0 0 -6 0 0 36 37 0 0 -5c-18,0 -31,-14 -31,-31z"/>
   <path class="fil1" d="M174 127c0,17 -14,31 -31,31l0 5 37 0 0 -36 -6 0 0 0z"/>
  </g>
 </g>
</svg>
