<?xml version="1.0" encoding="UTF-8"?>
<!DOCTYPE svg PUBLIC "-//W3C//DTD SVG 1.1//EN" "http://www.w3.org/Graphics/SVG/1.1/DTD/svg11.dtd">
<!-- Creator: CorelDRAW X7 -->
<svg xmlns="http://www.w3.org/2000/svg" xml:space="preserve" width="2300px" height="691px" version="1.1" style="shape-rendering:geometricPrecision; text-rendering:geometricPrecision; image-rendering:optimizeQuality; fill-rule:evenodd; clip-rule:evenodd"
viewBox="0 0 99 30"
 xmlns:xlink="http://www.w3.org/1999/xlink">
 <defs>
  <style type="text/css">
   <![CDATA[
    .fil0 {fill:#252626;fill-rule:nonzero}
    .fil1 {fill:#767676;fill-rule:nonzero}
   ]]>
  </style>
 </defs>
 <g id="Vrstva_x0020_1">
  <metadata id="CorelCorpID_0Corel-Layer"/>
  <g id="_2610649205648">
   <polygon class="fil0" points="21,17 18,17 18,23 "/>
   <polygon class="fil0" points="80,23 85,23 88,17 83,17 "/>
   <polygon class="fil0" points="73,23 78,23 81,17 76,17 "/>
   <polygon class="fil0" points="66,23 72,23 75,17 69,17 "/>
   <polygon class="fil0" points="59,23 65,23 68,17 63,17 "/>
   <polygon class="fil0" points="53,23 58,23 61,17 56,17 "/>
   <polygon class="fil0" points="46,23 52,23 55,17 49,17 "/>
   <polygon class="fil0" points="39,23 45,23 48,17 42,17 "/>
   <polygon class="fil0" points="33,23 38,23 41,17 36,17 "/>
   <polygon class="fil0" points="26,23 31,23 35,17 29,17 "/>
   <polygon class="fil0" points="19,23 25,23 28,17 22,17 "/>
   <path class="fil1" d="M17 24l69 0 3 -8 -72 0 0 8zm69 1l-70 0 0 -10 75 0 -5 10z"/>
   <polygon class="fil0" points="29,4 26,4 26,9 "/>
   <polygon class="fil0" points="87,9 93,9 96,4 90,4 "/>
   <polygon class="fil0" points="81,9 86,9 89,4 84,4 "/>
   <polygon class="fil0" points="74,9 79,9 82,4 77,4 "/>
   <polygon class="fil0" points="67,9 73,9 76,4 70,4 "/>
   <polygon class="fil0" points="60,9 66,9 69,4 64,4 "/>
   <polygon class="fil0" points="54,9 59,9 62,4 57,4 "/>
   <polygon class="fil0" points="47,9 53,9 56,4 50,4 "/>
   <polygon class="fil0" points="40,9 46,9 49,4 44,4 "/>
   <polygon class="fil0" points="34,9 39,9 42,4 37,4 "/>
   <polygon class="fil0" points="27,9 33,9 36,4 30,4 "/>
   <path class="fil1" d="M25 10l68 0 4 -7 -72 0 0 7zm69 1l-70 0 0 -9 75 0 -5 9z"/>
   <path class="fil0" d="M11 29l18 0 1 -2 -18 0 0 -15 5 0 2 -2 3 0 0 -7 -11 0 0 26zm18 1l-19 0 0 -28 12 0 0 9 -2 0 -3 2 -4 0 0 13 20 0 -4 4z"/>
   <polygon class="fil0" points="20,12 17,14 44,14 41,12 "/>
   <path class="fil0" d="M6 29l2 0 0 -25 -4 4 0 11 2 3 0 7zm3 1l-4 0 0 -8 -2 -2 0 -13 6 -5 0 28z"/>
   <polygon class="fil1" points="1,15 0,15 0,7 7,0 32,0 32,1 8,1 1,8 "/>
  </g>
 </g>
</svg>
