<?xml version="1.0" encoding="UTF-8"?>
<!DOCTYPE svg PUBLIC "-//W3C//DTD SVG 1.1//EN" "http://www.w3.org/Graphics/SVG/1.1/DTD/svg11.dtd">
<!-- Creator: CorelDRAW X7 -->
<svg xmlns="http://www.w3.org/2000/svg" xml:space="preserve" width="2300px" height="1058px" version="1.1" style="shape-rendering:geometricPrecision; text-rendering:geometricPrecision; image-rendering:optimizeQuality; fill-rule:evenodd; clip-rule:evenodd"
viewBox="0 0 2233 1027"
 xmlns:xlink="http://www.w3.org/1999/xlink">
 <defs>
  <style type="text/css">
   <![CDATA[
    .fil1 {fill:#252626;fill-rule:nonzero}
    .fil0 {fill:#767676;fill-rule:nonzero}
    .fil2 {fill:white;fill-rule:nonzero}
   ]]>
  </style>
 </defs>
 <g id="Vrstva_x0020_1">
  <metadata id="CorelCorpID_0Corel-Layer"/>
  <g id="_2610650862832">
   <polygon class="fil0" points="405,225 470,290 405,356 521,356 586,290 521,225 "/>
   <polygon class="fil0" points="379,356 444,290 379,225 "/>
   <polygon class="fil0" points="547,225 612,290 547,356 663,356 728,290 663,225 "/>
   <polygon class="fil0" points="689,225 754,290 689,356 805,356 870,290 805,225 "/>
   <polygon class="fil0" points="831,225 896,290 831,356 947,356 1012,290 947,225 "/>
   <polygon class="fil0" points="973,225 1038,290 973,356 1089,356 1154,290 1089,225 "/>
   <polygon class="fil0" points="1115,225 1180,290 1115,356 1231,356 1296,290 1231,225 "/>
   <polygon class="fil1" points="1257,225 1323,290 1257,356 1373,356 1439,290 1373,225 "/>
   <polygon class="fil1" points="1399,225 1465,290 1399,356 1515,356 1581,290 1515,225 "/>
   <polygon class="fil1" points="1541,225 1607,290 1541,356 1657,356 1723,290 1657,225 "/>
   <polygon class="fil1" points="1684,225 1749,290 1684,356 1800,356 1865,290 1800,225 "/>
   <path class="fil0" d="M1810 368l-1444 0 0 -155 1444 0 77 77 -77 78zm8 -174l-1471 0 0 193 1471 0 97 -97 -97 -96z"/>
   <polygon class="fil0" points="563,491 629,556 563,622 679,622 745,556 679,491 "/>
   <polygon class="fil0" points="537,622 603,556 537,491 "/>
   <polygon class="fil0" points="706,491 771,556 706,622 822,622 887,556 822,491 "/>
   <polygon class="fil0" points="848,491 913,556 848,622 964,622 1029,556 964,491 "/>
   <polygon class="fil0" points="990,491 1055,556 990,622 1106,622 1171,556 1106,491 "/>
   <polygon class="fil0" points="1132,491 1197,556 1132,622 1248,622 1313,556 1248,491 "/>
   <polygon class="fil0" points="1274,491 1339,556 1274,622 1390,622 1455,556 1390,491 "/>
   <polygon class="fil0" points="1416,491 1481,556 1416,622 1532,622 1597,556 1532,491 "/>
   <polygon class="fil1" points="1558,491 1623,556 1558,622 1674,622 1739,556 1674,491 "/>
   <polygon class="fil1" points="1700,491 1765,556 1700,622 1816,622 1881,556 1816,491 "/>
   <polygon class="fil1" points="1842,491 1908,556 1842,622 1958,622 2024,556 1958,491 "/>
   <path class="fil0" d="M1969 634l-1444 0 0 -155 1444 0 77 77 -77 78zm8 -174l-1472 0 0 193 1472 0 97 -97 -97 -96z"/>
   <polygon class="fil0" points="723,757 788,822 723,888 839,888 904,822 839,757 "/>
   <polygon class="fil0" points="697,888 762,822 697,757 "/>
   <polygon class="fil0" points="865,757 930,822 865,888 981,888 1046,822 981,757 "/>
   <polygon class="fil0" points="1007,757 1072,822 1007,888 1123,888 1189,822 1123,757 "/>
   <polygon class="fil1" points="1149,757 1215,822 1149,888 1265,888 1331,822 1265,757 "/>
   <polygon class="fil1" points="1291,757 1357,822 1291,888 1407,888 1473,822 1407,757 "/>
   <polygon class="fil1" points="1433,757 1499,822 1433,888 1549,888 1615,822 1549,757 "/>
   <polygon class="fil1" points="1576,757 1641,822 1576,888 1692,888 1757,822 1692,757 "/>
   <polygon class="fil1" points="1718,757 1783,822 1718,888 1834,888 1899,822 1834,757 "/>
   <polygon class="fil1" points="1860,757 1925,822 1860,888 1976,888 2041,822 1976,757 "/>
   <polygon class="fil1" points="2002,757 2067,822 2002,888 2118,888 2183,822 2118,757 "/>
   <path class="fil0" d="M2128 900l-1444 0 0 -155 1444 0 78 77 -78 78zm8 -174l-1471 0 0 193 1471 0 97 -97 -97 -96z"/>
   <path class="fil1" d="M328 277l0 19 -207 0 0 198c-3,-1 -6,-1 -10,-1 -3,0 -6,0 -9,1l0 -217 226 0z"/>
   <path class="fil1" d="M646 813l0 19 -544 0 0 -207c3,1 6,1 9,1 4,0 7,0 10,-1l0 188 525 0z"/>
   <path class="fil1" d="M487 547l0 19 -309 0c0,-2 0,-4 0,-7 0,-4 0,-8 -1,-12l310 0z"/>
   <path class="fil2" d="M121 625c-3,1 -6,1 -10,1 -3,0 -6,0 -9,-1 -32,-4 -57,-32 -57,-66 0,-33 25,-61 57,-65 3,-1 6,-1 9,-1 4,0 7,0 10,1 28,4 50,25 56,53 1,4 1,8 1,12 0,3 0,5 0,7 -3,31 -27,55 -57,59zm66 -78c-6,-33 -33,-59 -66,-63 -3,-1 -6,-1 -10,-1 -3,0 -6,0 -9,1 -38,5 -67,37 -67,75 0,39 29,71 67,76 3,1 6,1 9,1 4,0 7,0 10,-1 35,-4 63,-33 66,-69 1,-2 1,-4 1,-7 0,-4 -1,-8 -1,-12z"/>
   <path class="fil0" d="M121 625c-3,1 -6,1 -10,1 -3,0 -6,0 -9,-1 -32,-4 -57,-32 -57,-66 0,-33 25,-61 57,-65 3,-1 6,-1 9,-1 4,0 7,0 10,1 28,4 50,25 56,53 1,4 1,8 1,12 0,3 0,5 0,7 -3,31 -27,55 -57,59zm75 -78c-5,-39 -36,-69 -75,-73 -3,0 -6,-1 -10,-1 -3,0 -6,1 -9,1 -43,5 -77,41 -77,85 0,45 34,81 77,86 3,0 6,0 9,0 4,0 7,0 10,0 41,-5 73,-38 76,-79 0,-2 0,-4 0,-7 0,-4 0,-8 -1,-12z"/>
   <path class="fil1" d="M145 559c0,19 -15,34 -34,34 -18,0 -33,-15 -33,-34 0,-18 15,-33 33,-33 19,0 34,15 34,33z"/>
   <path class="fil1" d="M1074 1008l-648 0 0 -88 45 -46 139 0 0 102 495 0 -31 32zm-444 -51l0 -102 -167 0 -56 57 0 115 675 0 70 -70 -522 0z"/>
   <polygon class="fil1" points="1129,1017 1180,966 1688,966 1637,1017 "/>
   <path class="fil0" d="M19 1008l0 -273 32 32 0 107 342 0 -31 32 -153 0 -102 102 -88 0zm51 -153l0 -96 -70 -70 0 338 115 0 102 -102 153 0 70 -70 -370 0z"/>
   <polygon class="fil0" points="823,102 874,153 61,153 61,333 10,384 10,0 111,0 213,102 "/>
   <path class="fil1" d="M356 1008l-170 0 31 -32 139 0 0 32zm-147 -51l-70 70 236 0 0 -70 -166 0z"/>
   <polygon class="fil1" points="162,763 162,712 518,712 569,763 "/>
   <polygon class="fil1" points="111,254 315,254 315,203 111,203 "/>
  </g>
 </g>
</svg>
