<?xml version="1.0" encoding="UTF-8"?>
<!DOCTYPE svg PUBLIC "-//W3C//DTD SVG 1.1//EN" "http://www.w3.org/Graphics/SVG/1.1/DTD/svg11.dtd">
<!-- Creator: CorelDRAW X7 -->
<svg xmlns="http://www.w3.org/2000/svg" xml:space="preserve" width="1738px" height="1048px" version="1.1" style="shape-rendering:geometricPrecision; text-rendering:geometricPrecision; image-rendering:optimizeQuality; fill-rule:evenodd; clip-rule:evenodd"
viewBox="0 0 292 176"
 xmlns:xlink="http://www.w3.org/1999/xlink">
 <defs>
  <style type="text/css">
   <![CDATA[
    .fil2 {fill:gray;fill-rule:nonzero}
    .fil1 {fill:#252626;fill-rule:nonzero}
    .fil0 {fill:#767676;fill-rule:nonzero}
   ]]>
  </style>
 </defs>
 <g id="Vrstva_x0020_1">
  <metadata id="CorelCorpID_0Corel-Layer"/>
  <g id="_2610650867120">
   <polygon class="fil0" points="72,163 61,174 15,174 15,82 26,82 26,163 "/>
   <path class="fil1" d="M77 172l40 0 12 -11 48 0 19 -19 -89 0 -30 30zm42 4l-52 0 39 -38 99 0 -26 27 -49 0 -11 11z"/>
   <polygon class="fil1" points="76,86 276,86 276,69 76,69 "/>
   <polygon class="fil1" points="76,112 276,112 276,95 76,95 "/>
   <polygon class="fil1" points="40,151 36,151 36,73 15,73 15,69 40,69 "/>
   <polygon class="fil1" points="40,65 15,65 15,61 36,61 36,58 15,58 15,54 40,54 "/>
   <path class="fil1" d="M292 0l0 25 -4 0c0,-6 -2,-11 -6,-15 -4,-4 -9,-6 -15,-6l0 -4 25 0z"/>
   <path class="fil0" d="M62 126l226 0 0 -77 -45 -45 -227 0 -12 13 0 18 46 0 12 12 0 79zm230 4l-233 0 0 -81 -11 -11 -48 0 0 -23 15 -15 230 0 47 47 0 83z"/>
   <polygon class="fil0" points="79,57 84,57 84,59 77,59 77,48 79,48 "/>
   <polygon class="fil2" points="76,60 216,60 216,48 76,48 "/>
  </g>
 </g>
</svg>
