<?xml version="1.0" encoding="UTF-8"?>
<!DOCTYPE svg PUBLIC "-//W3C//DTD SVG 1.1//EN" "http://www.w3.org/Graphics/SVG/1.1/DTD/svg11.dtd">
<!-- Creator: CorelDRAW X7 -->
<svg xmlns="http://www.w3.org/2000/svg" xml:space="preserve" width="2300px" height="1177px" version="1.1" style="shape-rendering:geometricPrecision; text-rendering:geometricPrecision; image-rendering:optimizeQuality; fill-rule:evenodd; clip-rule:evenodd"
viewBox="0 0 327 167"
 xmlns:xlink="http://www.w3.org/1999/xlink">
 <defs>
  <style type="text/css">
   <![CDATA[
    .fil1 {fill:#252626;fill-rule:nonzero}
    .fil0 {fill:#767676;fill-rule:nonzero}
   ]]>
  </style>
 </defs>
 <g id="Vrstva_x0020_1">
  <metadata id="CorelCorpID_0Corel-Layer"/>
  <g id="_2649180488864">
   <path class="fil0" d="M195 167c-4,0 -7,-3 -7,-7 0,-4 3,-7 7,-7 4,0 7,3 7,7 0,4 -3,7 -7,7l0 0zm0 -11c-2,0 -4,2 -4,4 0,3 2,4 4,4 2,0 4,-1 4,-4 0,-2 -2,-4 -4,-4l0 0z"/>
   <polygon class="fil0" points="12,135 0,117 67,0 130,0 128,3 69,3 3,117 14,132 203,132 201,135 "/>
   <polygon class="fil0" points="199,155 196,154 208,132 278,132 323,41 298,3 170,3 172,0 300,0 327,41 280,135 209,135 199,155 "/>
   <polygon class="fil0" points="208,14 203,19 217,19 221,14 "/>
   <polygon class="fil0" points="230,14 225,19 239,19 243,14 "/>
   <polygon class="fil1" points="252,14 247,19 261,19 265,14 "/>
   <polygon class="fil1" points="275,96 35,96 28,107 268,107 "/>
   <polygon class="fil1" points="285,76 47,76 40,87 279,87 "/>
   <polygon class="fil1" points="296,56 57,56 50,67 289,67 "/>
  </g>
 </g>
</svg>
