<?xml version="1.0" encoding="UTF-8"?>
<!DOCTYPE svg PUBLIC "-//W3C//DTD SVG 1.1//EN" "http://www.w3.org/Graphics/SVG/1.1/DTD/svg11.dtd">
<!-- Creator: CorelDRAW X7 -->
<svg xmlns="http://www.w3.org/2000/svg" xml:space="preserve" width="2122px" height="1096px" version="1.1" style="shape-rendering:geometricPrecision; text-rendering:geometricPrecision; image-rendering:optimizeQuality; fill-rule:evenodd; clip-rule:evenodd"
viewBox="0 0 196 101"
 xmlns:xlink="http://www.w3.org/1999/xlink">
 <defs>
  <style type="text/css">
   <![CDATA[
    .fil0 {fill:#252626;fill-rule:nonzero}
    .fil1 {fill:#767676;fill-rule:nonzero}
    .fil2 {fill:white;fill-rule:nonzero}
   ]]>
  </style>
 </defs>
 <g id="Vrstva_x0020_1">
  <metadata id="CorelCorpID_0Corel-Layer"/>
  <g id="_2649180529440">
   <polygon class="fil0" points="193,38 193,41 190,44 190,53 193,56 193,59 196,59 196,38 "/>
   <polygon class="fil0" points="5,53 5,44 3,41 3,38 0,38 0,59 3,59 3,56 "/>
   <path class="fil1" d="M169 5l-158 0 0 72 16 16 18 0c0,0 0,-1 0,-1 0,-1 0,-1 0,-1l-17 0 -15 -14 0 -70 155 0 14 14 0 70 -123 0c0,0 0,0 0,1 0,0 0,1 0,1l125 0 0 -72 -15 -16z"/>
   <path class="fil2" d="M52 99c-4,0 -7,-3 -7,-6 0,0 0,-1 0,-1 0,-1 0,-1 0,-1 0,-4 3,-6 7,-6 3,0 6,2 7,6 0,0 0,0 0,1 0,0 0,1 0,1 -1,3 -4,6 -7,6zm8 -8c0,-4 -4,-7 -8,-7 -5,0 -8,3 -8,7 0,0 -1,0 -1,1 0,0 1,1 1,1 0,4 4,7 8,7 4,0 7,-3 8,-7 0,0 0,-1 0,-1 0,-1 0,-1 0,-1z"/>
   <path class="fil1" d="M59 92c0,0 0,1 0,1 -1,3 -4,6 -7,6 -4,0 -7,-3 -7,-6 0,0 0,-1 0,-1 0,-1 0,-1 0,-1 0,-4 3,-6 7,-6 3,0 6,2 7,6 0,0 0,0 0,1zm2 -1c0,-5 -4,-9 -9,-9 -5,0 -9,4 -10,9 0,0 0,0 0,1 0,0 0,1 1,1 0,5 4,8 9,8 4,0 8,-3 9,-8 0,0 0,-1 0,-1 0,-1 0,-1 0,-1z"/>
   <polygon class="fil0" points="26,71 169,71 169,62 26,62 "/>
   <polygon class="fil0" points="26,55 169,55 169,45 26,45 "/>
   <polygon class="fil0" points="26,38 169,38 169,29 26,29 "/>
   <polygon class="fil1" points="91,6 153,6 153,0 91,0 "/>
   <path class="fil0" d="M55 92c0,0 0,1 0,1 0,1 -2,2 -3,2 -2,0 -3,-1 -4,-2 0,0 0,-1 0,-1 0,-1 0,-1 0,-1 1,-2 2,-3 4,-3 1,0 3,1 3,3 0,0 0,0 0,1z"/>
  </g>
 </g>
</svg>
