<?xml version="1.0" encoding="UTF-8"?>
<!DOCTYPE svg PUBLIC "-//W3C//DTD SVG 1.1//EN" "http://www.w3.org/Graphics/SVG/1.1/DTD/svg11.dtd">
<!-- Creator: CorelDRAW X7 -->
<svg xmlns="http://www.w3.org/2000/svg" xml:space="preserve" width="2300px" height="658px" version="1.1" style="shape-rendering:geometricPrecision; text-rendering:geometricPrecision; image-rendering:optimizeQuality; fill-rule:evenodd; clip-rule:evenodd"
viewBox="0 0 182 52"
 xmlns:xlink="http://www.w3.org/1999/xlink">
 <defs>
  <style type="text/css">
   <![CDATA[
    .fil0 {fill:#1A1A1A}
    .fil1 {fill:#333333}
    .fil2 {fill:#4D4D4D}
    .fil3 {fill:#666666}
    .fil4 {fill:gray}
    .fil5 {fill:#999999}
    .fil6 {fill:#B3B3B3}
    .fil8 {fill:#CCCCCC}
    .fil7 {fill:#E6E6E6}
    .fil9 {fill:url(#id0)}
    .fil10 {fill:url(#id1)}
   ]]>
  </style>
  <linearGradient id="id0" gradientUnits="userSpaceOnUse" x1="20.1564" y1="3.8558" x2="20.1564" y2="34.3556">
   <stop offset="0" style="stop-opacity:1; stop-color:#939393"/>
   <stop offset="1" style="stop-opacity:1; stop-color:#525252"/>
  </linearGradient>
  <linearGradient id="id1" gradientUnits="userSpaceOnUse" xlink:href="#id0" x1="91.0058" y1="14.0552" x2="91.0058" y2="38.0013">
  </linearGradient>
 </defs>
 <g id="Vrstva_x0020_1">
  <metadata id="CorelCorpID_0Corel-Layer"/>
  <g id="_2646562105920">
   <path class="fil0" d="M51 26l-11 14 -13 0c6,-2 12,-7 14,-14l10 0z"/>
   <polygon class="fil1" points="67,26 55,40 42,40 53,26 "/>
   <polygon class="fil2" points="82,26 71,40 57,40 69,26 "/>
   <polygon class="fil3" points="97,26 86,40 73,40 84,26 "/>
   <polygon class="fil4" points="113,26 101,40 88,40 99,26 "/>
   <polygon class="fil5" points="116,40 103,40 115,26 128,26 "/>
   <polygon class="fil6" points="132,40 118,40 130,26 143,26 "/>
   <polygon class="fil7" points="173,26 161,40 149,40 160,26 "/>
   <polygon class="fil8" points="147,40 134,40 145,26 158,26 "/>
   <path class="fil9" d="M35 19c0,-8 -6,-15 -15,-15 -8,0 -15,7 -15,15 0,9 7,15 15,15 9,0 15,-6 15,-15z"/>
   <path class="fil10" d="M3 19c0,-10 7,-17 17,-17 10,0 18,7 18,17 0,10 -8,18 -18,18 -10,0 -17,-8 -17,-18zm175 5l-16 19 -138 0c-2,0 -3,-3 -2,-4 1,-1 1,-1 2,-1 7,-2 13,-8 15,-15l139 1zm-9 26l9 -12c1,-1 1,-2 1,-3l0 -8c0,-1 1,-2 1,-3l2 -1c0,0 0,-1 0,-1 0,0 0,-1 -1,-1l-142 0c0,0 0,-1 0,-2 0,0 0,-1 0,-1l75 0c2,0 4,-2 4,-4 0,-2 -1,-4 -4,-4l-77 0c-4,-6 -10,-10 -17,-10 -10,0 -18,8 -19,18 0,7 3,12 7,16l-8 10c0,0 0,0 0,0 0,0 0,0 0,1 0,0 1,0 1,0l128 0c2,0 4,1 5,2l4 4c1,1 2,1 3,1l24 0c1,0 3,-1 4,-2z"/>
  </g>
 </g>
</svg>
