<?xml version="1.0" encoding="UTF-8"?>
<!DOCTYPE svg PUBLIC "-//W3C//DTD SVG 1.1//EN" "http://www.w3.org/Graphics/SVG/1.1/DTD/svg11.dtd">
<!-- Creator: CorelDRAW X7 -->
<svg xmlns="http://www.w3.org/2000/svg" xml:space="preserve" width="2300px" height="532px" version="1.1" style="shape-rendering:geometricPrecision; text-rendering:geometricPrecision; image-rendering:optimizeQuality; fill-rule:evenodd; clip-rule:evenodd"
viewBox="0 0 151 35"
 xmlns:xlink="http://www.w3.org/1999/xlink">
 <defs>
  <style type="text/css">
   <![CDATA[
    .fil3 {fill:black}
    .fil0 {fill:url(#id2)}
    .fil1 {fill:url(#id3)}
    .fil2 {fill:url(#id4)}
   ]]>
  </style>
    <clipPath id="id0">
     <path d="M10 32l-3 0 0 -1c1,0 2,1 3,1l0 0z"/>
    </clipPath>
    <clipPath id="id1">
     <path d="M45 32l-35 0c-1,0 -2,-1 -3,-1l9 -8 3 0c2,0 4,-1 5,-2l9 -9c0,0 1,0 1,0l19 0c1,0 3,-1 4,-2l1 -1 40 0 -1 1c0,0 0,0 0,0 0,1 -1,1 -1,2 0,0 1,0 1,1l0 0c0,1 1,1 2,1 0,0 0,0 0,0l45 0 -7 7 -80 0c-1,0 -2,0 -2,1l-10 10 0 0z"/>
    </clipPath>
  <linearGradient id="id2" gradientUnits="userSpaceOnUse" x1="-0" y1="17.418" x2="150.683" y2="17.418">
   <stop offset="0" style="stop-opacity:1; stop-color:#939393"/>
   <stop offset="1" style="stop-opacity:1; stop-color:#525252"/>
  </linearGradient>
  <linearGradient id="id3" gradientUnits="objectBoundingBox" xlink:href="#id2" x1="0%" y1="49.9996%" x2="100%" y2="49.9996%">
  </linearGradient>
  <linearGradient id="id4" gradientUnits="userSpaceOnUse" x1="67.4497" y1="43.4071" x2="84.0178" y2="-2.50376">
   <stop offset="0" style="stop-opacity:1; stop-color:black"/>
   <stop offset="0.411765" style="stop-opacity:1; stop-color:#7F7F7F"/>
   <stop offset="1" style="stop-opacity:1; stop-color:white"/>
  </linearGradient>
 </defs>
 <g id="Vrstva_x0020_1">
  <metadata id="CorelCorpID_0Corel-Layer"/>
  <g id="_2645941551440">
   <path class="fil0" d="M46 35l-45 0c-1,0 -1,0 -1,0 0,-1 0,-1 0,-1l4 -4 9 -9 -2 0c-1,0 -1,-1 -1,-2l16 -15 2 -2c1,-1 2,-2 3,-2l31 0c0,0 0,0 0,0 1,1 1,1 0,2l-4 4 46 0c1,0 1,0 1,0 0,1 0,1 0,1l-5 4 50 0c0,0 1,1 1,1 0,0 0,0 0,0 0,0 0,0 0,0l-12 12c0,0 0,0 -1,0l-57 0 -8 8c0,0 0,0 0,0l-24 0 -3 3c0,0 0,0 0,0zm-28 -1l28 0 10 -11c0,0 1,0 1,0l81 0 11 -11 -50 0c0,0 0,0 0,0 -1,0 -1,0 0,0l4 -5 -46 0 -1 1c-1,1 -2,2 -3,2l-19 0c-1,0 -2,0 -2,0l-9 10c-1,0 -2,1 -4,1l-4 0 -10 9 -3 4 16 0zm39 -10l-7 7 23 0 7 -7 -23 0z"/>
   <path class="fil1" d="M83 28l-24 0c0,0 0,0 0,0l-6 6c0,0 0,1 0,1l25 0c0,0 0,0 0,-1l6 -5c0,-1 0,-1 -1,-1z"/>
   <g style="clip-path:url(#id0)">
    <image x="6" y="31" width="3.59227" height="0.996953" xlink:href="57_Images\57_ImgID1.png"/>
   </g>
   <g style="clip-path:url(#id1)">
    <image x="7" y="9" width="137.068" height="23.078" xlink:href="57_Images\57_ImgID2.png"/>
   </g>
   <path class="fil1" d="M83 28l-24 0c0,0 0,0 0,0l-6 6c0,0 0,1 0,1l25 0c0,0 0,0 0,-1l6 -5c0,-1 0,-1 -1,-1z"/>
   <path class="fil2" d="M58 9l40 0 -1 1c0,0 0,0 0,0 0,1 -1,1 -1,2 0,0 1,0 1,1l0 0c0,1 1,1 2,1 0,0 0,0 0,0l45 0 -7 7 -80 0c-1,0 -2,0 -2,1l-10 10 -35 0c-1,0 -2,-1 -3,-1l9 -8 3 0c2,0 4,-1 5,-2l9 -9c0,0 1,0 1,0l19 0c1,0 3,-1 4,-2l1 -1z"/>
   <path class="fil3" d="M7 31c1,0 2,1 3,1l-3 0 0 -1z"/>
  </g>
 </g>
</svg>
