<?xml version="1.0" encoding="UTF-8"?>
<!DOCTYPE svg PUBLIC "-//W3C//DTD SVG 1.1//EN" "http://www.w3.org/Graphics/SVG/1.1/DTD/svg11.dtd">
<!-- Creator: CorelDRAW X7 -->
<svg xmlns="http://www.w3.org/2000/svg" xml:space="preserve" width="2300px" height="2300px" version="1.1" style="shape-rendering:geometricPrecision; text-rendering:geometricPrecision; image-rendering:optimizeQuality; fill-rule:evenodd; clip-rule:evenodd"
viewBox="0 0 182 182"
 xmlns:xlink="http://www.w3.org/1999/xlink">
 <defs>
  <style type="text/css">
   <![CDATA[
    .fil1 {fill:#252626;fill-rule:nonzero}
    .fil0 {fill:#767676;fill-rule:nonzero}
   ]]>
  </style>
 </defs>
 <g id="Vrstva_x0020_1">
  <metadata id="CorelCorpID_0Corel-Layer"/>
  <g id="_2649180546272">
   <path class="fil0" d="M148 53l3 -2c-7,-11 -17,-20 -29,-25l-2 3c12,5 21,13 28,24z"/>
   <path class="fil0" d="M62 29l-2 -3c-12,5 -22,14 -29,25l3 2c7,-11 16,-19 28,-24z"/>
   <path class="fil0" d="M34 129l-3 2c7,11 17,20 29,25l2 -3c-12,-5 -21,-13 -28,-24z"/>
   <path class="fil0" d="M120 153l2 3c12,-5 22,-14 29,-25l-3 -2c-7,11 -16,19 -28,24z"/>
   <path class="fil1" d="M127 97c-1,6 -3,12 -7,16 4,5 7,9 10,12l3 4c8,-9 13,-20 15,-32 -4,0 -7,0 -11,0 -4,0 -7,0 -10,0z"/>
   <path class="fil1" d="M52 125c3,-3 6,-7 10,-12 -4,-4 -6,-10 -7,-16 -3,0 -6,0 -10,0 -3,0 -7,0 -11,0 2,12 7,23 15,32l3 -4z"/>
   <path class="fil1" d="M85 148c0,-4 0,-7 0,-11 0,-4 0,-7 0,-10 -6,-1 -12,-3 -16,-7 -5,4 -9,7 -12,10l-4 3c9,8 20,13 32,15z"/>
   <path class="fil1" d="M55 85c1,-6 3,-12 7,-16 -4,-5 -7,-9 -10,-12l-3 -4c-8,9 -13,20 -15,32 4,0 8,0 11,0 4,0 7,0 10,0z"/>
   <path class="fil1" d="M125 130c-3,-3 -7,-6 -12,-10 -4,4 -10,6 -16,7 0,3 0,6 0,10 0,3 0,7 0,11 12,-2 23,-7 32,-15l-4 -3z"/>
   <path class="fil1" d="M130 57c-3,3 -6,7 -10,12 4,4 6,10 7,16 3,0 6,0 10,0 3,0 7,0 11,0 -2,-12 -7,-23 -15,-32l-3 4z"/>
   <path class="fil1" d="M97 34c0,4 0,8 0,11 0,4 0,7 0,10 6,1 12,3 16,7 5,-4 9,-7 12,-10l4 -3c-9,-8 -20,-13 -32,-15z"/>
   <path class="fil1" d="M57 52c3,3 7,6 12,10 4,-4 10,-6 16,-7 0,-3 0,-6 0,-10 0,-3 0,-7 0,-11 -12,2 -23,7 -32,15l4 3z"/>
   <path class="fil0" d="M103 91c0,7 -5,12 -12,12 -7,0 -12,-5 -12,-12 0,-7 5,-12 12,-12 7,0 12,5 12,12zm-9 23l0 -5c3,0 6,-1 9,-3 1,1 3,3 5,5 6,6 13,11 20,17 -6,-7 -11,-14 -17,-20 -2,-2 -4,-4 -5,-5 2,-3 3,-6 3,-9l5 0c7,0 15,0 23,0 15,-1 30,-2 45,-3 -15,-1 -30,-2 -45,-3 -8,0 -16,0 -23,0l-5 0c0,-3 -1,-6 -3,-9 1,-1 3,-3 5,-5 6,-6 11,-13 17,-20 -7,6 -14,11 -20,17 -2,2 -4,4 -5,5 -3,-2 -6,-3 -9,-3l0 -5c0,-7 0,-15 0,-22 -1,-16 -2,-31 -3,-46 -1,15 -2,30 -3,46 0,7 0,15 0,22l0 5c-3,0 -6,1 -9,3 -1,-1 -3,-3 -5,-5 -6,-6 -13,-11 -20,-17 6,7 11,14 17,20 2,2 4,4 5,5 -2,3 -3,6 -3,9l-5 0c-7,0 -15,0 -22,0 -16,1 -31,2 -46,3 15,1 30,2 46,3 7,0 15,0 22,0l5 0c0,3 1,6 3,9 -1,1 -3,3 -5,5 -6,6 -11,13 -17,20 7,-6 14,-11 20,-17 2,-2 4,-4 5,-5 3,2 6,3 9,3l0 5c0,7 0,15 0,23 1,15 2,30 3,45 1,-15 2,-30 3,-45 0,-8 0,-16 0,-23z"/>
  </g>
 </g>
</svg>
