<?xml version="1.0" encoding="UTF-8"?>
<!DOCTYPE svg PUBLIC "-//W3C//DTD SVG 1.1//EN" "http://www.w3.org/Graphics/SVG/1.1/DTD/svg11.dtd">
<!-- Creator: CorelDRAW X7 -->
<svg xmlns="http://www.w3.org/2000/svg" xml:space="preserve" width="2300px" height="1400px" version="1.1" style="shape-rendering:geometricPrecision; text-rendering:geometricPrecision; image-rendering:optimizeQuality; fill-rule:evenodd; clip-rule:evenodd"
viewBox="0 0 99 60"
 xmlns:xlink="http://www.w3.org/1999/xlink">
 <defs>
  <style type="text/css">
   <![CDATA[
    .fil5 {fill:#202020;fill-rule:nonzero}
    .fil4 {fill:url(#id0)}
    .fil0 {fill:url(#id1)}
    .fil1 {fill:url(#id2)}
    .fil3 {fill:url(#id3)}
    .fil2 {fill:url(#id4)}
   ]]>
  </style>
  <linearGradient id="id0" gradientUnits="userSpaceOnUse" x1="-0" y1="30.075" x2="98.8118" y2="30.075">
   <stop offset="0" style="stop-opacity:1; stop-color:#525252"/>
   <stop offset="1" style="stop-opacity:1; stop-color:#939393"/>
  </linearGradient>
  <linearGradient id="id1" gradientUnits="userSpaceOnUse" x1="12.9346" y1="60.2667" x2="85.7416" y2="-6.27426">
   <stop offset="0" style="stop-opacity:1; stop-color:black"/>
   <stop offset="0.580392" style="stop-opacity:1; stop-color:#7F7F7F"/>
   <stop offset="1" style="stop-opacity:1; stop-color:white"/>
  </linearGradient>
  <linearGradient id="id2" gradientUnits="userSpaceOnUse" xlink:href="#id0" x1="5.17788" y1="29.4002" x2="5.31077" y2="29.4002">
  </linearGradient>
  <linearGradient id="id3" gradientUnits="userSpaceOnUse" xlink:href="#id0" x1="58.03" y1="57.1489" x2="70.8368" y2="57.1489">
  </linearGradient>
  <linearGradient id="id4" gradientUnits="userSpaceOnUse" xlink:href="#id0" x1="2.00299" y1="29.4002" x2="2.13589" y2="29.4002">
  </linearGradient>
 </defs>
 <g id="Vrstva_x0020_1">
  <metadata id="CorelCorpID_0Corel-Layer"/>
  <g id="_2610578993984">
   <path class="fil0" d="M74 4l-63 0 0 31c0,1 -1,3 -2,4l-5 5c0,0 0,0 0,1l0 1 37 0c1,0 2,0 3,1l3 3c0,0 0,0 0,0l30 0 15 0c0,0 0,0 0,-1l0 -12c0,-1 1,-2 2,-3l0 -1c1,0 1,-1 1,-1l0 -7c0,-1 0,-2 -1,-3l-17 -17c-1,-1 -2,-1 -3,-1z"/>
   <polygon class="fil1" points="6,39 5,39 5,20 6,20 "/>
   <polygon class="fil2" points="2,42 2,42 2,17 2,17 "/>
   <path class="fil3" d="M78 58l11 0 0 0 -11 0c0,0 0,0 -1,-1l-1 -1c0,0 0,0 -1,0l-35 0 0 1 35 0c0,0 1,0 1,0l1 1c0,0 1,0 1,0z"/>
   <path class="fil4" d="M3 43c-1,0 -1,1 -1,2l0 1c0,1 1,1 1,1l38 0c1,0 2,1 2,1l3 3c0,0 1,1 1,1l34 0 11 -1c1,0 2,0 2,-2l0 -12c0,-1 0,-2 1,-2l1 -1c0,0 0,-1 0,-2l0 -7c0,-2 0,-3 -1,-4l-17 -17c-1,-1 -2,-2 -4,-2l-63 0c-1,0 -2,1 -2,2l0 31c0,1 0,2 -1,3l-5 5zm84 -38l-5 0 13 12 0 -5 -8 -7zm-86 13c-1,-1 -1,-2 -1,-4l0 -10c0,-2 2,-4 4,-4l70 0c2,0 4,1 6,2l0 0 5 0 -1 0c-1,-1 0,-2 1,-2l13 0c0,0 1,0 1,1l0 13c0,1 -1,2 -2,1l0 -1 0 6c1,1 2,3 2,5l0 31c0,3 -2,4 -4,4l-5 0c-1,0 -3,0 -4,-1l-4 -4c0,-1 -1,-1 -2,-1l-31 0 4 0 -1 0 -5 0c0,0 -1,0 -1,0l-4 5c-1,1 -2,1 -4,1l-34 0c-2,0 -4,-1 -4,-4l0 -11c0,-2 0,-3 1,-4l6 -5c0,0 0,-1 0,-1l0 -10c0,-1 0,-2 -1,-2l-5 -5z"/>
   <path class="fil5" d="M33 58l3 0c0,0 0,0 0,0l7 -7c0,-1 0,-1 -1,-1l-2 0c0,0 0,0 -1,0l-6 7c0,0 0,1 0,1z"/>
   <path class="fil5" d="M28 58l2 0c0,0 0,0 0,0l7 -7c0,-1 0,-1 -1,-1l-2 0c0,0 0,0 -1,0l-6 7c0,0 0,1 1,1z"/>
   <path class="fil5" d="M22 58l2 0c0,0 0,0 1,0l6 -7c0,-1 0,-1 -1,-1l-2 0c0,0 0,0 0,0l-7 7c0,0 0,1 1,1z"/>
   <path class="fil5" d="M16 58l2 0c0,0 0,0 1,0l6 -7c0,-1 0,-1 0,-1l-3 0c0,0 0,0 0,0l-7 7c0,0 0,1 1,1z"/>
   <path class="fil5" d="M10 58l2 0c0,0 1,0 1,0l6 -7c1,-1 0,-1 0,-1l-3 0c0,0 0,0 0,0l-7 7c0,0 0,1 1,1z"/>
  </g>
 </g>
</svg>
