<?xml version="1.0" encoding="UTF-8"?>
<!DOCTYPE svg PUBLIC "-//W3C//DTD SVG 1.1//EN" "http://www.w3.org/Graphics/SVG/1.1/DTD/svg11.dtd">
<!-- Creator: CorelDRAW X7 -->
<svg xmlns="http://www.w3.org/2000/svg" xml:space="preserve" width="2300px" height="190px" version="1.1" style="shape-rendering:geometricPrecision; text-rendering:geometricPrecision; image-rendering:optimizeQuality; fill-rule:evenodd; clip-rule:evenodd"
viewBox="0 0 1522 126"
 xmlns:xlink="http://www.w3.org/1999/xlink">
 <defs>
  <style type="text/css">
   <![CDATA[
    .fil1 {fill:#4D4D4D;fill-rule:nonzero}
    .fil0 {fill:#B3B3B3;fill-rule:nonzero}
   ]]>
  </style>
 </defs>
 <g id="Vrstva_x0020_1">
  <metadata id="CorelCorpID_0Corel-Layer"/>
  <g id="_2646562104320">
   <path class="fil0" d="M1457 118l-1394 0c-15,0 -29,-6 -39,-16 -10,-10 -16,-24 -16,-39 0,-15 6,-29 16,-39 10,-10 24,-16 39,-16l1396 0c15,0 29,6 39,16 10,10 16,24 16,39 0,15 -6,29 -16,39 -10,10 -24,16 -39,16l-2 0 0 0zm2 8c35,-1 63,-29 63,-63 0,-35 -28,-63 -63,-63l-1396 0c-35,0 -63,28 -63,63 0,34 28,63 63,63l1394 0 2 0 0 0 0 0z"/>
   <g>
    <path class="fil0" d="M264 96l-185 0c-19,0 -33,-15 -33,-33 0,-18 14,-33 33,-33l185 0c19,0 33,15 33,33 0,18 -14,33 -33,33z"/>
    <path class="fil0" d="M559 96l-186 0c-18,0 -33,-15 -33,-33 0,-18 15,-33 33,-33l186 0c18,0 33,15 33,33 0,18 -15,33 -33,33z"/>
    <path class="fil0" d="M854 96l-186 0c-18,0 -33,-15 -33,-33 0,-18 15,-33 33,-33l186 0c18,0 33,15 33,33 0,18 -15,33 -33,33z"/>
   </g>
   <path class="fil1" d="M1148 96l-185 0c-19,0 -33,-15 -33,-33 0,-18 14,-33 33,-33l185 0c19,0 33,15 33,33 0,18 -14,33 -33,33z"/>
   <path class="fil1" d="M1443 96l-186 0c-18,0 -33,-15 -33,-33 0,-18 15,-33 33,-33l186 0c18,0 33,15 33,33 0,18 -15,33 -33,33z"/>
  </g>
 </g>
</svg>
