<?xml version="1.0" encoding="UTF-8"?>
<!DOCTYPE svg PUBLIC "-//W3C//DTD SVG 1.1//EN" "http://www.w3.org/Graphics/SVG/1.1/DTD/svg11.dtd">
<!-- Creator: CorelDRAW X7 -->
<svg xmlns="http://www.w3.org/2000/svg" xml:space="preserve" width="2300px" height="190px" version="1.1" style="shape-rendering:geometricPrecision; text-rendering:geometricPrecision; image-rendering:optimizeQuality; fill-rule:evenodd; clip-rule:evenodd"
viewBox="0 0 541 45"
 xmlns:xlink="http://www.w3.org/1999/xlink">
 <defs>
  <style type="text/css">
   <![CDATA[
    .fil1 {fill:#4D4D4D;fill-rule:nonzero}
    .fil0 {fill:#B3B3B3;fill-rule:nonzero}
   ]]>
  </style>
 </defs>
 <g id="Vrstva_x0020_1">
  <metadata id="CorelCorpID_0Corel-Layer"/>
  <g id="_2610573964416">
   <path class="fil0" d="M519 42l0 0 -497 0c-5,0 -10,-2 -14,-6 -3,-3 -5,-8 -5,-14 0,-5 2,-10 5,-14 4,-3 9,-5 14,-5l497 0c5,0 10,2 13,5 4,4 6,9 6,14 0,6 -2,11 -6,14 -3,4 -8,6 -13,6l0 0zm0 3l0 0 0 0c12,0 22,-10 22,-23 0,-12 -10,-22 -22,-22l-497 0c-12,0 -22,10 -22,22 0,13 10,23 22,23l496 0 1 0z"/>
   <g>
    <polygon class="fil0" points="172,35 179,35 179,9 172,9 "/>
    <polygon class="fil0" points="157,35 164,35 164,9 157,9 "/>
    <polygon class="fil0" points="201,35 208,35 208,9 201,9 "/>
    <polygon class="fil0" points="186,35 194,35 194,9 186,9 "/>
    <polygon class="fil0" points="260,35 267,35 267,9 260,9 "/>
    <polygon class="fil0" points="216,35 223,35 223,9 216,9 "/>
    <polygon class="fil0" points="245,35 252,35 252,9 245,9 "/>
    <polygon class="fil0" points="230,35 237,35 237,9 230,9 "/>
    <polygon class="fil0" points="55,35 62,35 62,9 55,9 "/>
    <polygon class="fil0" points="69,35 76,35 76,9 69,9 "/>
    <polygon class="fil0" points="40,35 47,35 47,9 40,9 "/>
    <polygon class="fil0" points="25,35 33,35 33,9 25,9 "/>
    <polygon class="fil0" points="128,35 135,35 135,9 128,9 "/>
    <polygon class="fil0" points="113,35 120,35 120,9 113,9 "/>
    <polygon class="fil0" points="84,35 91,35 91,9 84,9 "/>
    <polygon class="fil0" points="99,35 106,35 106,9 99,9 "/>
    <polygon class="fil0" points="142,35 150,35 150,9 142,9 "/>
    <path class="fil0" d="M18 10c-5,2 -9,7 -9,12 0,6 4,11 9,12l0 -24z"/>
   </g>
   <polygon class="fil1" points="274,35 281,35 281,9 274,9 "/>
   <polygon class="fil1" points="464,35 472,35 472,9 464,9 "/>
   <polygon class="fil1" points="479,35 486,35 486,9 479,9 "/>
   <polygon class="fil1" points="450,35 457,35 457,9 450,9 "/>
   <polygon class="fil1" points="435,35 442,35 442,9 435,9 "/>
   <polygon class="fil1" points="494,35 501,35 501,9 494,9 "/>
   <polygon class="fil1" points="420,35 428,35 428,9 420,9 "/>
   <polygon class="fil1" points="289,35 296,35 296,9 289,9 "/>
   <polygon class="fil1" points="508,35 515,35 515,9 508,9 "/>
   <path class="fil1" d="M523 10l0 24c5,-1 8,-6 8,-12 0,-5 -3,-10 -8,-12z"/>
   <polygon class="fil1" points="333,35 340,35 340,9 333,9 "/>
   <polygon class="fil1" points="406,35 413,35 413,9 406,9 "/>
   <polygon class="fil1" points="318,35 325,35 325,9 318,9 "/>
   <polygon class="fil1" points="303,35 311,35 311,9 303,9 "/>
   <polygon class="fil1" points="347,35 354,35 354,9 347,9 "/>
   <polygon class="fil1" points="362,35 369,35 369,9 362,9 "/>
   <polygon class="fil1" points="391,35 398,35 398,9 391,9 "/>
   <polygon class="fil1" points="377,35 384,35 384,9 377,9 "/>
  </g>
 </g>
</svg>
