<?xml version="1.0" encoding="UTF-8"?>
<!DOCTYPE svg PUBLIC "-//W3C//DTD SVG 1.1//EN" "http://www.w3.org/Graphics/SVG/1.1/DTD/svg11.dtd">
<!-- Creator: CorelDRAW X7 -->
<svg xmlns="http://www.w3.org/2000/svg" xml:space="preserve" width="2300px" height="452px" version="1.1" style="shape-rendering:geometricPrecision; text-rendering:geometricPrecision; image-rendering:optimizeQuality; fill-rule:evenodd; clip-rule:evenodd"
viewBox="0 0 232 46"
 xmlns:xlink="http://www.w3.org/1999/xlink">
 <defs>
  <style type="text/css">
   <![CDATA[
    .fil0 {fill:#CCCCCC}
    .fil1 {fill:#9D9E9E;fill-rule:nonzero}
    .fil2 {fill:#4D4D4D;fill-rule:nonzero}
   ]]>
  </style>
 </defs>
 <g id="Vrstva_x0020_1">
  <metadata id="CorelCorpID_0Corel-Layer"/>
  <g id="_2649058549424">
   <rect class="fil0" y="13" width="231.679" height="32.0427"/>
   <path class="fil1" d="M232 12l-232 0 0 34 232 0 0 -34zm-2 2l0 30 -228 0 0 -30 228 0z"/>
   <polygon class="fil1" points="78,0 0,0 0,13 89,13 "/>
   <g>
    <path class="fil1" d="M45 24l-30 0c-3,0 -5,2 -5,5 0,3 2,5 5,5l30 0c3,0 5,-2 5,-5 0,-3 -2,-5 -5,-5zm0 1c2,0 3,2 3,4 0,2 -1,4 -3,4l-30 0c-2,0 -3,-2 -3,-4 0,-2 1,-4 3,-4l30 0z"/>
    <path class="fil1" d="M88 24l-30 0c-3,0 -5,2 -5,5 0,3 2,5 5,5l30 0c2,0 5,-2 5,-5 0,-3 -3,-5 -5,-5zm0 1c2,0 3,2 3,4 0,2 -1,4 -3,4l-30 0c-2,0 -3,-2 -3,-4 0,-2 1,-4 3,-4l30 0z"/>
    <path class="fil1" d="M130 24l-29 0c-3,0 -5,2 -5,5 0,3 2,5 5,5l29 0c3,0 6,-2 6,-5 0,-3 -3,-5 -6,-5zm0 1c2,0 4,2 4,4 0,2 -2,4 -4,4l-29 0c-2,0 -3,-2 -3,-4 0,-2 1,-4 3,-4l29 0z"/>
   </g>
   <path class="fil2" d="M173 24l-29 0c-3,0 -5,2 -5,5 0,3 2,5 5,5l29 0c3,0 6,-2 6,-5 0,-3 -3,-5 -6,-5zm0 1c2,0 4,2 4,4 0,2 -2,4 -4,4l-29 0c-2,0 -3,-2 -3,-4 0,-2 1,-4 3,-4l29 0z"/>
   <path class="fil2" d="M216 24l-29 0c-3,0 -5,2 -5,5 0,3 2,5 5,5l29 0c3,0 6,-2 6,-5 0,-3 -3,-5 -6,-5zm0 1c2,0 4,2 4,4 0,2 -2,4 -4,4l-29 0c-2,0 -4,-2 -4,-4 0,-2 2,-4 4,-4l29 0z"/>
  </g>
 </g>
</svg>
