<?xml version="1.0" encoding="UTF-8"?>
<!DOCTYPE svg PUBLIC "-//W3C//DTD SVG 1.1//EN" "http://www.w3.org/Graphics/SVG/1.1/DTD/svg11.dtd">
<!-- Creator: CorelDRAW X7 -->
<svg xmlns="http://www.w3.org/2000/svg" xml:space="preserve" width="2300px" height="453px" version="1.1" style="shape-rendering:geometricPrecision; text-rendering:geometricPrecision; image-rendering:optimizeQuality; fill-rule:evenodd; clip-rule:evenodd"
viewBox="0 0 182 36"
 xmlns:xlink="http://www.w3.org/1999/xlink">
 <defs>
  <style type="text/css">
   <![CDATA[
    .fil0 {fill:#CCCCCC}
    .fil1 {fill:#18FFFF;fill-rule:nonzero}
    .fil2 {fill:#4D4D4D;fill-rule:nonzero}
    .fil3 {fill:gray;fill-rule:nonzero}
   ]]>
  </style>
 </defs>
 <g id="Vrstva_x0020_1">
  <metadata id="CorelCorpID_0Corel-Layer"/>
  <g id="_2610131495040">
   <rect class="fil0" y="10" width="182.002" height="26.0027"/>
   <polygon class="fil1" points="8,27 39,27 39,19 8,19 "/>
   <g>
    <polygon class="fil2" points="109,27 140,27 140,19 109,19 "/>
    <polygon class="fil2" points="143,27 174,27 174,19 143,19 "/>
   </g>
   <g>
    <path class="fil3" d="M182 10l-182 0 0 26 182 0 0 -26zm-1 1l0 24 -180 0 0 -24 180 0z"/>
    <polygon class="fil3" points="61,0 0,0 0,10 70,10 "/>
    <polygon class="fil3" points="42,27 73,27 73,19 42,19 "/>
    <polygon class="fil3" points="75,27 107,27 107,19 75,19 "/>
    <polygon class="fil3" points="8,27 39,27 39,19 8,19 "/>
   </g>
  </g>
 </g>
</svg>
