<?xml version="1.0" encoding="UTF-8"?>
<!DOCTYPE svg PUBLIC "-//W3C//DTD SVG 1.1//EN" "http://www.w3.org/Graphics/SVG/1.1/DTD/svg11.dtd">
<!-- Creator: CorelDRAW X7 -->
<svg xmlns="http://www.w3.org/2000/svg" xml:space="preserve" width="249px" height="1300px" version="1.1" style="shape-rendering:geometricPrecision; text-rendering:geometricPrecision; image-rendering:optimizeQuality; fill-rule:evenodd; clip-rule:evenodd"
viewBox="0 0 2 9"
 xmlns:xlink="http://www.w3.org/1999/xlink">
 <defs>
  <style type="text/css">
   <![CDATA[
    .fil0 {fill:#E6E6E6}
    .fil2 {fill:#4D4D4D;fill-rule:nonzero}
    .fil1 {fill:#B3B3B3;fill-rule:nonzero}
   ]]>
  </style>
 </defs>
 <g id="Vrstva_x0020_1">
  <metadata id="CorelCorpID_0Corel-Layer"/>
  <g id="_2609917480720">
   <rect class="fil0" width="1.44681" height="8.51352"/>
   <polygon class="fil1" points="2,9 2,9 0,9 0,0 2,0 2,9 2,9 2,9 2,9 2,9 2,0 0,0 0,9 2,9 2,9 "/>
   <g>
    <polygon class="fil1" points="0,8 1,8 1,8 0,8 "/>
    <polygon class="fil1" points="0,8 1,8 1,7 0,7 "/>
    <polygon class="fil1" points="0,7 1,7 1,6 0,6 "/>
    <polygon class="fil1" points="0,6 1,6 1,6 0,6 "/>
    <polygon class="fil1" points="0,5 1,5 1,5 0,5 "/>
    <polygon class="fil1" points="0,5 1,5 1,4 0,4 "/>
   </g>
   <g>
    <polygon class="fil2" points="0,1 1,1 1,0 0,0 "/>
    <polygon class="fil2" points="0,4 1,4 1,3 0,3 "/>
    <polygon class="fil2" points="0,3 1,3 1,3 0,3 "/>
    <polygon class="fil2" points="0,2 1,2 1,2 0,2 "/>
    <polygon class="fil2" points="0,2 1,2 1,1 0,1 "/>
   </g>
  </g>
 </g>
</svg>
