<?xml version="1.0" encoding="UTF-8"?>
<!DOCTYPE svg PUBLIC "-//W3C//DTD SVG 1.1//EN" "http://www.w3.org/Graphics/SVG/1.1/DTD/svg11.dtd">
<!-- Creator: CorelDRAW X7 -->
<svg xmlns="http://www.w3.org/2000/svg" xml:space="preserve" width="2300px" height="397px" version="1.1" style="shape-rendering:geometricPrecision; text-rendering:geometricPrecision; image-rendering:optimizeQuality; fill-rule:evenodd; clip-rule:evenodd"
viewBox="0 0 112 19"
 xmlns:xlink="http://www.w3.org/1999/xlink">
 <defs>
  <style type="text/css">
   <![CDATA[
    .fil0 {fill:#767676;fill-rule:nonzero}
   ]]>
  </style>
 </defs>
 <g id="Vrstva_x0020_1">
  <metadata id="CorelCorpID_0Corel-Layer"/>
  <g id="_2648895407088">
   <polygon class="fil0" points="19,6 15,6 15,19 19,19 "/>
   <polygon class="fil0" points="15,19 19,19 19,6 19,6 15,6 "/>
   <polygon class="fil0" points="70,6 67,6 67,19 70,19 "/>
   <polygon class="fil0" points="67,19 70,19 70,6 70,6 67,6 "/>
   <polygon class="fil0" points="14,15 10,15 10,19 14,19 "/>
   <polygon class="fil0" points="10,19 14,19 14,15 10,15 "/>
   <polygon class="fil0" points="60,16 57,16 57,19 60,19 "/>
   <polygon class="fil0" points="57,19 60,19 60,16 60,16 57,16 "/>
   <polygon class="fil0" points="9,10 5,10 5,19 9,19 "/>
   <polygon class="fil0" points="5,19 9,19 9,10 5,10 "/>
   <polygon class="fil0" points="65,10 62,10 62,19 65,19 "/>
   <polygon class="fil0" points="62,19 65,19 65,10 62,10 "/>
   <polygon class="fil0" points="86,10 83,10 83,19 86,19 "/>
   <polygon class="fil0" points="83,19 86,19 86,10 83,10 "/>
   <polygon class="fil0" points="3,18 0,18 0,19 3,19 "/>
   <polygon class="fil0" points="0,19 3,19 3,18 0,18 "/>
   <polygon class="fil0" points="81,18 77,18 77,19 81,19 "/>
   <polygon class="fil0" points="77,19 81,19 81,18 77,18 "/>
   <polygon class="fil0" points="112,18 108,18 108,19 112,19 "/>
   <polygon class="fil0" points="108,19 112,19 112,18 108,18 "/>
   <polygon class="fil0" points="24,10 21,10 21,19 24,19 "/>
   <polygon class="fil0" points="21,19 24,19 24,10 21,10 "/>
   <polygon class="fil0" points="76,15 72,15 72,19 76,19 "/>
   <polygon class="fil0" points="72,19 76,19 76,15 72,15 "/>
   <polygon class="fil0" points="101,15 98,15 98,19 101,19 "/>
   <polygon class="fil0" points="98,19 101,19 101,15 98,15 "/>
   <polygon class="fil0" points="55,13 52,13 52,19 55,19 "/>
   <polygon class="fil0" points="52,19 55,19 55,13 52,13 "/>
   <polygon class="fil0" points="96,13 93,13 93,19 96,19 "/>
   <polygon class="fil0" points="93,19 96,19 96,13 93,13 "/>
   <polygon class="fil0" points="29,9 26,9 26,19 29,19 "/>
   <polygon class="fil0" points="26,19 29,19 29,9 26,9 "/>
   <polygon class="fil0" points="91,9 88,9 88,19 91,19 "/>
   <polygon class="fil0" points="88,19 91,19 91,9 88,9 "/>
   <polygon class="fil0" points="34,0 31,0 31,19 34,19 "/>
   <polygon class="fil0" points="31,19 34,19 34,0 34,0 31,0 "/>
   <polygon class="fil0" points="40,12 36,12 36,19 40,19 "/>
   <polygon class="fil0" points="36,19 40,19 40,12 40,12 36,12 "/>
   <polygon class="fil0" points="45,7 41,7 41,19 45,19 "/>
   <polygon class="fil0" points="41,19 45,19 45,7 41,7 "/>
   <polygon class="fil0" points="107,7 103,7 103,19 107,19 "/>
   <polygon class="fil0" points="103,19 107,19 107,7 103,7 "/>
   <polygon class="fil0" points="50,4 46,4 46,19 50,19 "/>
   <polygon class="fil0" points="46,19 50,19 50,4 50,4 46,4 "/>
  </g>
 </g>
</svg>
