<?xml version="1.0" encoding="UTF-8"?>
<!DOCTYPE svg PUBLIC "-//W3C//DTD SVG 1.1//EN" "http://www.w3.org/Graphics/SVG/1.1/DTD/svg11.dtd">
<!-- Creator: CorelDRAW X7 -->
<svg xmlns="http://www.w3.org/2000/svg" xml:space="preserve" width="2300px" height="2157px" version="1.1" style="shape-rendering:geometricPrecision; text-rendering:geometricPrecision; image-rendering:optimizeQuality; fill-rule:evenodd; clip-rule:evenodd"
viewBox="0 0 151 141"
 xmlns:xlink="http://www.w3.org/1999/xlink">
 <defs>
  <style type="text/css">
   <![CDATA[
    .fil0 {fill:#252626;fill-rule:nonzero}
    .fil1 {fill:#767676;fill-rule:nonzero}
   ]]>
  </style>
 </defs>
 <g id="Vrstva_x0020_1">
  <metadata id="CorelCorpID_0Corel-Layer"/>
  <g id="_2610739859376">
   <path class="fil0" d="M121 112c-1,2 -3,3 -4,5 -11,10 -26,16 -42,16 -16,0 -30,-6 -41,-16 -2,-2 -3,-3 -5,-5 -4,-5 -8,-10 -10,-16 0,0 0,0 0,0l20 -16c-1,-4 -2,-7 -2,-11 0,-3 1,-6 1,-9l-19 -15c3,-6 6,-11 10,-16 2,-1 3,-3 5,-4 11,-10 25,-16 41,-16 16,0 31,6 42,16 1,1 3,3 4,4 5,5 8,10 11,16l-20 16c1,3 1,6 1,10 0,3 0,6 -1,9l20 16c-3,6 -6,11 -11,16zm24 -39l-2 0c0,-18 -4,-28 -11,-40l1 -1 1 -1c-2,-3 -5,-6 -7,-9 2,-3 4,-6 7,-10 -4,3 -7,5 -10,7 -13,-12 -30,-19 -49,-19 -18,0 -35,7 -48,19 -3,-2 -7,-4 -10,-7 2,4 5,7 7,10 -11,12 -19,28 -19,46l0 0 2 0c0,18 4,28 12,41l-2 1 0 0c2,3 4,6 7,9 -2,3 -5,7 -7,10 3,-2 7,-5 10,-7 13,12 30,19 48,19 19,0 36,-7 49,-19 3,2 9,7 12,9 -2,-3 -7,-9 -9,-12 11,-12 18,-28 19,-46l-1 0z"/>
   <path class="fil1" d="M102 68l-12 0 0 -4 -4 0 0 13 4 0 0 -4 12 0c0,0 0,0 0,0 -1,13 -11,24 -24,25l0 -13 4 0 0 -4 -13 0 0 4 4 0 0 13c-13,-1 -24,-12 -25,-25 0,0 0,0 0,0l13 0 0 4 4 0 0 -13 -4 0 0 4 -13 0c1,-13 12,-23 25,-24l0 12 -4 0 0 4 13 0 0 -4 -4 0 0 -12c13,1 23,11 24,24zm-61 3c0,18 16,34 34,34 19,0 34,-16 34,-34 0,-19 -15,-34 -34,-34 -18,0 -34,15 -34,34z"/>
   <path class="fil1" d="M113 35l0 0c2,3 5,6 7,9 -2,-3 -4,-6 -7,-9z"/>
   <path class="fil1" d="M90 20l0 2c4,1 7,2 11,4 3,2 6,5 9,7l1 -1c-3,-2 -6,-5 -10,-7 -3,-2 -7,-4 -11,-5z"/>
   <path class="fil1" d="M75 20c4,0 8,0 12,1l0 -2c-4,-1 -8,-1 -12,-1 -4,0 -8,0 -12,1l1 2c3,-1 7,-1 11,-1z"/>
   <path class="fil1" d="M50 26c3,-2 7,-3 11,-4l-1 -2c-7,2 -15,7 -20,12l0 1c3,-2 6,-5 10,-7z"/>
   <path class="fil1" d="M31 44c2,-3 4,-6 7,-9l0 0c-3,3 -5,6 -7,9z"/>
   <path class="fil1" d="M38 107l0 -1c-3,-3 -5,-6 -7,-9 2,4 4,7 7,10z"/>
   <path class="fil1" d="M40 108l0 1c2,3 6,5 9,7 4,2 7,4 11,5l1 -2c-4,-1 -8,-2 -11,-4 -4,-2 -7,-4 -10,-7z"/>
   <path class="fil1" d="M75 122c-4,0 -8,-1 -11,-2l-1 2c4,1 8,1 12,1 4,0 8,0 12,-1l0 -2c-4,1 -8,2 -12,2z"/>
   <path class="fil1" d="M101 115c-4,2 -7,3 -11,4l0 2c8,-2 15,-6 21,-12l-1 -1c-3,3 -6,5 -9,7z"/>
   <path class="fil1" d="M113 107c3,-3 5,-6 7,-10 -2,3 -5,6 -7,9l0 1z"/>
   <path class="fil1" d="M5 71l0 -1 0 0 -5 0 0 1c0,14 4,27 11,39l1 1 4 -3 0 0 0 -1c-7,-11 -10,-23 -11,-36z"/>
   <path class="fil1" d="M151 70c0,-13 -4,-27 -11,-39l-1 0 -4 2 -1 0 1 1c7,11 10,24 10,36l0 1 1 0 5 0 0 -1z"/>
  </g>
 </g>
</svg>
