<?xml version="1.0" encoding="UTF-8"?>
<!DOCTYPE svg PUBLIC "-//W3C//DTD SVG 1.1//EN" "http://www.w3.org/Graphics/SVG/1.1/DTD/svg11.dtd">
<!-- Creator: CorelDRAW X7 -->
<svg xmlns="http://www.w3.org/2000/svg" xml:space="preserve" width="2300px" height="438px" version="1.1" style="shape-rendering:geometricPrecision; text-rendering:geometricPrecision; image-rendering:optimizeQuality; fill-rule:evenodd; clip-rule:evenodd"
viewBox="0 0 99 19"
 xmlns:xlink="http://www.w3.org/1999/xlink">
 <defs>
  <style type="text/css">
   <![CDATA[
    .fil0 {fill:#767676;fill-rule:nonzero}
   ]]>
  </style>
 </defs>
 <g id="Vrstva_x0020_1">
  <metadata id="CorelCorpID_0Corel-Layer"/>
  <g id="_2646644387584">
   <polygon class="fil0" points="28,6 28,8 26,8 26,6 28,6 "/>
   <polygon class="fil0" points="26,8 28,8 28,6 26,6 "/>
   <polygon class="fil0" points="26,8 28,8 28,10 26,10 "/>
   <polygon class="fil0" points="26,10 28,10 28,8 26,8 "/>
   <polygon class="fil0" points="26,11 28,11 28,12 26,12 "/>
   <polygon class="fil0" points="26,12 28,12 28,11 26,11 "/>
   <polygon class="fil0" points="26,13 28,13 28,14 26,14 "/>
   <polygon class="fil0" points="26,14 28,14 28,13 26,13 "/>
   <polygon class="fil0" points="26,15 28,15 28,17 26,17 "/>
   <polygon class="fil0" points="26,17 28,17 28,15 26,15 "/>
   <polygon class="fil0" points="26,17 28,17 28,19 26,19 "/>
   <polygon class="fil0" points="26,19 28,19 28,17 26,17 "/>
   <polygon class="fil0" points="56,6 56,8 54,8 54,6 56,6 "/>
   <polygon class="fil0" points="54,8 56,8 56,6 54,6 "/>
   <polygon class="fil0" points="54,8 56,8 56,10 54,10 "/>
   <polygon class="fil0" points="54,10 56,10 56,8 54,8 "/>
   <polygon class="fil0" points="54,11 56,11 56,12 54,12 "/>
   <polygon class="fil0" points="54,12 56,12 56,11 54,11 "/>
   <polygon class="fil0" points="54,13 56,13 56,14 54,14 "/>
   <polygon class="fil0" points="54,14 56,14 56,13 54,13 "/>
   <polygon class="fil0" points="54,15 56,15 56,17 54,17 "/>
   <polygon class="fil0" points="54,17 56,17 56,15 54,15 "/>
   <polygon class="fil0" points="54,17 56,17 56,19 54,19 "/>
   <polygon class="fil0" points="54,19 56,19 56,17 54,17 "/>
   <polygon class="fil0" points="25,15 25,17 23,17 23,15 25,15 "/>
   <polygon class="fil0" points="23,17 25,17 25,15 23,15 "/>
   <polygon class="fil0" points="23,17 25,17 25,19 23,19 "/>
   <polygon class="fil0" points="23,19 25,19 25,17 23,17 "/>
   <polygon class="fil0" points="50,16 50,17 48,17 48,16 50,16 "/>
   <polygon class="fil0" points="48,17 50,17 50,16 48,16 "/>
   <polygon class="fil0" points="48,17 50,17 50,19 48,19 "/>
   <polygon class="fil0" points="48,19 50,19 50,17 48,17 "/>
   <polygon class="fil0" points="22,11 22,12 20,12 20,11 22,11 "/>
   <polygon class="fil0" points="20,12 22,12 22,11 20,11 "/>
   <polygon class="fil0" points="20,13 22,13 22,14 20,14 "/>
   <polygon class="fil0" points="20,14 22,14 22,13 20,13 "/>
   <polygon class="fil0" points="20,15 22,15 22,17 20,17 "/>
   <polygon class="fil0" points="20,17 22,17 22,15 20,15 "/>
   <polygon class="fil0" points="20,17 22,17 22,19 20,19 "/>
   <polygon class="fil0" points="20,19 22,19 22,17 20,17 "/>
   <polygon class="fil0" points="53,11 53,12 51,12 51,11 53,11 "/>
   <polygon class="fil0" points="51,12 53,12 53,11 51,11 "/>
   <polygon class="fil0" points="51,13 53,13 53,14 51,14 "/>
   <polygon class="fil0" points="51,14 53,14 53,13 51,13 "/>
   <polygon class="fil0" points="51,15 53,15 53,17 51,17 "/>
   <polygon class="fil0" points="51,17 53,17 53,15 51,15 "/>
   <polygon class="fil0" points="51,17 53,17 53,19 51,19 "/>
   <polygon class="fil0" points="51,19 53,19 53,17 51,17 "/>
   <polygon class="fil0" points="5,11 5,12 3,12 3,11 5,11 "/>
   <polygon class="fil0" points="3,12 5,12 5,11 3,11 "/>
   <polygon class="fil0" points="3,13 5,13 5,14 3,14 "/>
   <polygon class="fil0" points="3,14 5,14 5,13 3,13 "/>
   <polygon class="fil0" points="3,15 5,15 5,17 3,17 "/>
   <polygon class="fil0" points="3,17 5,17 5,15 3,15 "/>
   <polygon class="fil0" points="3,17 5,17 5,19 3,19 "/>
   <polygon class="fil0" points="3,19 5,19 5,17 3,17 "/>
   <polygon class="fil0" points="19,17 17,17 17,19 19,19 "/>
   <polygon class="fil0" points="17,19 19,19 19,17 19,17 17,17 "/>
   <polygon class="fil0" points="2,17 0,17 0,19 2,19 "/>
   <polygon class="fil0" points="0,19 2,19 2,17 0,17 "/>
   <polygon class="fil0" points="30,11 30,12 28,12 28,11 30,11 "/>
   <polygon class="fil0" points="28,12 30,12 30,11 28,11 "/>
   <polygon class="fil0" points="28,13 30,13 30,14 28,14 "/>
   <polygon class="fil0" points="28,14 30,14 30,13 28,13 "/>
   <polygon class="fil0" points="28,15 30,15 30,17 28,17 "/>
   <polygon class="fil0" points="28,17 30,17 30,15 28,15 "/>
   <polygon class="fil0" points="28,17 30,17 30,19 28,19 "/>
   <polygon class="fil0" points="28,19 30,19 30,17 28,17 "/>
   <polygon class="fil0" points="59,15 59,17 57,17 57,15 59,15 "/>
   <polygon class="fil0" points="57,17 59,17 59,15 57,15 "/>
   <polygon class="fil0" points="57,17 59,17 59,19 57,19 "/>
   <polygon class="fil0" points="57,19 59,19 59,17 57,17 "/>
   <polygon class="fil0" points="13,15 13,17 11,17 11,15 13,15 "/>
   <polygon class="fil0" points="11,17 13,17 13,15 11,15 "/>
   <polygon class="fil0" points="11,17 13,17 13,19 11,19 "/>
   <polygon class="fil0" points="11,19 13,19 13,17 11,17 "/>
   <polygon class="fil0" points="47,13 47,14 46,14 46,13 47,13 "/>
   <polygon class="fil0" points="46,14 47,14 47,13 46,13 "/>
   <polygon class="fil0" points="46,15 47,15 47,17 46,17 "/>
   <polygon class="fil0" points="46,17 47,17 47,15 46,15 "/>
   <polygon class="fil0" points="46,17 47,17 47,19 46,19 "/>
   <polygon class="fil0" points="46,19 47,19 47,17 46,17 "/>
   <polygon class="fil0" points="10,13 10,14 9,14 9,13 10,13 "/>
   <polygon class="fil0" points="9,14 10,14 10,13 9,13 "/>
   <polygon class="fil0" points="9,15 10,15 10,17 9,17 "/>
   <polygon class="fil0" points="9,17 10,17 10,15 9,15 "/>
   <polygon class="fil0" points="9,17 10,17 10,19 9,19 "/>
   <polygon class="fil0" points="9,19 10,19 10,17 9,17 "/>
   <polygon class="fil0" points="33,9 33,10 31,10 31,9 33,9 "/>
   <polygon class="fil0" points="31,10 33,10 33,9 31,9 "/>
   <polygon class="fil0" points="31,11 33,11 33,12 31,12 "/>
   <polygon class="fil0" points="31,12 33,12 33,11 31,11 "/>
   <polygon class="fil0" points="31,13 33,13 33,14 31,14 "/>
   <polygon class="fil0" points="31,14 33,14 33,13 31,13 "/>
   <polygon class="fil0" points="31,15 33,15 33,17 31,17 "/>
   <polygon class="fil0" points="31,17 33,17 33,15 31,15 "/>
   <polygon class="fil0" points="31,17 33,17 33,19 31,19 "/>
   <polygon class="fil0" points="31,19 33,19 33,17 31,17 "/>
   <polygon class="fil0" points="8,9 8,10 6,10 6,9 8,9 "/>
   <polygon class="fil0" points="6,10 8,10 8,9 6,9 "/>
   <polygon class="fil0" points="6,11 8,11 8,12 6,12 "/>
   <polygon class="fil0" points="6,12 8,12 8,11 6,11 "/>
   <polygon class="fil0" points="6,13 8,13 8,14 6,14 "/>
   <polygon class="fil0" points="6,14 8,14 8,13 6,13 "/>
   <polygon class="fil0" points="6,15 8,15 8,17 6,17 "/>
   <polygon class="fil0" points="6,17 8,17 8,15 6,15 "/>
   <polygon class="fil0" points="6,17 8,17 8,19 6,19 "/>
   <polygon class="fil0" points="6,19 8,19 8,17 6,17 "/>
   <polygon class="fil0" points="36,0 36,1 34,1 34,0 36,0 "/>
   <polygon class="fil0" points="34,1 36,1 36,0 34,0 "/>
   <polygon class="fil0" points="36,2 36,3 34,3 34,2 36,2 "/>
   <polygon class="fil0" points="34,3 36,3 36,2 34,2 "/>
   <polygon class="fil0" points="34,4 36,4 36,6 34,6 "/>
   <polygon class="fil0" points="34,6 36,6 36,4 34,4 "/>
   <polygon class="fil0" points="34,6 36,6 36,8 34,8 "/>
   <polygon class="fil0" points="34,8 36,8 36,6 34,6 "/>
   <polygon class="fil0" points="34,8 36,8 36,10 34,10 "/>
   <polygon class="fil0" points="34,10 36,10 36,8 34,8 "/>
   <polygon class="fil0" points="34,11 36,11 36,12 34,12 "/>
   <polygon class="fil0" points="34,12 36,12 36,11 34,11 "/>
   <polygon class="fil0" points="34,13 36,13 36,14 34,14 "/>
   <polygon class="fil0" points="34,14 36,14 36,13 34,13 "/>
   <polygon class="fil0" points="34,15 36,15 36,17 34,17 "/>
   <polygon class="fil0" points="34,17 36,17 36,15 34,15 "/>
   <polygon class="fil0" points="34,17 36,17 36,19 34,19 "/>
   <polygon class="fil0" points="34,19 36,19 36,17 34,17 "/>
   <polygon class="fil0" points="39,12 39,12 37,12 37,12 39,12 "/>
   <polygon class="fil0" points="37,12 39,12 39,12 37,12 "/>
   <polygon class="fil0" points="37,13 39,13 39,14 37,14 "/>
   <polygon class="fil0" points="37,14 39,14 39,13 37,13 "/>
   <polygon class="fil0" points="37,15 39,15 39,17 37,17 "/>
   <polygon class="fil0" points="37,17 39,17 39,15 37,15 "/>
   <polygon class="fil0" points="37,17 39,17 39,19 37,19 "/>
   <polygon class="fil0" points="37,19 39,19 39,17 37,17 "/>
   <polygon class="fil0" points="42,7 42,8 40,8 40,7 42,7 "/>
   <polygon class="fil0" points="40,8 42,8 42,7 40,7 "/>
   <polygon class="fil0" points="40,8 42,8 42,10 40,10 "/>
   <polygon class="fil0" points="40,10 42,10 42,8 40,8 "/>
   <polygon class="fil0" points="40,11 42,11 42,12 40,12 "/>
   <polygon class="fil0" points="40,12 42,12 42,11 40,11 "/>
   <polygon class="fil0" points="40,13 42,13 42,14 40,14 "/>
   <polygon class="fil0" points="40,14 42,14 42,13 40,13 "/>
   <polygon class="fil0" points="40,15 42,15 42,17 40,17 "/>
   <polygon class="fil0" points="40,17 42,17 42,15 40,15 "/>
   <polygon class="fil0" points="40,17 42,17 42,19 40,19 "/>
   <polygon class="fil0" points="40,19 42,19 42,17 40,17 "/>
   <polygon class="fil0" points="16,7 16,8 14,8 14,7 16,7 "/>
   <polygon class="fil0" points="14,8 16,8 16,7 14,7 "/>
   <polygon class="fil0" points="14,8 16,8 16,10 14,10 "/>
   <polygon class="fil0" points="14,10 16,10 16,8 14,8 "/>
   <polygon class="fil0" points="14,11 16,11 16,12 14,12 "/>
   <polygon class="fil0" points="14,12 16,12 16,11 14,11 "/>
   <polygon class="fil0" points="14,13 16,13 16,14 14,14 "/>
   <polygon class="fil0" points="14,14 16,14 16,13 14,13 "/>
   <polygon class="fil0" points="14,15 16,15 16,17 14,17 "/>
   <polygon class="fil0" points="14,17 16,17 16,15 14,15 "/>
   <polygon class="fil0" points="14,17 16,17 16,19 14,19 "/>
   <polygon class="fil0" points="14,19 16,19 16,17 14,17 "/>
   <polygon class="fil0" points="45,4 45,6 43,6 43,4 45,4 "/>
   <polygon class="fil0" points="43,6 45,6 45,4 43,4 "/>
   <polygon class="fil0" points="43,6 45,6 45,8 43,8 "/>
   <polygon class="fil0" points="43,8 45,8 45,6 43,6 "/>
   <polygon class="fil0" points="43,8 45,8 45,10 43,10 "/>
   <polygon class="fil0" points="43,10 45,10 45,8 43,8 "/>
   <polygon class="fil0" points="43,11 45,11 45,12 43,12 "/>
   <polygon class="fil0" points="43,12 45,12 45,11 43,11 "/>
   <polygon class="fil0" points="43,13 45,13 45,14 43,14 "/>
   <polygon class="fil0" points="43,14 45,14 45,13 43,13 "/>
   <polygon class="fil0" points="43,15 45,15 45,17 43,17 "/>
   <polygon class="fil0" points="43,17 45,17 45,15 43,15 "/>
   <polygon class="fil0" points="43,17 45,17 45,19 43,19 "/>
   <polygon class="fil0" points="43,19 45,19 45,17 43,17 "/>
   <polygon class="fil0" points="66,11 67,11 67,12 66,12 "/>
   <polygon class="fil0" points="66,12 67,12 67,11 66,11 "/>
   <polygon class="fil0" points="66,13 67,13 67,14 66,14 "/>
   <polygon class="fil0" points="66,14 67,14 67,13 66,13 "/>
   <polygon class="fil0" points="66,15 67,15 67,17 66,17 "/>
   <polygon class="fil0" points="66,17 67,17 67,15 66,15 "/>
   <polygon class="fil0" points="66,17 67,17 67,19 66,19 "/>
   <polygon class="fil0" points="66,19 67,19 67,17 66,17 "/>
   <polygon class="fil0" points="94,13 96,13 96,14 94,14 "/>
   <polygon class="fil0" points="94,14 96,14 96,13 94,13 "/>
   <polygon class="fil0" points="94,15 96,15 96,17 94,17 "/>
   <polygon class="fil0" points="94,17 96,17 96,15 94,15 "/>
   <polygon class="fil0" points="94,17 96,17 96,19 94,19 "/>
   <polygon class="fil0" points="94,19 96,19 96,17 94,17 "/>
   <polygon class="fil0" points="65,15 65,17 63,17 63,15 65,15 "/>
   <polygon class="fil0" points="63,17 65,17 65,15 63,15 "/>
   <polygon class="fil0" points="63,17 65,17 65,19 63,19 "/>
   <polygon class="fil0" points="63,19 65,19 65,17 63,17 "/>
   <polygon class="fil0" points="90,16 90,17 88,17 88,16 90,16 "/>
   <polygon class="fil0" points="88,17 90,17 90,16 88,16 "/>
   <polygon class="fil0" points="88,17 90,17 90,19 88,19 "/>
   <polygon class="fil0" points="88,19 90,19 90,17 88,17 "/>
   <polygon class="fil0" points="62,11 62,12 60,12 60,11 62,11 "/>
   <polygon class="fil0" points="60,12 62,12 62,11 60,11 "/>
   <polygon class="fil0" points="60,13 62,13 62,14 60,14 "/>
   <polygon class="fil0" points="60,14 62,14 62,13 60,13 "/>
   <polygon class="fil0" points="60,15 62,15 62,17 60,17 "/>
   <polygon class="fil0" points="60,17 62,17 62,15 60,15 "/>
   <polygon class="fil0" points="60,17 62,17 62,19 60,19 "/>
   <polygon class="fil0" points="60,19 62,19 62,17 60,17 "/>
   <polygon class="fil0" points="93,11 93,12 91,12 91,11 93,11 "/>
   <polygon class="fil0" points="91,12 93,12 93,11 91,11 "/>
   <polygon class="fil0" points="91,13 93,13 93,14 91,14 "/>
   <polygon class="fil0" points="91,14 93,14 93,13 91,13 "/>
   <polygon class="fil0" points="91,15 93,15 93,17 91,17 "/>
   <polygon class="fil0" points="91,17 93,17 93,15 91,15 "/>
   <polygon class="fil0" points="91,17 93,17 93,19 91,19 "/>
   <polygon class="fil0" points="91,19 93,19 93,17 91,17 "/>
   <polygon class="fil0" points="70,11 70,12 68,12 68,11 70,11 "/>
   <polygon class="fil0" points="68,12 70,12 70,11 68,11 "/>
   <polygon class="fil0" points="68,13 70,13 70,14 68,14 "/>
   <polygon class="fil0" points="68,14 70,14 70,13 68,13 "/>
   <polygon class="fil0" points="68,15 70,15 70,17 68,17 "/>
   <polygon class="fil0" points="68,17 70,17 70,15 68,15 "/>
   <polygon class="fil0" points="68,17 70,17 70,19 68,19 "/>
   <polygon class="fil0" points="68,19 70,19 70,17 68,17 "/>
   <polygon class="fil0" points="99,15 99,17 97,17 97,15 99,15 "/>
   <polygon class="fil0" points="97,17 99,17 99,15 97,15 "/>
   <polygon class="fil0" points="97,17 99,17 99,19 97,19 "/>
   <polygon class="fil0" points="97,19 99,19 99,17 97,17 "/>
   <polygon class="fil0" points="87,13 87,14 86,14 86,13 87,13 "/>
   <polygon class="fil0" points="86,14 87,14 87,13 86,13 "/>
   <polygon class="fil0" points="86,15 87,15 87,17 86,17 "/>
   <polygon class="fil0" points="86,17 87,17 87,15 86,15 "/>
   <polygon class="fil0" points="86,17 87,17 87,19 86,19 "/>
   <polygon class="fil0" points="86,19 87,19 87,17 86,17 "/>
   <polygon class="fil0" points="73,9 73,10 71,10 71,9 73,9 "/>
   <polygon class="fil0" points="71,10 73,10 73,9 71,9 "/>
   <polygon class="fil0" points="71,11 73,11 73,12 71,12 "/>
   <polygon class="fil0" points="71,12 73,12 73,11 71,11 "/>
   <polygon class="fil0" points="71,13 73,13 73,14 71,14 "/>
   <polygon class="fil0" points="71,14 73,14 73,13 71,13 "/>
   <polygon class="fil0" points="71,15 73,15 73,17 71,17 "/>
   <polygon class="fil0" points="71,17 73,17 73,15 71,15 "/>
   <polygon class="fil0" points="71,17 73,17 73,19 71,19 "/>
   <polygon class="fil0" points="71,19 73,19 73,17 71,17 "/>
   <polygon class="fil0" points="74,4 76,4 76,6 74,6 "/>
   <polygon class="fil0" points="74,6 76,6 76,4 74,4 "/>
   <polygon class="fil0" points="74,6 76,6 76,8 74,8 "/>
   <polygon class="fil0" points="74,8 76,8 76,6 74,6 "/>
   <polygon class="fil0" points="74,8 76,8 76,10 74,10 "/>
   <polygon class="fil0" points="74,10 76,10 76,8 74,8 "/>
   <polygon class="fil0" points="74,11 76,11 76,12 74,12 "/>
   <polygon class="fil0" points="74,12 76,12 76,11 74,11 "/>
   <polygon class="fil0" points="74,13 76,13 76,14 74,14 "/>
   <polygon class="fil0" points="74,14 76,14 76,13 74,13 "/>
   <polygon class="fil0" points="74,15 76,15 76,17 74,17 "/>
   <polygon class="fil0" points="74,17 76,17 76,15 74,15 "/>
   <polygon class="fil0" points="74,17 76,17 76,19 74,19 "/>
   <polygon class="fil0" points="74,19 76,19 76,17 74,17 "/>
   <polygon class="fil0" points="79,12 79,12 77,12 77,12 79,12 "/>
   <polygon class="fil0" points="77,12 79,12 79,12 77,12 "/>
   <polygon class="fil0" points="77,13 79,13 79,14 77,14 "/>
   <polygon class="fil0" points="77,14 79,14 79,13 77,13 "/>
   <polygon class="fil0" points="77,15 79,15 79,17 77,17 "/>
   <polygon class="fil0" points="77,17 79,17 79,15 77,15 "/>
   <polygon class="fil0" points="77,17 79,17 79,19 77,19 "/>
   <polygon class="fil0" points="77,19 79,19 79,17 77,17 "/>
   <polygon class="fil0" points="82,7 82,8 80,8 80,7 82,7 "/>
   <polygon class="fil0" points="80,8 82,8 82,7 80,7 "/>
   <polygon class="fil0" points="80,8 82,8 82,10 80,10 "/>
   <polygon class="fil0" points="80,10 82,10 82,8 80,8 "/>
   <polygon class="fil0" points="80,11 82,11 82,12 80,12 "/>
   <polygon class="fil0" points="80,12 82,12 82,11 80,11 "/>
   <polygon class="fil0" points="80,13 82,13 82,14 80,14 "/>
   <polygon class="fil0" points="80,14 82,14 82,13 80,13 "/>
   <polygon class="fil0" points="80,15 82,15 82,17 80,17 "/>
   <polygon class="fil0" points="80,17 82,17 82,15 80,15 "/>
   <polygon class="fil0" points="80,17 82,17 82,19 80,19 "/>
   <polygon class="fil0" points="80,19 82,19 82,17 80,17 "/>
   <polygon class="fil0" points="83,8 85,8 85,10 83,10 "/>
   <polygon class="fil0" points="83,10 85,10 85,8 83,8 "/>
   <polygon class="fil0" points="83,11 85,11 85,12 83,12 "/>
   <polygon class="fil0" points="83,12 85,12 85,11 83,11 "/>
   <polygon class="fil0" points="83,13 85,13 85,14 83,14 "/>
   <polygon class="fil0" points="83,14 85,14 85,13 83,13 "/>
   <polygon class="fil0" points="83,15 85,15 85,17 83,17 "/>
   <polygon class="fil0" points="83,17 85,17 85,15 83,15 "/>
   <polygon class="fil0" points="83,17 85,17 85,19 83,19 "/>
   <polygon class="fil0" points="83,19 85,19 85,17 83,17 "/>
  </g>
 </g>
</svg>
