<?xml version="1.0" encoding="UTF-8"?>
<!DOCTYPE svg PUBLIC "-//W3C//DTD SVG 1.1//EN" "http://www.w3.org/Graphics/SVG/1.1/DTD/svg11.dtd">
<!-- Creator: CorelDRAW X7 -->
<svg xmlns="http://www.w3.org/2000/svg" xml:space="preserve" width="2300px" height="1833px" version="1.1" style="shape-rendering:geometricPrecision; text-rendering:geometricPrecision; image-rendering:optimizeQuality; fill-rule:evenodd; clip-rule:evenodd"
viewBox="0 0 1522 1213"
 xmlns:xlink="http://www.w3.org/1999/xlink">
 <defs>
  <style type="text/css">
   <![CDATA[
    .fil1 {fill:#999999;fill-rule:nonzero}
    .fil0 {fill:#767676;fill-rule:nonzero}
   ]]>
  </style>
 </defs>
 <g id="Vrstva_x0020_1">
  <metadata id="CorelCorpID_0Corel-Layer"/>
  <g id="_2610578995776">
   <path class="fil0" d="M706 1213c-25,0 -46,-21 -46,-46 0,-25 21,-45 46,-45 25,0 45,20 45,45 0,25 -20,46 -45,46l0 0zm0 -72c-15,0 -27,12 -27,26 0,15 12,26 27,26 14,0 26,-11 26,-26 0,-14 -12,-26 -26,-26l0 0z"/>
   <polygon class="fil0" points="715,1131 696,1131 696,968 54,968 54,178 232,0 385,0 385,19 240,19 73,186 73,949 715,949 "/>
   <polygon class="fil0" points="1232,968 740,968 740,949 1224,949 1434,739 1434,19 706,19 706,0 1453,0 1453,747 1232,968 "/>
   <polygon class="fil1" points="246,70 116,200 116,901 1185,901 1385,701 1385,70 "/>
   <polygon class="fil0" points="54,700 54,968 269,970 215,1023 0,1023 0,754 "/>
   <path class="fil0" d="M1522 351l0 0c-11,0 -19,-8 -19,-18l-19 0 0 56 19 0 0 0c0,-11 8,-19 19,-19l0 -19z"/>
   <path class="fil0" d="M1522 426l0 0c-11,0 -19,-8 -19,-19l-19 0 0 57 19 0 0 0c0,-11 8,-19 19,-19l0 -19z"/>
   <path class="fil0" d="M1522 501l0 0c-11,0 -19,-8 -19,-19l-19 0 0 57 19 0 0 0c0,-11 8,-19 19,-19l0 -19z"/>
   <path class="fil0" d="M1522 126l0 0c-11,0 -19,-8 -19,-18l-19 0 0 56 19 0 0 0c0,-10 8,-19 19,-19l0 -19z"/>
   <path class="fil0" d="M1522 201l0 0c-11,0 -19,-8 -19,-18l-19 0 0 56 19 0 0 0c0,-10 8,-19 19,-19l0 -19z"/>
   <path class="fil0" d="M1522 276l0 0c-11,0 -19,-8 -19,-18l-19 0 0 56 19 0 0 0c0,-11 8,-19 19,-19l0 -19z"/>
  </g>
 </g>
</svg>
