<?xml version="1.0" encoding="UTF-8"?>
<!DOCTYPE svg PUBLIC "-//W3C//DTD SVG 1.1//EN" "http://www.w3.org/Graphics/SVG/1.1/DTD/svg11.dtd">
<!-- Creator: CorelDRAW X7 -->
<svg xmlns="http://www.w3.org/2000/svg" xml:space="preserve" width="2300px" height="1662px" version="1.1" style="shape-rendering:geometricPrecision; text-rendering:geometricPrecision; image-rendering:optimizeQuality; fill-rule:evenodd; clip-rule:evenodd"
viewBox="0 0 541 391"
 xmlns:xlink="http://www.w3.org/1999/xlink">
 <defs>
  <style type="text/css">
   <![CDATA[
    .fil1 {fill:#999999;fill-rule:nonzero}
    .fil0 {fill:#767676;fill-rule:nonzero}
   ]]>
  </style>
 </defs>
 <g id="Vrstva_x0020_1">
  <metadata id="CorelCorpID_0Corel-Layer"/>
  <g id="_2645941544784">
   <polygon class="fil0" points="138,366 133,363 167,290 448,290 533,78 262,78 205,106 147,209 74,209 33,290 151,290 151,296 25,296 71,203 144,203 201,102 261,73 541,73 452,296 171,296 "/>
   <g>
    <path class="fil1" d="M244 314c0,0 -1,0 -1,0 0,0 0,0 0,0 -1,0 -1,-1 -1,-1 0,0 -1,0 -1,-1 0,0 0,-1 0,-1 0,0 0,0 0,-1 0,0 0,0 0,0 0,0 0,0 0,-1 1,0 1,0 1,0 0,0 0,0 0,0 0,-1 1,-1 1,-1 0,0 0,0 0,0 1,0 1,0 2,0 0,0 1,1 1,1 0,0 0,0 0,0 0,1 1,1 1,1 0,0 0,0 0,0 0,1 0,1 0,1 0,0 0,1 0,1 -1,1 -1,1 -1,1 -1,1 -1,1 -2,1z"/>
    <path class="fil1" d="M255 311c0,-2 2,-3 3,-3l0 0c2,0 3,1 3,3l0 0c0,2 -1,3 -3,3l0 0c-1,0 -3,-1 -3,-3zm15 0c0,-2 1,-3 3,-3l0 0c1,0 2,1 2,3l0 0c0,2 -1,3 -2,3l0 0c-2,0 -3,-1 -3,-3zm14 0c0,-2 1,-3 3,-3l0 0c1,0 3,1 3,3l0 0c0,2 -2,3 -3,3l0 0c-2,0 -3,-1 -3,-3zm14 0c0,-2 2,-3 3,-3l0 0c2,0 3,1 3,3l0 0c0,2 -1,3 -3,3l0 0c-1,0 -3,-1 -3,-3zm15 0c0,-2 1,-3 2,-3l0 0c2,0 3,1 3,3l0 0c0,2 -1,3 -3,3l0 0c-1,0 -2,-1 -2,-3zm14 0c0,-2 1,-3 3,-3l0 0c1,0 3,1 3,3l0 0c0,2 -2,3 -3,3l0 0c-2,0 -3,-1 -3,-3zm14 0c0,-2 1,-3 3,-3l0 0c2,0 3,1 3,3l0 0c0,2 -1,3 -3,3l0 0c-2,0 -3,-1 -3,-3zm14 0c0,-2 2,-3 3,-3l0 0c2,0 3,1 3,3l0 0c0,2 -1,3 -3,3l0 0c-1,0 -3,-1 -3,-3zm15 0c0,-2 1,-3 3,-3l0 0c1,0 3,1 3,3l0 0c0,2 -2,3 -3,3l0 0c-2,0 -3,-1 -3,-3zm14 0c0,-2 1,-3 3,-3l0 0c2,0 3,1 3,3l0 0c0,2 -1,3 -3,3l0 0c-2,0 -3,-1 -3,-3zm14 0c0,-2 2,-3 3,-3l0 0c2,0 3,1 3,3l0 0c0,2 -1,3 -3,3l0 0c-1,0 -3,-1 -3,-3z"/>
    <polygon class="fil1" points="0,264 44,177 116,177 174,75 232,46 508,46 421,264 "/>
    <path class="fil1" d="M48 160l52 0 58 -101 88 -44 154 0 -9 -10 -259 0 -84 155zm55 5l-64 0 90 -165 264 0 20 20 -166 0 -85 43 -59 102z"/>
   </g>
   <path class="fil0" d="M130 391c-7,0 -14,-7 -14,-15 0,-7 7,-14 14,-14 8,0 15,7 15,14 0,8 -7,15 -15,15l0 0zm0 -23c-4,0 -8,4 -8,8 0,5 4,9 8,9 5,0 9,-4 9,-9 0,-4 -4,-8 -9,-8l0 0z"/>
  </g>
 </g>
</svg>
