<?xml version="1.0" encoding="UTF-8"?>
<!DOCTYPE svg PUBLIC "-//W3C//DTD SVG 1.1//EN" "http://www.w3.org/Graphics/SVG/1.1/DTD/svg11.dtd">
<!-- Creator: CorelDRAW X7 -->
<svg xmlns="http://www.w3.org/2000/svg" xml:space="preserve" width="2300px" height="246px" version="1.1" style="shape-rendering:geometricPrecision; text-rendering:geometricPrecision; image-rendering:optimizeQuality; fill-rule:evenodd; clip-rule:evenodd"
viewBox="0 0 182 19"
 xmlns:xlink="http://www.w3.org/1999/xlink">
 <defs>
  <style type="text/css">
   <![CDATA[
    .fil2 {fill:#4D4D4D}
    .fil1 {fill:gray}
    .fil0 {fill:#B3B3B3}
   ]]>
  </style>
 </defs>
 <g id="Vrstva_x0020_1">
  <metadata id="CorelCorpID_0Corel-Layer"/>
  <g id="_2610480106528">
   <path class="fil0" d="M4 2c0,1 -1,2 -2,2 -1,0 -2,-1 -2,-2 0,-1 1,-2 2,-2 1,0 2,1 2,2z"/>
   <path class="fil0" d="M8 2c0,1 -1,2 -2,2 -1,0 -2,-1 -2,-2 0,-1 1,-2 2,-2 1,0 2,1 2,2z"/>
   <path class="fil0" d="M12 2c0,1 0,2 -2,2 -1,0 -1,-1 -1,-2 0,-1 0,-2 1,-2 2,0 2,1 2,2z"/>
   <path class="fil0" d="M17 2c0,1 -1,2 -2,2 -1,0 -2,-1 -2,-2 0,-1 1,-2 2,-2 1,0 2,1 2,2z"/>
   <path class="fil0" d="M21 2c0,1 -1,2 -2,2 -1,0 -2,-1 -2,-2 0,-1 1,-2 2,-2 1,0 2,1 2,2z"/>
   <path class="fil0" d="M25 2c0,1 -1,2 -2,2 -1,0 -2,-1 -2,-2 0,-1 1,-2 2,-2 1,0 2,1 2,2z"/>
   <path class="fil0" d="M29 2c0,1 0,2 -1,2 -2,0 -2,-1 -2,-2 0,-1 0,-2 2,-2 1,0 1,1 1,2z"/>
   <path class="fil0" d="M34 2c0,1 -1,2 -2,2 -1,0 -2,-1 -2,-2 0,-1 1,-2 2,-2 1,0 2,1 2,2z"/>
   <path class="fil0" d="M38 2c0,1 -1,2 -2,2 -1,0 -2,-1 -2,-2 0,-1 1,-2 2,-2 1,0 2,1 2,2z"/>
   <path class="fil0" d="M42 2c0,1 -1,2 -2,2 -1,0 -2,-1 -2,-2 0,-1 1,-2 2,-2 1,0 2,1 2,2z"/>
   <path class="fil0" d="M47 2c0,1 -1,2 -2,2 -1,0 -2,-1 -2,-2 0,-1 1,-2 2,-2 1,0 2,1 2,2z"/>
   <path class="fil1" d="M51 2c0,1 -1,2 -2,2 -1,0 -2,-1 -2,-2 0,-1 1,-2 2,-2 1,0 2,1 2,2z"/>
   <path class="fil1" d="M55 2c0,1 -1,2 -2,2 -1,0 -2,-1 -2,-2 0,-1 1,-2 2,-2 1,0 2,1 2,2z"/>
   <path class="fil1" d="M59 2c0,1 -1,2 -2,2 -1,0 -2,-1 -2,-2 0,-1 1,-2 2,-2 1,0 2,1 2,2z"/>
   <path class="fil1" d="M64 2c0,1 -1,2 -2,2 -1,0 -2,-1 -2,-2 0,-1 1,-2 2,-2 1,0 2,1 2,2z"/>
   <path class="fil1" d="M68 2c0,1 -1,2 -2,2 -1,0 -2,-1 -2,-2 0,-1 1,-2 2,-2 1,0 2,1 2,2z"/>
   <path class="fil1" d="M72 2c0,1 -1,2 -2,2 -1,0 -2,-1 -2,-2 0,-1 1,-2 2,-2 1,0 2,1 2,2z"/>
   <path class="fil1" d="M76 2c0,1 0,2 -2,2 -1,0 -1,-1 -1,-2 0,-1 0,-2 1,-2 2,0 2,1 2,2z"/>
   <path class="fil1" d="M81 2c0,1 -1,2 -2,2 -1,0 -2,-1 -2,-2 0,-1 1,-2 2,-2 1,0 2,1 2,2z"/>
   <path class="fil1" d="M85 2c0,1 -1,2 -2,2 -1,0 -2,-1 -2,-2 0,-1 1,-2 2,-2 1,0 2,1 2,2z"/>
   <path class="fil1" d="M89 2c0,1 -1,2 -2,2 -1,0 -2,-1 -2,-2 0,-1 1,-2 2,-2 1,0 2,1 2,2z"/>
   <path class="fil2" d="M93 2c0,1 0,2 -1,2 -2,0 -2,-1 -2,-2 0,-1 0,-2 2,-2 1,0 1,1 1,2z"/>
   <path class="fil2" d="M98 2c0,1 -1,2 -2,2 -1,0 -2,-1 -2,-2 0,-1 1,-2 2,-2 1,0 2,1 2,2z"/>
   <path class="fil2" d="M102 2c0,1 -1,2 -2,2 -1,0 -2,-1 -2,-2 0,-1 1,-2 2,-2 1,0 2,1 2,2z"/>
   <path class="fil2" d="M106 2c0,1 -1,2 -2,2 -1,0 -2,-1 -2,-2 0,-1 1,-2 2,-2 1,0 2,1 2,2z"/>
   <path class="fil2" d="M111 2c0,1 -1,2 -2,2 -2,0 -2,-1 -2,-2 0,-1 0,-2 2,-2 1,0 2,1 2,2z"/>
   <path class="fil2" d="M115 2c0,1 -1,2 -2,2 -1,0 -2,-1 -2,-2 0,-1 1,-2 2,-2 1,0 2,1 2,2z"/>
   <path class="fil0" d="M4 10c0,1 -1,2 -2,2 -1,0 -2,-1 -2,-2 0,-1 1,-2 2,-2 1,0 2,1 2,2z"/>
   <path class="fil0" d="M9 10c0,1 -1,2 -2,2 -1,0 -2,-1 -2,-2 0,-1 1,-2 2,-2 1,0 2,1 2,2z"/>
   <path class="fil0" d="M15 10c0,1 -1,2 -2,2 -1,0 -2,-1 -2,-2 0,-1 1,-2 2,-2 1,0 2,1 2,2z"/>
   <path class="fil0" d="M20 10c0,1 -1,2 -2,2 -1,0 -2,-1 -2,-2 0,-1 1,-2 2,-2 1,0 2,1 2,2z"/>
   <path class="fil0" d="M25 10c0,1 -1,2 -2,2 -1,0 -2,-1 -2,-2 0,-1 1,-2 2,-2 1,0 2,1 2,2z"/>
   <path class="fil0" d="M31 10c0,1 -1,2 -2,2 -1,0 -2,-1 -2,-2 0,-1 1,-2 2,-2 1,0 2,1 2,2z"/>
   <path class="fil1" d="M36 10c0,1 -1,2 -2,2 -1,0 -2,-1 -2,-2 0,-1 1,-2 2,-2 1,0 2,1 2,2z"/>
   <path class="fil1" d="M41 10c0,1 -1,2 -2,2 -1,0 -2,-1 -2,-2 0,-1 1,-2 2,-2 1,0 2,1 2,2z"/>
   <path class="fil1" d="M47 10c0,1 -1,2 -2,2 -1,0 -2,-1 -2,-2 0,-1 1,-2 2,-2 1,0 2,1 2,2z"/>
   <path class="fil1" d="M52 10c0,1 -1,2 -2,2 -1,0 -2,-1 -2,-2 0,-1 1,-2 2,-2 1,0 2,1 2,2z"/>
   <path class="fil1" d="M57 10c0,1 0,2 -2,2 -1,0 -2,-1 -2,-2 0,-1 1,-2 2,-2 2,0 2,1 2,2z"/>
   <path class="fil1" d="M63 10c0,1 -1,2 -2,2 -1,0 -2,-1 -2,-2 0,-1 1,-2 2,-2 1,0 2,1 2,2z"/>
   <path class="fil1" d="M68 10c0,1 -1,2 -2,2 -1,0 -2,-1 -2,-2 0,-1 1,-2 2,-2 1,0 2,1 2,2z"/>
   <path class="fil1" d="M73 10c0,1 0,2 -2,2 -1,0 -1,-1 -1,-2 0,-1 0,-2 1,-2 2,0 2,1 2,2z"/>
   <path class="fil1" d="M79 10c0,1 -1,2 -2,2 -1,0 -2,-1 -2,-2 0,-1 1,-2 2,-2 1,0 2,1 2,2z"/>
   <path class="fil1" d="M84 10c0,1 -1,2 -2,2 -1,0 -2,-1 -2,-2 0,-1 1,-2 2,-2 1,0 2,1 2,2z"/>
   <path class="fil1" d="M89 10c0,1 0,2 -1,2 -2,0 -2,-1 -2,-2 0,-1 0,-2 2,-2 1,0 1,1 1,2z"/>
   <path class="fil1" d="M95 10c0,1 -1,2 -2,2 -1,0 -2,-1 -2,-2 0,-1 1,-2 2,-2 1,0 2,1 2,2z"/>
   <path class="fil1" d="M100 10c0,1 -1,2 -2,2 -1,0 -2,-1 -2,-2 0,-1 1,-2 2,-2 1,0 2,1 2,2z"/>
   <path class="fil2" d="M106 10c0,1 -1,2 -2,2 -2,0 -2,-1 -2,-2 0,-1 0,-2 2,-2 1,0 2,1 2,2z"/>
   <path class="fil2" d="M111 10c0,1 -1,2 -2,2 -1,0 -2,-1 -2,-2 0,-1 1,-2 2,-2 1,0 2,1 2,2z"/>
   <path class="fil2" d="M116 10c0,1 -1,2 -2,2 -1,0 -2,-1 -2,-2 0,-1 1,-2 2,-2 1,0 2,1 2,2z"/>
   <path class="fil2" d="M122 10c0,1 -1,2 -2,2 -1,0 -2,-1 -2,-2 0,-1 1,-2 2,-2 1,0 2,1 2,2z"/>
   <path class="fil2" d="M127 10c0,1 -1,2 -2,2 -1,0 -2,-1 -2,-2 0,-1 1,-2 2,-2 1,0 2,1 2,2z"/>
   <path class="fil2" d="M132 10c0,1 -1,2 -2,2 -1,0 -2,-1 -2,-2 0,-1 1,-2 2,-2 1,0 2,1 2,2z"/>
   <path class="fil2" d="M138 10c0,1 -1,2 -2,2 -1,0 -2,-1 -2,-2 0,-1 1,-2 2,-2 1,0 2,1 2,2z"/>
   <path class="fil2" d="M143 10c0,1 -1,2 -2,2 -1,0 -2,-1 -2,-2 0,-1 1,-2 2,-2 1,0 2,1 2,2z"/>
   <path class="fil0" d="M4 18c0,1 -1,1 -2,1 -1,0 -2,0 -2,-1 0,-2 1,-2 2,-2 1,0 2,0 2,2z"/>
   <path class="fil0" d="M11 18c0,1 -1,1 -2,1 -1,0 -2,0 -2,-1 0,-2 1,-2 2,-2 1,0 2,0 2,2z"/>
   <path class="fil0" d="M18 18c0,1 -1,1 -2,1 -1,0 -2,0 -2,-1 0,-2 1,-2 2,-2 1,0 2,0 2,2z"/>
   <path class="fil0" d="M24 18c0,1 0,1 -1,1 -2,0 -2,0 -2,-1 0,-2 0,-2 2,-2 1,0 1,0 1,2z"/>
   <path class="fil0" d="M31 18c0,1 -1,1 -2,1 -1,0 -2,0 -2,-1 0,-2 1,-2 2,-2 1,0 2,0 2,2z"/>
   <path class="fil0" d="M38 18c0,1 -1,1 -2,1 -1,0 -2,0 -2,-1 0,-2 1,-2 2,-2 1,0 2,0 2,2z"/>
   <path class="fil0" d="M45 18c0,1 -1,1 -2,1 -1,0 -2,0 -2,-1 0,-2 1,-2 2,-2 1,0 2,0 2,2z"/>
   <path class="fil0" d="M52 18c0,1 -1,1 -2,1 -1,0 -2,0 -2,-1 0,-2 1,-2 2,-2 1,0 2,0 2,2z"/>
   <path class="fil0" d="M59 18c0,1 -1,1 -2,1 -1,0 -2,0 -2,-1 0,-2 1,-2 2,-2 1,0 2,0 2,2z"/>
   <path class="fil0" d="M66 18c0,1 -1,1 -2,1 -1,0 -2,0 -2,-1 0,-2 1,-2 2,-2 1,0 2,0 2,2z"/>
   <path class="fil1" d="M72 18c0,1 0,1 -2,1 -1,0 -1,0 -1,-1 0,-2 0,-2 1,-2 2,0 2,0 2,2z"/>
   <path class="fil1" d="M79 18c0,1 -1,1 -2,1 -1,0 -2,0 -2,-1 0,-2 1,-2 2,-2 1,0 2,0 2,2z"/>
   <path class="fil1" d="M86 18c0,1 -1,1 -2,1 -1,0 -2,0 -2,-1 0,-2 1,-2 2,-2 1,0 2,0 2,2z"/>
   <path class="fil1" d="M93 18c0,1 -1,1 -2,1 -1,0 -2,0 -2,-1 0,-2 1,-2 2,-2 1,0 2,0 2,2z"/>
   <path class="fil1" d="M100 18c0,1 -1,1 -2,1 -1,0 -2,0 -2,-1 0,-2 1,-2 2,-2 1,0 2,0 2,2z"/>
   <path class="fil1" d="M107 18c0,1 -1,1 -2,1 -1,0 -2,0 -2,-1 0,-2 1,-2 2,-2 1,0 2,0 2,2z"/>
   <path class="fil1" d="M114 18c0,1 -1,1 -2,1 -2,0 -2,0 -2,-1 0,-2 0,-2 2,-2 1,0 2,0 2,2z"/>
   <path class="fil1" d="M120 18c0,1 -1,1 -2,1 -1,0 -2,0 -2,-1 0,-2 1,-2 2,-2 1,0 2,0 2,2z"/>
   <path class="fil1" d="M127 18c0,1 -1,1 -2,1 -1,0 -2,0 -2,-1 0,-2 1,-2 2,-2 1,0 2,0 2,2z"/>
   <path class="fil1" d="M134 18c0,1 -1,1 -2,1 -1,0 -2,0 -2,-1 0,-2 1,-2 2,-2 1,0 2,0 2,2z"/>
   <path class="fil1" d="M141 18c0,1 -1,1 -2,1 -1,0 -2,0 -2,-1 0,-2 1,-2 2,-2 1,0 2,0 2,2z"/>
   <path class="fil2" d="M148 18c0,1 -1,1 -2,1 -1,0 -2,0 -2,-1 0,-2 1,-2 2,-2 1,0 2,0 2,2z"/>
   <path class="fil2" d="M155 18c0,1 -1,1 -2,1 -1,0 -2,0 -2,-1 0,-2 1,-2 2,-2 1,0 2,0 2,2z"/>
   <path class="fil2" d="M161 18c0,1 0,1 -1,1 -2,0 -2,0 -2,-1 0,-2 0,-2 2,-2 1,0 1,0 1,2z"/>
   <path class="fil2" d="M168 18c0,1 -1,1 -2,1 -1,0 -2,0 -2,-1 0,-2 1,-2 2,-2 1,0 2,0 2,2z"/>
   <path class="fil2" d="M175 18c0,1 -1,1 -2,1 -1,0 -2,0 -2,-1 0,-2 1,-2 2,-2 1,0 2,0 2,2z"/>
   <path class="fil2" d="M182 18c0,1 -1,1 -2,1 -1,0 -2,0 -2,-1 0,-2 1,-2 2,-2 1,0 2,0 2,2z"/>
  </g>
 </g>
</svg>
