<?xml version="1.0" encoding="UTF-8"?>
<!DOCTYPE svg PUBLIC "-//W3C//DTD SVG 1.1//EN" "http://www.w3.org/Graphics/SVG/1.1/DTD/svg11.dtd">
<!-- Creator: CorelDRAW X7 -->
<svg xmlns="http://www.w3.org/2000/svg" xml:space="preserve" width="2300px" height="379px" version="1.1" style="shape-rendering:geometricPrecision; text-rendering:geometricPrecision; image-rendering:optimizeQuality; fill-rule:evenodd; clip-rule:evenodd"
viewBox="0 0 151 25"
 xmlns:xlink="http://www.w3.org/1999/xlink">
 <defs>
  <style type="text/css">
   <![CDATA[
    .fil1 {fill:#333333}
    .fil0 {fill:#666666}
   ]]>
  </style>
 </defs>
 <g id="Vrstva_x0020_1">
  <metadata id="CorelCorpID_0Corel-Layer"/>
  <g id="_2646562060384">
   <path class="fil0" d="M2 24c0,0 0,1 1,1 0,0 0,-1 0,-1l0 -3c0,0 -1,1 -1,1l0 2z"/>
   <path class="fil0" d="M5 24c0,0 0,1 1,1 0,0 0,-1 0,-1l0 -6c0,1 -1,1 -1,1l0 5z"/>
   <path class="fil0" d="M8 24c0,0 0,1 0,1 1,0 1,-1 1,-1l0 -8c-1,1 -1,1 -1,1l0 7z"/>
   <path class="fil0" d="M11 24c0,0 0,1 0,1 0,0 1,-1 1,-1l0 -9c-1,0 -1,0 -1,0l0 9z"/>
   <path class="fil0" d="M13 24c0,0 1,1 1,1 0,0 0,-1 0,-1l0 -11c0,0 0,0 -1,1l0 10z"/>
   <path class="fil0" d="M16 24c0,0 0,1 1,1 0,0 0,-1 0,-1l0 -12c0,0 -1,0 -1,0l0 12z"/>
   <path class="fil0" d="M19 24c0,0 0,1 0,1 1,0 1,-1 1,-1l0 -13c0,0 -1,0 -1,0l0 13z"/>
   <path class="fil0" d="M22 24c0,0 0,1 0,1 1,0 1,-1 1,-1l0 -15c-1,1 -1,1 -1,1l0 14z"/>
   <path class="fil0" d="M24 24c0,0 1,1 1,1 0,0 1,-1 1,-1l0 -16c-1,1 -1,1 -2,1l0 15z"/>
   <path class="fil0" d="M27 24c0,0 1,1 1,1 0,0 0,-1 0,-1l0 -16c0,0 0,0 -1,0l0 16z"/>
   <path class="fil0" d="M30 24c0,0 0,1 1,1 0,0 0,-1 0,-1l0 -17c0,0 -1,0 -1,0l0 17z"/>
   <path class="fil0" d="M33 24c0,0 0,1 0,1 1,0 1,-1 1,-1l0 -18c0,0 -1,0 -1,0l0 18z"/>
   <path class="fil0" d="M36 24c0,0 0,1 0,1 1,0 1,-1 1,-1l0 -19c-1,0 -1,1 -1,1l0 18z"/>
   <path class="fil0" d="M38 24c0,0 1,1 1,1 0,0 1,-1 1,-1l0 -19c-1,0 -1,0 -2,0l0 19z"/>
   <path class="fil0" d="M41 24c0,0 0,1 1,1 0,0 0,-1 0,-1l0 -20c0,0 0,0 -1,0l0 20z"/>
   <path class="fil0" d="M44 24c0,0 0,1 1,1 0,0 0,-1 0,-1l0 -20c0,0 -1,0 -1,0l0 20z"/>
   <path class="fil0" d="M47 24c0,0 0,1 0,1 1,0 1,-1 1,-1l0 -21c0,0 -1,0 -1,0l0 21z"/>
   <path class="fil0" d="M50 24c0,0 0,1 0,1 1,0 1,-1 1,-1l0 -21c-1,0 -1,0 -1,0l0 21z"/>
   <path class="fil0" d="M52 24c0,0 1,1 1,1 0,0 1,-1 1,-1l0 -22c-1,1 -1,1 -2,1l0 21z"/>
   <path class="fil0" d="M55 24c0,0 0,1 1,1 0,0 0,-1 0,-1l0 -22c0,0 0,0 -1,0l0 22z"/>
   <path class="fil0" d="M58 24c0,0 0,1 1,1 0,0 0,-1 0,-1l0 -22c0,0 -1,0 -1,0l0 22z"/>
   <path class="fil0" d="M61 24c0,0 0,1 0,1 1,0 1,-1 1,-1l0 -22c0,0 -1,0 -1,0l0 22z"/>
   <path class="fil0" d="M64 24c0,0 0,1 0,1 0,0 1,-1 1,-1l0 -22c-1,0 -1,0 -1,0l0 22z"/>
   <path class="fil0" d="M66 24c0,0 1,1 1,1 0,0 1,-1 1,-1l0 -23c-1,0 -1,0 -2,0l0 23z"/>
   <path class="fil0" d="M69 24c0,0 0,1 1,1 0,0 0,-1 0,-1l0 -23c0,0 0,0 -1,0l0 23z"/>
   <path class="fil0" d="M72 24c0,0 0,1 1,1 0,0 0,-1 0,-1l0 -23c0,0 -1,0 -1,0l0 23z"/>
   <path class="fil0" d="M75 1l0 23c0,0 0,1 0,1 1,0 1,-1 1,-1l0 -23c0,0 0,0 -1,0 0,0 0,0 0,0z"/>
   <path class="fil0" d="M78 24c0,0 0,1 0,1 1,0 1,-1 1,-1l0 -23c-1,0 -1,0 -1,0l0 23z"/>
   <path class="fil0" d="M80 24c0,0 1,1 1,1 0,0 1,-1 1,-1l0 -23c-1,0 -1,0 -2,0l0 23z"/>
   <path class="fil0" d="M83 24c0,0 1,1 1,1 0,0 0,-1 0,-1l0 -23c0,0 0,0 -1,0l0 23z"/>
   <path class="fil0" d="M86 24c0,0 0,1 1,1 0,0 0,-1 0,-1l0 -22c0,0 0,0 -1,0l0 22z"/>
   <path class="fil0" d="M89 24c0,0 0,1 1,1 0,0 0,-1 0,-1l0 -22c0,0 -1,0 -1,0l0 22z"/>
   <path class="fil0" d="M92 24c0,0 0,1 0,1 1,0 1,-1 1,-1l0 -22c0,0 -1,0 -1,0l0 22z"/>
   <path class="fil0" d="M95 24c0,0 0,1 0,1 1,0 1,-1 1,-1l0 -22c0,0 -1,0 -1,0l0 22z"/>
   <path class="fil0" d="M98 24c0,0 0,1 0,1 1,0 1,-1 1,-1l0 -21c-1,0 -1,0 -1,0l0 21z"/>
   <path class="fil0" d="M101 24c0,0 0,1 0,1 0,0 1,-1 1,-1l0 -21c-1,0 -1,0 -1,0l0 21z"/>
   <path class="fil0" d="M103 24c0,0 1,1 1,1 0,0 1,-1 1,-1l0 -20c-1,-1 -1,-1 -2,-1l0 21z"/>
   <path class="fil0" d="M106 24c0,0 0,1 1,1 0,0 0,-1 0,-1l0 -20c0,0 0,0 -1,0l0 20z"/>
   <path class="fil0" d="M109 24c0,0 0,1 1,1 0,0 0,-1 0,-1l0 -19c0,-1 -1,-1 -1,-1l0 20z"/>
   <path class="fil0" d="M112 24c0,0 0,1 1,1 0,0 0,-1 0,-1l0 -19c0,0 -1,0 -1,0l0 19z"/>
   <path class="fil0" d="M115 24c0,0 0,1 0,1 1,0 1,-1 1,-1l0 -18c0,0 -1,0 -1,0l0 18z"/>
   <path class="fil0" d="M118 24c0,0 0,1 0,1 1,0 1,-1 1,-1l0 -17c-1,-1 -1,-1 -1,-1l0 18z"/>
   <path class="fil0" d="M121 24c0,0 0,1 0,1 0,0 1,-1 1,-1l0 -17c-1,0 -1,0 -1,0l0 17z"/>
   <path class="fil0" d="M123 24c0,0 1,1 1,1 0,0 1,-1 1,-1l0 -16c-1,0 -1,0 -2,0l0 16z"/>
   <path class="fil0" d="M126 24c0,0 1,1 1,1 0,0 0,-1 0,-1l0 -15c0,0 0,0 -1,0l0 15z"/>
   <path class="fil0" d="M129 24c0,0 0,1 1,1 0,0 0,-1 0,-1l0 -14c0,0 0,0 -1,0l0 14z"/>
   <path class="fil0" d="M132 24c0,0 0,1 1,1 0,0 0,-1 0,-1l0 -12c0,-1 -1,-1 -1,-1l0 13z"/>
   <path class="fil0" d="M135 24c0,0 0,1 0,1 1,0 1,-1 1,-1l0 -11c0,0 -1,0 -1,-1l0 12z"/>
   <path class="fil0" d="M138 24c0,0 0,1 0,1 1,0 1,-1 1,-1l0 -9c-1,-1 -1,-1 -1,-1l0 10z"/>
   <path class="fil0" d="M141 24c0,0 0,1 0,1 0,0 1,-1 1,-1l0 -8c-1,0 -1,0 -1,0l0 8z"/>
   <path class="fil0" d="M143 24c0,0 1,1 1,1 0,0 1,-1 1,-1l0 -6c-1,0 -1,0 -2,0l0 6z"/>
   <path class="fil0" d="M146 20l0 4c0,0 1,1 1,1 0,0 0,-1 0,-1l0 -3c0,0 0,-1 -1,-1z"/>
   <path class="fil1" d="M149 25c0,0 -1,0 -1,-1 -9,-12 -39,-21 -73,-21 -33,0 -63,9 -72,21 -1,1 -2,1 -2,0 -1,0 -1,-1 -1,-2 10,-13 40,-22 75,-22 35,0 65,9 75,23 1,0 1,1 0,2 0,0 0,0 -1,0z"/>
   <polygon class="fil0" points="148,25 124,18 110,22 99,7 94,13 83,9 75,20 67,6 59,16 54,11 50,20 37,22 28,15 20,20 14,18 3,25 "/>
  </g>
 </g>
</svg>
