<?xml version="1.0" encoding="UTF-8"?>
<!DOCTYPE svg PUBLIC "-//W3C//DTD SVG 1.1//EN" "http://www.w3.org/Graphics/SVG/1.1/DTD/svg11.dtd">
<!-- Creator: CorelDRAW X7 -->
<svg xmlns="http://www.w3.org/2000/svg" xml:space="preserve" width="2300px" height="1312px" version="1.1" style="shape-rendering:geometricPrecision; text-rendering:geometricPrecision; image-rendering:optimizeQuality; fill-rule:evenodd; clip-rule:evenodd"
viewBox="0 0 112 64"
 xmlns:xlink="http://www.w3.org/1999/xlink">
 <defs>
  <style type="text/css">
   <![CDATA[
    .fil1 {fill:#4D4D4D}
    .fil2 {fill:gray}
    .fil0 {fill:#CCCCCC}
   ]]>
  </style>
 </defs>
 <g id="Vrstva_x0020_1">
  <metadata id="CorelCorpID_0Corel-Layer"/>
  <g id="_2645941595184">
   <g>
    <path class="fil0" d="M102 19c0,5 -4,8 -9,8 -5,0 -9,-3 -9,-8 0,-5 4,-9 9,-9 5,0 9,4 9,9z"/>
    <path class="fil0" d="M84 7l-84 0 0 3c24,0 42,4 56,9l22 0c0,-5 3,-9 6,-12z"/>
    <path class="fil0" d="M106 0l0 2 -9 0 0 -2 -5 0 0 2 -9 0 0 -2 -5 0 0 2 -9 0 0 -2 -5 0 0 2 -9 0 0 -2 -5 0 0 2 -10 0 0 -2 -40 0 0 6 85 0c2,-1 5,-2 8,-2 9,0 15,6 15,15 0,8 -6,15 -15,15 -7,0 -13,-6 -14,-13l-17 0c35,15 38,43 38,43l5 0 -4 -27 6 0 0 27 5 0 0 -64 -6 0z"/>
    <path class="fil0" d="M59 36c0,2 -2,4 -4,4 -3,0 -5,-2 -5,-4 0,-3 2,-5 5,-5 2,0 4,2 4,5z"/>
   </g>
   <g>
    <path class="fil1" d="M17 24c0,2 -2,4 -5,4 -3,0 -5,-2 -5,-4 0,-3 2,-5 5,-5 3,0 5,2 5,5z"/>
    <path class="fil1" d="M90 55c0,3 -2,5 -5,5 -3,0 -5,-2 -5,-5 0,-2 2,-4 5,-4 3,0 5,2 5,4z"/>
   </g>
   <g>
    <path class="fil2" d="M105 19c0,6 -5,11 -12,11 -6,0 -11,-5 -11,-11 0,-7 5,-12 11,-12 7,0 12,5 12,12z"/>
    <polygon class="fil2" points="38,14 0,14 0,10 38,10 "/>
    <path class="fil2" d="M77 44c0,2 -2,5 -5,5 -3,0 -5,-3 -5,-5 0,-3 2,-5 5,-5 3,0 5,2 5,5z"/>
    <path class="fil2" d="M45 28c0,5 -4,9 -9,9 -5,0 -9,-4 -9,-9 0,-5 4,-9 9,-9 5,0 9,4 9,9z"/>
   </g>
  </g>
 </g>
</svg>
