<?xml version="1.0" encoding="UTF-8"?>
<!DOCTYPE svg PUBLIC "-//W3C//DTD SVG 1.1//EN" "http://www.w3.org/Graphics/SVG/1.1/DTD/svg11.dtd">
<!-- Creator: CorelDRAW X7 -->
<svg xmlns="http://www.w3.org/2000/svg" xml:space="preserve" width="1786px" height="2300px" version="1.1" style="shape-rendering:geometricPrecision; text-rendering:geometricPrecision; image-rendering:optimizeQuality; fill-rule:evenodd; clip-rule:evenodd"
viewBox="0 0 77 99"
 xmlns:xlink="http://www.w3.org/1999/xlink">
 <defs>
  <style type="text/css">
   <![CDATA[
    .fil1 {fill:#252626;fill-rule:nonzero}
    .fil0 {fill:#767676;fill-rule:nonzero}
   ]]>
  </style>
 </defs>
 <g id="Vrstva_x0020_1">
  <metadata id="CorelCorpID_0Corel-Layer"/>
  <g id="_2648895420048">
   <path class="fil0" d="M65 49c-3,0 -6,0 -9,0l0 1c3,0 6,0 9,-1z"/>
   <path class="fil0" d="M52 50l0 0c1,0 2,0 3,0l0 -1c-1,-1 -2,-1 -3,-1l0 0 0 2z"/>
   <path class="fil0" d="M47 51c1,0 2,0 3,0l0 -3c-1,0 -2,0 -3,0l0 3z"/>
   <path class="fil0" d="M20 49c-3,0 -6,0 -9,0 3,1 6,1 9,1l0 -1z"/>
   <path class="fil0" d="M22 50c1,0 2,0 3,0l0 0 0 -2 0 0c-1,0 -2,0 -3,1l0 1z"/>
   <path class="fil0" d="M27 51c1,0 2,0 2,0l0 -3c0,0 -1,0 -2,0l0 3z"/>
   <path class="fil1" d="M63 42c0,0 -6,-3 -10,-8 -8,-8 -10,-19 -10,-22l1 27c0,3 1,5 5,5l22 1c-2,0 -6,-2 -8,-3z"/>
   <path class="fil1" d="M63 57c2,-2 6,-3 8,-4l-22 2c-4,0 -5,2 -5,5l-1 27c0,-3 2,-14 10,-23 4,-4 10,-7 10,-7z"/>
   <path class="fil1" d="M28 55l-22 -2c2,1 5,2 8,4 0,0 5,3 10,7 7,9 9,20 10,23l-1 -27c0,-3 -1,-5 -5,-5z"/>
   <path class="fil1" d="M33 39l1 -27c-1,3 -3,14 -10,22 -5,5 -10,8 -10,8 -3,1 -6,3 -8,3l22 -1c4,0 5,-2 5,-5z"/>
   <path class="fil0" d="M70 28c-4,-6 -11,-11 -18,-13 7,3 13,8 17,14 4,6 6,13 6,20 0,8 -2,15 -6,21 -4,6 -10,11 -17,14 7,-2 14,-7 18,-13 4,-6 7,-13 7,-22 0,-8 -3,-15 -7,-21z"/>
   <path class="fil0" d="M8 70c-4,-6 -6,-13 -6,-21 0,-7 2,-14 6,-20 4,-6 10,-11 16,-14 -6,2 -13,7 -17,13 -4,6 -7,13 -7,21 0,8 2,16 7,22 4,6 11,11 17,13 -6,-3 -12,-8 -16,-14z"/>
   <path class="fil0" d="M38 51c0,0 -1,-1 -1,-2 0,0 1,-1 1,-1 1,0 2,1 2,1 0,1 -1,2 -2,2zm8 -3c-1,0 -2,0 -3,0 -2,0 -3,-1 -3,-3l0 -8c0,-4 0,-8 -1,-12 0,-9 0,-17 -1,-25 0,8 0,16 -1,25 0,4 0,8 0,12l0 8c0,2 -1,3 -3,3 -1,0 -2,0 -3,0l0 3c1,0 2,0 3,0 2,0 3,1 3,3l0 8c0,4 0,8 0,12 1,8 1,17 1,25 1,-8 1,-17 1,-25 1,-4 1,-8 1,-12 0,0 0,-5 0,-8 0,-2 1,-3 3,-3 1,0 2,0 3,0l0 -3z"/>
  </g>
 </g>
</svg>
