<?xml version="1.0" encoding="UTF-8"?>
<!DOCTYPE svg PUBLIC "-//W3C//DTD SVG 1.1//EN" "http://www.w3.org/Graphics/SVG/1.1/DTD/svg11.dtd">
<!-- Creator: CorelDRAW X7 -->
<svg xmlns="http://www.w3.org/2000/svg" xml:space="preserve" width="1606px" height="2300px" version="1.1" style="shape-rendering:geometricPrecision; text-rendering:geometricPrecision; image-rendering:optimizeQuality; fill-rule:evenodd; clip-rule:evenodd"
viewBox="0 0 48 68"
 xmlns:xlink="http://www.w3.org/1999/xlink">
 <defs>
  <style type="text/css">
   <![CDATA[
    .fil1 {fill:#4D4D4D}
    .fil0 {fill:#CCCCCC}
   ]]>
  </style>
 </defs>
 <g id="Vrstva_x0020_1">
  <metadata id="CorelCorpID_0Corel-Layer"/>
  <g id="_2609965154032">
   <path class="fil0" d="M13 49c0,2 -2,4 -4,4 -2,0 -4,-2 -4,-4 0,-2 2,-4 4,-4 2,0 4,2 4,4z"/>
   <path class="fil0" d="M9 36c0,1 -1,3 -2,3 -2,0 -3,-2 -3,-3 0,-2 1,-3 3,-3 1,0 2,1 2,3z"/>
   <path class="fil0" d="M22 60c0,3 -2,4 -4,4 -2,0 -4,-1 -4,-4 0,-2 2,-4 4,-4 2,0 4,2 4,4z"/>
   <path class="fil0" d="M37 61c0,2 -2,4 -4,4 -2,0 -4,-2 -4,-4 0,-2 2,-4 4,-4 2,0 4,2 4,4z"/>
   <polygon class="fil0" points="22,9 4,9 4,8 22,8 "/>
   <path class="fil1" d="M33 66c-3,0 -5,-2 -5,-5 0,-3 2,-5 5,-5 3,0 5,2 5,5 0,3 -2,5 -5,5zm-15 -1c-3,0 -5,-2 -5,-5 0,-3 2,-5 5,-5 3,0 5,2 5,5 0,3 -2,5 -5,5zm-9 -11c-3,0 -5,-2 -5,-5 0,-3 2,-5 5,-5 3,0 5,2 5,5 0,3 -2,5 -5,5zm-2 -21c2,0 3,1 3,3 0,2 -1,3 -3,3 -2,0 -3,-1 -3,-3 0,-2 1,-3 3,-3zm7 -3l-10 0 0 -2 9 0c0,-1 -1,-2 -1,-3l-8 0 0 -1 7 0c0,-2 -1,-3 -1,-4l-6 0 0 -1 6 0c0,-1 -1,-2 -1,-4l-5 0 0 -1 5 0c0,-1 0,-2 0,-3l-5 0 0 -2 4 0c0,0 0,-1 0,-2 0,-2 1,-5 1,-7l-9 0 0 68 48 0 0 -11c-15,-4 -27,-14 -34,-27z"/>
   <polygon class="fil0" points="22,14 4,14 4,12 22,12 "/>
   <polygon class="fil0" points="22,19 4,19 4,17 22,17 "/>
   <polygon class="fil0" points="22,24 4,24 4,22 22,22 "/>
   <polygon class="fil0" points="22,28 4,28 4,27 22,27 "/>
  </g>
 </g>
</svg>
