<?xml version="1.0" encoding="UTF-8"?>
<!DOCTYPE svg PUBLIC "-//W3C//DTD SVG 1.1//EN" "http://www.w3.org/Graphics/SVG/1.1/DTD/svg11.dtd">
<!-- Creator: CorelDRAW X7 -->
<svg xmlns="http://www.w3.org/2000/svg" xml:space="preserve" width="2300px" height="2300px" version="1.1" style="shape-rendering:geometricPrecision; text-rendering:geometricPrecision; image-rendering:optimizeQuality; fill-rule:evenodd; clip-rule:evenodd"
viewBox="0 0 2233 2233"
 xmlns:xlink="http://www.w3.org/1999/xlink">
 <defs>
  <style type="text/css">
   <![CDATA[
    .str0 {stroke:black;stroke-width:6.73483;stroke-linejoin:round}
    .fil0 {fill:none}
    .fil1 {fill:black}
   ]]>
  </style>
 </defs>
 <g id="Vrstva_x0020_1">
  <metadata id="CorelCorpID_0Corel-Layer"/>
  <g id="_2609965194320">
   <g>
    <polygon class="fil0 str0" points="1432,802 1654,894 1746,671 1654,579 "/>
    <polygon class="fil0 str0" points="1432,1432 1432,1432 "/>
    <polygon class="fil0 str0" points="1432,802 1654,579 1562,487 1339,579 "/>
    <polygon class="fil0 str0" points="1117,671 1117,356 986,356 894,579 "/>
    <polygon class="fil0 str0" points="1339,579 1247,356 1117,356 1117,671 "/>
    <polygon class="fil0 str0" points="1654,1339 1877,1247 1877,1117 1562,1117 "/>
    <polygon class="fil0 str0" points="1562,1117 1432,1432 1432,1432 1654,1339 "/>
    <polygon class="fil0 str0" points="1877,986 1877,802 1746,671 1654,894 "/>
    <polygon class="fil0 str0" points="986,356 802,356 671,487 894,579 "/>
    <polygon class="fil0 str0" points="1562,1117 1562,1117 1877,1117 1877,986 1654,894 "/>
    <polygon class="fil0 str0" points="1562,487 1432,356 1247,356 1339,579 "/>
    <polygon class="fil0 str0" points="356,1247 356,1432 487,1562 579,1339 "/>
    <polygon class="fil0 str0" points="579,1339 487,1562 579,1654 802,1432 "/>
    <polygon class="fil0 str0" points="802,1432 802,1432 579,1654 671,1746 894,1654 "/>
    <polygon class="fil0 str0" points="894,1654 986,1877 1117,1877 1117,1562 "/>
    <polygon class="fil0 str0" points="671,1746 802,1877 986,1877 894,1654 "/>
    <polygon class="fil0 str0" points="802,802 802,802 579,579 487,671 579,894 "/>
    <polygon class="fil0 str0" points="894,579 671,487 579,579 802,802 "/>
    <polygon class="fil0 str0" points="487,671 356,802 356,986 579,894 "/>
    <polygon class="fil0 str0" points="671,1117 579,894 356,986 356,1117 "/>
    <polygon class="fil0 str0" points="671,1117 356,1117 356,1247 579,1339 "/>
    <polygon class="fil0 str0" points="579,894 671,1117 802,802 "/>
    <polygon class="fil0 str0" points="1117,1117 1117,1117 "/>
    <polygon class="fil0 str0" points="802,1432 1117,1117 671,1117 "/>
    <polygon class="fil0 str0" points="1117,1117 1117,1117 "/>
    <polygon class="fil0 str0" points="1432,1432 1562,1117 1117,1117 "/>
    <polygon class="fil0 str0" points="1117,1117 1117,1117 1562,1117 1562,1117 1432,802 1432,802 "/>
    <polygon class="fil0 str0" points="1339,1654 1432,1432 1117,1562 "/>
    <polygon class="fil0 str0" points="894,1654 1117,1562 802,1432 "/>
    <polygon class="fil0 str0" points="1432,802 1432,802 "/>
    <polygon class="fil0 str0" points="1654,894 1432,802 1562,1117 "/>
    <polygon class="fil0 str0" points="1117,1562 1117,1877 1247,1877 1339,1654 "/>
    <polygon class="fil0 str0" points="1562,1117 1562,1117 "/>
    <polygon class="fil0 str0" points="802,1432 802,1432 "/>
    <polygon class="fil0 str0" points="671,1117 671,1117 579,1339 802,1432 802,1432 "/>
    <polygon class="fil0 str0" points="671,1117 671,1117 "/>
    <polygon class="fil0 str0" points="1117,1117 1117,1117 1117,1562 1432,1432 1432,1432 "/>
    <polygon class="fil0 str0" points="1117,1117 1117,1117 802,802 802,802 671,1117 671,1117 "/>
    <polygon class="fil0 str0" points="1117,1117 802,1432 802,1432 1117,1562 "/>
    <polygon class="fil0 str0" points="1117,1117 1117,671 802,802 "/>
    <polygon class="fil0 str0" points="1432,802 1339,579 1117,671 "/>
    <polygon class="fil0 str0" points="1432,802 1117,671 1117,1117 "/>
    <polygon class="fil0 str0" points="1117,671 894,579 802,802 802,802 "/>
    <polygon class="fil0 str0" points="802,802 802,802 "/>
    <polygon class="fil0 str0" points="671,487 356,356 579,579 "/>
    <polygon class="fil0 str0" points="579,1654 356,1877 671,1746 "/>
    <polygon class="fil0 str0" points="802,1877 1117,2192 986,1877 "/>
    <polygon class="fil0 str0" points="356,1877 1117,2192 802,1877 "/>
    <polygon class="fil0 str0" points="671,1746 356,1877 802,1877 "/>
    <polygon class="fil0 str0" points="356,1432 356,1877 487,1562 "/>
    <polygon class="fil0 str0" points="487,1562 356,1877 579,1654 "/>
    <polygon class="fil0 str0" points="41,1117 356,1877 356,1432 "/>
    <polygon class="fil0 str0" points="356,986 41,1117 356,1117 "/>
    <polygon class="fil0 str0" points="356,802 41,1117 356,986 "/>
    <polygon class="fil0 str0" points="356,1117 41,1117 356,1247 "/>
    <polygon class="fil0 str0" points="356,356 41,1117 356,802 "/>
    <polygon class="fil0 str0" points="356,1247 41,1117 356,1432 "/>
    <polygon class="fil0 str0" points="1562,1746 1877,1877 1654,1654 "/>
    <polygon class="fil0 str0" points="1746,1562 1877,1877 1877,1432 "/>
    <polygon class="fil0 str0" points="1654,1654 1877,1877 1746,1562 "/>
    <polygon class="fil0 str0" points="1877,1432 1877,1877 2192,1117 "/>
    <polygon class="fil0 str0" points="1432,1877 1877,1877 1562,1746 "/>
    <polygon class="fil0 str0" points="1247,1877 1117,2192 1432,1877 "/>
    <polygon class="fil0 str0" points="986,1877 1117,2192 1117,1877 "/>
    <polygon class="fil0 str0" points="1117,1877 1117,2192 1247,1877 "/>
    <polygon class="fil0 str0" points="1117,2192 1877,1877 1432,1877 "/>
    <polygon class="fil0 str0" points="802,356 356,356 671,487 "/>
    <polygon class="fil0 str0" points="1746,671 1877,356 1654,579 "/>
    <polygon class="fil0 str0" points="1877,1247 2192,1117 1877,1117 "/>
    <polygon class="fil0 str0" points="1877,986 2192,1117 1877,802 "/>
    <polygon class="fil0 str0" points="487,671 356,356 356,802 "/>
    <polygon class="fil0 str0" points="2192,1117 1877,356 1877,802 "/>
    <polygon class="fil0 str0" points="1877,1117 2192,1117 1877,986 "/>
    <polygon class="fil0 str0" points="1877,1432 2192,1117 1877,1247 "/>
    <polygon class="fil0 str0" points="1432,1432 1654,1654 1746,1562 1654,1339 "/>
    <polygon class="fil0 str0" points="1432,1432 1339,1654 1562,1746 1654,1654 "/>
    <polygon class="fil0 str0" points="1654,1339 1746,1562 1877,1432 1877,1247 "/>
    <polygon class="fil0 str0" points="1877,802 1877,356 1746,671 "/>
    <polygon class="fil0 str0" points="986,356 1117,41 802,356 "/>
    <polygon class="fil0 str0" points="1117,41 356,356 802,356 "/>
    <polygon class="fil0 str0" points="579,579 356,356 487,671 "/>
    <polygon class="fil0 str0" points="1117,356 1117,41 986,356 "/>
    <polygon class="fil0 str0" points="1247,1877 1432,1877 1562,1746 1339,1654 "/>
    <polygon class="fil0 str0" points="1432,356 1117,41 1247,356 "/>
    <polygon class="fil0 str0" points="1877,356 1117,41 1432,356 "/>
    <polygon class="fil0 str0" points="1247,356 1117,41 1117,356 "/>
    <polygon class="fil0 str0" points="1562,487 1877,356 1432,356 "/>
    <polygon class="fil0 str0" points="1654,579 1877,356 1562,487 "/>
   </g>
   <g>
    <circle class="fil1" cx="579" cy="894" r="41"/>
    <circle class="fil1" cx="894" cy="1654" r="41"/>
    <path class="fil1" d="M1440 761c-3,0 -6,-1 -8,-1 -23,0 -42,19 -42,42l0 0 0 0c0,22 19,41 42,41 0,0 0,0 0,0 0,0 0,0 0,0 22,0 41,-19 41,-41 0,-20 -14,-37 -33,-41z"/>
    <circle class="fil1" cx="1654" cy="894" r="41"/>
    <path class="fil1" d="M1562 1075c-23,0 -41,19 -41,42l0 0 0 0c0,22 18,41 41,41 23,0 41,-19 41,-41l0 0 0 0c0,-23 -18,-42 -41,-42z"/>
    <circle class="fil1" cx="579" cy="1339" r="41"/>
    <path class="fil1" d="M671 1075c-23,0 -41,19 -41,42l0 0 0 0c0,22 18,41 41,41 23,0 41,-19 41,-41l0 0 0 0c0,-23 -18,-42 -41,-42z"/>
    <circle class="fil1" cx="1117" cy="1562" r="41"/>
    <path class="fil1" d="M802 1390c0,0 0,0 0,0 0,0 0,0 0,0 -23,0 -42,19 -42,42 0,22 19,41 42,41 0,0 0,0 0,0 0,0 0,0 0,0 22,0 41,-19 41,-41 0,-23 -19,-42 -41,-42z"/>
    <circle class="fil1" cx="1339" cy="579" r="41"/>
    <path class="fil1" d="M1117 1075c-23,0 -42,19 -42,42l0 0 0 0c0,22 19,41 42,41 22,0 41,-19 41,-41l0 0 0 0c0,-23 -19,-42 -41,-42z"/>
    <circle class="fil1" cx="894" cy="579" r="41"/>
    <circle class="fil1" cx="1117" cy="671" r="41"/>
    <path class="fil1" d="M802 760c-3,0 -6,1 -9,1 -18,4 -33,21 -33,41 0,22 19,41 42,41 0,0 0,0 0,0 0,0 0,0 0,0 22,0 41,-19 41,-41l0 0 0 0c0,-23 -19,-42 -41,-42z"/>
    <circle class="fil1" cx="802" cy="1877" r="41"/>
    <circle class="fil1" cx="671" cy="1746" r="41"/>
    <circle class="fil1" cx="579" cy="1654" r="41"/>
    <circle class="fil1" cx="487" cy="1562" r="41"/>
    <circle class="fil1" cx="356" cy="1877" r="41"/>
    <circle class="fil1" cx="356" cy="986" r="41"/>
    <circle class="fil1" cx="356" cy="1117" r="41"/>
    <circle class="fil1" cx="356" cy="1432" r="41"/>
    <circle class="fil1" cx="41" cy="1117" r="41"/>
    <circle class="fil1" cx="356" cy="1247" r="41"/>
    <circle class="fil1" cx="986" cy="1877" r="41"/>
    <circle class="fil1" cx="1117" cy="1877" r="41"/>
    <circle class="fil1" cx="1877" cy="1877" r="41"/>
    <circle class="fil1" cx="1117" cy="2192" r="41"/>
    <circle class="fil1" cx="671" cy="487" r="41"/>
    <circle class="fil1" cx="356" cy="802" r="41"/>
    <circle class="fil1" cx="1877" cy="986" r="41"/>
    <circle class="fil1" cx="1877" cy="1117" r="41"/>
    <circle class="fil1" cx="2192" cy="1117" r="41"/>
    <path class="fil1" d="M1432 1390c0,0 0,0 0,0 0,0 0,0 0,0 -23,0 -42,19 -42,42 0,22 19,41 42,41 0,0 0,0 0,0 0,0 0,0 0,0 22,0 41,-19 41,-41 0,-23 -19,-42 -41,-42z"/>
    <circle class="fil1" cx="1654" cy="1654" r="41"/>
    <circle class="fil1" cx="1877" cy="1247" r="41"/>
    <circle class="fil1" cx="1877" cy="1432" r="41"/>
    <circle class="fil1" cx="1746" cy="1562" r="41"/>
    <circle class="fil1" cx="1654" cy="1339" r="41"/>
    <circle class="fil1" cx="1746" cy="671" r="41"/>
    <circle class="fil1" cx="1877" cy="802" r="41"/>
    <circle class="fil1" cx="802" cy="356" r="41"/>
    <circle class="fil1" cx="487" cy="671" r="41"/>
    <circle class="fil1" cx="356" cy="356" r="41"/>
    <circle class="fil1" cx="579" cy="579" r="41"/>
    <circle class="fil1" cx="986" cy="356" r="41"/>
    <circle class="fil1" cx="1339" cy="1654" r="41"/>
    <circle class="fil1" cx="1562" cy="1746" r="41"/>
    <circle class="fil1" cx="1432" cy="1877" r="41"/>
    <circle class="fil1" cx="1247" cy="1877" r="41"/>
    <circle class="fil1" cx="1117" cy="356" r="41"/>
    <circle class="fil1" cx="1117" cy="41" r="41"/>
    <circle class="fil1" cx="1247" cy="356" r="41"/>
    <circle class="fil1" cx="1432" cy="356" r="41"/>
    <circle class="fil1" cx="1562" cy="487" r="41"/>
    <circle class="fil1" cx="1877" cy="356" r="41"/>
    <circle class="fil1" cx="1654" cy="579" r="41"/>
   </g>
  </g>
 </g>
</svg>
