<?xml version="1.0" encoding="UTF-8"?>
<!DOCTYPE svg PUBLIC "-//W3C//DTD SVG 1.1//EN" "http://www.w3.org/Graphics/SVG/1.1/DTD/svg11.dtd">
<!-- Creator: CorelDRAW X7 -->
<svg xmlns="http://www.w3.org/2000/svg" xml:space="preserve" width="2258px" height="2300px" version="1.1" style="shape-rendering:geometricPrecision; text-rendering:geometricPrecision; image-rendering:optimizeQuality; fill-rule:evenodd; clip-rule:evenodd"
viewBox="0 0 175 178"
 xmlns:xlink="http://www.w3.org/1999/xlink">
 <defs>
  <style type="text/css">
   <![CDATA[
    .fil1 {fill:black}
    .fil0 {fill:#333333}
   ]]>
  </style>
 </defs>
 <g id="Vrstva_x0020_1">
  <metadata id="CorelCorpID_0Corel-Layer"/>
  <g id="_2610056362000">
   <rect class="fil0" x="53" y="69" width="90.3468" height="44.8672"/>
   <path class="fil1" d="M132 118l-5 0 0 -9 5 0 0 9zm-10 0l-6 0 0 -9 6 0 0 9zm-11 0l-6 0 0 -9 6 0 0 9zm-11 0l-6 0 0 -9 6 0 0 9zm-11 0l-6 0 0 -9 6 0 0 9zm-11 0l-6 0 0 -9 6 0 0 9zm-11 0l-6 0 0 -9 6 0 0 9zm-9 -12l-10 0 0 -6 10 0 0 6 0 0zm90 -6l-9 0 0 -6 9 0 0 6 0 0zm-90 -5l-10 0 0 -6 10 0 0 6zm90 -6l-9 0 0 -5 9 0 0 5zm-90 -5l-10 0 0 -6 10 0 0 6zm73 -11l-6 0 0 -9 6 0 0 9zm-11 0l-6 0 0 -9 6 0 0 9zm-11 0l-5 0 0 -9 5 0 0 9zm-11 0l-5 0 0 -9 5 0 0 9zm-11 0l-5 0 0 -9 5 0 0 9zm-11 0l-5 0 0 -9 5 0 0 9zm-11 0l-5 0 0 -9 5 0 0 9z"/>
   <rect class="fil1" x="129" y="37" width="1.41378" height="27.3351"/>
   <rect class="fil1" x="129" y="37" width="28.7489" height="1.88524"/>
   <path class="fil1" d="M158 41c3,0 3,-5 0,-5 -3,0 -3,5 0,5z"/>
   <rect class="fil1" x="117" y="19" width="1.88524" height="45.7154"/>
   <rect class="fil1" x="117" y="19" width="22.1508" height="1.41378"/>
   <rect class="fil1" x="137" y="5" width="1.41378" height="15.0813"/>
   <path class="fil1" d="M138 8c3,0 3,-6 0,-6 -3,0 -3,6 0,6z"/>
   <rect class="fil1" x="105" y="3" width="1.88524" height="61.268"/>
   <rect class="fil1" x="95" y="30" width="1.41378" height="33.9331"/>
   <rect class="fil1" x="83" y="44" width="1.41378" height="20.2656"/>
   <rect class="fil1" x="70" y="44" width="13.6675" height="1.41378"/>
   <rect class="fil1" x="68" y="20" width="1.88524" height="25.4498"/>
   <rect class="fil1" x="73" y="53" width="1.88524" height="11.7823"/>
   <rect class="fil1" x="56" y="53" width="16.9666" height="1.41378"/>
   <rect class="fil1" x="63" y="59" width="1.88524" height="5.18426"/>
   <rect class="fil1" x="32" y="59" width="30.1628" height="1.88524"/>
   <path class="fil1" d="M32 64c3,0 3,-6 0,-6 -3,0 -3,6 0,6z"/>
   <path class="fil1" d="M55 56c3,0 3,-5 0,-5 -3,0 -3,5 0,5z"/>
   <path class="fil1" d="M68 23c3,0 3,-5 0,-5 -3,0 -3,5 0,5z"/>
   <path class="fil1" d="M95 33c3,0 3,-5 0,-5 -3,0 -3,5 0,5z"/>
   <path class="fil1" d="M105 5c4,0 4,-5 0,-5 -3,0 -3,5 0,5z"/>
   <rect class="fil1" x="147" y="85" width="25.4498" height="1.88524"/>
   <rect class="fil1" x="147" y="96" width="20.2656" height="1.88524"/>
   <rect class="fil1" x="166" y="98" width="1.41378" height="23.5646"/>
   <path class="fil1" d="M173 88c3,0 3,-5 0,-5 -4,0 -4,5 0,5z"/>
   <path class="fil1" d="M167 125c3,0 3,-5 0,-5 -3,0 -3,5 0,5z"/>
   <rect class="fil1" x="129" y="119" width="1.41378" height="28.7489"/>
   <rect class="fil1" x="129" y="147" width="28.7489" height="1.41378"/>
   <rect class="fil1" x="119" y="119" width="1.88524" height="40.5312"/>
   <rect class="fil1" x="119" y="159" width="27.3351" height="1.88524"/>
   <rect class="fil1" x="107" y="119" width="1.41378" height="40.5312"/>
   <polygon class="fil1" points="97,176 76,176 76,174 96,174 96,174 96,117 98,117 98,175 "/>
   <rect class="fil1" x="85" y="117" width="1.88524" height="45.7154"/>
   <polygon class="fil1" points="73,171 56,171 56,169 72,169 73,169 73,115 75,115 75,169 "/>
   <polygon class="fil1" points="63,142 42,142 42,141 62,141 63,140 63,115 64,115 64,141 "/>
   <path class="fil1" d="M157 151c4,0 4,-5 0,-5 -3,0 -3,5 0,5z"/>
   <path class="fil1" d="M145 163c4,0 4,-5 0,-5 -3,0 -3,5 0,5z"/>
   <path class="fil1" d="M107 162c3,0 3,-5 0,-5 -3,0 -3,5 0,5z"/>
   <path class="fil1" d="M85 166c3,0 3,-5 0,-5 -3,0 -3,5 0,5z"/>
   <path class="fil1" d="M76 178c3,0 3,-5 0,-5 -3,0 -3,5 0,5z"/>
   <path class="fil1" d="M55 173c4,0 4,-5 0,-5 -3,0 -3,5 0,5z"/>
   <path class="fil1" d="M41 144c4,0 4,-5 0,-5 -3,0 -3,5 0,5z"/>
   <rect class="fil1" x="17" y="79" width="33.9331" height="1.88524"/>
   <rect class="fil1" x="4" y="91" width="49.0144" height="1.88524"/>
   <rect class="fil1" x="2" y="62" width="1.88524" height="30.6341"/>
   <polygon class="fil1" points="21,125 19,125 19,103 20,102 53,102 53,103 20,103 21,103 "/>
   <path class="fil1" d="M2 66c4,0 4,-6 0,-6 -3,0 -3,6 0,6z"/>
   <path class="fil1" d="M17 83c3,0 3,-5 0,-5 -3,0 -3,5 0,5z"/>
   <path class="fil1" d="M19 128c3,0 3,-5 0,-5 -3,0 -3,5 0,5z"/>
  </g>
 </g>
</svg>
