<?xml version="1.0" encoding="UTF-8"?>
<!DOCTYPE svg PUBLIC "-//W3C//DTD SVG 1.1//EN" "http://www.w3.org/Graphics/SVG/1.1/DTD/svg11.dtd">
<!-- Creator: CorelDRAW X7 -->
<svg xmlns="http://www.w3.org/2000/svg" xml:space="preserve" width="2300px" height="1409px" version="1.1" style="shape-rendering:geometricPrecision; text-rendering:geometricPrecision; image-rendering:optimizeQuality; fill-rule:evenodd; clip-rule:evenodd"
viewBox="0 0 151 92"
 xmlns:xlink="http://www.w3.org/1999/xlink">
 <defs>
  <style type="text/css">
   <![CDATA[
    .fil0 {fill:black}
    .fil1 {fill:white}
   ]]>
  </style>
 </defs>
 <g id="Vrstva_x0020_1">
  <metadata id="CorelCorpID_0Corel-Layer"/>
  <g id="_2648752634512">
   <path class="fil0" d="M148 89c0,-1 1,-2 2,-1 0,0 0,0 0,0 0,1 0,2 -1,2 0,0 -1,-1 -1,-1zm-5 0c0,-1 0,-1 0,-1 0,0 0,0 1,0 0,-1 1,0 1,0 0,2 -2,2 -2,1zm-68 -6l0 0 1 0c0,0 0,0 0,1 -1,0 -1,0 -1,0l0 -1zm56 -21c0,-1 1,-1 1,0l0 1 0 0 0 0 0 -1 -1 0 0 0zm-3 1l0 0c0,0 0,-1 0,-1 0,-1 1,0 1,0l0 0 -1 0 0 1zm-5 -8l0 0 0 1 1 0 0 0 -1 0 0 -1zm-5 1l1 0 0 -1 1 0 0 1 -2 0 0 0zm26 -4c0,0 0,0 0,0 0,0 1,0 1,0 0,1 -1,1 -1,0zm-21 1l0 0 0 -2 1 0 0 1 -1 0 0 1zm-5 -2l2 0 0 0 0 2 0 0 -1 0 0 -1 -1 -1 0 0zm24 0l0 0 -2 0 0 -2c0,0 0,-1 1,-1 0,0 0,0 0,0l6 0c0,0 0,0 0,0 1,0 1,0 1,1l0 6c0,1 0,1 -1,2 0,0 -4,0 -5,0 -1,0 -1,0 -1,0 -1,-1 -1,-2 -1,-4l2 0 0 2 5 0 0 -6c-2,0 -4,0 -6,0l1 2zm-20 -14l-2 0c0,0 -1,-1 -1,-1 0,0 0,-1 0,-1l0 -2c0,-1 0,-1 0,-1 1,-1 0,0 1,-1 0,0 1,1 1,0 1,0 1,-1 1,-1 1,-1 1,-1 2,-1 1,0 2,0 3,0 0,0 1,1 1,0 0,0 0,-1 0,-1 1,-1 2,-1 3,-1 0,0 1,0 2,0 1,0 1,1 1,1 0,0 1,0 1,1l0 5c0,0 0,1 -1,1 0,0 0,0 0,0l-5 0c0,0 -1,0 -1,-1 0,-1 0,-1 -2,-1 0,0 -2,0 -2,0 0,0 0,1 -1,1 0,1 1,1 0,2 0,0 0,0 0,0 0,0 0,0 0,0 0,1 -1,1 -1,1zm10 -13l1 0 0 -2 1 0 0 2 -2 0 0 0zm-3 -1l0 0 0 1 1 0 0 0 -1 0 0 -1zm3 -5l2 0 0 2 0 0 -1 0 0 -1 -1 0 0 -1zm-3 0l1 0 0 1 -1 0 0 1 0 0 0 -2zm19 -14c0,-1 1,-2 1,-2 1,0 1,1 1,2 0,1 -2,1 -2,0zm0 -2l0 4c0,0 0,0 0,1 1,1 1,0 1,2 -1,0 -1,0 -1,1 0,1 0,2 0,3 -1,0 -1,0 -1,0 0,1 0,4 0,4 0,1 0,1 0,1 0,0 0,0 0,0 0,0 -1,1 -1,1l-1 1c0,1 0,1 0,1 0,2 0,3 -1,4 0,0 0,0 -1,0 0,0 0,1 0,1 0,1 0,1 1,1 0,1 1,1 1,2l0 5c0,1 -1,1 -1,1l-5 0c0,0 -1,0 -1,-1l0 -5c0,-1 1,-1 1,-1 1,-1 1,-1 1,-2 0,0 0,-1 -1,-1 0,0 0,-1 -1,-1 0,0 0,-1 0,-1l0 -3c0,0 0,-1 0,-1 1,-1 1,-1 2,-1 0,-1 1,-1 2,-1 0,0 0,0 1,-1 1,0 0,0 0,-2 0,-1 0,-1 0,-1 0,-1 0,-1 0,-1 0,0 -3,0 -3,0 -1,0 -4,4 -4,4 -1,0 -1,0 -1,0 -1,0 -5,0 -5,0 -1,0 -2,2 -2,2 -1,2 -3,3 -4,4l-13 16c0,0 0,1 -1,1l-27 0 0 -7 -1 0c0,0 2,-2 2,-2l11 0 2 -3 0 -2 2 0 0 -5c-1,0 -4,0 -5,0l0 5 2 0 0 2c0,0 -1,1 -1,2 -1,0 -1,0 -1,0 -2,0 -10,0 -10,0l-3 4 -14 0 -1 -1 0 -1 -1 -2 -8 0 -2 -1 0 -1 2 0c0,-1 0,-3 0,-4l-4 0c0,0 0,3 0,4l1 0c0,1 1,1 1,2 1,0 1,1 1,1l9 0c0,0 1,1 1,2 0,0 -1,0 -1,0l0 8 -27 0 -3 -3 -1 0 0 -2c0,0 -3,0 -3,0 -1,0 0,0 0,0 0,0 0,1 0,1l-3 0 -3 -4 0 -5 -2 0 0 -7 -2 -2 -7 0 0 -1 -3 0 0 4 3 0 0 -1c1,0 7,-1 7,0l1 1 0 6 -2 0 0 5 4 0c0,0 4,5 4,5l3 0 0 2 3 0 0 -2 1 0c0,1 3,4 3,4l29 0c0,0 2,2 2,2l0 13 1 0 0 -5 4 0c0,2 0,20 0,20 1,1 2,2 2,2l0 4 1 0 0 3c0,0 -1,2 -1,2 -1,0 -1,0 -1,0l0 2 1 0c0,-1 0,-1 2,-2 0,0 0,-1 1,-1l0 -4 0 0 0 -4 -2 0c-1,-1 -1,-1 -1,-1 0,0 -1,-1 -1,-1 0,-3 0,-23 0,-23 0,-1 4,-5 4,-6 0,0 1,0 1,0 0,0 0,0 0,0 2,-1 3,0 3,-1l0 -1 44 0 1 1c0,0 8,0 9,0 0,0 0,0 0,0 0,0 0,0 0,0 0,0 0,1 0,1l0 5c0,1 0,1 0,1 -1,1 -3,1 -4,1 0,0 0,0 0,0l0 1c0,0 0,1 0,2 0,0 0,4 0,4 0,1 0,1 -1,1 0,0 0,0 0,0l-3 0c-1,0 -1,0 -1,-1l-2 0 0 0 0 0c0,-1 0,-4 0,-4l0 -1 0 0 1 0c0,0 0,0 0,0l0 0c0,0 1,0 1,0 0,0 0,-1 0,-1l0 0 0 -1c-1,-1 -3,0 -4,-1 0,0 0,-1 0,-1l-5 0c-1,0 -1,1 -1,1 0,0 0,0 0,0 0,0 0,1 -1,1 0,0 -2,0 -3,0l0 0 1 2 2 0 0 1 -1 0c0,0 0,3 0,4l1 0 0 0 -2 0c0,1 0,1 0,1l-3 0c0,0 0,0 0,1 0,1 0,1 1,2l3 4c0,0 1,1 2,2 0,0 1,2 2,2l6 0c1,0 1,0 1,0 1,-1 1,-1 1,-3l0 0 0 1 4 0 0 -1 0 0c0,1 0,2 0,2 1,1 1,1 1,2 0,1 0,3 0,3 1,1 1,1 1,1l9 0c2,0 4,0 6,0 0,1 0,10 0,12 -1,0 -1,0 -1,1 0,1 0,1 0,2 -1,0 -2,0 -2,0 0,-1 0,-3 -2,-3 -1,0 -1,1 -1,2l0 4c0,1 2,2 2,0 0,0 0,0 1,0 0,0 0,0 0,0 0,-1 0,-1 0,-2l2 0c0,1 0,2 0,2 0,1 2,2 2,1 0,0 1,-1 1,-1l0 -4c0,-1 -1,-2 -1,-2l0 -78c0,0 1,-1 1,-1l0 -4c0,-1 -1,-2 -2,-2 -1,0 -1,1 -1,2z"/>
   <path class="fil0" d="M7 87c1,0 1,3 0,3 -1,0 -1,-3 0,-3zm10 -36c0,-2 2,-2 2,0 0,1 -2,1 -2,0zm1 -28c1,0 1,1 1,1 -1,0 -1,-1 -1,-1zm16 22l0 -1c2,0 2,0 3,-1 0,0 0,0 0,-1l29 0 2 3 0 11 1 0 0 -11c0,0 -3,-3 -3,-4l-29 0 -1 2 -2 0 0 -2 -3 0 0 2 -6 0 0 -2c-1,0 -4,0 -5,0l0 1 -1 0c-1,0 -1,-1 -1,-1l0 -14 1 -2 0 0 0 0 0 -3c0,0 -1,0 -2,0 0,1 0,2 0,3 1,0 1,0 0,0l0 1 0 16 1 2 2 0c0,0 0,2 0,2l2 0c0,1 0,3 0,4 -1,0 -1,0 -1,0l0 -1c0,0 0,0 0,0 0,0 -1,0 -1,0l-3 0c-2,0 -2,2 -1,3 1,1 2,1 2,1 1,0 2,0 2,-1 1,0 1,0 1,0 0,0 0,-1 0,-1 2,0 2,0 3,1 0,0 0,0 0,1l0 17c0,0 -1,2 -1,2l-5 0 0 -2c-1,0 -4,0 -4,0 0,1 0,2 0,3l-1 1 -5 0 0 5 1 0c0,1 0,1 0,2l-3 3 0 1c0,0 -1,1 -1,2l0 4c0,1 2,2 3,1 0,0 1,-1 1,-1l0 -4c0,-1 -1,-2 -1,-2l0 -1c0,0 0,0 0,-1 1,0 1,0 1,0 0,-1 1,-2 1,-2l0 -2 1 0c0,-1 0,-3 0,-3 1,0 2,0 3,0 0,-1 0,-1 0,-1 0,0 1,-1 1,-1l3 0 0 -1 5 0 2 -2 0 -19 -1 -2c-1,0 -1,0 -1,0l0 -4 2 1c0,-3 0,-3 1,-3l5 0 0 1 3 0z"/>
   <path class="fil0" d="M1 89c0,-1 0,-2 1,-2 1,0 1,3 0,3 -1,0 -1,-1 -1,-1zm16 -32c0,-2 2,-2 2,0 0,1 -2,1 -2,0zm-15 -52c-1,0 -1,-1 -1,-1 0,-2 2,-2 2,0 0,0 -1,1 -1,1zm-2 0l0 0c0,1 0,71 0,78 0,0 1,1 1,1l0 1c0,0 0,1 -1,1 0,1 0,2 0,3 0,1 0,2 1,2 0,1 0,1 1,1 0,0 1,0 1,-1 1,0 0,-1 0,-2 0,-1 1,-3 0,-3 0,-1 0,-1 0,-1l0 -1 -2 -2c0,-1 0,-11 0,-11 0,0 1,-1 1,-1 0,-1 0,-1 1,-1 0,1 -1,1 0,1 0,0 2,0 3,0l0 -5c-1,0 -3,0 -3,0 -1,0 0,0 0,0 -1,0 -1,0 -1,0 0,0 -1,-1 -1,-1l0 -30c0,0 1,-1 1,-1l3 0c1,0 3,3 3,3l0 2 -1 0 0 3 3 0 0 -1 1 0 0 1 2 0 0 13 2 3c1,0 1,2 2,2l3 0c1,0 1,-1 1,-2 0,-1 0,-2 -1,-2l-3 0c-1,0 -1,0 -1,0 0,0 -2,-1 -2,-2l0 -12 0 0 0 -3 -3 0 0 1 -1 0 0 -1 -1 0c0,-1 0,-2 0,-2 0,-1 0,-1 -1,-1l-2 -3c0,0 0,0 0,0l-4 0 -1 -1c0,0 0,-23 0,-24 1,1 2,0 2,-1 0,-1 1,-4 0,-5 0,-1 -1,-1 -2,0 -1,0 -1,2 -1,4z"/>
   <path class="fil0" d="M138 89c0,-2 2,-2 2,-1 0,1 0,2 -1,2 0,0 -1,-1 -1,-1zm-56 -19c0,0 1,-1 1,0 0,1 0,1 0,1 -1,0 -1,0 -1,-1zm20 -21c0,-1 1,0 1,0 0,0 -1,1 -1,1 0,0 -1,-1 0,-1zm-27 0l0 19 3 3 3 0 0 1 1 0c0,0 0,0 0,0l0 1 0 0 0 4 3 0 0 -4 -1 0c0,-1 0,-1 0,-1l0 -3c-1,0 -2,0 -3,0l0 1c0,0 -2,0 -2,0 -1,0 -1,0 -2,-1 0,-1 -1,-1 -1,-2l0 -18c0,0 3,-4 4,-4 0,0 1,-2 1,-2l15 0 4 6c0,0 0,0 0,1l12 13c2,2 4,5 6,7 1,2 0,1 1,1l9 0 0 2 1 0 0 4c0,0 2,2 2,2l4 5c1,0 1,1 1,1 1,0 1,1 1,1 0,2 0,3 0,4 0,1 1,1 1,2 0,0 1,0 2,0 0,0 1,-1 1,-1l0 -4c0,-1 -1,-2 -2,-2 0,0 -1,0 -1,0l-7 -9 0 -3 1 0 0 -4 -4 0 0 1 -9 0c0,0 -8,-9 -8,-10 0,0 0,0 -1,-1l-3 -4c0,0 -4,-4 -4,-5 0,0 0,0 0,0 0,0 0,0 0,0l0 -2c0,0 -1,0 -2,0l0 0 0 0 -5 -5 -16 0c0,0 0,1 -1,1l-3 4c0,0 0,1 -1,1z"/>
   <path class="fil0" d="M84 41l40 0c1,0 1,0 1,0 0,0 0,0 1,1 0,0 0,0 0,0l-1 0 0 5 5 0 0 5 -1 0 0 4 3 0 0 -4 -1 0 0 -5 5 0 0 -5 -9 0c0,0 -1,-2 -2,-2l-41 0 0 1z"/>
   <path class="fil0" d="M121 44c0,0 0,0 0,0 0,0 1,0 1,0 0,1 -1,2 -1,0zm-37 -2l17 0 2 3 3 0 0 2 5 0 0 5 -1 0 0 4 4 0 0 -4 -2 0c0,-1 0,-4 0,-5l5 0 0 -2 3 0 0 1 2 0 0 -3 -2 0 0 1 -3 0 0 -2 -11 0 0 2c0,0 -1,0 -2,0 -1,0 0,0 -1,0 -1,-1 -1,-2 -2,-2 0,-1 -12,-1 -12,-1 -1,0 -4,0 -5,1 0,0 0,0 0,0z"/>
   <path class="fil0" d="M7 2c1,0 1,1 1,2 0,1 -2,1 -2,0 0,-1 0,-2 1,-2zm-2 0l0 4c0,0 1,0 1,0l-2 2c-1,1 -1,1 -1,3 0,2 1,4 0,6l-1 0 0 4 3 0 0 -4 -1 0 0 -8c0,0 0,0 1,0 0,-1 1,-2 1,-2 1,1 1,0 2,0 0,0 6,8 7,9 0,0 1,0 1,0l7 0c0,0 11,13 12,14 0,0 5,6 6,7 0,0 1,1 1,2l17 0c1,0 5,0 5,0l0 -1 -22 0c0,0 -10,-12 -10,-13l-4 -4c-1,-1 -1,-2 -2,-3 0,0 -2,-3 -2,-3l-8 0c0,0 -6,-7 -7,-8 0,0 0,0 -1,-1 0,0 1,0 1,0l0 -4c0,-3 -4,-3 -4,0z"/>
   <path class="fil0" d="M16 89c0,-2 2,-2 2,-1 0,2 -2,2 -2,1zm21 -43c0,0 0,-1 1,-1 0,-1 1,-2 1,-2 4,0 8,0 13,0 0,0 12,0 12,0l0 0c0,0 -7,0 -7,0 -6,0 -12,0 -18,0 -1,0 -1,0 -1,0 0,1 -1,2 -2,2l-5 7c-1,1 -1,1 -1,1 -1,1 -1,1 -1,1l1 19 -8 9c-1,0 -2,0 -3,0 -1,0 -1,0 -1,0 0,1 0,1 0,1 -1,0 -1,1 -1,1l0 1c-1,0 -1,1 -1,2l0 4c0,1 1,2 2,1 0,0 1,-1 1,-1l0 -4c0,-1 -1,-2 -2,-2l0 -1c1,0 1,-1 2,-1 0,0 1,0 2,0 1,0 1,0 2,-1 1,-1 1,-2 2,-3l5 -5 0 -20 7 -8z"/>
   <path class="fil0" d="M144 2c1,0 1,1 1,2 0,1 -2,1 -2,0 0,-1 1,-2 1,-2zm-1 0l0 4c0,0 0,1 0,1l-2 2c0,0 -2,0 -2,0 0,0 -4,5 -4,5l-6 0c-1,0 -3,3 -3,3 -1,1 -2,2 -2,3l-15 18c0,0 -23,0 -25,0l0 1 25 0 2 -3c1,-1 2,-2 3,-3l10 -12c1,-1 2,-2 2,-3l3 -3 6 0c0,0 2,-2 2,-3 0,0 1,0 1,-1 0,0 1,-1 1,-1l3 0c0,0 1,-2 1,-2 1,0 1,0 1,-1 1,0 2,0 2,-1l0 -4c0,-3 -3,-3 -3,0z"/>
   <path class="fil0" d="M21 89c0,-1 0,-1 0,-1 1,0 1,0 1,0 0,-1 1,0 1,0 0,2 -2,2 -2,1zm13 -36c0,-1 0,-1 1,-1 0,-1 1,-2 2,-3 0,-1 1,-1 2,-2 0,-1 0,-1 0,-1 1,0 1,-1 1,-1 0,0 0,0 0,0l24 0 0 -1 -24 0c0,0 -1,1 -1,1l-3 4c-1,1 -1,1 -2,2 0,0 -2,2 -2,3l0 21c0,0 -1,1 -1,1 0,1 -1,1 -1,1 -1,1 -2,2 -2,3 -2,1 -4,4 -5,5 0,0 0,0 -1,0 -1,0 -1,1 -1,2 0,1 0,2 0,2 0,1 0,2 0,3 1,1 2,0 3,-1 0,-1 0,-2 0,-3 0,-1 0,-1 0,-2l9 -11 0 -21 1 -1z"/>
   <path class="fil0" d="M139 5c-1,0 -1,-1 -1,-1 0,-1 0,-2 1,-2 1,0 1,3 0,3zm-1 2c0,0 -4,5 -4,5l-7 0 -20 25 -23 0 0 0 23 0c0,0 1,-1 2,-1l17 -21c1,-1 1,-2 2,-2l6 0 5 -6c0,0 0,0 1,0 0,0 1,-1 1,-1l0 -4c0,-2 -3,-3 -3,-1 -1,1 -1,1 -1,2 0,1 0,3 1,3 0,1 0,1 0,1z"/>
   <path class="fil1" d="M129 29l4 0 0 5 -4 0 0 -2 -5 0c-1,0 -1,0 -1,0 0,0 -1,1 -1,1l0 2 -2 0 0 -2c1,0 1,0 2,0 0,0 0,-1 0,-1 1,0 1,-1 1,-1 1,0 1,0 1,0 2,0 4,0 5,0l0 0 0 -2zm-7 8c0,0 1,0 1,-1 0,0 0,0 0,0 0,0 0,0 0,0 1,-1 0,-1 0,-2 1,0 1,-1 1,-1 0,0 2,0 2,0 2,0 2,0 2,1 0,1 1,1 1,1l5 0c0,0 0,0 0,0 1,0 1,-1 1,-1l0 -5c0,-1 -1,-1 -1,-1 0,0 0,-1 -1,-1 -1,0 -2,0 -2,0 -1,0 -2,0 -3,1 0,0 0,1 0,1 0,1 -1,0 -1,0 -1,0 -2,0 -3,0 -1,0 -1,0 -2,1 0,0 0,1 -1,1 0,1 -1,0 -1,0 -1,1 0,0 -1,1 0,0 0,0 0,1l0 2c0,0 0,1 0,1 0,0 1,1 1,1l2 0z"/>
   <path class="fil0" d="M26 89c0,-2 2,-2 2,-1 0,2 -2,2 -2,1zm38 -43l0 -1c0,0 -5,0 -5,0l-17 0c0,0 -1,1 -1,1l-6 8 0 22 -8 9c0,0 -1,0 -1,2 0,1 0,3 0,4 0,1 1,2 2,1 0,0 1,-1 1,-1 0,-1 0,-4 0,-4 0,-1 0,-1 -1,-2l7 -8 0 -23 7 -8 22 0z"/>
   <path class="fil0" d="M12 5c-1,0 -1,-2 -1,-2 0,0 1,-1 1,-1 1,0 1,3 0,3zm0 2c0,0 4,5 5,6l1 2 7 0c0,0 16,19 18,22 0,0 0,0 1,0l20 0 0 0 -20 0c-1,-1 -1,-1 -1,-2l-18 -21c0,0 0,0 -1,0 -2,0 -4,0 -5,0 -1,0 -3,-3 -3,-3 -1,-1 -3,-4 -3,-4 0,0 1,0 1,-1 0,-1 0,-2 0,-3 0,-1 0,-1 -1,-2 0,-1 -2,-1 -2,0 -1,1 0,2 0,3 0,1 -1,2 0,2 0,1 0,1 1,1z"/>
   <path class="fil0" d="M134 5c-1,0 -1,-1 -1,-1 0,-1 0,-2 1,-2 1,0 1,3 0,3zm0 2l0 1 -3 3 -5 0 -20 25 -22 0 0 0 22 0 20 -24 6 0 2 -3c0,0 0,0 0,-1 0,0 0,0 0,-1 2,0 1,-1 1,-3 0,-1 1,-2 0,-3 0,-1 -2,-1 -2,0 -1,1 -1,2 -1,3 0,0 0,1 0,2 1,1 1,1 2,1z"/>
   <path class="fil0" d="M128 89c0,-2 2,-2 2,-1 0,2 -2,2 -2,1zm-44 -44c1,0 9,0 9,0 0,0 1,1 1,2 1,0 2,1 2,1 1,2 2,3 3,4 2,3 5,5 7,8 0,1 12,15 13,15 0,0 3,0 3,0l3 4c1,1 3,4 4,4l-1 2c-1,0 -1,2 -1,4 0,1 0,2 0,2 1,2 3,2 3,0 0,0 0,-1 0,-2 0,-2 1,-3 0,-4 0,0 -1,0 -1,0 0,-1 0,-2 0,-3 -1,-1 -3,-3 -4,-4 0,-1 -1,-2 -2,-3 -1,-1 0,0 -2,0 -1,0 -2,0 -2,0 -1,-1 -3,-4 -3,-4l-22 -26c0,0 -1,-1 -1,-1l-9 0 0 1z"/>
   <path class="fil0" d="M17 2c1,0 1,3 0,3 -1,0 -1,-3 0,-3zm0 5c0,2 0,1 0,2l3 3c0,1 1,1 1,1l5 0c0,1 1,1 1,2l16 18c0,1 2,3 2,3l19 0 0 0 -18 0c-1,-1 -5,-6 -5,-6 -4,-4 -7,-8 -10,-12l-5 -6 -5 0 -4 -4 0 -1c1,0 2,-1 2,-1l0 -4c0,-2 -3,-3 -3,0 0,1 0,3 0,4 0,1 0,1 1,1z"/>
   <path class="fil0" d="M31 89c0,-2 2,-2 2,-1 0,2 -1,2 -2,1zm13 -42l20 0 0 -1c0,0 -2,0 -2,0 -2,0 -19,0 -19,0l-6 8 0 24 -5 6c0,0 0,0 0,1 0,0 -1,1 -1,1 0,1 0,2 0,3 0,1 0,2 1,3 0,1 1,0 2,-1 0,0 0,-1 0,-2 0,-2 0,-4 -1,-4 0,-1 0,-1 0,-2 1,0 5,-5 5,-5l0 -24 6 -7z"/>
   <path class="fil0" d="M50 23c0,0 0,0 0,0 1,0 1,1 0,1 0,0 0,0 0,-1zm-11 -12c0,-1 1,0 1,0 0,1 -1,1 -1,0zm0 1l1 0 0 1c0,0 6,8 7,8l1 2c1,1 0,1 1,1l0 1 2 0 0 -2 2 -2 6 0c0,0 1,1 1,1l0 1 -1 0 0 4 3 0 0 -1 0 0c1,0 1,1 2,1 0,0 3,4 3,4l6 0c0,0 1,-1 1,-1l0 -5 -1 0 0 5 0 0 -5 0 -6 -6 0 -1 -1 0c0,-1 0,-1 -1,-2 0,0 -1,-1 -1,-1l-6 0 -2 2 -2 0 0 1c0,0 -1,-1 -1,-1l-7 -9c0,0 -1,0 -1,-1l1 0 0 -2 -2 0 0 2z"/>
   <path class="fil0" d="M123 89c0,-1 1,-2 2,-1 0,1 0,2 -1,2 -1,0 -1,-1 -1,-1zm-32 -43c0,0 1,1 1,1 0,0 1,0 1,1l22 26c0,0 3,4 4,4l2 0 2 3 0 4c0,0 -1,1 -1,1 0,1 0,2 0,3 0,1 0,2 0,2 1,2 3,2 3,0 0,0 0,-1 0,-2 0,-2 0,-3 0,-4 -1,0 -1,0 -1,0l0 -4 -3 -3 -2 0 -27 -33c-1,0 -7,0 -8,0 0,1 0,1 1,1l6 0z"/>
   <path class="fil0" d="M129 2c1,0 1,3 0,3 -2,0 -1,-3 0,-3zm-2 0l0 4c0,0 1,1 1,1l0 1 -1 1 -2 0c0,0 -1,2 -1,2l-19 23c-1,0 -1,0 -1,0l-20 0 0 1c1,0 18,0 20,0 0,0 0,0 1,-1l5 -5c2,-4 5,-7 7,-10l6 -7c1,0 1,0 1,-1 0,0 0,0 1,0 0,-1 0,-1 0,-1l3 0 1 -2 0 -1c1,0 1,-1 1,-1l0 -4c0,-1 0,-2 -1,-2 -1,0 -2,1 -2,2z"/>
   <path class="fil0" d="M145 11c0,-1 1,0 1,0 0,1 -1,1 -1,0zm-1 2l1 0 0 3c0,1 -2,3 -2,3 -1,0 -2,0 -3,0 0,0 -1,1 -1,1 0,1 0,3 0,3 1,1 1,1 2,1l0 5 -2 0 0 5 4 0 0 -5 -1 0 0 -5c0,0 1,0 1,0 0,-1 0,-1 0,-1 1,-1 0,-2 0,-3l3 -3c0,0 0,0 0,-2 0,-1 0,-2 0,-2l0 0 0 -3 -2 0c0,0 0,2 0,3z"/>
   <path class="fil0" d="M36 89c0,-1 1,-2 1,-2 1,0 1,1 1,1 1,2 -1,2 -2,1zm4 -35l0 27c-1,0 -3,3 -3,3l0 1c0,0 -1,1 -1,2l0 4c0,1 2,2 3,1 0,0 0,-1 0,-1l0 -4c0,-1 -1,-2 -1,-2l0 -1 2 -3 0 -27 5 -6 19 0 0 -1 -19 0 -5 7z"/>
   <path class="fil0" d="M22 5c-1,0 -1,-1 0,-2 0,-1 1,0 1,1 0,0 0,1 -1,1zm0 2c0,3 0,3 1,4 0,0 0,1 0,1l4 0 20 23 17 0 0 -1 -17 0 -5 -6c-1,-1 -15,-17 -15,-17l-3 0 -1 -1 0 -3 0 0c0,0 1,-1 1,-1l0 -4c0,-2 -3,-3 -3,0 0,0 0,2 0,3 0,1 0,2 1,2z"/>
   <path class="fil0" d="M42 89c-1,-2 1,-2 1,-1 1,2 -1,2 -1,1zm4 -39c1,-1 1,-1 1,-1l17 0 0 0 -18 0 -4 5 0 31c0,0 -1,1 -1,1 0,1 0,2 0,3 0,1 0,2 0,2 0,1 0,1 1,1 1,1 1,0 2,-1 0,0 0,-1 0,-2 0,-1 0,-2 0,-3 0,-1 -1,-1 -1,-1l0 -31 3 -4z"/>
   <path class="fil0" d="M20 67c0,0 1,0 1,0 1,0 1,1 0,1 0,0 -1,0 -1,-1zm-18 -26l2 0 0 17c0,1 2,3 2,3l2 2c0,0 0,0 0,0l6 0c0,0 1,0 1,1l-1 0 0 3 4 0 0 -1 1 0c0,0 1,1 1,1 0,0 0,1 0,2l2 0 0 -3 -2 0c0,0 0,0 0,0l0 -1 -2 0 0 -1 -2 0c-1,-1 -1,-1 -1,-1 0,0 0,-1 0,-1l-7 0 -3 -4 0 -17 0 0 0 -3 -3 0 0 3z"/>
   <path class="fil0" d="M118 89c0,-1 0,-2 1,-2 1,0 1,3 0,3 -1,0 -1,-1 -1,-1zm-34 -42l6 0 2 2c0,1 1,2 1,2l25 30c0,0 0,0 0,0l0 4c0,0 -1,1 -1,2l0 4c0,0 1,1 2,1 0,0 1,-1 1,-1l0 -4c0,-1 0,-1 0,-1 0,-1 -1,-1 -1,-1l0 -4c0,0 0,0 0,-1 -1,0 -1,0 -1,0 0,-1 -1,-1 -1,-1l-26 -32c0,0 -1,0 -1,-1l-6 0 0 1z"/>
   <path class="fil0" d="M50 75c1,0 1,1 1,2 0,0 0,1 -1,1 -1,0 -1,-3 0,-3zm13 -19c0,0 0,-1 1,-1 0,0 0,-1 0,-1l2 0 0 2 1 0 0 -4 -1 0 0 1 -2 0 -1 2 -2 0c0,-1 0,-1 0,-2l-3 0 0 4 1 0 0 1c0,0 -1,1 -1,1l-7 0c0,0 -1,1 -1,1l0 13c-1,0 -1,0 -1,0 -1,1 0,2 0,4 0,0 -1,1 0,2 0,1 2,1 2,1 0,-1 1,-1 1,-2l0 -3c0,-2 -2,-2 -2,-2l0 -13c0,0 1,-1 1,-1l7 0c1,0 1,0 1,0 0,-1 0,0 0,-2l2 0 0 -1 2 0z"/>
   <path class="fil0" d="M124 5c-1,0 -1,-1 -1,-1 0,-1 1,-2 1,-1 1,0 1,2 0,2zm-1 2c0,1 1,1 0,2 0,0 -1,0 -1,1l-4 4c-2,2 -3,4 -5,7l-10 11c0,1 0,1 -1,1l-18 0 0 1 19 0 5 -7c2,-2 4,-4 6,-6l9 -12c1,-1 1,0 1,-2 2,0 1,-2 1,-3 0,-1 0,-2 0,-3 0,-1 -2,-1 -3,0 0,1 0,2 0,2 0,3 0,4 1,4z"/>
   <path class="fil0" d="M47 89c-1,-2 1,-2 2,-1 0,2 -2,2 -2,1zm5 -34l-2 0c0,0 -1,2 -2,2 -1,1 -1,1 -1,3l0 25c-1,0 -1,2 -1,4 0,1 0,2 0,2 1,2 2,2 3,0 0,0 0,-1 0,-2 0,-1 0,-2 0,-3 0,0 -1,-1 -1,-1l0 -23c0,-1 0,-3 0,-4l2 -2c1,0 2,0 2,0l0 1 3 0 0 -4 -3 0 0 2z"/>
   <path class="fil0" d="M113 89c-1,-1 1,-2 1,-1 1,1 0,2 0,2 -1,0 -1,-1 -1,-1zm2 -3c0,0 -1,-1 -1,-1l0 -7c0,0 0,0 0,-1l-22 -26c-1,0 -3,-3 -4,-4l-4 0 0 1 4 0c0,0 6,7 6,8 2,1 3,2 4,3l15 19 0 7c0,0 0,0 0,0 -1,1 -1,3 -1,4 0,1 0,2 0,2 1,2 2,2 3,0 0,0 0,-1 0,-2 0,-1 0,-2 0,-3z"/>
   <path class="fil0" d="M119 2c1,0 1,3 0,3 -2,0 -2,-3 0,-3zm-1 5l0 4 -17 21 -17 0 0 1 17 0c0,0 9,-11 9,-11 2,-2 3,-3 5,-5l4 -6 0 -4c0,0 1,0 1,-1 0,-1 0,-2 0,-3 0,0 0,-1 0,-2 0,-1 -2,-1 -3,0 0,1 0,2 0,2 0,2 0,4 1,4z"/>
   <path class="fil0" d="M27 5c0,0 -1,-1 -1,-1 0,-2 2,-2 2,0 0,0 0,1 -1,1zm0 2c0,1 0,1 0,2l19 22c0,0 1,1 1,1 0,1 0,1 1,1 0,0 0,1 0,1l12 0c1,0 4,0 4,0l0 -1 -15 0 -20 -23c0,-1 -1,-1 -1,-1 0,0 0,-1 0,-1l0 -1c0,0 1,-1 1,-1l0 -4c0,-2 -3,-3 -3,0 0,1 0,3 0,4 0,1 1,1 1,1z"/>
   <path class="fil0" d="M11 89c0,-1 0,-2 1,-2 1,0 1,3 0,3 0,0 -1,-1 -1,-1zm17 -40c1,-1 1,0 1,0 0,0 0,1 0,1 -1,0 -1,-1 -1,-1zm0 1l2 0 0 -2 -2 0 0 2 -1 0 0 22 -5 6c-1,0 -1,1 -1,1 -1,0 -2,0 -4,0 -2,0 -1,0 -2,1l-2 3c-1,1 -1,1 -1,2 -1,0 -1,1 -1,1 -1,1 0,2 0,3 0,1 -1,2 0,2 0,2 2,2 2,0 1,0 1,-1 1,-2 0,-1 0,-2 0,-3 -1,0 -1,-1 -2,-1l0 -1c0,0 2,-2 2,-2 0,0 1,-1 1,-1 0,0 1,-1 1,-1 2,0 3,0 5,0 0,0 0,0 0,0l2 -3c1,-1 3,-3 5,-5 0,0 0,-21 0,-21l0 -1z"/>
   <path class="fil0" d="M32 5c-1,0 -1,-3 0,-3 2,0 2,3 0,3zm-1 -3l0 4c0,0 0,1 1,1l0 4c1,2 3,4 4,6l14 16 14 0 0 -1 -14 0c0,0 -2,-2 -2,-3l-8 -9c0,-1 -1,-1 -1,-1l-6 -8 0 -4c0,0 1,-1 1,-1l0 -4c0,-3 -3,-3 -3,0z"/>
   <path class="fil0" d="M102 89c0,-2 2,-2 2,-1 1,2 -1,2 -2,1zm-21 -34l0 1 1 0 0 -2 5 0 15 18c0,1 1,1 1,2l0 11c0,0 -1,1 -1,2l0 4c0,1 2,2 3,1 0,0 0,-1 0,-1l0 -4c0,-1 -1,-2 -1,-2l0 -12c-1,0 -1,-1 -1,-1l-14 -16c0,0 -2,-3 -2,-3l-5 0 0 -1 -1 0 0 3z"/>
   <path class="fil0" d="M113 5c0,0 0,-1 0,-1 0,-1 1,-2 1,-1 1,1 1,2 -1,2zm0 2l0 7c0,0 -3,4 -3,4 -1,2 -2,3 -4,4l-7 9 -15 0 0 0 16 0 14 -17 0 -7c0,0 0,0 1,0 0,0 0,-1 0,-1 0,0 0,-4 0,-5 -1,-1 -2,-1 -3,0 0,1 0,2 0,2 0,1 0,2 0,3 0,1 1,1 1,1z"/>
   <path class="fil0" d="M107 89c0,-1 1,-2 1,-2 1,0 2,2 1,2 0,1 -2,1 -2,0zm1 3c1,0 2,0 2,-1 0,0 0,-1 0,-2 0,-2 0,-4 -1,-4l0 -10 -22 -26 -3 0 0 0c1,1 2,0 3,0 0,1 1,2 1,2 3,3 20,24 20,24l0 10c0,0 -1,1 -1,1 0,1 0,2 0,3 0,1 0,2 0,2 0,1 1,1 1,1z"/>
   <path class="fil0" d="M77 89c0,-1 0,-1 0,-1 0,0 1,-1 1,-1 1,0 1,3 0,3 0,0 -1,-1 -1,-1zm-1 -24l2 1 6 0 3 3 0 9c0,0 -4,4 -4,4l-3 0 -2 3c0,0 0,0 -1,0 -1,1 -1,2 -1,3 0,1 0,2 1,3 0,1 1,2 2,1 1,-1 1,-1 1,-2 0,-1 0,-2 0,-3 0,-2 -2,-1 -1,-2l2 -2 2 0c0,0 1,0 1,-1 0,0 3,-4 3,-4l0 -9c0,0 -2,-4 -3,-4l-6 0 -1 -1 0 -12 -1 0 0 13z"/>
   <path class="fil0" d="M55 75c2,0 2,3 0,3 0,0 -1,-1 -1,-1 0,-1 1,-2 1,-2zm12 -18l0 0c0,0 -3,3 -3,4 -1,0 -1,1 -1,1 -1,0 -2,0 -2,0 0,0 0,-1 0,-1l-3 0 0 4 -3 3c0,1 0,1 0,2 0,0 0,3 0,3 -1,0 -1,1 -1,1 0,1 0,2 0,3 0,1 -1,2 0,3 1,0 2,0 3,-1 0,0 0,-1 0,-2 0,-2 0,-4 -1,-4l0 -4 3 -4 2 0c0,0 0,0 0,-2l2 0c0,0 1,-1 1,-1 1,-1 4,-5 4,-5l0 -5 -1 0 0 5z"/>
   <path class="fil0" d="M37 2c1,0 1,0 1,1 1,0 1,2 0,2 -1,0 -2,-1 -1,-2 0,0 0,0 0,0l0 -1zm-1 0l0 4c0,0 0,1 1,1l0 7c0,1 1,1 1,1 0,1 1,1 1,2 0,0 1,1 2,2l10 12 13 0 0 0 -12 0c-1,-1 -7,-8 -7,-9 -1,-1 -3,-2 -4,-4 0,0 -3,-4 -3,-4l0 -7c0,0 0,0 1,0 0,0 0,-1 0,-1l0 -4c0,-1 -1,-2 -2,-2 0,0 -1,1 -1,2z"/>
   <path class="fil0" d="M82 89c0,-1 1,-1 1,-2 1,0 1,1 1,1 0,1 0,2 -1,2 0,0 -1,-1 -1,-1zm-5 -26l2 1 6 0c0,1 4,5 4,5l0 10 -1 2c0,0 -4,4 -4,4 0,0 -1,0 -2,0 0,0 0,1 0,2 0,1 0,2 0,2 0,1 -1,2 0,3 1,1 2,0 3,-1 0,-1 0,-3 0,-4 0,-1 0,-1 -1,-1l6 -6 0 -11c0,0 -1,-1 -1,-1 0,0 0,0 0,-1l-4 -3 -6 0c0,-1 -1,-1 -1,-2 0,0 0,-10 0,-10 -1,0 -1,0 -1,2l0 9z"/>
   <path class="fil0" d="M87 89c0,-1 0,-1 0,-1 1,-1 2,-1 2,0 0,1 0,2 -1,2 0,0 -1,-1 -1,-1zm-9 -28l2 2 6 0 3 3c0,0 1,1 1,1 1,1 2,2 2,2l0 12c-1,0 -1,1 -1,1l-2 2c-1,1 -1,1 -1,1 0,0 0,0 -1,0 0,1 0,1 0,2 0,1 0,1 0,2 0,1 0,2 0,2 0,2 2,2 3,0 0,0 0,-1 0,-2 0,-1 0,-1 0,-2 0,-1 -1,-1 -1,-2l3 -4 0 -12c0,-1 -5,-7 -5,-7l-7 0c0,0 -1,-1 -1,-2l0 -8 -1 0 0 9z"/>
   <path class="fil0" d="M97 89c0,-1 1,-1 1,-2 1,0 1,1 1,1 0,1 0,2 -1,2 0,0 -1,-1 -1,-1zm-17 -32l2 2 6 0c0,0 1,1 1,1 1,1 9,10 9,11l0 14c-1,0 -1,1 -1,2l0 4c0,0 0,1 1,1 1,0 2,-1 2,-1l0 -4c0,-1 -1,-2 -1,-2l0 -15c0,0 -1,-1 -1,-1l-5 -6c-1,-1 -4,-5 -5,-5l-6 0 -1 -1 0 -5 -1 0 0 5z"/>
   <path class="fil0" d="M92 89c0,-2 2,-2 2,-1 0,1 0,2 -1,2 0,0 -1,-1 -1,-1zm-13 -30c0,0 1,0 1,1 0,0 1,0 1,1l6 0 2 2c1,0 1,1 2,2 0,1 1,1 1,2 1,0 2,2 2,2l0 13c0,1 0,1 0,1 -1,1 -1,1 -1,2 0,0 -1,0 -1,0 -1,1 0,2 0,4 0,1 0,2 0,2 1,2 3,1 3,0l0 -4c0,-1 -1,-2 -1,-2l0 -1 1 -1c0,0 0,-14 0,-14l-7 -9 -7 0c0,0 -1,-1 -1,-1l0 -7 -1 0 0 7z"/>
   <path class="fil0" d="M42 5c0,0 0,-1 0,-1 0,-2 2,-2 1,0 0,0 0,1 -1,1zm0 2l0 4 4 5 17 0 3 5 0 7 1 0 0 -8 -2 -2c0,0 -2,-3 -2,-3l-17 0 -3 -4 0 -4c1,0 1,-2 1,-4 0,0 0,-1 0,-2 0,0 -1,-1 -2,-1 0,0 -1,1 -1,1 0,1 0,2 0,2 0,1 0,2 0,3 0,1 1,1 1,1z"/>
   <path class="fil0" d="M108 5c0,0 -1,-1 -1,-1 1,-2 3,-2 2,0 0,0 0,1 -1,1zm-1 1c0,1 -6,8 -7,9 0,0 0,0 -1,0 -3,0 -7,0 -11,0 0,0 -2,0 -2,0 -1,0 -1,1 -1,1 0,0 -1,1 -1,1l-3 3 0 8 1 0 0 -7 4 -5 14 0c0,0 1,-2 2,-2 0,-1 5,-7 5,-7 1,0 1,1 2,0 1,-1 1,-2 1,-4 0,-1 0,-2 0,-2 -1,-2 -3,-1 -3,0 0,1 0,2 0,3 0,1 0,2 0,2z"/>
   <path class="fil0" d="M52 89c-1,-2 1,-2 2,-1 0,1 -1,2 -1,2 -1,0 -1,-1 -1,-1zm1 -24c1,0 2,0 2,0l0 -4 -3 0 0 4 0 0 0 20c0,0 0,0 0,0 -1,1 -1,2 -1,4 0,1 0,2 0,2 0,1 0,1 1,1 1,1 2,0 2,-1 0,0 0,-1 0,-2 0,-2 1,-3 -1,-4l0 -20z"/>
   <path class="fil0" d="M102 4c0,-2 2,-2 2,0 0,1 -2,1 -2,0zm0 -2l0 4c0,0 0,1 1,1l0 1 -5 6 -14 0c0,0 -1,2 -2,2l-1 2c0,0 -1,0 -1,1l0 9 1 0 0 -9c0,0 2,-2 2,-2 0,-1 1,-2 2,-2l13 0 6 -7 0 -1c0,0 1,-1 1,-1l0 -4c0,-1 -1,-2 -2,-2 0,0 -1,1 -1,2z"/>
   <path class="fil0" d="M47 5c0,0 0,-1 0,-1 0,-2 2,-2 2,0 0,0 -1,1 -2,1zm0 2l0 6 2 2 15 0c0,0 3,3 3,3 0,1 0,1 0,1l0 9 1 0 0 -9c0,-1 -3,-4 -3,-4 0,0 0,-1 -1,-1l-15 0 -1 -1 0 -6c0,0 1,0 1,0 0,-1 0,-2 0,-3 0,-1 0,-2 0,-3 -1,-1 -2,-1 -3,0 0,1 0,2 0,2 0,1 0,2 0,3 0,1 1,1 1,1z"/>
   <path class="fil0" d="M85 25c0,1 -1,2 -1,2 -1,1 0,0 -1,1 0,0 -1,1 -1,1 0,1 -1,1 -1,1l-5 0c-1,0 -1,0 -1,0l0 -5 -1 0 0 5c0,0 1,1 2,1l5 0 5 -6 4 0 0 -5 -5 0 0 5z"/>
   <path class="fil0" d="M57 89c0,-1 0,-2 1,-2 0,0 1,1 1,2 0,1 -2,1 -2,0zm1 -17c0,0 13,-15 13,-15l0 -5 -1 0 0 4c0,0 -11,14 -12,15 -1,1 -1,1 -1,2l0 12c0,0 -1,1 -1,1 0,1 0,2 0,3 0,1 0,2 0,2 1,2 3,2 3,0 0,0 0,-1 0,-2 0,-1 0,-2 0,-3 0,0 0,-1 -1,-1l0 -13z"/>
   <path class="fil0" d="M98 3c1,-1 1,0 1,0 0,1 0,2 0,2 -1,0 -2,-1 -1,-2 0,0 0,0 0,0zm-1 -1l0 4c0,0 0,1 0,1 0,0 1,0 1,0l0 1 -4 4 -11 0 -4 5 0 11 1 0 0 -11 3 -4 12 0 4 -4c0,-1 0,-1 0,-2 0,0 0,0 0,0 1,-1 1,-1 1,-1l0 -4c0,-1 -1,-2 -2,-2 0,0 -1,1 -1,2z"/>
   <path class="fil0" d="M62 89c0,-1 0,-1 1,-2 0,0 1,1 1,1 0,2 -2,2 -2,1zm9 -31c0,0 -7,9 -8,10 0,0 0,1 -1,1l0 16c0,0 -1,1 -1,2l0 4c0,0 1,1 2,1 1,0 1,-1 1,-1l0 -4c0,-1 0,-2 -1,-2l0 -16c0,0 7,-8 8,-9l1 -2c0,-1 0,-5 0,-6l-1 0 0 6z"/>
   <path class="fil0" d="M53 2c1,0 1,3 0,3 -2,0 -2,-3 0,-3zm-2 0l0 4c0,0 0,1 0,1 1,0 1,0 1,0l0 4 2 2 11 0 3 4c0,0 0,0 0,0l0 11 1 0 0 -11 -3 -5 -12 0 -1 -1 0 -4c1,0 1,-1 1,-1l0 -4c0,-3 -3,-3 -3,0z"/>
   <path class="fil0" d="M67 89c0,-2 2,-2 2,-1 0,2 -2,2 -2,1zm5 -29l0 0c0,0 -4,6 -4,6l0 19c-1,0 -1,1 -2,1 0,1 0,2 0,3 0,1 0,2 1,3 1,1 2,0 2,-1 1,0 0,-1 0,-2 0,-1 0,-2 0,-3 0,0 0,-1 -1,-1l0 -19 4 -4c0,-1 1,-2 1,-2l0 -8 -1 0 0 8z"/>
   <path class="fil0" d="M72 89c0,-1 0,-2 1,-2 1,0 1,2 1,2 -1,1 -2,1 -2,0zm1 -8c0,0 1,0 1,-1 0,0 0,-28 0,-28l-1 0 0 28c0,0 0,0 0,1 0,0 0,0 0,1 0,1 0,2 0,3 -1,0 -1,0 -2,1 0,1 0,2 0,3 0,1 0,2 1,2 0,2 2,2 2,0 1,0 1,-1 1,-2 0,-2 0,-4 -2,-4l0 -4z"/>
   <path class="fil0" d="M93 5c-1,0 -1,-3 0,-3 2,0 2,3 0,3zm0 2l0 3 -1 1 -10 0 -4 4 0 13 1 0 0 -13 2 -2c0,0 0,0 0,0 0,-1 0,-1 1,-1 0,0 0,0 0,0l10 0c0,0 2,-2 2,-2l0 -3c0,0 1,-1 1,-1l0 -4c0,-2 -3,-3 -3,0 0,1 0,3 0,4 0,1 0,1 1,1z"/>
   <path class="fil0" d="M58 5c-1,0 -1,-1 -1,-1 0,-1 1,-2 1,-1 1,0 1,2 0,2zm-1 2l0 3 2 2 8 0 2 3 0 13 1 0 0 -13c0,0 -3,-4 -3,-4l-8 0c0,0 -1,-1 -1,-1l0 -3c2,0 1,-2 1,-3 0,-1 0,-2 0,-3 0,-1 -2,-1 -3,0 0,1 0,2 0,2 0,2 0,4 1,4z"/>
   <path class="fil0" d="M88 5c-1,0 -1,-2 -1,-2 1,0 1,-1 1,-1 2,0 2,3 0,3zm0 2c0,1 0,1 -1,2 0,0 0,0 0,0l-7 0 -3 4 0 15 1 0 0 -15 3 -3 6 0c0,0 1,-1 2,-2l0 -1c0,0 0,0 1,-1 0,-1 0,-2 0,-2 0,-1 0,-2 0,-3 -1,-1 -3,-1 -3,0 0,1 0,2 0,3 0,1 -1,2 0,3 0,0 1,0 1,0z"/>
   <path class="fil0" d="M8 70l1 0c0,0 0,0 0,1 0,0 -1,0 -1,0l-2 0 -2 2 0 1 -1 0 0 5 3 0 0 -5c-1,0 -1,0 -1,0l0 0c0,-1 1,-1 1,-2l2 0c0,0 1,-1 2,-1 0,-1 0,-1 0,-1l1 0 0 -5 -3 0 0 5z"/>
   <path class="fil1" d="M141 49c2,0 4,0 6,0l0 6 -5 0 0 -2 -2 0c0,2 0,3 1,4 0,0 0,0 1,0 1,0 5,0 5,0 1,-1 1,-1 1,-2l0 -6c0,-1 0,-1 -1,-1 0,0 0,0 0,0l-6 0c0,0 0,0 0,0 -1,0 -1,1 -1,1l0 2 2 0 0 0 -1 -2z"/>
   <path class="fil0" d="M63 2c0,0 1,1 1,2 0,1 -2,1 -2,0 0,-1 0,-2 1,-2zm-2 0l0 4c0,0 1,1 1,1l0 1 2 2 4 0 2 3 0 15 1 0 0 -15c0,0 -3,-4 -3,-4l-4 0c0,0 -1,-1 -1,-1l0 -1c1,0 1,-1 1,-1l0 -4c0,-1 0,-2 -1,-2 -1,0 -2,1 -2,2z"/>
   <path class="fil0" d="M28 30c1,0 1,1 1,1 -1,1 -1,0 -1,-1zm0 2l2 0c0,0 0,0 0,-1 0,0 3,0 3,0l8 9 23 0 0 -1 -23 0 -7 -8 -4 0c0,-1 0,-1 0,-1 -1,0 -2,0 -2,0l0 2z"/>
   <path class="fil0" d="M83 2c1,0 1,1 1,2 0,0 0,1 -1,1 -1,0 -1,-3 0,-3zm-1 0l0 4c0,0 0,1 0,1 0,0 0,1 0,1l-3 0c0,0 0,0 0,0 -1,1 -3,3 -3,3l0 17 1 0 0 -16c0,-1 1,-2 1,-2 0,0 1,-1 2,-1l2 0c2,-2 1,-1 2,-2 0,0 0,0 0,0 0,0 1,-1 1,-1l0 -4c0,-3 -3,-3 -3,0z"/>
   <path class="fil0" d="M78 5c-1,0 -1,-1 -1,-1 0,-2 2,-2 2,0 0,0 0,1 -1,1zm-1 2l-2 2 0 19 1 0 0 -18c0,-1 2,-2 2,-3 1,0 1,0 1,-1 1,0 1,-1 1,-2 0,-1 0,-2 -1,-3 0,-1 -2,-1 -2,0 -1,1 -1,1 -1,2 0,1 0,3 1,3 0,1 0,1 0,1z"/>
   <path class="fil0" d="M68 5c-1,0 -1,-1 -1,-1 0,-2 2,-2 2,0 0,0 -1,1 -1,1zm0 2c0,0 3,4 3,5l0 16 1 0 0 -17c0,0 -1,-2 -2,-2l-1 -2c0,0 0,0 0,-2 0,0 0,-1 0,-2 0,-1 0,-2 0,-2 -1,-2 -2,-1 -3,0 0,1 0,2 0,3 0,1 0,2 1,2 0,1 0,1 1,1z"/>
   <path class="fil0" d="M73 2c1,0 1,3 0,3 -1,0 -1,-3 0,-3zm-2 0l0 4c0,1 1,1 1,1l0 21 1 0 0 -21c1,0 2,-1 2,-1l0 -4c0,-1 -1,-2 -2,-2 -1,0 -2,1 -2,2z"/>
   <path class="fil0" d="M121 34c0,0 0,-1 0,-1 0,0 1,1 1,1 0,1 -1,1 -1,0zm8 -3l0 0c-1,0 -3,0 -5,0 0,0 0,0 -1,0 0,0 0,1 -1,1 0,0 0,1 0,1 -1,0 -1,0 -2,0l0 2 2 0 0 -2c0,0 1,-1 1,-1 0,0 0,0 1,0l5 0 0 2 4 0 0 -5 -4 0 0 2z"/>
   <path class="fil0" d="M102 21c1,0 1,1 0,1 0,1 -1,0 0,-1zm9 -10c1,-1 1,1 0,1 0,0 -1,-1 0,-1zm-4 0c0,0 1,-1 1,0 0,1 -1,1 -1,0zm-1 2l1 0 0 3 -5 5 -1 0 0 2 2 0c0,-1 0,-1 1,-2 0,0 0,0 0,-1l4 -3c0,-1 0,-1 0,-1l0 -3c0,-1 0,0 0,0l0 -1 2 0 0 1 2 0 0 -3 -2 0 0 1 -2 0 0 -1 -2 0 0 3z"/>
   <path class="fil0" d="M70 75c2,0 2,3 0,3 -1,0 -1,-3 0,-3zm1 -8c0,0 1,0 1,0 0,1 -1,1 -1,0zm-1 2l1 0 0 0 -1 1 0 3c0,0 -1,0 -1,1 0,1 0,2 0,3 0,0 0,1 0,2 0,1 1,1 2,1 1,0 1,0 1,-1 0,0 0,-2 0,-2 0,-1 0,-2 0,-3 0,0 -1,-1 -1,-1l0 -2 0 -1 0 -1 1 0 0 -3 -2 0 0 3z"/>
   <path class="fil0" d="M60 83c0,0 1,0 1,0 0,1 0,1 -1,1 0,0 -1,-1 0,-1zm0 -5c0,0 -1,-1 -1,-2 0,0 1,-1 1,-1 2,0 2,3 0,3zm1 2c1,-1 1,-2 1,-4 0,-1 0,-2 0,-2 -1,-2 -3,-1 -3,0 0,0 0,0 0,1 0,1 0,3 0,4 0,1 1,1 1,1l0 2 -1 0c0,0 0,2 0,2l2 0 0 -2 0 0 0 -2z"/>
   <path class="fil0" d="M65 75c2,0 2,3 0,3 -1,0 -1,-3 0,-3zm0 -5c0,0 0,0 1,0 0,0 0,1 -1,1 0,0 0,0 0,-1zm-1 2l1 0 0 1c-2,0 -1,3 -1,4 0,1 0,2 0,2 0,1 0,1 1,1 0,0 1,0 2,-1 0,0 0,-1 0,-2 0,-1 0,-3 -1,-4 0,0 0,0 0,0l0 -1 0 0 0 -3 -2 0 0 3z"/>
   <path class="fil0" d="M45 78c-1,0 -1,-1 -1,-2 0,0 1,-1 1,-1 1,0 1,3 0,3zm0 -5c-1,0 -1,0 -1,1 -1,0 -1,2 -1,3 0,0 0,1 1,2 0,1 2,2 2,0 1,-1 1,-2 1,-3 0,0 0,-1 -1,-2 0,-1 0,-1 -1,-1z"/>
   <path class="fil0" d="M133 89c0,-1 0,-1 0,-1 1,-1 2,0 2,1 0,1 -2,1 -2,0zm1 3c1,0 1,0 1,-1 1,0 0,-2 0,-2 0,-1 1,-2 0,-3 0,-1 -2,-1 -3,0 0,1 0,5 0,5 1,1 1,1 2,1z"/>
   <path class="fil1" d="M17 57c0,1 2,1 2,0 0,-2 -2,-2 -2,0z"/>
   <path class="fil1" d="M67 89c0,1 2,1 2,-1 0,-1 -2,-1 -2,1z"/>
   <path class="fil1" d="M17 51c0,1 2,1 2,0 0,-2 -2,-2 -2,0z"/>
   <path class="fil1" d="M128 89c0,1 2,1 2,-1 0,-1 -2,-1 -2,1z"/>
   <path class="fil1" d="M47 89c0,1 2,1 2,-1 -1,-1 -3,-1 -2,1z"/>
   <path class="fil1" d="M102 89c1,1 3,1 2,-1 0,-1 -2,-1 -2,1z"/>
   <path class="fil1" d="M73 2c-1,0 -1,3 0,3 1,0 1,-3 0,-3z"/>
   <path class="fil1" d="M16 89c0,1 2,1 2,-1 0,-1 -2,-1 -2,1z"/>
   <path class="fil1" d="M31 89c1,1 2,1 2,-1 0,-1 -2,-1 -2,1z"/>
   <path class="fil1" d="M102 4c0,1 2,1 2,0 0,-2 -2,-2 -2,0z"/>
   <path class="fil1" d="M62 89c0,1 2,1 2,-1 0,0 -1,-1 -1,-1 -1,1 -1,1 -1,2z"/>
   <path class="fil1" d="M7 87c-1,0 -1,3 0,3 1,0 1,-3 0,-3z"/>
   <path class="fil1" d="M26 89c0,1 2,1 2,-1 0,-1 -2,-1 -2,1z"/>
   <path class="fil1" d="M42 89c0,1 2,1 1,-1 0,-1 -2,-1 -1,1z"/>
   <path class="fil1" d="M57 89c0,1 2,1 2,0 0,-1 -1,-2 -1,-2 -1,0 -1,1 -1,2z"/>
   <path class="fil1" d="M129 2c-1,0 -2,3 0,3 1,0 1,-3 0,-3z"/>
   <path class="fil1" d="M53 2c-2,0 -2,3 0,3 1,0 1,-3 0,-3z"/>
   <path class="fil1" d="M70 75c-1,0 -1,3 0,3 2,0 2,-3 0,-3z"/>
   <path class="fil1" d="M93 5c2,0 2,-3 0,-3 -1,0 -1,3 0,3z"/>
   <path class="fil1" d="M65 75c-1,0 -1,3 0,3 2,0 2,-3 0,-3z"/>
   <path class="fil1" d="M32 5c2,0 2,-3 0,-3 -1,0 -1,3 0,3z"/>
   <path class="fil1" d="M63 2c-1,0 -1,1 -1,2 0,1 2,1 2,0 0,-1 -1,-2 -1,-2z"/>
   <path class="fil1" d="M138 89c0,0 1,1 1,1 1,0 1,-1 1,-2 0,-1 -2,-1 -2,1z"/>
   <path class="fil1" d="M92 89c0,0 1,1 1,1 1,0 1,-1 1,-2 0,-1 -2,-1 -2,1z"/>
   <path class="fil1" d="M1 89c0,0 0,1 1,1 1,0 1,-3 0,-3 -1,0 -1,1 -1,2z"/>
   <path class="fil1" d="M2 5c0,0 1,-1 1,-1 0,-2 -2,-2 -2,0 0,0 0,1 1,1z"/>
   <path class="fil1" d="M119 2c-2,0 -2,3 0,3 1,0 1,-3 0,-3z"/>
   <path class="fil1" d="M17 2c-1,0 -1,3 0,3 1,0 1,-3 0,-3z"/>
   <path class="fil1" d="M68 5c0,0 1,-1 1,-1 0,-2 -2,-2 -2,0 0,0 0,1 1,1z"/>
   <path class="fil1" d="M133 89c0,1 2,1 2,0 0,-1 -1,-2 -2,-1 0,0 0,0 0,1z"/>
   <path class="fil1" d="M77 89c0,0 1,1 1,1 1,0 1,-3 0,-3 0,0 -1,1 -1,1 0,0 0,0 0,1z"/>
   <path class="fil1" d="M148 4c0,1 2,1 2,0 0,-1 0,-2 -1,-2 0,0 -1,1 -1,2z"/>
   <path class="fil1" d="M36 89c1,1 3,1 2,-1 0,0 0,-1 -1,-1 0,0 -1,1 -1,2z"/>
   <path class="fil1" d="M52 89c0,0 0,1 1,1 0,0 1,-1 1,-2 -1,-1 -3,-1 -2,1z"/>
   <path class="fil1" d="M83 2c-1,0 -1,3 0,3 1,0 1,-1 1,-1 0,-1 0,-2 -1,-2z"/>
   <path class="fil1" d="M72 89c0,1 1,1 2,0 0,0 0,-2 -1,-2 -1,0 -1,1 -1,2z"/>
   <path class="fil1" d="M11 89c0,0 1,1 1,1 1,0 1,-3 0,-3 -1,0 -1,1 -1,2z"/>
   <path class="fil1" d="M118 89c0,0 0,1 1,1 1,0 1,-3 0,-3 -1,0 -1,1 -1,2z"/>
   <path class="fil1" d="M143 89c0,1 2,1 2,-1 0,0 -1,-1 -1,0 -1,0 -1,0 -1,0 0,0 0,0 0,1z"/>
   <path class="fil1" d="M7 2c-1,0 -1,1 -1,2 0,1 2,1 2,0 0,-1 0,-2 -1,-2z"/>
   <path class="fil1" d="M144 2c0,0 -1,1 -1,2 0,1 2,1 2,0 0,-1 0,-2 -1,-2z"/>
   <path class="fil1" d="M87 89c0,0 1,1 1,1 1,0 1,-1 1,-2 0,-1 -1,-1 -2,0 0,0 0,0 0,1z"/>
   <path class="fil1" d="M50 75c-1,0 -1,3 0,3 1,0 1,-1 1,-1 0,-1 0,-2 -1,-2z"/>
   <path class="fil1" d="M42 5c1,0 1,-1 1,-1 1,-2 -1,-2 -1,0 0,0 0,1 0,1z"/>
   <path class="fil1" d="M108 5c1,0 1,-1 1,-1 1,-2 -1,-2 -2,0 0,0 1,1 1,1z"/>
   <path class="fil1" d="M124 5c1,0 1,-2 0,-2 0,-1 -1,0 -1,1 0,0 0,1 1,1z"/>
   <path class="fil1" d="M58 5c1,0 1,-2 0,-2 0,-1 -1,0 -1,1 0,0 0,1 1,1z"/>
   <path class="fil1" d="M78 5c1,0 1,-1 1,-1 0,-2 -2,-2 -2,0 0,0 0,1 1,1z"/>
   <path class="fil1" d="M47 5c1,0 2,-1 2,-1 0,-2 -2,-2 -2,0 0,0 0,1 0,1z"/>
   <path class="fil1" d="M60 78c2,0 2,-3 0,-3 0,0 -1,1 -1,1 0,1 1,2 1,2z"/>
   <path class="fil1" d="M27 5c1,0 1,-1 1,-1 0,-2 -2,-2 -2,0 0,0 1,1 1,1z"/>
   <path class="fil1" d="M139 5c1,0 1,-3 0,-3 -1,0 -1,1 -1,2 0,0 0,1 1,1z"/>
   <path class="fil1" d="M82 89c0,0 1,1 1,1 1,0 1,-1 1,-2 0,0 0,-1 -1,-1 0,1 -1,1 -1,2z"/>
   <path class="fil1" d="M22 5c1,0 1,-1 1,-1 0,-1 -1,-2 -1,-1 -1,1 -1,2 0,2z"/>
   <path class="fil1" d="M21 89c0,1 2,1 2,-1 0,0 -1,-1 -1,0 0,0 0,0 -1,0 0,0 0,0 0,1z"/>
   <path class="fil1" d="M88 5c2,0 2,-3 0,-3 0,0 0,1 -1,1 0,0 0,2 1,2z"/>
   <path class="fil1" d="M55 75c0,0 -1,1 -1,2 0,0 1,1 1,1 2,0 2,-3 0,-3z"/>
   <path class="fil1" d="M123 89c0,0 0,1 1,1 1,0 1,-1 1,-2 -1,-1 -2,0 -2,1z"/>
   <path class="fil1" d="M12 5c1,0 1,-3 0,-3 0,0 -1,1 -1,1 0,0 0,2 1,2z"/>
   <path class="fil1" d="M134 5c1,0 1,-3 0,-3 -1,0 -1,1 -1,2 0,0 0,1 1,1z"/>
   <path class="fil1" d="M113 5c2,0 2,-1 1,-2 0,-1 -1,0 -1,1 0,0 0,1 0,1z"/>
   <path class="fil1" d="M45 78c1,0 1,-3 0,-3 0,0 -1,1 -1,1 0,1 0,2 1,2z"/>
   <path class="fil1" d="M148 89c0,0 1,1 1,1 1,0 1,-1 1,-2 0,0 0,0 0,0 -1,-1 -2,0 -2,1z"/>
   <path class="fil1" d="M97 89c0,0 1,1 1,1 1,0 1,-1 1,-2 0,0 0,-1 -1,-1 0,1 -1,1 -1,2z"/>
   <path class="fil1" d="M113 89c0,0 0,1 1,1 0,0 1,-1 0,-2 0,-1 -2,0 -1,1z"/>
   <path class="fil1" d="M37 3c0,0 0,0 0,0 -1,1 0,2 1,2 1,0 1,-2 0,-2 0,-1 0,-1 -1,-1l0 1z"/>
   <path class="fil1" d="M107 89c0,1 2,1 2,0 1,0 0,-2 -1,-2 0,0 -1,1 -1,2z"/>
   <path class="fil1" d="M98 3c0,0 0,0 0,0 -1,1 0,2 1,2 0,0 0,-1 0,-2 0,0 0,-1 -1,0z"/>
   <polygon class="fil1" points="132,24 134,24 134,22 133,22 133,24 132,24 "/>
   <polygon class="fil1" points="129,24 130,24 130,24 129,24 129,23 129,23 "/>
   <polygon class="fil1" points="132,19 133,19 133,20 134,20 134,20 134,18 132,18 "/>
   <polygon class="fil1" points="129,20 129,20 129,19 130,19 130,18 129,18 "/>
   <path class="fil1" d="M132 62l0 1 0 0 0 0 0 -1c0,-1 -1,-1 -1,0l0 0 1 0z"/>
   <polygon class="fil1" points="123,52 124,52 124,51 123,51 123,53 123,53 "/>
   <polygon class="fil1" points="118,51 119,52 119,53 120,53 120,53 120,51 120,51 118,51 "/>
   <path class="fil1" d="M128 62l1 0 0 0c0,0 -1,-1 -1,0 0,0 0,1 0,1l0 0 0 -1z"/>
   <polygon class="fil1" points="118,56 120,56 120,55 119,55 119,56 118,56 "/>
   <polygon class="fil1" points="123,56 124,56 124,56 123,56 123,55 123,55 "/>
   <path class="fil1" d="M107 11c0,1 1,1 1,0 0,-1 -1,0 -1,0z"/>
   <path class="fil1" d="M18 23c0,0 0,1 1,1 0,0 0,-1 -1,-1z"/>
   <path class="fil1" d="M111 11c-1,0 0,1 0,1 1,0 1,-2 0,-1z"/>
   <path class="fil1" d="M28 30c0,1 0,2 1,1 0,0 0,-1 -1,-1z"/>
   <path class="fil1" d="M144 52c0,1 1,1 1,0 0,0 -1,0 -1,0 0,0 0,0 0,0z"/>
   <path class="fil1" d="M102 49c-1,0 0,1 0,1 0,0 1,-1 1,-1 0,0 -1,-1 -1,0z"/>
   <path class="fil1" d="M20 67c0,1 1,1 1,1 1,0 1,-1 0,-1 0,0 -1,0 -1,0z"/>
   <path class="fil1" d="M121 34c0,1 1,1 1,0 0,0 -1,-1 -1,-1 0,0 0,1 0,1z"/>
   <path class="fil1" d="M50 23c0,1 0,1 0,1 1,0 1,-1 0,-1 0,0 0,0 0,0z"/>
   <path class="fil1" d="M145 11c0,1 1,1 1,0 0,0 -1,-1 -1,0z"/>
   <path class="fil1" d="M39 11c0,1 1,1 1,0 0,0 -1,-1 -1,0z"/>
   <path class="fil1" d="M60 83c-1,0 0,1 0,1 1,0 1,0 1,-1 0,0 -1,0 -1,0z"/>
   <path class="fil1" d="M75 84c0,0 0,0 1,0 0,-1 0,-1 0,-1l-1 0 0 0 0 1z"/>
   <path class="fil1" d="M71 67c0,1 1,1 1,0 0,0 -1,0 -1,0z"/>
   <path class="fil1" d="M65 70c0,1 0,1 0,1 1,0 1,-1 1,-1 -1,0 -1,0 -1,0z"/>
   <path class="fil1" d="M82 70c0,1 0,1 1,1 0,0 0,0 0,-1 0,-1 -1,0 -1,0z"/>
   <path class="fil1" d="M28 49c0,0 0,1 1,1 0,0 0,-1 0,-1 0,0 0,-1 -1,0z"/>
   <path class="fil1" d="M102 21c-1,1 0,2 0,1 1,0 1,-1 0,-1z"/>
   <path class="fil1" d="M121 44c0,2 1,1 1,0 0,0 -1,0 -1,0 0,0 0,0 0,0z"/>
  </g>
 </g>
</svg>
