<?xml version="1.0" encoding="UTF-8"?>
<!DOCTYPE svg PUBLIC "-//W3C//DTD SVG 1.1//EN" "http://www.w3.org/Graphics/SVG/1.1/DTD/svg11.dtd">
<!-- Creator: CorelDRAW X7 -->
<svg xmlns="http://www.w3.org/2000/svg" xml:space="preserve" width="2300px" height="2300px" version="1.1" style="shape-rendering:geometricPrecision; text-rendering:geometricPrecision; image-rendering:optimizeQuality; fill-rule:evenodd; clip-rule:evenodd"
viewBox="0 0 129 129"
 xmlns:xlink="http://www.w3.org/1999/xlink">
 <defs>
  <style type="text/css">
   <![CDATA[
    .fil0 {fill:black}
   ]]>
  </style>
 </defs>
 <g id="Vrstva_x0020_1">
  <metadata id="CorelCorpID_0Corel-Layer"/>
  <g id="_2649068362208">
   <g>
    <path class="fil0" d="M0 0l0 0c0,1 0,3 0,4 0,0 0,0 0,0 1,1 1,1 1,1 0,1 0,1 0,2 0,0 0,0 -1,0 0,2 0,3 0,4 0,1 0,1 0,1 1,0 1,0 1,0 0,1 0,1 0,2 0,0 0,0 -1,1 0,1 0,2 0,4 0,0 0,0 0,1 1,0 1,0 1,0 0,1 0,1 0,2 0,0 0,0 -1,0 0,0 0,0 1,0 2,3 4,5 6,7 0,0 1,0 1,0 5,0 11,0 17,0 0,-2 0,-5 0,-8 0,0 0,0 0,0 1,-1 2,-2 2,-3 0,0 0,-1 0,-1 0,-1 1,-1 1,-1 1,0 1,0 1,0 2,-2 4,-4 6,-5 0,0 0,-1 0,-1 0,0 0,0 0,-1 0,0 0,-1 1,-1 0,0 1,0 1,0 1,-1 2,-2 3,-3 0,0 0,0 0,0 0,-2 0,-3 0,-5l1 0c0,2 0,3 0,5 0,0 0,0 0,0 -1,1 -2,2 -3,3 0,0 -1,1 -1,1 0,0 0,0 0,1 0,0 0,1 -1,1 0,0 0,0 -1,0 0,0 -1,1 -2,2 -1,1 -2,2 -3,3 0,0 0,0 0,0 0,1 0,1 0,1 0,1 -1,1 -1,1 -1,0 -1,0 -1,0 -1,1 -2,2 -2,2 0,1 -1,1 -1,1 0,3 0,6 0,9 0,0 0,0 0,0 -6,0 -11,0 -17,0 0,0 -1,0 -1,0 -2,-2 -5,-5 -7,-7l0 -2c0,0 1,0 1,0 0,0 -1,-1 -1,-1l0 -6c0,0 1,-1 1,-1 -1,0 -1,0 -1,0l0 -7c0,0 1,0 1,0 -1,-1 -1,-1 -1,-1l0 -5 0 0zm36 9c0,0 -1,0 -1,1 1,0 1,0 1,0 1,0 1,-1 0,-1 0,0 0,0 0,0l0 0zm-8 8c0,0 0,0 0,0 0,0 0,1 1,1 0,-1 0,-1 0,-1 0,0 -1,-1 -1,0z"/>
   </g>
   <path class="fil0" d="M3 0l0 0c0,5 0,11 0,16 0,1 0,2 0,2 7,0 14,0 20,0 1,0 1,0 1,0 0,0 0,0 0,0 3,-2 5,-4 7,-7 2,-2 4,-4 6,-6 0,0 0,0 0,0 0,-2 0,-3 0,-5l1 0c0,2 0,3 0,5 0,0 0,0 -1,1 -1,2 -3,3 -5,5 -2,2 -4,4 -6,6 -1,1 -1,2 -2,2 0,0 0,0 -1,0 -7,0 -13,0 -20,0 0,0 0,0 0,0 0,-6 0,-13 0,-19z"/>
   <g>
    <path class="fil0" d="M5 0l1 0c0,0 0,0 0,1 1,0 1,0 1,0 0,1 0,1 0,2 0,0 -1,0 -1,0 0,2 0,3 0,5 0,0 0,0 0,0 1,0 1,1 1,1 0,0 0,1 0,1 0,1 -1,1 -1,1 0,1 0,3 0,4 2,0 4,0 6,0 4,0 8,0 12,0 0,0 0,0 0,0 1,0 1,-1 1,-1 0,0 0,-1 0,-1 0,-1 1,-1 1,-1 1,0 1,0 1,0 2,-2 4,-4 6,-5 0,0 0,-1 0,-1 0,0 0,-1 0,-1 0,0 1,-1 1,-1 0,-1 0,-3 0,-4l1 0c0,1 0,3 0,4 0,0 0,1 0,1 0,0 1,0 0,1 0,1 0,1 -1,1 0,0 0,0 -1,0 -1,1 -2,2 -3,3 -1,1 -1,2 -2,2 0,1 0,1 0,1 0,1 -1,2 -1,2 -1,0 -1,0 -1,-1 -1,1 -1,1 -2,2 0,0 0,0 0,0 -6,0 -12,0 -19,0 0,-2 1,-3 0,-5 0,0 0,0 0,-1 -1,0 -1,-1 -1,-1 1,0 1,-1 1,-1 0,-1 0,-3 0,-5 0,0 0,0 0,0 -1,0 -1,-1 -1,-2 1,0 1,0 1,0 0,-1 0,-1 0,-1l0 0zm0 1c0,1 0,1 0,1 0,0 1,0 1,0 0,0 0,0 0,-1 0,0 0,0 -1,0l0 0zm29 4c0,0 -1,1 0,1 0,0 0,0 1,0 0,0 0,0 0,-1 -1,0 -1,0 -1,0l0 0zm-29 4c0,0 0,0 0,1 0,0 1,0 1,0 0,0 0,-1 0,-1 0,0 0,0 -1,0l0 0zm21 4c0,0 0,0 0,0 0,1 1,1 1,0 0,0 0,0 -1,0z"/>
   </g>
   <path class="fil0" d="M8 0l1 0c0,4 0,8 0,12 0,0 1,0 1,0 5,0 9,0 14,0 0,0 0,0 0,0 2,-2 4,-4 7,-6 0,0 0,0 0,0 0,-2 0,-4 0,-6l0 0c0,2 0,4 0,6 0,0 0,0 0,0 -2,2 -4,5 -7,7 0,0 0,0 0,0 -5,0 -10,0 -16,0 0,0 0,-1 0,-1 0,-4 0,-8 0,-12z"/>
   <g>
    <path class="fil0" d="M11 0l1 0c0,1 0,2 0,3 0,2 0,4 0,6 0,-1 1,-1 1,-1 1,0 1,0 1,1 1,0 1,0 1,0 0,0 0,0 1,0 0,0 0,0 0,0 0,-1 1,-1 2,-1 0,0 0,1 0,1 1,0 1,0 1,0 1,0 1,0 1,0 0,-1 0,-1 1,-1 0,0 1,0 1,1 0,0 0,0 0,0 1,0 1,0 1,0 0,0 1,-1 1,-1 0,0 1,0 1,0 1,0 2,-1 2,-2 1,0 1,0 1,0 0,-2 0,-4 0,-6l0 0c0,2 0,4 0,6 0,0 0,0 0,0 -1,1 -1,2 -2,3 0,0 0,0 0,0 0,1 0,2 -1,2 0,0 -1,0 -1,0 0,0 0,-1 -1,-1 0,0 0,0 -1,0 0,0 0,1 -1,1 0,0 -1,0 -1,-1 0,0 0,0 0,0 -1,0 -1,0 -2,0 0,0 0,0 0,0 0,0 0,1 -1,1 0,0 0,0 -1,0 0,-1 0,-1 0,-1 -1,0 -1,0 -2,0 0,0 0,1 0,1 -1,0 -2,0 -2,-1 0,0 0,0 -1,0 0,-1 0,-2 0,-3 0,-2 0,-5 0,-7l0 0zm10 9c0,0 -1,0 -1,0 0,1 1,1 1,1 0,0 0,0 0,-1 0,0 0,0 0,0l0 0zm4 0c0,0 0,0 -1,0 0,0 0,1 0,1 1,0 1,0 1,0 0,0 0,-1 0,-1 0,0 0,0 0,0l0 0zm-12 0c0,0 0,0 0,0 0,1 0,1 0,1 1,0 1,-1 1,-1 0,0 -1,0 -1,0l0 0zm4 0c0,0 0,0 0,0 -1,1 0,1 0,1 0,0 1,0 1,0 0,-1 0,-1 -1,-1 0,0 0,0 0,0z"/>
   </g>
   <g>
    <path class="fil0" d="M14 0l1 0c0,1 0,3 0,4 1,0 1,1 1,1 1,1 0,1 0,1 3,0 5,0 8,0 0,0 0,0 0,0 0,0 0,0 1,0 0,0 0,-1 0,-1 0,-2 0,-3 0,-5l0 0c0,2 0,4 0,6 0,0 0,0 0,0 0,0 0,1 -1,1 0,0 0,0 0,0 -2,0 -3,0 -4,0 -2,0 -4,0 -6,0 0,0 0,0 0,0 0,0 0,-1 0,-1 0,0 0,-1 0,-1 0,0 0,0 0,-1 0,-1 0,-3 0,-4l0 0zm1 5c0,0 0,0 0,0 0,1 0,1 0,1 0,0 1,0 1,0 0,-1 -1,-1 -1,-1z"/>
   </g>
   <g>
    <path class="fil0" d="M43 0l1 0c0,0 0,0 0,1 0,0 0,0 1,0 0,0 0,1 0,1 0,0 0,1 -1,1 0,0 0,0 0,0 0,1 0,1 0,2 0,0 0,0 0,0 -5,5 -10,11 -15,16 -1,0 -1,0 -1,0 0,4 0,8 0,12 -1,0 -2,0 -3,0 -5,0 -11,0 -17,0 0,0 0,0 -1,0 0,0 0,0 0,0 -2,-3 -5,-5 -7,-7l0 -1c2,2 5,5 7,7 0,0 1,0 1,0 6,0 13,0 20,0 0,0 0,0 0,0 0,-4 0,-8 0,-11 0,0 0,0 0,-1 5,-5 10,-10 15,-15 0,0 0,0 0,0 0,-1 0,-1 0,-2 0,0 0,0 0,0 -1,0 -1,-1 -1,-1 0,-1 1,-1 1,-1 0,-1 0,-1 0,-1l0 0zm0 1c0,1 0,1 0,1 1,0 1,0 1,0 0,0 0,0 0,-1 0,0 0,0 -1,0z"/>
   </g>
   <g>
    <path class="fil0" d="M46 0l1 0c0,2 0,3 0,5 0,0 0,1 -1,1 -5,5 -10,10 -15,15 0,0 0,0 0,0 0,5 0,9 0,14 0,0 1,0 1,1 0,0 0,0 0,1 -1,0 -1,0 -2,0 0,0 -1,0 -1,0 0,0 0,-1 0,-1 0,0 -1,0 -1,0 0,1 0,1 -1,1 0,0 -1,0 -1,0 -1,0 -1,-1 -1,-1 0,0 -1,0 -1,0 0,0 0,1 0,1 0,0 -1,0 -1,0 -1,0 -1,0 -1,0 0,0 -1,-1 -1,-1 0,0 0,0 -1,0 0,0 0,1 0,1 0,0 -1,0 -1,0 -1,0 -1,0 -1,-1 -1,0 -1,0 -1,0 -1,0 -1,1 -1,1 -1,1 -1,0 -2,0 0,0 0,-1 0,-1 -1,0 -1,0 -1,0 0,1 -1,1 -1,1 -1,0 -2,0 -2,0 0,-1 0,-1 0,-1 0,0 -1,0 -1,0 0,0 0,1 0,1 -1,0 -1,0 -2,0 0,0 -1,0 -1,-1 0,0 0,-1 1,-1 -1,-1 -2,-2 -3,-3 -1,-1 -2,-2 -3,-3 0,1 -1,1 -1,1l0 -1c0,0 1,0 1,-1 -1,0 -1,0 -1,0l0 -1c0,0 1,0 1,0 0,1 0,1 0,1 0,1 0,1 0,1 0,0 1,1 1,1 1,1 2,2 3,2 0,1 1,2 2,3 0,0 1,0 1,0 0,0 0,0 1,0 0,0 1,0 1,0 0,0 0,0 1,0 0,0 1,0 1,0 0,0 0,0 1,0 0,0 1,0 1,0 0,0 1,0 1,0 1,0 1,0 1,0 1,0 1,0 1,0 1,0 1,0 1,0 0,0 1,0 1,0 1,0 1,0 1,0 0,0 1,0 1,0 0,0 1,0 1,0 0,0 1,0 2,0 0,0 0,0 0,0 1,0 1,0 1,0 1,0 1,0 1,0 1,0 1,0 2,0 0,0 0,0 0,0 1,0 1,0 1,0 0,0 1,0 1,0 0,0 0,0 1,0 0,-5 0,-10 0,-14 0,0 0,0 0,-1 5,-5 10,-10 15,-15 0,0 0,0 0,0 0,-2 0,-3 0,-5l0 0zm-39 36c0,0 0,0 0,0 0,1 1,1 1,0 0,0 0,0 0,0 0,0 0,-1 -1,0l0 0zm4 -1c0,1 0,1 0,1 0,0 0,1 0,1 1,0 1,-1 1,-1 0,0 0,-1 -1,-1l0 0zm4 0c0,1 -1,1 0,1 0,1 1,1 1,0 0,0 -1,-1 -1,-1l0 0zm4 0c-1,1 -1,1 0,2 0,0 0,-1 1,-1 0,0 -1,-1 -1,-1l0 0zm4 1c-1,0 -1,0 -1,0 0,1 1,1 1,0 0,0 0,0 0,0 0,-1 0,-1 0,0l0 0zm3 0c0,0 0,0 0,0 0,0 0,1 1,1 0,0 0,-1 0,-1 0,0 0,-1 -1,0l0 0zm4 0c0,0 0,0 0,0 0,0 0,0 0,0 0,1 1,1 1,0 0,0 0,0 0,0 0,0 -1,-1 -1,0z"/>
   </g>
   <g>
    <path class="fil0" d="M53 0l0 0c0,1 1,1 0,2 0,0 -1,1 -2,2 0,0 0,0 -1,1 1,0 1,0 1,1 0,1 -1,1 -2,1 0,0 0,0 -1,0 -1,1 -3,3 -5,5 0,0 0,0 0,0 0,1 0,1 0,2 0,0 -1,1 -1,1 -1,0 -1,-1 -1,-1 -2,2 -3,3 -5,5 0,0 -1,1 -1,1 0,0 0,0 0,1 1,0 0,1 0,1 0,0 0,0 -1,0 0,2 0,3 0,5 1,0 1,0 1,0 0,1 1,1 0,2 0,0 0,0 0,1 0,0 0,0 -1,0 0,1 0,3 0,5 1,0 1,0 1,1 1,0 0,1 0,1 0,0 0,0 -1,0 0,1 0,1 0,1 0,0 -1,1 -1,1 0,0 0,0 0,0 -9,0 -17,0 -25,0 0,0 -1,0 -1,0 -2,-3 -5,-5 -7,-7l0 -1c2,2 5,5 7,7 0,0 1,0 1,0 8,0 16,0 25,0 0,0 0,0 0,0 1,0 1,-1 1,-1 -1,0 -1,0 -1,0 0,0 0,-1 0,-2 0,0 0,0 1,0 0,-2 0,-4 0,-5 -1,0 -1,-1 -1,-1 0,0 0,-1 0,-1 0,0 0,-1 1,-1 0,0 0,0 0,-1 0,-1 0,-2 0,-4 0,0 -1,0 -1,0 0,-1 0,-2 0,-2 1,-1 1,0 2,0 0,-1 0,-1 1,-1 1,-2 3,-4 4,-5 0,-1 0,-1 1,-1 0,-1 0,-1 1,-1 0,0 0,0 0,0 1,0 1,-1 2,-1 1,-1 2,-2 3,-3 0,-1 1,-1 1,-2 0,0 0,0 0,-1 0,0 0,0 1,-1 0,0 1,0 1,0 1,0 2,-1 2,-2 1,0 1,0 1,-1 0,0 0,-1 0,-1l0 0zm-4 5c0,0 0,1 0,1 0,0 1,0 1,0 0,0 0,-1 0,-1 0,0 -1,0 -1,0l0 0zm-7 8c-1,0 -1,0 -1,1 0,0 1,0 1,0 0,-1 0,-1 0,-1l0 0zm-8 7c0,0 -1,1 0,1 0,1 1,0 1,0 0,0 -1,-1 -1,-1l0 0zm0 8c0,0 -1,0 0,1 0,0 1,0 1,0 0,-1 -1,-1 -1,-1l0 0zm0 8c0,0 0,0 0,0 0,0 0,1 0,1 0,0 1,-1 1,-1 0,0 0,0 0,0 -1,0 -1,-1 -1,0z"/>
   </g>
   <g>
    <path class="fil0" d="M56 0l0 0c0,0 0,1 0,1 2,0 4,0 6,0 1,0 2,0 3,0 2,2 3,3 4,5 3,3 6,6 9,8 2,2 4,4 6,6 0,0 0,1 0,1 0,6 0,12 0,18 7,0 13,0 19,0 0,0 0,0 0,0 1,0 1,0 1,-1 4,-4 9,-8 13,-12 0,0 0,0 0,0 0,-9 0,-17 0,-26l0 0c0,9 0,17 0,26 1,0 3,0 4,0 0,0 0,0 1,0 2,3 5,5 7,8l0 0c-3,-3 -5,-5 -8,-8 0,0 0,0 0,0 -1,0 -3,0 -4,0 0,0 0,0 0,0 -4,4 -9,9 -13,13 0,0 0,0 0,1 0,1 0,1 0,2 0,1 0,1 0,1 5,5 10,10 15,15 0,0 0,0 0,0 1,0 1,0 2,0 0,0 0,0 0,0 3,-3 5,-6 8,-8l0 0c-3,3 -5,5 -8,8 0,0 0,0 0,0 -1,0 -1,0 -2,0 0,14 0,27 0,41 0,1 0,3 0,5 0,0 0,0 0,1 -1,0 -1,0 -2,1 0,2 0,4 0,6 0,6 0,11 0,17l0 0c0,-8 0,-15 0,-23 0,0 0,0 0,0 1,-1 1,-1 2,-2 0,0 0,-1 0,-1 0,-15 0,-30 0,-45 0,0 0,0 0,0 -4,-4 -8,-7 -11,-11 -2,-2 -3,-3 -5,-5 0,-1 0,-1 0,-2 0,0 -1,0 -2,0 -5,0 -11,0 -16,0 0,0 -1,0 -1,0 -2,2 -5,4 -7,7 0,1 0,3 0,5 0,12 0,24 0,37 0,0 0,0 0,0 -1,1 -3,3 -5,5 0,0 0,0 0,0 -3,0 -7,0 -11,0 0,0 0,0 0,0 -2,2 -5,4 -7,7 0,0 0,0 0,0 0,1 0,2 0,3 0,0 0,0 0,0 1,1 1,1 2,2 0,0 0,0 0,0 0,2 0,3 0,5 0,6 0,12 0,18l0 0c0,-8 0,-15 0,-23 0,0 0,0 0,0 -1,-1 -2,-1 -2,-2 0,0 0,0 0,0 0,-1 0,-2 0,-3 -2,0 -5,0 -7,0 0,0 0,0 0,0 -3,-3 -7,-7 -10,-10 0,0 0,0 0,-1 0,-6 0,-12 0,-19 -1,1 -1,1 -1,0 -1,0 -2,-1 -1,-1 0,0 0,-1 0,-1 -1,0 -1,-1 -2,-2 0,0 0,-1 0,-1 0,-8 0,-16 0,-24 -7,0 -14,0 -20,0 -2,0 -4,0 -5,0 0,0 0,0 0,0 -3,3 -5,5 -8,8l0 0c2,-3 5,-5 7,-7 0,0 0,0 0,-1 0,0 0,0 0,-1 0,0 0,0 0,0 -2,-2 -5,-5 -7,-7l0 0c2,2 5,5 7,7 0,0 0,0 1,0 8,0 16,0 25,0 0,0 0,0 0,0 1,-1 2,-2 3,-3 0,0 1,0 1,0 0,-6 0,-12 0,-17 0,0 0,0 0,0 1,-2 2,-3 3,-4 4,-4 7,-7 11,-11 1,-1 3,-3 5,-4 0,-1 0,-1 0,-2l0 0zm-7 8c-3,4 -7,8 -11,11 0,1 -1,1 -1,2 0,2 0,4 0,5 0,4 0,8 0,12 5,0 10,0 16,0 0,0 0,0 0,0 0,0 1,0 1,1 0,0 0,0 1,0 0,-1 1,0 1,1 0,0 0,0 0,1 2,2 4,4 6,5 0,0 0,0 0,0 1,0 2,0 2,1 0,0 0,0 0,1 0,0 0,0 0,0 0,1 1,1 1,2 1,0 3,0 4,0 1,-1 2,-2 3,-3 0,0 0,0 0,0 2,0 3,0 5,0 0,0 0,0 0,-1 1,0 1,-1 2,-1 2,-2 3,-4 5,-5 0,0 0,-1 0,-1 0,-5 0,-11 0,-17 0,0 0,-1 0,-1 -2,-2 -4,-4 -5,-6 -2,-2 -4,-3 -6,-5 -2,-3 -5,-5 -8,-8 0,0 0,0 0,0 -3,0 -6,0 -9,0 -2,2 -4,4 -7,6l0 0zm-12 30c-1,1 -3,2 -4,3 0,0 0,1 0,1 0,8 0,17 0,25 1,1 1,2 2,2 0,0 1,0 1,0 1,0 1,0 1,1 0,0 0,1 0,1 3,0 7,0 10,0 0,0 0,0 0,0 2,2 4,4 6,6 0,0 0,0 0,0 2,0 4,0 6,0 0,0 1,0 1,0 3,-3 6,-6 9,-10 0,0 0,0 0,0 0,-5 0,-11 0,-17 -1,0 -2,0 -4,0 0,0 0,0 0,0 -1,0 -1,-1 -2,-1 0,0 0,0 -1,0 0,0 -1,-1 -1,-1 0,-1 0,-1 0,-1 0,-1 -1,-2 -2,-3 -1,-1 -2,-2 -3,-3 -1,0 -1,0 -1,0 -1,0 -1,0 -1,-1 0,0 0,-1 0,-1 0,0 -1,-1 -1,-1 -2,0 -4,0 -5,0 -4,0 -8,0 -11,0l0 0zm18 1c-1,0 -1,1 0,1 0,0 0,0 0,0 1,0 1,0 0,-1 0,0 0,0 0,0l0 0zm7 8c0,0 0,0 0,1 0,0 1,0 1,0 0,0 0,-1 0,-1 0,0 0,0 -1,0l0 0zm10 0c-1,1 -2,2 -3,3 0,0 0,0 0,0 0,6 0,12 0,17 -3,3 -6,7 -9,10 0,0 0,0 0,0 0,4 0,8 0,12 0,0 0,0 0,0 0,0 1,1 1,1 0,0 0,1 0,1 0,1 0,1 0,2 4,0 8,0 11,0 2,-1 3,-3 5,-4 0,0 0,0 0,0 0,-7 0,-14 0,-21 0,-7 0,-14 0,-21 -2,0 -3,0 -4,0 -1,0 -1,0 -1,0l0 0zm-36 23c0,0 -1,0 0,1 0,0 0,0 1,-1 0,0 -1,0 -1,0l0 0zm1 1c0,3 0,6 0,9 0,3 0,7 0,11 2,1 3,3 5,4 2,2 3,4 5,6 2,0 5,0 7,0 2,-3 5,-5 7,-7 0,-1 0,-1 0,-1 0,-1 0,-2 0,-2 0,-1 0,-1 0,-1 -1,0 -1,-1 -2,-1 0,0 0,0 0,0 0,-4 0,-8 0,-12 -2,0 -4,0 -6,0 0,0 -1,0 -1,-1 -1,-1 -3,-3 -4,-4 -1,0 -1,-1 -1,-1 -2,0 -3,0 -5,0 -1,0 -3,0 -5,0z"/>
   </g>
   <g>
    <path class="fil0" d="M66 0l1 0c1,2 3,3 4,5 1,-1 1,-1 1,-1 1,0 1,1 1,2 0,0 0,0 0,0 2,2 3,4 5,5 0,0 1,1 1,1 0,0 1,0 1,0 0,0 1,1 1,1 0,0 0,1 0,1 1,1 2,2 3,3 0,0 0,0 1,1 0,0 1,0 1,0 9,0 19,0 28,0 0,-4 0,-7 0,-10 0,-3 0,-5 0,-8l1 0c0,3 0,6 0,9 0,3 0,6 0,10 -1,0 -2,0 -3,0 -9,0 -18,0 -27,0 0,0 0,0 -1,-1 -1,-1 -2,-2 -4,-4 0,1 0,1 0,1 -1,0 -2,-1 -2,-2 0,0 0,0 0,0 0,-1 -1,-2 -2,-3 -1,-1 -2,-2 -3,-3 0,0 -1,0 -1,0 0,0 -1,0 -1,-1 0,-1 0,-1 0,-1 0,0 0,0 -1,-1 -1,-1 -3,-3 -4,-4l0 0zm6 5c0,0 -1,0 0,1 -1,0 0,0 0,0 1,0 1,0 1,-1 -1,0 -1,0 -1,0l0 0zm8 8c-1,0 -1,0 -1,1 1,0 1,0 1,-1 0,0 0,0 0,0z"/>
   </g>
   <path class="fil0" d="M69 0l1 0c1,1 2,2 3,4 2,2 4,4 6,6 2,1 4,3 5,4 0,1 0,1 1,1 8,0 17,0 26,0 0,-3 0,-6 0,-10 0,-1 0,-3 0,-5l1 0c0,4 0,9 0,13 0,1 0,2 0,3 -9,0 -18,0 -27,0 0,0 -1,-1 -1,-1 -1,-1 -2,-2 -3,-3 -2,-2 -4,-4 -6,-6 -2,-2 -4,-4 -6,-6z"/>
   <g>
    <path class="fil0" d="M72 0l1 0c0,0 0,0 0,1 1,0 1,0 1,0 1,0 1,0 1,1 0,0 0,0 0,0 1,1 2,2 3,3 1,1 2,2 3,3 0,0 1,0 1,0 0,0 1,1 1,1 0,1 0,1 0,1 0,1 1,1 1,1 0,1 0,1 1,1 7,0 14,0 22,0 0,0 1,0 1,0 0,-4 0,-8 0,-12l1 0c0,4 0,7 0,11 0,0 0,1 0,2 -7,0 -13,0 -20,0 -1,0 -3,0 -4,0 -1,-1 -1,-1 -1,-1 -1,-1 -1,-1 -2,-1 0,0 0,0 -1,0 0,0 -1,-1 -1,-1 0,-1 0,-1 0,-1 0,-1 -1,-2 -2,-3 -1,-1 -2,-2 -3,-3 0,0 -1,0 -1,0 -1,0 -1,0 -1,-1 0,0 0,-1 0,-1 0,0 -1,-1 -1,-1l0 0zm2 1c-1,1 -1,1 -1,1 1,0 1,1 1,0 0,0 0,0 1,0 0,0 -1,0 -1,-1 0,0 0,0 0,0l0 0zm7 8c0,0 0,0 0,1 0,0 0,0 1,0 0,0 0,-1 0,-1 0,0 -1,0 -1,0z"/>
   </g>
   <g>
    <path class="fil0" d="M75 0l1 0c1,2 3,4 5,5 1,2 2,3 3,4 1,-1 1,-1 2,-1 0,0 0,1 1,1 0,0 0,0 1,0 0,-1 1,-1 1,-1 1,0 1,0 1,1 1,0 1,0 2,0 0,0 0,-1 0,-1 1,0 1,0 2,0 0,1 0,1 0,1 1,0 1,0 1,0 1,0 1,0 1,0 0,-1 1,-1 2,0 0,0 0,0 0,0 0,0 1,0 1,0 0,0 1,-1 1,-1 0,0 1,0 1,0 0,0 1,1 1,1 0,0 1,0 1,0 0,0 1,-1 1,-1 0,0 1,0 1,0 0,0 0,0 0,-1 0,-2 0,-5 0,-7l1 0c0,2 0,3 0,5 0,1 0,3 0,5 0,0 0,0 0,0 0,0 -1,1 -1,1 -1,0 -1,0 -2,-1 0,0 0,0 0,0 0,0 -1,0 -1,0 0,0 0,0 0,0 -1,1 -1,1 -2,1 0,0 -1,-1 -1,-1 0,0 -1,0 -1,0 0,0 0,0 -1,1 0,0 -1,0 -1,-1 0,0 -1,0 -1,0 0,0 0,0 -1,0 0,0 0,0 0,0 0,1 -1,1 -2,1 0,0 0,-1 0,-1 -1,0 -1,0 -2,0 0,0 0,0 0,1 -1,0 -1,0 -2,-1 0,0 0,0 0,0 -1,0 -1,0 -1,0 0,0 0,0 -1,0 0,1 0,1 -1,1 0,0 -1,-1 -1,-1 0,0 0,-1 0,-1 0,0 0,0 -1,-1 -2,-2 -5,-5 -8,-8l0 0zm10 9c0,0 0,0 0,0 0,1 0,1 0,1 0,0 1,0 1,0 0,0 0,-1 0,-1 0,0 0,0 -1,0l0 0zm4 0c0,0 0,1 0,1 0,0 0,0 0,0 0,0 1,0 1,0 0,-1 0,-1 0,-1 -1,0 -1,0 -1,0l0 0zm4 0c-1,0 -1,0 -1,1 0,0 1,0 1,0 0,0 1,-1 0,-1 0,0 0,0 0,0l0 0zm3 0c0,0 0,0 0,1 0,0 1,0 1,0 0,0 0,-1 0,-1 0,0 0,0 -1,0l0 0zm4 0c0,0 0,0 0,1 0,0 0,0 1,0 0,0 0,-1 0,-1 0,0 -1,0 -1,0l0 0zm4 0c0,0 0,0 0,1 0,0 0,0 0,0 0,0 1,0 1,0 0,0 0,-1 0,-1 0,0 -1,0 -1,0z"/>
   </g>
   <g>
    <path class="fil0" d="M78 0l1 0c1,2 3,4 5,6 0,0 0,0 1,0 5,0 10,0 16,0 0,0 0,0 0,0 0,-1 0,-1 0,-1 1,0 1,-1 1,-1 0,-1 0,-3 0,-4l1 0c0,1 0,3 0,4 0,0 0,1 0,1 1,0 1,1 1,1 -1,1 -1,1 -2,1 0,0 0,0 -1,0 -5,0 -11,0 -16,0 0,0 -1,0 -1,0 -2,-3 -4,-5 -6,-7l0 0zm24 5c0,0 0,1 0,1 0,0 1,0 1,0 0,0 0,-1 -1,-1z"/>
   </g>
   <path class="fil0" d="M81 0l1 0c1,1 1,2 2,3 0,0 1,0 1,0 5,0 9,0 14,0 0,-1 0,-2 0,-3l1 0c0,1 0,2 0,4 -4,0 -7,0 -11,0 -2,0 -3,0 -4,0 -1,-1 -1,-1 -1,-1 -1,-1 -2,-2 -3,-3z"/>
   <path class="fil0" d="M84 0l13 0c0,0 0,0 0,1 -4,0 -8,0 -12,0 0,0 0,0 -1,0 0,-1 0,-1 0,-1z"/>
   <path class="fil0" d="M120 0l0 0c0,8 0,15 0,23 1,0 1,0 1,0 1,1 3,3 5,5 1,1 2,2 3,3l0 1c-3,-3 -5,-6 -8,-9 0,0 0,0 0,0 -1,0 -1,0 -1,0 0,-7 0,-15 0,-23z"/>
   <g>
    <path class="fil0" d="M123 0l0 0c0,0 0,0 0,1 1,0 1,0 1,0 1,0 1,1 0,2 0,0 0,0 -1,0 0,2 0,4 0,5 1,0 1,1 2,1 0,1 -1,1 -1,2 0,0 0,0 -1,0 0,1 0,3 0,5 1,0 1,0 1,0 1,1 1,2 0,2 0,0 0,0 -1,0 0,2 0,3 0,4 0,0 0,0 1,0 1,1 2,2 3,3 0,1 1,2 1,2 1,0 1,0 1,0l0 1c0,0 -1,0 -1,1 0,0 1,0 1,0l0 1c0,0 -1,0 -1,0 0,-1 0,-1 0,-2 0,0 0,0 0,0 -2,-2 -4,-4 -5,-6 0,0 0,0 0,0 0,-1 0,-2 0,-4 -1,0 -1,-1 -1,-1 0,-1 0,-1 1,-1 0,-2 0,-3 0,-5 0,0 -1,0 -1,-1 0,0 0,-1 0,-1 0,0 0,0 1,-1 0,-1 0,-3 0,-5 0,0 -1,0 -1,0 0,-1 0,-1 0,-2 0,0 0,0 1,0 0,-1 0,-1 0,-1l0 0zm0 1c0,1 0,1 0,1 0,0 1,0 1,0 0,0 0,0 0,-1 -1,0 -1,0 -1,0l0 0zm0 8c0,0 0,0 0,0 0,1 0,1 0,1 1,0 1,0 1,-1 0,0 -1,0 -1,0l0 0zm0 8c0,0 0,0 0,1 0,0 1,-1 1,-1 0,0 -1,-1 -1,0z"/>
   </g>
   <path class="fil0" d="M126 0l0 0c0,7 0,15 0,22 0,0 1,1 1,1 1,0 1,1 2,2l0 1c-1,-1 -2,-3 -3,-4 -1,0 0,0 0,0 0,-8 0,-15 0,-22z"/>
   <path class="fil0" d="M128 0l1 0 0 5c0,0 -1,0 -1,1 0,0 1,0 1,0l0 7c0,0 0,0 -1,0 0,0 0,0 1,1 0,0 0,0 0,0l0 6c0,0 -1,1 -1,1 0,0 1,0 1,0l0 2c0,0 0,-1 0,-1 -1,0 -1,0 -1,0 0,-1 0,-1 0,-2 0,0 0,0 0,0 1,-2 1,-4 0,-5 0,-1 0,-1 0,-1 0,-1 0,-1 0,-2 0,0 0,0 0,0 1,-1 0,-2 0,-3 0,0 0,-1 0,-2 0,0 0,-1 0,-1 0,0 0,-1 0,-1 0,0 0,0 0,-1 1,-1 0,-3 0,-4z"/>
   <g>
    <path class="fil0" d="M56 4c0,0 0,0 0,0 3,0 6,0 9,0 2,1 3,3 5,4 0,0 0,0 1,0 0,1 1,1 1,2 -1,0 -1,0 -1,0 2,1 3,3 4,4 1,0 1,1 2,2 0,0 1,0 1,0 1,0 1,0 1,1 0,0 0,0 0,1 1,1 2,1 3,2 0,0 0,1 0,1 0,1 0,1 0,2 0,0 1,1 1,1 0,1 0,1 0,1 -1,1 -1,1 -1,1 0,2 0,3 0,5 0,0 1,0 1,1 0,0 0,1 -1,1 0,0 0,0 0,1 0,1 0,3 0,5 0,0 1,0 1,0 0,1 0,2 -1,2 0,0 -1,0 -1,0 0,0 0,0 0,0 -1,1 -2,1 -3,2 0,1 -1,1 -1,2 -1,0 -1,0 -2,0 0,0 0,0 0,-1 -1,0 -2,0 -3,0 -1,1 -2,2 -3,4 0,0 0,0 0,0 0,0 -1,0 -1,0 0,0 -1,0 -1,0 0,1 -1,1 -1,1 -1,-1 -1,-1 -1,-1 -1,-1 -1,-2 -2,-3 -3,-2 -5,-4 -7,-7 -1,-1 -2,-2 -3,-3 0,0 0,0 0,0 -4,0 -8,0 -12,0 -1,0 -1,0 -2,0 0,0 0,-1 0,-2 0,0 -1,0 -1,-1 0,0 1,-1 1,-1 0,-1 0,-1 0,-2 0,-1 0,-2 0,-3 0,0 0,-1 0,-1 -1,-1 0,-1 0,-1 0,-1 0,-2 0,-3 0,-1 1,-1 1,-1 5,-6 11,-11 16,-16l0 0zm0 1c-6,5 -11,10 -16,16 0,1 0,1 0,2 0,0 1,1 1,1 0,1 0,1 0,1 0,1 -1,1 -1,1 0,1 0,1 0,2 0,1 0,2 0,3 0,0 0,0 1,0 0,0 0,1 0,1 0,1 0,1 0,1 -1,1 -1,1 -1,1 0,0 0,0 0,1 4,0 8,0 13,0 0,0 0,0 0,0 1,1 2,2 3,3 1,1 2,2 3,3 2,2 4,4 6,6 0,-1 1,-1 1,-1 1,0 1,0 2,1 0,0 1,0 1,0 1,-1 2,-2 3,-3 0,0 0,0 0,0 1,0 2,0 3,0 0,-1 0,-1 0,-1 0,-1 1,-1 1,-1 1,1 1,1 1,1 0,0 0,0 0,0 1,-1 2,-2 3,-3 0,0 0,0 0,0 0,0 0,-1 0,-1 0,0 1,0 1,0 0,-2 0,-4 0,-5 0,-1 -1,-1 -1,-2 0,0 1,-1 1,-1 0,-2 0,-3 0,-5 0,0 -1,-1 -1,-1 0,0 0,-1 1,-1 0,0 0,-1 0,-1 0,0 0,-1 0,-2 0,0 0,0 0,0 -1,-1 -2,-2 -2,-3 -1,0 -1,0 -1,0 -1,1 -1,0 -2,-1 0,0 0,0 1,-1 -1,0 -2,-1 -2,-2 -2,-1 -3,-2 -4,-3 0,0 -1,0 -1,0 -1,0 -1,-1 -1,-1 0,-1 0,-1 0,-1 -1,-2 -3,-3 -4,-4 -3,0 -6,0 -9,0 0,0 0,0 0,0l0 0zm14 4c0,0 0,0 0,0 -1,1 0,1 0,1 1,0 1,-1 1,-1 -1,0 -1,0 -1,0l0 0zm8 8c-1,0 -1,0 -1,0 0,0 0,0 1,1 0,0 0,-1 0,-1 0,0 0,0 0,0 0,0 0,0 0,0l0 0zm-38 7c-1,0 -1,0 -1,1 0,0 1,0 1,0 0,0 0,0 0,0 0,-1 0,-1 0,-1 0,0 0,0 0,0l0 0zm41 0c0,0 0,1 0,1 0,0 1,0 1,0 0,0 0,0 0,-1 0,0 0,0 0,0 0,0 -1,0 -1,0l0 0zm-41 8c0,0 -1,0 -1,0 0,0 0,0 0,0 0,1 1,1 1,1 0,0 0,0 0,-1 0,0 0,0 0,0 0,0 0,0 0,0l0 0zm41 0c0,0 0,0 0,0 0,1 0,1 1,1 0,0 0,-1 0,-1 0,0 0,0 -1,0l0 0zm0 7c0,1 0,1 0,1 0,0 1,0 1,0 0,0 0,0 0,0 0,0 0,0 0,-1 0,0 0,0 -1,0l0 0zm-5 4c0,0 -1,0 -1,0 0,1 0,1 1,1 0,0 1,0 0,-1 0,0 0,0 0,0l0 0zm-10 4c0,0 0,0 0,1 0,0 1,0 1,0 0,0 0,-1 0,-1 0,0 -1,0 -1,0z"/>
   </g>
   <g>
    <path class="fil0" d="M55 7c1,0 1,0 1,0 3,0 6,0 9,0 1,0 1,1 2,1 1,2 2,3 4,4 2,3 4,5 6,7 1,0 1,1 2,2 0,0 0,0 0,0 0,6 0,12 0,18 0,1 -1,1 -1,1 0,1 -1,1 -1,1 -2,0 -3,0 -5,0 -1,2 -2,3 -3,4 -1,0 -3,0 -4,0 0,0 -1,0 -1,0 0,0 -1,-1 -1,-1 0,0 0,-1 0,-1 -1,-1 -2,-2 -3,-3 -1,-1 -2,-2 -2,-3 -1,0 -1,0 -1,0 -1,0 -1,0 -1,-1 0,0 0,0 0,-1 -1,-1 -2,-2 -3,-3 0,0 0,0 0,0 -1,1 -1,1 -1,1 0,1 -1,1 -1,0 -1,0 -1,0 -1,-1 0,0 -1,0 -1,0 0,1 0,1 -1,1 0,0 0,1 -1,1 0,0 -1,-1 -1,-2 0,0 -1,0 -1,0 0,1 0,1 -1,2 0,0 -1,0 -1,-1 -1,0 -1,0 -1,-1 0,0 0,0 0,0 0,-3 0,-7 0,-11 0,0 0,0 0,0 5,-5 9,-9 13,-14l0 0zm1 1c-5,4 -9,8 -13,13 0,0 0,0 0,0 0,1 0,2 0,3 0,1 0,2 0,3 0,2 0,3 0,4 0,0 1,0 1,0 0,0 1,0 1,1 0,0 1,0 1,0 0,0 0,-1 0,-1 1,0 1,0 1,0 1,0 1,0 2,1 0,0 1,0 1,0 0,-1 0,-1 1,-1 0,0 1,0 1,0 0,0 0,0 0,1 1,0 1,0 1,0 1,1 2,2 3,3 0,0 0,0 0,0 1,-1 2,0 2,1 0,0 0,0 0,1 1,1 3,3 4,4 1,1 1,1 2,1 0,0 0,0 0,0 1,0 2,1 2,2 1,0 2,0 3,0 1,-1 2,-2 3,-3 1,0 1,0 2,0 1,0 2,0 3,0 0,-1 1,-1 1,-1 0,-1 0,-1 0,-2 0,-5 0,-11 0,-17 0,0 0,0 0,0 -1,-1 -1,-2 -2,-3 -2,-2 -5,-4 -7,-6 -1,-2 -3,-3 -4,-4 -3,0 -6,0 -9,0 0,0 0,0 0,0l0 0zm-12 24c-1,0 -1,0 -1,0 0,0 0,1 0,1 1,0 1,0 1,0 0,-1 0,-1 0,-1 0,0 0,0 0,0l0 0zm3 0c0,0 0,0 0,0 0,1 0,1 0,1 1,0 1,0 1,-1 0,0 0,0 -1,0l0 0zm4 0c0,0 0,0 0,0 0,0 0,1 0,1 0,0 1,0 1,-1 0,0 0,0 -1,0l0 0zm6 4c-1,0 -1,0 -1,0 1,1 1,1 1,0 0,0 0,0 0,0 0,-1 0,-1 0,0l0 0zm7 7c0,0 0,0 0,0 0,1 0,1 1,1 0,0 0,-1 0,-1 0,0 -1,0 -1,0z"/>
   </g>
   <g>
    <path class="fil0" d="M56 10c0,0 0,0 0,0 3,0 6,0 9,0 0,0 0,0 0,0 1,1 2,1 2,2 0,0 0,0 0,0 1,0 1,0 2,0 0,0 1,1 1,2 0,0 -1,0 -1,0 2,2 4,4 6,6 0,0 0,0 1,0 0,-1 1,0 1,0 0,1 0,1 0,2 0,0 -1,0 -1,0 0,2 0,3 0,5 0,0 1,0 1,1 0,0 0,0 0,1 0,0 -1,1 -1,1 0,1 0,3 0,5 1,0 1,1 1,1 0,1 0,1 -1,1 0,1 0,1 0,1 -1,0 -2,0 -4,0 0,1 0,1 0,1 -1,1 -2,1 -2,2 -1,0 -1,1 -1,1 -1,0 -2,0 -2,0 -1,0 -1,0 -2,0 0,0 0,0 0,0 -2,-2 -4,-5 -6,-7 -2,-1 -3,-3 -5,-4 0,-1 -1,-1 -1,-2 -1,0 -1,0 -1,0 -2,0 -4,0 -5,0 0,0 -1,0 -1,1 0,0 -1,0 -1,0 -1,-1 -1,-2 -1,-2 0,-1 1,-1 1,-1 0,-2 0,-3 0,-5 0,0 -1,0 -1,-1 0,-1 1,-2 2,-1 0,-1 0,0 0,0 2,-2 4,-4 6,-6 0,0 0,-1 0,-1 0,-1 0,-1 1,-1 0,0 0,0 1,0 0,-1 1,-1 2,-2l0 0zm0 1c-1,0 -1,1 -2,1 0,1 0,1 0,1 0,0 0,0 0,1 0,0 0,1 -1,1 0,0 -1,-1 -1,-1 -2,2 -4,4 -5,6 0,0 0,0 0,1 0,0 0,1 -1,1 0,0 0,0 0,0 0,2 0,4 0,5 0,0 0,0 0,0 1,1 1,1 1,2 2,0 4,0 6,0 1,1 2,2 3,3 2,2 5,5 8,8 0,0 1,1 1,1 1,0 3,0 4,0 1,-1 2,-2 3,-3 0,0 0,0 0,0 1,0 2,0 3,0 0,-1 0,-1 0,-1 0,0 0,0 0,0 -1,-1 0,-2 0,-2 0,0 0,0 0,0 0,0 0,0 0,-1 0,-1 0,-2 0,-4 0,0 0,0 0,0 0,-1 0,-1 0,-1 -1,0 -1,-1 0,-1 0,-1 0,-1 0,-1 0,-2 0,-3 0,-5 0,0 0,0 0,0 0,-1 -1,-1 0,-2 0,0 0,0 -1,0 -1,-2 -3,-4 -5,-5 0,-1 0,-1 0,0 -1,0 -1,0 -1,-1 -1,0 -1,0 -1,-1 0,0 0,0 0,0 -1,-1 -1,-2 -2,-2 -3,0 -6,0 -9,0l0 0zm-3 2c0,0 0,0 0,0 0,1 0,1 0,1 1,0 1,-1 1,-1 -1,0 -1,0 -1,0l0 0zm15 0c0,0 0,0 0,1 0,0 1,0 1,-1 0,0 0,0 -1,0l0 0zm-23 7c0,0 0,1 0,1 0,0 1,0 1,0 0,0 0,0 0,0 0,-1 0,-1 -1,-1l0 0zm31 0c-1,0 -1,1 -1,1 1,1 1,0 1,0 0,0 0,-1 0,-1l0 0zm-31 8c0,0 0,0 0,0 0,1 0,1 1,1 0,0 0,-1 0,-1 0,0 0,0 -1,0l0 0zm31 0c-1,0 -1,1 -1,1 1,0 1,0 1,0 1,-1 0,-1 0,-1l0 0zm0 7c-1,1 -1,1 -1,1 0,0 1,1 1,1 0,0 0,-1 0,-1 0,0 0,-1 0,-1z"/>
   </g>
   <g>
    <path class="fil0" d="M56 12c1,0 1,0 2,0 0,0 0,1 0,1 1,0 1,0 1,0 1,-1 1,-1 1,-1 1,0 2,0 2,1 0,0 1,0 1,0 0,0 0,-1 1,-1 0,0 0,0 1,0 0,0 1,0 1,1 0,0 0,0 0,1 2,2 5,4 7,7 0,0 0,0 0,0 0,4 0,8 0,12 0,1 0,2 0,2 0,0 0,0 -1,0 -1,2 -2,3 -3,4 0,0 0,0 0,0 -1,0 -3,0 -4,0 0,0 0,0 0,0 -2,-2 -4,-4 -5,-6 -1,1 -1,1 -2,1 0,-1 -1,-2 0,-2 0,0 0,-1 0,-1 -2,-1 -4,-3 -5,-5 -2,0 -3,0 -5,0 0,-1 0,-3 0,-5 0,0 0,0 0,0 2,-2 3,-4 5,-5 1,-1 2,-2 2,-3 1,0 1,0 1,0 0,-1 0,-1 0,-1l0 0zm1 1c0,0 0,0 -1,0 0,0 0,0 0,0 1,1 1,1 1,1 0,-1 0,-1 0,-1 0,0 0,0 0,0l0 0zm4 0c-1,0 -1,0 -1,1 0,0 1,0 1,0 0,-1 0,-1 0,-1l0 0zm3 0c0,0 0,0 0,1 0,0 1,0 1,-1 0,0 0,0 -1,0l0 0zm-6 1c0,0 0,0 0,0 0,0 -1,1 -1,1 -1,0 -1,-1 -1,-1 -3,2 -5,4 -7,7 0,0 0,0 0,0 0,1 0,3 0,5 1,0 2,0 4,0 1,1 3,2 4,4 0,0 1,1 1,1 0,0 1,0 1,0 1,0 1,1 1,1 0,0 0,1 0,1 2,2 3,3 5,5 0,0 0,0 0,0 2,0 3,0 4,0 0,0 0,0 0,0 1,-1 2,-2 3,-3 0,-5 0,-10 0,-14 0,0 0,0 0,-1 -2,-2 -4,-4 -6,-6 -1,0 -1,1 -2,1 0,0 -1,-1 -1,-1 0,0 -1,0 -1,0 0,0 0,0 -1,0 0,1 0,1 -1,0 0,0 0,0 -1,0 0,0 0,0 -1,0l0 0zm1 18c-1,0 -1,0 -1,0 0,1 0,1 1,1 0,0 0,0 0,-1 0,0 0,0 0,0z"/>
   </g>
   <g>
    <path class="fil0" d="M55 16c0,0 0,0 1,0 0,0 0,0 0,0 3,0 6,0 9,0 0,0 0,0 0,0 1,0 1,0 2,0 0,0 1,1 1,1 0,1 -1,1 -1,1 1,1 1,1 2,2 0,0 1,0 1,1 0,1 0,3 0,5 0,3 0,6 0,9 0,0 0,0 0,0 0,0 -1,0 -1,1 0,0 0,0 0,0 -1,0 -2,0 -4,0 0,0 0,0 0,-1 -4,-4 -8,-8 -12,-12 -1,0 -1,1 -2,0 0,0 0,-1 0,-2 0,0 0,0 0,0 1,-1 2,-2 3,-3 0,-1 0,-1 0,-1 0,-1 0,-1 1,-1l0 0zm0 1c0,0 0,0 -1,0 0,0 1,1 1,1 1,-1 1,-1 0,-1 0,0 0,0 0,0l0 0zm11 0c0,0 0,0 0,0 0,1 0,1 0,1 1,0 1,-1 1,-1 0,0 0,0 0,0 0,0 -1,0 -1,0l0 0zm-10 0c0,0 0,0 0,0 0,1 0,1 -1,1 0,0 0,0 -1,0 0,0 0,0 0,0 -1,1 -1,2 -2,3 0,0 0,1 0,2 0,0 0,0 1,0 1,1 2,2 4,3 2,3 5,6 8,9 0,0 0,0 0,0 1,0 3,0 4,0 0,0 0,0 0,0 0,-5 0,-10 0,-14 -1,-1 -1,-2 -2,-3 0,0 0,0 -1,0 0,0 -1,0 -1,0 0,-1 0,-1 0,-1 -3,0 -6,0 -9,0z"/>
   </g>
   <g>
    <path class="fil0" d="M56 19c0,0 0,0 0,0 3,0 6,0 9,0 0,0 0,0 0,0 1,1 1,1 2,2 0,0 0,0 0,0 0,1 0,2 0,2 0,1 1,1 1,2 0,0 -1,1 -1,1 0,1 0,2 0,4 0,0 0,1 0,1 0,0 1,0 1,1 0,0 0,1 -1,1 0,1 -1,1 -1,0 -1,0 -1,0 -1,0 -4,-4 -7,-7 -11,-11 0,0 0,0 0,0 0,-1 0,-1 0,-1 1,-1 1,-1 2,-2l0 0zm0 1c-1,0 -1,0 -1,1 0,0 0,0 0,0 0,1 0,1 0,1 3,3 6,6 9,9 0,0 1,1 1,1 0,-1 1,-1 1,-1 0,0 0,0 0,0 0,-2 0,-3 0,-5 0,0 0,0 0,0 -1,0 -1,-1 -1,-1 0,-1 0,-1 1,-1 0,-1 0,-1 0,-1 0,-1 0,-1 0,-2 0,-1 0,-1 -1,-1 -3,0 -6,0 -9,0 0,0 0,0 0,0l0 0zm10 4c0,0 0,1 0,1 0,0 0,0 1,0 0,0 0,0 0,-1 0,0 -1,0 -1,0l0 0zm0 8c0,0 0,0 0,0 0,0 0,0 0,0 0,1 0,1 0,1 1,0 1,0 1,-1 0,0 0,0 -1,0z"/>
   </g>
   <g>
    <path class="fil0" d="M116 28c0,0 1,-1 2,-1 0,0 1,0 1,1 0,0 0,0 0,0 1,0 1,0 2,0 0,0 0,0 0,0 3,3 5,6 8,8l0 1c-3,-3 -5,-5 -8,-8 0,0 0,0 0,0 -1,0 -2,0 -2,0 0,0 -1,1 -1,1 -1,0 -1,0 -1,-1 -1,1 -2,2 -3,3 -1,1 -2,2 -3,3 0,0 0,1 0,1 0,1 0,1 -1,1 0,0 -1,0 -1,0 -1,1 -2,2 -2,3 0,0 0,1 0,2 0,0 0,0 0,0 3,4 7,8 10,11 1,0 1,1 1,1 1,0 1,0 2,0 0,0 1,0 1,1 1,-1 2,-2 3,-3 0,-1 0,-1 0,-1 0,-1 0,-1 1,-1 0,0 0,0 1,0 1,-1 2,-2 3,-3l0 0c-1,1 -2,2 -3,3 0,1 1,1 1,1 0,1 -1,2 -2,2 0,0 0,-1 -1,-1 0,0 0,1 0,1 -1,1 -2,2 -3,2 0,1 -1,1 -1,1 -1,0 -1,0 -2,0 0,-1 0,-1 0,-1 0,0 0,-1 0,-1 -4,-4 -8,-8 -12,-12 0,0 0,0 0,0 0,-1 0,-2 0,-2 0,0 0,-1 0,-1 1,-1 2,-1 3,-2 0,-1 0,-1 0,-1 0,-1 0,-1 1,-1 0,0 0,0 1,0 1,-2 3,-4 5,-6 0,0 0,-1 0,-1l0 0zm1 0c0,0 0,1 0,1 0,0 1,0 1,0 0,-1 0,-1 -1,-1l0 0zm-7 8c-1,0 -1,0 0,0 0,1 0,1 1,0 0,0 -1,-1 -1,0l0 0zm15 15c0,0 -1,0 0,1 0,0 1,0 1,-1 0,0 -1,0 -1,0l0 0zm-6 3c0,0 0,1 0,1 0,0 0,1 0,1 1,0 1,-1 1,-1 0,-1 0,-1 -1,-1z"/>
   </g>
   <g>
    <path class="fil0" d="M117 31c0,0 0,0 1,0 1,0 2,0 3,0 0,0 0,1 1,1 0,1 1,1 2,2 0,0 0,1 1,1 0,0 0,0 0,0 1,0 1,0 2,1 0,0 -1,0 -1,1 1,1 2,1 3,2l0 1c-1,-1 -2,-2 -3,-3 0,0 -1,0 -1,0 -1,0 -1,0 -1,-1 0,0 0,-1 0,-1 -1,-1 -2,-2 -3,-3 0,0 0,0 -1,0 -1,0 -2,0 -3,0 0,0 0,0 -1,1 -1,2 -3,3 -5,5 0,0 -1,1 -1,2 0,0 0,1 0,2 0,0 -1,0 0,0 3,4 6,7 9,10 1,0 1,0 2,0 1,-1 1,-2 2,-3 2,-1 4,-3 6,-5l0 0c-2,2 -4,4 -6,6 0,1 -1,2 -2,2 0,1 0,1 0,1 -1,0 -1,0 -2,0 0,0 0,0 0,0 -3,-4 -7,-7 -10,-11 0,0 0,0 0,0 0,-1 0,-2 0,-2 0,-1 0,-1 0,-1 1,-1 2,-2 3,-2 2,-2 3,-4 5,-6l0 0zm8 4c0,1 0,1 0,1 0,0 0,1 0,1 0,0 1,-1 1,-1 0,0 -1,-1 -1,-1z"/>
   </g>
   <g>
    <path class="fil0" d="M117 34c1,0 3,0 4,0 0,0 0,0 0,1 3,2 5,4 7,6 0,1 0,1 0,1 0,0 0,0 0,0 -2,3 -5,5 -7,8 0,0 0,0 0,0 -1,0 -1,0 -2,0 0,-1 0,-1 -1,-1 -1,-1 -2,-3 -4,-4 0,0 0,0 0,0 -1,0 -1,0 -2,-1 0,0 0,-1 0,-1 0,0 0,0 0,0 0,-1 0,-1 0,-1 0,0 0,0 0,-1 -1,0 -2,-1 -1,-2 0,0 0,-1 1,-1 0,0 0,1 1,1 1,-1 2,-2 3,-3 0,-1 1,-1 1,-2l0 0zm0 1c0,0 -1,1 -1,1 -1,1 -2,2 -3,3 0,0 0,1 0,1 0,0 0,1 0,1 0,0 0,1 0,1 -1,0 0,1 0,1 0,0 0,-1 0,-1 1,0 2,0 2,1 0,0 0,1 0,1 0,0 0,1 0,1 1,1 3,3 4,4 1,0 1,0 2,0 2,-2 4,-4 6,-7 0,0 0,0 0,-1 0,0 -1,-1 -1,-1 -2,-2 -4,-3 -5,-5 -1,0 -3,0 -4,0l0 0zm-5 4c-1,0 -1,1 -1,1 0,0 1,0 1,0 0,0 0,0 0,0 0,0 0,0 0,-1 0,0 0,0 0,0l0 0zm2 4c-1,0 -1,1 -1,1 1,0 1,0 1,0 0,0 0,-1 0,-1 0,0 0,0 0,0z"/>
   </g>
   <g>
    <path class="fil0" d="M0 36c2,2 3,4 5,5 0,1 0,1 0,1 0,0 0,1 0,1 0,0 0,0 0,0 0,0 0,1 0,1 0,1 -1,1 -1,1 -1,0 -1,0 -1,0 0,0 0,0 0,0 -1,1 -2,2 -3,2l0 0c1,-1 2,-2 3,-3 -1,0 -1,0 -1,-1 1,0 1,-1 2,-1 0,0 0,0 0,0 0,0 0,0 0,-1 -1,-1 -3,-2 -4,-4l0 -1 0 0zm4 7c-1,0 -1,1 0,1 0,0 0,0 0,0 0,-1 0,-1 0,-1z"/>
   </g>
   <g>
    <path class="fil0" d="M117 37c0,0 0,0 0,0 1,0 3,0 4,0 0,1 1,1 1,2 1,0 1,-1 2,0 0,0 1,0 1,1 0,0 -1,0 -1,1 1,0 1,0 1,0 0,1 0,1 0,1 0,1 0,1 -1,1 -1,1 -2,2 -3,3 0,0 0,1 0,1 -1,0 -1,0 -2,0 -1,-1 -2,-3 -4,-4 0,0 0,0 0,-1 0,-1 0,-1 0,-2 0,-1 0,-1 0,-1 1,-1 1,-1 2,-2l0 0zm0 1c0,0 -1,1 -1,1 -1,1 0,1 0,1 -1,1 0,2 0,2 0,1 0,1 0,1 1,1 2,2 3,3 0,0 0,0 0,0 1,0 1,0 1,0 1,0 1,0 1,0 1,-1 2,-2 3,-4 0,0 0,0 0,-1 0,0 0,0 0,0 0,0 -1,0 -1,0 -1,0 -1,-1 -1,-1 0,0 0,-1 0,-1 0,0 -1,-1 -1,-1 0,0 0,0 0,0 -1,0 -3,0 -4,0 0,0 0,0 0,0l0 0zm6 1c0,0 0,1 0,1 0,0 0,0 0,0 1,0 1,0 1,0 0,-1 -1,-1 -1,-1z"/>
   </g>
   <path class="fil0" d="M0 39c0,1 1,1 1,2 1,0 1,0 1,0 0,1 0,1 0,1 0,1 0,1 0,1 -1,0 -1,1 -2,1l0 0c0,-1 1,-1 1,-2 0,0 0,0 0,0 0,0 0,0 0,-1 0,0 -1,0 -1,-1l0 -1z"/>
   <g>
    <path class="fil0" d="M118 40l0 0c1,0 2,0 3,0 0,0 0,1 1,1 0,0 0,0 0,0 0,1 0,1 0,1 0,1 -1,1 -1,2 0,0 0,0 0,0 -1,0 -1,0 -2,0 0,-1 -1,-1 -1,-1 0,-1 0,-1 0,-1 0,0 0,-1 0,-2l0 0zm0 1c1,0 0,1 1,1 0,1 0,1 0,1 1,0 1,0 2,0 0,0 0,0 0,-1 0,0 0,0 0,0 0,0 0,-1 0,-1 0,0 0,0 0,0 -1,0 -2,0 -3,0z"/>
   </g>
   <g>
    <path class="fil0" d="M36 41c0,0 1,-1 1,-1 3,0 6,0 9,0 2,0 4,0 7,0 1,1 2,3 4,4 2,3 5,5 8,8 0,0 0,0 0,0 1,0 1,0 2,0 0,1 0,1 0,2 0,0 0,0 1,0 0,1 0,2 -1,2 0,0 0,0 0,0 0,2 0,4 0,5 0,0 0,0 0,0 1,1 1,1 1,2 -1,0 -1,1 -1,1 0,1 0,2 0,3 0,0 -1,1 -1,1 -2,2 -4,4 -6,6 0,0 0,0 -1,0 0,0 0,0 -1,0 0,1 0,1 0,1 0,0 -1,0 -1,0 -1,0 -1,0 -1,-1 -1,0 -1,0 -2,0 0,1 0,1 0,1 0,0 -1,0 -1,0 0,0 -1,0 -1,-1 0,0 0,0 0,-1 -2,-1 -3,-3 -5,-4 -2,0 -3,0 -4,0 -2,0 -4,0 -6,0 0,-1 -1,-1 -1,-1 0,0 0,0 -1,-1 0,0 0,0 0,0 0,-1 0,-2 0,-3 0,0 0,0 0,0 0,-1 0,-2 0,-2 0,0 0,0 0,-1 0,-1 0,-3 0,-5 0,0 0,0 0,-1 0,0 0,-1 0,-1 0,-2 0,-4 0,-5 0,0 0,-1 0,-1 0,0 0,-1 0,-1 0,0 0,-1 0,-1 0,-1 0,-3 0,-5 1,0 1,0 1,0l0 0zm0 0c0,2 0,4 0,5 0,0 1,0 1,0 0,1 1,2 0,2 0,0 0,1 -1,1 0,0 0,0 0,0 0,1 0,3 0,5 0,0 0,0 0,0 1,0 1,1 1,1 0,1 0,1 -1,1 0,2 0,4 0,5 0,0 1,0 1,1 0,0 1,1 0,1 0,1 0,1 -1,1 0,0 0,0 0,0 0,1 0,2 0,3 0,0 0,0 0,1 1,0 1,0 1,0 3,0 7,0 10,0 0,0 0,0 0,0 2,2 3,3 5,5 0,0 1,0 1,0 0,0 1,0 1,0 0,0 0,0 0,1 1,0 1,0 2,0 0,-1 0,-1 1,-1 1,0 1,0 1,1 1,0 1,0 1,0 1,-1 1,-1 1,-1 2,-2 4,-4 6,-6 0,0 0,0 0,0 0,-1 0,-2 0,-3 0,0 0,0 0,0 -1,-1 -1,-2 -1,-2 1,0 1,-1 1,-1 0,-1 0,-3 0,-5 0,0 0,0 0,0 -1,0 -1,-2 -1,-2 1,0 1,0 1,0 0,0 0,-1 0,-1 0,0 -1,0 -1,0 -2,-2 -3,-3 -5,-5 -2,-2 -5,-5 -7,-7 0,0 0,0 0,0 -6,0 -11,0 -16,0 0,0 -1,0 -1,0l0 0zm0 6c0,0 -1,0 0,1 0,0 0,0 1,0 0,-1 -1,-1 -1,-1l0 0zm0 7c0,1 -1,1 0,1 0,1 0,1 1,0 0,0 -1,-1 -1,-1l0 0zm30 0c0,0 0,1 0,1 0,0 0,1 0,1 1,0 1,-1 1,-1 0,0 0,-1 -1,-1l0 0zm-30 8c-1,0 -1,1 0,1 0,0 0,0 0,0 1,0 1,0 1,-1 -1,0 -1,0 -1,0l0 0zm30 0c0,0 0,1 0,1 0,0 0,0 1,0 0,0 0,0 0,-1 0,0 -1,0 -1,0l0 0zm-13 11c0,0 0,1 0,1 0,0 0,1 0,0 1,0 1,0 1,0 0,0 -1,-1 -1,-1l0 0zm4 0c0,0 0,0 -1,1 0,0 0,0 0,0 0,0 1,0 1,1 0,0 0,-1 0,-1 0,0 0,0 0,0 0,0 0,-1 0,-1z"/>
   </g>
   <g>
    <path class="fil0" d="M83 43c1,-1 1,-1 1,-1 1,0 2,0 3,0 4,0 8,0 12,0 1,0 1,0 2,0 0,0 0,0 0,0 0,1 0,1 0,1 6,5 11,10 16,15 0,0 0,0 0,0 0,15 0,30 0,45 0,0 0,1 0,1 -1,1 -1,1 -2,2 0,0 0,0 0,0 0,8 0,15 0,23l-1 0c0,-8 0,-15 0,-23 0,0 0,0 0,0 0,-1 1,-1 1,-1 1,-1 1,-1 1,-1 0,-15 0,-30 0,-45 0,-1 0,-1 0,-1 -5,-5 -10,-10 -15,-15 0,0 0,0 -1,0 -5,0 -10,0 -15,0 0,0 0,0 -1,0 0,0 0,0 -1,0 -1,2 -2,3 -3,4 0,0 0,0 0,0 0,1 0,2 0,3 0,0 0,0 0,0 1,0 1,1 1,1 0,1 0,1 -1,1 0,0 0,1 0,1 0,1 0,3 0,4 0,0 0,0 0,1 0,0 1,0 1,0 0,1 0,1 0,2 -1,0 -1,0 -1,0 0,0 0,0 0,1 0,1 0,3 0,4 0,0 0,0 1,0 0,1 0,1 0,2 0,0 -1,0 -1,1 0,0 0,0 0,1 0,1 0,2 0,3 0,0 0,1 0,1 1,0 1,0 1,1 0,0 0,1 -1,1 0,0 0,0 0,1 0,1 0,2 0,3 0,1 0,1 0,1 1,1 1,1 1,1 0,1 0,1 -1,2 0,0 0,0 0,1 0,1 0,2 0,3 0,0 0,1 0,1 1,0 1,0 1,1 0,1 -1,1 -1,1 -1,0 -1,0 -1,0 -2,2 -4,4 -6,6 0,0 0,0 -1,1 0,0 -1,0 -1,0 -3,0 -6,0 -9,0 0,0 0,1 -1,1 0,0 0,0 -1,0 0,0 0,0 0,0 -1,1 -2,2 -3,2 0,1 0,1 0,1 0,0 0,0 0,1 0,0 0,1 0,1 1,0 1,1 1,1 0,0 0,1 0,1 0,0 1,1 1,1 0,0 0,0 0,1 0,0 1,0 1,0 0,1 0,1 0,2 0,0 -1,0 -1,0 0,2 0,4 0,5 1,0 1,1 1,1 0,1 0,2 -1,2 0,1 0,1 0,2 0,1 0,2 0,3 0,0 1,0 1,1 0,0 0,1 0,1 0,0 -1,1 -1,1 0,1 0,1 0,2 2,0 4,0 6,0 0,0 0,0 0,0 1,1 1,1 2,2l-1 0c0,0 -1,-1 -1,-1 0,0 -1,0 -1,0 -2,0 -4,0 -6,0 0,-1 0,-2 0,-4 0,0 0,0 -1,0 0,-1 1,-2 1,-2 0,0 0,0 0,0 0,-1 0,-2 0,-4 0,0 0,-1 0,-1 0,0 0,0 0,-1 -1,0 -1,-1 0,-1 0,0 0,-1 0,-1 0,-1 0,-3 0,-5 0,0 0,0 0,0 -1,-1 -1,-2 0,-2 0,0 0,0 0,0 0,-1 0,-1 0,-1 0,0 0,0 0,-1 -1,1 -1,1 -2,1 0,-1 0,-1 0,-2 0,0 0,0 0,-1 0,0 0,0 0,0 0,-1 0,-2 0,-2 0,-1 1,-1 1,-1 1,-1 2,-2 3,-3 -1,0 -1,0 -1,0 0,-1 1,-2 2,-2 0,0 0,1 1,1 0,0 1,0 1,0 3,0 6,0 9,0 0,0 0,0 0,0 2,-2 4,-4 6,-5 0,-1 0,-1 0,-1 0,-1 0,-1 0,-1 0,-1 1,-1 1,-1 0,-2 0,-3 0,-5 0,0 0,0 0,0 -1,-1 -1,-2 -1,-2 1,0 1,-1 1,-1 0,-1 0,-2 0,-2 0,-1 0,-2 0,-3 0,0 0,0 0,0 -1,-1 -1,-1 0,-2 0,0 0,0 0,0 0,-2 0,-4 0,-5 0,0 0,0 0,-1 -1,0 -1,-1 0,-1 0,-1 0,-1 0,-1 0,-2 0,-3 0,-5 0,0 0,0 0,0 -1,-1 -1,-1 0,-2 0,0 0,0 0,-1 0,-1 0,-2 0,-3 0,0 0,-1 0,-1 0,-1 -1,-1 -1,-2 0,-1 1,-1 1,-1 0,-1 0,-2 0,-2 0,-1 0,-1 0,-1 1,-1 1,-1 1,-1 1,-1 2,-2 3,-3l0 0zm-4 8c0,0 0,0 0,0 0,0 0,0 0,0 0,1 0,1 1,1 0,0 0,-1 0,-1 0,0 0,0 -1,0l0 0zm0 7c0,0 0,1 0,1 0,0 0,0 1,0 0,0 0,0 0,0 0,-1 0,-1 -1,-1l0 0zm0 8c0,0 0,0 0,0 0,0 0,1 0,1 1,0 1,0 1,0 0,-1 0,-1 0,-1 0,0 0,0 -1,0l0 0zm1 7c-1,0 -1,0 -1,1 0,0 0,0 0,0 1,1 1,0 1,0 0,0 0,-1 0,-1l0 0zm-1 8c0,0 0,0 0,0 0,0 0,1 0,1 0,0 0,0 0,0 1,0 1,0 1,0 0,0 0,-1 0,-1 0,0 0,0 -1,0l0 0zm0 8c0,0 0,0 0,0 0,0 0,0 0,0 0,1 1,1 1,1 0,-1 0,-1 0,-1 0,0 0,0 -1,0l0 0zm-18 7c-1,0 -1,1 -1,1 0,0 0,0 1,0 0,0 0,0 0,0 0,-1 0,-1 0,-1l0 0zm-4 8c-1,0 -1,0 -1,1 0,0 1,0 1,0 0,0 1,-1 0,-1 0,0 0,0 0,0l0 0zm2 4c-1,0 -1,0 -1,0 1,1 1,1 1,0 0,0 0,0 0,0 0,0 0,0 0,0l0 0zm0 7c-1,0 -1,0 -1,1 0,0 1,0 1,0 0,0 0,0 0,-1 0,0 0,0 0,0l0 0zm0 8c-1,0 -1,0 -1,1 1,0 1,0 1,-1 0,0 0,0 0,0z"/>
   </g>
   <g>
    <path class="fil0" d="M48 44c0,-1 0,-2 1,-2 1,0 1,1 2,1 0,0 0,0 1,0 0,0 1,-1 1,-1 0,0 1,0 1,1 1,0 1,1 0,1 1,1 1,1 2,2 1,1 2,3 4,4 0,0 0,0 1,0 0,0 1,1 1,1 0,1 0,1 0,1 0,1 1,1 2,2 0,0 0,0 0,0 0,1 0,1 0,1 0,0 0,1 0,1 0,1 0,1 0,1 0,1 0,1 0,2 0,0 0,1 0,1 0,1 0,1 0,2 0,0 0,0 0,0 0,1 0,1 0,1 0,2 0,3 0,4 -2,2 -3,3 -4,4 0,0 -1,0 -1,0 -2,1 -4,0 -6,0 0,0 0,1 0,0 -2,-1 -3,-2 -4,-3 0,0 0,0 -1,-1 0,0 0,-1 0,-1 0,0 0,-1 1,-1 0,0 0,0 0,0 0,-2 0,-3 0,-5 -1,0 -1,-1 -1,-1 0,0 0,-1 0,-1 0,0 1,0 1,0 0,-2 0,-4 0,-6 -1,0 -1,0 -1,0 0,-1 0,-2 1,-2 0,0 0,0 0,0 0,-2 0,-4 0,-5 -1,0 -1,-1 -1,-1l0 0zm1 -1c0,0 0,1 0,1 1,0 1,0 1,-1 0,0 -1,0 -1,0l0 0zm4 0c0,0 0,0 0,0 -1,1 0,1 0,1 1,0 1,0 1,-1 -1,0 -1,0 -1,0l0 0zm-2 1c0,0 -1,0 -1,1 0,0 0,0 -1,0 0,2 0,3 0,5 1,0 2,0 2,1 0,1 -1,1 -1,1 0,0 0,1 -1,1 0,1 0,3 0,4 1,0 1,1 1,1 1,0 1,1 0,1 0,1 0,1 -1,1 0,2 0,3 0,5 1,0 2,1 2,2 0,0 -1,0 -1,1 1,1 2,2 3,3 2,0 4,0 6,0 0,0 1,0 1,-1 1,-1 2,-1 3,-2 0,-1 0,-1 0,-1 0,0 0,-1 0,-1 -3,0 -5,0 -7,0 -1,0 -1,0 -1,0 0,0 0,0 0,-1 0,0 0,-1 0,-1 -1,0 -1,-1 -1,-2 0,0 0,0 0,0 0,-1 1,-1 1,-1 0,-1 0,-3 0,-5 -1,0 -1,0 -1,0 0,-1 0,-1 0,-2 0,0 0,0 1,0 0,-2 0,-4 0,-5 -1,0 -1,-1 -1,-1 0,-1 0,-1 0,-1 0,-1 0,-1 1,-1 0,0 0,0 -1,0 0,-1 0,-1 0,-1 -1,0 -1,0 -2,0 0,0 0,-1 0,-1 -1,0 -1,0 -1,0l0 0zm4 3c0,0 -1,0 -1,0 0,1 1,1 1,1 0,0 0,0 1,0 0,-1 0,-1 -1,-1 0,0 0,0 0,0l0 0zm-6 4c0,0 0,0 0,0 0,1 0,1 1,1 0,0 0,-1 0,-1 0,0 -1,0 -1,0l0 0zm8 0c-1,0 -1,0 -1,0 0,1 1,1 1,1 0,0 0,-1 0,-1 0,0 0,0 0,0l0 0zm3 0c0,0 0,1 0,1 1,0 1,-1 1,-1 0,0 0,0 -1,0l0 0zm-5 3c0,0 -1,1 0,1 0,1 0,1 0,0 1,0 0,-1 0,-1l0 0zm4 0c-1,1 -1,1 -1,1 1,1 1,1 1,0 1,0 0,-1 0,-1l0 0zm3 0c0,0 0,1 0,1 0,0 0,1 1,1 0,0 0,-1 0,-1 0,0 0,0 0,0 0,-1 0,-1 -1,-1l0 0zm-13 4c0,0 0,1 0,1 0,0 1,0 1,0 0,0 0,0 0,-1 0,0 -1,0 -1,0l0 0zm8 0c-1,0 -1,1 -1,1 0,0 1,0 1,0 0,0 0,0 0,0 0,-1 0,-1 0,-1l0 0zm4 0c-1,0 -1,1 -1,1 1,0 1,0 1,0 0,0 0,-1 0,-1l0 0zm-6 4c0,0 -1,0 -1,1 0,0 1,0 1,0 0,0 0,0 1,0 0,-1 -1,-1 -1,-1l0 0zm4 0c-1,0 -1,1 0,1 0,0 1,0 0,-1 0,0 0,0 0,0l0 0zm3 0c0,0 0,1 0,1 1,0 1,0 1,0 0,0 0,-1 0,-1 0,0 0,0 -1,0l0 0zm-13 4c0,0 0,1 0,1 0,0 0,0 1,0 0,0 0,-1 0,-1 0,0 -1,0 -1,0z"/>
   </g>
   <g>
    <path class="fil0" d="M8 44c0,0 1,0 1,0 4,0 8,0 12,0 3,0 6,0 10,0 0,2 0,4 0,6 0,0 0,0 0,0 1,1 1,1 0,2 0,0 0,0 0,1 0,0 0,0 0,0 0,1 0,3 0,4 0,1 0,1 0,1 1,0 1,1 0,2 0,0 0,0 0,0 0,0 0,1 0,1 0,1 0,3 0,4 0,0 0,0 0,0 1,1 1,1 1,1 0,1 -1,1 -1,2 1,0 2,1 2,2 1,0 1,1 1,1 0,1 0,1 0,2 1,0 1,0 1,0 1,0 1,1 0,2 0,0 0,0 -1,0 0,1 0,1 0,2 0,1 0,2 0,3 1,0 1,1 1,1 1,1 0,1 0,2 0,0 0,0 -1,0 0,2 0,3 0,5 1,0 1,0 1,0 0,1 1,1 0,2 0,0 0,0 -1,0 1,1 1,1 2,2 0,0 0,0 0,0 1,0 1,0 1,0 0,1 0,1 0,1 1,2 3,3 4,4 0,1 1,1 2,2 0,0 1,0 1,0 0,0 1,1 1,1 0,0 0,1 0,1 1,1 1,1 2,2 1,0 3,0 5,0 0,0 0,1 0,1 0,0 0,0 0,0 0,1 1,1 1,2 0,0 0,0 0,0 0,2 0,3 0,5 1,0 1,0 1,0 1,1 1,1 0,2 0,0 0,0 -1,0 0,1 0,2 0,3 0,1 0,1 0,2 1,0 1,0 1,1 1,0 1,1 0,1 0,1 0,1 -1,1 0,1 0,3 0,5 1,0 1,0 1,0 1,1 0,2 0,2 0,0 0,0 0,0 -1,1 -1,1 -1,1l0 0c0,0 0,0 0,-1 0,0 -1,0 -1,0 0,0 0,-1 0,-1 0,-1 0,-1 1,-1 0,-1 0,-3 0,-4 0,0 0,-1 0,-1 -1,0 -1,-1 -1,-1 0,0 0,-1 0,-1 0,-1 0,-1 1,-1 0,-1 0,-2 0,-3 0,0 0,-1 0,-2 0,0 -1,0 -1,0 0,-1 0,-1 0,-2 0,0 0,0 1,0 0,-1 0,-2 0,-2 0,-1 0,-2 0,-3 0,0 -1,0 -1,-1 0,0 -1,-1 -1,-1 -2,0 -3,0 -4,0 0,0 0,0 0,0 -1,-1 -2,-2 -2,-3 -1,1 -1,1 -1,1 -1,0 -2,-1 -2,-2 0,0 0,0 1,0 -2,-2 -4,-4 -6,-6 0,0 -1,0 -1,0 0,0 -1,0 -1,0 0,-1 0,-1 0,-2 0,0 0,0 0,0 0,-1 -1,-1 -1,-1 0,-1 -1,-1 -1,-1 0,0 0,-1 0,-2 0,0 0,0 1,0 0,-2 0,-4 0,-5 -1,0 -1,-1 -1,-1 0,0 0,-1 0,-1 0,-1 1,-1 1,-1 0,-2 0,-3 0,-5 -1,0 -1,0 -1,0 0,-1 0,-2 0,-2 0,0 0,0 1,0 0,-1 0,-1 0,-2 0,0 0,0 -1,0 -1,-1 -2,-2 -3,-3 0,0 0,0 0,0 -1,-1 -1,-1 -1,-2 0,0 0,-1 1,-1 0,0 0,0 0,0 0,-2 0,-3 0,-5 0,0 0,0 0,0 0,0 0,0 -1,0 0,-1 0,-1 0,-2 0,0 1,0 1,-1 0,-1 0,-3 0,-4 0,0 0,0 0,-1 0,0 -1,0 -1,0 0,-1 0,-1 0,-2 1,0 1,0 1,0 0,-2 0,-3 0,-4 0,-1 0,-1 0,-1 -7,0 -14,0 -21,0 -1,0 -1,0 -1,0 -2,2 -5,5 -8,8l0 -1c3,-3 6,-5 8,-8l0 0zm22 7c0,0 0,0 0,1 0,0 1,0 1,-1 0,0 0,0 0,0 0,0 -1,0 -1,0l0 0zm0 7c0,0 0,1 0,1 0,0 1,0 1,0 0,0 0,0 0,-1 0,0 -1,0 -1,0l0 0zm0 8c0,0 0,0 0,1 0,0 0,0 1,0 0,0 0,-1 0,-1 0,0 -1,0 -1,0l0 0zm4 7c0,0 0,0 0,1 0,0 0,0 0,0 0,0 0,1 0,1 0,-1 1,-1 1,-1 0,0 -1,-1 -1,-1l0 0zm0 8c0,0 0,0 0,1 0,0 0,0 0,0 0,0 1,0 1,0 0,0 0,-1 0,-1 -1,0 -1,0 -1,0l0 0zm0 8c0,0 0,0 0,0 0,1 0,1 1,0 0,0 0,0 0,0 -1,0 -1,0 -1,0l0 0zm2 3c0,0 0,1 -1,1 0,0 1,0 1,0 0,1 1,0 1,0 -1,-1 -1,-1 -1,-1l0 0zm7 8c0,0 0,0 0,0 0,0 0,1 0,1 0,0 0,0 1,0 0,0 0,0 0,-1 0,0 0,0 -1,0l0 0zm10 11c0,1 -1,1 0,1 0,0 0,0 0,0 1,0 1,0 1,0 -1,-1 -1,-1 -1,-1l0 0zm0 8c0,0 -1,0 0,1 0,0 0,0 0,0 0,0 1,0 1,-1 0,0 -1,0 -1,0l0 0zm0 8c-1,0 -1,0 0,1 0,0 0,0 0,0 1,0 1,-1 1,-1 -1,0 -1,-1 -1,0z"/>
   </g>
   <g>
    <path class="fil0" d="M83 46c0,0 1,-1 1,-1 2,0 4,0 6,0 4,0 7,0 10,0 1,0 1,0 1,0 2,2 3,3 4,5 1,0 1,0 1,0 0,0 0,0 0,0 1,0 2,1 2,1 0,0 -1,1 -1,1 1,0 1,0 1,0 2,2 4,4 6,6 0,0 0,0 0,0 0,15 0,31 0,46 0,0 0,0 0,0 -1,1 -2,1 -2,2 0,0 0,0 0,1 0,7 0,14 0,22l-1 0c0,-8 0,-15 0,-23 0,0 0,0 0,0 1,-1 1,-1 1,-1 1,-1 1,-1 1,-1 0,-3 0,-5 0,-7 0,-13 0,-26 0,-39 0,0 0,0 0,0 -2,-2 -3,-3 -5,-5 0,0 -1,-1 -1,-1 0,0 0,0 -1,1 0,0 -1,-1 -1,-2 0,0 0,0 0,-1 -1,-1 -3,-3 -4,-4 0,0 0,0 -1,0 -5,0 -10,0 -16,0 0,0 0,0 0,0 0,0 0,0 -1,1 0,0 0,0 0,0 0,14 0,28 0,42 0,0 0,0 0,0 -3,3 -7,7 -10,10 -1,0 -1,1 -1,1 -3,0 -7,0 -11,0 0,0 0,0 0,0 0,0 -1,0 -1,1 0,1 0,1 0,2 0,0 0,1 0,1 1,1 1,1 2,2 0,0 0,1 0,1 0,4 0,8 0,12 0,2 0,4 0,5 1,0 2,0 3,0 1,1 1,1 1,1 1,2 3,3 4,4l-1 0c-1,-1 -2,-2 -3,-3 0,0 -1,-1 -1,-1 0,0 -1,0 -1,0 -1,0 -2,0 -3,0 0,-2 0,-4 0,-6 0,-4 0,-8 0,-11 0,-1 0,-2 0,-2 0,-1 -1,-1 -2,-2 0,0 0,0 0,0 0,-1 0,-2 0,-3 0,0 0,0 0,0 1,-1 2,-2 2,-2 0,0 1,0 1,0 3,0 7,0 10,0 0,0 1,0 1,-1 2,-2 5,-5 7,-7 1,-1 2,-2 2,-2 0,-1 0,-1 0,-2 0,-13 0,-27 0,-40 0,0 1,-1 1,-1l0 0zm23 5c0,0 0,1 0,1 0,0 1,-1 1,-1 0,0 -1,0 -1,0z"/>
   </g>
   <g>
    <path class="fil0" d="M9 46c0,0 1,0 1,0 0,0 0,1 1,1 0,0 1,0 1,0 0,0 0,-1 1,-1 0,0 0,0 1,0 0,0 0,1 0,1 1,0 1,0 2,0 0,-1 1,-1 1,-1 1,0 1,0 1,1 1,0 1,0 2,0 0,0 0,0 0,-1 0,0 1,0 2,0 0,1 0,1 0,1 1,0 1,0 1,0 1,-1 1,-1 1,-1 1,0 2,0 2,1 0,0 1,0 2,0 0,7 0,13 0,20 0,0 0,0 0,0 1,2 2,3 3,4 0,1 0,2 0,3 0,5 0,11 0,16 0,1 1,1 1,1 0,1 1,1 2,2 1,1 2,2 3,3 1,1 3,3 5,5 1,1 2,2 3,3 0,0 1,1 2,2 0,0 0,0 0,0 0,8 0,15 0,23l-1 0c0,-8 0,-15 0,-23 0,0 0,0 0,0 -4,-4 -7,-8 -11,-11 -1,-1 -3,-3 -4,-4 0,0 0,0 0,-1 0,-5 0,-10 0,-16 0,-1 0,-2 0,-3 -1,0 -1,-1 -2,-1 0,-1 -1,-2 -2,-2 0,0 0,-1 0,-1 0,-1 0,-2 0,-3 0,-1 0,-2 0,-3 0,-2 0,-4 0,-6 0,-3 0,-5 0,-7 0,0 -1,-1 -1,0 0,0 0,1 -1,1 -1,0 -1,0 -2,-1 0,0 0,0 0,0 0,-1 0,0 -1,0 0,0 0,0 0,0 0,1 -1,1 -1,1 -1,0 -1,-1 -1,-1 0,0 0,0 -1,0 0,0 0,0 -1,0 0,0 0,0 0,0 0,1 0,1 -1,1 -1,0 -1,-1 -1,-1 -1,-1 -1,0 -1,0 0,0 -1,0 -1,1 -1,0 -1,0 -2,-1 0,0 0,0 0,0 0,-1 0,0 -1,0 0,0 0,-1 0,0 0,0 -1,1 -1,1 -1,0 -1,0 -1,-1 -1,0 -1,0 -1,0 -1,1 -3,3 -5,5 -1,1 -2,2 -3,3l0 -1c3,-3 5,-5 8,-8 0,0 0,0 1,-1l0 0zm0 1c0,0 0,0 0,0 0,0 0,1 0,1 0,0 1,0 1,0 0,0 0,0 0,0 0,-1 0,-1 -1,-1l0 0zm12 0c-1,0 -1,0 -1,1 0,0 1,0 1,0 1,-1 0,-1 0,-1l0 0zm-8 0c0,0 0,0 0,0 0,1 0,1 0,1 1,0 1,-1 1,-1 0,0 -1,0 -1,0l0 0zm4 0c0,0 -1,1 0,1 0,0 0,0 0,0 1,0 1,-1 1,-1 0,0 -1,0 -1,0 0,0 0,0 0,0l0 0zm7 0c0,0 0,0 0,1 0,0 1,0 1,0 0,-1 0,-1 0,-1 0,0 0,0 -1,0z"/>
   </g>
   <g>
    <path class="fil0" d="M71 50c1,0 1,-1 1,-1 1,0 2,0 3,0 0,2 0,3 0,5 0,0 0,1 0,1 0,0 0,1 0,1 0,0 0,0 0,0 0,2 0,4 0,5 0,1 0,1 0,2 0,0 0,0 0,0 0,0 0,1 0,1 0,2 0,3 0,5 0,0 0,0 0,1 0,0 0,1 0,1 0,0 0,0 0,0 0,2 0,4 0,6 0,0 0,0 0,1 0,0 0,1 0,1 0,2 0,3 0,5 0,0 0,1 0,1 0,1 0,1 0,2 0,0 0,1 0,2 0,0 -1,0 -1,0 0,1 -1,2 -2,2 -1,0 -3,0 -5,0 -1,0 -2,0 -3,0 0,0 0,0 0,0 -1,-1 -2,-2 -2,-2 0,-1 0,-2 0,-3 -1,0 -1,-1 -1,-1 0,0 1,-1 1,-1 0,-2 0,-3 0,-5 0,0 -1,-1 -1,-1 0,0 0,-1 1,-1 0,-1 0,-1 1,-1 3,-3 5,-6 8,-9 0,0 0,0 0,0 0,-1 0,-1 0,-2 0,0 0,0 0,0 0,-2 0,-3 0,-5 0,0 0,-1 0,-2 0,0 0,0 0,0 0,-2 0,-4 0,-6 0,0 0,0 0,-1 0,0 0,-1 0,-1l0 0zm1 0c1,0 1,0 1,1 0,0 0,0 0,1 0,0 0,1 -1,1 0,1 0,2 0,3 0,0 0,1 0,1 1,0 1,1 1,1 0,1 0,1 0,1 0,1 0,1 -1,1 0,2 0,3 0,5 1,0 1,1 1,1 0,1 0,1 0,1 0,1 -1,1 -1,1 -1,1 -2,2 -3,3 -2,2 -4,4 -6,5 0,1 0,1 1,1 0,0 0,1 0,2 -1,0 -1,0 -1,0 0,2 0,3 0,5 0,0 1,0 1,1 0,0 0,1 0,1 0,0 -1,1 -1,1 0,0 0,1 0,2 0,0 1,1 1,1 0,0 0,0 0,0 3,0 6,0 8,0 0,0 0,0 0,0 1,0 1,-1 2,-1 0,-1 0,-2 0,-2 -1,0 -1,-1 -1,-1 0,0 0,-1 0,-1 0,-1 0,-1 1,-1 0,-2 0,-3 0,-5 -1,0 -1,0 -1,-1 0,0 0,-1 0,-1 0,0 1,-1 1,-1 0,-1 0,-3 0,-4 -1,-1 -1,-1 -1,-1 0,-1 0,-1 0,-1 0,-1 0,-1 1,-1 0,-2 0,-3 0,-5 -1,0 -1,-1 -1,-1 0,0 0,-1 0,-1 0,0 0,-1 1,-1 0,-1 0,-3 0,-5 -1,0 -1,0 -1,-1 0,0 0,0 0,-1 0,0 0,0 1,0 0,-2 0,-3 0,-4 -1,0 -1,0 -2,0l0 0zm0 1c-1,0 -1,0 0,1 0,0 0,0 1,-1 0,0 0,0 -1,0 0,0 0,0 0,0l0 0zm2 3c0,0 0,1 0,1 -1,0 -1,1 0,1 0,0 0,-1 1,-1 0,0 -1,-1 -1,-1l0 0zm-2 4c0,0 -1,1 0,1 0,0 0,0 0,0 0,0 0,0 1,0 0,0 0,0 -1,-1 0,0 0,0 0,0l0 0zm2 4c0,0 -1,0 -1,1 0,0 1,0 1,0 0,0 1,0 0,-1 0,0 0,0 0,0l0 0zm-2 4c-1,0 -1,1 0,1 0,0 0,0 0,0 1,0 1,-1 1,-1 -1,0 -1,0 -1,0l0 0zm2 4c0,0 -1,0 -1,0 0,0 1,1 1,1 0,0 0,-1 1,-1 0,0 -1,0 -1,0l0 0zm-12 7c0,0 0,1 0,1 0,0 1,0 1,0 0,0 0,0 0,-1 0,0 0,0 -1,0l0 0zm12 0c-1,0 -1,1 0,1 0,0 0,0 0,0 1,0 0,-1 0,-1l0 0zm-12 8c0,0 0,0 0,1 0,0 1,0 1,0 0,0 0,-1 0,-1 0,0 0,0 -1,0l0 0zm12 0c-1,0 -1,0 -1,1 1,0 1,0 1,0 1,-1 0,-1 0,-1z"/>
   </g>
   <g>
    <path class="fil0" d="M8 50c0,0 0,0 1,0 3,0 7,0 11,0 1,0 3,0 5,0 0,1 0,2 0,4 0,0 1,0 1,0 0,1 0,2 0,2 -1,0 -1,0 -1,0 0,2 0,4 0,5 0,0 0,0 1,1 0,0 0,1 0,1 0,1 -1,1 -1,1 0,1 0,2 0,3 0,0 0,0 0,0 1,2 2,3 3,4 0,0 0,0 0,0 0,5 0,10 0,15 0,2 0,3 0,4 2,2 4,4 5,6 1,-1 1,-1 1,-1 1,0 1,1 1,1 1,1 0,1 0,1 1,1 2,2 3,3 1,1 2,2 3,3 0,0 0,0 1,0 0,0 0,0 0,0 1,0 1,1 1,1 0,0 0,1 0,1 0,0 1,1 1,1 0,0 0,0 0,1 0,0 0,0 1,0 0,1 0,1 0,2 -1,0 -1,0 -1,0 0,2 0,4 0,5 0,0 0,1 1,1 0,0 0,1 0,1 0,1 -1,1 -1,1 0,1 0,1 0,2 0,1 0,2 0,3 0,0 1,1 1,1 0,1 0,1 -1,1 0,0 0,1 0,1 0,1 0,3 0,4l-1 0c0,-2 0,-3 0,-5 0,0 0,0 -1,0 0,-1 0,-1 1,-2 0,0 0,0 0,0 0,-2 0,-3 0,-5 0,0 0,0 -1,-1 0,0 0,-1 1,-1 0,0 0,0 0,-1 0,0 0,-1 0,-2 0,-1 0,-2 0,-3 0,0 0,0 -1,0 0,-1 0,-1 0,-2 1,0 1,0 1,0 0,0 0,-1 0,-1 0,0 0,0 0,-1 -1,1 -1,1 -1,1 -1,0 -2,-1 -2,-2 0,0 0,0 1,-1 -2,-1 -4,-3 -5,-5 -1,0 -1,0 -1,0 0,0 -1,0 -1,0 -1,0 -1,0 -1,-1 0,0 0,-1 0,-1 -1,-1 -2,-2 -2,-3 -1,-1 -2,-2 -3,-2 0,-1 0,-2 0,-2 0,-5 0,-11 0,-16 0,-1 0,-1 0,-2 -1,-1 -3,-2 -4,-3 0,-1 0,-1 0,-1 0,0 -1,1 -1,1 0,0 -1,0 -1,-1 0,0 -1,0 -1,0 0,0 -1,0 -1,0 0,1 -1,1 -1,1 0,0 -1,0 -1,-1 -1,0 -1,0 -2,0 0,0 0,1 -1,1 0,0 0,0 -1,-1 0,0 -1,0 -2,0 0,0 0,1 0,1 -1,0 -1,0 -1,0 -1,-1 -1,-1 -1,-1 0,1 0,1 0,2 0,0 1,0 1,1 0,0 0,1 -1,1 0,0 0,0 0,0 0,2 0,3 0,4 0,1 0,1 0,1 0,1 0,1 0,1 1,0 1,1 1,1 0,1 -1,1 -1,1 0,1 0,2 0,3 0,0 0,0 0,0 -1,0 -1,0 -1,0 0,0 0,1 -1,1 0,0 -1,0 -1,0 -1,-1 -1,-1 -1,-1 0,0 0,0 -1,0 0,0 0,0 0,0 -1,1 -1,1 -2,1 0,0 0,-1 -1,-1 0,0 0,0 -1,0 0,0 0,0 0,1 0,0 -1,0 -1,0l0 -1c0,0 0,0 1,0 0,-1 -1,-1 -1,-1l0 -6c0,-1 1,-1 1,-1 0,0 -1,-1 -1,-1l0 -6c0,0 1,0 1,-1 -1,0 -1,0 -1,0l0 -7c0,0 1,0 1,0 0,0 -1,-1 -1,-1l0 -1c0,0 0,1 1,1 1,-2 3,-4 5,-6 0,0 0,-1 0,-1 0,0 1,-1 1,-1 0,0 1,0 1,0l0 0zm-1 1c0,0 0,0 0,1 1,0 1,0 1,-1 0,0 0,0 -1,0l0 0zm4 0c0,0 0,0 0,1 0,0 0,0 1,0 0,0 0,-1 0,-1 0,0 -1,0 -1,0l0 0zm4 0c0,0 -1,0 0,0 0,1 0,1 0,1 1,0 1,-1 1,-1 0,0 -1,0 -1,0l0 0zm4 0c-1,0 -1,1 0,1 0,0 1,-1 1,-1 -1,0 -1,0 -1,0l0 0zm4 0c-1,0 -1,0 -1,0 0,1 1,1 1,1 0,0 0,-1 0,-1 0,0 0,0 0,0l0 0zm-17 3c-1,0 -1,1 -1,1 0,1 1,1 1,0 0,0 0,-1 0,-1l0 0zm3 0c0,1 0,1 0,1 0,1 1,1 1,0 0,0 0,-1 -1,-1l0 0zm4 0c0,0 0,1 0,1 0,1 1,1 1,0 0,0 0,-1 -1,-1l0 0zm4 0c0,1 -1,1 0,1 -1,0 0,1 0,1 1,-1 1,-1 1,-1 -1,0 -1,-1 -1,-1l0 0zm4 0c0,0 -1,1 -1,1 0,0 1,1 1,1 0,-1 0,-1 0,-1 0,0 0,-1 0,-1l0 0zm4 0c-1,0 -1,1 -1,1 0,0 0,1 1,1 0,0 0,-1 0,-1 0,0 0,-1 0,-1l0 0zm-21 4c-1,0 -1,1 -1,1 1,1 1,0 1,0 0,-1 0,-1 0,-1l0 0zm3 0c0,0 0,1 0,1 1,1 1,0 1,0 0,-1 0,-1 -1,-1l0 0zm4 0c0,0 0,1 0,1 0,0 0,0 0,0 1,0 1,0 1,0 0,0 0,-1 0,-1 0,0 -1,0 -1,0l0 0zm4 0c0,0 0,0 0,1 0,0 0,0 0,0 0,0 1,0 1,0 0,-1 -1,-1 -1,-1l0 0zm4 0c-1,0 -1,1 0,1 0,0 0,0 1,0 0,0 -1,-1 -1,-1l0 0zm4 0c-1,0 -1,1 -1,1 1,1 1,0 1,0 0,-1 0,-1 0,-1l0 0zm-21 4c-1,0 -1,0 -1,1 0,0 1,0 1,0 0,0 1,0 0,-1 0,0 0,0 0,0l0 0zm3 0c0,0 0,0 0,0 0,1 0,1 1,1 0,0 0,0 0,0 0,-1 0,-1 -1,-1l0 0zm4 0c0,0 0,1 0,1 0,0 1,0 1,0 0,-1 0,-1 -1,-1l0 0zm4 0c0,0 0,1 0,1 0,0 1,0 1,0 0,-1 -1,-1 -1,-1l0 0zm4 0c-1,0 -1,1 0,1 0,0 1,0 1,-1 0,0 -1,0 -1,0l0 0zm4 0c-1,0 -1,1 0,1 0,0 1,0 0,-1 0,0 0,0 0,0l0 0zm3 0c0,0 0,1 0,1 0,0 1,0 1,0 0,0 0,0 0,-1 0,0 0,0 -1,0l0 0zm-20 4c-1,0 -1,1 -1,1 1,0 1,0 1,0 0,-1 0,-1 0,-1l0 0zm3 0c0,0 0,0 0,1 0,0 1,0 1,-1 0,0 0,0 -1,0l0 0zm4 0c0,0 0,0 0,0 0,1 0,1 1,1 0,0 0,-1 0,-1 0,0 -1,0 -1,0l0 0zm4 0c0,0 -1,0 0,1 0,0 1,0 1,-1 0,0 -1,0 -1,0l0 0zm4 0c-1,0 -1,1 0,1 0,0 0,0 1,0 0,-1 -1,-1 -1,-1l0 0zm4 0c-1,0 -1,0 -1,1 1,0 1,0 1,0 0,-1 0,-1 0,-1l0 0zm-21 4c-1,0 -1,0 -1,1 1,0 1,0 1,-1 1,0 0,0 0,0l0 0zm4 0c-1,0 -1,0 -1,1 1,0 1,0 1,-1 0,0 0,0 0,0l0 0zm3 0c0,0 0,0 0,1 0,0 1,0 1,-1 0,0 0,0 -1,0l0 0zm-5 3c-1,1 -1,1 0,1 0,1 0,0 0,0 0,0 0,-1 0,-1l0 0zm3 0c0,1 0,1 0,1 1,1 1,0 1,0 0,0 0,-1 -1,-1l0 0zm-5 4c-1,0 -1,1 -1,1 1,0 1,0 1,0 1,-1 0,-1 0,-1l0 0zm4 0c-1,0 -1,1 -1,1 1,0 1,0 1,0 0,0 0,-1 0,-1l0 0zm3 0c0,0 0,1 0,1 0,0 1,0 1,0 0,0 0,-1 -1,-1l0 0zm-5 4c-1,0 -1,0 -1,1 0,0 1,0 1,0 0,0 0,0 0,-1 0,0 0,0 0,0l0 0zm3 0c0,0 0,1 0,1 0,0 1,0 1,0 0,0 0,-1 0,-1 0,0 0,0 -1,0l0 0zm27 15c0,0 -1,1 0,1 0,0 0,0 1,0 0,0 0,0 0,-1 0,0 -1,0 -1,0l0 0zm7 8c0,0 0,0 0,0 0,1 0,1 1,1 0,0 0,-1 0,-1 0,0 0,0 -1,0l0 0zm2 4c0,0 0,0 0,0 0,0 0,1 1,1 0,0 0,-1 0,-1 0,0 0,-1 -1,0l0 0zm0 7c0,0 0,1 0,1 0,0 1,0 1,0 0,0 0,0 0,-1 0,0 0,0 -1,0l0 0zm0 8c0,0 0,0 0,1 1,0 1,0 1,-1 0,0 0,0 -1,0z"/>
   </g>
   <g>
    <path class="fil0" d="M122 59c2,-2 5,-5 7,-7l0 1c-2,2 -4,4 -6,6 0,0 0,0 -1,1 0,1 0,3 0,4 0,13 0,26 0,39 0,0 1,1 1,1 0,0 0,1 -1,2 0,0 -1,0 -1,0 0,0 -1,0 -1,0 0,8 0,15 0,23l0 0c0,-8 0,-15 0,-23 0,0 0,0 0,0 0,0 0,-1 0,-1 0,0 0,-1 0,-2 1,0 1,0 1,0 0,-14 0,-29 0,-43 1,-1 1,-1 1,-1l0 0zm-1 45c0,0 0,1 0,1 0,0 0,0 1,0 0,0 0,-1 0,-1 0,0 -1,0 -1,0z"/>
   </g>
   <g>
    <path class="fil0" d="M125 60c1,-2 2,-3 4,-5l0 1c-1,1 -3,2 -4,4 0,0 0,1 0,1 0,1 0,3 0,4 1,0 1,0 1,0 1,1 1,2 0,2 0,1 0,1 -1,1 0,1 0,3 0,5 1,0 1,0 1,0 1,1 1,2 0,2 0,0 -1,0 -1,0 0,2 0,4 0,5 1,0 1,1 1,1 1,1 0,2 0,2 0,0 -1,0 -1,0 0,2 0,3 0,5 1,0 1,0 2,1 0,0 -1,1 -1,1 0,0 -1,0 -1,0 0,2 0,4 0,5 0,0 1,0 1,1 0,0 1,0 1,1 0,0 -1,1 -1,1 0,0 -1,0 -1,0 0,2 0,4 0,6 0,0 0,0 -1,1 0,0 0,0 -1,1 0,0 0,0 0,1 1,0 1,0 1,0 1,1 1,1 0,2 0,0 0,0 -1,0 0,2 0,4 0,5 1,0 1,1 1,1 1,1 1,1 0,2 0,0 0,0 -1,0 0,2 0,3 0,5 1,0 1,0 1,0 1,1 1,1 0,2 0,0 0,1 -1,1 0,1 0,3 0,4l0 0c0,-2 0,-3 0,-5 -1,0 -1,0 -1,0 0,-1 0,-1 0,-2 0,0 1,0 1,0 0,-2 0,-3 0,-5 0,0 -1,0 -1,0 0,-1 0,-1 0,-2 0,0 0,0 1,0 0,-1 0,-1 0,-1 0,-2 0,-3 0,-5 0,0 -1,0 -1,0 0,0 0,-1 0,-2 0,0 0,0 1,0 0,0 0,-1 0,-1 0,-1 0,-1 1,-1 0,0 0,-1 0,-1 0,0 0,-1 0,-1 0,-2 0,-4 0,-5 0,0 0,0 0,-1 0,0 0,-1 0,-1 0,0 0,0 0,-1 0,-1 0,-3 0,-5 0,0 0,0 0,0 0,0 0,-1 0,-2 0,0 0,0 0,0 0,0 0,-1 0,-1 0,-2 0,-3 0,-4 0,0 0,-1 0,-1 0,0 0,-1 0,-1 0,0 0,-1 0,-1 0,-1 0,-3 0,-5 0,0 0,0 0,0 0,-1 0,-2 0,-2 0,0 0,0 0,0 0,-2 0,-4 0,-5 0,-1 0,-1 0,-1 0,-1 0,-1 0,-2 0,0 0,0 0,0 0,-2 0,-3 0,-5 0,0 1,0 1,0l0 0zm0 6c0,0 -1,0 0,1 0,0 0,0 0,0 1,0 1,-1 1,-1 -1,0 -1,0 -1,0l0 0zm0 7c0,1 0,1 0,1 0,0 0,1 0,0 1,0 1,0 1,0 -1,-1 -1,-1 -1,-1l0 0zm0 8c0,0 -1,1 0,1 0,0 1,0 1,0 0,-1 -1,-1 -1,-1l0 0zm0 8c0,0 0,0 0,0 0,1 0,1 1,0 0,0 0,0 -1,0 0,0 0,0 0,0l0 0zm0 7c0,0 0,0 0,1 0,0 0,0 0,0 0,0 1,0 1,0 0,-1 -1,-1 -1,-1l0 0zm-2 12c0,0 0,0 0,0 0,0 0,1 0,1 1,0 1,-1 1,-1 0,0 -1,0 -1,0l0 0zm0 7c0,0 0,0 0,1 0,0 0,0 1,0 0,0 0,0 0,-1 0,0 -1,0 -1,0l0 0zm0 8c0,0 0,0 0,0 0,1 0,1 0,1 0,0 1,0 1,-1 0,0 -1,0 -1,0z"/>
   </g>
   <path class="fil0" d="M128 58c0,0 0,-1 1,-1l0 1c0,0 0,0 -1,1 0,0 0,0 1,0 0,0 0,0 0,0l0 7c0,0 -1,0 -1,0 0,1 1,1 1,1l0 6c0,0 -1,1 -1,1 0,0 1,0 1,1l0 6c0,0 0,0 -1,0 0,1 0,1 1,1 0,0 0,0 0,0l0 1c0,0 -1,0 -1,0 0,7 0,14 0,20 0,1 0,1 0,1 0,1 -1,1 -2,2 0,0 0,0 0,0 0,8 0,15 0,23l0 0c0,-8 0,-15 0,-23 0,0 -1,0 0,0 0,-1 1,-1 1,-2 0,0 0,-1 0,-1 0,-1 0,-2 0,-4 0,-1 0,-2 0,-4 0,-1 0,-3 0,-4 0,-1 0,-2 0,-2 0,-2 0,-3 0,-5 0,-1 0,-3 0,-4 0,-7 0,-13 0,-20 0,0 1,0 1,-1 0,0 0,0 0,0 0,0 0,-1 0,-1z"/>
   <g>
    <path class="fil0" d="M52 66c0,-1 1,-1 1,-1 0,0 1,0 1,0 0,1 1,2 0,2 0,0 0,0 0,0 0,1 0,1 0,2 0,0 0,0 -1,0 0,0 0,0 0,-1 -1,0 -1,0 -1,-1 0,0 0,-1 0,-1 0,0 0,0 0,0l0 0zm1 0c0,0 -1,0 0,1 0,0 0,0 0,0 1,0 1,-1 0,-1 0,0 0,0 0,0z"/>
   </g>
   <g>
    <path class="fil0" d="M12 70c0,-1 1,-1 2,-1 0,0 0,0 0,1 1,0 1,0 2,0 0,0 0,-1 0,-1 0,0 1,0 2,0 0,0 0,0 0,1 1,0 1,0 2,0 0,-1 0,-1 0,-1 0,0 1,0 1,0 1,0 1,0 1,1 1,0 1,0 2,0 0,0 0,0 0,0 1,0 1,1 1,1 0,0 0,0 0,1 0,5 0,11 0,17 0,0 0,1 0,2 4,3 7,6 10,9 2,2 4,4 6,6 0,0 0,0 0,0 0,8 0,15 0,23l-1 0c0,-7 0,-15 0,-22 0,-1 0,-1 0,-1 -4,-4 -7,-7 -11,-11 -1,-1 -3,-3 -4,-4 0,0 0,-1 0,-1 0,-6 0,-12 0,-18 0,-1 0,-1 0,-1 -1,0 -1,0 -1,-1 -1,0 -1,0 -2,0 0,1 0,1 0,1 -1,1 -2,1 -2,0 0,0 0,0 0,-1 -1,0 -1,0 -2,0 0,1 0,1 0,1 0,0 -1,1 -1,0 -1,0 -1,0 -1,-1 -1,0 -1,0 -1,0 0,1 -1,1 -1,1 0,1 -1,1 -1,0 0,4 0,7 0,11 0,0 0,0 0,0 -1,1 -2,2 -3,3 0,0 0,0 0,0 -3,0 -5,0 -7,0 0,0 0,0 0,1 0,0 0,0 0,0 0,1 -1,1 -1,1 0,1 0,3 0,5 0,0 1,0 1,0 0,0 0,1 0,1 0,1 0,1 -1,1 0,2 0,4 0,5 1,0 1,1 1,1 0,1 0,1 0,2 0,0 -1,0 -1,0 0,1 0,1 0,2 0,1 -1,1 -2,2 0,0 0,0 0,0 0,1 0,2 0,3 0,1 0,1 0,2 1,0 1,0 1,1 0,0 0,0 0,1 0,0 0,0 -1,0 0,1 0,2 0,3 0,1 0,2 0,2 1,0 1,0 1,1 0,0 0,0 0,0 0,1 0,1 0,1 0,1 0,1 -1,1 0,1 0,2 0,3 0,0 0,1 0,2 1,0 1,0 1,0 0,1 0,1 0,2 0,0 0,0 -1,0 0,1 0,1 0,1l0 0 0 -1c0,0 0,-1 1,-1 0,0 -1,0 -1,-1l0 -6c0,0 1,0 1,-1 -1,0 -1,0 -1,0l0 -7c0,0 0,0 1,0 0,0 0,0 -1,-1 0,0 0,0 0,0l0 -6c0,0 1,0 1,-1 0,0 0,0 0,0 0,-1 0,-1 0,-2 0,0 0,0 0,0 0,0 0,0 0,-1 0,0 -1,-1 0,-1 0,0 0,-1 0,-1 0,0 0,0 0,0 0,-2 0,-3 0,-5 0,0 0,0 0,0 -1,-1 -1,-2 0,-2 0,0 0,0 0,-1 0,-1 0,-3 0,-4 0,0 0,0 0,-1 0,0 -1,-1 0,-1 0,-1 0,-1 1,-1 0,0 1,0 2,0 2,0 3,0 5,0 0,0 1,0 1,0 1,-1 1,-1 2,-2 0,0 0,0 0,0 0,-4 0,-7 0,-11 0,0 0,0 0,-1l0 0zm1 0c0,0 0,0 0,0 0,0 0,1 0,1 1,0 1,-1 1,-1 -1,0 -1,0 -1,0l0 0zm4 0c0,0 -1,0 0,1 0,0 0,0 1,-1 0,0 0,0 -1,0 0,0 0,0 0,0l0 0zm4 0c-1,0 -1,0 -1,0 1,1 1,1 1,1 0,-1 0,-1 0,-1 0,0 0,0 0,0l0 0zm-19 15c-1,0 -1,0 0,1 0,0 0,0 0,0 0,-1 0,-1 0,-1 0,0 0,0 0,0l0 0zm0 7c0,0 -1,1 -1,1 0,0 0,0 1,0 0,1 0,0 0,0 1,0 0,-1 0,-1l0 0zm0 8c-1,0 -1,0 -1,1 1,0 1,0 1,0 0,0 0,0 0,0 0,-1 0,-1 0,-1 0,0 0,0 0,0z"/>
   </g>
   <g>
    <path class="fil0" d="M41 73c1,-1 2,0 2,0 0,0 1,0 1,0 0,0 0,0 0,0 1,-1 2,-1 3,0 0,0 0,0 0,0 0,1 1,1 1,1 1,1 1,2 2,3 0,0 0,0 0,0 1,0 1,-1 1,-1 1,0 1,1 1,1 1,0 1,1 0,1 0,0 0,0 0,1 0,0 1,0 1,0 0,0 1,0 2,0 0,0 1,0 2,0 0,1 0,1 0,1 1,0 1,1 1,1 0,1 0,1 0,2 0,0 -1,0 -1,0 0,2 0,3 0,5 0,0 1,0 1,0 0,0 0,1 0,1 0,0 0,1 0,1 0,0 1,0 1,0 0,1 0,1 0,2 0,0 1,0 1,1 0,0 0,1 -1,1 0,0 -1,0 -1,0 -1,1 -2,3 -4,4 0,0 0,0 0,0 -2,0 -4,0 -6,0 0,0 -1,0 -1,0 0,0 0,0 -1,0 0,0 0,0 -1,0 0,0 -1,-1 -1,-1 0,-1 0,-1 0,-1 -1,-2 -3,-4 -5,-5 0,-2 0,-3 0,-5 0,0 -1,0 -1,-1 0,0 1,-1 1,-1 0,-2 0,-3 0,-5 0,0 0,0 0,0 0,0 0,-1 -1,-1 0,-1 1,-1 1,-1 0,-1 0,-3 0,-4 1,0 1,0 1,0 1,0 1,0 1,0l0 0zm0 0c0,1 0,1 0,1 0,0 1,1 1,1 0,0 0,-1 0,-1 0,0 0,0 0,0 0,-1 0,-1 -1,-1l0 0zm4 0c0,1 0,1 0,1 0,0 0,1 1,1 0,-1 0,-1 0,-1 0,0 0,0 0,0 0,-1 0,-1 -1,-1l0 0zm-5 1c0,1 0,2 0,2 0,0 1,1 1,1 0,0 0,1 0,1 0,1 -1,1 -1,1 0,2 0,3 0,5 0,0 1,0 1,1 0,0 0,1 0,1 0,0 -1,1 -1,1 0,1 0,2 0,4 1,1 3,2 4,4 0,0 1,0 1,0 0,0 0,0 1,0 1,1 1,1 1,2 0,0 0,1 0,1 2,0 5,0 7,0 0,-1 0,-1 1,-1 1,-1 2,-2 3,-3 0,0 -1,-1 -1,-1 0,0 1,-1 1,-1 0,-1 0,-1 0,-1 0,-1 0,-1 0,-1 0,0 -1,0 -1,0 -1,1 -2,0 -1,-1 0,0 0,-1 0,-1 0,0 0,0 0,0 0,-2 0,-4 0,-5 0,0 0,-1 0,-1 0,0 0,0 0,-1 0,0 0,0 0,-1 0,0 0,0 0,0 0,0 -1,0 -2,0 0,0 -1,0 -1,0 -1,0 -1,-1 -1,-1 0,0 -1,0 -1,0 0,0 -1,-1 -1,-1 0,0 0,-1 0,-1 -1,-1 -2,-2 -3,-3 0,0 0,0 0,0 0,1 -1,2 -2,1 0,0 -1,0 -1,-1 0,0 -1,0 -1,0 0,0 0,1 0,1 -1,0 -1,0 -2,0 0,0 -1,0 -1,-1 0,0 0,0 0,0l0 0zm0 3c-1,0 -1,1 -1,1 1,0 1,0 1,0 0,0 0,0 0,-1 0,0 0,0 0,0l0 0zm11 0c0,0 0,1 0,1 0,0 0,0 1,0 0,0 0,-1 -1,-1l0 0zm6 4c-1,0 -1,1 0,1 0,0 0,0 0,0 0,0 0,-1 0,-1 0,0 0,0 0,0l0 0zm-17 4c-1,0 -1,1 0,1 0,0 0,0 0,0 0,0 0,-1 0,-1 0,0 0,0 0,0l0 0zm17 4c0,0 -1,0 -1,0 0,0 0,0 0,0 1,1 1,1 1,1 0,0 1,-1 0,-1 0,0 0,0 0,0l0 0zm2 3c-1,0 -1,1 -1,1 0,0 1,0 1,0 0,1 0,0 0,0 0,-1 0,-1 0,-1l0 0zm-14 4c0,0 0,1 0,1 0,0 0,0 0,0 1,0 1,0 1,0 0,-1 0,-1 -1,-1z"/>
   </g>
   <g>
    <path class="fil0" d="M42 76c2,0 3,0 5,0 0,1 0,1 1,1 1,2 3,3 5,5 0,0 1,0 1,0 0,2 0,5 0,7 1,0 1,1 2,1 0,0 0,0 0,1 0,0 0,1 0,2 0,0 0,0 0,1 -1,0 -1,1 -2,1 -2,0 -4,0 -6,0 0,0 -1,0 -1,0 -1,0 -2,-1 -3,-2 0,-1 -1,-2 -2,-2 0,-1 0,-2 0,-2 0,-4 0,-8 0,-11 0,-1 0,-1 0,-2l0 0zm1 1c0,5 0,9 0,14 1,1 3,2 4,4 0,0 1,0 1,0 2,0 4,0 6,0 0,-1 1,-1 1,-2 0,-1 0,-2 0,-3 0,0 -1,-1 -2,-1 0,0 0,0 0,-1 0,-1 0,-3 0,-5 0,0 0,0 0,0 0,0 -1,-1 -1,-1 -2,-1 -3,-3 -5,-5 0,0 -1,0 -1,0 -1,0 -2,0 -3,0z"/>
   </g>
   <g>
    <path class="fil0" d="M45 79c1,0 1,0 2,0 0,0 0,1 1,1 1,1 2,2 3,3 0,0 0,0 0,0 0,2 0,4 0,6 1,0 1,1 2,1 0,1 0,2 0,2 -2,0 -4,0 -6,0 0,0 -1,0 -1,-1 0,0 -1,0 -1,-1 0,0 0,0 0,0 -1,0 -1,-1 -1,-1 0,-1 1,-1 1,-1 0,-1 0,-1 0,-2 0,-1 0,-2 0,-3 0,0 0,0 0,0 -1,-1 -1,-1 -1,-2 0,0 1,-1 1,-1 0,0 0,0 0,-1l0 0zm1 1c0,0 0,0 0,0 0,0 0,0 0,0 1,1 1,1 1,2 0,0 0,0 -1,1 0,0 0,0 0,0 0,1 0,3 0,5 0,0 0,0 0,0 1,0 1,1 1,2 0,0 -1,0 -1,0 0,1 1,1 1,2 2,0 3,0 5,0 0,-1 0,-1 0,-1 0,-1 -1,-2 -2,-2 0,0 0,0 0,0 0,-2 0,-4 0,-6 0,0 0,0 0,0 -1,-1 -2,-2 -3,-3 0,0 0,0 0,0 0,0 -1,0 -1,0l0 0zm-1 1c0,0 0,0 0,1 0,0 1,0 1,0 0,0 0,-1 0,-1 0,0 0,0 -1,0l0 0zm0 8c0,0 0,0 0,0 0,1 1,1 1,0 0,0 0,0 0,0 0,0 0,0 -1,0z"/>
   </g>
   <g>
    <path class="fil0" d="M84 90c0,0 1,0 1,0 8,0 17,0 26,0 0,1 0,2 0,4 0,3 0,6 0,9 0,0 0,0 0,1 1,0 0,1 0,1 -1,1 -1,1 -2,0 0,1 0,1 0,1 0,8 0,15 0,23l-1 0c0,-8 0,-15 0,-22 0,-1 0,-1 0,-1 0,0 1,-1 1,-1 0,0 0,-1 0,-1 0,-1 0,-1 1,-1 0,-4 0,-8 0,-13 -1,0 -1,0 -2,0 -8,0 -16,0 -23,0 -1,0 -1,1 -1,1 0,0 -1,1 -1,1 0,0 0,1 0,1 0,1 -1,1 -1,1 -1,0 -1,0 -1,0 -2,2 -4,4 -6,6 0,0 0,0 0,0 0,0 0,0 0,1 0,0 0,1 -1,1 0,0 -1,0 -1,0 0,0 0,0 -1,1 -2,0 -5,0 -8,0 0,0 -1,0 -1,0 0,0 0,0 0,1 0,0 0,0 0,0 1,1 1,1 2,2 0,0 0,0 0,0 0,2 0,3 0,5 0,0 1,0 1,0 0,1 0,1 -1,2 0,0 0,0 0,0 0,1 0,1 0,2 0,1 0,2 0,3 0,0 0,0 0,0 1,1 1,2 1,2 -1,0 -1,1 -1,1 0,0 0,0 0,0 0,0 1,1 1,1 0,0 0,0 1,0 0,0 1,1 1,1 0,0 0,1 0,1 1,2 3,3 5,5l-1 0c-1,-1 -2,-2 -2,-2 -1,-1 -2,-2 -3,-3 0,0 0,1 -1,1 0,0 -1,-1 -1,-2 0,0 0,0 0,-1 0,0 0,0 0,0 0,0 -1,0 -1,0 0,0 0,-1 0,-1 0,0 -1,-1 -1,-1 0,-1 0,-1 0,-1 1,-1 1,-1 1,-1 0,0 0,-1 0,-2 0,-1 0,-2 0,-3 0,0 0,0 -1,0 0,-1 0,-1 0,-1 0,-1 1,-1 1,-1 0,-2 0,-3 0,-5 0,0 0,0 0,0 0,-1 -1,-1 -1,-1 0,-1 -1,-1 -1,-1 0,-1 0,-1 0,-2 1,0 3,0 4,0 2,0 4,0 6,0 0,0 1,-1 1,-1 0,0 0,0 0,-1 0,0 0,-1 1,-1 0,0 0,0 1,0 2,-2 4,-3 5,-5 0,-1 0,-1 0,-1 0,-1 1,-1 1,-1 1,0 1,0 1,0 0,0 1,-1 1,-1 0,0 1,-1 1,-1l0 0zm-3 2c0,1 0,1 0,1 1,1 1,0 1,0 0,0 0,-1 -1,-1l0 0zm-7 8c0,0 -1,0 -1,0 0,1 0,1 1,1 0,0 0,0 0,0 1,-1 0,-1 0,-1l0 0zm36 4c0,0 0,0 -1,0 0,0 1,1 1,1 0,0 1,-1 0,-1 0,0 0,0 0,0l0 0zm-46 7c0,0 0,1 0,1 0,0 0,0 0,0 1,0 1,0 1,0 0,0 0,-1 -1,-1l0 0zm0 8c0,0 0,0 0,1 0,0 1,0 1,0 0,-1 0,-1 -1,-1l0 0zm2 4c0,0 0,0 0,1 0,0 0,0 0,0 1,0 1,0 1,-1 0,0 0,0 0,0 0,0 -1,0 -1,0z"/>
   </g>
   <g>
    <path class="fil0" d="M24 92c1,-1 2,0 2,0 0,1 0,1 0,2 1,1 2,2 3,3 1,1 2,2 2,2 1,0 1,0 1,0 1,0 1,1 2,1 0,1 -1,1 -1,1 1,1 1,1 2,2 1,1 2,2 3,3 0,0 0,0 0,0 0,8 0,15 0,23l-1 0c0,-7 0,-15 0,-22 0,0 0,-1 0,-1 -1,-1 -1,-2 -2,-2 -1,-1 -1,-2 -2,-2 0,0 -1,0 -1,0 -1,0 -1,-1 -1,-1 0,-1 0,-1 0,-1 0,0 0,-1 -1,-1 -1,-1 -2,-2 -3,-3 0,-1 -1,-1 -2,-2 0,0 0,0 0,0 -1,0 -2,0 -2,-1 -6,0 -12,0 -18,0 0,4 0,7 0,11 0,0 0,0 0,0 -1,1 -1,1 -2,2 0,0 0,0 0,0 0,8 0,15 0,23l0 0c0,-7 0,-14 0,-21 0,-1 -1,-2 0,-2 0,-1 1,-1 1,-2 0,0 0,0 0,0 0,-2 0,-5 0,-7 0,-2 0,-3 0,-5 7,0 13,0 19,0 1,0 1,0 1,0l0 0zm0 0c0,0 0,1 0,1 0,0 0,0 0,0 0,0 1,1 1,0 0,0 0,0 0,0 0,-1 0,-1 -1,-1l0 0zm8 8c0,0 0,0 0,1 0,0 1,0 1,0 0,-1 -1,-1 -1,-1z"/>
   </g>
   <g>
    <path class="fil0" d="M84 93c0,-1 1,-2 1,-1 1,0 1,0 2,1 0,0 0,0 1,0 0,-1 0,-1 0,-1 1,0 1,-1 2,0 0,0 0,0 0,1 1,0 1,0 2,0 0,-1 0,-1 0,-1 1,-1 1,-1 2,0 0,0 0,0 0,1 1,0 1,0 1,0 1,-1 1,-1 1,-1 0,0 1,-1 1,0 1,0 1,0 1,1 0,0 1,0 1,0 0,-1 0,-1 1,-1 0,-1 1,-1 1,0 1,0 1,0 1,1 0,0 1,0 1,0 0,-1 0,-1 0,-1 1,0 2,-1 2,0 0,0 0,0 1,1 0,0 1,0 2,0 0,3 0,7 0,11 0,0 0,0 0,0 -1,1 -1,1 -2,2 0,0 0,0 0,0 0,8 0,15 0,23l-1 0c0,-8 0,-15 0,-23 0,0 0,0 0,0 1,-1 1,-1 2,-2 0,0 0,0 0,0 0,-4 0,-7 0,-11 0,0 -1,0 -1,0 -1,1 -1,1 -1,1 -1,0 -1,0 -2,0 0,0 0,0 0,-1 0,0 -1,0 -1,0 0,1 0,1 -1,1 0,0 -1,0 -1,0 0,0 -1,0 -1,-1 0,0 -1,0 -1,0 0,1 0,1 -1,1 0,0 -1,0 -1,0 0,0 0,0 -1,-1 0,0 0,0 -1,0 0,1 0,1 -1,1 0,0 -1,0 -1,0 0,0 0,0 0,-1 -1,0 -1,0 -2,0 0,1 0,1 0,1 -1,0 -1,0 -2,0 0,0 0,0 0,-1 -1,0 -1,0 -1,0 -1,1 -1,1 -1,1 0,0 -1,0 -1,0 0,0 -1,0 -1,0 -1,0 -1,1 -2,2 -2,2 -4,4 -6,6 -1,1 -1,1 -2,2 0,2 0,3 0,5 0,5 0,11 0,17 0,0 0,1 0,1 0,1 1,1 2,2l-1 0c-1,-1 -1,-1 -2,-2 0,-1 0,-3 0,-4 0,-6 0,-12 0,-17 0,-1 0,-1 0,-2 0,0 1,0 1,-1 1,-1 3,-3 5,-5 2,-1 3,-3 5,-5 0,0 0,0 0,0l0 0zm1 -1c0,0 0,1 0,1 0,0 0,1 1,0 0,0 0,0 0,0 0,-1 -1,-1 -1,-1l0 0zm4 0c0,1 0,1 0,1 0,1 0,1 1,0 0,0 0,0 0,0 0,-1 -1,-1 -1,-1l0 0zm4 0c-1,0 -1,1 -1,1 1,0 1,0 1,0 0,0 0,0 0,0 1,0 0,-1 0,-1l0 0zm4 0c-1,0 -1,1 -1,1 1,1 1,1 1,0 0,0 0,-1 0,-1l0 0zm3 0c0,0 0,1 0,1 0,0 0,0 0,0 1,1 1,0 1,0 0,-1 0,-1 -1,-1l0 0zm4 0c0,1 0,1 0,1 0,1 1,0 1,0 0,0 0,0 0,0 0,-1 -1,-1 -1,-1z"/>
   </g>
   <g>
    <path class="fil0" d="M7 95c2,0 3,0 4,0 4,0 8,0 11,0 1,0 1,0 2,0 1,1 1,1 2,2 2,2 4,4 6,6 0,0 0,0 0,1 0,0 1,0 1,1 0,0 1,0 1,0 0,0 0,0 1,1 0,0 0,0 0,0 0,2 0,3 0,5 0,0 0,0 0,0 0,0 0,0 0,0 1,1 0,1 0,2 0,0 0,0 0,0 0,2 0,4 0,5 0,1 0,1 0,1 1,0 0,1 0,1 0,0 0,1 0,1 0,1 0,3 0,5 0,0 0,0 0,0 0,0 1,1 0,1 0,1 0,1 0,1 0,0 0,1 0,1l-1 0c0,0 0,0 0,-1 0,0 -1,0 -1,0 0,-1 0,-1 0,-2 0,0 1,0 1,0 0,-2 0,-4 0,-5 0,0 0,0 -1,0 0,-1 0,-2 0,-2 0,-1 1,-1 1,-1 0,-2 0,-3 0,-5 0,0 0,0 -1,0 0,0 0,-1 0,-1 0,-1 0,-1 1,-1 0,0 0,0 0,0 0,-2 0,-3 0,-5 0,0 0,0 0,0 0,-1 -1,0 -1,-1 0,0 -1,-1 -1,-1 -1,0 -1,0 -1,0 0,-1 0,-1 0,-1 -2,-2 -4,-5 -7,-7 0,0 0,0 0,0 -5,0 -10,0 -15,0 0,0 0,1 0,1 0,1 -1,1 -1,1 0,2 0,3 0,5 0,0 1,1 1,1 0,0 0,1 0,1 0,0 -1,1 -1,1 -1,0 -1,0 -1,-1 0,1 -1,1 -1,1 0,0 0,0 0,1 0,0 0,0 1,0 0,0 0,1 0,2 0,0 -1,0 -1,0 0,2 0,4 0,5 0,0 0,1 0,1 1,0 1,1 1,1 0,1 0,1 -1,1 0,1 0,1 0,2 0,1 0,2 0,3 0,0 0,0 0,0 1,0 1,1 1,1 0,1 0,1 -1,1 0,2 0,3 0,5l-1 0c0,-1 0,-3 0,-4 0,0 0,-1 0,-1 -1,0 -1,-1 0,-1 0,-1 0,-1 0,-1 0,-1 0,-2 0,-3 0,-1 0,-1 0,-2 0,0 -1,-1 -1,-1 0,-1 1,-2 1,-2 0,-1 0,-3 0,-5 0,0 0,0 0,0 -1,0 -1,-1 0,-2 0,0 0,0 0,0 0,-1 0,-1 1,-1 0,0 0,-1 0,-1 0,0 0,-1 0,-1 0,0 1,-1 1,-1 0,-1 0,-1 0,-2 0,-1 0,-2 0,-3 0,0 0,0 0,0 -1,-1 -1,-1 -1,-2 1,0 1,-1 1,-1 0,0 0,0 0,0l0 0zm0 1c0,0 0,0 0,0 0,1 0,1 0,1 0,0 0,0 1,0 0,0 0,0 0,0 0,0 0,-1 0,-1 0,0 0,0 -1,0l0 0zm0 8c0,0 0,1 0,1 1,0 1,0 1,0 0,0 0,0 0,0 0,-1 0,-1 0,-1 0,0 0,0 -1,0l0 0zm-2 4c0,0 0,0 0,0 0,1 1,1 1,0 0,0 0,0 0,0 0,0 0,0 -1,0l0 0zm29 3c0,1 0,1 0,1 0,0 0,1 1,0 0,0 0,0 0,-1 -1,0 -1,0 -1,0l0 0zm-28 4c-1,0 -1,0 -1,1 0,0 0,0 1,0 0,0 0,0 0,0 0,0 0,-1 0,-1 0,0 0,0 0,0l0 0zm28 4c0,0 0,0 0,0 0,0 0,1 0,1 0,0 0,0 0,0 0,0 1,0 1,-1 0,0 -1,0 -1,0l0 0zm-28 4c-1,0 -1,0 -1,1 1,0 1,0 1,-1 0,0 0,0 0,0l0 0zm28 4c0,0 -1,0 0,1 0,0 0,0 0,0 1,-1 1,-1 1,-1 0,0 -1,-1 -1,0z"/>
   </g>
   <g>
    <path class="fil0" d="M83 95c1,0 1,0 1,1 0,0 1,0 1,0 6,0 13,0 20,0 0,1 0,2 0,3 0,0 0,1 1,1 0,1 0,1 -1,2 0,0 0,0 0,0 0,1 0,1 0,2 0,0 -1,0 -1,1 0,0 -1,0 -1,1 0,0 0,0 0,0 0,2 0,3 0,5 0,0 0,0 0,0 1,1 1,1 0,2 0,0 0,0 0,0 0,0 0,0 0,1 0,1 0,3 0,4 0,0 0,1 1,1 0,0 0,1 -1,2 0,0 0,0 0,0 0,2 0,3 0,5 0,0 0,0 0,0 1,1 1,1 1,2 -1,0 -1,0 -1,0 0,1 0,1 0,1l-1 0c0,0 0,0 0,-1 0,0 -1,0 -1,0 0,-1 0,-1 0,-2 1,0 1,0 1,0 0,-2 0,-4 0,-5 0,0 -1,-1 -1,-1 0,0 0,-1 0,-1 1,-1 1,-1 1,-1 0,-1 0,-3 0,-5 0,0 0,0 -1,0 0,-1 0,-2 0,-2 1,0 1,0 1,0 0,-2 0,-3 0,-5 0,0 0,0 0,0 1,-1 1,-1 2,-2 0,0 0,0 0,0 0,-1 0,-2 0,-2 0,0 0,0 -1,-1 0,0 0,0 0,-1 0,0 1,-1 1,-1 0,0 0,0 0,-1 0,0 0,-1 0,-2 -6,0 -13,0 -19,0 0,1 0,1 0,1 -1,1 -1,1 -2,1 0,0 0,0 0,0 -2,2 -4,4 -6,6 0,0 0,0 0,0 0,7 0,14 0,21 0,1 0,1 0,2 0,1 1,1 2,2l-1 0c-1,0 -1,-1 -1,-1 -1,-1 -1,-1 -1,-1 0,-7 0,-14 0,-21 0,-1 0,-1 0,-2 1,-1 2,-2 2,-2 1,-1 2,-2 3,-3 1,-1 1,-1 1,-1 0,-1 0,-1 0,-1 0,-1 1,-1 1,-2l0 0zm0 1c0,0 0,0 0,0 0,1 0,1 0,1 1,0 1,0 1,0 0,-1 0,-1 -1,-1l0 0zm21 4c0,0 0,1 0,1 0,0 1,0 1,0 0,0 0,-1 0,-1 0,0 -1,0 -1,0l0 0zm-2 11c0,0 0,1 0,1 0,1 1,1 1,0 0,0 0,-1 -1,-1l0 0zm0 8c0,0 0,0 0,0 0,0 0,1 0,1 0,0 1,0 1,0 0,-1 0,-1 -1,-1l0 0zm0 8c0,0 0,0 0,0 0,1 0,1 1,1 0,-1 0,-1 0,-1 0,0 -1,0 -1,0z"/>
   </g>
   <path class="fil0" d="M10 98c1,0 2,0 3,0 4,0 7,0 11,0 0,0 0,0 0,0 2,2 3,3 5,5 0,0 0,0 0,1 1,0 2,1 2,2 0,0 0,0 0,1 0,7 0,14 0,22l0 0c0,-7 0,-15 0,-22 0,0 0,-1 0,-1 -1,-1 -2,-2 -3,-2 0,-1 0,-1 0,-1 -1,-1 -2,-3 -4,-4 0,0 0,0 0,0 -4,0 -9,0 -13,0 0,1 0,1 0,2 0,1 0,2 0,3 0,0 0,0 0,1 -1,0 -1,0 -2,1 0,0 0,1 0,1 0,7 0,15 0,22l-1 0c0,-8 0,-15 0,-23 0,0 1,0 1,0 0,-1 1,-1 1,-2 0,-1 0,-1 0,-2 0,-1 0,-3 0,-4z"/>
   <g>
    <path class="fil0" d="M85 99c0,-1 1,0 1,0 4,0 8,0 11,0 2,0 3,-1 5,0 0,1 0,2 0,4 0,0 0,1 0,1 -1,1 -1,1 -2,2 0,0 0,0 0,0 0,8 0,15 0,23l-1 0c0,-6 0,-12 0,-17 0,-2 0,-4 0,-6 0,0 1,-1 1,-1 0,0 1,-1 1,-1 0,-2 0,-3 0,-5 -5,0 -11,0 -16,0 -1,0 -1,0 -1,0 -1,2 -2,3 -3,4 0,0 0,1 0,1 0,0 0,1 -1,1 0,1 0,1 0,1 0,1 0,3 0,5 0,0 0,0 1,0 0,0 0,1 0,1 0,1 -1,1 -1,1 0,2 0,3 0,5 0,0 0,0 0,0 1,1 1,1 1,1 0,1 0,1 -1,2 0,0 0,0 0,0 0,1 0,3 0,5 0,0 0,0 1,0 0,0 0,1 0,2 0,0 0,0 0,0 0,0 0,1 1,1l-1 0c0,0 -1,0 -1,-1 0,0 -1,0 -1,0 -1,0 -1,-1 -1,-1 0,-1 1,-1 1,-1 0,-2 0,-4 0,-5 0,-1 -1,-1 -1,-2 0,0 1,0 1,-1 0,-1 0,-3 0,-5 0,0 0,0 0,0 -1,0 -1,-1 -1,-2 1,0 1,0 1,0 0,-2 0,-4 0,-5 0,-1 0,-1 -1,-1 0,-1 0,-1 1,-2 0,0 0,0 1,0 0,0 0,0 0,0 1,-1 2,-2 2,-2 1,-1 2,-2 3,-2l0 0zm-6 5c0,0 0,0 0,1 0,0 0,0 1,0 0,0 0,-1 0,-1 0,0 0,0 -1,0l0 0zm0 7c0,0 0,1 0,1 0,0 0,0 0,0 0,0 1,0 1,0 0,0 0,0 0,-1 0,0 0,0 -1,0l0 0zm1 8c-1,0 -1,0 -1,1 0,0 0,0 1,0 0,0 0,0 0,-1 0,0 0,0 0,0l0 0zm-1 8c0,0 0,0 0,0 0,0 0,1 1,1 0,0 0,-1 0,-1 0,0 0,0 -1,0z"/>
   </g>
   <g>
    <path class="fil0" d="M13 101c4,0 7,0 11,0 0,0 0,0 0,0 1,1 2,1 2,2 0,0 1,0 1,0 1,0 1,1 1,1 0,1 0,1 0,1 0,0 0,0 0,1 0,0 0,0 0,0 0,8 0,15 0,23l0 0c0,-7 0,-14 0,-22 0,0 0,-1 0,-1 0,0 -1,0 -1,-1 0,1 -1,1 -1,1 0,-1 -1,-1 -1,-2 0,0 0,0 0,0 0,-1 0,-1 0,-1 0,-1 -1,-1 -1,-1 -2,0 -3,0 -5,0 -1,0 -3,0 -5,0 0,0 0,1 0,2 0,0 0,0 -1,1 0,0 0,0 -1,1 0,0 0,0 0,0 0,1 0,2 0,3 0,1 0,1 0,2 0,1 0,3 0,4 0,1 0,1 0,2 0,2 0,4 0,5 0,1 0,2 0,3 0,1 0,3 0,4l-1 0c0,-7 0,-14 0,-21 0,-1 0,-1 0,-2 1,-1 2,-1 2,-2 0,0 0,0 0,0 0,-1 0,-2 0,-3l0 0zm13 3c0,0 0,0 0,1 0,0 1,0 1,0 0,0 0,0 0,-1 0,0 0,0 0,0 0,0 -1,0 -1,0z"/>
   </g>
   <g>
    <path class="fil0" d="M84 102c0,0 1,-1 1,0 4,0 9,-1 14,0 0,0 0,1 0,1 0,1 0,1 0,1 -1,1 -1,1 -2,2 0,0 0,0 0,1 0,0 1,0 1,0 0,1 0,1 0,2 0,0 -1,0 -1,0 0,2 0,4 0,5 0,0 0,0 1,1 0,0 0,1 0,1 0,1 -1,1 -1,1 0,0 0,1 0,1 0,1 0,3 0,4 0,0 1,0 1,0 0,1 0,1 0,2 0,0 -1,0 -1,1 0,1 0,3 0,4l-13 0c-1,-1 -1,-1 -2,-2 0,0 0,0 0,0 0,-6 0,-12 0,-19 0,-1 0,-3 0,-4 0,0 1,-1 1,-1 0,0 1,-1 1,-1l0 0zm-1 2c0,0 0,0 0,0 0,8 0,15 0,22 0,1 0,1 0,1 0,1 1,1 2,2 0,0 1,0 2,0 3,0 6,0 9,0 0,-2 0,-3 0,-4 0,-1 0,-1 0,-1 -1,0 -1,-1 0,-1 0,-1 0,-1 0,-1 0,-2 0,-3 0,-5 0,0 0,0 0,0 -1,-1 -1,-1 -1,-2 1,0 1,0 1,-1 0,-1 0,-3 0,-5 0,0 0,0 0,0 -1,0 -1,-1 0,-2 0,0 0,0 0,0 0,0 0,-1 0,-1 1,-1 1,-1 2,-2 0,-1 0,-1 0,-2 0,0 0,0 0,0 -3,0 -6,0 -9,0 -2,0 -3,0 -4,0 -1,1 -2,1 -2,2l0 0zm14 4c-1,0 -1,0 -1,0 0,0 0,1 1,1 0,0 0,-1 0,-1 0,0 0,-1 0,0l0 0zm0 7c-1,0 -1,1 -1,1 0,0 1,0 1,0 0,-1 0,-1 0,-1l0 0zm0 8c-1,0 -1,0 -1,0 0,0 0,1 0,1 1,0 1,0 1,-1 0,0 0,0 0,0z"/>
   </g>
   <g>
    <path class="fil0" d="M16 105c0,0 0,-1 0,-1 3,0 5,0 8,0 0,0 0,0 0,1 0,0 1,0 1,1 0,0 0,0 0,0 0,8 0,15 0,23l0 0c0,-7 0,-15 0,-22 0,0 0,-1 0,-1 -1,0 -1,0 -1,-1 0,0 0,0 0,0 -3,0 -5,0 -8,0 0,0 -1,1 -1,1 0,0 0,0 0,0 0,2 0,3 0,5 1,0 1,0 1,0 1,1 0,2 0,2 0,0 -1,0 -1,0 0,2 0,3 0,5 1,0 1,0 1,1 0,0 1,1 0,1 0,0 0,1 -1,1 0,1 0,3 0,5 1,0 1,0 1,0 0,0 1,1 0,2 0,0 0,0 -1,0 0,1 0,1 0,1l-1 0c0,0 0,-1 0,-1 0,0 0,0 0,0 0,-1 0,-1 0,-2 0,0 0,0 0,0 0,-2 0,-4 0,-5 0,-1 0,-1 0,-1 0,0 0,-1 0,-1 0,-1 0,-1 0,-1 0,-1 0,-3 0,-5 0,0 0,0 0,0 0,-1 0,-2 0,-2 0,0 0,0 0,0 0,-1 0,-2 0,-3 0,-1 0,-2 0,-2 1,-1 1,-1 2,-1l0 0zm-1 6c0,0 0,1 0,1 0,0 0,1 1,0 0,0 0,-1 -1,-1l0 0zm0 8c0,0 0,0 0,1 0,0 0,0 1,0 0,0 0,-1 0,-1 -1,0 -1,0 -1,0l0 0zm0 8c0,0 0,0 0,0 0,1 0,1 0,1 1,-1 1,-1 1,-1 -1,0 -1,-1 -1,0z"/>
   </g>
   <path class="fil0" d="M129 106c0,0 0,0 0,-1l0 6c0,0 -1,0 -1,1 0,0 1,0 1,0l0 7c0,0 -1,0 -1,0 0,1 1,1 1,1l0 6c0,1 -1,1 -1,1 0,0 1,1 1,1l0 1 -1 0c0,0 0,0 0,-1 0,0 -1,-1 0,-1 0,-1 0,-1 0,-1 1,-1 0,-2 0,-3 0,-1 1,-2 0,-2 0,0 0,0 0,-1 0,0 0,0 0,-1 0,0 0,0 0,0 0,-1 0,-1 0,-1 0,-1 0,-2 0,-2 0,-1 1,-2 0,-3 0,0 0,0 0,0 0,-1 0,-1 0,-2 0,0 0,0 0,0 1,-2 0,-3 0,-4 0,-1 0,-1 1,-1z"/>
  </g>
 </g>
</svg>
