<?xml version="1.0" encoding="UTF-8"?>
<!DOCTYPE svg PUBLIC "-//W3C//DTD SVG 1.1//EN" "http://www.w3.org/Graphics/SVG/1.1/DTD/svg11.dtd">
<!-- Creator: CorelDRAW X7 -->
<svg xmlns="http://www.w3.org/2000/svg" xml:space="preserve" width="2248px" height="2300px" version="1.1" style="shape-rendering:geometricPrecision; text-rendering:geometricPrecision; image-rendering:optimizeQuality; fill-rule:evenodd; clip-rule:evenodd"
viewBox="0 0 107 109"
 xmlns:xlink="http://www.w3.org/1999/xlink">
 <defs>
  <style type="text/css">
   <![CDATA[
    .fil122 {fill:url(#id0)}
    .fil91 {fill:url(#id1)}
    .fil35 {fill:url(#id2)}
    .fil112 {fill:url(#id3)}
    .fil71 {fill:url(#id4)}
    .fil25 {fill:url(#id5)}
    .fil34 {fill:url(#id6)}
    .fil70 {fill:url(#id7)}
    .fil7 {fill:url(#id8)}
    .fil56 {fill:url(#id9)}
    .fil84 {fill:url(#id10)}
    .fil109 {fill:url(#id11)}
    .fil2 {fill:url(#id12)}
    .fil1 {fill:url(#id13)}
    .fil120 {fill:url(#id14)}
    .fil57 {fill:url(#id15)}
    .fil33 {fill:url(#id16)}
    .fil54 {fill:url(#id17)}
    .fil95 {fill:url(#id18)}
    .fil107 {fill:url(#id19)}
    .fil118 {fill:url(#id20)}
    .fil29 {fill:url(#id21)}
    .fil45 {fill:url(#id22)}
    .fil110 {fill:url(#id23)}
    .fil85 {fill:url(#id24)}
    .fil66 {fill:url(#id25)}
    .fil76 {fill:url(#id26)}
    .fil52 {fill:url(#id27)}
    .fil100 {fill:url(#id28)}
    .fil59 {fill:url(#id29)}
    .fil10 {fill:url(#id30)}
    .fil46 {fill:url(#id31)}
    .fil21 {fill:url(#id32)}
    .fil119 {fill:url(#id33)}
    .fil104 {fill:url(#id34)}
    .fil113 {fill:url(#id35)}
    .fil102 {fill:url(#id36)}
    .fil30 {fill:url(#id37)}
    .fil9 {fill:url(#id38)}
    .fil44 {fill:url(#id39)}
    .fil117 {fill:url(#id40)}
    .fil72 {fill:url(#id41)}
    .fil51 {fill:url(#id42)}
    .fil115 {fill:url(#id43)}
    .fil3 {fill:url(#id44)}
    .fil86 {fill:url(#id45)}
    .fil37 {fill:url(#id46)}
    .fil58 {fill:url(#id47)}
    .fil64 {fill:url(#id48)}
    .fil75 {fill:url(#id49)}
    .fil103 {fill:url(#id50)}
    .fil36 {fill:url(#id51)}
    .fil65 {fill:url(#id52)}
    .fil41 {fill:url(#id53)}
    .fil116 {fill:url(#id54)}
    .fil96 {fill:url(#id55)}
    .fil80 {fill:url(#id56)}
    .fil14 {fill:url(#id57)}
    .fil4 {fill:url(#id58)}
    .fil39 {fill:url(#id59)}
    .fil94 {fill:url(#id60)}
    .fil88 {fill:url(#id61)}
    .fil114 {fill:url(#id62)}
    .fil17 {fill:url(#id63)}
    .fil79 {fill:url(#id64)}
    .fil47 {fill:url(#id65)}
    .fil12 {fill:url(#id66)}
    .fil19 {fill:url(#id67)}
    .fil106 {fill:url(#id68)}
    .fil27 {fill:url(#id69)}
    .fil26 {fill:url(#id70)}
    .fil68 {fill:url(#id71)}
    .fil87 {fill:url(#id72)}
    .fil69 {fill:url(#id73)}
    .fil18 {fill:url(#id74)}
    .fil43 {fill:url(#id75)}
    .fil60 {fill:url(#id76)}
    .fil81 {fill:url(#id77)}
    .fil31 {fill:url(#id78)}
    .fil55 {fill:url(#id79)}
    .fil89 {fill:url(#id80)}
    .fil82 {fill:url(#id81)}
    .fil49 {fill:url(#id82)}
    .fil32 {fill:url(#id83)}
    .fil50 {fill:url(#id84)}
    .fil108 {fill:url(#id85)}
    .fil38 {fill:url(#id86)}
    .fil6 {fill:url(#id87)}
    .fil105 {fill:url(#id88)}
    .fil23 {fill:url(#id89)}
    .fil16 {fill:url(#id90)}
    .fil92 {fill:url(#id91)}
    .fil5 {fill:url(#id92)}
    .fil13 {fill:url(#id93)}
    .fil62 {fill:url(#id94)}
    .fil28 {fill:url(#id95)}
    .fil0 {fill:url(#id96)}
    .fil22 {fill:url(#id97)}
    .fil67 {fill:url(#id98)}
    .fil83 {fill:url(#id99)}
    .fil8 {fill:url(#id100)}
    .fil90 {fill:url(#id101)}
    .fil53 {fill:url(#id102)}
    .fil48 {fill:url(#id103)}
    .fil78 {fill:url(#id104)}
    .fil20 {fill:url(#id105)}
    .fil99 {fill:url(#id106)}
    .fil15 {fill:url(#id107)}
    .fil11 {fill:url(#id108)}
    .fil77 {fill:url(#id109)}
    .fil121 {fill:url(#id110)}
    .fil24 {fill:url(#id111)}
    .fil111 {fill:url(#id112)}
    .fil61 {fill:url(#id113)}
    .fil63 {fill:url(#id114)}
    .fil101 {fill:url(#id115)}
    .fil93 {fill:url(#id116)}
    .fil73 {fill:url(#id117)}
    .fil98 {fill:url(#id118)}
    .fil40 {fill:url(#id119)}
    .fil74 {fill:url(#id120)}
    .fil42 {fill:url(#id121)}
    .fil97 {fill:url(#id122)}
   ]]>
  </style>
  <linearGradient id="id0" gradientUnits="userSpaceOnUse" x1="53.2687" y1="84.2244" x2="53.2687" y2="55.7974">
   <stop offset="0" style="stop-opacity:1; stop-color:#525252"/>
   <stop offset="1" style="stop-opacity:1; stop-color:#939393"/>
  </linearGradient>
  <linearGradient id="id1" gradientUnits="userSpaceOnUse" xlink:href="#id0" x1="90.8988" y1="41.8846" x2="91.6007" y2="41.8846">
  </linearGradient>
  <linearGradient id="id2" gradientUnits="userSpaceOnUse" xlink:href="#id0" x1="15.727" y1="69.5799" x2="16.7712" y2="69.5799">
  </linearGradient>
  <linearGradient id="id3" gradientUnits="userSpaceOnUse" xlink:href="#id0" x1="56.9144" y1="14.7554" x2="57.1585" y2="14.7554">
  </linearGradient>
  <linearGradient id="id4" gradientUnits="userSpaceOnUse" xlink:href="#id0" x1="81.5263" y1="82.6092" x2="82.125" y2="82.6092">
  </linearGradient>
  <linearGradient id="id5" gradientUnits="userSpaceOnUse" xlink:href="#id0" x1="13.3173" y1="48.0016" x2="14.433" y2="48.0016">
  </linearGradient>
  <linearGradient id="id6" gradientUnits="userSpaceOnUse" xlink:href="#id0" x1="14.9524" y1="67.5198" x2="16.0047" y2="67.5198">
  </linearGradient>
  <linearGradient id="id7" gradientUnits="userSpaceOnUse" xlink:href="#id0" x1="79.9538" y1="84.132" x2="80.5313" y2="84.132">
  </linearGradient>
  <linearGradient id="id8" gradientUnits="userSpaceOnUse" xlink:href="#id0" x1="36.8834" y1="17.9861" x2="37.4429" y2="17.9861">
  </linearGradient>
  <linearGradient id="id9" gradientUnits="userSpaceOnUse" xlink:href="#id0" x1="51.959" y1="94.5351" x2="52.1795" y2="94.5351">
  </linearGradient>
  <linearGradient id="id10" gradientUnits="userSpaceOnUse" xlink:href="#id0" x1="92.8785" y1="57.0571" x2="93.5756" y2="57.0571">
  </linearGradient>
  <linearGradient id="id11" gradientUnits="userSpaceOnUse" xlink:href="#id0" x1="63.3348" y1="15.9018" x2="63.7128" y2="15.9018">
  </linearGradient>
  <linearGradient id="id12" gradientUnits="userSpaceOnUse" xlink:href="#id0" x1="47.5495" y1="14.9686" x2="47.8602" y2="14.9686">
  </linearGradient>
  <linearGradient id="id13" gradientUnits="userSpaceOnUse" xlink:href="#id0" x1="49.7593" y1="14.7225" x2="50.0238" y2="14.7225">
  </linearGradient>
  <linearGradient id="id14" gradientUnits="userSpaceOnUse" xlink:href="#id0" x1="47.2095" y1="52.3068" x2="59.4434" y2="52.3068">
  </linearGradient>
  <linearGradient id="id15" gradientUnits="userSpaceOnUse" xlink:href="#id0" x1="54.1671" y1="94.5471" x2="54.3648" y2="94.5471">
  </linearGradient>
  <linearGradient id="id16" gradientUnits="userSpaceOnUse" xlink:href="#id0" x1="14.2936" y1="65.419" x2="15.3513" y2="65.419">
  </linearGradient>
  <linearGradient id="id17" gradientUnits="userSpaceOnUse" xlink:href="#id0" x1="47.5426" y1="94.1587" x2="47.8537" y2="94.1587">
  </linearGradient>
  <linearGradient id="id18" gradientUnits="userSpaceOnUse" xlink:href="#id0" x1="87.2258" y1="33.9183" x2="87.8952" y2="33.9183">
  </linearGradient>
  <linearGradient id="id19" gradientUnits="userSpaceOnUse" xlink:href="#id0" x1="67.5029" y1="17.2539" x2="67.9268" y2="17.2539">
  </linearGradient>
  <linearGradient id="id20" gradientUnits="userSpaceOnUse" xlink:href="#id0" x1="45.4396" y1="8.47207" x2="61.3545" y2="8.47207">
  </linearGradient>
  <linearGradient id="id21" gradientUnits="userSpaceOnUse" xlink:href="#id0" x1="12.8366" y1="56.7589" x2="13.9385" y2="56.7589">
  </linearGradient>
  <linearGradient id="id22" gradientUnits="userSpaceOnUse" xlink:href="#id0" x1="29.1852" y1="86.7393" x2="29.9414" y2="86.7393">
  </linearGradient>
  <linearGradient id="id23" gradientUnits="userSpaceOnUse" xlink:href="#id0" x1="61.2166" y1="15.4044" x2="61.5539" y2="15.4044">
  </linearGradient>
  <linearGradient id="id24" gradientUnits="userSpaceOnUse" xlink:href="#id0" x1="92.9611" y1="54.8644" x2="93.6509" y2="54.8644">
  </linearGradient>
  <linearGradient id="id25" gradientUnits="userSpaceOnUse" xlink:href="#id0" x1="72.8833" y1="89.2991" x2="73.3989" y2="89.2991">
  </linearGradient>
  <linearGradient id="id26" gradientUnits="userSpaceOnUse" xlink:href="#id0" x1="88.0401" y1="73.8163" x2="88.7178" y2="73.8163">
  </linearGradient>
  <linearGradient id="id27" gradientUnits="userSpaceOnUse" xlink:href="#id0" x1="43.1857" y1="93.306" x2="43.5855" y2="93.306">
  </linearGradient>
  <linearGradient id="id28" gradientUnits="userSpaceOnUse" xlink:href="#id0" x1="80.3749" y1="25.3955" x2="80.9586" y2="25.3955">
  </linearGradient>
  <linearGradient id="id29" gradientUnits="userSpaceOnUse" xlink:href="#id0" x1="58.5094" y1="94.2059" x2="58.7937" y2="94.2059">
  </linearGradient>
  <linearGradient id="id30" gradientUnits="userSpaceOnUse" xlink:href="#id0" x1="31.0188" y1="21.1401" x2="31.7371" y2="21.1401">
  </linearGradient>
  <linearGradient id="id31" gradientUnits="userSpaceOnUse" xlink:href="#id0" x1="31.0088" y1="88.0016" x2="31.7277" y2="88.0016">
  </linearGradient>
  <linearGradient id="id32" gradientUnits="userSpaceOnUse" xlink:href="#id0" x1="15.728" y1="39.5499" x2="16.7722" y2="39.5499">
  </linearGradient>
  <linearGradient id="id33" gradientUnits="userSpaceOnUse" xlink:href="#id0" x1="45.2994" y1="100.648" x2="61.2144" y2="100.648">
  </linearGradient>
  <linearGradient id="id34" gradientUnits="userSpaceOnUse" xlink:href="#id0" x1="73.3826" y1="20.1241" x2="73.9059" y2="20.1241">
  </linearGradient>
  <linearGradient id="id35" gradientUnits="userSpaceOnUse" xlink:href="#id0" x1="54.7491" y1="14.6136" x2="54.9604" y2="14.6136">
  </linearGradient>
  <linearGradient id="id36" gradientUnits="userSpaceOnUse" xlink:href="#id0" x1="77.0098" y1="22.5679" x2="77.5914" y2="22.5679">
  </linearGradient>
  <linearGradient id="id37" gradientUnits="userSpaceOnUse" xlink:href="#id0" x1="13.0111" y1="58.9543" x2="14.1214" y2="58.9543">
  </linearGradient>
  <linearGradient id="id38" gradientUnits="userSpaceOnUse" xlink:href="#id0" x1="32.9291" y1="19.9818" x2="33.5682" y2="19.9818">
  </linearGradient>
  <linearGradient id="id39" gradientUnits="userSpaceOnUse" xlink:href="#id0" x1="27.4376" y1="85.3871" x2="28.2284" y2="85.3871">
  </linearGradient>
  <linearGradient id="id40" gradientUnits="userSpaceOnUse" xlink:href="#id0" x1="94.6504" y1="54.4241" x2="98.9799" y2="54.4241">
  </linearGradient>
  <linearGradient id="id41" gradientUnits="userSpaceOnUse" xlink:href="#id0" x1="83.0172" y1="81.0014" x2="83.6359" y2="81.0014">
  </linearGradient>
  <linearGradient id="id42" gradientUnits="userSpaceOnUse" xlink:href="#id0" x1="41.0325" y1="92.7047" x2="41.5043" y2="92.7047">
  </linearGradient>
  <linearGradient id="id43" gradientUnits="userSpaceOnUse" xlink:href="#id0" x1="43.3832" y1="95.3286" x2="63.4235" y2="95.3286">
  </linearGradient>
  <linearGradient id="id44" gradientUnits="userSpaceOnUse" xlink:href="#id0" x1="45.3554" y1="15.338" x2="45.7114" y2="15.338">
  </linearGradient>
  <linearGradient id="id45" gradientUnits="userSpaceOnUse" xlink:href="#id0" x1="92.9162" y1="52.6623" x2="93.6114" y2="52.6623">
  </linearGradient>
  <linearGradient id="id46" gradientUnits="userSpaceOnUse" xlink:href="#id0" x1="17.6152" y1="73.5584" x2="18.6343" y2="73.5584">
  </linearGradient>
  <linearGradient id="id47" gradientUnits="userSpaceOnUse" xlink:href="#id0" x1="56.3404" y1="94.438" x2="56.5818" y2="94.438">
  </linearGradient>
  <linearGradient id="id48" gradientUnits="userSpaceOnUse" xlink:href="#id0" x1="68.9857" y1="91.2672" x2="69.4357" y2="91.2672">
  </linearGradient>
  <linearGradient id="id49" gradientUnits="userSpaceOnUse" xlink:href="#id0" x1="86.9352" y1="75.7109" x2="87.6008" y2="75.7109">
  </linearGradient>
  <linearGradient id="id50" gradientUnits="userSpaceOnUse" xlink:href="#id0" x1="75.2325" y1="21.296" x2="75.7858" y2="21.296">
  </linearGradient>
  <linearGradient id="id51" gradientUnits="userSpaceOnUse" xlink:href="#id0" x1="16.6168" y1="71.5951" x2="17.65" y2="71.5951">
  </linearGradient>
  <linearGradient id="id52" gradientUnits="userSpaceOnUse" xlink:href="#id0" x1="70.9637" y1="90.3364" x2="71.4473" y2="90.3364">
  </linearGradient>
  <linearGradient id="id53" gradientUnits="userSpaceOnUse" xlink:href="#id0" x1="22.678" y1="80.7763" x2="23.5582" y2="80.7763">
  </linearGradient>
  <linearGradient id="id54" gradientUnits="userSpaceOnUse" xlink:href="#id0" x1="6.29708" y1="54.2487" x2="13.3812" y2="54.2487">
  </linearGradient>
  <linearGradient id="id55" gradientUnits="userSpaceOnUse" xlink:href="#id0" x1="86.0444" y1="32.0664" x2="86.7006" y2="32.0664">
  </linearGradient>
  <linearGradient id="id56" gradientUnits="userSpaceOnUse" xlink:href="#id0" x1="91.3784" y1="65.7009" x2="92.0829" y2="65.7009">
  </linearGradient>
  <linearGradient id="id57" gradientUnits="userSpaceOnUse" xlink:href="#id0" x1="24.186" y1="26.7335" x2="25.0382" y2="26.7335">
  </linearGradient>
  <linearGradient id="id58" gradientUnits="userSpaceOnUse" xlink:href="#id0" x1="43.1884" y1="15.8262" x2="43.5887" y2="15.8262">
  </linearGradient>
  <linearGradient id="id59" gradientUnits="userSpaceOnUse" xlink:href="#id0" x1="19.9357" y1="77.3046" x2="20.9171" y2="77.3046">
  </linearGradient>
  <linearGradient id="id60" gradientUnits="userSpaceOnUse" xlink:href="#id0" x1="88.3069" y1="35.8342" x2="88.9875" y2="35.8342">
  </linearGradient>
  <linearGradient id="id61" gradientUnits="userSpaceOnUse" xlink:href="#id0" x1="92.4657" y1="48.2858" x2="93.17" y2="48.2858">
  </linearGradient>
  <linearGradient id="id62" gradientUnits="userSpaceOnUse" xlink:href="#id0" x1="43.3939" y1="13.5807" x2="63.6163" y2="13.5807">
  </linearGradient>
  <linearGradient id="id63" gradientUnits="userSpaceOnUse" xlink:href="#id0" x1="19.9351" y1="31.8229" x2="20.9159" y2="31.8229">
  </linearGradient>
  <linearGradient id="id64" gradientUnits="userSpaceOnUse" xlink:href="#id0" x1="90.7122" y1="67.799" x2="91.4133" y2="67.799">
  </linearGradient>
  <linearGradient id="id65" gradientUnits="userSpaceOnUse" xlink:href="#id0" x1="32.9153" y1="89.1547" x2="33.5549" y2="89.1547">
  </linearGradient>
  <linearGradient id="id66" gradientUnits="userSpaceOnUse" xlink:href="#id0" x1="27.4445" y1="23.7548" x2="28.2342" y2="23.7548">
  </linearGradient>
  <linearGradient id="id67" gradientUnits="userSpaceOnUse" xlink:href="#id0" x1="17.6124" y1="35.5711" x2="18.6311" y2="35.5711">
  </linearGradient>
  <linearGradient id="id68" gradientUnits="userSpaceOnUse" xlink:href="#id0" x1="69.5132" y1="18.1018" x2="69.9718" y2="18.1018">
  </linearGradient>
  <linearGradient id="id69" gradientUnits="userSpaceOnUse" xlink:href="#id0" x1="12.8419" y1="52.361" x2="13.9447" y2="52.361">
  </linearGradient>
  <linearGradient id="id70" gradientUnits="userSpaceOnUse" xlink:href="#id0" x1="13.0204" y1="50.1736" x2="14.1314" y2="50.1736">
  </linearGradient>
  <linearGradient id="id71" gradientUnits="userSpaceOnUse" xlink:href="#id0" x1="76.545" y1="86.9098" x2="77.1185" y2="86.9098">
  </linearGradient>
  <linearGradient id="id72" gradientUnits="userSpaceOnUse" xlink:href="#id0" x1="92.7507" y1="50.4695" x2="93.4515" y2="50.4695">
  </linearGradient>
  <linearGradient id="id73" gradientUnits="userSpaceOnUse" xlink:href="#id0" x1="78.2773" y1="85.5649" x2="78.8779" y2="85.5649">
  </linearGradient>
  <linearGradient id="id74" gradientUnits="userSpaceOnUse" xlink:href="#id0" x1="18.7211" y1="33.665" x2="19.7221" y2="33.665">
  </linearGradient>
  <linearGradient id="id75" gradientUnits="userSpaceOnUse" xlink:href="#id0" x1="25.7686" y1="83.9378" x2="26.5918" y2="83.9378">
  </linearGradient>
  <linearGradient id="id76" gradientUnits="userSpaceOnUse" xlink:href="#id0" x1="60.6607" y1="93.8554" x2="60.9875" y2="93.8554">
  </linearGradient>
  <linearGradient id="id77" gradientUnits="userSpaceOnUse" xlink:href="#id0" x1="91.9297" y1="63.5696" x2="92.6357" y2="63.5696">
  </linearGradient>
  <linearGradient id="id78" gradientUnits="userSpaceOnUse" xlink:href="#id0" x1="13.307" y1="61.1303" x2="14.4229" y2="61.1303">
  </linearGradient>
  <linearGradient id="id79" gradientUnits="userSpaceOnUse" xlink:href="#id0" x1="49.7484" y1="94.4049" x2="50.0102" y2="94.4049">
  </linearGradient>
  <linearGradient id="id80" gradientUnits="userSpaceOnUse" xlink:href="#id0" x1="92.0621" y1="46.1308" x2="92.7677" y2="46.1308">
  </linearGradient>
  <linearGradient id="id81" gradientUnits="userSpaceOnUse" xlink:href="#id0" x1="92.3631" y1="61.417" x2="93.0682" y2="61.417">
  </linearGradient>
  <linearGradient id="id82" gradientUnits="userSpaceOnUse" xlink:href="#id0" x1="36.878" y1="91.1558" x2="37.4368" y2="91.1558">
  </linearGradient>
  <linearGradient id="id83" gradientUnits="userSpaceOnUse" xlink:href="#id0" x1="13.7249" y1="63.2855" x2="14.8427" y2="63.2855">
  </linearGradient>
  <linearGradient id="id84" gradientUnits="userSpaceOnUse" xlink:href="#id0" x1="38.9317" y1="91.9847" x2="39.448" y2="91.9847">
  </linearGradient>
  <linearGradient id="id85" gradientUnits="userSpaceOnUse" xlink:href="#id0" x1="65.4262" y1="16.5196" x2="65.8443" y2="16.5196">
  </linearGradient>
  <linearGradient id="id86" gradientUnits="userSpaceOnUse" xlink:href="#id0" x1="18.7242" y1="75.4646" x2="19.7257" y2="75.4646">
  </linearGradient>
  <linearGradient id="id87" gradientUnits="userSpaceOnUse" xlink:href="#id0" x1="38.9401" y1="17.1497" x2="39.457" y2="17.1497">
  </linearGradient>
  <linearGradient id="id88" gradientUnits="userSpaceOnUse" xlink:href="#id0" x1="71.4773" y1="19.0583" x2="71.9692" y2="19.0583">
  </linearGradient>
  <linearGradient id="id89" gradientUnits="userSpaceOnUse" xlink:href="#id0" x1="14.2991" y1="43.7152" x2="15.3562" y2="43.7152">
  </linearGradient>
  <linearGradient id="id90" gradientUnits="userSpaceOnUse" xlink:href="#id0" x1="21.2442" y1="30.0533" x2="22.2017" y2="30.0533">
  </linearGradient>
  <linearGradient id="id91" gradientUnits="userSpaceOnUse" xlink:href="#id0" x1="90.1459" y1="39.8221" x2="90.8427" y2="39.8221">
  </linearGradient>
  <linearGradient id="id92" gradientUnits="userSpaceOnUse" xlink:href="#id0" x1="41.0413" y1="16.4295" x2="41.5138" y2="16.4295">
  </linearGradient>
  <linearGradient id="id93" gradientUnits="userSpaceOnUse" xlink:href="#id0" x1="25.7743" y1="25.1989" x2="26.5965" y2="25.1989">
  </linearGradient>
  <linearGradient id="id94" gradientUnits="userSpaceOnUse" xlink:href="#id0" x1="64.8861" y1="92.7946" x2="65.2948" y2="92.7946">
  </linearGradient>
  <linearGradient id="id95" gradientUnits="userSpaceOnUse" xlink:href="#id0" x1="12.7849" y1="54.5588" x2="13.8759" y2="54.5588">
  </linearGradient>
  <linearGradient id="id96" gradientUnits="userSpaceOnUse" xlink:href="#id0" x1="51.9789" y1="14.5966" x2="52.1964" y2="14.5966">
  </linearGradient>
  <linearGradient id="id97" gradientUnits="userSpaceOnUse" xlink:href="#id0" x1="14.9544" y1="41.6125" x2="16.0067" y2="41.6125">
  </linearGradient>
  <linearGradient id="id98" gradientUnits="userSpaceOnUse" xlink:href="#id0" x1="74.7478" y1="88.1553" x2="75.2932" y2="88.1553">
  </linearGradient>
  <linearGradient id="id99" gradientUnits="userSpaceOnUse" xlink:href="#id0" x1="92.6793" y1="59.2405" x2="93.3814" y2="59.2405">
  </linearGradient>
  <linearGradient id="id100" gradientUnits="userSpaceOnUse" xlink:href="#id0" x1="34.8764" y1="18.9303" x2="35.4767" y2="18.9303">
  </linearGradient>
  <linearGradient id="id101" gradientUnits="userSpaceOnUse" xlink:href="#id0" x1="91.5378" y1="43.9875" x2="92.243" y2="43.9875">
  </linearGradient>
  <linearGradient id="id102" gradientUnits="userSpaceOnUse" xlink:href="#id0" x1="45.3525" y1="93.7937" x2="45.7085" y2="93.7937">
  </linearGradient>
  <linearGradient id="id103" gradientUnits="userSpaceOnUse" xlink:href="#id0" x1="34.8722" y1="90.2108" x2="35.4723" y2="90.2108">
  </linearGradient>
  <linearGradient id="id104" gradientUnits="userSpaceOnUse" xlink:href="#id0" x1="89.9325" y1="69.8521" x2="90.628" y2="69.8521">
  </linearGradient>
  <linearGradient id="id105" gradientUnits="userSpaceOnUse" xlink:href="#id0" x1="16.6148" y1="37.532" x2="17.648" y2="37.532">
  </linearGradient>
  <linearGradient id="id106" gradientUnits="userSpaceOnUse" xlink:href="#id0" x1="81.9247" y1="26.9447" x2="82.5294" y2="26.9447">
  </linearGradient>
  <linearGradient id="id107" gradientUnits="userSpaceOnUse" xlink:href="#id0" x1="22.6831" y1="28.351" x2="23.5628" y2="28.351">
  </linearGradient>
  <linearGradient id="id108" gradientUnits="userSpaceOnUse" xlink:href="#id0" x1="29.1973" y1="22.3973" x2="29.9526" y2="22.3973">
  </linearGradient>
  <linearGradient id="id109" gradientUnits="userSpaceOnUse" xlink:href="#id0" x1="89.0404" y1="71.8603" x2="89.7281" y2="71.8603">
  </linearGradient>
  <linearGradient id="id110" gradientUnits="userSpaceOnUse" xlink:href="#id0" x1="51.2408" y1="54.5615" x2="55.4129" y2="54.5615">
  </linearGradient>
  <linearGradient id="id111" gradientUnits="userSpaceOnUse" xlink:href="#id0" x1="13.7334" y1="45.8471" x2="14.8509" y2="45.8471">
  </linearGradient>
  <linearGradient id="id112" gradientUnits="userSpaceOnUse" xlink:href="#id0" x1="59.0754" y1="15.0208" x2="59.3715" y2="15.0208">
  </linearGradient>
  <linearGradient id="id113" gradientUnits="userSpaceOnUse" xlink:href="#id0" x1="62.7859" y1="93.3817" x2="63.1546" y2="93.3817">
  </linearGradient>
  <linearGradient id="id114" gradientUnits="userSpaceOnUse" xlink:href="#id0" x1="66.968" y1="92.0864" x2="67.3837" y2="92.0864">
  </linearGradient>
  <linearGradient id="id115" gradientUnits="userSpaceOnUse" xlink:href="#id0" x1="78.7171" y1="23.9344" x2="79.3253" y2="23.9344">
  </linearGradient>
  <linearGradient id="id116" gradientUnits="userSpaceOnUse" xlink:href="#id0" x1="89.2815" y1="37.8022" x2="89.9714" y2="37.8022">
  </linearGradient>
  <linearGradient id="id117" gradientUnits="userSpaceOnUse" xlink:href="#id0" x1="84.4196" y1="79.3081" x2="85.0557" y2="79.3081">
  </linearGradient>
  <linearGradient id="id118" gradientUnits="userSpaceOnUse" xlink:href="#id0" x1="83.3927" y1="28.5806" x2="84.0167" y2="28.5806">
  </linearGradient>
  <linearGradient id="id119" gradientUnits="userSpaceOnUse" xlink:href="#id0" x1="21.2458" y1="79.0784" x2="22.2039" y2="79.0784">
  </linearGradient>
  <linearGradient id="id120" gradientUnits="userSpaceOnUse" xlink:href="#id0" x1="85.727" y1="77.544" x2="86.3789" y2="77.544">
  </linearGradient>
  <linearGradient id="id121" gradientUnits="userSpaceOnUse" xlink:href="#id0" x1="24.181" y1="82.3986" x2="25.0343" y2="82.3986">
  </linearGradient>
  <linearGradient id="id122" gradientUnits="userSpaceOnUse" xlink:href="#id0" x1="84.7649" y1="30.2858" x2="85.4058" y2="30.2858">
  </linearGradient>
 </defs>
 <g id="Vrstva_x0020_1">
  <metadata id="CorelCorpID_0Corel-Layer"/>
  <g id="_2610739831600">
   <polygon class="fil0" points="52,13 52,16 52,16 52,13 "/>
   <polygon class="fil1" points="50,13 50,16 50,16 49,13 "/>
   <polygon class="fil2" points="48,14 48,16 48,16 47,14 "/>
   <polygon class="fil3" points="46,14 46,17 45,17 45,14 "/>
   <polygon class="fil4" points="43,14 44,17 43,17 43,15 "/>
   <polygon class="fil5" points="41,15 42,18 41,18 41,15 "/>
   <polygon class="fil6" points="39,16 40,18 39,19 38,16 "/>
   <polygon class="fil7" points="37,17 38,19 37,19 36,17 "/>
   <polygon class="fil8" points="35,18 36,20 36,20 34,18 "/>
   <polygon class="fil9" points="33,19 34,21 34,21 32,19 "/>
   <polygon class="fil10" points="31,20 32,22 32,23 30,20 "/>
   <polygon class="fil11" points="29,21 31,23 30,24 28,21 "/>
   <polygon class="fil12" points="27,22 29,25 29,25 27,23 "/>
   <polygon class="fil13" points="25,24 27,26 27,26 25,24 "/>
   <polygon class="fil14" points="24,26 26,28 25,28 23,26 "/>
   <polygon class="fil15" points="22,27 24,29 24,30 22,28 "/>
   <polygon class="fil16" points="21,29 23,31 23,31 20,29 "/>
   <polygon class="fil17" points="19,31 22,32 21,33 19,31 "/>
   <polygon class="fil18" points="18,33 21,34 20,35 18,33 "/>
   <polygon class="fil19" points="17,35 20,36 19,37 17,35 "/>
   <polygon class="fil20" points="16,37 19,38 18,38 16,37 "/>
   <polygon class="fil21" points="15,39 18,40 17,40 15,39 "/>
   <polygon class="fil22" points="14,41 17,42 17,42 14,41 "/>
   <polygon class="fil23" points="14,43 16,44 16,44 13,44 "/>
   <polygon class="fil24" points="13,45 16,46 16,46 13,46 "/>
   <polygon class="fil25" points="13,47 15,48 15,49 12,48 "/>
   <polygon class="fil26" points="12,50 15,50 15,51 12,50 "/>
   <polygon class="fil27" points="12,52 15,52 15,53 12,53 "/>
   <polygon class="fil28" points="12,54 15,54 15,55 12,55 "/>
   <polygon class="fil29" points="12,57 15,56 15,57 12,57 "/>
   <polygon class="fil30" points="12,59 15,58 15,59 12,59 "/>
   <polygon class="fil31" points="12,61 15,61 15,61 13,62 "/>
   <polygon class="fil32" points="13,63 16,63 16,63 13,64 "/>
   <polygon class="fil33" points="13,66 16,65 16,65 14,66 "/>
   <polygon class="fil34" points="14,68 17,67 17,67 14,68 "/>
   <polygon class="fil35" points="15,70 17,69 18,69 15,70 "/>
   <polygon class="fil36" points="16,72 18,71 19,71 16,72 "/>
   <polygon class="fil37" points="17,74 19,73 20,73 17,75 "/>
   <polygon class="fil38" points="18,76 20,74 21,75 18,76 "/>
   <polygon class="fil39" points="19,78 21,76 22,77 19,78 "/>
   <polygon class="fil40" points="20,80 23,78 23,78 21,80 "/>
   <polygon class="fil41" points="22,81 24,80 24,80 22,82 "/>
   <polygon class="fil42" points="23,83 25,81 26,82 24,84 "/>
   <polygon class="fil43" points="25,85 27,83 27,83 25,85 "/>
   <polygon class="fil44" points="27,86 29,84 29,84 27,87 "/>
   <polygon class="fil45" points="28,88 30,85 31,86 29,88 "/>
   <polygon class="fil46" points="30,89 32,87 32,87 31,89 "/>
   <polygon class="fil47" points="32,90 34,88 34,88 33,91 "/>
   <polygon class="fil48" points="34,91 36,89 36,89 35,92 "/>
   <polygon class="fil49" points="36,92 37,90 38,90 37,93 "/>
   <polygon class="fil50" points="38,93 39,91 40,91 39,93 "/>
   <polygon class="fil51" points="41,94 41,91 42,91 41,94 "/>
   <polygon class="fil52" points="43,95 43,92 44,92 43,95 "/>
   <polygon class="fil53" points="45,95 45,92 46,92 46,95 "/>
   <polygon class="fil54" points="47,96 48,93 48,93 48,96 "/>
   <polygon class="fil55" points="49,96 50,93 50,93 50,96 "/>
   <polygon class="fil56" points="52,96 52,93 52,93 52,96 "/>
   <polygon class="fil57" points="54,96 54,93 55,93 55,96 "/>
   <polygon class="fil58" points="56,96 56,93 57,93 57,96 "/>
   <polygon class="fil59" points="59,96 58,93 59,93 59,96 "/>
   <polygon class="fil60" points="61,95 60,93 61,92 61,95 "/>
   <polygon class="fil61" points="63,95 62,92 63,92 64,95 "/>
   <polygon class="fil62" points="65,94 64,92 65,91 66,94 "/>
   <polygon class="fil63" points="67,94 66,91 67,91 68,93 "/>
   <polygon class="fil64" points="69,93 68,90 69,90 70,92 "/>
   <polygon class="fil65" points="72,92 70,89 71,89 72,91 "/>
   <polygon class="fil66" points="74,91 72,88 73,88 74,90 "/>
   <polygon class="fil67" points="76,90 74,87 75,87 76,89 "/>
   <polygon class="fil68" points="77,88 76,86 76,86 78,88 "/>
   <polygon class="fil69" points="79,87 77,85 78,84 80,86 "/>
   <polygon class="fil70" points="81,85 79,83 80,83 81,85 "/>
   <polygon class="fil71" points="83,84 81,82 81,81 83,83 "/>
   <polygon class="fil72" points="84,82 82,80 82,80 85,82 "/>
   <polygon class="fil73" points="86,80 83,79 84,78 86,80 "/>
   <polygon class="fil74" points="87,79 85,77 85,76 87,78 "/>
   <polygon class="fil75" points="88,77 86,75 86,75 89,76 "/>
   <polygon class="fil76" points="89,75 87,73 87,73 90,74 "/>
   <polygon class="fil77" points="91,73 88,72 88,71 91,72 "/>
   <polygon class="fil78" points="91,71 89,70 89,69 92,70 "/>
   <polygon class="fil79" points="92,69 90,68 90,67 93,68 "/>
   <polygon class="fil80" points="93,66 90,66 90,65 93,66 "/>
   <polygon class="fil81" points="94,64 91,64 91,63 94,64 "/>
   <polygon class="fil82" points="94,62 91,61 91,61 94,61 "/>
   <polygon class="fil83" points="94,60 92,59 92,59 94,59 "/>
   <polygon class="fil84" points="95,57 92,57 92,57 95,57 "/>
   <polygon class="fil85" points="95,55 92,55 92,55 95,55 "/>
   <polygon class="fil86" points="95,53 92,53 92,52 95,52 "/>
   <polygon class="fil87" points="95,51 92,51 92,50 94,50 "/>
   <polygon class="fil88" points="94,48 91,49 91,48 94,48 "/>
   <polygon class="fil89" points="94,46 91,47 91,46 94,46 "/>
   <polygon class="fil90" points="93,44 91,45 90,44 93,43 "/>
   <polygon class="fil91" points="93,42 90,43 90,42 93,41 "/>
   <polygon class="fil92" points="92,40 89,41 89,40 92,39 "/>
   <polygon class="fil93" points="91,37 88,39 88,38 91,37 "/>
   <polygon class="fil94" points="90,35 88,37 87,36 90,35 "/>
   <polygon class="fil95" points="89,33 86,35 86,34 89,33 "/>
   <polygon class="fil96" points="88,32 85,33 85,33 87,31 "/>
   <polygon class="fil97" points="86,30 84,31 84,31 86,29 "/>
   <polygon class="fil98" points="85,28 83,30 82,29 85,27 "/>
   <polygon class="fil99" points="83,26 81,28 81,28 83,26 "/>
   <polygon class="fil100" points="82,25 80,27 79,26 81,24 "/>
   <polygon class="fil101" points="80,23 78,25 78,25 80,23 "/>
   <polygon class="fil102" points="78,22 77,24 76,24 78,21 "/>
   <polygon class="fil103" points="77,20 75,23 74,22 76,20 "/>
   <polygon class="fil104" points="75,19 73,22 73,21 74,19 "/>
   <polygon class="fil105" points="73,18 71,20 71,20 72,18 "/>
   <polygon class="fil106" points="71,17 69,20 69,19 70,17 "/>
   <polygon class="fil107" points="69,16 67,19 67,18 68,16 "/>
   <polygon class="fil108" points="66,15 65,18 65,18 66,15 "/>
   <polygon class="fil109" points="64,15 63,17 63,17 64,14 "/>
   <polygon class="fil110" points="62,14 61,17 61,17 61,14 "/>
   <polygon class="fil111" points="60,14 59,16 59,16 59,14 "/>
   <polygon class="fil112" points="57,13 57,16 57,16 57,13 "/>
   <polygon class="fil113" points="55,13 55,16 54,16 55,13 "/>
   <path class="fil114" d="M86 21l-1 0c-8,-9 -20,-13 -32,-13l0 0c-12,0 -23,4 -31,12l-1 1 -13 -14 0 -1 13 13c9,-8 20,-12 32,-12l0 0c12,0 24,4 33,13l13 -14 0 1 -13 14z"/>
   <path class="fil115" d="M98 103l-13 -13c-8,8 -20,12 -32,12l0 0c-12,0 -23,-4 -32,-13l-12 13 -1 0 13 -14 0 0c9,9 20,13 32,13l0 0c12,0 23,-4 32,-12l0 -1 14 14 -1 1z"/>
   <path class="fil116" d="M8 64l2 -3c0,-1 0,-1 0,-1l0 -6 0 -5c0,0 0,0 0,-1l-2 -3c2,-8 5,-16 11,-22l1 -1 -14 -13 -1 0 11 11c-4,5 -7,11 -10,17l0 0 0 0 -4 4c-1,5 -2,9 -2,13 0,5 1,9 1,13l5 5 0 0c2,6 6,12 10,16l-11 11 1 1 14 -13 -1 -1c-6,-6 -10,-14 -11,-22z"/>
   <path class="fil117" d="M107 55c0,-5 -1,-9 -2,-13l-5 -5 0 0c-2,-6 -5,-12 -10,-16l12 -12 -1 0 -14 13 0 1c6,6 10,14 12,22l-3 3c0,1 0,1 0,1l0 6 0 5c0,0 0,0 0,1l3 3c-2,8 -6,16 -12,22l0 1 14 13 0 0 -11 -11c5,-5 8,-11 10,-17l0 0 0 0 5 -5c1,-4 2,-8 2,-12z"/>
   <path class="fil118" d="M86 16c-5,-4 -11,-8 -17,-10 0,0 0,-1 -1,-1l-6 -5c0,0 -1,0 -1,0l-7 0 -8 0c0,0 -1,0 -1,0l-6 5c-1,0 -1,1 -1,1 -6,2 -12,6 -18,10 0,0 0,0 0,1 1,0 1,0 1,0 6,-5 13,-9 20,-11 4,-1 8,-1 13,-1 3,0 7,0 11,1 8,2 15,6 21,11 0,0 0,0 0,0 1,0 1,-1 0,-1z"/>
   <path class="fil119" d="M86 93c-5,4 -11,8 -17,10 0,0 0,1 -1,1l-6 5c-1,0 -1,0 -1,0l-8 0 -7 0c0,0 -1,0 -1,0l-6 -5c-1,0 -1,-1 -1,-1 -7,-2 -13,-6 -18,-10 0,0 0,0 0,-1 0,0 1,0 1,0 6,5 12,9 20,11 4,1 8,1 12,1 4,0 8,0 12,-1 7,-2 15,-5 21,-11 0,0 0,0 0,0 0,1 0,1 0,1z"/>
   <path class="fil120" d="M53 31c-13,0 -23,11 -23,24 0,7 4,14 10,19l3 -6c-4,-3 -7,-8 -7,-13l5 0 0 -1 -5 0c0,-9 8,-16 17,-17l0 5 1 0 0 -5c9,1 16,8 17,17l-5 0 0 1 5 0c-1,5 -3,10 -7,13l3 6c6,-5 10,-12 10,-19 0,-13 -11,-24 -24,-24z"/>
   <path class="fil121" d="M53 61c-3,0 -6,-3 -6,-6 0,-4 3,-7 6,-7 4,0 7,3 7,7 0,3 -3,6 -7,6zm0 -14c-4,0 -7,3 -7,8 0,4 3,7 7,7 4,0 8,-3 8,-7 0,-5 -4,-8 -8,-8z"/>
   <polygon class="fil122" points="43,85 64,85 68,81 53,55 38,81 "/>
  </g>
 </g>
</svg>
