<?xml version="1.0" encoding="UTF-8"?>
<!DOCTYPE svg PUBLIC "-//W3C//DTD SVG 1.1//EN" "http://www.w3.org/Graphics/SVG/1.1/DTD/svg11.dtd">
<!-- Creator: CorelDRAW X7 -->
<svg xmlns="http://www.w3.org/2000/svg" xml:space="preserve" width="2300px" height="1719px" version="1.1" style="shape-rendering:geometricPrecision; text-rendering:geometricPrecision; image-rendering:optimizeQuality; fill-rule:evenodd; clip-rule:evenodd"
viewBox="0 0 99 74"
 xmlns:xlink="http://www.w3.org/1999/xlink">
 <defs>
  <style type="text/css">
   <![CDATA[
    .fil0 {fill:#231F1F;fill-rule:nonzero}
   ]]>
  </style>
 </defs>
 <g id="Vrstva_x0020_1">
  <metadata id="CorelCorpID_0Corel-Layer"/>
  <path class="fil0" d="M81 35l0 -7c0,0 0,0 0,0 0,0 0,0 0,0l0 7c0,0 0,0 0,0 0,0 0,0 0,0zm0 -7l0 0c0,0 0,0 0,0 0,0 0,0 0,0 0,0 0,0 0,0 0,0 0,0 0,0zm0 7l0 0c0,0 0,-1 0,-1 0,0 0,1 0,1 0,0 0,0 0,0 0,0 0,0 0,0zm-65 -16l0 0 -2 5 0 9 -8 10 0 2c-1,0 -1,0 -1,0 0,1 0,1 1,1 0,0 0,0 0,-1 0,0 0,0 0,0l0 -2 8 -10 0 -9 2 -5 0 -10 1 -5 0 -4 0 0 0 4 -1 5 0 10zm-10 26l0 0c0,1 0,1 0,1 0,0 -1,0 -1,-1 0,0 1,0 1,0 0,0 0,0 0,0zm76 -8l0 0 0 -8c0,0 0,0 0,0 0,0 0,0 0,0l0 8c0,0 0,0 0,0 0,0 0,0 0,0zm0 -8l0 0c0,0 0,0 0,0 0,0 0,0 0,0 0,0 0,0 0,0 0,0 0,0 0,0zm0 8l0 0c0,0 0,0 0,0 0,0 0,0 0,0 0,0 0,0 0,0 0,0 0,0 0,0zm-81 8l0 0c0,0 0,0 0,0l0 -2 8 -10 0 -9 2 -5 0 -10 2 -5 0 -4 0 0 0 4 -2 5 0 10 -2 5 0 9 -8 10 0 2c0,0 0,0 0,0 0,0 0,0 0,0 0,0 0,0 0,0zm0 0l0 0c0,0 0,0 0,0 0,0 0,0 0,0 0,0 0,0 0,0 0,0 0,0 0,0zm49 -43l0 0c0,0 0,0 0,0l-8 0 -5 5 -3 0c0,0 0,0 0,0 0,0 0,0 0,0 0,0 0,0 0,0 0,0 0,0 0,0l3 0 5 -5 8 0c0,0 0,0 0,0 0,0 0,0 0,0 0,0 0,0 0,0zm-16 5l0 0c0,0 0,0 0,0 0,0 0,0 0,0 0,0 0,0 0,0 0,0 0,0 0,0l0 0zm16 -5l0 0c0,0 0,0 0,0 0,0 0,0 0,0 0,0 0,0 0,0 0,0 0,0 0,0zm-40 69l0 0c0,0 1,0 1,0 0,0 -1,0 -1,0 0,0 0,0 0,0 0,0 0,0 0,0l0 2 1 1 0 0 -1 -1 0 -2zm0 0l0 0c0,0 0,0 0,0 0,0 0,0 0,0 0,0 0,0 0,0 0,0 0,0 0,0zm52 1l0 0c0,0 0,0 0,0l0 2 0 0 0 -2c0,0 0,0 0,0 0,0 0,0 0,0zm0 0l0 0c0,0 0,0 0,0 0,0 0,0 0,0 0,0 0,0 0,0 0,0 0,0 0,0zm16 -57l0 0c0,0 0,0 0,0l0 -3c0,0 0,0 0,0 0,-1 0,-1 0,-1 0,0 0,0 0,1 0,0 0,0 0,0l0 3c0,0 0,0 0,0 0,0 0,0 0,0 0,0 0,0 0,0zm0 -3l0 0c0,-1 0,-1 0,-1 0,0 0,0 0,1 0,0 0,0 0,0 0,0 0,0 0,0zm0 3l0 0c0,0 0,0 0,0 0,0 0,0 0,0 0,0 0,0 0,0 0,0 0,0 0,0zm-28 -14l0 0c0,0 0,0 0,0l-14 0 -1 2 -2 0c0,-1 0,-1 0,-1 0,0 0,0 0,1 0,0 0,0 0,0 0,0 0,0 0,0l2 0 1 -2 14 0c0,0 0,0 0,0 0,0 0,0 0,0 0,0 0,0 0,0zm-17 2l0 0c0,0 0,0 0,0 0,0 0,0 0,0 0,0 0,-1 0,-1 0,0 0,1 0,1l0 0zm17 -2l0 0c0,0 0,0 0,0 0,0 0,0 0,0 0,0 0,0 0,0 0,0 0,0 0,0zm-40 62l0 0c-1,0 -1,1 -1,1 0,0 1,0 1,0 0,0 0,0 0,0 0,0 0,-1 0,-1l0 -4 4 -6 0 -2c0,0 1,0 1,0 0,0 -1,0 -1,0 0,0 0,0 0,0 0,0 0,0 0,0l0 2 -4 6 0 4zm4 -12l0 0c0,0 0,0 0,0 0,0 0,0 0,0 0,0 0,0 0,0l0 0c0,0 0,0 0,0zm-4 13l0 0c0,0 0,0 0,0 0,0 0,0 0,0 0,0 0,0 0,0 0,0 0,0 0,0zm5 -45l0 0 -2 5 0 9 -8 10 0 3c0,0 0,0 0,0 0,0 0,0 0,0 0,0 0,0 0,0 0,0 0,0 0,0l0 -3 8 -10 0 -9 2 -5 0 -10 2 -5 0 -4 0 0 0 4 -2 5 0 10zm-10 27l0 0c0,0 0,0 0,0 0,0 0,0 0,0 0,0 0,0 0,0 0,0 0,0 0,0zm10 -27l0 0 -2 5 0 9 -8 10 0 2c-1,0 -1,0 -1,0 0,1 0,1 1,1 0,0 0,0 0,-1 0,0 0,0 0,0l0 -2 8 -10 0 -9 2 -5 0 -10 1 -5 0 -4 0 0 0 4 -1 5 0 10zm-10 26l0 0c0,1 0,1 0,1 0,0 -1,0 -1,-1 0,0 1,0 1,0 0,0 0,0 0,0zm11 23l0 0c0,0 0,0 0,-1l0 -7 2 -3 0 -9 1 -2 0 -10c1,0 1,0 1,0 0,0 0,0 -1,0 0,0 0,0 0,0 0,0 0,0 0,0l0 10 -1 2 0 9 -2 2 0 8c0,1 0,1 0,1 0,0 0,0 0,0 0,0 0,0 0,0zm3 -32l0 0c0,0 0,0 0,0 0,0 1,0 1,0 0,0 -1,0 -1,0l0 0c0,0 0,0 0,0zm-3 32l0 0c0,0 0,0 0,0 0,0 0,0 0,0 0,0 0,0 0,0 0,0 0,0 0,0zm-3 -49l0 0 -2 5 0 9 -8 10 0 15c0,1 0,1 0,1 0,0 0,0 0,-1l0 -15 8 -10 0 -9 3 -5 0 -10 1 -5 0 -4 0 0 0 4 -2 5 0 10zm-10 40l0 0c0,0 0,0 0,-1 0,0 0,0 0,0 0,0 0,0 0,0 0,1 0,1 0,1zm-2 -14l0 0 0 -2 8 -10 0 -9 2 -5 0 -10 1 -5 0 -4 0 0 0 4 -1 5 0 10 -2 5 0 9 -9 10 0 2c0,0 0,0 0,0 0,1 0,1 1,1 0,0 0,0 0,-1 0,0 0,0 0,0zm0 1l0 0c-1,0 -1,0 -1,-1 0,0 0,0 1,0 0,0 0,0 0,0 0,1 0,1 0,1zm10 13l0 0 4 -6 0 -5 2 -2 0 -7c0,0 0,0 0,-1 0,0 0,0 0,0 0,0 0,0 0,0 0,1 0,1 0,1l0 7 -2 2 0 5 -4 6 0 7 -1 2 0 2c-1,0 -1,0 -1,0 0,0 1,1 1,1 0,0 0,-1 0,-1 0,0 0,0 0,0l0 -2 1 -2 0 -7zm6 -21l0 0c0,0 0,0 0,0 0,0 0,0 0,0 0,1 0,1 0,1l0 0c0,0 0,0 0,-1zm-7 32l0 0c0,0 0,1 0,1 0,0 0,-1 0,-1 0,0 0,0 0,0l0 0c0,0 0,0 0,0zm70 -29l0 0c0,0 -1,0 -1,0 0,0 1,1 1,1 0,0 0,-1 0,-1l9 0 1 -1 0 -8c0,0 0,0 0,-1 0,0 0,0 0,0 0,0 0,0 0,0 0,1 0,1 0,1l0 8 -1 1 -9 0c0,0 0,0 0,0zm0 0l0 0c0,0 0,0 0,0 0,0 0,0 0,0 0,0 0,0 0,0 0,0 0,0 0,0zm10 -10l0 0c0,0 0,0 0,0 0,0 0,0 0,0 0,0 0,1 0,1l0 0c0,0 0,-1 0,-1zm-15 -14l0 0 -6 0c0,0 0,0 0,0 0,0 0,0 0,0 0,1 0,1 0,1 0,0 0,0 0,-1l6 0 1 -1 0 -4c1,0 1,0 1,0 0,-1 0,-1 -1,-1 0,0 0,0 0,1 0,0 0,0 0,0l0 4 -1 1zm-6 1l0 0c0,0 0,-1 0,-1 0,0 0,0 0,0 0,0 0,0 0,0 0,0 0,1 0,1zm7 -6l0 0c0,-1 0,-1 0,-1 0,0 1,0 1,1 0,0 -1,0 -1,0l0 0c0,0 0,0 0,0zm15 19l0 0c0,0 0,0 0,0 -1,0 -1,0 -1,0 0,0 0,0 1,0l0 6 1 1 2 0c0,0 0,0 0,0 1,0 1,0 1,0 0,-1 0,-1 -1,-1 0,0 0,0 0,1l-2 0 -1 -1 0 -6c0,0 0,0 0,0zm3 6l0 0c0,0 1,1 1,1 0,0 -1,0 -1,0 0,0 0,0 0,0 0,0 0,-1 0,-1zm-3 -6l0 0c0,0 -1,0 -1,0 0,0 1,0 1,0 0,0 0,0 0,0 0,0 0,0 0,0zm-76 22l0 0 0 -1c0,0 0,0 0,0 0,0 0,-1 0,-1 0,0 -1,1 -1,1 0,0 1,0 1,0l0 1 -5 6 0 5c0,0 0,0 0,0 0,0 0,1 0,1 0,0 1,-1 1,-1 0,0 -1,0 -1,0l0 -5 5 -6zm0 -1l0 0c0,0 0,-1 0,-1 0,0 0,1 0,1 0,0 0,0 0,0 0,0 0,0 0,0zm-5 12l0 0c0,0 0,0 0,0 0,0 0,0 0,0 0,0 0,0 0,0 0,0 0,0 0,0zm6 -16l0 0 0 9 -2 2 0 9c0,0 0,0 0,0 0,0 0,1 0,1 0,0 1,-1 1,-1 0,0 -1,0 -1,0l0 -8 2 -3 0 -9 2 -2 0 -7c0,0 0,0 0,-1 0,0 0,0 0,0 0,0 0,0 0,0 0,1 0,1 0,1l0 7 -2 2zm-2 20l0 0c0,0 0,0 0,0 0,0 0,0 0,0 0,0 0,0 0,0l0 0c0,0 0,0 0,0zm4 -30l0 0c0,0 0,0 0,0 0,0 0,0 0,0 0,1 0,1 0,1 0,0 0,0 0,-1zm61 -22l0 0c1,0 1,0 1,-1 0,0 0,0 0,0l0 -3c0,0 0,0 0,0 0,0 0,0 -1,0 0,0 0,0 0,0 0,0 0,0 0,0l0 3c0,0 0,0 0,0 0,1 0,1 0,1zm0 -4l0 0c0,0 0,0 0,0 1,0 1,0 1,0 0,0 0,0 -1,0 0,0 0,0 0,0zm0 3l0 0c1,0 1,0 1,0 0,1 0,1 -1,1 0,0 0,0 0,-1 0,0 0,0 0,0zm3 -8l0 0 -28 0c0,0 -1,0 -1,0 0,0 0,0 0,0 0,0 0,0 0,0 0,0 1,0 1,0l28 0 13 8 4 0 0 0 -4 0 -13 -8zm-29 0l0 0c0,0 0,0 0,0 0,0 0,0 0,0 0,0 0,0 0,0 0,0 0,0 0,0l0 0zm30 5l0 0c0,0 0,0 -1,0 0,0 0,0 0,0 0,0 0,0 0,0l0 3c0,0 0,0 0,0 0,1 0,1 0,1 1,0 1,0 1,-1 0,0 0,0 0,0l0 -3c0,0 0,0 0,0zm0 3l0 0c0,1 0,1 -1,1 0,0 0,0 0,-1 0,0 0,0 0,0 1,0 1,0 1,0zm-1 -3l0 0c0,0 0,0 0,0 0,0 0,0 0,0 1,0 1,0 1,0 0,0 0,0 -1,0zm-1 0l0 0c0,0 0,0 -1,0 0,0 0,0 0,0 0,0 0,0 0,0l0 3c0,0 0,0 0,0 0,1 0,1 0,1 1,0 1,0 1,-1 0,0 0,0 0,0l0 -3c0,0 0,0 0,0zm0 3l0 0c0,1 0,1 -1,1 0,0 0,0 0,-1 0,0 0,0 0,0 1,0 1,0 1,0zm-1 -3l0 0c0,0 0,0 0,0 0,0 0,0 0,0 1,0 1,0 1,0 0,0 0,0 -1,0zm-1 3l0 0c0,0 0,0 0,0l0 -3c0,0 0,0 0,0 0,-1 0,-1 0,-1 0,0 0,0 0,1 0,0 0,0 0,0l0 3c0,0 0,0 0,0 0,0 0,0 0,0 0,0 0,0 0,0zm0 -3l0 0c0,-1 0,-1 0,-1 0,0 0,0 0,1 0,0 0,0 0,0 0,0 0,0 0,0zm0 3l0 0c0,0 0,0 0,0 0,0 0,0 0,0 0,0 0,0 0,0 0,0 0,0 0,0zm-59 8l0 0 0 0c0,0 0,0 -1,0 0,0 0,0 0,0l0 10 -8 10 0 4 3 3 0 0c0,0 0,0 0,0 0,0 0,0 0,0 0,0 0,0 0,0l0 0 -3 -3 0 -4 9 -10 0 -10zm-6 27l0 0c0,0 0,0 0,0 0,0 0,0 0,0 0,0 0,0 0,0 0,0 0,0 0,0zm5 -27l0 0c0,0 0,0 0,0 0,0 0,0 0,0 0,0 1,0 1,0 0,0 -1,0 -1,0zm65 -13l0 0c0,0 0,0 0,0l-12 0c0,0 0,0 0,0 0,0 0,0 0,0l12 0c0,0 0,0 0,0zm-12 0l0 0c0,0 0,0 0,0 0,0 0,0 0,0 0,0 0,0 0,0 0,0 0,0 0,0zm12 0l0 0c0,0 0,0 0,0 0,0 0,0 0,0 0,0 0,0 0,0 0,0 0,0 0,0zm-69 58l0 0c0,0 0,0 0,-1l0 -7 2 -3 0 -9 1 -2 0 -8c1,0 1,0 1,0 0,0 0,0 -1,0 0,0 0,0 0,0 0,0 0,0 0,0l0 8 -1 2 0 9 -2 2 0 8c0,1 -1,1 -1,1 0,0 1,0 1,0 0,0 0,0 0,0zm3 -30l0 0c0,0 0,0 0,0 0,0 1,0 1,0 0,0 -1,0 -1,0 0,0 0,0 0,0zm-3 30l0 0c0,0 0,0 0,0 0,0 0,0 0,0 0,0 0,0 0,0 0,0 0,0 0,0zm65 -53l0 0c0,0 0,0 0,0l0 -3c0,0 0,0 0,0 0,-1 0,-1 0,-1 0,0 0,0 0,1 0,0 0,0 0,0l0 3c0,0 0,0 0,0 0,0 0,0 0,0 0,0 0,0 0,0zm0 -3l0 0c0,-1 0,-1 0,-1 0,0 0,0 0,1 0,0 0,0 0,0 0,0 0,0 0,0zm0 3l0 0c0,0 0,0 0,0 0,0 0,0 0,0 0,0 0,0 0,0 0,0 0,0 0,0zm1 -7l0 0 -9 0 -4 3 0 3 0 0c0,0 1,1 1,1 0,0 0,-1 0,-1l0 -3 3 -2 9 0c0,0 0,0 0,0 0,0 0,0 0,0 0,0 0,-1 0,-1zm-12 6l0 0c0,0 0,0 0,0 0,0 0,0 0,0 0,0 0,0 0,0 0,0 0,0 0,0zm12 -5l0 0c0,0 0,0 0,0 0,0 0,0 0,0 0,0 0,0 0,0 0,0 0,0 0,0zm-71 34l0 0 0 4 2 2 0 0c0,1 0,1 0,1 0,0 1,-1 1,-1 0,0 -1,0 -1,0l0 0 -2 -2 0 -4 9 -10 0 -9c0,0 0,0 0,0 0,0 -1,0 -1,0 0,0 0,0 0,0 0,0 0,0 0,0l0 9 -8 10zm2 6l0 0c0,0 0,0 0,0 0,0 0,0 0,0 0,0 0,0 0,0 0,0 0,0 0,0zm6 -25l0 0c0,0 0,0 0,0 0,0 0,0 0,0 0,0 0,0 0,0 0,0 0,0 0,0zm-4 27l0 0c0,-1 -1,-1 -1,-1 0,0 0,0 0,1 0,0 0,0 0,0l0 2c0,0 0,0 0,1 0,0 0,0 0,0 0,0 1,0 1,0 0,-1 -1,-1 -1,-1l0 -2c0,0 1,0 1,0zm-1 3l0 0c0,0 0,0 0,0 0,0 0,0 0,0 0,-1 0,-1 0,-1 0,0 0,0 0,1zm0 -3l0 0c0,0 0,0 0,0 0,0 0,-1 0,-1 0,0 0,1 0,1 0,0 0,0 0,0zm-3 -2l0 0 0 2 2 1 0 1c0,0 -1,0 -1,1 0,0 1,0 1,0 0,0 0,0 0,0 0,-1 0,-1 0,-1l0 -1 -2 -1 0 -2c0,0 1,0 1,0 0,0 -1,0 -1,0 0,0 0,0 0,0 0,0 0,0 0,0zm2 5l0 0c0,0 0,0 0,0 0,0 0,0 0,0 0,-1 0,-1 0,-1 0,0 0,0 0,1zm-2 -5l0 0c0,0 0,0 0,0 0,0 0,0 0,0l0 0c0,0 0,0 0,0 0,0 0,0 0,0zm2 2l0 0c0,0 1,0 1,0l0 3c0,0 -1,0 -1,0 0,0 1,0 1,0 0,0 0,0 0,0 0,0 0,0 0,0l0 -3c0,0 0,0 0,0 0,0 0,0 0,0 0,0 -1,0 -1,0zm1 3l0 0c0,0 0,0 0,0 0,0 0,0 0,0 0,0 0,0 0,0 0,0 0,0 0,0zm0 -3l0 0c0,0 0,0 0,0 0,0 0,0 0,0 0,0 0,0 0,0 0,0 0,0 0,0zm4 -32l0 0 -2 5 0 9 -8 10 0 3c0,0 0,0 0,0 0,0 0,0 0,0 0,0 0,0 0,0 0,0 0,0 0,0l0 -3 8 -10 0 -9 2 -5 0 -10 2 -5 0 -4 0 0 0 4 -2 5 0 10zm-10 27l0 0c0,0 0,0 0,0 0,0 0,0 0,0 0,0 0,0 0,0 0,0 0,0 0,0zm11 -27l0 0 -2 5 0 9 -8 10 0 2c-1,0 -1,0 -1,0 0,1 0,1 1,1 0,0 0,0 0,-1 0,0 0,0 0,0l0 -2 8 -10 0 -9 2 -5 0 -10 1 -5 0 -4 0 0 0 4 -1 5 0 10zm-10 26l0 0c0,1 0,1 0,1 0,0 -1,0 -1,-1 0,0 1,0 1,0 0,0 0,0 0,0zm70 -29l0 0c1,0 1,0 1,-1 0,0 0,0 -1,0l0 -3c1,0 1,0 1,0 0,0 0,0 -1,0 0,0 0,0 0,0 0,0 0,0 0,0l0 3c0,0 0,0 0,0 0,1 0,1 0,1zm0 -4l0 0c0,0 0,0 0,0 1,0 1,0 1,0 0,0 0,0 -1,0 0,0 0,0 0,0zm0 3l0 0c1,0 1,0 1,0 0,1 0,1 -1,1 0,0 0,0 0,-1 0,0 0,0 0,0zm4 5l0 0 -23 0 -9 -8 0 -2c1,0 1,0 1,0 0,-1 0,-1 -1,-1 0,0 0,0 0,1 0,0 0,0 0,0l0 2 9 8 24 0 6 -3 10 0 0 0 -10 0 -7 3zm-32 -10l0 0c0,-1 0,-1 0,-1 1,0 1,0 1,1 0,0 0,0 -1,0 0,0 0,0 0,0zm-33 9l0 0 -2 5 0 9 -8 10 0 2c-1,0 -1,0 -1,0 0,1 0,1 1,1 0,0 0,0 0,-1 0,0 0,0 0,0l0 -2 8 -10 0 -9 2 -5 0 -10 1 -5 0 -4 0 0 0 4 -1 5 0 10zm-10 26l0 0c0,1 0,1 0,1 0,0 -1,0 -1,-1 0,0 1,0 1,0 0,0 0,0 0,0zm9 -26l0 0 -2 5 0 9 -8 10 0 3c0,0 0,0 0,0 0,0 0,0 0,0 0,0 0,0 0,0 0,0 0,0 0,0l0 -3 8 -10 0 -9 2 -5 0 -10 2 -5 0 -4 0 0 0 4 -2 5 0 10zm-10 27l0 0c0,0 0,0 0,0 0,0 0,0 0,0 0,0 0,0 0,0 0,0 0,0 0,0zm71 -31l0 0c0,1 0,1 0,1 1,0 1,0 1,-1 0,0 0,0 -1,0l0 -3c1,0 1,0 1,0 0,0 0,0 -1,0 0,0 0,0 0,0 0,0 0,0 0,0l0 3c0,0 0,0 0,0zm0 -3l0 0c0,0 0,0 0,0 0,0 1,0 1,0 0,0 -1,0 -1,0 0,0 0,0 0,0zm0 3l0 0c0,0 1,0 1,0 0,1 -1,1 -1,1 0,0 0,0 0,-1 0,0 0,0 0,0zm-61 31l0 0c0,0 0,0 0,0 0,0 0,0 0,0l0 0 0 -6c0,0 0,0 0,0 0,0 0,-1 0,-1 0,0 0,1 0,1 0,0 0,0 0,0l0 6 0 0zm0 -6l0 0c0,0 0,0 0,0 0,0 0,0 0,0 0,0 0,0 0,0 0,0 0,0 0,0zm0 6l0 0c0,0 0,0 0,0 0,0 0,0 0,0 0,0 0,0 0,0 0,0 0,0 0,0zm2 -27l0 0 -2 5 0 9 -8 10 0 3c0,0 0,0 0,0 0,0 0,0 0,0 0,0 0,0 0,0 0,0 0,0 0,0l0 -3 8 -10 0 -9 2 -5 0 -10 2 -5 0 -4 0 0 0 4 -2 5 0 10zm-10 27l0 0c0,0 0,0 0,0 0,0 0,0 0,0 0,0 0,0 0,0 0,0 0,0 0,0zm45 -36l0 0c0,0 0,0 0,1 0,0 0,0 0,0l0 1 6 6 6 0 2 -2 0 -8c0,0 1,0 1,0 0,0 -1,0 -1,0 0,0 0,0 0,0 0,0 0,0 0,0l0 8 -2 2 -6 0 -6 -6 0 -1c0,0 0,0 0,0 0,-1 0,-1 0,-1zm14 -2l0 0c0,0 0,0 0,0 0,0 0,0 0,0 0,0 0,0 0,0 0,0 0,0 0,0zm-14 3l0 0 0 0c0,0 0,0 0,0 0,-1 0,-1 0,-1 0,0 0,0 0,1 0,0 0,0 0,0zm-38 58l0 0c0,0 1,-1 1,-1 0,0 0,0 -1,0l0 -8 2 -3 0 -9 2 -2 0 -9c0,0 0,0 0,-1 0,0 0,0 0,0 0,0 0,0 0,0 0,1 0,1 0,1l0 9 -2 2 0 9 -2 2 0 9c0,0 0,0 0,0 0,0 0,1 0,1zm4 -33l0 0c0,0 0,0 0,0 0,0 0,0 0,0 0,1 0,1 0,1l0 0c0,0 0,0 0,-1zm-4 32l0 0 0 0c0,0 0,0 0,0 0,0 0,0 0,0 0,0 0,0 0,0 0,0 0,0 0,0zm4 -49l0 0 -2 5 0 9 -8 10 0 3c0,0 0,0 0,0 0,0 0,0 0,0 0,0 1,0 1,0 0,0 -1,0 -1,0l0 -3 8 -10 0 -9 2 -5 0 -10 2 -5 0 -4 0 0 0 4 -2 5 0 10zm-10 27l0 0c0,0 0,0 0,0 0,0 0,0 0,0 0,0 0,0 0,0 0,0 0,0 0,0zm44 -39l0 0 0 -6 -1 0 0 6 1 0zm-34 12l0 0 -2 5 0 9 -8 10 0 2c-1,0 -1,0 -1,0 0,1 1,1 1,1 0,0 0,0 0,-1 0,0 0,0 0,0l0 -2 8 -10 0 -9 2 -5 0 -10 1 -5 0 -4 0 0 0 4 -1 5 0 10zm-10 26l0 0c0,1 0,1 0,1 0,0 0,0 0,-1 0,0 0,0 0,0 0,0 0,0 0,0zm40 -38l0 0c-1,0 -1,0 -1,1l-6 0 -2 2 0 7c0,0 0,0 0,0 0,0 0,0 0,0 0,0 1,0 1,0 0,0 -1,0 -1,0l0 -7 2 -2 6 0c0,0 0,0 1,0 0,0 0,0 0,0 0,0 0,-1 0,-1zm-9 10l0 0c0,0 0,0 0,0 0,0 0,0 0,0 0,0 0,0 0,0 0,0 0,0 0,0zm9 -9l0 0c-1,0 -1,0 -1,0l0 0c0,0 0,0 1,0 0,0 0,0 0,0 0,0 0,0 0,0zm0 1l0 0c0,0 0,-1 0,-1 -1,0 -1,0 -1,1l-6 0 -1 1 0 7c0,0 0,0 0,0 0,0 0,0 0,0 0,0 1,0 1,0 0,0 -1,0 -1,0l0 -7 1 -1 6 0c0,0 0,0 1,0 0,0 0,0 0,0zm-8 8l0 0c0,0 0,0 0,0 0,0 0,0 0,0 0,0 0,0 0,0 0,0 0,0 0,0zm8 -8l0 0c-1,0 -1,0 -1,0l0 0c0,0 0,0 1,0 0,0 0,0 0,0 0,0 0,0 0,0zm-26 53l0 0 0 -14 2 -2 0 -14 1 -2 0 -6 -3 -5 0 -5 -2 -2 0 -4c0,0 0,0 0,0 0,-1 0,-1 0,-1 0,0 0,0 0,1 0,0 0,0 0,0l0 4 1 2 0 5 4 5 0 5 -2 3 0 14 -1 2 0 14c0,0 0,0 0,0 0,0 0,1 0,1 0,0 0,-1 0,-1 0,0 0,0 0,0zm-2 -54l0 0c0,-1 0,-1 0,-1 0,0 0,0 0,1 0,0 0,0 0,0 0,0 0,0 0,0zm2 54l0 0c0,0 0,0 0,0 0,0 0,0 0,0 0,0 0,0 0,0 0,0 0,0 0,0zm1 1l0 0c1,0 1,0 1,0l0 -9c0,0 0,0 -1,0 0,0 0,0 0,0l0 9c0,0 0,0 0,0zm0 -9l0 0c1,0 1,0 1,0 0,0 0,1 -1,1 0,0 0,-1 0,-1 0,0 0,0 0,0zm0 8l0 0c1,0 1,0 1,1 0,0 0,0 -1,0 0,0 0,0 0,0 0,-1 0,-1 0,-1zm25 -48l0 0c0,0 0,0 0,0 0,0 0,0 0,0l0 6 2 2 0 11c0,0 0,0 0,0 0,0 0,1 0,1 0,0 0,-1 0,-1 0,0 0,0 0,0l0 -11 -2 -2 0 -6c0,0 0,0 0,0 0,0 0,0 0,0zm2 19l0 0c0,0 0,0 0,0 0,0 0,0 0,0 0,0 0,0 0,0 0,0 0,0 0,0zm-2 -19l0 0c0,0 0,0 0,0 0,0 0,0 0,0 0,0 0,0 0,0 0,0 0,0 0,0zm-24 47l0 0 0 0c0,0 0,0 0,0 0,0 0,0 0,0 1,0 1,0 1,0 0,0 0,0 0,0l0 -7 -2 -2 0 -4c0,0 0,0 0,0 0,0 0,0 0,0 0,0 0,0 0,0l0 4 1 2 0 7zm0 0l0 0c1,0 1,0 1,0 0,0 0,0 -1,0 0,0 0,0 0,0 0,0 0,0 0,0zm-1 -13l0 0c0,0 0,0 0,0 0,0 0,0 0,0 0,0 0,0 0,0 0,0 0,0 0,0zm-3 -16l0 0 2 -2 0 -5c0,0 0,-1 0,-1 0,0 0,0 0,0 0,0 0,0 0,0 0,0 0,1 0,1l0 4 -2 3 0 14 -1 2 0 9 -2 2 0 8c0,1 0,1 0,1 0,0 0,0 0,0 0,0 0,0 0,0 0,0 0,0 0,-1l0 -7 2 -3 0 -9 1 -2 0 -14zm2 -8l0 0c0,0 0,0 0,0 0,0 0,0 0,0 0,0 0,0 0,0 0,0 0,0 0,0zm-5 44l0 0c0,0 0,0 0,0 0,0 0,0 0,0 0,0 0,0 0,0 0,0 0,0 0,0zm23 -50l0 0c0,0 0,0 0,0 0,0 -1,0 -1,0 0,0 1,0 1,0l0 6c0,0 -1,0 -1,0 0,0 1,0 1,0 0,0 0,0 0,0 0,0 0,0 0,0l0 -6c0,0 0,0 0,0zm0 6l0 0c0,0 0,0 0,0 0,0 0,0 0,0 0,0 0,0 0,0 0,0 0,0 0,0zm0 -6l0 0c0,0 0,0 0,0 0,0 0,0 0,0 0,0 0,0 0,0 0,0 0,0 0,0zm-15 14l0 0c0,0 0,0 -1,0 0,0 0,0 0,0l0 14c0,0 0,0 0,0 1,0 1,0 1,0 0,0 0,0 0,0l0 -14c0,0 0,0 0,0zm-1 14l0 0c0,0 0,0 0,0 0,0 0,0 0,0 1,0 1,0 1,0 0,0 0,0 -1,0zm0 -14l0 0c0,0 0,0 0,0 0,0 0,0 0,0 1,0 1,0 1,0 0,0 0,0 -1,0zm-13 35l0 0c0,0 0,0 0,0 0,0 -1,0 -1,0 0,0 1,0 1,0l0 4c0,0 -1,0 -1,0 0,0 1,0 1,0 0,0 0,0 0,0 0,0 0,0 0,0l0 -4c0,0 0,0 0,0zm0 4l0 0c0,0 0,0 0,0 0,0 0,0 0,0 0,0 0,0 0,0l0 0c0,0 0,0 0,0zm0 -4l0 0 0 0c0,0 0,0 0,0 0,0 0,0 0,0 0,0 0,0 0,0 0,0 0,0 0,0zm28 -42l0 0c0,0 0,0 0,0 0,0 1,0 1,0 0,-1 -1,-1 -1,-1l0 -5c0,0 1,0 1,0 0,0 -1,-1 -1,-1 0,0 0,1 0,1 0,0 0,0 0,0l0 5c0,0 0,0 0,1zm0 -6l0 0c0,0 0,-1 0,-1 0,0 0,1 0,1 0,0 0,0 0,0 0,0 0,0 0,0zm0 5l0 0c0,0 0,1 0,1 0,0 0,0 0,0 0,0 0,0 0,0 0,0 0,-1 0,-1zm-21 39l0 0c0,0 0,1 0,1 1,0 1,-1 1,-1 0,0 0,0 -1,0l0 -4c1,0 1,0 1,0 0,0 0,-1 -1,-1 0,0 0,1 0,1 0,0 0,0 0,0l0 4c0,0 0,0 0,0zm0 -4l0 0c0,0 0,0 0,0 0,0 1,0 1,0 0,0 -1,0 -1,0l0 0c0,0 0,0 0,0zm0 4l0 0 0 0c0,0 1,0 1,0 0,0 -1,0 -1,0 0,0 0,0 0,0 0,0 0,0 0,0zm23 -55l0 0 6 0c0,0 0,0 0,0 0,0 0,0 0,0 0,0 0,0 0,0 0,0 0,0 0,0l-6 0 -1 2 0 6c0,0 -1,0 -1,0 0,1 1,1 1,1 0,0 0,0 0,-1 0,0 0,0 0,0l0 -6 1 -2zm6 0l0 0c0,0 0,0 0,0 0,0 0,0 0,0 0,0 0,0 0,0 0,0 0,0 0,0zm-7 8l0 0c0,1 0,1 0,1 0,0 0,0 0,-1 0,0 0,0 0,0 0,0 0,0 0,0zm8 -4l0 0c0,0 0,0 -1,0 0,0 0,0 0,0 0,0 0,0 0,0l0 7 -2 3 0 6c0,0 0,1 0,1 0,0 0,0 0,0 0,0 0,0 0,0 0,0 0,-1 0,-1l0 -6 2 -3 0 -7c1,0 1,0 1,0zm-3 17l0 0c0,0 0,0 0,0 0,0 0,0 0,0 0,0 0,0 0,0 0,0 0,0 0,0zm2 -17l0 0 0 0c0,0 0,0 0,0 0,0 0,0 0,0 0,0 1,0 1,0 0,0 -1,0 -1,0zm-20 31l0 0 0 1c0,0 0,0 0,0 0,1 0,1 1,1 0,0 0,0 0,-1 0,0 0,0 0,0l0 -1 -1 -1 0 -6c0,0 0,0 0,-1 0,0 0,0 0,0 -1,0 -1,0 -1,0 0,1 0,1 0,1l0 6 1 1zm1 1l0 0c0,1 0,1 0,1 -1,0 -1,0 -1,-1 0,0 0,0 1,0 0,0 0,0 0,0zm-2 -9l0 0c0,0 0,0 1,0 0,0 0,0 0,0 0,1 0,1 0,1 -1,0 -1,0 -1,-1zm16 -6l0 0c0,0 0,-1 0,-1l0 -6 2 -3 0 -7c1,0 1,0 1,0 0,0 -1,0 -1,0 0,0 0,0 0,0 0,0 0,0 0,0l0 7 -2 3 0 6c0,0 -1,1 -1,1 0,0 1,0 1,0 0,0 0,0 0,0zm2 -17l0 0c0,0 0,0 0,0 0,0 1,0 1,0 0,0 -1,0 -1,0l0 0c0,0 0,0 0,0zm-2 17l0 0c0,0 0,0 0,0 0,0 0,0 0,0 0,0 0,0 0,0 0,0 0,0 0,0zm-1 0l0 0c0,0 1,0 1,0 0,0 -1,0 -1,0l0 -7 3 -3 0 -6c0,0 0,0 0,0 0,-1 0,-1 0,-1 0,0 0,0 0,1 0,0 0,0 0,0l0 6 -3 3 0 7c0,0 0,0 0,0 0,0 0,0 0,0zm3 -16l0 0c0,-1 0,-1 0,-1 0,0 0,0 0,1 0,0 0,0 0,0 0,0 0,0 0,0zm-3 16l0 0 0 0c0,0 0,0 0,0 0,0 0,0 0,0 0,0 0,0 0,0 0,0 0,0 0,0zm-8 17l0 0 0 -14 -3 -3 0 -5 -4 -5 0 -5 -1 -2 0 -5c0,0 0,0 0,0 0,0 0,0 -1,0 0,0 0,0 0,0 0,0 0,0 0,0l0 5 2 2 0 5 3 5 0 6 4 2 0 14 -1 2 0 7c-1,0 -1,0 -1,1 0,0 0,0 1,0 0,0 0,0 0,0 0,-1 0,-1 0,-1l0 -7 1 -2zm-9 -39l0 0c0,0 0,0 0,0 1,0 1,0 1,0 0,0 0,0 -1,0 0,0 0,0 0,0zm8 49l0 0c0,0 0,0 0,0 0,0 -1,0 -1,0 0,-1 1,-1 1,-1l0 0c0,0 0,0 0,1zm3 -3l0 0c-1,0 -1,1 -1,1 0,0 0,0 1,0l0 3 -2 2 0 7c0,1 0,1 0,1 0,0 0,0 0,0 0,0 0,0 0,0 0,0 0,0 0,-1l0 -7 2 -2 0 -3c0,0 0,0 0,0 0,0 0,-1 0,-1zm-2 14l0 0c0,0 0,0 0,0 0,0 0,0 0,0 0,0 0,0 0,0 0,0 0,0 0,0zm2 -13l0 0 0 0c0,0 -1,0 -1,0 0,0 1,0 1,0 0,0 0,0 0,0 0,0 0,0 0,0zm7 -25l0 0c0,0 1,0 1,0 0,0 0,0 -1,0l0 -7 3 -3 0 -6c0,0 0,0 0,0 0,-1 0,-1 0,-1 0,0 0,0 0,1 0,0 0,0 0,0l0 6 -3 3 0 7c0,0 0,0 0,0 0,0 0,0 0,0zm3 -16l0 0c0,-1 0,-1 0,-1 0,0 0,0 0,1 0,0 0,0 0,0 0,0 0,0 0,0zm-3 16l0 0 0 0c0,0 0,0 0,0 0,0 0,0 0,0 0,0 0,0 0,0 0,0 0,0 0,0zm1 -16l0 0c0,-1 0,-1 0,-1 0,0 -1,0 -1,1 0,0 1,0 1,0l0 4c0,0 -1,0 -1,1 0,0 1,0 1,0 0,0 0,0 0,0 0,-1 0,-1 0,-1l0 -4c0,0 0,0 0,0zm0 5l0 0c0,0 0,0 0,0 0,0 0,0 0,0 0,-1 0,-1 0,-1 0,0 0,0 0,1zm0 -5l0 0 0 0c0,0 0,0 0,0 0,-1 0,-1 0,-1 0,0 0,0 0,1 0,0 0,0 0,0zm-18 22l0 0 0 6c0,0 0,0 0,0 0,0 0,0 0,0 1,0 1,0 1,0 0,0 0,0 0,0l0 -6 2 -1 0 -2c0,0 0,0 0,0 0,0 0,0 0,0 -1,0 -1,0 -1,0 0,0 0,0 0,0l0 2 -2 1zm1 6l0 0c0,0 0,0 -1,0 0,0 0,0 0,0 0,0 0,0 0,0 1,0 1,0 1,0zm1 -9l0 0c0,0 0,0 1,0 0,0 0,0 0,0 0,0 0,0 0,0l0 0c-1,0 -1,0 -1,0zm-1 12l0 0c0,-1 0,-1 0,-1 0,0 0,0 0,1 0,0 0,0 0,0l0 8c0,0 0,0 0,0 0,0 0,0 0,0 0,0 0,0 0,0 0,0 0,0 0,0l0 -8c0,0 0,0 0,0zm0 8l0 0c0,0 0,0 0,0 0,0 0,0 0,0 0,0 0,0 0,0l0 0c0,0 0,0 0,0zm0 -8l0 0 0 0c0,0 0,0 0,0 0,-1 0,-1 0,-1 0,0 0,0 0,1 0,0 0,0 0,0zm15 -26l0 0c0,0 1,0 1,0 0,0 0,0 0,0 0,-1 0,-1 0,-1l0 -4c0,0 0,0 0,0 0,-1 0,-1 0,-1 0,0 -1,0 -1,1 0,0 1,0 1,0l0 4c0,0 -1,0 -1,1zm1 -5l0 0c0,-1 0,-1 0,-1 0,0 0,0 0,1 0,0 0,0 0,0l0 0c0,0 0,0 0,0zm0 4l0 0c0,0 0,0 0,1 0,0 0,0 0,0 0,0 0,0 0,0 0,-1 0,-1 0,-1zm-20 2l0 0 3 5 0 6 4 2 0 14 -2 2 0 7c0,0 0,0 0,1 0,0 0,0 1,0 0,0 0,0 0,0 0,-1 0,-1 0,-1l0 -7 1 -2 0 -14 -3 -3 0 -5 -4 -5 0 -5 -2 -2 0 -12 0 0 0 12 2 2 0 5zm6 37l0 0c0,0 0,0 0,0 -1,0 -1,0 -1,0 0,-1 0,-1 1,-1l0 0c0,0 0,0 0,1zm13 -28l0 0c0,0 -1,1 -1,1 0,0 1,0 1,0 0,0 0,0 0,0 0,0 0,-1 0,-1l0 -6 2 -3 0 -7c1,0 1,0 1,0 0,0 -1,0 -1,0 0,0 0,0 0,0 0,0 0,0 0,0l0 7 -2 3 0 6zm2 -16l0 0c0,0 0,0 0,0 0,0 0,0 0,0 0,0 0,0 0,0l0 0c0,0 0,0 0,0zm-2 17l0 0c0,0 0,0 0,0 0,0 0,0 0,0 0,0 0,0 0,0 0,0 0,0 0,0zm1 -17l0 0c0,0 0,0 0,0 0,0 0,0 0,0l0 5c0,0 0,0 0,0 0,0 0,0 0,0 0,0 1,0 1,0 0,0 0,0 -1,0l0 -5c1,0 1,0 1,0 0,0 -1,0 -1,0zm0 5l0 0c0,0 0,0 0,0 0,0 0,0 0,0 0,0 0,0 0,0 0,0 0,0 0,0zm0 -5l0 0 0 0c0,0 0,0 0,0 0,0 0,0 0,0 0,0 0,0 0,0 0,0 0,0 0,0zm1 17l0 0c0,0 0,-1 0,-1l0 -6 2 -3 0 -7c1,0 1,0 1,0 0,0 0,0 -1,0 0,0 0,0 0,0 0,0 0,0 0,0l0 7 -2 3 0 6c0,0 -1,1 -1,1 0,0 1,0 1,0 0,0 0,0 0,0zm2 -17l0 0c0,0 0,0 0,0 0,0 1,0 1,0 0,0 -1,0 -1,0l0 0c0,0 0,0 0,0zm-2 17l0 0c0,0 0,0 0,0 0,0 0,0 0,0 0,0 0,0 0,0 0,0 0,0 0,0zm16 -7l0 0c0,0 0,1 0,1 0,0 0,0 0,0l0 14 3 3 2 0c0,0 0,0 0,0 0,0 0,0 0,0 0,0 0,0 0,0 0,0 0,0 0,0l-2 0 -3 -3 0 -14c0,0 0,0 0,0 0,0 0,-1 0,-1zm5 18l0 0c0,0 0,0 0,0 0,0 0,0 0,0 0,0 0,0 0,0 0,0 0,0 0,0zm-5 -17l0 0 0 0c0,0 0,0 0,0 0,0 0,0 0,0 0,0 0,0 0,0 0,0 0,0 0,0zm5 15l0 0c0,1 1,1 1,1 0,0 0,0 0,-1 0,0 0,0 0,0l0 -3c0,0 0,0 0,0 0,0 0,0 0,0 0,0 -1,0 -1,0 0,0 0,0 1,0l0 3c-1,0 -1,0 -1,0zm1 -3l0 0c0,0 0,0 0,0 0,0 0,0 0,0 0,0 0,0 0,0l0 0c0,0 0,0 0,0zm0 3l0 0c0,0 0,0 0,0 0,0 0,1 0,1 0,0 0,-1 0,-1 0,0 0,0 0,0zm-6 -15l0 0c0,0 0,1 1,1l0 13 2 3 2 0c0,0 0,0 0,0 1,0 1,0 1,0 0,0 0,-1 -1,-1 0,0 0,0 0,1l-2 0 -2 -3 0 -13c0,0 0,-1 0,-1 0,0 0,0 0,0 -1,0 -1,0 -1,0zm5 16l0 0c0,0 1,1 1,1 0,0 -1,0 -1,0 0,0 0,0 0,0 0,0 0,-1 0,-1zm-4 -16l0 0c0,0 0,0 0,0l0 0c-1,0 -1,0 -1,0 0,0 0,0 1,0 0,0 0,0 0,0zm3 0l0 0c0,0 0,0 0,0l0 2c0,0 0,0 0,1 0,0 0,0 0,0 0,0 0,0 0,0 0,-1 0,-1 0,-1l0 -2c0,0 0,0 0,0 0,0 0,-1 0,-1 0,0 0,1 0,1zm0 3l0 0c0,0 0,0 0,0 0,0 0,0 0,0 0,0 0,-1 0,-1l0 0c0,0 0,1 0,1zm0 -3l0 0c0,0 0,0 0,0l0 0c0,0 0,0 0,0 0,0 0,0 0,0 0,0 0,0 0,0zm-48 25l0 0 1 -2 0 -8c1,0 1,0 1,0 0,0 0,0 -1,0 0,0 0,0 0,0 0,0 0,0 0,0l0 8 -1 2 0 5 -5 6 0 7 -1 2 0 2c0,0 0,0 0,0 0,0 0,0 0,0 0,0 1,0 1,0 0,0 -1,0 -1,0l0 -2 1 -2 0 -7 5 -6 0 -5zm1 -10l0 0c0,0 0,0 0,0 0,0 1,0 1,0 0,0 -1,0 -1,0 0,0 0,0 0,0zm-7 32l0 0c0,0 0,0 0,0 0,0 0,0 0,0 0,0 0,0 0,0 0,0 0,0 0,0zm55 -48l0 0c0,0 0,0 0,0 0,0 -1,0 -1,0 0,0 0,0 1,1l0 2c-1,0 -1,0 -1,0 0,0 1,0 1,0 0,0 0,0 0,0 0,0 0,0 0,0l0 -2c0,-1 0,-1 0,-1zm0 3l0 0c0,0 0,0 0,0 0,0 -1,0 -1,0 0,0 1,0 1,0 0,0 0,0 0,0zm0 -3l0 0c0,0 -1,0 -1,0 0,0 1,0 1,0 0,0 0,0 0,0 0,0 0,0 0,0zm-2 0l0 0c-1,0 -1,0 -1,0 0,0 0,0 1,1l0 2c-1,0 -1,0 -1,0 0,0 0,0 1,0 0,0 0,0 0,0 0,0 0,0 0,0l0 -2c0,-1 0,-1 0,-1 0,0 0,0 0,0zm0 3l0 0c0,0 0,0 0,0 0,0 -1,0 -1,0 0,0 1,0 1,0 0,0 0,0 0,0zm0 -3l0 0c0,0 -1,0 -1,0 0,0 1,0 1,0 0,0 0,0 0,0 0,0 0,0 0,0zm-1 0l0 0c-1,0 -1,0 -1,0 0,0 0,0 1,1l0 2c-1,0 -1,0 -1,0 0,0 0,0 1,0 0,0 0,0 0,0 0,0 0,0 0,0l0 -2c0,-1 0,-1 0,-1 0,0 0,0 0,0zm0 3l0 0c0,0 0,0 0,0 0,0 -1,0 -1,0 0,0 1,0 1,0 0,0 0,0 0,0zm0 -3l0 0c0,0 -1,0 -1,0 0,0 1,0 1,0 0,0 0,0 0,0 0,0 0,0 0,0zm2 0l0 0c-1,0 -1,0 -1,0 0,0 0,0 1,1l0 2c-1,0 -1,0 -1,0 0,0 0,0 1,0 0,0 0,0 0,0 0,0 0,0 0,0l0 -2c0,-1 0,-1 0,-1 0,0 0,0 0,0zm0 3l0 0c0,0 0,0 0,0 0,0 -1,0 -1,0 0,0 1,0 1,0l0 0c0,0 0,0 0,0zm0 -3l0 0 0 0c0,0 -1,0 -1,0 0,0 1,0 1,0 0,0 0,0 0,0 0,0 0,0 0,0zm-2 1l0 0c0,0 0,0 0,0l0 2c0,0 0,0 0,1 0,0 0,0 0,0 0,0 0,0 0,0 0,-1 0,-1 0,-1l0 -2c0,0 0,0 0,0 0,0 0,-1 0,-1 0,0 0,1 0,1zm0 3l0 0c0,0 0,0 0,0 0,0 0,0 0,0 0,0 0,-1 0,-1l0 0c0,0 0,1 0,1zm0 -3l0 0c0,0 0,0 0,0l0 0c0,0 0,0 0,0 0,0 0,0 0,0 0,0 0,0 0,0zm3 3l0 0c0,0 0,0 0,0 0,0 0,1 0,1l0 4 3 3 4 0c0,0 0,0 0,0 0,0 0,0 0,0 0,-1 0,-1 0,-1 0,0 0,0 0,1l-4 0 -3 -3 0 -4c0,0 0,-1 0,-1 0,0 0,0 0,0zm7 7l0 0c0,0 0,0 0,1 0,0 0,0 0,0 0,0 0,0 0,0 0,-1 0,-1 0,-1zm-7 -7l0 0c0,0 0,0 0,0 0,0 0,0 0,0 0,0 0,0 0,0 0,0 0,0 0,0zm-2 -3l0 0c0,0 0,0 0,0l0 2c0,0 0,0 0,1 0,0 0,0 0,0 0,0 0,0 0,0 0,-1 0,-1 0,-1l0 -2c0,0 0,0 0,0 0,0 0,-1 0,-1 0,0 0,1 0,1zm0 3l0 0c0,0 0,0 0,0 0,0 0,0 0,0 0,0 0,-1 0,-1 0,0 0,1 0,1zm0 -3l0 0c0,0 0,0 0,0l0 0c0,0 0,0 0,0 0,0 0,0 0,0 0,0 0,0 0,0zm-2 0l0 0c0,0 0,0 0,0l0 14 2 2 2 0c0,0 0,0 0,0 0,0 0,0 0,0 0,0 0,0 0,0 0,0 0,0 0,0l-2 0 -2 -2 0 -14c0,0 0,0 0,0 0,0 0,-1 0,-1 0,0 0,1 0,1zm4 16l0 0c0,0 0,0 0,0 0,0 0,0 0,0 0,0 0,0 0,0 0,0 0,0 0,0zm-4 -16l0 0c0,0 0,0 0,0 0,0 0,0 0,0 0,0 0,0 0,0 0,0 0,0 0,0zm-2 0l0 0c0,0 0,1 1,1l0 13 3 4 2 0c0,0 0,0 0,0 1,0 1,0 1,0 0,0 0,-1 -1,-1 0,0 0,0 0,1l-2 0 -3 -4 0 -13c0,0 0,-1 0,-1 0,0 0,0 0,0 -1,0 -1,0 -1,0zm6 18l0 0c0,0 1,0 1,0 0,0 -1,0 -1,0 0,0 0,0 0,0 0,0 0,0 0,0zm-5 -18l0 0c0,0 0,0 0,0 -1,0 -1,0 -1,0 0,0 0,0 1,0 0,0 0,0 0,0zm-5 0l0 0c0,0 0,1 0,1l0 3 2 2 0 1c0,0 0,0 0,0 0,0 0,1 0,1 0,0 0,-1 0,-1 0,0 0,0 0,0l0 -2 -2 -2 0 -2c0,0 0,-1 0,-1 0,0 0,0 0,0 0,0 0,0 0,0zm2 7l0 0c0,0 0,0 0,0 0,0 0,0 0,0 0,0 0,0 0,0 0,0 0,0 0,0zm-2 -7l0 0c0,0 0,0 0,0 0,0 0,0 0,0 0,0 0,0 0,0 0,0 0,0 0,0zm-4 -8l0 0c0,-1 0,-1 -1,-1 0,0 0,0 0,1 0,0 0,0 0,0l0 5 2 2 0 10c0,0 0,1 0,1 0,0 0,0 0,0 1,0 1,0 1,0 0,0 0,-1 0,-1l0 -10 -3 -2 0 -5c1,0 1,0 1,0zm2 18l0 0c0,0 0,0 -1,0 0,0 0,0 0,0 0,0 0,0 0,0 1,0 1,0 1,0zm-3 -18l0 0c0,0 0,0 0,0 0,0 0,-1 0,-1 1,0 1,1 1,1 0,0 0,0 -1,0zm9 28l0 0c0,0 0,0 0,0l6 0c0,0 0,0 0,0 1,0 1,0 1,0 0,0 0,-1 -1,-1 0,0 0,1 0,1l-6 0c0,0 0,-1 0,-1 0,0 0,1 0,1 0,0 0,0 0,0zm6 0l0 0c0,0 1,0 1,0 0,0 -1,0 -1,0 0,0 0,0 0,0 0,0 0,0 0,0zm-6 0l0 0c0,0 0,0 0,0l0 0c0,0 0,0 0,0 0,0 0,0 0,0 0,0 0,0 0,0zm-10 -28l0 0c0,0 0,0 0,0l0 5 2 2 0 10c0,0 0,1 0,1 0,0 0,0 0,0 1,0 1,0 1,0 0,0 0,-1 0,-1l0 -10 -3 -2 0 -5c1,0 1,0 1,0 0,-1 0,-1 -1,-1 0,0 0,0 0,1zm3 18l0 0c0,0 0,0 -1,0 0,0 0,0 0,0 0,0 0,0 0,0 1,0 1,0 1,0zm-2 -18l0 0c0,0 0,0 -1,0 0,0 0,0 0,0 0,0 0,-1 0,-1 1,0 1,1 1,1zm-48 30l0 0 0 -2 8 -10 0 -9 2 -5 0 -10 1 -5 0 -4 0 0 0 4 -1 5 0 10 -2 5 0 9 -9 10 0 2c0,0 0,0 0,0 0,1 0,1 1,1 0,0 0,0 0,-1 0,0 0,0 0,0zm0 1l0 0c-1,0 -1,0 -1,-1 0,0 0,0 1,0 0,0 0,0 0,0 0,1 0,1 0,1zm48 -32l0 0c0,0 0,0 0,0 0,0 0,0 0,0l0 6 2 2 0 11c0,0 0,0 0,0 0,0 0,1 0,1 0,0 0,-1 0,-1 0,0 0,0 0,0l0 -11 -2 -2 0 -6c0,0 0,0 0,0 0,0 0,0 0,0zm2 19l0 0c0,0 0,0 0,0 0,0 0,0 0,0 0,0 0,0 0,0 0,0 0,0 0,0zm-2 -19l0 0c0,0 0,0 0,0 0,0 0,0 0,0 0,0 0,0 0,0 0,0 0,0 0,0zm7 9l0 0c0,0 0,-1 0,-1 0,0 0,1 0,1 0,0 0,0 0,0l0 4 2 2 0 8 4 4 2 0c0,0 0,1 0,1 0,0 0,-1 0,-1 0,0 0,0 0,0 0,0 0,0 0,0l-2 0 -4 -4 0 -9 -2 -2 0 -3c0,0 0,0 0,0zm8 18l0 0c0,0 0,0 0,0 0,0 0,0 0,0 0,0 0,0 0,0 0,0 0,0 0,0zm-8 -18l0 0 0 0c0,0 0,0 0,0 0,0 0,0 0,0 0,0 0,0 0,0 0,0 0,0 0,0zm-1 -1l0 0c-1,0 -1,1 -1,1 0,0 0,0 0,0l0 4 2 2 0 1c0,0 0,1 0,1 0,0 0,0 1,0 0,0 0,0 0,0 0,0 0,-1 0,-1l0 -2 -2 -2 0 -3c0,0 0,0 0,0 0,0 0,-1 0,-1zm2 9l0 0c0,0 0,0 0,0 -1,0 -1,0 -1,0 0,0 0,0 1,0 0,0 0,0 0,0zm-2 -8l0 0c-1,0 -1,0 -1,0 0,0 0,0 1,0 0,0 0,0 0,0 0,0 0,0 0,0zm9 19l0 0c0,0 0,0 0,0l-5 0c0,0 0,0 -1,0 0,0 0,0 0,0 0,0 0,1 0,1 1,0 1,-1 1,-1l5 0c0,0 0,1 0,1 0,0 0,-1 0,-1 0,0 0,0 0,0zm-5 0l0 0c0,0 -1,0 -1,0 0,0 0,0 0,0 0,0 0,0 0,0 0,0 1,0 1,0l0 0zm5 0l0 0c0,0 0,0 0,0 0,0 0,0 0,0 0,0 0,0 0,0 0,0 0,0 0,0zm-13 -26l0 0c0,0 0,0 -1,0 0,0 0,0 0,0 0,0 0,0 0,0l0 4 2 2 1 0c0,1 1,1 1,1 0,0 0,0 0,-1 0,0 0,0 0,0 0,0 -1,0 -1,0l0 0 -2 -2 0 -4c0,0 0,0 0,0zm2 6l0 0c0,0 1,0 1,0 0,0 0,0 0,0 0,1 0,1 0,1 0,0 -1,0 -1,-1l0 0zm-3 -6l0 0c0,0 0,0 0,0 0,0 0,0 0,0 1,0 1,0 1,0 0,0 0,0 -1,0zm5 7l0 0c0,0 0,0 0,0 0,0 0,0 0,0 0,0 0,1 0,1l0 3 2 2 0 1c0,0 0,0 0,0 0,0 0,1 0,1 0,0 0,-1 0,-1 0,0 0,0 0,0l0 -2 -2 -2 0 -2c0,0 0,-1 0,-1zm2 7l0 0c0,0 0,0 0,0 0,0 0,0 0,0 0,0 0,0 0,0 0,0 0,0 0,0zm-2 -7l0 0 0 0c0,0 0,0 0,0 0,0 0,0 0,0 0,0 0,0 0,0 0,0 0,0 0,0zm26 3l0 0 -2 0 -1 1 0 11c0,0 0,0 0,0 0,0 0,0 0,0 1,0 1,0 1,0 0,0 0,0 0,0l0 -11 0 -1 3 0 6 -3 10 0 0 0 -10 0 -7 3zm-2 12l0 0c0,0 0,0 -1,0 0,0 0,0 0,0 0,0 0,0 0,0l0 0c1,0 1,0 1,0zm10 -12l0 0 -2 0c0,0 0,0 -1,0 0,0 0,0 0,0 0,0 0,0 0,0 1,0 1,0 1,0l2 0 3 3 6 0 0 0 -6 0 -3 -3zm-2 0l0 0c0,0 -1,0 -1,0 0,0 0,0 0,0 0,0 0,0 0,0 0,0 1,0 1,0l0 0zm7 0l0 0 -4 0c0,0 0,0 0,0 0,0 0,0 0,0 0,1 0,1 0,1 0,0 0,0 0,0l4 0 2 1 2 0 0 -1 -2 0 -2 -1zm-4 1l0 0c0,0 0,0 0,-1 0,0 0,0 0,0 0,0 0,0 0,0 0,1 0,1 0,1zm-3 -2l0 0c0,0 0,0 0,0 0,1 0,1 0,1 0,0 0,0 0,0l11 0 0 -1 -11 0c0,0 0,0 0,0zm0 0l0 0c0,1 0,1 0,1 0,0 0,0 0,-1 0,0 0,0 0,0 0,0 0,0 0,0l0 0zm-56 -22l0 0c1,0 1,0 1,0l2 0 1 -1 13 0c0,0 0,0 1,0 0,0 0,0 0,0 0,-1 0,-1 0,-1 -1,0 -1,0 -1,1l-13 0 -1 1 -2 0c0,0 0,0 -1,0 0,0 0,0 0,0 0,0 0,0 0,0zm18 -2l0 0c0,0 0,0 0,1 0,0 0,0 0,0 -1,0 -1,0 -1,0 0,-1 0,-1 1,-1zm-18 2l0 0c1,0 1,0 1,0 0,0 0,0 -1,0 0,0 0,0 0,0 0,0 0,0 0,0zm58 23l0 0 -2 0c0,0 0,0 0,0 0,0 0,0 0,0 0,1 0,1 0,1 0,0 0,0 0,0l2 0 3 3 6 0 0 -1 -6 0 -3 -3zm-2 0l0 0c0,1 0,1 0,1 0,0 0,0 0,-1 0,0 0,0 0,0 0,0 0,0 0,0l0 0zm-56 -25l0 0c1,0 1,0 1,0l2 0 1 -1 0 0 -1 1 -2 0c0,0 0,0 -1,0 0,0 0,0 0,0 0,0 0,0 0,0zm0 0l0 0c1,0 1,0 1,0 0,0 0,0 -1,0 0,0 0,0 0,0 0,0 0,0 0,0zm50 25l0 0 -2 0 0 1 0 11c0,0 0,0 0,0 0,1 0,1 0,1 0,0 0,0 0,-1 0,0 0,0 0,0l0 -11 0 0 3 0 6 -3 10 0 0 -1 -10 0 -7 3zm-2 12l0 0c0,0 0,1 0,1 0,0 0,-1 0,-1 0,0 0,0 0,0 0,0 0,0 0,0zm-54 -26l0 0 2 2 0 5 4 5 0 6 8 4 0 10 -2 2 0 6c0,0 0,0 0,0 0,0 0,0 0,0 0,0 1,0 1,0 0,0 -1,0 -1,0l0 -6 2 -2 0 -10 -8 -5 0 -5 -4 -5 0 -5 -1 -2 0 -5 -3 -3 0 -4 0 0 0 4 2 3 0 5zm12 40l0 0c0,0 0,0 0,0 0,0 0,0 0,0 0,0 0,0 0,0l0 0c0,0 0,0 0,0zm57 -27l0 0 -7 0c0,0 0,0 -1,0 0,0 0,0 0,0 0,0 0,0 0,0 1,0 1,0 1,0l7 0 2 -1 2 0 0 0 -2 0 -2 1zm-7 0l0 0c0,0 -1,0 -1,0 0,0 0,0 0,0 0,0 0,0 0,0 0,0 1,0 1,0l0 0zm-56 -23l0 0c1,0 1,0 1,0l2 0 1 -1 13 0c0,0 0,0 1,0 0,0 0,0 0,0 0,-1 0,-1 0,-1 -1,0 -1,0 -1,0l-13 0 -1 2 -2 0c0,0 0,0 -1,0 0,0 0,0 0,0 0,0 0,0 0,0zm18 -2l0 0c0,0 0,0 0,1 0,0 0,0 0,0 -1,0 -1,0 -1,0 0,-1 0,-1 1,-1zm-18 2l0 0c1,0 1,0 1,0 0,0 0,0 -1,0 0,0 0,0 0,0 0,0 0,0 0,0zm58 25l0 0 -2 0c0,0 0,0 -1,0 0,0 0,0 0,0 0,0 0,0 0,0 1,0 1,0 1,0l2 0 3 3 6 0 0 0 -6 0 -3 -3zm-2 0l0 0c0,0 -1,0 -1,0 0,0 0,0 0,0 0,0 0,0 0,0 0,0 1,0 1,0l0 0zm-5 5l0 0 0 2c0,0 0,0 0,0 0,0 0,0 0,0 0,0 0,0 0,0l0 -1 1 -2 0 -2c0,-1 0,-1 0,-1 0,0 0,0 0,1 0,0 0,0 0,0l0 2 -1 1zm0 2l0 0c0,0 0,0 0,0 0,0 0,0 0,0 0,0 0,0 0,0 0,0 0,0 0,0zm1 -6l0 0c0,0 0,0 0,1 0,0 0,0 0,0 0,0 0,0 0,0 0,-1 0,-1 0,-1zm-50 -19l0 0c1,0 1,0 1,0l2 0 5 -5 7 0c0,0 0,0 1,0 0,0 0,0 0,0 0,-1 0,-1 0,-1 -1,0 -1,0 -1,1l-7 0 -5 5 -2 0c0,-1 0,-1 -1,-1 0,0 0,1 0,1 0,0 0,0 0,0zm16 -6l0 0c0,0 0,1 0,1 0,0 0,0 0,0 -1,0 -1,0 -1,0 0,0 0,-1 1,-1zm-16 6l0 0c1,0 1,0 1,0 0,0 0,0 -1,0 0,0 0,0 0,0 0,0 0,0 0,0zm16 -5l0 0c0,0 0,0 0,0l-8 0 -5 5 -3 0c0,0 0,0 0,0 0,0 0,0 0,0 0,0 0,1 0,1 0,0 0,-1 0,-1l3 0 5 -5 8 0c0,0 0,0 0,0 0,0 0,0 0,0 0,0 0,0 0,0zm-16 5l0 0c0,0 0,0 0,0 0,0 0,0 0,0 0,0 0,0 0,0 0,0 0,0 0,0l0 0zm16 -5l0 0c0,0 0,0 0,0 0,0 0,0 0,0 0,0 0,0 0,0 0,0 0,0 0,0zm37 25l0 0c0,0 0,0 0,0 0,0 0,0 0,0 0,0 0,0 0,0 0,0 0,0 0,0l0 6 -2 2 0 1c0,0 0,0 0,0 0,1 0,1 0,1 0,0 0,0 0,-1 0,0 0,0 0,0l0 -1 2 -2 0 -6zm-2 9l0 0c0,0 0,1 0,1 0,0 0,-1 0,-1 0,0 0,0 0,0 0,0 0,0 0,0zm2 -9l0 0c0,0 0,0 0,0 0,0 0,0 0,0 0,0 0,0 0,0 0,0 0,0 0,0zm-4 8l0 0 0 1c0,0 0,0 0,0 0,0 0,0 1,0 0,0 0,0 0,0 0,0 0,0 0,0l0 -1 2 -2 0 -6c0,0 0,-1 0,-1 0,0 0,0 0,0 -1,0 -1,0 -1,0 0,0 0,1 0,1l0 6 -2 2zm1 1l0 0c0,0 0,0 0,0 -1,0 -1,0 -1,0 0,0 0,0 1,0 0,0 0,0 0,0zm1 -10l0 0c0,0 0,0 1,0 0,0 0,0 0,0 0,0 0,1 0,1l0 0c-1,0 -1,-1 -1,-1zm-35 -25l0 0c0,0 0,0 0,0l-8 0 -5 5 -3 0c0,0 0,0 0,0 0,0 0,0 0,0 0,0 0,0 0,0 0,0 0,0 0,0l3 0 5 -5 8 0c0,0 0,0 0,0 0,0 0,0 0,0 0,0 0,0 0,0zm-16 5l0 0c0,0 0,0 0,0 0,0 0,0 0,0 0,0 0,0 0,0 0,0 0,0 0,0l0 0zm16 -5l0 0c0,0 0,0 0,0 0,0 0,0 0,0 0,0 0,0 0,0 0,0 0,0 0,0zm-16 5l0 0c1,0 1,0 1,0l2 0 5 -5 7 0c0,0 0,0 1,0 0,0 0,0 0,0 0,-1 0,-1 0,-1 -1,0 -1,0 -1,1l-7 0 -5 5 -2 0c0,-1 0,-1 -1,-1 0,0 0,1 0,1 0,0 0,0 0,0zm16 -6l0 0c0,0 0,1 0,1 0,0 0,0 0,0 -1,0 -1,0 -1,0 0,0 0,-1 1,-1zm-16 6l0 0c1,0 1,0 1,0 0,0 0,0 -1,0 0,0 0,0 0,0 0,0 0,0 0,0zm52 21l0 0c0,0 0,0 0,0l0 6 -2 2 0 1c0,0 0,0 0,0 0,1 0,1 0,1 0,0 0,0 0,-1 0,0 0,0 0,0l0 -1 2 -2 0 -6c0,0 0,0 0,0 0,0 0,0 0,0 0,0 0,0 0,0zm-2 9l0 0c0,0 0,1 0,1 0,0 0,-1 0,-1 0,0 0,0 0,0 0,0 0,0 0,0zm2 -9l0 0c0,0 0,0 0,0 0,0 0,0 0,0 0,0 0,0 0,0 0,0 0,0 0,0zm-52 -19l0 0c1,0 1,0 1,0l2 0 5 -5 7 0c0,0 0,0 1,0 0,0 0,0 0,0 0,-1 0,-1 0,-1 -1,0 -1,0 -1,1l-7 0 -5 5 -2 0c0,0 0,-1 -1,-1 0,0 0,1 0,1 0,0 0,0 0,0zm16 -6l0 0c0,0 0,1 0,1 0,0 0,0 0,0 -1,0 -1,0 -1,0 0,0 0,-1 1,-1zm-16 6l0 0c1,0 1,0 1,0 0,0 0,0 -1,0 0,0 0,0 0,0 0,0 0,0 0,0zm56 17l0 0 -2 0c0,0 0,0 0,0 0,0 0,0 0,0 0,1 0,1 0,1 0,0 0,0 0,0l2 0 3 3 6 0 0 -1 -6 0 -3 -3zm-2 0l0 0c0,1 0,1 0,1 0,0 0,0 0,-1 0,0 0,0 0,0 0,0 0,0 0,0l0 0zm-54 -16l0 0c1,0 1,0 1,0l2 0 5 -5 7 0c0,0 0,0 1,0 0,0 0,0 0,0 0,-1 0,-1 0,-1 -1,0 -1,0 -1,1l-7 0 -5 5 -2 0c0,0 0,-1 -1,-1 0,0 0,1 0,1 0,0 0,0 0,0zm16 -6l0 0c0,0 0,1 0,1 0,0 0,0 0,0 -1,0 -1,0 -1,0 0,0 0,-1 1,-1zm-16 6l0 0c1,0 1,0 1,0 0,0 0,0 -1,0 0,0 0,0 0,0 0,0 0,0 0,0zm56 17l0 0 -2 0c0,0 0,0 -1,0 0,0 0,0 0,0 0,0 0,0 0,0 1,0 1,0 1,0l2 0 3 3 6 0 0 0 -6 0 -3 -3zm-2 0l0 0c0,0 -1,0 -1,0 0,0 0,0 0,0 0,0 0,0 0,0 0,0 1,0 1,0l0 0zm-38 -23l0 0c0,0 0,0 0,0l-8 0 -5 5 -3 0c0,0 0,0 0,0 0,0 0,0 0,0 0,0 0,1 0,1 0,0 0,-1 0,-1l3 0 5 -5 8 0c0,0 0,0 0,0 0,0 0,0 0,0 0,0 0,0 0,0zm-16 5l0 0c0,0 0,0 0,0 0,0 0,0 0,0 0,0 0,0 0,0 0,0 0,0 0,0l0 0zm16 -5l0 0c0,0 0,0 0,0 0,0 0,0 0,0 0,0 0,0 0,0 0,0 0,0 0,0zm37 23l0 0c-1,0 -1,0 -1,0 0,0 0,1 0,1l0 6 -2 2 0 1c0,0 0,0 0,0 0,0 0,0 1,0 0,0 0,0 0,0 0,0 0,0 0,0l0 -1 2 -2 0 -6c0,0 0,-1 0,-1 0,0 0,0 0,0zm-2 10l0 0c0,0 0,0 0,0 -1,0 -1,0 -1,0 0,0 0,0 1,0 0,0 0,0 0,0zm2 -9l0 0c-1,0 -1,-1 -1,-1 0,0 0,0 1,0 0,0 0,0 0,0 0,0 0,1 0,1zm-5 -4l0 0 -2 0 -1 2 0 11c0,0 -1,0 -1,0 0,1 1,1 1,1 0,0 0,0 0,-1 0,0 0,0 0,0l0 -11 1 -1 2 0 6 -3 11 0 0 -1 -11 0 -6 3zm-3 13l0 0c0,1 0,1 0,1 0,0 0,0 0,-1 0,0 0,0 0,0 0,0 0,0 0,0zm-22 -1l0 0 -5 -3 -5 0 -8 -5 0 -1c0,0 0,-1 0,-1 0,0 0,0 0,0 0,0 -1,0 -1,0 0,0 1,1 1,1l0 2 8 4 5 0 5 3 0 7 -5 8 0 6c0,0 0,1 0,1 0,0 0,0 0,0 1,0 1,0 1,0 0,0 0,-1 0,-1l0 -6 4 -8 0 -7zm-18 -10l0 0c0,0 0,0 0,0 0,0 0,0 0,0 0,0 0,0 0,0 0,0 0,0 0,0l0 0zm14 32l0 0c0,0 0,0 -1,0 0,0 0,0 0,0 0,0 0,-1 0,-1l0 0c1,0 1,1 1,1zm29 -34l0 0 -5 0 -1 1 0 6c0,0 0,1 0,1 0,0 0,0 0,0 0,0 0,0 0,0 0,0 0,-1 0,-1l0 -6 1 -1 6 0 6 -3 10 0 0 0 -10 0 -7 3zm-6 8l0 0c0,0 0,0 0,0 0,0 0,0 0,0 0,0 0,0 0,0l0 0c0,0 0,0 0,0zm-28 27l0 0c0,0 0,0 0,0 1,0 1,0 1,0 0,0 0,-1 -1,-1l0 -5 -1 -1 -1 0c0,0 0,0 0,0 0,0 0,0 0,0 0,0 0,0 0,0 0,0 0,0 0,0l1 0 1 1 0 5c0,0 0,1 0,1zm-2 -7l0 0c0,0 0,0 0,0 0,0 0,0 0,0 0,0 0,0 0,0 0,0 0,0 0,0zm2 6l0 0c0,0 1,1 1,1 0,0 -1,0 -1,0 0,0 0,0 0,0 0,0 0,-1 0,-1zm-2 -29l0 0c0,0 0,0 0,0l1 0 1 -1 0 -5c1,0 1,-1 1,-1 0,0 0,0 -1,0 0,0 0,0 0,0 0,0 0,1 0,1l0 5 -1 1 -1 0c0,0 0,0 0,0 -1,0 -1,0 -1,0 0,0 0,0 1,0zm2 -7l0 0c0,0 0,0 0,0 0,0 1,0 1,0 0,0 -1,0 -1,0 0,0 0,0 0,0zm-2 7l0 0c0,0 0,0 0,0 0,0 0,0 0,0 0,0 -1,0 -1,0 0,0 1,0 1,0zm4 -23l0 0c0,0 0,0 0,0 0,0 0,0 0,0 0,0 0,0 0,0l-8 0 -5 5 -1 0c0,0 0,0 0,0 0,0 0,0 0,0 0,0 0,1 0,1 0,0 0,-1 0,-1l1 0 5 -5 8 0c0,0 0,0 0,0zm0 0l0 0c0,0 0,0 0,0 0,0 0,0 0,0 0,0 0,0 0,0 0,0 0,0 0,0zm-14 5l0 0c0,0 0,0 0,0 0,0 0,0 0,0 0,0 0,0 0,0 0,0 0,0 0,0l0 0zm18 40l0 0c0,0 0,0 -1,0 0,0 0,0 0,0 0,0 0,0 0,0l0 6c0,0 0,1 0,1 0,0 0,0 0,0 1,0 1,0 1,0 0,0 0,-1 0,-1l0 -6c0,0 0,0 0,0zm0 7l0 0c0,0 0,0 -1,0 0,0 0,0 0,0 0,0 0,-1 0,-1l0 0c1,0 1,1 1,1zm-1 -7l0 0c0,0 0,0 0,0 0,0 0,0 0,0 1,0 1,0 1,0 0,0 0,0 -1,0zm-20 -40l0 0 2 2 0 5 3 5 0 6 8 4 0 10 -1 2 0 5c0,0 0,0 0,1 0,0 0,0 0,0 0,0 0,0 0,0 0,-1 0,-1 0,-1l0 -5 1 -2 0 -10 -8 -5 0 -5 -3 -5 0 -5 -2 -2 0 -5 -2 -3 0 -4 -1 0 0 4 3 3 0 5zm12 40l0 0c0,0 0,0 0,0 0,0 0,0 0,0 0,-1 0,-1 0,-1 0,0 0,0 0,1zm-6 -17l0 0c0,0 -1,0 -1,0 0,0 0,0 0,0 0,0 0,0 0,0l0 3 1 1 0 2c0,0 0,0 0,0 0,1 0,1 0,1 0,0 1,0 1,-1 0,0 -1,0 -1,0l0 -2 -1 -1 0 -3c0,0 1,0 1,0zm0 6l0 0c0,0 0,1 0,1 0,0 0,-1 0,-1 0,0 0,0 0,0 0,0 0,0 0,0zm-1 -6l0 0 0 0c0,0 0,0 0,0 0,0 0,0 0,0 0,0 0,0 0,0 0,0 0,0 0,0zm7 -6l0 0c0,0 1,0 1,0 0,0 0,0 -1,0l0 -7 3 -3 0 -6c0,0 0,0 0,0 0,-1 0,-1 0,-1 0,0 0,0 0,1 0,0 0,0 0,0l0 6 -3 3 0 7c0,0 0,0 0,0 0,0 0,0 0,0zm3 -16l0 0c0,-1 0,-1 0,-1 0,0 0,0 0,1 0,0 0,0 0,0 0,0 0,0 0,0zm-3 16l0 0 0 0c0,0 1,0 1,0 0,0 -1,0 -1,0 0,0 0,0 0,0 0,0 0,0 0,0zm0 0l0 0c0,0 0,-1 0,-1l0 -6 2 -3 0 -7c1,0 1,0 1,0 0,0 0,0 -1,0 0,0 0,0 0,0 0,0 0,0 0,0l0 7 -2 3 0 6c0,0 0,1 0,1 0,0 0,0 0,0 0,0 0,0 0,0zm2 -17l0 0c0,0 0,0 0,0 0,0 1,0 1,0 0,0 -1,0 -1,0l0 0c0,0 0,0 0,0zm-2 17l0 0c0,0 0,0 0,0 0,0 0,0 0,0 0,0 0,0 0,0 0,0 0,0 0,0zm-1 0l0 0c0,0 1,0 1,0 0,0 0,0 -1,0l0 -7 3 -3 0 -6c0,0 0,0 0,0 0,-1 0,-1 0,-1 0,0 0,0 0,1 0,0 0,0 0,0l0 6 -3 3 0 7c0,0 0,0 0,0 0,0 0,0 0,0zm3 -16l0 0c0,-1 0,-1 0,-1 0,0 0,0 0,1 0,0 0,0 0,0 0,0 0,0 0,0zm-3 16l0 0 0 0c0,0 0,0 0,0 0,0 0,0 0,0 0,0 0,0 0,0 0,0 0,0 0,0zm20 23l0 0c0,0 0,0 0,0 0,0 0,0 0,0 0,-1 0,-1 0,-1l0 -1 -1 -2 0 -2c0,0 0,0 0,0 0,-1 0,-1 0,-1 -1,0 -1,0 -1,1 0,0 0,0 1,0l0 2 1 2 0 1c0,0 0,0 0,1zm-1 -6l0 0c0,0 -1,0 -1,0 0,-1 1,-1 1,-1 0,0 0,0 0,1 0,0 0,0 0,0l0 0zm1 5l0 0c0,0 0,0 0,1 0,0 0,0 0,0 0,0 0,0 0,0 0,-1 0,-1 0,-1zm-17 3l0 0c0,0 0,-1 -1,-1 0,0 0,1 0,1 0,0 0,0 0,0l0 7c0,0 0,1 0,1 0,0 0,0 0,0 1,0 1,0 1,0 0,0 0,-1 -1,-1l0 -7c1,0 1,0 1,0zm0 8l0 0c0,0 -1,0 -1,0 0,0 0,0 0,0 0,0 0,0 0,0 0,0 1,0 1,0zm-1 -8l0 0c0,0 0,0 0,0 0,0 0,0 0,0 0,0 1,0 1,0 0,0 -1,0 -1,0zm4 -14l0 0 -1 -1 0 -1c0,0 0,0 0,0 0,0 0,-1 -1,-1 0,0 0,1 0,1l0 1 1 1 0 4c0,0 0,0 0,0 0,0 0,0 0,0 1,0 1,0 1,0 0,0 0,0 0,0l0 -4zm-2 -2l0 0c0,0 0,0 0,0 0,0 0,0 0,0 0,0 1,0 1,0 0,0 -1,0 -1,0zm1 6l0 0c0,0 0,0 0,0 0,0 0,0 0,0 0,0 1,0 1,0 0,0 -1,0 -1,0zm-10 -30l0 0c0,0 0,0 0,0 0,0 -1,0 -1,0 0,0 1,0 1,0l0 5c0,0 -1,0 -1,0 0,0 1,0 1,0 0,0 0,0 0,0 0,0 0,0 0,0l0 -5c0,0 0,0 0,0zm0 5l0 0c0,0 0,0 0,0 0,0 0,0 0,0 0,0 0,0 0,0 0,0 0,0 0,0zm0 -5l0 0 0 0c0,0 0,0 0,0 0,0 0,0 0,0 0,0 0,0 0,0 0,0 0,0 0,0zm3 -7l0 0 7 0c0,0 0,0 1,0 0,0 0,0 0,0 0,0 0,-1 0,-1 -1,0 -1,0 -1,1l-7 0 -5 5 -2 0c0,0 0,-1 -1,-1 0,0 0,1 0,1 0,0 0,0 0,0 1,0 1,0 1,0l2 0 5 -5zm8 -1l0 0c0,0 0,1 0,1 0,0 0,0 0,0 -1,0 -1,0 -1,0 0,0 0,-1 1,-1zm-16 6l0 0c0,0 0,0 0,0 0,0 0,0 0,0 1,0 1,0 1,0 0,0 0,0 -1,0zm48 11l0 0 -5 0 -3 3 0 6c0,0 0,1 0,1 0,0 0,0 0,0 0,0 0,0 0,0 0,0 0,-1 0,-1l0 -6 3 -3 6 0 6 -3 10 0 0 0 -10 0 -7 3zm-8 10l0 0c0,0 0,0 0,0 0,0 0,0 0,0 0,0 0,0 0,0l0 0c0,0 0,0 0,0zm8 -10l0 0 -5 0 -3 3 0 6c0,0 0,0 0,0 0,0 0,1 0,1 1,0 1,-1 1,-1 0,0 0,0 -1,0l0 -6 3 -2 6 0 6 -4 10 0 0 0 -10 0 -7 3zm-7 9l0 0c0,0 -1,0 -1,0 0,0 0,0 0,0 0,0 0,0 0,0 0,0 1,0 1,0zm-25 -26l0 0c0,0 0,0 0,0l-8 0 -5 5 -3 0c0,0 0,0 0,0 0,0 0,0 0,0 0,0 0,1 0,1 0,0 0,-1 0,-1l3 0 5 -5 8 0c0,0 0,0 0,0 0,0 0,0 0,0 0,0 0,0 0,0zm-16 5l0 0c0,0 0,0 0,0 0,0 0,0 0,0 0,0 0,0 0,0 0,0 0,0 0,0l0 0zm16 -5l0 0c0,0 0,0 0,0 0,0 0,0 0,0 0,0 0,0 0,0 0,0 0,0 0,0zm32 18l0 0 -5 0 -2 2 0 6c0,0 0,0 0,0 0,0 0,1 0,1 1,0 1,-1 1,-1 0,0 0,0 -1,0l0 -6 2 -1 6 0 6 -4 10 0 0 0 -10 0 -7 3zm-6 8l0 0c0,0 -1,0 -1,0 0,0 0,0 0,0 0,0 0,0 0,0 0,0 1,0 1,0zm6 -8l0 0 -5 0 -2 2 0 6c0,0 0,1 0,1 0,0 0,0 0,0 0,0 0,0 0,0 0,0 0,-1 0,-1l0 -6 2 -2 6 0 6 -3 10 0 0 0 -10 0 -7 3zm-7 9l0 0c0,0 0,0 0,0 0,0 0,0 0,0 0,0 0,0 0,0l0 0c0,0 0,0 0,0zm-10 18l0 0c0,0 0,0 0,0 0,0 0,0 0,0 0,0 0,0 0,0l0 -1 -1 -2 0 -3c0,0 0,0 0,0 0,0 0,0 0,0 -1,0 -1,0 -1,0 0,0 0,0 1,0l0 3 1 2 0 1c0,0 0,0 0,0zm-2 -6l0 0c0,0 1,0 1,0 0,0 0,0 0,0 0,0 0,0 0,0 0,0 -1,0 -1,0zm2 6l0 0c0,0 0,0 0,0 0,0 0,0 0,0 0,0 0,0 0,0 0,0 0,0 0,0zm1 1l0 0c0,0 0,0 0,0 0,0 1,0 1,0 0,-1 -1,-1 -1,-1l0 -1 -1 -2 0 -2c0,0 0,0 0,0 0,-1 0,-1 0,-1 0,0 -1,0 -1,1 0,0 0,0 1,0l0 2 1 2 0 1c0,0 0,0 0,1zm-1 -6l0 0c0,0 -1,0 -1,0 0,-1 1,-1 1,-1 0,0 0,0 0,1 0,0 0,0 0,0l0 0zm1 5l0 0c0,0 0,0 0,1 0,0 0,0 0,0 0,0 0,0 0,0 0,-1 0,-1 0,-1zm1 3l0 0c0,0 0,0 0,0 0,0 1,0 1,0 0,-1 -1,-1 -1,-1l0 -3 -1 -2 0 -4c0,0 0,0 0,0 0,0 0,0 0,0 0,0 -1,0 -1,0 0,0 0,0 1,0l0 4 1 2 0 3c0,0 0,0 0,1zm-1 -10l0 0c0,0 0,0 0,0 0,0 0,0 0,0 0,0 0,0 0,0 0,0 0,0 0,0l0 0zm1 9l0 0c0,0 0,0 0,1 0,0 0,0 0,0 0,0 0,0 0,0 0,-1 0,-1 0,-1zm-29 -36l0 0 0 -3c0,0 1,0 1,0 0,-1 -1,-1 -1,-1 0,0 0,0 0,1 0,0 0,0 0,0l0 3 -1 2 0 1c-1,0 -1,0 -1,0 0,0 1,0 1,0 0,0 0,0 0,0 0,0 0,0 0,0l0 -1 1 -2zm0 -3l0 0c0,-1 0,-1 0,-1 0,0 0,0 0,1 0,0 0,0 0,0l0 0c0,0 0,0 0,0zm-1 6l0 0c0,0 0,0 0,0 0,0 -1,0 -1,0 0,0 1,0 1,0l0 0c0,0 0,0 0,0zm31 24l0 0c0,0 0,0 0,0 0,0 -1,0 -1,0 0,0 1,0 1,0l0 4 1 2 0 3c0,0 0,0 0,1 0,0 0,0 0,0 0,0 1,0 1,0 0,-1 -1,-1 -1,-1l0 -3 -1 -2 0 -4c0,0 0,0 0,0zm1 10l0 0c0,0 0,0 0,0 0,0 0,0 0,0 0,-1 0,-1 0,-1 0,0 0,0 0,1zm-1 -10l0 0 0 0c0,0 0,0 0,0 0,0 0,0 0,0 0,0 0,0 0,0 0,0 0,0 0,0zm-2 -2l0 0c0,0 0,-1 -1,-1 0,0 0,0 0,1l-6 0c0,-1 0,-1 0,-1 0,0 0,1 0,1 0,0 0,0 0,0 0,0 0,0 0,0l6 0c0,0 0,0 0,0 1,0 1,0 1,0zm-7 0l0 0c0,0 0,0 0,0 0,0 0,0 0,0 0,0 0,0 0,0 0,0 0,0 0,0zm6 0l0 0c0,0 0,0 0,0 0,0 1,0 1,0 0,0 -1,0 -1,0 0,0 0,0 0,0zm30 20l0 0c0,0 0,0 0,1 0,0 0,0 0,0 0,0 0,0 0,0l4 0 0 -1 -4 0c0,0 0,0 0,0zm0 1l0 0c0,0 0,0 0,0 0,0 0,0 0,0 0,-1 0,-1 0,-1 0,0 0,0 0,1l0 0zm-9 0l0 0 7 0c0,0 0,0 0,0 1,0 1,0 1,0 0,0 0,0 -1,0 0,0 0,0 0,0l-7 0c0,0 -1,0 -1,0 0,0 0,0 0,0 0,0 0,0 0,0 0,0 1,0 1,0zm7 0l0 0c0,0 0,0 0,0 0,0 1,0 1,0 0,0 -1,0 -1,0 0,0 0,0 0,0l0 0zm-8 0l0 0c0,0 0,0 0,0 0,0 1,0 1,0 0,0 -1,0 -1,0 0,0 0,0 0,0zm9 -1l0 0 -9 0c0,0 0,0 0,0 0,0 0,0 0,1 0,0 0,0 0,0 0,0 0,0 0,0l9 0 2 1 3 0 0 0 -3 0 -2 -2zm-9 1l0 0c0,0 0,0 0,0 0,0 0,0 0,0 0,-1 0,-1 0,-1 0,0 0,0 0,1l0 0zm-1 -1l0 0 -13 0c0,0 0,0 0,0 0,0 0,0 0,1 0,0 0,0 0,0 0,0 0,0 0,0l12 0 4 2 12 0 0 -1 -12 0 -3 -2zm-13 1l0 0c0,0 0,0 0,0 0,0 0,0 0,0 0,-1 0,-1 0,-1 0,0 0,0 0,1l0 0zm13 0l0 0 -13 0c0,0 0,0 0,0 0,0 0,0 0,1 0,0 0,0 0,0 0,0 0,0 0,0l12 0 4 2 12 0 0 -1 -12 0 -3 -2zm-13 1l0 0c0,0 0,0 0,0 0,0 0,0 0,0 0,-1 0,-1 0,-1 0,0 0,0 0,1l0 0zm13 -1l0 0 -13 0c0,0 0,0 0,0 -1,0 -1,0 -1,0 0,0 0,0 1,0 0,0 0,0 0,0l12 0 4 2 12 0 0 0 -12 0 -3 -2zm-13 0l0 0c-1,0 -1,0 -1,0 0,0 0,0 1,0 0,0 0,0 0,0 0,0 0,0 0,0zm-10 2l0 0 -8 0c0,0 0,0 0,0 0,0 -1,0 -1,1 0,0 1,0 1,0 0,0 0,0 0,0l8 0 10 -5 28 0 0 0 -28 0 -10 4zm-8 1l0 0c0,0 0,0 0,0 0,-1 0,-1 0,-1 0,0 0,0 0,1 0,0 0,0 0,0zm8 1l0 0 -8 0c0,-1 0,-1 0,-1 0,0 -1,0 -1,1 0,0 1,0 1,0 0,0 0,0 0,0l8 0 10 -5 28 0 0 0 -28 0 -10 5zm-8 0l0 0c0,0 0,0 0,0 0,-1 0,-1 0,-1 0,0 0,0 0,1 0,0 0,0 0,0zm8 -3l0 0 -7 0c0,0 -1,0 -1,0 0,0 0,0 0,0 0,0 0,0 0,0 0,0 1,0 1,0l7 0 10 -4 28 0 0 -1 -28 0 -10 5zm-8 0l0 0c0,0 0,0 0,0 0,0 0,0 0,0 0,0 0,0 0,0 0,0 0,0 0,0l0 0zm8 1l0 0 -7 0c0,0 -1,0 -1,0 0,0 0,0 0,0 0,0 0,0 0,0 0,0 1,0 1,0l7 0 10 -4 28 0 0 -1 -28 0 -10 5zm-8 0l0 0c0,0 0,0 0,0 0,0 0,0 0,0 0,0 0,0 0,0 0,0 0,0 0,0l0 0zm8 -1l0 0 -8 0c0,0 0,0 0,0 0,0 -1,0 -1,1 0,0 1,0 1,0 0,0 0,0 0,0l8 0 10 -5 28 0 0 0 -28 0 -10 4zm-8 1l0 0c0,0 0,0 0,0 0,-1 0,-1 0,-1 0,0 0,0 0,1 0,0 0,0 0,0zm31 -1l0 0 -13 0c0,0 0,0 0,0 -1,0 -1,0 -1,0 0,0 0,0 1,0 0,0 0,0 0,0l12 0 4 2 12 0 0 0 -12 0 -3 -2zm-13 0l0 0c-1,0 -1,0 -1,0 0,0 0,0 1,0 0,0 0,0 0,0 0,0 0,0 0,0zm-10 2l0 0 -7 0c0,0 -1,0 -1,0 0,0 0,0 0,0 0,0 0,0 0,0 0,0 1,0 1,0l7 0 10 -4 28 0 0 -1 -28 0 -10 5zm-8 0l0 0c0,0 0,0 0,0 0,0 0,0 0,0 0,0 0,0 0,0 0,0 0,0 0,0l0 0zm19 1l0 0 -18 0c0,0 -1,0 -1,0 0,0 0,0 0,0 0,0 0,0 0,0 0,0 1,0 1,0l18 0 4 2 23 0 0 0 -23 0 -4 -2zm-19 0l0 0c0,0 0,0 0,0 0,0 0,0 0,0 0,0 0,0 0,0 0,0 0,0 0,0l0 0zm19 2l0 0 -19 0c0,-1 0,-1 0,-1 0,0 -1,0 -1,1 0,0 1,0 1,0 0,0 0,0 0,0l19 0 4 2 23 0 0 0 -23 0 -4 -2zm-19 0l0 0c0,0 0,0 0,0 0,0 0,-1 0,-1 0,0 0,1 0,1 0,0 0,0 0,0zm19 -1l0 0 -18 0c0,0 -1,0 -1,0 0,0 0,0 0,0 0,0 0,0 0,0 0,0 1,0 1,0l18 0 4 2 23 0 0 0 -23 0 -4 -2zm-19 0l0 0c0,0 0,0 0,0 0,0 0,0 0,0 0,0 0,0 0,0 0,0 0,0 0,0l0 0zm39 4l0 0c0,-1 0,-1 0,-1 0,0 0,0 0,1 0,0 0,0 0,0 0,0 0,0 0,0l5 0 2 1 0 1 0 0 0 -1 -2 -1 -5 0zm0 0l0 0c0,0 0,0 0,0 0,0 0,0 0,0 0,0 0,-1 0,-1 0,0 0,1 0,1l0 0zm-1 -5l0 0 -4 0 -3 -3 -13 0c0,0 0,0 0,0 0,0 0,0 0,1 0,0 0,0 0,0 0,0 0,0 0,0l12 0 4 2 4 0 2 1 6 0 0 0 -6 0 -2 -1zm-20 -2l0 0c0,0 0,0 0,0 0,0 0,0 0,0 0,-1 0,-1 0,-1 0,0 0,0 0,1l0 0zm1 3l0 0 -19 0c0,-1 0,-1 0,-1 0,0 -1,0 -1,1 0,0 1,0 1,0 0,0 0,0 0,0l19 0 4 2 23 0 0 0 -23 0 -4 -2zm-19 0l0 0c0,0 0,0 0,0 0,0 0,-1 0,-1 0,0 0,1 0,1 0,0 0,0 0,0zm44 4l0 0c0,0 -1,0 -1,0 0,1 1,1 1,1l0 1 -1 0 1 0 0 0 0 -1c0,0 0,0 0,-1 0,0 0,0 0,0zm0 1l0 0 0 0c0,0 0,0 0,-1 0,0 0,0 0,0 0,0 0,0 0,0 0,1 0,1 0,1zm-36 -10l0 0 -8 0c0,0 0,0 0,0 0,0 -1,0 -1,1 0,0 1,0 1,0 0,0 0,0 0,0l8 0 10 -5 28 0 0 0 -28 0 -10 4zm-8 1l0 0c0,0 0,0 0,0 0,-1 0,-1 0,-1 0,0 0,0 0,1 0,0 0,0 0,0zm38 4l0 0c0,-1 -1,-1 -1,-1 0,0 0,0 0,1l-3 0 -3 -2 -5 0c0,0 0,0 0,0 0,0 -1,0 -1,0 0,0 1,0 1,0 0,0 0,0 0,0l5 0 3 2 3 0c0,0 0,0 0,0 0,0 1,0 1,0zm-12 -2l0 0c0,0 0,0 0,0 0,0 0,0 0,0 0,0 0,0 0,0 0,0 0,0 0,0zm11 2l0 0c0,0 0,-1 0,-1 0,0 0,1 0,1 0,0 0,0 0,0 0,0 0,0 0,0zm1 -1l0 0 -4 0 -3 -2 -16 0c0,0 0,0 0,0 0,0 0,0 0,0 0,0 0,0 0,0 0,0 0,0 0,0l15 0 4 2 4 0 2 1 6 0 0 0 -6 0 -2 -1zm-23 -2l0 0c0,0 0,0 0,0 0,0 0,0 0,0 0,0 0,0 0,0 0,0 0,0 0,0zm15 0l0 0c0,0 0,0 0,0l-11 0 -2 2 -6 0c0,-1 0,-1 -1,-1 0,0 0,0 0,1 0,0 0,0 0,0 1,0 1,0 1,0l6 0 2 -1 11 0c0,0 0,0 0,0 0,0 0,0 0,0 0,-1 0,-1 0,-1zm-19 2l0 0c0,0 0,0 -1,0 0,0 0,0 0,0 0,-1 0,-1 0,-1 1,0 1,0 1,1l0 0zm19 -1l0 0c0,0 0,0 0,0 0,-1 0,-1 0,-1 0,0 0,0 0,1 0,0 0,0 0,0zm6 2l0 0c1,0 1,0 1,0 0,0 0,0 0,0 0,0 0,0 0,0 0,0 0,0 -1,0l-2 0 -3 -1 -5 0c-1,-1 -1,-1 -1,-1 0,0 0,0 0,1 0,0 0,0 0,0 0,0 0,0 1,0l5 0 3 1 2 0zm1 0l0 0c0,0 0,0 0,0 0,0 0,0 0,0 0,0 0,0 0,0 0,0 0,0 0,0l0 0zm-12 -1l0 0c0,0 0,0 0,0 0,0 0,0 0,0 0,-1 0,-1 0,-1 0,0 0,0 0,1l0 0zm6 0l0 0c0,0 -1,0 -1,0l-2 0 -1 1 -4 0c0,0 0,0 0,0 0,0 -1,0 -1,0 0,0 1,0 1,0 0,0 0,0 0,0l4 0 1 -1 2 0c0,0 1,0 1,0 0,0 0,0 0,0 0,0 0,0 0,0zm-8 1l0 0c0,0 0,0 0,0 0,0 0,0 0,0 0,0 0,0 0,0 0,0 0,0 0,0l0 0zm8 -1l0 0c0,0 0,0 0,0 0,0 0,0 0,0 0,0 0,0 0,0 0,0 0,0 0,0zm-12 -22l0 0c0,0 0,0 0,-1 0,0 0,0 0,0 0,0 0,0 0,0 0,1 0,1 0,1zm-1 6l0 0c0,0 1,0 1,0 0,-1 -1,-1 -1,-1 0,0 0,0 0,1 0,0 0,0 0,0zm0 -3l0 0c0,0 1,0 1,0 0,-1 -1,-1 -1,-1 0,0 0,0 0,1 0,0 0,0 0,0zm0 4l0 0c0,0 1,-1 1,-1 0,0 -1,0 -1,0 0,0 0,0 0,0 0,0 0,1 0,1zm0 -2l0 0c0,0 1,0 1,0 0,0 -1,0 -1,0 0,0 0,0 0,0 0,0 0,0 0,0zm0 -1l0 0c0,0 1,-1 1,-1 0,0 -1,0 -1,0 0,0 0,0 0,0 0,0 0,1 0,1zm0 0l0 0c0,0 1,0 1,0 0,0 -1,0 -1,0 0,0 0,0 0,0 0,0 0,0 0,0zm0 3l0 0c0,0 1,0 1,0 0,0 -1,0 -1,0 0,0 0,0 0,0 0,0 0,0 0,0zm1 -6l0 0c0,0 0,-1 0,-1 0,0 0,0 0,0 0,0 0,0 0,0 0,0 0,1 0,1zm0 0l0 0c0,0 0,0 0,0 0,0 0,0 0,0 0,0 0,0 0,0 0,0 0,0 0,0zm-1 7l0 0c0,0 1,0 1,0 0,0 -1,0 -1,0 0,0 0,0 0,0 0,0 0,0 0,0zm1 -6l0 0c0,0 0,0 0,0 0,0 0,0 0,0 0,0 0,0 0,0 0,0 0,0 0,0zm0 -3l0 0c0,0 0,0 0,0 0,0 0,-1 0,-1 0,0 0,1 0,1 0,0 0,0 0,0zm-11 19l0 0 -7 0c0,0 -1,0 -1,0 0,0 0,0 0,0 0,0 0,0 0,0 0,0 1,0 1,0l7 0 10 -4 28 0 0 -1 -28 0 -10 5zm-8 0l0 0c0,0 0,0 0,0 0,0 0,0 0,0 0,0 0,0 0,0 0,0 0,0 0,0l0 0zm8 -2l0 0 -7 0c0,0 -1,0 -1,0 0,0 0,0 0,0 0,0 0,0 0,0 0,0 1,0 1,0l7 0 10 -4 28 0 0 -1 -28 0 -10 5zm-8 0l0 0c0,0 0,0 0,0 0,0 0,0 0,0 0,0 0,0 0,0 0,0 0,0 0,0l0 0zm8 0l0 0 -8 0c0,0 0,0 0,0 0,0 -1,0 -1,1 0,0 1,0 1,0 0,0 0,0 0,0l8 0 10 -5 28 0 0 0 -28 0 -10 4zm-8 1l0 0c0,0 0,0 0,0 0,-1 0,-1 0,-1 0,0 0,0 0,1 0,0 0,0 0,0zm8 -2l0 0 -8 0c0,0 0,0 0,0 0,0 -1,0 -1,0 0,1 1,1 1,1 0,0 0,0 0,0l8 0 10 -5 28 0 0 0 -28 0 -10 4zm-8 1l0 0c0,0 0,0 0,-1 0,0 0,0 0,0 0,0 0,0 0,0 0,1 0,1 0,1zm8 1l0 0 -7 0c0,0 -1,0 -1,0 0,0 0,0 0,0 0,0 0,0 0,0 0,0 1,0 1,0l7 0 10 -4 28 0 0 -1 -28 0 -10 5zm-8 0l0 0c0,0 0,0 0,0 0,0 0,0 0,0 0,0 0,0 0,0 0,0 0,0 0,0l0 0zm8 -2l0 0 -7 0c0,0 -1,0 -1,0 0,0 0,0 0,0 0,0 0,0 0,0 0,0 1,0 1,0l7 0 10 -5 28 0 0 0 -28 0 -10 5zm-8 0l0 0c0,0 0,0 0,0 0,0 0,0 0,0 0,0 0,0 0,0 0,0 0,0 0,0l0 0zm8 2l0 0 -8 0c0,0 0,0 0,0 0,0 -1,0 -1,1 0,0 1,0 1,0 0,0 0,0 0,0l8 0 10 -5 28 0 0 0 -28 0 -10 4zm-8 1l0 0c0,0 0,0 0,0 0,-1 0,-1 0,-1 0,0 0,0 0,1 0,0 0,0 0,0zm18 -17l0 0c0,0 1,-1 1,-1 0,0 -1,0 -1,0 0,0 0,0 0,0 0,0 0,1 0,1zm0 0l0 0c0,0 1,0 1,0 0,0 -1,0 -1,0 0,0 0,0 0,0 0,0 0,0 0,0zm0 1l0 0c0,0 1,0 1,0 0,0 -1,0 -1,0 0,0 0,0 0,0 0,0 0,0 0,0zm0 -3l0 0c0,0 1,0 1,0 0,0 -1,-1 -1,-1 0,0 0,1 0,1 0,0 0,0 0,0zm0 1l0 0c0,0 1,0 1,-1 0,0 -1,0 -1,0 0,0 0,0 0,0 0,1 0,1 0,1zm-10 14l0 0 -8 0c0,0 0,0 0,0 0,0 -1,0 -1,0 0,1 1,1 1,1 0,0 0,0 0,0l8 0 10 -5 28 0 0 0 -28 0 -10 4zm-8 1l0 0c0,0 0,0 0,-1 0,0 0,0 0,0 0,0 0,0 0,0 0,1 0,1 0,1zm-5 6l0 0c1,0 1,0 1,0 0,0 0,0 -1,0 0,0 0,0 0,0 0,0 0,0 0,0l0 2 1 1 0 5 0 0 0 -5 -1 -1 0 -2zm0 0l0 0c0,0 0,0 0,0 0,0 1,0 1,0 0,0 -1,0 -1,0 0,0 0,0 0,0zm-7 -13l0 0c0,0 0,1 0,1 0,0 0,0 0,0l0 20 0 0 0 -20c0,0 1,0 1,0 0,0 -1,-1 -1,-1zm0 1l0 0 0 0c0,0 0,0 0,0 0,0 0,0 0,0 0,0 0,0 0,0 0,0 0,0 0,0zm2 7l0 0 0 -8c0,0 0,0 0,0 0,0 0,0 0,0 0,0 -1,0 -1,0 0,0 1,0 1,0l0 9 3 3 0 9 0 0 0 -9 -3 -4zm0 -8l0 0c0,0 0,0 0,0 0,0 0,0 0,0 0,0 0,0 0,0 0,0 0,0 0,0zm0 19l0 0c0,0 0,0 0,0 0,1 0,1 0,1l0 1 0 0 0 -1c1,0 1,0 1,-1 0,0 -1,0 -1,0zm0 1l0 0 0 0c0,0 0,0 0,-1 0,0 0,0 0,0 0,0 0,0 0,0 0,1 0,1 0,1zm-1 -19l0 0c0,0 1,0 1,0 0,0 -1,-1 -1,-1 0,0 0,1 0,1 0,0 0,0 0,0l0 8 3 3 0 9 0 0 0 -9 -3 -4 0 -7zm0 0l0 0c0,0 0,0 0,0 0,0 0,0 0,0 0,0 0,0 0,0 0,0 0,0 0,0l0 0zm2 11l0 0c0,0 -1,0 -1,0 0,1 1,1 1,1l0 5 -2 1 0 2 0 0 0 -2 2 -1 0 -5c0,0 0,0 0,-1 0,0 0,0 0,0zm0 1l0 0 0 0c0,0 0,-1 0,-1 0,0 0,0 0,0 0,0 0,0 0,0 0,0 0,1 0,1zm-1 5l0 0c0,0 -1,0 -1,0l0 -7c0,0 1,0 1,0 0,0 -1,0 -1,0 0,0 0,0 0,0 0,0 0,0 0,0l0 7c0,0 0,0 0,0 0,0 0,0 0,0 0,0 1,0 1,0zm-1 -7l0 0c0,0 0,0 0,0 0,0 0,0 0,0 0,0 0,0 0,0l0 0c0,0 0,0 0,0zm0 7l0 0c0,0 0,0 0,0l0 0c0,0 0,0 0,0 0,0 0,0 0,0 0,0 0,0 0,0zm0 -10l0 0 0 -8c0,0 0,0 0,0 0,0 0,0 0,0 0,0 -1,0 -1,0 0,0 1,0 1,0l0 9 3 3 0 9 0 0 0 -9 -3 -4zm0 -8l0 0c0,0 0,0 0,0 0,0 0,0 0,0 0,0 0,0 0,0 0,0 0,0 0,0zm3 0l0 0c0,0 0,0 0,0 0,0 0,0 0,0 0,0 0,0 0,0 0,0 0,0 0,0l0 9 3 3 0 9 0 0 0 -9 -3 -4 0 -8zm0 0l0 0c0,0 0,0 0,0 0,0 0,0 0,0 0,0 0,0 0,0 0,0 0,0 0,0zm27 -5l0 0c0,0 0,0 0,0 0,-1 0,-1 0,-1 0,0 0,0 0,1 0,0 0,0 0,0zm-22 21l0 0c0,0 0,0 0,0 0,1 0,1 0,1l0 4 0 0 0 -4c1,0 1,0 1,-1 0,0 0,0 -1,0zm0 1l0 0c0,0 0,0 0,-1 0,0 0,0 0,0 1,0 1,0 1,0 0,1 0,1 -1,1zm-7 -16l0 0c1,0 1,0 1,0 0,0 -1,-1 -1,-1 0,0 0,1 0,1 0,0 0,0 0,0l0 8 3 3 0 9 0 0 0 -9 -3 -4 0 -7zm0 0l0 0c0,0 0,0 0,0 0,0 0,0 0,0 0,0 0,0 0,0 0,0 0,0 0,0l0 0zm1 -1l0 0c0,0 0,0 0,0 0,0 0,0 0,0 0,0 -1,0 -1,0 0,0 1,0 1,0l0 9 3 3 0 9 0 0 0 -9 -3 -4 0 -8zm0 0l0 0c0,0 0,0 0,0 0,0 0,0 0,0 0,0 0,0 0,0 0,0 0,0 0,0zm0 8l0 0 0 -7c1,0 1,0 1,0 0,0 -1,-1 -1,-1 0,0 0,1 0,1 0,0 0,0 0,0l0 8 3 3 0 9 0 0 0 -9 -3 -4zm0 -7l0 0c0,0 0,0 0,0 0,0 0,0 0,0 0,0 0,0 0,0 0,0 0,0 0,0l0 0zm-4 -1l0 0c0,0 0,1 0,1 0,0 0,0 0,0l0 20 0 0 0 -20c0,0 1,0 1,0 0,0 -1,-1 -1,-1zm0 1l0 0 0 0c0,0 0,0 0,0 0,0 0,0 0,0 0,0 0,0 0,0 0,0 0,0 0,0zm-7 14l0 0 0 -10c0,0 0,-1 0,-1 0,0 0,0 0,0 -1,0 -1,0 -1,0 0,0 0,1 1,1l0 10 3 4 0 2 0 0 0 -2 -3 -4zm0 -11l0 0c0,0 -1,0 -1,0 0,0 1,0 1,0 0,0 0,0 0,0 0,0 0,0 0,0l0 0zm8 -4l0 0c0,0 0,0 0,0 0,0 -1,0 -1,0 0,0 1,0 1,0l0 21 0 0 0 -21c0,0 0,0 0,0zm0 0l0 0c0,0 0,0 0,0 0,0 0,0 0,0 0,0 0,0 0,0 0,0 0,0 0,0zm-9 4l0 0c0,0 0,0 0,0 0,0 0,-1 0,-1 0,0 0,1 0,1 0,0 0,0 0,0l0 11 3 4 0 2 0 0 0 -2 -3 -4 0 -11zm0 0l0 0c0,0 0,0 0,0 0,0 0,0 0,0 0,0 0,0 0,0 0,0 0,0 0,0zm-1 0l0 0c0,0 0,0 0,0 0,0 0,-1 0,-1 0,0 0,1 0,1 0,0 0,0 0,0l0 11 3 4 0 2 0 0 0 -2 -3 -4 0 -11zm0 0l0 0c0,0 0,0 0,0 0,0 0,0 0,0 0,0 0,0 0,0 0,0 0,0 0,0zm1 11l0 0 0 -10c0,0 0,-1 0,-1 0,0 0,0 0,0 -1,0 -1,0 -1,0 0,0 0,1 1,1l0 10 3 4 0 2 0 0 0 -2 -3 -4zm0 -11l0 0c-1,0 -1,0 -1,0 0,0 0,0 1,0 0,0 0,0 0,0 0,0 0,0 0,0l0 0zm19 12l0 0c0,0 0,0 0,0 0,0 0,0 0,0 0,0 0,0 0,0l0 5 0 0 0 -5c0,0 0,0 0,0zm0 0l0 0 0 0c0,0 0,0 0,0 0,0 0,0 0,0 0,0 0,0 0,0 0,0 0,0 0,0zm-11 -16l0 0c0,0 0,0 0,0 0,0 -1,0 -1,0 0,0 1,0 1,0l0 21 0 0 0 -21c0,0 0,0 0,0zm0 0l0 0c0,0 0,0 0,0 0,0 0,0 0,0 0,0 0,0 0,0 0,0 0,0 0,0zm-1 0l0 0c0,0 0,0 0,0 0,0 -1,0 -1,0 0,0 1,0 1,0l0 21 0 0 0 -21c0,0 0,0 0,0zm0 0l0 0c0,0 0,0 0,0 0,0 0,0 0,0 0,0 0,0 0,0 0,0 0,0 0,0zm-1 0l0 0c0,0 0,1 0,1 0,0 0,0 0,0l0 20 0 0 0 -20c0,0 1,0 1,0 0,0 -1,-1 -1,-1zm0 1l0 0 0 0c0,0 0,0 0,0 0,0 0,0 0,0 0,0 0,0 0,0 0,0 0,0 0,0zm1 -1l0 0c0,0 0,1 0,1 0,0 0,0 0,0l0 20 0 0 0 -20c0,0 1,0 1,0 0,0 -1,-1 -1,-1zm0 1l0 0 0 0c0,0 0,0 0,0 0,0 0,0 0,0 0,0 0,0 0,0 0,0 0,0 0,0zm29 17l0 0 5 0c0,0 0,0 0,0 0,0 1,0 1,0 0,0 -1,-1 -1,-1 0,0 0,0 0,0l-5 0 -2 1 -2 0c0,0 0,1 0,1 0,0 0,0 0,0 0,0 0,0 0,0l2 0 2 -1zm5 0l0 0c0,0 0,0 0,0 0,0 0,0 0,0 0,0 0,0 0,0 0,0 0,0 0,0zm-9 1l0 0c0,0 0,0 0,0 0,0 0,0 0,0 0,0 0,0 0,0 0,0 0,0 0,0zm-4 -2l0 0c0,0 0,0 0,0 0,0 0,0 0,0 0,-1 0,-1 0,-1l-5 0 -2 3 0 2 1 0 0 -2 2 -2 4 0zm0 0l0 0c0,0 0,0 0,0 0,0 0,0 0,0 0,0 0,0 0,0 0,0 0,0 0,0zm-5 3l0 0c0,0 0,0 0,0 0,0 0,0 0,0 0,0 0,0 0,0 0,0 0,0 0,0l3 0 1 1 0 0 -1 -1 -3 0zm0 0l0 0c0,0 0,0 0,0 0,0 0,0 0,0 0,0 0,0 0,0 0,0 0,0 0,0zm6 -2l0 0 -5 0c-1,0 -1,1 -1,1 0,0 0,0 1,0 0,0 0,0 0,0l5 0c0,0 0,0 0,0 0,0 0,0 0,0 0,0 0,-1 0,-1zm-5 1l0 0c-1,0 -1,0 -1,0 0,0 0,0 1,0 0,0 0,0 0,0 0,0 0,0 0,0zm5 0l0 0c0,0 -1,0 -1,0 0,0 1,0 1,0 0,0 0,0 0,0 0,0 0,0 0,0zm-1 0l0 0c0,0 0,0 0,0 0,1 0,1 0,1l0 1 0 0 0 -1c0,0 0,0 0,-1 0,0 0,0 0,0zm0 1l0 0 0 0c0,0 0,0 0,-1 0,0 0,0 0,0 0,0 0,0 0,0 0,1 0,1 0,1zm11 -3l0 0c0,0 1,0 1,0 0,-1 -1,-1 -1,-1l-9 0c-1,0 -1,0 -1,1 0,0 0,0 1,0l9 0zm0 0l0 0c0,0 0,0 0,0 0,0 0,0 0,0 0,0 0,0 0,0 0,0 0,0 0,0zm-10 0l0 0c0,0 1,0 1,0 0,0 0,0 0,0 0,0 0,0 0,0 0,0 -1,0 -1,0zm2 2l0 0 -1 -2 -6 0c0,0 0,1 0,1 0,0 0,0 0,0 0,0 0,0 0,0l6 0 1 1 0 1c0,0 0,0 0,0 0,0 0,0 0,0 0,0 0,0 0,0 0,0 0,0 0,0l0 -1zm-7 -1l0 0c0,0 0,0 0,0 0,0 0,0 0,0 0,0 0,0 0,0 0,0 0,0 0,0zm7 2l0 0c0,0 0,0 0,0 0,0 0,0 0,0 0,0 0,0 0,0 0,0 0,0 0,0zm5 0l0 0c0,0 0,0 0,0l-2 0 -1 1 0 0 1 -1 2 0c0,0 0,0 0,0 1,0 1,0 1,0 0,0 0,0 -1,0zm0 0l0 0c0,0 0,0 0,0 0,0 0,0 0,0 1,0 1,0 1,0 0,0 0,0 -1,0zm-17 -4l0 0c0,0 0,0 0,0 0,1 0,1 0,1l0 4 1 0 0 -4c0,0 0,0 0,-1 0,0 0,0 -1,0zm0 1l0 0c0,0 0,0 0,-1 0,0 0,0 0,0 1,0 1,0 1,0 0,1 0,1 -1,1zm36 3l0 0 -9 0 -2 -2 -8 0 0 0c0,0 0,1 0,1 0,0 0,0 0,0l8 0 2 1 9 0c0,0 0,0 0,0 0,0 0,0 0,0zm-19 -1l0 0c0,0 0,0 0,0 0,0 0,0 0,0 0,0 0,0 0,0 0,0 0,0 0,0zm19 1l0 0c-1,0 -1,0 -1,0 0,0 0,0 1,0 0,0 0,0 0,0 0,0 0,0 0,0zm8 0l0 0c0,0 0,0 0,0l-4 0 -3 -2 -9 0c0,0 0,1 0,1 0,0 0,0 0,0 0,0 0,0 0,0l9 0 3 1 4 0c0,0 0,0 0,0 0,0 0,0 0,0 0,0 0,0 0,0zm-16 -1l0 0c0,0 0,0 0,0 0,0 0,0 0,0 0,0 0,0 0,0 0,0 0,0 0,0zm16 1l0 0c0,0 0,0 0,0 0,0 0,0 0,0 0,0 0,0 0,0 0,0 0,0 0,0zm-20 0l0 0c0,0 0,0 0,0 0,0 0,0 0,0 0,0 0,0 0,0 0,0 0,0 0,0zm-1 0l0 0c0,0 0,0 0,0 0,0 0,0 0,0 0,0 0,0 0,0 0,0 0,0 0,0zm-22 -4l0 0c0,0 0,0 0,0 0,0 0,0 0,0 0,0 0,0 0,0l0 5 0 0 0 -5c0,0 0,0 0,0zm0 0l0 0 0 0c0,0 0,0 0,0 0,0 0,0 0,0 0,0 0,0 0,0 0,0 0,0 0,0zm0 0l0 0c0,0 0,0 0,0 0,1 0,1 0,1l0 4 1 0 0 -4c0,0 0,0 0,-1 0,0 0,0 -1,0zm0 1l0 0c0,0 0,0 0,-1 0,0 0,0 0,0 1,0 1,0 1,0 0,1 0,1 -1,1zm21 3l0 0c-1,0 -1,0 -1,0 0,0 0,0 1,0 0,0 0,0 0,0 0,0 0,0 0,0zm-3 0l0 0c0,0 0,0 0,0 0,0 0,0 0,0 0,0 1,0 1,0 0,0 -1,0 -1,0zm1 0l0 0c0,0 0,0 0,0 0,0 0,0 0,0 0,0 0,0 0,0 0,0 0,0 0,0zm1 0l0 0c0,0 0,0 0,0 0,0 0,0 0,0 0,0 0,0 0,0 0,0 0,0 0,0zm-2 0l0 0c-1,0 -1,0 -1,0 0,0 0,0 1,0 0,0 0,0 0,0 0,0 0,0 0,0zm3 0l0 0c0,0 0,0 0,0 0,0 0,0 0,0 0,0 1,0 1,0 0,0 -1,0 -1,0zm5 -22l0 0 -4 0c0,0 0,0 0,0 0,0 0,0 0,0 0,0 0,0 0,0 0,0 0,0 0,0l4 0 1 -1 20 0 0 0 -20 0 -1 1zm-4 0l0 0c0,0 0,0 0,0 0,0 0,0 0,0 0,0 0,0 0,0 0,0 0,0 0,0zm22 1l0 0c1,0 1,-1 1,-1 0,0 0,0 -1,0 0,0 0,0 0,0 0,0 0,1 0,1zm0 -1l0 0c1,0 1,0 1,0 0,-1 0,-1 -1,-1 0,0 0,0 0,1 0,0 0,0 0,0zm0 1l0 0c1,0 1,0 1,0 0,0 0,0 -1,0 0,0 0,0 0,0 0,0 0,0 0,0zm0 0l0 0c0,0 0,0 0,0 0,0 0,0 0,0 0,0 -1,0 -1,0 0,0 1,0 1,0zm2 0l0 0c0,0 0,0 0,0 0,0 0,0 0,0 0,0 0,0 0,0 0,0 0,0 0,0zm-2 1l0 0c0,0 0,0 0,0 0,0 0,0 0,0 0,0 -1,0 -1,0 0,0 1,0 1,0zm2 -2l0 0c0,0 0,0 0,0 0,-1 0,-1 0,-1 0,0 0,0 0,1 0,0 0,0 0,0zm-1 1l0 0c0,0 0,-1 0,-1 0,0 0,0 0,0 0,0 0,0 0,0 0,0 0,1 0,1zm-1 -1l0 0c0,0 0,0 0,0 0,-1 0,-1 0,-1 0,0 -1,0 -1,1 0,0 1,0 1,0zm1 2l0 0c0,0 0,0 0,0 0,0 0,0 0,0 0,0 0,0 0,0 0,0 0,0 0,0zm1 -1l0 0c0,0 0,-1 0,-1 0,0 0,0 0,0 0,0 0,0 0,0 0,0 0,1 0,1zm-1 0l0 0c0,0 0,0 0,0 0,0 0,0 0,0 0,0 0,0 0,0 0,0 0,0 0,0zm0 -1l0 0c0,0 0,0 0,0 0,-1 0,-1 0,-1 0,0 0,0 0,1 0,0 0,0 0,0zm-1 2l0 0c1,0 1,0 1,0 0,0 0,0 -1,0 0,0 0,0 0,0 0,0 0,0 0,0zm-3 -1l0 0c1,0 1,0 1,0 0,0 0,0 -1,0 0,0 0,0 0,0 0,0 0,0 0,0zm0 1l0 0c1,0 1,0 1,0 0,0 0,0 -1,0 0,0 0,0 0,0 0,0 0,0 0,0zm1 -1l0 0c0,0 0,-1 0,-1 0,0 0,0 0,0 0,0 0,0 0,0 0,0 0,1 0,1zm0 -1l0 0c0,0 0,0 0,0 0,-1 0,-1 0,-1 0,0 0,0 0,1 0,0 0,0 0,0zm-1 0l0 0c1,0 1,0 1,0 0,-1 0,-1 -1,-1 0,0 0,0 0,1 0,0 0,0 0,0zm0 1l0 0c1,0 1,-1 1,-1 0,0 0,0 -1,0 0,0 0,0 0,0 0,0 0,1 0,1zm2 0l0 0c0,0 0,0 0,0 0,0 0,0 0,0 0,0 0,0 0,0 0,0 0,0 0,0zm1 0l0 0c0,0 0,-1 0,-1 0,0 0,0 0,0 0,0 -1,0 -1,0 0,0 1,1 1,1zm-1 1l0 0c0,0 0,0 0,0 0,0 0,0 0,0 0,0 0,0 0,0 0,0 0,0 0,0zm-2 0l0 0c0,0 0,0 0,0 0,0 0,0 0,0 0,0 -1,0 -1,0 0,0 1,0 1,0zm2 -1l0 0c0,0 0,-1 0,-1 0,0 0,0 0,0 0,0 0,0 0,0 0,0 0,1 0,1zm-1 0l0 0c0,0 0,0 0,0 0,0 0,0 0,0 0,0 0,0 0,0 0,0 0,0 0,0zm0 1l0 0c0,0 0,0 0,0 0,0 0,0 0,0 0,0 0,0 0,0 0,0 0,0 0,0zm1 -2l0 0c0,0 0,0 0,0 0,-1 0,-1 0,-1 0,0 0,0 0,1 0,0 0,0 0,0zm3 -14l0 0 0 4 -4 3 -15 0 -5 -5 0 -4c0,0 0,0 0,-1 0,0 0,0 0,0 0,0 0,0 0,0 0,1 0,1 0,1l0 4 5 5 15 0 4 -3 0 -4 1 -1 0 0 0 0 0 0 -1 1zm-24 -3l0 0c0,0 0,0 0,0 0,0 0,0 0,0 0,1 0,1 0,1 0,0 0,0 0,-1zm23 3l0 0 0 4 -3 3 -15 0 -5 -5 0 -5c1,0 1,0 1,0 0,0 0,0 -1,0 0,0 0,0 0,0 0,0 0,0 0,0l0 5 5 5 15 0 3 -3 0 -4 2 -1 0 0 0 0 0 0 -2 1zm-23 -3l0 0c0,0 0,0 0,0 0,0 1,0 1,0 0,0 -1,0 -1,0 0,0 0,0 0,0zm22 -1l0 0 0 8 -2 2 -15 0 -4 -4 0 -5c1,0 1,0 1,0 0,0 0,0 -1,0 0,0 0,0 0,0 0,0 0,0 0,0l0 5 4 4 15 0 2 -2 0 -8 1 -1 2 0 0 0 -2 0 -1 1zm-21 1l0 0c0,0 0,0 0,0 0,0 1,0 1,0 0,0 -1,0 -1,0 0,0 0,0 0,0zm22 -1l0 0 0 8 -3 2 -15 0 -4 -4 0 -4c0,0 0,0 0,-1 0,0 0,0 0,0 0,0 0,0 0,0 0,1 0,1 0,1l0 4 4 4 15 0 3 -2 0 -8 0 0 2 0 0 -1 -2 0 0 1zm-22 1l0 0c0,0 0,0 0,0 0,0 0,0 0,0 0,1 0,1 0,1 0,0 0,0 0,-1zm23 19l0 0c0,0 0,0 0,0 0,0 0,0 0,0 0,0 0,0 0,0 0,0 0,0 0,0zm-4 -8l0 0 -15 0 -6 -5 -4 0c0,-1 0,-1 0,-1 -1,0 -1,1 -1,1 0,0 0,0 1,0 0,0 0,0 0,0l4 0 6 5 15 0 4 -4 1 0 0 0 -1 0 -4 4zm-25 -5l0 0c0,0 0,0 0,0 -1,0 -1,0 -1,0 0,0 0,-1 1,-1 0,0 0,1 0,1l0 0zm13 -21l0 0 -23 0 -7 -7 0 -4c0,0 0,0 0,0 0,-1 0,-1 -1,-1 0,0 0,0 0,1 0,0 0,0 0,0l0 4 8 7 24 0 6 -3 10 0 0 0 -10 0 -7 3zm-31 -11l0 0c0,-1 0,-1 0,-1 1,0 1,0 1,1 0,0 0,0 -1,0 0,0 0,0 0,0zm31 10l0 0 -23 0 -6 -6 0 -4c0,0 0,0 0,0 0,-1 0,-1 -1,-1 0,0 0,0 0,1 0,0 0,0 0,0l0 4 7 6 24 0 6 -3 10 0 0 0 -10 0 -7 3zm-30 -10l0 0c0,-1 0,-1 0,-1 1,0 1,0 1,1 0,0 0,0 -1,0 0,0 0,0 0,0zm44 25l0 0 0 8 -2 1 -15 0 -3 -3 0 -4c0,0 0,0 0,-1 0,0 0,0 0,0 0,0 0,0 0,0 0,1 0,1 0,1l0 4 3 3 15 0 2 -1 0 -8 1 -1 2 0 0 -1 -2 0 -1 2zm-20 1l0 0c0,0 0,0 0,0 0,0 0,0 0,0 0,1 0,1 0,1 0,0 0,0 0,-1zm6 -15l0 0 -23 0 -7 -7 0 -4c0,0 0,0 0,0 0,0 0,0 0,0 0,0 0,0 0,0 0,0 0,0 0,0l0 4 7 7 24 0 6 -3 10 0 0 0 -10 0 -7 3zm-30 -11l0 0c0,0 0,0 0,0 0,0 0,0 0,0 0,0 0,0 0,0 0,0 0,0 0,0zm30 12l0 0 -23 0 -8 -8 0 -4c0,0 0,0 0,0 0,0 0,0 0,0 0,0 0,0 0,0 0,0 0,0 0,0l0 4 8 8 24 0 6 -3 10 0 0 0 -10 0 -7 3zm-31 -12l0 0c0,0 0,0 0,0 0,0 0,0 0,0 0,0 0,0 0,0 0,0 0,0 0,0zm43 38l0 0 -15 0 -6 -6 -5 0c0,0 0,0 0,0 0,0 0,0 0,0 0,0 0,0 0,0 0,0 0,0 0,0l5 0 6 6 15 0 4 -4 1 0 0 0 -1 0 -4 4zm-26 -6l0 0c0,0 0,0 0,0 0,0 0,0 0,0 0,0 0,0 0,0 0,0 0,0 0,0zm26 5l0 0 -15 0 -6 -6 -5 0c0,0 0,0 0,0 0,0 0,0 0,0 0,0 0,0 0,0 0,0 0,0 0,0l5 0 6 6 15 0 4 -4 1 0 0 0 -1 0 -4 4zm-26 -6l0 0c0,0 0,0 0,0 0,0 0,0 0,0 0,0 0,0 0,0 0,0 0,0 0,0zm26 7l0 0 -15 0 -6 -5 -4 0c0,-1 0,-1 0,-1 -1,0 -1,1 -1,1 0,0 0,0 1,0 0,0 0,0 0,0l4 0 6 5 15 0 4 -4 1 0 0 0 -1 0 -4 4zm-25 -5l0 0c0,0 0,0 0,0 -1,0 -1,0 -1,0 0,0 0,0 1,0 0,0 0,0 0,0l0 0zm-38 17l0 0c0,0 0,-1 0,-1 0,0 0,0 0,0 -1,0 -1,0 -1,0 0,0 0,1 0,1l0 10 4 4 0 2 0 0 0 -2 -3 -4 0 -10zm0 -1l0 0c-1,0 -1,0 -1,0 0,0 0,0 1,0 0,0 0,0 0,0 0,0 0,0 0,0l0 0zm43 -8l0 0c0,0 0,0 0,0 1,0 1,0 1,0 0,0 0,0 -1,0l0 -3c1,0 1,0 1,0 0,-1 0,-1 -1,-1 0,0 0,0 0,1 0,0 0,0 0,0l0 3c0,0 0,0 0,0zm0 -3l0 0c0,-1 0,-1 0,-1 0,0 1,0 1,1 0,0 -1,0 -1,0l0 0c0,0 0,0 0,0zm0 3l0 0c0,0 1,0 1,0 0,0 -1,0 -1,0 0,0 0,0 0,0 0,0 0,0 0,0zm20 -2l0 0 -15 0 -6 -6 -5 0c0,0 0,0 0,0 0,0 0,0 0,0 0,0 0,1 0,1 0,0 0,-1 0,-1l5 0 6 6 15 0 4 -4 1 0 0 0 -1 0 -4 4zm-26 -6l0 0c0,0 0,0 0,0 0,0 0,0 0,0 0,0 0,0 0,0 0,0 0,0 0,0zm6 9l0 0c0,0 0,0 0,0 0,0 0,0 0,0l4 0c0,0 0,0 0,0 0,0 0,0 0,0 0,0 0,0 0,0 0,0 0,0 0,0l-4 0c0,0 0,0 0,0 0,0 0,0 0,0zm4 0l0 0c0,0 0,0 0,0 0,0 0,0 0,0 0,0 0,0 0,0 0,0 0,0 0,0zm-4 0l0 0c0,0 0,0 0,0l0 0c0,0 0,0 0,0 0,0 0,0 0,0 0,0 0,0 0,0zm23 -3l0 0 -18 0 -6 -5 -4 0c0,-1 0,-1 0,-1 -1,0 -1,1 -1,1 0,0 0,0 1,0 0,0 0,0 0,0l4 0 6 5 18 0 1 1 1 0 0 0 -1 0 -1 -1zm-28 -5l0 0c0,0 0,0 0,0 -1,0 -1,0 -1,0 0,0 0,0 1,0 0,0 0,0 0,0l0 0zm28 6l0 0 -18 0 -6 -6 -5 0c0,0 0,0 0,0 0,0 0,0 0,0 0,0 0,1 0,1 0,0 0,-1 0,-1l5 0 6 6 18 0 1 1 1 0 0 0 -1 0 -1 -1zm-29 -6l0 0c0,0 0,0 0,0 0,0 0,0 0,0 0,0 0,0 0,0 0,0 0,0 0,0zm29 6l0 0 -18 0 -6 -5 -4 0c0,0 0,-1 0,-1 -1,0 -1,1 -1,1 0,0 0,0 1,0 0,0 0,0 0,0l4 0 6 5 18 0 1 1 1 0 0 0 -1 0 -1 -1zm-28 -5l0 0c0,0 0,0 0,0 -1,0 -1,0 -1,0 0,0 0,0 1,0 0,0 0,0 0,0l0 0zm19 9l0 0c0,0 0,-1 0,-1 0,0 0,0 0,0 0,0 0,0 0,0 0,0 0,1 0,1zm-15 -1l0 0c0,0 0,0 0,0 0,-1 0,-1 0,-1 0,0 0,0 0,1 0,0 0,0 0,0zm0 2l0 0c0,0 0,0 0,0 0,0 0,0 0,0 0,0 0,0 0,0 0,0 0,0 0,0zm0 -1l0 0c0,0 0,0 0,0 0,0 0,0 0,0 0,0 0,0 0,0 0,0 0,0 0,0zm-57 17l0 0c0,0 1,-1 1,-1 0,0 0,0 -1,0l0 -8 2 -3 0 -9 2 -2 0 -9c0,0 0,0 0,-1 0,0 0,0 0,0 0,0 0,0 0,0 0,1 0,1 0,1l0 9 -2 2 0 9 -2 2 0 9c0,0 0,0 0,0 0,0 0,1 0,1zm4 -33l0 0c0,0 0,0 0,0 0,0 0,0 0,0 0,1 0,1 0,1 0,0 0,0 0,-1zm-4 32l0 0 0 0c0,0 1,0 1,0 0,0 -1,0 -1,0 0,0 0,0 0,0 0,0 0,0 0,0zm57 -18l0 0c0,0 0,0 0,0 0,0 0,0 0,0 0,0 0,0 0,0 0,0 0,0 0,0zm0 -1l0 0c0,0 0,0 0,0 0,0 0,0 0,0 0,0 0,0 0,0 0,0 0,0 0,0zm0 3l0 0c0,0 0,-1 0,-1 0,0 0,0 0,0 0,0 0,0 0,0 0,0 0,1 0,1zm14 -1l0 0c0,0 1,0 1,0 0,-1 -1,-1 -1,-1 0,0 0,0 0,1 0,0 0,0 0,0zm-6 2l0 0c0,0 0,0 0,0 0,0 0,0 0,0 0,0 0,0 0,0l4 0 0 0c0,0 0,0 0,0 0,0 0,0 0,0l-4 0zm0 0l0 0c0,0 0,0 0,0 0,0 0,0 0,0 1,0 1,0 1,0 0,0 0,0 -1,0zm4 0l0 0c0,0 0,0 0,0 0,0 0,0 0,0 0,0 0,0 0,0 0,0 0,0 0,0zm2 -1l0 0c0,0 1,0 1,0 0,0 -1,0 -1,0 0,0 0,0 0,0 0,0 0,0 0,0zm0 0l0 0c0,0 1,-1 1,-1 0,0 -1,0 -1,0 0,0 0,0 0,0 0,0 0,1 0,1zm0 2l0 0c0,0 0,0 0,0 0,0 0,0 0,0 0,0 0,0 0,0l12 0 0 0 -12 0c0,0 0,0 0,0zm0 0l0 0c0,0 0,0 0,0 0,0 0,0 0,0 0,0 0,0 0,0 0,0 0,0 0,0zm-9 -1l0 0 -3 0c0,0 0,0 0,0 0,0 0,0 0,0 0,0 0,0 0,0l3 0 2 1 6 0c0,0 0,0 0,0 0,0 0,0 0,0 0,0 0,0 0,0 0,0 0,0 0,0l-5 0 -3 -1zm-3 0l0 0c0,0 0,0 0,0 0,0 0,0 0,0 0,0 0,0 0,0 0,0 0,0 0,0zm11 1l0 0c0,0 0,0 0,0 0,0 0,0 0,0 -1,0 -1,0 -1,0 0,0 0,0 1,0zm-13 -8l0 0c0,0 0,0 0,0 0,0 0,0 0,0 0,0 0,0 0,0 0,0 0,0 0,0zm-1 5l0 0c0,0 0,0 0,0 0,-1 0,-1 0,-1 0,0 0,0 0,1 0,0 0,0 0,0zm0 1l0 0c0,0 0,-1 0,-1 0,0 0,0 0,0 0,0 0,0 0,0 0,0 0,1 0,1zm0 0l0 0c0,0 0,0 0,0 0,0 0,0 0,0 0,0 0,0 0,0 0,0 0,0 0,0zm1 -4l0 0c0,0 0,0 0,0 0,-1 0,-1 0,-1 0,0 0,0 0,1 0,0 0,0 0,0zm20 4l0 0c0,0 0,0 0,0 0,0 0,0 0,0 0,0 -1,0 -1,0 0,0 1,0 1,0zm-21 -3l0 0c0,0 0,0 0,0 0,0 0,0 0,0 0,0 0,0 0,0 0,0 0,0 0,0zm0 1l0 0c0,0 0,0 0,0 0,0 0,0 0,0 0,0 0,0 0,0 0,0 0,0 0,0zm1 -5l0 0c0,0 0,0 0,-1 0,0 0,0 0,0 0,0 0,0 0,0 0,1 0,1 0,1zm14 8l0 0c0,0 1,0 1,0 0,0 -1,0 -1,0 0,0 0,0 0,0 0,0 0,0 0,0zm-14 -6l0 0c0,0 0,0 0,0 0,0 0,0 0,0 0,0 0,0 0,0 0,0 0,0 0,0zm0 -1l0 0c0,0 0,-1 0,-1 0,0 0,0 0,0 0,0 0,0 0,0 0,0 0,1 0,1zm0 -2l0 0c0,0 0,0 0,0 0,0 0,-1 0,-1 0,0 0,1 0,1 0,0 0,0 0,0zm-1 9l0 0c0,0 0,0 0,0 0,0 0,0 0,0 0,0 0,0 0,0 0,0 0,0 0,0zm19 -1l0 0c0,0 0,-1 0,-1 0,0 0,0 0,0 0,0 0,0 0,0 0,0 0,1 0,1zm0 1l0 0c0,0 0,0 0,0 0,0 0,0 0,0 0,0 0,0 0,0 0,0 0,0 0,0zm0 -1l0 0c0,0 0,0 0,0 0,0 0,0 0,0 0,0 0,0 0,0 0,0 0,0 0,0zm-1 -1l0 0c1,0 1,0 1,0 0,-1 0,-1 -1,-1 0,0 0,0 0,1 0,0 0,0 0,0zm0 1l0 0c1,0 1,0 1,0 0,0 0,0 -1,0 0,0 0,0 0,0 0,0 0,0 0,0zm0 1l0 0c1,0 1,0 1,0 0,0 0,0 -1,0 0,0 0,0 0,0 0,0 0,0 0,0zm1 -2l0 0c0,0 0,0 0,0 0,-1 0,-1 0,-1 0,0 0,0 0,1 0,0 0,0 0,0zm2 1l0 0c0,0 0,-1 0,-1 0,0 0,0 0,0 0,0 -1,0 -1,0 0,0 1,1 1,1zm-1 0l0 0c0,0 0,-1 0,-1 0,0 0,0 0,0 0,0 0,0 0,0 0,0 0,1 0,1zm-20 -3l0 0c0,0 0,-1 0,-1 0,0 0,0 0,0 0,0 0,0 0,0 0,0 0,1 0,1zm20 4l0 0c0,0 0,0 0,0 0,0 0,0 0,0 0,0 0,0 0,0 0,0 0,0 0,0zm0 -1l0 0c0,0 0,0 0,0 0,0 0,0 0,0 0,0 0,0 0,0 0,0 0,0 0,0zm0 -1l0 0c0,0 0,0 0,0 0,-1 0,-1 0,-1 0,0 0,0 0,1 0,0 0,0 0,0zm1 0l0 0c0,0 0,0 0,0 0,-1 0,-1 0,-1 0,0 -1,0 -1,1 0,0 1,0 1,0zm-5 2l0 0c0,0 0,0 0,0 0,0 0,0 0,0 0,0 0,0 0,0 0,0 0,0 0,0zm1 -1l0 0c0,0 0,-1 0,-1 0,0 0,0 0,0 0,0 0,0 0,0 0,0 0,1 0,1zm0 0l0 0c0,0 0,0 0,0 0,0 0,0 0,0 0,0 0,0 0,0 0,0 0,0 0,0zm1 0l0 0c1,0 1,-1 1,-1 0,0 0,0 -1,0 0,0 0,0 0,0 0,0 0,1 0,1zm-2 0l0 0c0,0 0,0 0,0 0,0 0,0 0,0 0,0 0,0 0,0 0,0 0,0 0,0zm0 -1l0 0c0,0 0,0 0,0 0,-1 0,-1 0,-1 0,0 0,0 0,1 0,0 0,0 0,0zm1 0l0 0c0,0 0,0 0,0 0,-1 0,-1 0,-1 0,0 0,0 0,1 0,0 0,0 0,0zm1 1l0 0c0,0 0,0 0,0 0,0 0,0 0,0 -1,0 -1,0 -1,0 0,0 0,0 1,0zm0 1l0 0c0,0 0,0 0,0 0,0 0,0 0,0 -1,0 -1,0 -1,0 0,0 0,0 1,0zm-1 0l0 0c0,0 0,0 0,0 0,0 0,0 0,0 0,0 0,0 0,0 0,0 0,0 0,0zm1 -2l0 0c0,0 0,0 0,0 0,-1 0,-1 0,-1 -1,0 -1,0 -1,1 0,0 0,0 1,0zm0 1l0 0c0,0 0,-1 0,-1 0,0 0,0 0,0 -1,0 -1,0 -1,0 0,0 0,1 1,1zm-17 -3l0 0c0,0 0,-1 0,-1 0,0 0,0 0,0 0,0 0,0 0,0 0,0 0,1 0,1zm-36 11l0 0c0,0 0,0 0,0 0,0 0,0 0,0 1,0 1,0 1,0 0,0 0,0 -1,0zm0 3l0 0c0,0 0,0 0,0 0,0 0,1 0,1 1,0 1,-1 1,-1 0,0 0,0 -1,0zm0 -5l0 0c0,0 0,1 0,1 0,0 0,0 0,0 1,0 1,0 1,0 0,0 0,-1 -1,-1zm0 3l0 0c0,0 0,0 0,0 0,0 0,0 0,0 1,0 1,0 1,0 0,0 0,0 -1,0zm0 1l0 0c0,0 0,0 0,0 0,0 0,0 0,0 1,0 1,0 1,0 0,0 0,0 -1,0zm0 0l0 0c0,0 0,0 0,1 0,0 0,0 0,0 1,0 1,0 1,0 0,-1 0,-1 -1,-1zm0 -3l0 0c0,0 0,0 0,0 0,1 0,1 0,1 1,0 1,0 1,-1 0,0 0,0 -1,0zm0 -9l0 0c0,0 0,0 0,1 0,0 0,0 0,0 1,0 1,0 1,0 0,-1 0,-1 -1,-1zm0 8l0 0c0,0 0,0 0,0 0,0 0,0 0,0 1,0 1,0 1,0 0,0 0,0 -1,0zm0 -7l0 0c0,0 0,0 0,0 0,0 0,1 0,1 1,0 1,-1 1,-1 0,0 0,0 -1,0zm0 4l0 0c0,0 0,1 0,1 0,0 0,0 0,0 1,0 1,0 1,0 0,0 0,-1 -1,-1zm0 1l0 0c0,0 0,0 0,0 0,1 0,1 0,1 1,0 1,0 1,-1 0,0 0,0 -1,0zm0 1l0 0c0,0 0,0 0,0 0,0 0,0 0,0 1,0 1,0 1,0 0,0 0,0 -1,0zm0 -2l0 0c0,0 0,0 0,0 0,0 0,0 0,0 1,0 1,0 1,0 0,0 0,0 -1,0zm0 16l0 0c0,0 0,1 0,1 0,0 0,0 0,0 1,0 1,0 1,0 0,0 0,-1 -1,-1zm0 0l0 0c0,0 0,0 0,0 0,0 0,0 0,0 1,0 1,0 1,0 0,0 0,0 -1,0zm0 -2l0 0c0,0 0,0 0,0 0,1 0,1 0,1 1,0 1,0 1,-1 0,0 0,0 -1,0zm0 -5l0 0c0,0 0,0 0,0 0,0 0,0 0,0 1,0 1,0 1,0 0,0 0,0 -1,0zm0 8l0 0c0,0 0,0 0,0 0,1 0,1 0,1 1,0 1,0 1,-1 0,0 0,0 -1,0zm0 1l0 0c0,0 0,0 0,0 0,0 0,0 0,0 1,0 1,0 1,0 0,0 0,0 -1,0zm0 -3l0 0c0,0 0,0 0,0 0,0 0,0 0,0 1,0 1,0 1,0 0,0 0,0 -1,0zm0 -5l0 0c0,0 0,0 0,1 0,0 0,0 0,0 1,0 1,0 1,0 0,-1 0,-1 -1,-1zm0 1l0 0c0,0 0,0 0,0 0,0 0,1 0,1 1,0 1,-1 1,-1 0,0 0,0 -1,0zm0 -1l0 0c0,0 0,0 0,0 0,0 0,0 0,0 1,0 1,0 1,0 0,0 0,0 -1,0zm-7 3l0 0 0 -11c0,0 0,0 0,0 0,0 0,-1 0,-1 0,0 0,1 0,1 0,0 0,0 0,0l0 11 3 4 0 2 0 0 0 -2 -3 -4zm0 -11l0 0c0,0 0,0 0,0 0,0 0,0 0,0 0,0 0,0 0,0 0,0 0,0 0,0zm7 11l0 0c0,0 0,0 0,0 0,0 0,0 0,0 1,0 1,0 1,0 0,0 0,0 -1,0zm0 0l0 0c0,0 0,0 0,1 0,0 0,0 0,0 1,0 1,0 1,0 0,-1 0,-1 -1,-1zm15 -19l0 0c0,-1 0,-1 0,-1 0,0 0,0 0,1 0,0 0,0 0,0l0 10c0,0 0,0 0,0 0,0 0,0 0,0 0,0 0,0 0,0 0,0 0,0 0,0l0 -10c0,0 0,0 0,0zm0 10l0 0c0,0 0,0 0,0 0,0 0,0 0,0 0,0 0,0 0,0 0,0 0,0 0,0zm0 -10l0 0c0,0 0,0 0,0 0,0 0,-1 0,-1 0,0 0,1 0,1 0,0 0,0 0,0zm-20 -37l0 0 2 2 0 5 3 5 0 6 8 4 0 10 -1 2 0 5c0,0 -1,0 -1,1 0,0 1,0 1,0 0,0 0,0 0,0 0,-1 0,-1 0,-1l0 -5 1 -2 0 -10 -8 -5 0 -5 -3 -5 0 -5 -2 -2 0 -5 -2 -3 0 -4 -1 0 0 4 3 3 0 5zm12 40l0 0c0,0 0,0 0,0 0,0 0,0 0,0 0,-1 0,-1 0,-1 0,0 0,0 0,1zm-11 -40l0 0 1 2 0 5 4 5 0 6 8 4 0 10 -2 2 0 6c0,0 0,0 0,0 0,0 0,0 0,0 0,0 1,0 1,0 0,0 0,0 -1,0l0 -6 2 -2 0 -10 -8 -5 0 -5 -4 -5 0 -5 -1 -2 0 -5 -3 -3 0 -4 0 0 0 4 3 3 0 5zm11 40l0 0c0,0 0,0 0,0 0,0 0,0 0,0 0,0 0,0 0,0l0 0c0,0 0,0 0,0zm8 -17l0 0c0,0 0,0 0,0 0,0 0,0 0,0 0,0 0,0 0,0l-3 0 -2 2 0 9 1 1 0 5c0,0 0,0 0,0 1,0 1,0 1,0 0,0 0,0 0,0l0 -5 -1 -1 0 -9 2 -2 2 0zm0 0l0 0c0,0 0,0 0,0 0,0 0,0 0,0 0,0 0,0 0,0 0,0 0,0 0,0zm-4 17l0 0c0,0 1,0 1,0 0,0 -1,0 -1,0 0,0 0,0 0,0 0,0 0,0 0,0zm-16 -40l0 0 1 2 0 5 4 5 0 6 8 4 0 10 -2 2 0 6c0,0 0,0 0,0 0,0 0,0 0,0 0,0 1,0 1,0 0,0 0,0 -1,0l0 -6 2 -2 0 -10 -8 -5 0 -5 -4 -5 0 -5 -1 -2 0 -5 -3 -3 0 -4 0 0 0 4 3 3 0 5zm11 40l0 0c0,0 0,0 0,0 0,0 0,0 0,0 0,0 0,0 0,0l0 0c0,0 0,0 0,0zm-12 -40l0 0 2 2 0 5 3 5 0 6 8 4 0 10 -1 2 0 5c0,0 -1,0 -1,1 0,0 1,0 1,0 0,0 0,0 0,0 0,-1 0,-1 0,-1l0 -5 1 -2 0 -10 -8 -5 0 -5 -3 -5 0 -5 -2 -2 0 -5 -2 -3 0 -4 -1 0 0 4 3 3 0 5zm12 40l0 0c0,0 0,0 0,0 0,0 0,0 0,0 0,-1 0,-1 0,-1 0,0 0,0 0,1zm6 -16l0 0 4 0c1,0 1,0 1,0 0,0 0,0 -1,0l-4 0c0,0 0,0 0,0 0,0 0,0 0,0zm4 0l0 0c1,0 1,0 1,0 0,0 0,0 -1,0 0,0 0,0 0,0 0,0 0,0 0,0zm-4 0l0 0c0,0 1,0 1,0 0,0 -1,0 -1,0 0,0 0,0 0,0 0,0 0,0 0,0zm-19 -24l0 0 2 2 0 5 4 5 0 6 8 4 0 10 -2 2 0 6c0,0 0,0 0,0 0,0 0,0 0,0 0,0 1,0 1,0 0,0 -1,0 -1,0l0 -6 2 -2 0 -10 -8 -5 0 -5 -4 -5 0 -5 -1 -2 0 -5 -3 -3 0 -4 0 0 0 4 2 3 0 5zm12 40l0 0c0,0 0,0 0,0 0,0 0,0 0,0 0,0 0,0 0,0l0 0c0,0 0,0 0,0zm-5 -8l0 0c0,0 0,0 0,0l0 -7 -1 -1 0 -1c0,0 0,0 0,-1 0,0 0,0 0,0 0,0 0,0 0,0 0,1 0,1 0,1l0 1 1 1 0 7c0,0 0,0 0,0 0,0 0,0 0,0 0,0 0,0 0,0zm-1 -9l0 0c0,0 0,0 0,-1 0,0 0,0 0,0 0,0 0,0 0,0 0,1 0,1 0,1l0 0zm1 9l0 0c0,0 0,0 0,0 0,0 0,0 0,0 0,0 0,0 0,0 0,0 0,0 0,0zm16 -5l0 0 2 0c0,0 1,0 1,0 0,0 0,0 0,0 0,-1 0,-1 0,-1 0,0 -1,0 -1,1l-2 0 -1 0 0 6c0,0 0,0 0,0 0,0 0,0 0,0 1,0 1,0 1,0 0,0 0,0 0,0l0 -6 0 0zm3 -1l0 0c0,0 0,1 0,1 0,0 0,0 0,0 0,0 0,0 0,0 0,0 0,-1 0,-1zm-3 7l0 0c0,0 0,0 -1,0 0,0 0,0 0,0 0,0 0,0 0,0 1,0 1,0 1,0zm-2 4l0 0c0,0 0,0 0,0l0 10c0,0 0,0 0,0 0,0 0,0 0,0 0,0 0,0 0,0 0,0 0,0 0,0l0 -10c0,0 0,0 0,0 0,-1 0,-1 0,-1 0,0 0,0 0,1zm0 10l0 0c0,0 0,0 0,0 0,0 0,0 0,0 0,0 0,0 0,0 0,0 0,0 0,0zm0 -10l0 0c0,0 0,0 0,0 0,0 0,0 0,0 0,0 0,-1 0,-1 0,0 0,1 0,1zm-3 -8l0 0c0,0 0,0 0,0 0,0 0,0 0,0l0 4c0,0 0,0 0,0 0,0 0,1 0,1 1,0 1,-1 1,-1l0 -4c0,0 0,0 -1,0zm0 0l0 0c0,0 1,0 1,0 0,0 -1,0 -1,0 0,0 0,0 0,0 0,0 0,0 0,0zm0 4l0 0c0,0 0,0 0,0 0,0 0,0 0,0 0,0 1,0 1,0 0,0 -1,0 -1,0zm7 -8l0 0c0,0 0,0 0,0 0,0 0,0 0,0 0,0 0,0 0,0l-5 0c0,0 0,0 0,0 0,0 -1,0 -1,0 0,0 1,0 1,0 0,0 0,0 0,0l5 0c0,0 0,0 0,0zm0 0l0 0c0,0 0,0 0,0 0,0 0,0 0,0 0,0 0,0 0,0 0,0 0,0 0,0zm-5 0l0 0c0,0 0,0 0,0 0,0 0,0 0,0 0,0 0,0 0,0 0,0 0,0 0,0zm-2 10l0 0c0,0 0,0 -1,0 0,0 0,0 0,0l0 4c0,0 0,1 0,1 1,0 1,-1 1,-1 0,0 0,0 0,0l0 -4c0,0 0,0 0,0zm-1 4l0 0c0,0 0,0 0,0 0,0 0,0 0,0 0,0 0,0 0,0 0,0 0,0 0,0zm0 -4l0 0c0,0 0,0 0,0 0,0 0,0 0,0 0,0 0,0 0,0 0,0 0,0 0,0zm-10 0l0 0c0,0 0,0 0,0 0,0 0,0 0,0 1,0 1,0 1,0 0,0 0,0 -1,0zm0 3l0 0c0,0 0,0 0,0 0,0 0,0 0,0 1,0 1,0 1,0 0,0 0,0 -1,0zm-10 -38l0 0 1 2 0 5 4 5 0 6 8 4 0 10 -1 2 0 5c0,0 -1,0 -1,1 0,0 1,0 1,0 0,0 0,0 0,0 0,-1 0,-1 0,-1l0 -5 1 -2 0 -10 -8 -5 0 -5 -3 -5 0 -5 -2 -2 0 -5 -2 -3 0 -4 -1 0 0 4 3 3 0 5zm12 40l0 0c0,0 0,0 0,0 0,0 0,0 0,0 0,-1 0,-1 0,-1 0,0 0,0 0,1zm-2 -6l0 0c0,0 0,0 0,0 0,0 0,0 0,0 1,0 1,0 1,0 0,0 0,0 -1,0zm0 1l0 0c0,0 0,0 0,1 0,0 0,0 0,0 1,0 1,0 1,0 0,-1 0,-1 -1,-1zm0 1l0 0c0,0 0,0 0,0 0,0 0,1 0,1 1,0 1,-1 1,-1 0,0 0,0 -1,0zm0 1l0 0c0,0 0,0 0,0 0,0 0,0 0,0 1,0 1,0 1,0 0,0 0,0 -1,0zm-8 -37l0 0 1 2 0 5 4 5 0 6 8 4 0 10 -1 2 0 5c0,0 -1,0 -1,1 0,0 1,0 1,0 0,0 0,0 0,0 0,-1 0,-1 0,-1l0 -5 1 -2 0 -10 -8 -5 0 -5 -3 -5 0 -5 -2 -2 0 -5 -2 -3 0 -4 -1 0 0 4 3 3 0 5zm12 40l0 0c0,0 0,0 0,0 0,0 0,0 0,0 0,-1 0,-1 0,-1 0,0 0,0 0,1zm-11 -40l0 0 2 2 0 5 3 5 0 6 8 4 0 10 -1 2 0 5c0,0 -1,0 -1,1 0,0 1,0 1,0 0,0 0,0 0,0 0,-1 0,-1 0,-1l0 -5 1 -2 0 -10 -8 -5 0 -5 -3 -5 0 -5 -2 -2 0 -5 -2 -3 0 -4 -1 0 0 4 3 3 0 5zm12 40l0 0c0,0 0,0 0,0 0,0 0,0 0,0 0,-1 0,-1 0,-1 0,0 0,0 0,1zm-15 -40l0 0 2 2 0 5 4 5 0 6 8 4 0 10 -2 2 0 6c0,0 0,0 0,0 0,0 0,0 0,0 0,0 1,0 1,0 0,0 -1,0 -1,0l0 -6 2 -2 0 -10 -8 -5 0 -5 -4 -5 0 -5 -1 -2 0 -5 -3 -3 0 -4 0 0 0 4 2 3 0 5zm12 40l0 0c0,0 0,0 0,0 0,0 0,0 0,0 0,0 0,0 0,0l0 0c0,0 0,0 0,0zm-10 -40l0 0 2 2 0 5 4 5 0 6 8 4 0 10 -2 2 0 6c0,0 0,0 0,0 0,0 0,0 0,0 0,0 1,0 1,0 0,0 -1,0 -1,0l0 -6 2 -2 0 -10 -8 -5 0 -5 -4 -5 0 -5 -1 -2 0 -5 -3 -3 0 -4 0 0 0 4 2 3 0 5zm12 40l0 0c0,0 0,0 0,0 0,0 0,0 0,0 0,0 0,0 0,0l0 0c0,0 0,0 0,0zm-13 -40l0 0 2 2 0 5 4 5 0 6 8 4 0 10 -2 2 0 6c0,0 0,0 0,0 0,0 0,0 0,0 0,0 1,0 1,0 0,0 -1,0 -1,0l0 -6 2 -2 0 -10 -8 -5 0 -5 -4 -5 0 -5 -1 -2 0 -5 -3 -3 0 -4 0 0 0 4 2 3 0 5zm12 40l0 0c0,0 0,0 0,0 0,0 0,0 0,0 0,0 0,0 0,0l0 0c0,0 0,0 0,0zm-12 -40l0 0 1 2 0 5 4 5 0 6 8 4 0 10 -1 2 0 5c0,0 -1,0 -1,1 0,0 1,0 1,0 0,0 0,0 0,0 0,-1 0,-1 0,-1l0 -5 1 -2 0 -10 -8 -5 0 -5 -3 -5 0 -5 -2 -2 0 -5 -2 -3 0 -4 -1 0 0 4 3 3 0 5zm12 40l0 0c0,0 0,0 0,0 0,0 0,0 0,0 0,-1 0,-1 0,-1 0,0 0,0 0,1zm-3 -5l0 0c0,0 -1,0 -1,0 0,0 1,0 1,0 0,0 0,0 0,0 0,0 0,0 0,0zm-3 1l0 0c0,0 0,0 0,0 -1,0 -1,0 -1,0 0,0 0,0 1,0l0 3c-1,0 -1,0 -1,1 0,0 0,0 1,0 0,0 0,0 0,0 0,-1 0,-1 0,-1l0 -3c0,0 0,0 0,0zm0 4l0 0c0,0 0,0 0,0 0,0 -1,0 -1,0 0,-1 1,-1 1,-1 0,0 0,0 0,1zm0 -4l0 0 0 0c0,0 -1,0 -1,0 0,0 1,0 1,0 0,0 0,0 0,0 0,0 0,0 0,0zm0 15l0 0c0,0 0,0 0,0 -1,0 -1,0 -1,0 0,0 0,0 1,0l0 5c-1,0 -1,0 -1,0 0,0 0,1 1,1 0,0 0,-1 0,-1 0,0 0,0 0,0l0 -5c0,0 0,0 0,0zm0 5l0 0c0,0 0,0 0,0 0,0 -1,0 -1,0 0,0 1,0 1,0l0 0c0,0 0,0 0,0zm0 -5l0 0c0,0 -1,0 -1,0 0,0 1,0 1,0 0,0 0,0 0,0 0,0 0,0 0,0zm1 -14l0 0c0,0 0,0 0,0 0,0 0,0 0,0 0,0 0,0 0,0 0,0 0,0 0,0l0 2 -1 2 0 8c-1,0 -1,1 -1,1 0,0 0,0 1,0 0,0 0,0 0,0 0,0 0,-1 0,-1l0 -8 1 -2 0 -2zm-1 13l0 0c0,0 0,0 0,0 0,0 -1,0 -1,0 0,0 1,0 1,0 0,0 0,0 0,0zm1 -13l0 0c0,0 0,0 0,0 0,0 0,0 0,0 0,0 0,0 0,0 0,0 0,0 0,0l0 0zm-3 6l0 0c0,0 0,0 0,0l0 -7 2 -2 0 -14 -4 -3 0 -5 -3 -5 0 -5 -2 -2 0 -5c0,0 0,0 0,-1 0,0 0,0 0,0 0,0 0,0 0,0 0,1 0,1 0,1l0 5 1 2 0 5 4 5 0 6 4 2 0 14 -2 2 0 7c0,0 0,0 0,0 0,0 0,0 0,0 0,0 0,0 0,0zm-7 -48l0 0c0,0 0,0 0,-1 0,0 0,0 0,0 0,0 0,0 0,0 0,1 0,1 0,1l0 0zm7 48l0 0c0,0 0,0 0,0 0,0 0,0 0,0 0,0 0,0 0,0 0,0 0,0 0,0zm-8 -48l0 0 0 5 1 2 0 5 4 5 0 6 4 2 0 14 -2 2 0 7c0,0 0,0 0,0 0,0 0,0 0,0 0,0 0,0 0,0 0,0 0,0 0,0l0 -7 2 -2 0 -14 -4 -3 0 -5 -3 -5 0 -5 -2 -2 0 -5c0,0 0,0 0,-1 0,0 0,0 0,0 0,0 0,0 0,0 0,1 0,1 0,1zm7 48l0 0c0,0 0,0 0,0 0,0 0,0 0,0 0,0 0,0 0,0 0,0 0,0 0,0zm-7 -49l0 0c0,0 0,0 0,0 0,1 0,1 0,1l0 0c0,0 0,0 0,-1 0,0 0,0 0,0zm8 42l0 0 0 7c-1,0 -1,0 -1,1 0,0 0,0 1,0 0,0 0,0 0,0 0,-1 0,-1 0,-1l0 -7 1 -2 0 -14 -3 -3 0 -5 -4 -5 0 -5 -1 -2 0 -5c0,0 0,0 0,0 0,0 0,0 -1,0 0,0 0,0 0,0 0,0 0,0 0,0l0 5 2 2 0 5 3 5 0 6 4 2 0 14 -1 2zm0 8l0 0c0,0 0,0 0,0 -1,0 -1,0 -1,0 0,-1 0,-1 1,-1l0 0c0,0 0,0 0,1zm-8 -49l0 0c0,0 0,0 0,0 1,0 1,0 1,0 0,0 0,0 -1,0 0,0 0,0 0,0zm12 32l0 0c0,0 0,0 0,0l0 5 -1 1 0 1c0,0 0,0 0,0 0,0 0,0 0,0 0,0 0,0 0,0l0 -1 1 -1 0 -5c0,0 0,0 0,0 0,0 0,0 0,0zm-1 7l0 0c0,0 0,0 0,0 0,0 0,0 0,0 0,0 0,0 0,0 0,0 0,0 0,0zm1 -7l0 0c0,0 0,0 0,0 0,0 0,0 0,0 0,0 0,0 0,0 0,0 0,0 0,0zm-1 4l0 0c0,0 0,0 0,0 0,0 0,0 0,0l0 -10c0,0 0,0 0,0 0,0 0,0 0,0 0,0 0,0 0,0l0 10c0,0 0,0 0,0zm0 -10l0 0c0,0 0,0 0,0 0,0 0,0 0,0 0,0 0,0 0,0 0,0 0,0 0,0zm0 10l0 0c0,0 0,0 0,0 0,0 0,0 0,0 0,0 0,0 0,0 0,0 0,0 0,0zm2 27l0 0c0,0 -1,0 -1,0 0,0 1,0 1,0 0,0 0,0 0,0 0,0 0,0 0,0zm0 1l0 0c0,0 -1,1 -1,1 0,0 1,0 1,0 0,0 0,0 0,0 0,0 0,-1 0,-1zm0 0l0 0c0,0 -1,0 -1,0 0,0 1,0 1,0 0,0 0,0 0,0 0,0 0,0 0,0zm0 -2l0 0c0,0 -1,0 -1,0 0,1 1,1 1,1 0,0 0,0 0,-1 0,0 0,0 0,0zm0 3l0 0c0,0 -1,0 -1,0 0,1 1,1 1,1 0,0 0,0 0,-1 0,0 0,0 0,0zm0 1l0 0c0,0 -1,0 -1,0 0,0 1,0 1,0 0,0 0,0 0,0 0,0 0,0 0,0zm-15 -41l0 0 0 14 -2 2 0 14c0,0 0,1 0,1 0,0 0,0 0,0 1,0 1,0 1,0 0,0 0,-1 -1,-1l0 -14 2 -2 0 -14 2 -2 0 -6 -4 -5 0 -5c0,0 0,0 0,0 0,0 0,0 0,0 0,0 0,0 0,0 0,0 0,0 0,0l0 5 3 5 0 5 -1 3zm-1 31l0 0c0,0 -1,0 -1,0 0,0 0,0 0,0 0,0 0,0 0,0 0,0 1,0 1,0zm-1 -49l0 0c0,0 0,0 0,0 0,0 0,0 0,0 0,0 0,0 0,0 0,0 0,0 0,0zm-1 43l0 0 0 -9 2 -2 0 -14 2 -2 0 -6c0,0 0,0 0,0 0,0 0,-1 -1,-1 0,0 0,1 0,1 0,0 0,0 0,0l0 5 -1 3 0 14 -2 2 0 9 -2 2 0 9c0,0 0,0 0,0 0,0 0,1 0,1 1,0 1,-1 1,-1 0,0 0,0 -1,0l0 -8 2 -3zm3 -33l0 0c0,0 0,0 0,0 1,0 1,0 1,0 0,0 0,0 -1,0 0,0 0,0 0,0zm-4 44l0 0c0,0 -1,0 -1,0 0,0 0,0 0,0 0,0 0,0 0,0l0 0c0,0 1,0 1,0zm3 -6l0 0c0,0 0,0 0,0l0 -14 2 -2 0 -14 1 -2 0 -6 -4 -5 0 -5c1,0 1,0 1,0 0,-1 0,-1 -1,-1 0,0 0,0 0,1 0,0 0,0 0,0l0 5 4 5 0 5 -2 3 0 14 -1 2 0 14c0,0 0,0 0,0 0,0 0,1 0,1 0,0 0,-1 0,-1zm-1 -48l0 0c0,0 0,0 0,0 0,-1 0,-1 0,-1 0,0 1,0 1,1 0,0 -1,0 -1,0l0 0zm1 48l0 0c0,0 0,0 0,0 0,0 0,0 0,0 0,0 0,0 0,0 0,0 0,0 0,0zm-1 -33l0 0c1,0 1,0 1,0l0 -7c0,0 0,0 -1,0 0,0 0,0 0,0l0 7c0,0 0,0 0,0zm0 0l0 0c0,0 0,0 0,0 0,0 0,0 0,0 0,0 1,0 1,0 0,0 -1,0 -1,0zm0 -7l0 0c0,0 1,0 1,0 0,0 -1,0 -1,0 0,0 0,0 0,0 0,0 0,0 0,0zm-3 46l0 0c0,0 0,0 0,-1l0 -7 2 -3 0 -9 1 -2 0 -14 2 -2 0 -5c0,0 0,-1 0,-1 0,0 0,0 0,0 0,0 0,0 0,0 0,0 0,1 0,1l0 4 -2 3 0 14 -1 2 0 9 -2 2 0 8c0,1 0,1 0,1 0,0 0,0 0,0 0,0 0,0 0,0zm5 -44l0 0c0,0 0,0 0,0 0,0 0,0 0,0 0,0 0,0 0,0 0,0 0,0 0,0zm-5 44l0 0c0,0 0,0 0,0 0,0 0,0 0,0 0,0 0,0 0,0 0,0 0,0 0,0zm4 -5l0 0c1,0 1,0 1,0 0,0 0,-1 -1,-1l0 -14 2 -2 0 -14 2 -2 0 -6 -4 -5 0 -5c0,0 0,0 0,0 0,0 0,0 0,0 0,0 0,0 0,0 0,0 0,0 0,0l0 5 3 5 0 5 -1 3 0 14 -2 2 0 14c0,0 0,1 0,1 0,0 0,0 0,0zm0 -49l0 0c0,0 0,0 0,0 0,0 0,0 0,0 0,0 0,0 0,0 0,0 0,0 0,0zm0 49l0 0c1,0 1,0 1,0 0,0 0,0 -1,0 0,0 0,0 0,0 0,0 0,0 0,0zm3 -44l0 0 3 5 0 6 4 2 0 14 -2 2 0 7c0,0 0,0 0,1 0,0 0,0 1,0 0,0 0,0 0,0 0,-1 0,-1 0,-1l0 -7 1 -2 0 -14 -3 -3 0 -5 -4 -5 0 -5 -1 -2 0 -12 -1 0 0 12 2 2 0 5zm6 37l0 0c0,0 0,0 0,0 -1,0 -1,0 -1,0 0,-1 0,-1 1,-1l0 0c0,0 0,0 0,1zm-8 6l0 0c0,0 0,0 0,0l0 -14 2 -2 0 -14 1 -2 0 -6 -4 -5 0 -5 -1 -2 0 -2c0,0 0,0 0,0 0,-1 0,-1 0,-1 0,0 0,0 0,1 0,0 0,0 0,0l0 2 1 2 0 5 4 5 0 5 -2 3 0 14 -1 2 0 14c0,0 0,0 0,0 0,0 0,1 0,1 0,0 0,-1 0,-1zm-2 -52l0 0c0,-1 0,-1 0,-1 0,0 0,0 0,1 0,0 0,0 0,0 0,0 0,0 0,0zm2 52l0 0c0,0 0,0 0,0 0,0 0,0 0,0 0,0 0,0 0,0 0,0 0,0 0,0zm1 -55l0 0 0 5 2 2 0 5 3 5 0 6 4 2 0 14 -2 2 0 7c0,0 0,0 0,1 0,0 0,0 1,0 0,0 0,0 0,0 0,-1 0,-1 0,-1l0 -7 1 -2 0 -14 -3 -3 0 -5 -4 -5 0 -5 -1 -2 0 -5c0,0 0,0 0,0 0,0 0,0 -1,0 0,0 0,0 0,0 0,0 0,0 0,0zm8 49l0 0c0,0 0,0 0,0 -1,0 -1,0 -1,0 0,-1 0,-1 1,-1l0 0c0,0 0,0 0,1zm-8 -49l0 0c1,0 1,0 1,0 0,0 0,0 -1,0 0,0 0,0 0,0 0,0 0,0 0,0zm1 12l0 0 4 5 0 6 4 2 0 14 -2 2 0 7c0,0 0,0 0,0 0,0 0,0 0,0 0,0 0,0 0,0 0,0 0,0 0,0l0 -7 2 -2 0 -14 -4 -3 0 -5 -3 -5 0 -5 -2 -2 0 -12 0 0 0 12 1 2 0 5zm6 36l0 0c0,0 0,0 0,0 0,0 0,0 0,0 0,0 0,0 0,0 0,0 0,0 0,0zm7 -9l0 0c0,0 -1,0 -1,0 0,0 1,0 1,0 0,0 0,0 0,0 0,0 0,0 0,0zm-16 -38l0 0c0,0 0,0 -1,0 0,0 0,0 0,0 0,0 0,0 0,0l0 4 2 2 0 5 3 5 0 5 -1 3 0 14 -2 2 0 14c0,0 0,1 0,1 0,0 0,0 0,0 1,0 1,0 1,0 0,0 0,-1 0,-1l0 -14 1 -2 0 -14 2 -2 0 -6 -4 -5 0 -5 -2 -2 0 -4c1,0 1,0 1,0zm2 55l0 0c0,0 0,0 -1,0 0,0 0,0 0,0 0,0 0,0 0,0 1,0 1,0 1,0zm-3 -55l0 0 0 0c0,0 0,0 0,0 0,0 0,0 0,0 0,0 1,0 1,0 0,0 -1,0 -1,0zm3 11l0 0 4 5 0 6 3 2 0 14 -1 2 0 7c0,0 0,0 0,0 0,0 0,0 0,0 0,0 0,0 0,0 0,0 0,0 0,0l0 -7 2 -2 0 -14 -4 -3 0 -5 -3 -5 0 -5 -2 -2 0 -12 0 0 0 12 1 2 0 5zm6 36l0 0c0,0 0,0 0,0 0,0 0,0 0,0 0,0 0,0 0,0 0,0 0,0 0,0zm8 0l0 0c0,0 -1,1 -1,1 0,0 1,0 1,0 0,0 0,0 0,0 0,0 0,-1 0,-1zm0 -4l0 0c0,0 -1,0 -1,0 0,0 1,1 1,1 0,0 0,-1 0,-1 0,0 0,0 0,0zm0 4l0 0c0,0 -1,0 -1,0 0,0 1,0 1,0 0,0 0,0 0,0 0,0 0,0 0,0zm0 1l0 0c0,0 -1,0 -1,0 0,1 1,1 1,1 0,0 0,0 0,-1 0,0 0,0 0,0zm0 1l0 0c0,0 -1,0 -1,0 0,0 1,0 1,0 0,0 0,0 0,0 0,0 0,0 0,0zm0 1l0 0c0,0 -1,1 -1,1 0,0 1,0 1,0 0,0 0,0 0,0 0,0 0,-1 0,-1zm0 0l0 0c0,0 -1,0 -1,0 0,0 1,0 1,0 0,0 0,0 0,0 0,0 0,0 0,0zm0 -11l0 0c0,0 -1,0 -1,1 0,0 1,0 1,0 0,0 0,0 0,0 0,-1 0,-1 0,-1zm0 1l0 0c0,0 -1,0 -1,0 0,0 1,1 1,1 0,0 0,-1 0,-1 0,0 0,0 0,0zm0 2l0 0c0,0 -1,0 -1,1 0,0 1,0 1,0 0,0 0,0 0,0 0,-1 0,-1 0,-1zm14 14l0 0 0 -1 0 -3 0 0 0 4zm-14 -15l0 0c0,0 -1,0 -1,0 0,0 1,0 1,0 0,0 0,0 0,0 0,0 0,0 0,0zm0 1l0 0c0,0 -1,0 -1,0 0,0 1,0 1,0 0,0 0,0 0,0 0,0 0,0 0,0zm0 12l0 0c0,0 -1,0 -1,0 0,0 1,0 1,0 0,0 0,0 0,0 0,0 0,0 0,0zm0 -3l0 0c0,0 -1,0 -1,0 0,1 1,1 1,1 0,0 0,0 0,-1 0,0 0,0 0,0zm0 6l0 0c0,0 -1,0 -1,0 0,0 1,0 1,0 0,0 0,0 0,0 0,0 0,0 0,0zm0 1l0 0c0,0 -1,0 -1,0 0,0 1,1 1,1 0,0 0,-1 0,-1 0,0 0,0 0,0zm0 -2l0 0c0,0 -1,0 -1,0 0,0 1,0 1,0 0,0 0,0 0,0 0,0 0,0 0,0zm0 4l0 0c0,0 -1,0 -1,0 0,0 1,0 1,0 0,0 0,0 0,0 0,0 0,0 0,0zm0 -1l0 0c0,0 -1,0 -1,0 0,0 1,0 1,0 0,0 0,0 0,0 0,0 0,0 0,0zm0 -2l0 0c0,0 -1,0 -1,1 0,0 1,0 1,0 0,0 0,0 0,0 0,-1 0,-1 0,-1zm0 -5l0 0c0,0 -1,0 -1,0 0,0 1,0 1,0 0,0 0,0 0,0 0,0 0,0 0,0zm0 1l0 0c0,0 -1,0 -1,0 0,0 1,0 1,0 0,0 0,0 0,0 0,0 0,0 0,0zm0 1l0 0c0,0 -1,0 -1,1 0,0 1,0 1,0 0,0 0,0 0,0 0,-1 0,-1 0,-1zm0 6l0 0c0,0 -1,0 -1,1 0,0 1,0 1,0 0,0 0,0 0,0 0,-1 0,-1 0,-1zm0 -5l0 0c0,0 -1,0 -1,0 0,0 1,1 1,1 0,0 0,-1 0,-1 0,0 0,0 0,0zm0 4l0 0c0,0 0,0 0,0 0,0 0,0 0,0 1,0 1,0 1,0 0,0 0,0 -1,0zm-30 -19l0 0c0,0 0,0 0,0 0,-1 0,-1 0,-1 0,0 0,0 0,1 0,0 0,0 0,0l0 11 -4 3 0 12 0 0 0 -11 4 -3 0 -12zm0 0l0 0c0,0 0,-1 0,-1 0,0 0,1 0,1 0,0 0,0 0,0 0,0 0,0 0,0zm1 0l0 0c0,0 0,0 0,0 0,0 0,0 0,0 -1,0 -1,0 -1,0 0,0 0,0 1,0l0 11 -4 3 0 12 0 0 0 -11 4 -3 0 -12zm-1 0l0 0c0,0 1,0 1,0 0,0 0,0 0,0 0,0 0,0 0,0 0,0 -1,0 -1,0zm1 0l0 0c0,0 0,0 0,0 0,-1 0,-1 0,-1 0,0 0,0 0,1 0,0 0,0 0,0l0 11 -4 3 0 12 0 0 0 -11 4 -3 0 -12zm0 0l0 0c0,0 0,-1 0,-1 0,0 0,1 0,1 0,0 0,0 0,0 0,0 0,0 0,0zm1 0l0 0c0,0 0,0 0,0 0,0 0,0 0,0 0,0 -1,0 -1,0 0,0 0,0 1,0l0 11 -4 3 0 12 0 0 0 -11 4 -3 0 -12zm0 0l0 0c0,0 0,0 0,0 0,0 0,0 0,0 0,0 0,0 0,0 0,0 0,0 0,0zm-2 12l0 0 0 -12c0,0 0,0 0,0 0,0 0,0 0,0 -1,0 -1,0 -1,0 0,0 0,0 1,0l0 11 -4 3 0 12 0 0 0 -11 4 -3zm-1 -12l0 0c0,0 1,0 1,0 0,0 0,0 0,0 0,0 0,0 0,0 0,0 -1,0 -1,0zm0 0l0 0c0,0 0,0 0,0 0,-1 0,-1 0,-1 0,0 0,0 0,1 0,0 0,0 0,0l0 11 -4 3 0 12 0 0 0 -11 4 -3 0 -12zm0 0l0 0c0,0 0,-1 0,-1 0,0 0,1 0,1 0,0 0,0 0,0 0,0 0,0 0,0zm0 16l0 0c0,0 0,0 0,0 0,1 0,1 0,1l0 9 0 0 0 -9c0,0 0,0 0,-1 0,0 0,0 0,0zm0 1l0 0c0,0 0,-1 0,-1 0,0 0,0 0,0 0,0 0,0 0,0 0,0 0,1 0,1zm2 -1l0 0c-1,0 -1,0 -1,0 0,0 0,0 1,0l0 10 0 0 0 -10c0,0 0,0 0,0 0,0 0,0 0,0zm0 0l0 0 0 0c0,0 -1,0 -1,0 0,0 1,0 1,0 0,0 0,0 0,0 0,0 0,0 0,0zm1 -62l0 0c1,0 1,0 1,0 0,-1 0,-1 -1,-1 0,0 0,0 0,1l-9 0 0 0 9 0c0,0 0,0 0,0zm0 0l0 0c0,-1 0,-1 0,-1 0,0 1,0 1,1 0,0 -1,0 -1,0 0,0 0,0 0,0l0 0zm-1 60l0 0c0,0 0,0 0,0 0,0 0,0 0,0l0 12 0 0 0 -12c0,0 0,0 0,0 0,0 0,0 0,0zm0 0l0 0c0,0 0,0 0,0 0,0 0,0 0,0 0,0 0,0 0,0 0,0 0,0 0,0zm-1 2l0 0c0,0 0,0 0,0 -1,0 -1,0 -1,0 0,0 0,0 1,0l0 10 0 0 0 -10c0,0 0,0 0,0zm0 0l0 0 0 0c0,0 -1,0 -1,0 0,0 1,0 1,0 0,0 0,0 0,0 0,0 0,0 0,0zm3 -16l0 0c0,-1 -1,-1 -1,-1 0,0 0,0 0,1 0,0 0,0 0,0l0 11 -4 3 0 12 0 0 0 -11 4 -3 0 -12c0,0 1,0 1,0zm-1 0l0 0c0,0 0,0 0,0 0,0 0,-1 0,-1 0,0 0,1 0,1 0,0 0,0 0,0zm-1 -36l0 0c1,0 1,0 1,0 0,0 0,-1 -1,-1 0,0 0,1 0,1l-8 0 0 0 8 0c0,0 0,0 0,0zm0 0l0 0c0,0 1,0 1,0 0,0 -1,0 -1,0 0,0 0,0 0,0 0,0 0,0 0,0zm0 -2l0 0c1,0 1,0 1,0 0,0 0,-1 -1,-1 0,0 0,1 0,1l-8 0 0 0 8 0c0,0 0,0 0,0zm0 0l0 0c0,0 1,0 1,0 0,0 -1,0 -1,0 0,0 0,0 0,0 0,0 0,0 0,0zm-1 -3l0 0 2 0c0,0 0,0 0,0 0,0 0,-1 0,-1l0 0 -2 0 -1 1 -6 0 0 1 6 0 1 -1zm2 0l0 0c0,0 0,0 0,0 0,0 0,0 0,0 0,0 0,0 0,0 0,0 0,0 0,0zm0 -4l0 0c1,0 1,0 1,0 0,-1 0,-1 -1,-1 0,0 0,0 0,1l-9 0 0 0 9 0c0,0 0,0 0,0zm0 0l0 0c0,0 0,-1 0,-1 0,0 1,1 1,1 0,0 -1,0 -1,0 0,0 0,0 0,0l0 0zm-5 5l0 0 0 0c-1,0 -1,1 -1,1 0,0 0,0 1,0l4 0c0,0 0,0 0,0 0,0 0,-1 0,-1l0 0 0 0 -4 0zm0 1l0 0c0,0 -1,0 -1,0 0,0 1,0 1,0 0,0 0,0 0,0 0,0 0,0 0,0zm4 0l0 0c0,0 0,0 0,0 0,0 0,0 0,0 0,0 0,0 0,0 0,0 0,0 0,0zm1 -8l0 0c1,0 1,0 1,0 0,-1 0,-1 -1,-1 0,0 0,0 0,0l-9 0 0 1 9 0c0,0 0,0 0,0zm0 -1l0 0c0,0 1,0 1,1 0,0 -1,0 -1,0 0,0 0,0 0,0 0,-1 0,-1 0,-1zm0 2l0 0c0,0 0,0 0,0 0,0 0,0 0,0 0,0 0,0 0,0l-9 0 0 0 9 0c0,0 0,0 0,0zm0 0l0 0c0,0 0,0 0,0 0,0 0,0 0,0 0,0 0,0 0,0 0,0 0,0 0,0zm-1 12l0 0c1,0 1,0 1,0 0,0 0,-1 -1,-1 0,0 0,1 0,1l-8 0 0 0 8 0c0,0 0,0 0,0zm0 0l0 0c0,0 0,0 0,0 0,0 1,0 1,0 0,0 -1,0 -1,0 0,0 0,0 0,0l0 0zm1 1l0 0 -6 0c-1,0 -1,0 -1,0 0,0 0,1 1,1 0,0 0,0 0,0l6 0c0,0 0,0 0,0 0,0 0,-1 0,-1 0,0 0,0 0,0zm-6 0l0 0c0,0 -1,0 -1,0 0,0 1,0 1,0 0,0 0,0 0,0 0,0 0,0 0,0zm6 0l0 0c0,0 0,0 0,0 0,0 0,0 0,0 0,0 0,0 0,0 0,0 0,0 0,0zm-1 1l0 0 -2 1 0 14 0 1 -3 0c0,0 0,0 0,1 0,0 0,0 0,0 0,0 0,0 0,0l3 0 1 -1 0 -15 1 0 1 0c0,0 0,-1 0,-1 0,0 0,0 0,0l-1 0zm-5 17l0 0c0,0 0,0 0,0 0,-1 0,-1 0,-1 0,0 0,0 0,1 0,0 0,0 0,0zm6 -17l0 0c0,0 0,0 0,0 0,0 0,0 0,0 0,0 0,0 0,0 0,0 0,0 0,0zm0 45l0 0c0,0 -1,0 -1,0 0,0 0,1 1,1l0 12 0 0 0 -12c0,0 0,-1 0,-1 0,0 0,0 0,0zm0 1l0 0 0 0c0,0 0,-1 0,-1 0,0 0,0 0,0 0,0 0,0 0,0 0,0 0,1 0,1zm-1 -49l0 0c1,0 1,0 1,0 0,0 0,-1 -1,-1 0,0 0,1 0,1l-8 0 0 0 8 0c0,0 0,0 0,0zm0 0l0 0c0,0 1,0 1,0 0,0 -1,0 -1,0 0,0 0,0 0,0 0,0 0,0 0,0zm0 -2l0 0c1,0 1,0 1,0 0,0 0,-1 -1,-1 0,0 0,1 0,1l-8 0 0 0 8 0c0,0 0,0 0,0zm0 0l0 0c0,0 1,0 1,0 0,0 -1,0 -1,0 0,0 0,0 0,0 0,0 0,0 0,0zm-1 53l0 0c0,0 0,0 0,0 0,1 0,1 0,1l0 9 0 0 0 -9c0,0 0,0 0,-1 0,0 0,0 0,0zm0 1l0 0c0,0 0,-1 0,-1 0,0 0,0 0,0 0,0 0,0 0,0 0,0 0,1 0,1zm15 0l0 0c0,0 0,0 0,0 0,0 0,0 0,0l0 9 1 0 0 -9c0,0 0,0 0,0 0,0 0,0 -1,0zm0 0l0 0 0 0c0,0 0,0 0,0 0,0 0,0 0,0 1,0 1,0 1,0 0,0 0,0 -1,0zm29 -6l0 0c0,0 0,0 0,0 1,0 1,0 1,0 0,0 0,-1 0,-1l0 -9c0,0 0,0 0,0 0,0 0,0 -1,0 0,0 0,0 0,0 0,0 0,0 0,0l0 9c0,0 0,1 0,1zm0 -10l0 0c0,0 0,0 0,0 1,0 1,0 1,0 0,0 0,0 -1,0l0 0c0,0 0,0 0,0zm0 9l0 0 0 0c1,0 1,1 1,1 0,0 0,0 -1,0 0,0 0,0 0,0 0,0 0,-1 0,-1zm-28 6l0 0c0,0 0,0 0,0 0,1 0,1 0,1l0 9 0 0 0 -9c0,0 0,0 0,-1 0,0 0,0 0,0zm0 1l0 0c0,0 0,-1 0,-1 0,0 0,0 0,0 0,0 0,0 0,0 0,0 0,1 0,1zm-2 0l0 0c0,0 0,0 0,0 0,0 0,0 0,0l0 9 0 0 0 -9c1,0 1,0 1,0 0,0 0,0 -1,0zm0 0l0 0 0 0c0,0 0,0 0,0 0,0 0,0 0,0 1,0 1,0 1,0 0,0 0,0 -1,0zm5 5l0 0c0,0 0,0 0,1l-1 0 -1 1 0 2 0 0 0 -2 1 -1 1 0c0,0 0,0 0,0 0,0 0,0 0,0 0,-1 0,-1 0,-1zm0 1l0 0c0,0 0,0 0,0 0,0 0,-1 0,-1 0,0 0,1 0,1 0,0 0,0 0,0zm-5 -7l0 0c0,0 0,0 0,0 0,0 0,0 0,0 0,1 0,1 0,1l0 9 0 0 0 -9c0,0 0,0 0,-1zm0 1l0 0c0,0 0,-1 0,-1 0,0 0,0 0,0 0,0 0,0 0,0 0,0 0,1 0,1zm4 2l0 0 0 -2c0,0 0,0 -1,0 0,0 0,0 0,0 0,0 0,0 0,0l0 2 3 3 0 4 1 0 0 -4 -3 -3zm-1 -2l0 0c0,0 0,0 0,0 0,0 0,0 0,0 1,0 1,0 1,0 0,0 0,0 -1,0zm5 3l0 0 0 -11c0,0 0,0 0,0 0,0 0,-1 0,-1 0,0 0,1 0,1 0,0 0,0 0,0l0 11 3 4 0 2 0 0 0 -2 -3 -4zm0 -11l0 0c0,0 0,0 0,0 0,0 0,0 0,0 0,0 0,0 0,0 0,0 0,0 0,0zm0 1l0 0c0,0 0,-1 0,-1 0,0 0,0 0,0 -1,0 -1,0 -1,0 0,0 0,1 0,1l0 10 4 4 0 2 0 0 0 -2 -3 -4 0 -10zm0 -1l0 0c-1,0 -1,0 -1,0 0,0 0,0 1,0 0,0 0,0 0,0 0,0 0,0 0,0l0 0zm-19 14l0 0c0,0 -1,0 -1,0 0,1 0,1 1,1l0 2 0 0 0 -2c0,0 0,0 0,-1 0,0 0,0 0,0zm0 1l0 0 0 0c0,0 0,0 0,-1 0,0 0,0 0,0 0,0 0,0 0,0 0,1 0,1 0,1zm20 0l0 0c0,0 0,0 0,0l0 0 0 2 0 0 0 -2c0,0 0,0 0,0zm0 0l0 0c0,0 0,0 0,0 0,0 0,0 0,0 0,0 0,0 0,0 0,0 0,0 0,0zm-1 -2l0 0c0,0 0,0 0,0l0 0 0 4 0 0 0 -4c0,0 0,0 0,0zm0 0l0 0c0,0 0,0 0,0 0,0 0,0 0,0 0,0 0,0 0,0 0,0 0,0 0,0zm-9 -5l0 0c0,0 0,0 0,0 0,0 0,0 0,0l0 9 0 0 0 -9c1,0 1,0 1,0 0,0 0,0 -1,0zm0 0l0 0 0 0c0,0 0,0 0,0 0,0 0,0 0,0 0,0 1,0 1,0 0,0 -1,0 -1,0zm10 -7l0 0c0,0 0,-1 0,-1 0,0 0,0 0,0 -1,0 -1,0 -1,0 0,0 0,1 0,1l0 10 4 4 0 2 0 0 0 -2 -3 -4 0 -10zm0 -1l0 0c-1,0 -1,0 -1,0 0,0 0,0 1,0 0,0 0,0 0,0 0,0 0,0 0,0l0 0zm-15 13l0 0c0,0 -1,0 -1,0 0,1 1,1 1,1l0 3 0 0 0 -3c0,0 0,0 0,-1 0,0 0,0 0,0zm0 1l0 0c0,0 0,0 0,-1 0,0 0,0 0,0 0,0 0,0 0,0 0,1 0,1 0,1zm0 -1l0 0c0,0 -1,0 -1,0 0,0 0,0 0,0 0,0 0,0 0,0l0 4 0 0 0 -4c0,0 1,0 1,0zm-1 0l0 0 0 0c0,0 0,0 0,0 0,0 0,0 0,0 0,0 0,0 0,0 0,0 0,0 0,0zm4 -10l0 0c1,0 1,0 1,0 0,0 0,-1 -1,-1 0,0 0,1 0,1 0,0 0,0 0,0l0 8 2 1 0 5 0 0 0 -5 -2 -1 0 -8zm0 0l0 0c0,0 0,0 0,0 0,0 0,0 0,0 0,0 1,0 1,0 0,0 -1,0 -1,0l0 0zm-2 10l0 0c0,0 0,0 0,0 0,1 0,1 0,1l0 3 0 0 0 -3c0,0 0,0 0,-1 0,0 0,0 0,0zm0 1l0 0c0,0 0,0 0,-1 0,0 0,0 0,0 0,0 0,0 0,0 0,1 0,1 0,1zm-1 -14l0 0 0 -1c0,0 0,0 0,0 0,0 0,-1 0,-1 0,0 -1,1 -1,1 0,0 1,0 1,0l0 1 -2 2 0 15 0 0 0 -14 2 -3zm0 -1l0 0c0,0 0,0 0,0 0,0 0,0 0,0 0,0 0,0 0,0 0,0 0,0 0,0zm0 0l0 0c1,-1 1,-1 1,-1 0,0 -1,0 -1,0 0,0 0,0 0,0 0,0 0,0 0,1l0 1 -2 2 0 15 0 0 0 -14 2 -3 0 -1zm0 -1l0 0c0,0 0,0 0,0 0,0 0,0 0,0 0,0 0,0 0,0 0,0 0,0 0,0zm1 15l0 0c0,0 -1,0 -1,0 0,0 0,0 0,0 0,0 0,0 0,0l0 4 0 0 0 -4c1,0 1,0 1,0zm-1 0l0 0 0 0c0,0 0,0 0,0 0,0 0,0 0,0 0,0 0,0 0,0 0,0 0,0 0,0zm4 -1l0 0c0,0 0,0 0,0 0,1 0,1 0,1l0 4 0 0 0 -4c1,0 1,0 1,-1 0,0 0,0 -1,0zm0 1l0 0c0,0 0,0 0,-1 0,0 0,0 0,0 0,0 1,0 1,0 0,1 -1,1 -1,1zm-2 0l0 0c0,0 -1,0 -1,0 0,0 0,0 0,0 0,0 0,0 0,0l0 4 0 0 0 -4c1,0 1,0 1,0zm-1 0l0 0 0 0c0,0 0,0 0,0 0,0 0,0 0,0 0,0 1,0 1,0 0,0 -1,0 -1,0zm2 0l0 0c0,0 0,0 0,0 0,1 0,1 0,1l0 3 0 0 0 -3c0,0 0,0 0,-1 0,0 0,0 0,0zm0 1l0 0c0,0 0,0 0,-1 0,0 0,0 0,0 0,0 0,0 0,0 0,1 0,1 0,1zm0 -1l0 0c0,0 0,0 -1,0 0,0 0,0 0,0 0,0 0,0 0,0l0 4 0 0 0 -4c1,0 1,0 1,0zm-1 0l0 0 0 0c0,0 0,0 0,0 0,0 0,0 0,0 0,0 1,0 1,0 0,0 -1,0 -1,0zm0 0l0 0c0,0 0,0 0,0 0,1 0,1 0,1l0 3 0 0 0 -3c0,0 0,0 0,-1 0,0 0,0 0,0zm0 1l0 0c0,0 0,0 0,-1 0,0 0,0 0,0 0,0 0,0 0,0 0,1 0,1 0,1zm5 -7l0 0c0,0 0,0 0,0 0,0 0,0 0,0 0,1 0,1 0,1l0 9 0 0 0 -9c0,0 0,0 0,-1zm0 1l0 0c0,0 0,-1 0,-1 0,0 0,0 0,0 0,0 0,0 0,0 0,0 0,1 0,1zm48 -42l0 0 -2 1 0 5c0,0 0,0 0,0 0,0 0,0 0,0l0 -4 2 -2 5 0c0,0 0,0 0,0 0,0 0,0 0,0 0,0 0,0 0,0l-5 0zm-2 6l0 0c0,0 0,0 0,0 0,-1 0,-1 0,-1 0,0 0,0 0,1 0,0 0,0 0,0zm7 -6l0 0c0,0 0,0 0,0 0,0 0,0 0,0 0,0 0,0 0,0 0,0 0,0 0,0zm-3 12l0 0c0,0 0,0 0,0 0,0 0,0 0,0 0,0 0,0 0,0l-5 0 -1 1 0 2c0,0 0,0 0,0 0,0 0,0 0,0 0,0 1,0 1,0 0,0 -1,0 -1,0l0 -2 1 -1 5 0c0,0 0,0 0,0zm0 0l0 0c0,0 0,0 0,0 0,0 0,0 0,0 0,0 0,0 0,0 0,0 0,0 0,0zm-6 3l0 0c0,0 0,0 0,0 0,0 0,0 0,0 0,0 0,0 0,0 0,0 0,0 0,0zm1 -8l0 0 0 -5c0,0 0,0 0,0 0,0 0,0 0,0l0 5c0,0 0,0 0,0 0,0 0,0 0,0zm0 -5l0 0c0,0 0,0 0,0 0,1 0,1 0,1 0,0 0,0 0,-1 0,0 0,0 0,0zm0 5l0 0c0,0 0,0 0,0 0,0 0,0 0,0 0,0 0,0 0,0 0,0 0,0 0,0zm4 1l0 0 0 0c0,0 0,1 0,1 0,0 0,0 0,0 0,0 1,0 1,0 0,0 -1,-1 -1,-1l0 0 2 -2 0 -3c0,0 0,-1 0,-1 0,0 0,0 0,0 0,0 0,0 0,0 0,0 0,1 0,1l0 3 -2 2zm0 1l0 0c0,0 0,0 0,0 0,0 0,0 0,0 0,0 0,0 0,0l0 0c0,0 0,0 0,0zm2 -7l0 0c0,0 0,0 0,0 0,0 0,0 0,0 0,0 0,0 0,0l0 0c0,0 0,0 0,0zm-7 2l0 0c0,0 0,-1 0,-1 0,0 -1,1 -1,1 0,0 0,0 1,0l0 4 2 2 4 0c0,0 0,0 0,0 1,0 1,0 1,0 0,0 0,0 -1,0 0,0 0,0 0,0l-4 0 -2 -2 0 -4c0,0 0,0 0,0zm6 6l0 0c1,0 1,0 1,0 0,0 0,0 -1,0 0,0 0,0 0,0 0,0 0,0 0,0zm-6 -6l0 0c0,0 0,0 0,0 0,0 0,0 0,0 0,0 0,0 0,0 0,0 0,0 0,0zm7 7l0 0c0,0 0,0 -1,0 0,0 0,0 0,0l-4 0 -3 -3 0 -4c0,0 0,0 0,0 0,0 0,-1 0,-1 0,0 -1,1 -1,1 0,0 0,0 1,0l0 4 3 3 4 0c0,0 0,0 0,0 1,0 1,0 1,0zm-9 -7l0 0c0,0 1,0 1,0 0,0 0,0 0,0 0,0 0,0 0,0 0,0 -1,0 -1,0zm8 7l0 0c0,0 0,0 0,0 1,0 1,0 1,0 0,0 0,0 -1,0 0,0 0,0 0,0zm1 -4l0 0 0 -4c1,0 1,0 1,0 0,0 -1,-1 -1,-1 0,0 0,1 0,1 0,0 0,0 0,0l0 3 -1 2 0 1c0,0 -1,0 -1,0 0,0 1,1 1,1 0,0 0,-1 0,-1 0,0 0,0 0,0l0 -1 1 -1zm0 -4l0 0c0,0 0,0 0,0 0,0 1,0 1,0 0,0 -1,0 -1,0l0 0c0,0 0,0 0,0zm-1 6l0 0c0,0 0,0 0,0 0,0 0,0 0,0 0,0 0,0 0,0l0 0c0,0 0,0 0,0zm-16 -21l0 0c0,1 0,1 1,1 0,0 0,0 0,-1 0,0 0,0 0,0l0 -2c0,0 0,0 0,0 0,-1 0,-1 0,-1 -1,0 -1,0 -1,1 0,0 0,0 0,0l0 2c0,0 0,0 0,0zm0 -2l0 0c0,-1 0,-1 1,-1 0,0 0,0 0,1 0,0 0,0 0,0l0 0c-1,0 -1,0 -1,0zm1 2l0 0c0,0 0,0 0,0 0,1 0,1 0,1 -1,0 -1,0 -1,-1 0,0 0,0 1,0zm0 -1l0 0c0,-1 0,-1 0,-1 0,0 0,0 0,1 0,0 0,0 0,0l0 2c0,0 0,0 0,0 0,1 0,1 0,1 0,0 0,0 0,-1 0,0 0,0 0,0l0 -2c0,0 0,0 0,0zm0 2l0 0c0,1 0,1 0,1 0,0 0,0 0,-1 0,0 0,0 0,0 0,0 0,0 0,0zm0 -2l0 0c0,0 0,0 0,0 0,-1 0,-1 0,-1 0,0 0,0 0,1 0,0 0,0 0,0zm8 6l0 0 -6 0 -4 -4 0 -1c0,0 0,0 0,0 0,0 0,0 -1,0 0,0 0,0 0,0 0,0 0,0 0,0l0 1 5 4 6 0 1 0 0 -7c0,0 0,0 0,0 0,-1 0,-1 0,-1 0,0 -1,0 -1,1 0,0 0,0 1,0l0 7 -1 0zm-11 -5l0 0c0,0 0,0 0,0 0,0 0,0 0,0 1,0 1,0 1,0 0,0 0,0 -1,0l0 0zm12 -2l0 0c0,-1 0,-1 0,-1 0,0 0,0 0,1 0,0 0,0 0,0 0,0 0,0 0,0zm-14 -8l0 0 -1 0 0 6 1 0 0 -6zm30 20l0 0 -23 0 -10 -9 0 -2c1,0 1,0 1,0 0,-1 0,-1 -1,-1 0,0 0,0 0,1 0,0 0,0 0,0l0 2 10 9 24 0 6 -3 10 0 0 0 -10 0 -7 3zm-33 -11l0 0c0,-1 0,-1 0,-1 1,0 1,0 1,1 0,0 0,0 -1,0 0,0 0,0 0,0zm33 11l0 0 -23 0 -9 -9 0 -3c0,0 0,0 0,0 0,0 0,0 0,0 0,0 0,0 0,0 0,0 0,0 0,0l0 3 9 9 24 0 6 -3 10 0 0 0 -10 0 -7 3zm-32 -12l0 0c0,0 0,0 0,0 0,0 0,0 0,0 0,0 0,0 0,0 0,0 0,0 0,0l0 0zm5 45l0 0 0 0c0,0 -1,0 -1,0 0,0 0,0 0,0 0,0 0,0 0,0 0,0 1,0 1,0l1 0 1 -1 0 -4c0,0 0,0 0,0 0,0 0,0 0,0 -1,0 -1,0 -1,0 0,0 0,0 0,0l0 4 -1 1zm-1 0l0 0c0,0 0,0 0,0 0,0 0,0 0,0 0,0 0,0 0,0 0,0 0,0 0,0zm2 -5l0 0c0,0 0,0 1,0 0,0 0,0 0,0 0,0 0,0 0,0l0 0c-1,0 -1,0 -1,0zm-47 -48l0 0c0,0 0,0 0,0 0,0 0,0 0,0 0,0 0,0 0,0l-9 0 0 0 9 0c0,0 0,0 0,0zm0 0l0 0c0,0 0,0 0,0 0,0 0,0 0,0 0,0 0,0 0,0 0,0 0,0 0,0zm43 59l0 0 0 0 0 4 0 0 -1 0 0 2 1 0 0 0 0 1 0 -7zm-2 -1l0 0c0,0 0,0 0,0 1,0 1,0 1,0 0,0 0,-1 -1,-1l0 -9c1,0 1,0 1,0 0,0 0,0 -1,0 0,0 0,0 0,0 0,0 0,0 0,0l0 9c0,0 0,1 0,1zm0 -10l0 0c0,0 0,0 0,0 1,0 1,0 1,0 0,0 0,0 -1,0l0 0c0,0 0,0 0,0zm0 9l0 0 0 0c1,0 1,1 1,1 0,0 0,0 -1,0 0,0 0,0 0,0 0,0 0,-1 0,-1zm6 -21l0 0c0,0 -1,0 -1,1l-2 0 -2 1 0 8c0,0 0,0 0,0 0,0 0,0 0,0 1,0 1,0 1,0 0,0 0,0 0,0l0 -8 1 -1 2 0c0,0 1,0 1,0 0,0 0,0 0,0 0,-1 0,-1 0,-1zm-4 10l0 0c0,0 0,0 -1,0 0,0 0,0 0,0 0,0 0,0 0,0 1,0 1,0 1,0zm4 -9l0 0c0,0 0,0 0,0 0,0 0,-1 0,-1 0,0 0,1 0,1 0,0 0,0 0,0zm1 0l0 0c0,0 -1,0 -1,0 0,0 0,0 0,0l-3 0 -1 1 0 5c0,0 0,0 0,0 0,1 0,1 0,1 0,0 0,0 0,-1 0,0 0,0 0,0l0 -5 1 -1 3 0c0,0 0,0 0,0 0,0 1,0 1,0zm-5 6l0 0c0,1 0,1 0,1 0,0 0,0 0,-1 0,0 0,0 0,0 0,0 0,0 0,0zm4 -6l0 0c0,0 0,0 0,0 0,0 0,0 0,0 0,0 0,0 0,0 0,0 0,0 0,0zm9 -31l0 0c0,0 0,0 0,1l-10 0 -1 1 0 1c0,0 0,0 0,0 0,0 0,0 0,0 1,0 1,0 1,0 0,0 0,0 0,0l0 -1 1 -1 9 0c0,0 0,0 0,0 0,0 0,0 0,0 0,0 0,-1 0,-1zm-10 3l0 0c0,0 0,0 -1,0 0,0 0,0 0,0 0,0 0,0 0,0 1,0 1,0 1,0zm10 -2l0 0c0,0 0,0 0,0 0,0 0,0 0,0 0,0 0,0 0,0 0,0 0,0 0,0zm-13 59l0 0 -1 -1 0 0 0 2 1 0 0 -1zm2 -8l0 0c0,0 1,0 1,0l5 0c1,0 1,0 1,0 0,0 0,0 0,-1 0,0 0,0 0,0 0,0 0,0 -1,0l-5 0c0,0 -1,0 -1,0 0,0 0,0 0,0 0,1 0,1 0,1zm7 -1l0 0c0,0 0,0 0,0 0,0 0,0 0,0 0,1 0,1 0,1 0,0 0,0 0,-1l0 0zm-7 0l0 0c0,0 0,0 0,0 0,1 0,1 0,1 0,0 0,0 0,-1 0,0 0,0 0,0zm15 -4l0 0c0,-1 -1,-1 -1,-1l0 -3 -1 -2 0 -4c0,0 0,0 0,0 0,0 0,0 0,0 0,0 -1,0 -1,0 0,0 0,0 1,0l0 4 1 2 0 3c0,0 0,0 0,1 0,0 0,0 0,0 0,0 1,0 1,0zm-2 -10l0 0c0,0 0,0 0,0 0,0 0,0 0,0 0,0 0,0 0,0 0,0 0,0 0,0l0 0zm1 10l0 0c0,-1 0,-1 0,-1 0,0 0,0 0,1 0,0 0,0 0,0 0,0 0,0 0,0zm0 0l0 0c0,0 0,0 0,0 0,0 0,0 0,0l0 -4 -2 -2 0 -4c0,0 1,0 1,0 0,-1 -1,-1 -1,-1 0,0 0,0 0,1 0,0 0,0 0,0l0 4 2 2 0 4c0,0 -1,0 -1,0 0,0 1,0 1,0zm-2 -10l0 0c0,-1 0,-1 0,-1 0,0 0,0 0,1 0,0 0,0 0,0 0,0 0,0 0,0zm2 10l0 0c0,0 0,0 0,0 0,0 0,0 0,0 0,0 0,0 0,0 0,0 0,0 0,0zm-5 -1l0 0c0,0 0,0 0,-1 0,0 0,0 0,0 0,0 0,0 0,0l-3 0c0,0 0,0 -1,0 0,0 0,0 0,0 0,1 0,1 0,1 1,0 1,0 1,-1l3 0c0,1 0,1 0,1zm0 -1l0 0c0,0 0,0 0,0 0,0 0,1 0,1 0,0 0,-1 0,-1 0,0 0,0 0,0zm-3 0l0 0c0,0 -1,1 -1,1 0,0 0,-1 0,-1 0,0 0,0 0,0 0,0 1,0 1,0l0 0zm4 0l0 0c0,0 -1,0 -1,0 0,0 0,0 0,0l-4 0 -1 -1 0 -7c0,0 0,0 0,0 0,-1 0,-1 0,-1 0,0 0,0 0,1 0,0 0,0 0,0l0 7 1 1 4 0c0,0 0,0 0,0 0,0 1,0 1,0zm-6 -8l0 0c0,0 0,0 0,0 0,-1 0,-1 0,-1 0,0 0,0 0,1 0,0 0,0 0,0l0 0zm5 8l0 0c0,0 0,0 0,0 0,0 1,0 1,0 0,0 -1,0 -1,0 0,0 0,0 0,0zm6 2l0 0c0,0 0,0 0,0 0,0 0,0 0,0l0 -4 -2 -2 0 -4c0,0 1,0 1,0 0,-1 -1,-1 -1,-1 0,0 0,0 0,1 0,0 0,0 0,0l0 4 2 2 0 4c0,0 -1,0 -1,0 0,0 1,0 1,0zm-2 -10l0 0c0,-1 0,-1 0,-1 0,0 0,0 0,1 0,0 0,0 0,0 0,0 0,0 0,0zm2 10l0 0c0,0 0,0 0,0 0,0 0,0 0,0 0,0 0,0 0,0 0,0 0,0 0,0zm13 -51l0 0 -28 0c0,-1 0,-1 0,-1 0,0 -1,0 -1,1 0,0 1,0 1,0 0,0 0,0 0,0l28 0 8 4 9 0 0 0 -9 0 -8 -4zm-28 0l0 0c0,0 0,0 0,0 0,0 0,-1 0,-1 0,0 0,1 0,1 0,0 0,0 0,0zm0 8l0 0c0,0 0,0 0,0l0 1 5 5 6 0 1 -1 0 -8c0,0 1,0 1,0 0,0 -1,0 -1,0 0,0 0,0 0,0 0,0 0,0 0,0l0 8 -1 1 -6 0 -5 -5 0 -1c0,0 0,0 0,0 0,-1 0,-1 0,-1 0,0 0,0 0,1zm12 -3l0 0c0,0 0,0 0,0 0,0 0,0 0,0 0,0 0,0 0,0l0 0c0,0 0,0 0,0zm-12 3l0 0c0,0 0,0 0,0 0,0 0,0 0,0 0,-1 0,-1 0,-1 0,0 0,0 0,1zm28 -9l0 0 -28 0c0,-1 0,-1 0,-1 0,0 -1,0 -1,1 0,0 1,0 1,0 0,0 0,0 0,0l28 0 8 4 9 0 0 0 -9 0 -8 -4zm-28 0l0 0c0,0 0,0 0,0 0,-1 0,-1 0,-1 0,0 0,0 0,1 0,0 0,0 0,0zm28 -1l0 0 -28 0c0,0 -1,0 -1,0 0,0 0,0 0,0 0,0 0,0 0,0 0,0 1,0 1,0l28 0 8 5 9 0 0 0 -9 0 -8 -5zm-29 0l0 0c0,0 0,0 0,0 0,0 0,0 0,0 0,0 0,0 0,0 0,0 0,0 0,0l0 0zm29 3l0 0 -28 0c0,-1 0,-1 0,-1 0,0 -1,0 -1,1 0,0 1,0 1,0 0,0 0,0 0,0l28 0 8 4 9 0 0 0 -9 0 -8 -4zm-28 0l0 0c0,0 0,0 0,0 0,0 0,-1 0,-1 0,0 0,1 0,1 0,0 0,0 0,0zm28 -1l0 0 -28 0c0,0 -1,0 -1,0 0,0 0,0 0,0 0,0 0,0 0,0 0,0 1,0 1,0l28 0 8 5 9 0 0 0 -9 0 -8 -5zm-29 0l0 0c0,0 0,0 0,0 0,0 0,0 0,0 0,0 0,0 0,0 0,0 0,0 0,0l0 0zm29 -1l0 0 -28 0c0,0 -1,0 -1,0 0,0 0,0 0,0 0,0 0,0 0,0 0,0 1,0 1,0l28 0 8 5 9 0 0 0 -9 0 -8 -5zm-29 0l0 0c0,0 0,0 0,0 0,0 0,0 0,0 0,0 0,0 0,0 0,0 0,0 0,0l0 0zm36 0l0 0c0,0 0,0 0,0 0,0 0,0 0,0 0,0 0,0 0,0l10 0 0 0 -10 0c0,0 0,0 0,0zm0 0l0 0c0,0 0,0 0,0 0,0 0,0 0,0 0,0 0,0 0,0 0,0 0,0 0,0zm-5 -2l0 0 -1 0 7 4 9 0 0 0 -9 0 -6 -4zm-2 0l0 0 -28 0c0,0 0,0 0,0 0,0 -1,0 -1,1 0,0 1,0 1,0 0,0 0,0 0,0l28 0 8 4 9 0 0 0 -9 0 -8 -5zm-28 1l0 0c0,0 0,0 0,0 0,-1 0,-1 0,-1 0,0 0,0 0,1 0,0 0,0 0,0zm-46 23l0 0 2 -5 0 -10 1 -5 0 -4 0 0 0 4 -1 5 0 10 -2 5 0 9 -8 10 0 0 8 -10 0 -9zm75 -24l0 0 0 0 7 4 9 0 0 0 -9 0 -7 -4zm9 8l0 0c0,0 0,1 0,1 0,0 0,0 0,0 0,0 0,0 0,0l7 0 0 0 -7 0c0,-1 0,-1 0,-1zm0 1l0 0c0,0 0,0 0,0 0,0 0,0 0,0 0,0 0,0 0,0 0,0 0,0 0,0zm-10 -4l0 0 -28 0c0,-1 0,-1 0,-1 0,0 -1,0 -1,1 0,0 1,0 1,0 0,0 0,0 0,0l28 0 13 7 4 0 0 0 -4 0 -13 -7zm-28 0l0 0c0,0 0,0 0,0 0,0 0,-1 0,-1 0,0 0,1 0,1 0,0 0,0 0,0zm28 1l0 0 -28 0c0,-1 0,-1 0,-1 0,0 -1,0 -1,1 0,0 1,0 1,0 0,0 0,0 0,0l28 0 13 7 4 0 0 0 -4 0 -13 -7zm-28 0l0 0c0,0 0,0 0,0 0,0 0,-1 0,-1 0,0 0,1 0,1 0,0 0,0 0,0zm28 -1l0 0 -28 0c0,0 -1,0 -1,0 0,0 0,0 0,0 0,0 0,0 0,0 0,0 1,0 1,0l28 0 13 8 4 0 0 0 -4 0 -13 -8zm-29 0l0 0c0,0 0,0 0,0 0,0 0,0 0,0 0,0 0,0 0,0 0,0 0,0 0,0l0 0zm29 1l0 0 -28 0c0,0 -1,0 -1,0 0,0 0,0 0,0 0,0 0,0 0,0 0,0 1,0 1,0l28 0 13 8 4 0 0 0 -4 0 -13 -8zm-29 0l0 0c0,0 0,0 0,0 0,0 0,0 0,0 0,0 0,0 0,0 0,0 0,0 0,0l0 0zm29 1l0 0 -28 0c0,-1 0,-1 0,-1 0,0 -1,1 -1,1 0,0 1,0 1,0 0,0 0,0 0,0l28 0 13 7 4 0 0 0 -4 0 -13 -7zm-28 0l0 0c0,0 0,0 0,0 0,0 0,-1 0,-1 0,0 0,1 0,1 0,0 0,0 0,0zm-1 4l0 0c0,0 0,0 0,0l0 1 6 5 6 0 2 -1 0 -7c0,0 0,0 0,0 0,-1 0,-1 0,-1 0,0 -1,0 -1,1 0,0 0,0 1,0l0 7 -2 1 -6 0 -5 -5 0 -1c0,0 0,0 0,0 0,0 0,0 -1,0 0,0 0,0 0,0zm14 -2l0 0c0,-1 0,-1 0,-1 0,0 0,0 0,1 0,0 0,0 0,0l0 0c0,0 0,0 0,0zm-13 2l0 0c0,0 0,0 -1,0 0,0 0,0 0,0 0,0 0,0 0,0 1,0 1,0 1,0zm41 -2l0 0c0,0 0,1 0,1 0,0 0,0 0,0 0,0 0,0 0,0l4 0 0 0 -4 0c0,0 0,-1 0,-1zm0 1l0 0c0,0 0,0 0,0 0,0 0,0 0,0 0,0 0,0 0,0 0,0 0,0 0,0l0 0zm1 0l0 0c-1,0 -1,0 -1,0 0,0 0,1 1,1 0,0 0,-1 0,-1l3 0 0 0 -3 0c0,0 0,0 0,0zm0 0l0 0c0,0 0,0 0,0 -1,0 -1,0 -1,0 0,0 0,0 1,0 0,0 0,0 0,0l0 0zm-4 -1l0 0c0,0 0,0 0,0 0,0 0,1 0,1 1,0 1,-1 1,-1l6 0 0 0 -6 0c0,0 0,0 -1,0zm1 0l0 0c0,0 0,0 -1,0 0,0 0,0 0,0 0,0 0,0 0,0 1,0 1,0 1,0l0 0zm3 2l0 0c-1,0 -1,0 -1,0 0,0 0,1 1,1 0,0 0,-1 0,-1l3 0 0 0 -3 0c0,0 0,0 0,0zm0 0l0 0c0,0 0,0 0,0 -1,0 -1,0 -1,0 0,0 0,0 1,0 0,0 0,0 0,0l0 0zm-14 -7l0 0 -28 0c0,0 -1,0 -1,0 0,0 0,0 0,0 0,0 0,0 0,0 0,0 1,0 1,0l28 0 13 8 4 0 0 0 -4 0 -13 -8zm-29 0l0 0c0,0 0,0 0,0 0,0 0,0 0,0 0,0 0,0 0,0 0,0 0,0 0,0l0 0zm42 6l0 0c0,0 0,1 0,1 0,0 0,0 0,0 0,0 0,0 0,0l4 0 0 0 -4 0c0,0 0,-1 0,-1zm0 1l0 0c0,0 0,0 0,0 0,0 0,0 0,0 0,0 0,0 0,0 0,0 0,0 0,0l0 0z"/>
 </g>
</svg>
